# https://github.com/mikedh/trimesh
v 0.99999988 34.45199609 3.03657439
v 1.03700066 34.95295525 3.50499339
v 1.01761931 39.11217213 3.34592976
v 1.00646043 39.11217213 3.15236336
v 0.99999988 37.03289449 3.03657439
v 1.00176179 34.44074631 2.98452783
v 1.00176179 34.39706922 2.98628221
v 3.14722003 32.35154212 4.79797017
v 1.04698503 35.00854373 3.55703995
v 1.04639763 37.03355640 3.55703995
v 1.04639763 39.11217213 3.55645515
v 1.00058728 38.98842126 3.03657439
v 4.31832419 39.11217213 0.06290313
v 1.00587302 37.03355640 2.88452827
v 1.04639763 33.89677227 2.51610883
v 1.00587302 37.03289449 2.88452827
v 1.05520749 33.84515405 2.46815585
v 1.18147993 33.34088683 2.01201748
v 1.19851196 33.28993022 1.96640361
v 1.40289748 32.78632402 1.53775048
v 1.42580265 32.73867726 1.49856936
v 1.63606101 32.35154212 1.20324906
v 6.31989041 32.35154212 4.79797017
v 4.42404074 34.44074631 6.00498255
v 2.02721217 37.16524839 5.29562887
v 1.94028968 37.03355640 5.20674031
v 1.70360216 36.67421579 4.96405136
v 1.66660139 36.61333323 4.92019188
v 1.40348458 36.11766845 4.53598302
v 1.37470627 36.05744749 4.48686045
v 1.18147993 35.56376785 4.06171609
v 1.16386050 35.50619394 4.01083913
v 1.12098658 39.11217213 3.87399759
v 1.00939685 38.75614047 2.81844670
v 2.97396237 35.10052979 0.21904286
v 2.67501959 35.44597298 0.34652766
v 2.50117460 35.65707713 0.44009443
v 2.23218480 35.99656463 0.61611708
v 2.07302266 36.21097773 0.74009325
v 1.84103364 36.54914141 0.95763620
v 1.70360216 36.76686347 1.10909741
v 1.51331240 37.09973335 1.36055838
v 1.40348458 37.32142568 1.53775048
v 1.26135463 37.65297189 1.81494232
v 1.18206733 37.87797332 2.01143268
v 1.09162086 38.20157826 2.30499867
v 1.04639763 38.43253553 2.51669362
v 4.51977292 39.11217213 0.08337107
v 4.18500391 33.79221261 0.04360493
v 4.00000000 33.98941994 0.03775712
v 3.66875490 34.34148073 0.05588558
v 3.57654659 34.44074631 0.06933596
v 3.48022708 34.54596758 0.08395579
v 3.15896632 34.89604294 0.15880909
v 1.04639763 34.44074631 2.51610883
v 1.18147993 37.03289449 2.01201748
v 1.25195765 37.03289449 1.83657963
v 1.40289748 34.44074631 1.53775048
v 1.40642130 37.03289449 1.53131779
v 1.45986670 34.44074631 1.44476857
v 1.55442441 32.50242531 1.31786849
v 1.70301491 32.35154212 1.10909741
v 5.47415817 32.35154212 0.42722907
v 6.41562262 32.44683683 4.79797017
v 4.86100236 34.44074631 5.90849157
v 4.51977292 34.44074631 5.99036273
v 4.51977292 34.54596758 5.99036273
v 3.68226310 39.11217213 6.01083037
v 3.48022708 38.89577359 5.99094745
v 3.41679716 38.82827342 5.97866680
v 2.97631168 38.33922625 5.85527536
v 2.91640559 38.27238739 5.83363827
v 2.50117460 37.78598741 5.63422378
v 2.44949096 37.72113413 5.60322996
v 2.28680500 37.50936806 5.48802566
v 2.07302266 37.22877800 5.33422511
v 2.07302266 39.11217213 5.33422511
v 1.96848074 39.11217213 5.24124306
v 1.70242751 37.03355640 4.96463608
v 1.70242751 39.11217213 4.96463608
v 1.60493338 39.11217213 4.83949047
v 1.40348458 39.11217213 4.53598302
v 1.35649943 37.03289449 4.45235770
v 1.31949866 39.11217213 4.37750425
v 1.18147993 37.03289449 4.06230088
v 1.18206733 39.11217213 4.06288568
v 3.14017230 34.44074631 0.16465720
v 3.07145649 32.35154212 0.18629458
v 2.97396237 34.44074631 0.21904286
v 2.97513703 32.35154212 0.21904286
v 2.57752547 32.35154212 0.39798941
v 2.50117460 34.44074631 0.43950971
v 2.50058734 32.35154212 0.43950971
v 2.18637431 34.44074631 0.65003511
v 2.12588096 32.35154212 0.69623377
v 2.07243541 34.44074631 0.73950838
v 2.07302266 32.35154212 0.73950838
v 1.78758809 34.44074631 1.01377618
v 1.73590446 32.35154212 1.07050117
v 1.70301491 34.44074631 1.10909741
v 4.59494913 39.11217213 0.09799089
v 4.58320284 38.82827342 0.09565171
v 4.51977292 32.35154212 0.08337107
v 4.13566954 32.35154212 0.04185077
v 4.00000000 32.35154212 0.03775712
v 3.59945183 32.35154212 0.06524231
v 3.48022708 34.44074631 0.08337107
v 3.48022708 32.35154212 0.08337107
v 5.19400941 32.35154212 0.28746363
v 5.19107284 32.68904448 0.28512444
v 5.49882540 37.78598741 0.43950971
v 5.55168369 37.72113413 0.47050383
v 5.60043076 39.11217213 0.50208267
v 5.92697734 37.22877800 0.73950838
v 5.97278783 37.16524839 0.77868950
v 6.05971032 37.03355640 0.86699318
v 6.29757249 36.67421579 1.10968228
v 6.33339861 36.61333323 1.15412649
v 6.59768993 36.11766845 1.53775048
v 6.62529373 36.05744749 1.58745792
v 6.81852007 35.56376785 2.01260228
v 6.83613950 35.50619394 2.06289444
v 6.95418948 35.00854373 2.51669362
v 6.96299934 34.95295525 2.56932497
v 7.00000012 34.45199609 3.03657439
v 6.99882531 34.39706922 3.08745136
v 6.95360237 33.89677227 3.55703995
v 6.94479251 33.84515405 3.60557776
v 6.81852007 33.34088683 4.06230088
v 6.80148804 33.28993022 4.10732996
v 6.59710252 32.78632402 4.53656789
v 6.57419735 32.73867726 4.57574900
v 6.29757249 34.44074631 4.96405136
v 6.21182466 34.44074631 5.05878773
v 5.92815199 34.44074631 5.33364039
v 5.81421310 34.44074631 5.42369839
v 5.49882540 34.44074631 5.63363906
v 5.35728270 34.44074631 5.71024682
v 5.02603763 34.44074631 5.85527536
v 6.48844951 37.03355640 4.71142080
v 4.84162101 34.89604294 5.91492441
v 3.48022708 39.11217213 5.99094745
v 5.02603763 35.10052979 5.85527536
v 5.32498041 35.44597298 5.72779056
v 5.49882540 35.65707713 5.63363906
v 5.76898986 35.99656463 5.45820128
v 5.92815199 36.21097773 5.33364039
v 6.16014102 36.54914141 5.11668231
v 6.29639784 36.76686347 4.96463608
v 6.48668760 37.09973335 4.71375998
v 6.59768993 37.32142568 4.53598302
v 6.73864537 37.65297189 4.25879125
v 6.81852007 37.87797332 4.06288568
v 6.90837914 38.20157826 3.76931969
v 6.95418948 38.43253553 3.55703995
v 6.99060315 38.75614047 3.25587168
v 7.00000012 38.98842126 3.03657439
v 6.99353957 39.11217213 2.92137022
v 3.40563820 39.11217213 5.97632762
v 2.97631168 39.11217213 5.85527536
v 2.88351604 39.11217213 5.81960317
v 2.50117460 39.11217213 5.63422378
v 2.40074390 39.11217213 5.57223585
v 5.02545030 39.11217213 0.21904286
v 4.69949098 33.23831201 0.12021299
v 4.67012534 32.35154212 0.11436488
v 5.17873922 32.35154212 0.27986135
v 5.08359441 38.27238739 0.24068024
v 5.11648396 39.11217213 0.25471535
v 5.49882540 39.11217213 0.43950971
v 5.92697734 39.11217213 0.73950838
v 6.03210652 39.11217213 0.83249044
v 6.29757249 39.11217213 1.10909741
v 6.34455764 37.03355640 1.16699200
v 6.39506662 39.11217213 1.23482790
v 6.59768993 37.03289449 1.53775048
v 6.59651542 39.11217213 1.53775048
v 6.64350057 37.03289449 1.62196066
v 6.68050134 39.11217213 1.69564452
v 6.81852007 37.03289449 2.01201748
v 6.81852007 39.11217213 2.01143268
v 6.85493344 37.03289449 2.12137375
v 6.87901342 39.11217213 2.19973598
v 6.95418948 39.11217213 2.51669362
v 6.97298372 37.03355640 2.64827199
v 6.98238069 39.11217213 2.72838861
v 6.99882531 34.44074631 3.08920574
v 6.99412698 37.03289449 3.18920530
v 6.95418948 34.44074631 3.55645515
v 6.95418948 37.03355640 3.55703995
v 6.91836351 37.03355640 3.72487549
v 6.91836351 37.03289449 3.72487549
v 6.81852007 37.03355640 4.06288568
v 6.78504312 34.44074631 4.14709587
v 5.03426002 32.35154212 0.22196677
v 5.02545030 38.33922625 0.21904286
v 5.02486297 32.35154212 0.21904286
f 1 2 3
f 1 3 4
f 1 4 5
f 1 5 6
f 1 6 7
f 1 7 8
f 1 8 2
f 2 8 9
f 2 9 10
f 2 10 11
f 2 11 3
f 3 11 33
f 3 33 86
f 3 86 84
f 3 84 82
f 3 82 81
f 3 81 80
f 3 80 78
f 3 78 77
f 3 77 163
f 3 163 162
f 3 162 161
f 3 161 160
f 3 160 159
f 3 159 142
f 3 142 68
f 3 68 158
f 3 158 186
f 3 186 184
f 3 184 183
f 3 183 181
f 3 181 179
f 3 179 177
f 3 177 175
f 3 175 173
f 3 173 172
f 3 172 171
f 3 171 113
f 3 113 170
f 3 170 169
f 3 169 164
f 3 164 101
f 3 101 48
f 3 48 13
f 3 13 4
f 4 12 5
f 4 13 12
f 5 12 14
f 5 14 6
f 6 15 7
f 6 14 16
f 6 16 15
f 7 15 8
f 8 15 17
f 8 17 18
f 8 18 19
f 8 19 20
f 8 20 21
f 8 21 22
f 8 22 62
f 8 62 99
f 8 99 97
f 8 97 95
f 8 95 93
f 8 93 91
f 8 91 90
f 8 90 88
f 8 88 108
f 8 108 106
f 8 106 105
f 8 105 104
f 8 104 103
f 8 103 166
f 8 166 197
f 8 197 195
f 8 195 167
f 8 167 109
f 8 109 63
f 8 63 23
f 8 23 24
f 8 24 25
f 8 25 26
f 8 26 27
f 8 27 28
f 8 28 29
f 8 29 30
f 8 30 31
f 8 31 32
f 8 32 9
f 9 32 33
f 9 33 10
f 10 33 11
f 12 13 34
f 12 34 14
f 13 35 36
f 13 36 37
f 13 37 38
f 13 38 39
f 13 39 40
f 13 40 41
f 13 41 42
f 13 42 43
f 13 43 44
f 13 44 45
f 13 45 46
f 13 46 47
f 13 47 34
f 13 48 49
f 13 49 50
f 13 50 51
f 13 51 52
f 13 52 53
f 13 53 54
f 13 54 35
f 14 34 16
f 15 16 34
f 15 34 55
f 15 55 17
f 17 55 47
f 17 47 46
f 17 46 18
f 18 46 56
f 18 56 19
f 19 56 57
f 19 57 20
f 20 58 59
f 20 59 21
f 20 57 44
f 20 44 58
f 21 60 61
f 21 61 22
f 21 59 60
f 22 61 42
f 22 42 62
f 23 63 64
f 23 64 65
f 23 65 66
f 23 66 24
f 24 66 67
f 24 67 68
f 24 68 69
f 24 69 70
f 24 70 71
f 24 71 72
f 24 72 73
f 24 73 74
f 24 74 75
f 24 75 76
f 24 76 25
f 25 76 77
f 25 77 78
f 25 78 79
f 25 79 26
f 26 79 27
f 27 79 28
f 28 79 80
f 28 80 81
f 28 81 29
f 29 81 82
f 29 82 30
f 30 82 83
f 30 83 31
f 31 83 84
f 31 84 85
f 31 85 32
f 32 85 86
f 32 86 33
f 34 47 55
f 35 54 87
f 35 87 88
f 35 88 89
f 35 89 36
f 36 89 90
f 36 90 91
f 36 91 92
f 36 92 37
f 37 92 38
f 38 92 93
f 38 93 94
f 38 94 39
f 39 94 95
f 39 95 96
f 39 96 40
f 40 96 97
f 40 97 98
f 40 98 41
f 41 98 99
f 41 99 100
f 41 100 42
f 42 100 62
f 42 61 60
f 42 60 59
f 42 59 43
f 43 59 44
f 44 59 58
f 44 57 45
f 45 57 56
f 45 56 46
f 48 101 102
f 48 102 103
f 48 103 49
f 49 103 104
f 49 104 50
f 50 104 105
f 50 105 51
f 51 105 106
f 51 106 52
f 52 107 53
f 52 106 107
f 53 107 54
f 54 107 108
f 54 108 88
f 54 88 87
f 62 100 99
f 63 109 110
f 63 110 111
f 63 111 112
f 63 112 113
f 63 113 114
f 63 114 115
f 63 115 116
f 63 116 117
f 63 117 118
f 63 118 119
f 63 119 120
f 63 120 121
f 63 121 122
f 63 122 123
f 63 123 124
f 63 124 125
f 63 125 126
f 63 126 127
f 63 127 128
f 63 128 129
f 63 129 130
f 63 130 131
f 63 131 132
f 63 132 64
f 64 133 134
f 64 134 135
f 64 135 136
f 64 136 137
f 64 137 138
f 64 138 139
f 64 139 65
f 64 132 140
f 64 140 133
f 65 139 141
f 65 141 66
f 66 141 67
f 67 141 68
f 68 142 69
f 68 141 143
f 68 143 144
f 68 144 145
f 68 145 146
f 68 146 147
f 68 147 148
f 68 148 149
f 68 149 150
f 68 150 151
f 68 151 152
f 68 152 153
f 68 153 154
f 68 154 155
f 68 155 156
f 68 156 157
f 68 157 158
f 69 142 70
f 70 142 159
f 70 159 71
f 71 159 160
f 71 160 72
f 72 160 161
f 72 161 73
f 73 161 162
f 73 162 74
f 74 162 163
f 74 163 75
f 75 163 76
f 76 163 77
f 78 80 79
f 82 84 83
f 84 86 85
f 88 90 89
f 91 93 92
f 93 95 94
f 95 97 96
f 97 99 98
f 101 164 165
f 101 165 103
f 101 103 102
f 103 165 166
f 106 108 107
f 109 167 110
f 110 167 168
f 110 168 169
f 110 169 170
f 110 170 111
f 111 170 112
f 112 170 113
f 113 171 114
f 114 171 115
f 115 171 172
f 115 172 116
f 116 172 117
f 117 172 173
f 117 173 174
f 117 174 118
f 118 174 119
f 119 174 175
f 119 175 176
f 119 176 120
f 120 176 177
f 120 177 178
f 120 178 121
f 121 178 179
f 121 179 180
f 121 180 122
f 122 180 181
f 122 181 182
f 122 182 123
f 123 182 183
f 123 183 184
f 123 184 124
f 124 184 185
f 124 185 125
f 125 185 186
f 125 186 158
f 125 158 157
f 125 157 187
f 125 187 126
f 126 187 127
f 127 187 188
f 127 188 156
f 127 156 189
f 127 189 128
f 128 189 190
f 128 190 155
f 128 155 191
f 128 191 192
f 128 192 129
f 129 192 154
f 129 154 193
f 129 193 130
f 130 194 131
f 130 193 153
f 130 153 194
f 131 194 152
f 131 152 151
f 131 151 132
f 132 151 140
f 133 140 150
f 133 150 149
f 133 149 148
f 133 148 134
f 134 148 135
f 135 148 147
f 135 147 136
f 136 147 146
f 136 146 137
f 137 146 145
f 137 145 144
f 137 144 138
f 138 144 139
f 139 144 143
f 139 143 141
f 140 151 150
f 152 194 153
f 153 193 154
f 154 192 191
f 154 191 155
f 155 190 156
f 156 190 189
f 156 188 157
f 157 188 187
f 164 169 168
f 164 168 195
f 164 195 196
f 164 196 165
f 165 197 166
f 165 196 197
f 167 195 168
f 173 175 174
f 175 177 176
f 177 179 178
f 179 181 180
f 181 183 182
f 184 186 185
f 195 197 196

