# https://github.com/mikedh/trimesh
v 2.35042700 65.84509373 0.53497370
v 2.80693674 65.84509373 1.46436732
v 2.07114422 65.84509373 0.73915865
v 2.07114422 66.21129751 0.73915865
v 2.80693674 67.87506819 2.14783389
v 2.80693674 65.84509373 4.39085122
v 1.95989096 65.84509373 0.83923947
v 1.98200011 66.33693218 0.81711095
v 2.27843964 69.89355087 3.58266093
v 2.80693674 67.87506819 5.50381031
v 2.57558668 67.87506819 5.67279097
v 2.49953115 67.78549910 5.63456919
v 2.37006003 67.62419462 5.55561122
v 2.07167485 67.22905874 5.33533257
v 1.95847610 67.06894398 5.23525175
v 1.70183295 66.67459965 4.96468153
v 2.74874547 65.84509373 4.38984539
v 1.70200983 65.84509373 1.10880386
v 1.70200983 66.76773787 1.10880386
v 1.40203291 67.32219458 1.53779354
v 1.34808654 67.44069576 1.63485687
v 1.18111813 67.87823915 2.01103996
v 1.14609742 67.99238205 2.11363543
v 1.04563349 68.43348980 2.51647331
v 1.02936113 68.54446173 2.61957161
v 1.00000018 68.98874283 3.03699415
v 1.00176895 69.09456015 3.13707497
v 1.04581022 69.54478502 3.55801791
v 1.06420511 69.64782953 3.65306955
v 1.12770253 69.89355087 3.87586255
v 2.27843964 69.89355087 5.48620816
v 1.62949184 66.89020157 1.19882625
v 2.49970803 67.87506819 5.63456919
v 2.24412629 69.89355087 5.46508562
v 2.07149798 67.87506819 5.33533257
v 2.07149798 69.89355087 5.33482965
v 1.92009458 67.87546396 5.19602414
v 1.92009458 67.87506819 5.19602414
v 1.60915145 66.51646614 4.84850731
v 1.82458305 69.89355087 5.09795498
v 1.70183295 67.87506819 4.96518444
v 2.11412439 65.84509373 4.36570536
v 1.59093344 65.84509373 1.25314157
v 1.40203291 65.84509373 1.53729063
v 1.30457574 65.84509373 1.72739383
v 1.18111813 65.84509373 2.01103996
v 1.14397490 67.87506819 2.12067630
v 1.14397490 67.87546396 2.12067630
v 1.10913092 65.84509373 2.24791471
v 1.04563349 65.84509373 2.51647331
v 1.02529311 67.87546396 2.66282264
v 1.01308876 65.84509373 2.79458733
v 1.00000018 65.84509373 3.03699415
v 1.00000018 67.87546396 3.03749707
v 1.00813621 67.87546396 3.21754195
v 1.01892555 65.84509373 3.35081544
v 1.04563349 67.87506819 3.55801791
v 1.04563349 65.84509373 3.55801791
v 1.09356606 67.87506819 3.76672920
v 1.12717205 65.84509373 3.89648218
v 1.18111813 69.89355087 4.06294826
v 1.70183295 69.89355087 4.96468153
v 1.55732760 67.87506819 4.77357250
v 1.40238667 66.11855745 4.53720059
v 1.28724211 65.84509373 4.30636104
v 1.33163744 65.96280098 4.40744754
v 1.18094140 65.84509373 4.06244535
v 1.18094140 67.87506819 4.06294826
v 1.22250670 69.89355087 4.16805830
v 1.48074144 69.89355087 4.66091868
v 1.40203291 69.89355087 4.53669768
f 1 2 6
f 1 6 17
f 1 17 42
f 1 42 65
f 1 65 67
f 1 67 60
f 1 60 58
f 1 58 56
f 1 56 53
f 1 53 52
f 1 52 50
f 1 50 49
f 1 49 46
f 1 46 45
f 1 45 44
f 1 44 43
f 1 43 18
f 1 18 7
f 1 7 3
f 1 3 4
f 1 4 5
f 1 5 2
f 2 5 10
f 2 10 6
f 3 7 8
f 3 8 4
f 4 8 5
f 5 8 9
f 5 9 31
f 5 31 10
f 6 10 11
f 6 11 12
f 6 12 13
f 6 13 14
f 6 14 15
f 6 15 16
f 6 16 17
f 7 18 19
f 7 19 8
f 8 19 9
f 9 20 21
f 9 21 22
f 9 22 23
f 9 23 24
f 9 24 25
f 9 25 26
f 9 26 27
f 9 27 28
f 9 28 29
f 9 29 30
f 9 30 61
f 9 61 69
f 9 69 71
f 9 71 70
f 9 70 62
f 9 62 40
f 9 40 36
f 9 36 34
f 9 34 31
f 9 19 32
f 9 32 20
f 10 31 11
f 11 33 12
f 11 31 33
f 12 33 13
f 13 33 34
f 13 34 14
f 14 34 35
f 14 35 15
f 15 35 36
f 15 36 37
f 15 37 38
f 15 38 16
f 16 39 17
f 16 38 40
f 16 40 41
f 16 41 39
f 17 39 42
f 18 43 32
f 18 32 19
f 20 32 43
f 20 43 44
f 20 44 21
f 21 44 45
f 21 45 22
f 22 45 46
f 22 46 23
f 23 46 47
f 23 47 48
f 23 48 24
f 24 48 49
f 24 49 50
f 24 50 25
f 25 50 51
f 25 51 26
f 26 51 52
f 26 52 53
f 26 53 54
f 26 54 27
f 27 54 53
f 27 53 55
f 27 55 28
f 28 55 56
f 28 56 57
f 28 57 29
f 29 57 58
f 29 58 59
f 29 59 30
f 30 59 60
f 30 60 61
f 31 34 33
f 34 36 35
f 36 40 37
f 37 40 38
f 39 41 62
f 39 62 63
f 39 63 64
f 39 64 42
f 40 62 41
f 42 64 66
f 42 66 65
f 46 49 47
f 47 49 48
f 50 52 51
f 53 56 55
f 56 58 57
f 58 60 59
f 60 67 68
f 60 68 61
f 61 68 69
f 62 70 63
f 63 70 64
f 64 70 71
f 64 71 66
f 65 66 69
f 65 69 67
f 66 71 69
f 67 69 68

