# https://github.com/mikedh/trimesh
v 0.99999988 24.45160985 3.03646003
v 1.00176179 24.42971230 3.01649136
v 2.55403289 21.45960093 4.74436920
v 1.04287380 24.98366714 3.53508964
v 1.04169929 25.05828500 3.53332769
v 1.03171492 27.40712166 3.46226271
v 1.02349246 29.37638164 3.40176936
v 0.99999988 25.05909562 3.03704735
v 0.99999988 25.05828500 3.03646003
v 1.00469851 28.82648110 2.88434571
v 1.00352371 27.40712166 2.92721963
v 1.00176179 25.05828500 2.99711000
v 1.04639763 23.89684319 2.51609981
v 1.05873132 25.05828500 3.60439271
v 1.04639763 25.00718832 3.55740756
v 1.05050886 23.87737751 2.49789309
v 1.18147993 23.34045410 2.01159704
v 1.18794048 23.32180023 1.99515227
v 1.40231007 22.78649926 1.53822195
v 1.40994513 22.77108908 1.52471375
v 1.70242751 22.23011017 1.10948276
v 1.71123722 22.21469998 1.09832373
v 2.07302266 21.67534351 0.73947486
v 2.08183238 21.66317701 0.73183980
v 2.23805794 21.45960093 0.62259939
v 5.66268602 21.45960093 4.74436920
v 4.98844953 25.05909562 5.86848821
v 2.94518398 28.30496788 5.84440853
v 2.50117460 27.78588772 5.63473728
v 2.47592011 27.75344610 5.61946716
v 2.27505872 27.49147296 5.47792446
v 2.21045414 27.40712166 5.43211397
v 2.07302266 27.22868800 5.33461984
v 2.05070475 27.19786763 5.31582575
v 1.70360216 26.67473316 4.96402469
v 1.68598273 26.64553404 4.94346868
v 1.40348458 26.11834407 4.53587275
v 1.38997638 26.09076738 4.51414209
v 1.18147993 25.56357741 4.06249765
v 1.17325747 25.53843379 4.04017974
v 1.04639763 25.05828500 3.55740756
v 1.04698503 29.54427242 3.55682027
v 3.72631166 29.74460363 0.05936529
v 0.99999988 28.98869395 3.03704735
v 1.04698503 28.43311548 2.51727443
v 1.04639763 25.05828500 2.51609981
v 1.05696940 25.05828500 2.46324155
v 1.13273287 29.74460363 3.91684379
v 1.07576334 28.27252626 2.36985859
v 1.18147993 27.87834883 2.01159704
v 1.18500376 27.40712166 2.00220000
v 1.23492563 27.72343636 1.87592749
v 1.40231007 23.25204849 1.53822195
v 1.36648381 27.40712166 1.61046159
v 1.40348458 27.32196093 1.53822195
v 1.41699278 23.25204849 1.51296746
v 1.70242751 23.25204849 1.10948276
v 1.47689903 27.16948032 1.41606059
v 1.70360216 26.76719427 1.11007001
v 1.75880963 24.93905902 1.04429092
v 2.07184801 25.05828500 0.73947486
v 1.79522315 26.61957979 1.00494083
v 2.15407202 25.05828500 0.67428302
v 2.50117460 21.45960093 0.43994483
v 2.17815185 26.06724739 0.65548893
v 6.13547379 21.45960093 0.94151091
v 6.45262340 22.51641512 4.74436920
v 5.03073612 25.05909562 5.85321810
v 5.02603763 25.10046005 5.85498001
v 4.27427565 29.74460363 6.01472940
v 4.00000000 29.45099950 6.03704747
v 3.96534847 29.41287994 6.03646006
v 3.48022708 28.89623284 5.99123683
v 3.44675017 28.85973454 5.98477658
v 2.97513703 28.33903313 5.85556742
v 2.97513703 29.74460363 5.85556742
v 2.89996082 29.74460363 5.82620170
v 2.50117460 29.74460363 5.63473728
v 2.41895059 29.74460363 5.58422830
v 2.07302266 29.74460363 5.33461984
v 2.04483160 27.40712166 5.31112727
v 1.70242751 27.40712166 4.96519934
v 1.67012522 27.40712166 4.92408734
v 1.62431473 29.74460363 4.86535590
v 1.40348458 29.74460363 4.53587275
v 1.33770549 29.74460363 4.41606071
v 1.18147993 27.40712166 4.06308498
v 1.18147993 29.74460363 4.06308498
v 1.09044635 29.74460363 3.74006223
v 2.97396237 25.10046005 0.21911468
v 2.61628816 25.51734686 0.37651476
v 2.50117460 25.65603852 0.43935742
v 2.07302266 26.21080518 0.73947486
v 4.00000000 29.74460363 0.03704723
v 3.60238840 24.41267967 0.06406363
v 3.48022708 24.54488277 0.08344498
v 3.09494907 24.96501327 0.17741527
v 3.01155047 25.05909562 0.20560648
v 1.04874694 27.40712166 2.50435352
v 1.44048536 25.05828500 1.47420477
v 2.50117460 25.05828500 0.43935742
v 2.51879403 21.45960093 0.42937305
v 6.94185609 25.05828500 2.46911470
v 6.95418948 25.00718832 2.51609981
v 6.95712620 24.98366714 2.53841773
v 7.00000012 24.45160985 3.03704735
v 6.99941272 24.42971230 3.05701602
v 6.95418948 23.89684319 3.55740756
v 6.95066565 23.87737751 3.57561432
v 6.81852007 23.34045410 4.06191032
v 6.81264693 23.32180023 4.07894243
v 6.59768993 22.78649926 4.53646000
v 6.59005487 22.77108908 4.54938095
v 6.00978860 21.45960093 0.81112724
v 6.29757249 29.74460363 1.10889535
v 6.29757249 26.67473316 1.11007001
v 6.31401727 26.64553404 1.13062602
v 6.59768993 26.11834407 1.53822195
v 6.61002362 26.09076738 1.55995261
v 6.81852007 25.56357741 2.01159704
v 6.82674253 25.53843379 2.03391496
v 6.29757249 25.05909562 4.96402469
v 6.23884106 25.05909562 5.03039118
v 5.92815199 25.05909562 5.33461984
v 5.84592798 25.05909562 5.39922442
v 5.49882540 25.05909562 5.63473728
v 5.39663279 25.05909562 5.69111940
v 6.58300722 23.25204849 4.56112724
v 6.52310097 27.16948032 4.65803411
v 5.38371184 25.51734686 5.69757994
v 6.91014105 29.74460363 2.33344514
v 4.00000000 29.74460363 6.03704747
v 5.49882540 25.65603852 5.63473728
v 5.82243541 26.06724739 5.41860577
v 5.92815199 26.21080518 5.33461984
v 6.20595151 26.61957979 5.06915387
v 6.29757249 26.76719427 4.96402469
v 6.59768993 27.32196093 4.53587275
v 6.76566178 27.72343636 4.19816721
v 6.81852007 27.87834883 4.06308498
v 6.92423666 28.27252626 3.70423611
v 6.95418948 28.43311548 3.55682027
v 6.99588889 28.82648110 3.18974899
v 7.00000012 28.98869395 3.03704735
v 6.97768205 29.37638164 2.67232534
v 6.95418948 29.54427242 2.51609981
v 3.95418950 29.74460363 6.03528555
v 3.48022708 29.74460363 5.99123683
v 3.41679716 29.74460363 5.97890344
v 1.98844948 29.74460363 5.25944363
v 1.70360216 29.74460363 4.96519934
v 2.97396237 25.05828500 0.21852728
v 2.97454970 21.45960093 0.21852728
v 2.60336721 25.05828500 0.38297530
v 4.04581050 29.74460363 0.03880914
v 4.03465153 29.41287994 0.03763463
v 4.00000000 29.45099950 0.03704723
v 4.00000000 21.45960093 0.03763463
v 3.52427562 21.45960093 0.07580992
v 3.48022708 21.45960093 0.08344498
v 3.00567733 21.45960093 0.20795580
v 6.84494907 27.40712166 2.08853517
v 6.86726713 29.74460363 2.15725090
v 6.95830071 25.05828500 2.54017968
v 6.96887249 27.40712166 2.61183199
v 7.00000012 25.05828500 3.03646003
v 6.95418948 25.05828500 3.55740756
v 6.81852007 25.05828500 4.06249765
v 6.81852007 27.40712166 4.06308498
v 6.79444009 25.05909562 4.12592757
v 6.79444009 25.05828500 4.12592757
v 6.59768993 25.05828500 4.53646000
v 5.92815199 21.45960093 0.73947486
v 6.00685203 21.65668964 0.80819067
v 6.01213792 29.74460363 0.81347641
v 6.37685993 29.74460363 1.20873880
v 6.33046204 27.40712166 1.15000736
v 6.59768993 29.74460363 1.53822195
v 6.62940496 27.40712166 1.59577873
v 6.66288191 29.74460363 1.65803399
v 6.81852007 27.40712166 2.01100972
v 6.81852007 29.74460363 2.01100972
v 6.55951464 25.05909562 4.59930267
v 6.55951464 25.05828500 4.59930267
v 4.51977292 29.74460363 0.08285787
v 4.11981206 23.86277914 0.03998395
v 4.10689115 21.45960093 0.03939655
v 5.60512924 21.45960093 0.50396200
v 5.92815199 29.74460363 0.73947486
v 5.95516840 27.40712166 0.76296743
v 4.58320284 29.74460363 0.09519126
v 4.55324983 28.85973454 0.08931812
v 4.51977292 28.89623284 0.08285787
v 4.15916210 21.45960093 0.04409518
v 5.49882540 21.45960093 0.43994483
v 5.59338295 22.20658898 0.49573954
v 5.59279570 29.74460363 0.49750146
v 5.02545030 29.74460363 0.21852728
v 4.63488647 23.30882311 0.10576304
v 4.62607676 21.45960093 0.10400113
v 4.51977292 21.45960093 0.08344498
v 5.15172282 21.45960093 0.26962366
v 5.49882540 27.78588772 0.43935742
v 5.52525455 27.75344610 0.45462754
v 5.58163667 29.74460363 0.48986640
v 5.10062651 29.74460363 0.24789300
v 5.05540328 28.30496788 0.22968616
v 5.02545030 21.45960093 0.21852728
v 4.66660143 21.45960093 0.11457291
v 5.12411901 21.45960093 0.25670286
v 5.12999216 22.76054502 0.25905188
v 5.49882540 29.74460363 0.43935742
f 1 2 3
f 1 3 4
f 1 4 5
f 1 5 6
f 1 6 7
f 1 7 8
f 1 8 44
f 1 44 9
f 1 9 10
f 1 10 11
f 1 11 12
f 1 12 2
f 2 12 13
f 2 13 3
f 3 14 15
f 3 15 4
f 3 13 16
f 3 16 17
f 3 17 18
f 3 18 19
f 3 19 20
f 3 20 21
f 3 21 22
f 3 22 23
f 3 23 24
f 3 24 25
f 3 25 64
f 3 64 102
f 3 102 153
f 3 153 161
f 3 161 160
f 3 160 159
f 3 159 158
f 3 158 187
f 3 187 194
f 3 194 201
f 3 201 200
f 3 200 209
f 3 209 208
f 3 208 210
f 3 210 202
f 3 202 195
f 3 195 188
f 3 188 173
f 3 173 114
f 3 114 66
f 3 66 26
f 3 26 27
f 3 27 28
f 3 28 29
f 3 29 30
f 3 30 31
f 3 31 32
f 3 32 33
f 3 33 34
f 3 34 35
f 3 35 36
f 3 36 37
f 3 37 38
f 3 38 39
f 3 39 40
f 3 40 14
f 4 15 5
f 5 15 41
f 5 41 42
f 5 42 6
f 6 42 7
f 7 42 43
f 7 43 44
f 7 44 8
f 9 44 10
f 10 44 43
f 10 43 45
f 10 45 46
f 10 46 13
f 10 13 11
f 11 13 12
f 13 46 99
f 13 99 47
f 13 47 16
f 14 40 48
f 14 48 15
f 15 48 41
f 16 47 17
f 17 47 49
f 17 49 50
f 17 50 51
f 17 51 18
f 18 51 52
f 18 52 19
f 19 53 20
f 19 52 54
f 19 54 53
f 20 53 55
f 20 55 56
f 20 56 21
f 21 57 22
f 21 56 58
f 21 58 57
f 22 57 59
f 22 59 60
f 22 60 23
f 23 61 24
f 23 60 62
f 23 62 61
f 24 61 63
f 24 63 25
f 25 63 65
f 25 65 64
f 26 66 67
f 26 67 27
f 27 67 68
f 27 68 69
f 27 69 70
f 27 70 71
f 27 71 72
f 27 72 73
f 27 73 74
f 27 74 75
f 27 75 28
f 28 75 76
f 28 76 77
f 28 77 29
f 29 77 78
f 29 78 30
f 30 78 79
f 30 79 31
f 31 79 32
f 32 79 33
f 33 79 80
f 33 80 81
f 33 81 34
f 34 81 35
f 35 81 82
f 35 82 36
f 36 82 83
f 36 83 37
f 37 83 84
f 37 84 85
f 37 85 38
f 38 85 86
f 38 86 39
f 39 86 87
f 39 87 40
f 40 87 88
f 40 88 48
f 41 48 89
f 41 89 42
f 42 89 43
f 43 90 91
f 43 91 92
f 43 92 65
f 43 65 93
f 43 93 62
f 43 62 59
f 43 59 58
f 43 58 55
f 43 55 54
f 43 54 52
f 43 52 50
f 43 50 49
f 43 49 45
f 43 89 48
f 43 48 88
f 43 88 86
f 43 86 85
f 43 85 84
f 43 84 151
f 43 151 150
f 43 150 80
f 43 80 79
f 43 79 78
f 43 78 77
f 43 77 76
f 43 76 149
f 43 149 148
f 43 148 147
f 43 147 132
f 43 132 70
f 43 70 131
f 43 131 163
f 43 163 182
f 43 182 180
f 43 180 178
f 43 178 176
f 43 176 115
f 43 115 175
f 43 175 189
f 43 189 197
f 43 197 205
f 43 205 212
f 43 212 206
f 43 206 198
f 43 198 191
f 43 191 185
f 43 185 155
f 43 155 94
f 43 94 95
f 43 95 96
f 43 96 97
f 43 97 98
f 43 98 90
f 45 49 99
f 45 99 46
f 47 99 49
f 50 52 51
f 53 54 55
f 55 58 100
f 55 100 56
f 56 100 58
f 57 58 59
f 59 62 60
f 61 62 93
f 61 93 65
f 61 65 63
f 64 101 102
f 64 65 101
f 65 92 101
f 66 103 104
f 66 104 105
f 66 105 106
f 66 106 107
f 66 107 108
f 66 108 109
f 66 109 110
f 66 110 111
f 66 111 112
f 66 112 113
f 66 113 67
f 66 114 115
f 66 115 116
f 66 116 117
f 66 117 118
f 66 118 119
f 66 119 120
f 66 120 121
f 66 121 103
f 67 122 123
f 67 123 124
f 67 124 125
f 67 125 126
f 67 126 127
f 67 127 68
f 67 113 128
f 67 128 129
f 67 129 122
f 68 127 130
f 68 130 69
f 69 130 70
f 70 132 71
f 70 130 133
f 70 133 134
f 70 134 135
f 70 135 136
f 70 136 137
f 70 137 129
f 70 129 138
f 70 138 139
f 70 139 140
f 70 140 141
f 70 141 142
f 70 142 143
f 70 143 144
f 70 144 145
f 70 145 146
f 70 146 131
f 71 132 72
f 72 132 147
f 72 147 148
f 72 148 73
f 73 148 74
f 74 148 149
f 74 149 75
f 75 149 76
f 80 150 81
f 81 150 82
f 82 150 151
f 82 151 84
f 82 84 83
f 86 88 87
f 90 98 152
f 90 152 91
f 91 152 153
f 91 153 154
f 91 154 92
f 92 154 102
f 92 102 101
f 94 155 156
f 94 156 157
f 94 157 95
f 95 158 159
f 95 159 96
f 95 157 158
f 96 159 160
f 96 160 97
f 97 160 161
f 97 161 98
f 98 161 153
f 98 153 152
f 102 154 153
f 103 121 162
f 103 162 163
f 103 163 104
f 104 164 105
f 104 163 131
f 104 131 146
f 104 146 164
f 105 164 106
f 106 164 165
f 106 165 145
f 106 145 166
f 106 166 144
f 106 144 143
f 106 143 107
f 107 143 108
f 108 167 109
f 108 143 167
f 109 167 142
f 109 142 141
f 109 141 110
f 110 168 111
f 110 141 168
f 111 168 169
f 111 169 140
f 111 140 170
f 111 170 171
f 111 171 112
f 112 171 139
f 112 139 172
f 112 172 113
f 113 172 128
f 114 173 174
f 114 174 175
f 114 175 115
f 115 176 177
f 115 177 116
f 116 177 117
f 117 177 118
f 118 177 176
f 118 176 178
f 118 178 119
f 119 178 179
f 119 179 120
f 120 179 180
f 120 180 181
f 120 181 121
f 121 181 182
f 121 182 162
f 122 129 137
f 122 137 136
f 122 136 123
f 123 136 124
f 124 136 135
f 124 135 134
f 124 134 125
f 125 134 126
f 126 134 133
f 126 133 127
f 127 133 130
f 128 172 138
f 128 138 183
f 128 183 184
f 128 184 129
f 129 184 183
f 129 183 138
f 138 172 139
f 139 171 170
f 139 170 140
f 140 169 141
f 141 169 168
f 142 167 143
f 144 166 145
f 145 165 146
f 146 165 164
f 155 185 186
f 155 186 156
f 156 186 187
f 156 187 157
f 157 187 158
f 162 182 163
f 173 188 189
f 173 189 190
f 173 190 174
f 174 190 175
f 175 190 189
f 178 180 179
f 180 182 181
f 185 191 192
f 185 192 193
f 185 193 194
f 185 194 186
f 186 194 187
f 188 195 196
f 188 196 197
f 188 197 189
f 191 198 199
f 191 199 200
f 191 200 192
f 192 200 201
f 192 201 193
f 193 201 194
f 195 202 203
f 195 203 204
f 195 204 196
f 196 204 205
f 196 205 197
f 198 206 207
f 198 207 208
f 198 208 209
f 198 209 199
f 199 209 200
f 202 210 211
f 202 211 212
f 202 212 203
f 203 212 204
f 204 212 205
f 206 212 211
f 206 211 207
f 207 211 210
f 207 210 208

