# https://github.com/mikedh/trimesh
v 6.93376684 43.78960162 3.65607634
v 6.81832308 43.78960162 4.06249765
v 6.81832308 43.33956450 4.06249765
v 5.94474056 41.74407393 0.75474512
v 5.92808449 41.76756784 0.74006226
v 5.70408890 42.06541717 0.56915384
v 5.49904683 42.32254386 0.43994483
v 5.25265181 42.61830479 0.31191017
v 5.02578461 42.87830293 0.21852728
v 4.76445647 43.16727668 0.13689067
v 4.52035879 43.43301773 0.08344498
v 4.25213854 43.72120857 0.04820641
v 4.18723728 43.78960162 0.04585709
v 4.19183205 44.37224805 4.75670274
v 6.78099030 43.78960162 4.15822979
v 6.79075444 43.25655311 4.13591187
v 5.92578703 41.74407393 0.73830020
v 6.59777367 42.78589398 4.53646000
v 6.55871803 42.70549297 4.60165184
v 6.49439105 42.58750170 4.69209831
v 6.29738981 42.22909063 4.96519934
v 6.24914461 42.14973375 5.02216872
v 5.94876090 41.70570076 5.31523850
v 5.69317633 41.70570076 4.10302233
v 5.47779599 41.70570076 3.17271689
v 5.43586874 41.70570076 3.03704735
v 5.69317633 41.74407393 0.56210604
v 5.51053384 41.74407393 0.44640508
v 5.49904683 41.74407393 0.43994483
v 5.21933967 41.74407393 0.29781487
v 5.02578461 41.74407393 0.21852728
v 4.70529871 41.74407393 0.12338247
v 4.52552793 41.74407393 0.08403238
v 4.52035879 41.74407393 0.08344498
v 4.16713511 41.74407393 0.04350778
v 4.00000000 43.78960162 0.03704723
v 4.19183205 44.19212878 6.02823760
v 6.59777367 43.78960162 4.53646000
v 3.71397497 43.78960162 0.05173024
v 3.48021553 43.78960162 0.08344498
v 3.17983182 43.78960162 0.15333559
v 2.97478975 43.78960162 0.21852728
v 2.67268294 43.78960162 0.34949835
v 2.50152746 43.78960162 0.43994483
v 2.20803583 43.78960162 0.63434567
v 2.07248995 43.78960162 0.73947486
v 1.80312091 43.78960162 0.99848043
v 1.70318449 43.78960162 1.10948276
v 1.46885061 43.78960162 1.43074345
v 1.40222633 43.78960162 1.53763469
v 1.21958399 43.78960162 1.91586491
v 1.18225121 43.78960162 2.01159704
v 1.06623316 43.78960162 2.41743106
v 6.53114939 43.78960162 4.64335125
v 6.29681551 43.78986269 4.96519934
v 6.19802782 43.78986269 5.07620167
v 5.92751005 43.78986269 5.33461984
v 5.92693576 41.70570076 5.33520710
v 2.56470570 41.70570076 3.03704735
v 4.00000000 41.74407393 0.03704723
v 4.00000000 43.98877680 6.03704747
v 4.00000000 41.70570076 6.03704747
v 4.28602503 43.78986269 6.02236446
v 4.52035879 43.78986269 5.99123683
v 4.82074255 43.78986269 5.92075910
v 5.02521025 43.78986269 5.85556742
v 5.32789135 43.78986269 5.72518375
v 5.49904683 43.78986269 5.63473728
v 5.79196417 43.78986269 5.43974902
v 3.62552544 41.74407393 0.06288912
v 3.48021553 41.74407393 0.08344498
v 3.09367971 41.74407393 0.17976459
v 2.97536412 41.74407393 0.21852728
v 2.59112561 41.74407393 0.39061036
v 2.50095317 41.74407393 0.43994483
v 2.13451946 41.74407393 0.68955313
v 2.07593599 41.74407393 0.73653828
v 2.06674644 41.74407393 0.74534800
v 1.75200397 42.14973375 1.05251323
v 1.70318449 42.22909063 1.10948276
v 1.44185627 42.70575404 1.47244286
v 1.40222633 42.78589398 1.53763469
v 1.20924556 43.25655311 1.93818282
v 1.18225121 43.33982557 2.01159704
v 2.02826509 41.70570076 5.29585715
v 2.07191551 41.76730677 5.33461984
v 2.29533666 42.06515610 5.50494086
v 2.50095317 42.32254386 5.63473728
v 2.74734819 42.61830479 5.76218452
v 2.97421539 42.87856400 5.85556742
v 3.23554353 43.16753775 5.93779143
v 3.47964121 43.43301773 5.99123683
v 3.74786146 43.72120857 6.02588829
v 3.81218837 43.78986269 6.02882501
v 5.86777800 41.70570076 5.38395416
v 2.02596778 41.74407393 0.78528535
v 3.83401358 41.70570076 6.03058692
v 4.37619758 41.70570076 6.01120558
v 4.52035879 41.70570076 5.99123683
v 4.90861768 41.70570076 5.89433011
v 5.02521025 41.70570076 5.85556742
v 5.41002297 41.70570076 5.68289693
v 5.49904683 41.70570076 5.63473728
v 2.07191551 41.70570076 5.33461984
v 2.30854669 41.70570076 5.51316332
v 2.50095317 41.70570076 5.63473728
v 2.78295772 41.70570076 5.77745464
v 2.97421539 41.70570076 5.85556742
v 3.29642431 41.70570076 5.95129963
v 3.47964121 41.70570076 5.99123683
f 1 2 3
f 1 3 4
f 1 4 5
f 1 5 6
f 1 6 7
f 1 7 8
f 1 8 9
f 1 9 10
f 1 10 11
f 1 11 12
f 1 12 13
f 1 13 14
f 1 14 2
f 2 14 15
f 2 15 16
f 2 16 3
f 3 16 4
f 4 17 5
f 4 16 18
f 4 18 19
f 4 19 20
f 4 20 21
f 4 21 22
f 4 22 23
f 4 23 24
f 4 24 25
f 4 25 26
f 4 26 17
f 5 17 6
f 6 27 28
f 6 28 7
f 6 17 27
f 7 28 29
f 7 29 8
f 8 29 30
f 8 30 9
f 9 30 31
f 9 31 10
f 10 31 32
f 10 32 11
f 11 32 33
f 11 33 12
f 12 33 34
f 12 34 35
f 12 35 36
f 12 36 13
f 13 36 14
f 14 37 38
f 14 38 15
f 14 36 39
f 14 39 40
f 14 40 41
f 14 41 42
f 14 42 43
f 14 43 44
f 14 44 45
f 14 45 46
f 14 46 47
f 14 47 48
f 14 48 49
f 14 49 50
f 14 50 51
f 14 51 52
f 14 52 53
f 14 53 37
f 15 38 18
f 15 18 16
f 17 26 27
f 18 38 19
f 19 38 54
f 19 54 20
f 20 54 21
f 21 54 55
f 21 55 22
f 22 55 56
f 22 56 23
f 23 56 57
f 23 57 58
f 23 58 95
f 23 95 103
f 23 103 102
f 23 102 101
f 23 101 100
f 23 100 99
f 23 99 98
f 23 98 62
f 23 62 97
f 23 97 110
f 23 110 109
f 23 109 108
f 23 108 107
f 23 107 106
f 23 106 105
f 23 105 104
f 23 104 85
f 23 85 59
f 23 59 26
f 23 26 25
f 23 25 24
f 26 59 60
f 26 60 35
f 26 35 34
f 26 34 33
f 26 33 32
f 26 32 31
f 26 31 30
f 26 30 29
f 26 29 28
f 26 28 27
f 35 60 36
f 36 60 39
f 37 61 62
f 37 62 63
f 37 63 64
f 37 64 65
f 37 65 66
f 37 66 67
f 37 67 68
f 37 68 69
f 37 69 57
f 37 57 56
f 37 56 55
f 37 55 54
f 37 54 38
f 37 53 61
f 39 60 70
f 39 70 40
f 40 70 71
f 40 71 41
f 41 71 72
f 41 72 42
f 42 73 43
f 42 72 73
f 43 73 74
f 43 74 44
f 44 74 75
f 44 75 45
f 45 76 46
f 45 75 76
f 46 76 77
f 46 77 78
f 46 78 47
f 47 79 48
f 47 78 79
f 48 79 80
f 48 80 49
f 49 80 81
f 49 81 50
f 50 82 51
f 50 81 82
f 51 83 52
f 51 82 83
f 52 84 53
f 52 83 84
f 53 85 86
f 53 86 87
f 53 87 88
f 53 88 89
f 53 89 90
f 53 90 91
f 53 91 92
f 53 92 93
f 53 93 94
f 53 94 61
f 53 84 85
f 57 69 95
f 57 95 58
f 59 96 78
f 59 78 77
f 59 77 76
f 59 76 75
f 59 75 74
f 59 74 73
f 59 73 72
f 59 72 71
f 59 71 70
f 59 70 60
f 59 85 96
f 61 94 97
f 61 97 62
f 62 98 63
f 63 98 64
f 64 98 99
f 64 99 65
f 65 99 100
f 65 100 66
f 66 100 101
f 66 101 67
f 67 102 68
f 67 101 102
f 68 102 103
f 68 103 69
f 69 103 95
f 78 96 79
f 79 96 85
f 79 85 80
f 80 85 81
f 81 85 82
f 82 85 83
f 83 85 84
f 85 104 86
f 86 104 87
f 87 104 105
f 87 105 106
f 87 106 88
f 88 106 89
f 89 106 107
f 89 107 90
f 90 107 108
f 90 108 91
f 91 108 109
f 91 109 92
f 92 109 110
f 92 110 93
f 93 110 97
f 93 97 94

