# https://github.com/mikedh/trimesh
v 2.31853271 39.11217228 3.03704735
v 1.00579107 39.11217228 3.15304186
v 2.56337160 41.70523569 3.03704735
v 5.68143570 39.11217228 3.03704735
v 1.01643616 39.11217228 3.34626820
v 1.01498449 39.30634737 3.33628390
v 1.04595238 39.54494175 3.55799492
v 1.11175859 39.86019082 3.84724710
v 1.18143612 40.10030810 4.06367231
v 1.29417801 40.40997308 4.33266219
v 1.40208119 40.65592825 4.53704741
v 1.55837142 40.96254736 4.77990177
v 1.70256519 41.21104077 4.96549305
v 1.89562970 41.51385248 5.17457675
v 2.02821010 41.70523569 5.29556345
v 5.43659711 41.70523569 3.03704735
v 5.47821009 41.70523569 3.17359786
v 5.69353247 41.70523569 4.10360966
v 5.94901645 41.70523569 5.31494495
v 5.92772597 41.67426914 5.33520725
v 5.87208086 41.59710675 5.38101759
v 5.49998426 41.11788750 5.63473728
v 5.43756479 41.04224801 5.66997614
v 5.02579065 40.56277495 5.85615452
v 4.95998429 40.48891224 5.87905999
v 5.34708107 39.11217228 3.57502703
v 1.04595238 39.11217228 3.55799492
v 1.12046832 39.11217228 3.87543816
v 1.18143612 39.11217228 4.06367231
v 1.31837153 39.11217228 4.37905993
v 1.40208119 39.11217228 4.53704741
v 1.60385543 39.11217228 4.83980771
v 1.70208120 39.11217228 4.96549305
v 1.96772629 39.11217228 5.24182420
v 2.07175875 41.70523569 5.33461984
v 5.92820996 41.70523569 5.33520725
v 5.86772615 41.70523569 5.38395431
v 5.85369372 41.70523569 5.39364483
v 5.49998426 41.70523569 5.63503083
v 5.41095191 41.70523569 5.68319079
v 5.02579065 41.70523569 5.85586127
v 4.90917774 41.70523569 5.89462396
v 4.52111328 40.00766244 5.99123713
v 4.45385525 39.93608411 6.00239571
v 4.27288750 39.11217228 5.18456113
v 2.07175875 39.11217228 5.33491354
v 2.07708114 41.70523569 5.33873107
v 4.52062944 41.70523569 5.99123713
v 4.37691973 41.70523569 6.01149913
v 3.99950044 39.45178840 6.03704747
v 3.93321009 39.38097160 6.03616651
v 3.68111336 39.11217228 6.01120558
v 2.39933932 39.11217228 5.57248201
v 2.30788761 41.70523569 5.51345702
v 3.99950044 41.70523569 6.03704747
v 3.83353268 41.70523569 6.03088077
v 3.47885528 39.11217228 5.99123713
v 2.50046828 39.11217228 5.63503083
v 2.50046828 41.70523569 5.63503083
v 2.48837152 41.70523569 5.62739607
v 3.47885528 41.70523569 5.99123713
v 3.40433919 39.11217228 5.97684767
v 2.88272628 39.11217228 5.82003471
v 2.78208116 41.70523569 5.77745464
v 3.47450045 41.70523569 5.99035617
v 3.29643594 41.70523569 5.95188674
v 2.97417791 39.11217228 5.85586127
v 2.97369400 41.70523569 5.85586127
f 1 2 3
f 1 3 16
f 1 16 4
f 1 4 26
f 1 26 45
f 1 45 52
f 1 52 57
f 1 57 62
f 1 62 67
f 1 67 63
f 1 63 58
f 1 58 53
f 1 53 46
f 1 46 34
f 1 34 33
f 1 33 32
f 1 32 31
f 1 31 30
f 1 30 29
f 1 29 28
f 1 28 27
f 1 27 5
f 1 5 2
f 2 5 6
f 2 6 3
f 3 6 7
f 3 7 8
f 3 8 9
f 3 9 10
f 3 10 11
f 3 11 12
f 3 12 13
f 3 13 14
f 3 14 15
f 3 15 35
f 3 35 47
f 3 47 54
f 3 54 60
f 3 60 59
f 3 59 64
f 3 64 68
f 3 68 66
f 3 66 65
f 3 65 61
f 3 61 56
f 3 56 55
f 3 55 49
f 3 49 48
f 3 48 42
f 3 42 41
f 3 41 40
f 3 40 39
f 3 39 38
f 3 38 37
f 3 37 36
f 3 36 19
f 3 19 18
f 3 18 17
f 3 17 16
f 4 16 17
f 4 17 18
f 4 18 19
f 4 19 20
f 4 20 21
f 4 21 22
f 4 22 23
f 4 23 24
f 4 24 25
f 4 25 26
f 5 27 6
f 6 27 7
f 7 27 8
f 8 27 28
f 8 28 9
f 9 28 29
f 9 29 10
f 10 29 30
f 10 30 11
f 11 30 31
f 11 31 12
f 12 31 32
f 12 32 13
f 13 32 33
f 13 33 14
f 14 33 34
f 14 34 15
f 15 34 35
f 19 36 20
f 20 36 21
f 21 36 37
f 21 37 38
f 21 38 22
f 22 38 39
f 22 39 23
f 23 40 24
f 23 39 40
f 24 40 41
f 24 41 25
f 25 42 43
f 25 43 26
f 25 41 42
f 26 43 44
f 26 44 45
f 34 46 35
f 35 46 47
f 42 48 43
f 43 48 44
f 44 48 49
f 44 49 50
f 44 50 45
f 45 50 51
f 45 51 52
f 46 53 54
f 46 54 47
f 49 55 50
f 50 55 51
f 51 56 52
f 51 55 56
f 52 56 57
f 53 58 59
f 53 59 60
f 53 60 54
f 56 61 57
f 57 61 62
f 58 63 64
f 58 64 59
f 61 65 62
f 62 65 66
f 62 66 67
f 63 67 68
f 63 68 64
f 66 68 67

