# https://github.com/mikedh/trimesh
v 4.00021573 39.45170652 0.03704723
v 3.62468967 41.74394920 0.06230172
v 4.00021573 41.74394920 0.03704723
v 4.06637055 39.38112047 0.03792819
v 3.72684056 39.11217228 0.88953357
v 3.54588756 39.93627701 0.07169899
v 3.47924629 41.74394920 0.08285757
v 4.16803499 41.74394920 0.04321393
v 4.31882916 39.11217228 0.06288912
v 2.65279704 39.11217228 2.49906767
v 3.47924629 40.00763588 0.08285757
v 3.09253225 41.74394920 0.17917749
v 4.52069873 41.74394920 0.08285757
v 4.52069873 39.11217228 0.08285757
v 2.31813142 39.11217228 3.03704735
v 3.03999746 40.48885744 0.19503471
v 3.08620864 41.74394920 0.18123265
v 4.52556306 41.74394920 0.08373853
v 4.59560940 39.11217228 0.09724703
v 2.56037483 41.74394920 3.03704735
v 2.51075873 41.74394920 2.88816314
v 2.27921674 41.74394920 1.94611151
v 2.02481234 41.74394920 0.78469809
v 2.07199642 41.67439356 0.73888745
v 2.12793612 41.59710959 0.69307711
v 2.50005716 41.11794904 0.43935742
v 2.56232062 41.04246825 0.40411856
v 2.97432908 40.56279242 0.21794017
v 5.68181360 39.11217228 3.03704735
v 2.97432908 41.74394920 0.21823343
v 4.70554316 41.74394920 0.12279507
v 5.02610230 39.11217228 0.21823343
v 5.43957019 41.74394920 3.03704735
v 2.06567281 41.74394920 0.74505430
v 2.07540148 41.74394920 0.73624458
v 2.13328698 41.74394920 0.68896588
v 2.50005716 41.74394920 0.43906387
v 2.59053373 41.74394920 0.39002296
v 2.92568588 41.74394920 0.23996409
v 6.99420923 39.11217228 2.92105284
v 5.02610230 41.74394920 0.21823343
v 5.11755170 39.11217228 0.25405999
v 6.98496693 39.30641264 2.73781080
v 6.95432150 39.54496246 2.51609977
v 6.88816690 39.86028112 2.22684760
v 6.81860709 40.10037664 2.01042239
v 6.70575464 40.41028541 1.74143251
v 6.59776652 40.65604843 1.53704729
v 6.44162157 40.96260816 1.29419293
v 6.29763746 41.21094733 1.10860165
v 6.10452363 41.51390061 0.89951795
v 5.94448739 41.74394920 0.75415771
v 6.98350751 39.11217228 2.72782650
v 5.21921614 41.74394920 0.29722746
v 5.49988785 39.11217228 0.43906387
v 6.95432150 39.11217228 2.51609977
v 6.87941098 39.11217228 2.19865654
v 6.87649244 39.11217228 2.18925949
v 6.81860709 39.11217228 2.01042239
v 6.68191934 39.11217228 1.69503476
v 6.59776652 39.11217228 1.53704729
v 6.39589691 39.11217228 1.23428699
v 6.29763746 39.11217228 1.10860165
v 6.03204527 39.11217228 0.83227050
v 5.92648932 41.74394920 0.73771294
v 5.49940133 41.74394920 0.43906387
v 5.51107579 41.74394920 0.44611152
v 5.60106584 39.11217228 0.50161269
v 5.92843512 39.11217228 0.73918115
v 5.70224383 41.74394920 0.56797918
v 5.69348806 41.74394920 0.56151863
f 1 2 3
f 1 3 4
f 1 4 5
f 1 5 6
f 1 6 2
f 2 6 7
f 2 7 12
f 2 12 17
f 2 17 30
f 2 30 39
f 2 39 38
f 2 38 37
f 2 37 36
f 2 36 35
f 2 35 34
f 2 34 23
f 2 23 22
f 2 22 21
f 2 21 20
f 2 20 33
f 2 33 52
f 2 52 65
f 2 65 70
f 2 70 71
f 2 71 67
f 2 67 66
f 2 66 54
f 2 54 41
f 2 41 31
f 2 31 18
f 2 18 13
f 2 13 8
f 2 8 3
f 3 8 4
f 4 8 9
f 4 9 5
f 5 9 14
f 5 14 19
f 5 19 32
f 5 32 42
f 5 42 55
f 5 55 68
f 5 68 69
f 5 69 64
f 5 64 63
f 5 63 62
f 5 62 61
f 5 61 60
f 5 60 59
f 5 59 58
f 5 58 57
f 5 57 56
f 5 56 53
f 5 53 40
f 5 40 29
f 5 29 15
f 5 15 10
f 5 10 6
f 6 11 7
f 6 10 11
f 7 11 12
f 8 13 14
f 8 14 9
f 10 15 16
f 10 16 11
f 11 16 12
f 12 16 17
f 13 18 14
f 14 18 19
f 15 20 21
f 15 21 22
f 15 22 23
f 15 23 24
f 15 24 25
f 15 25 26
f 15 26 27
f 15 27 28
f 15 28 16
f 15 29 33
f 15 33 20
f 16 28 30
f 16 30 17
f 18 31 19
f 19 31 32
f 23 34 24
f 24 34 35
f 24 35 36
f 24 36 25
f 25 36 26
f 26 36 37
f 26 37 27
f 27 38 28
f 27 37 38
f 28 38 39
f 28 39 30
f 29 40 33
f 31 41 32
f 32 41 42
f 33 40 43
f 33 43 44
f 33 44 45
f 33 45 46
f 33 46 47
f 33 47 48
f 33 48 49
f 33 49 50
f 33 50 51
f 33 51 52
f 40 53 43
f 41 54 42
f 42 54 55
f 43 53 56
f 43 56 44
f 44 56 45
f 45 56 57
f 45 57 58
f 45 58 46
f 46 58 59
f 46 59 47
f 47 59 60
f 47 60 48
f 48 60 61
f 48 61 49
f 49 61 62
f 49 62 50
f 50 62 63
f 50 63 51
f 51 63 64
f 51 64 65
f 51 65 52
f 54 66 55
f 55 66 67
f 55 67 68
f 64 69 65
f 65 69 70
f 67 71 68
f 68 71 69
f 69 71 70

