# https://github.com/mikedh/trimesh
v 0.99999988 54.45227385 3.03704735
v 1.00469851 59.16512847 3.20266990
v 0.99999988 58.98941159 3.03704735
v 1.00352371 54.33291912 2.92545768
v 1.00058728 47.49985933 3.03704735
v 1.00998425 49.23713386 3.26903639
v 1.02819109 54.88990784 3.44523061
v 1.04581052 59.54474211 3.55799489
v 1.00058728 64.43497181 3.02236450
v 1.00469851 64.43497181 2.89491735
v 1.00469851 64.29738283 2.89491735
v 1.01468289 48.68677557 2.75220005
v 1.01174617 47.49985933 2.80799488
v 1.01938123 47.49985933 3.35243497
v 1.04581052 59.53148127 3.55799489
v 1.04639763 47.49985933 3.55799489
v 1.08163649 59.53148127 3.72831594
v 1.07987458 59.71714377 3.71833164
v 1.18147993 60.09841681 4.06308498
v 1.23962396 60.26584387 4.21108808
v 1.40231007 60.65374851 4.53587275
v 1.48394668 60.81951857 4.66978040
v 1.70360216 61.21073723 4.96519934
v 1.80403286 61.36987686 5.07796358
v 2.07302266 61.76606655 5.33344518
v 2.18872347 61.92520618 5.42624082
v 2.50176185 62.32139826 5.63473728
v 2.62803444 62.47390747 5.70345309
v 2.97454970 62.87672997 5.85498001
v 3.10904460 63.02426577 5.90020325
v 3.48727485 63.43869209 5.99241164
v 3.61648393 63.57793808 6.01179298
v 4.00000000 63.98739100 6.03704747
v 4.13273297 64.12829638 6.03352364
v 4.41758027 64.43497181 6.00239601
v 1.00587302 64.43497181 2.88258376
v 1.02173054 58.61477017 2.68642087
v 1.04639763 47.49985933 2.51727443
v 1.12627262 47.49985933 3.88806541
v 1.10160524 49.34156954 3.80349215
v 1.09573209 49.79080737 3.78293615
v 1.12862164 56.47135735 3.89628779
v 1.14447916 55.44026494 3.95266991
v 1.18147993 58.75733256 4.06308498
v 1.34592795 55.99393845 4.43426739
v 1.18206733 49.34156954 4.06308498
v 1.18206733 47.49985933 4.06191032
v 1.26722777 50.33950806 4.27216876
v 1.40289748 50.65612912 4.53704741
v 1.52740800 59.53148127 4.73086100
v 1.40289748 49.34156954 4.53704741
v 1.52153486 50.89318037 4.72498786
v 1.62842596 56.54927015 4.87240370
v 1.70242751 59.53148127 4.96402469
v 1.81754106 61.03004694 5.09264644
v 1.70301491 51.19322538 4.96519934
v 1.70301491 49.33991134 4.96519934
v 1.84984335 51.44353867 5.12671065
v 1.87979633 59.53148127 5.15431445
v 1.98198894 57.10128546 5.25474515
v 2.07302266 59.53148127 5.33461984
v 2.23218480 61.03170395 5.45736846
v 2.07302266 47.49985933 5.33461984
v 2.24275643 51.99555516 5.46676543
v 2.30501169 59.53148127 5.50846484
v 2.39780733 57.65661716 5.57130750
v 2.50117460 61.03004694 5.63473728
v 2.70555982 61.03004694 5.74045386
v 2.50117460 47.78664231 5.63473728
v 2.68794054 52.54757047 5.73399331
v 2.83065775 58.75733256 5.79742339
v 2.85943614 58.20863247 5.81034418
v 2.97454970 61.03004694 5.85556742
v 3.22474548 61.03004694 5.93191829
v 2.97454970 51.19488358 5.85556742
v 3.17188719 53.09792876 5.91958459
v 3.35747847 58.76396418 5.96656974
v 3.47905246 61.03004694 5.99123683
v 3.62940484 63.43869209 6.01296749
v 3.63762723 63.43869209 6.01355489
v 3.47905246 59.53148127 5.99123683
v 3.48022708 49.34156954 5.99123683
v 3.68285043 53.65160227 6.01942804
v 3.87372749 59.31432128 6.03352364
v 3.90426782 49.34985757 6.03528555
v 4.00000000 49.45263565 6.03704747
v 4.32184809 61.03004694 6.01707872
v 4.18676586 54.18704033 6.03058692
v 4.20027408 54.18869853 6.02941241
v 4.51977292 64.43497181 5.99123683
v 1.03876257 64.43497181 2.58187898
v 1.04639763 64.43497181 2.51609981
v 1.04639763 63.89456034 2.51609981
v 1.06754118 53.78090262 2.40979601
v 1.10219264 47.49985933 2.27001522
v 1.28895843 49.34156954 4.31621727
v 1.32889593 47.49985933 4.39550471
v 1.40348458 47.49985933 4.53587275
v 1.56675795 49.34156954 4.78724312
v 1.62079090 47.49985933 4.85948276
v 1.85865307 51.19488358 5.13552036
v 1.70301491 47.49985933 4.96402469
v 1.99138606 47.49985933 5.26238021
v 2.27799529 47.49985933 5.48262294
v 2.40779170 47.67060280 5.57718065
v 2.27564597 51.19322538 5.48967075
v 2.35317150 49.33991134 5.54135438
v 2.40779170 48.04358661 5.57776775
v 2.42306182 47.69049525 5.58775213
v 6.67462820 47.49985933 4.38963156
v 2.88762720 48.24251115 5.82267787
v 3.35043067 58.75733256 5.96480783
v 2.97513703 49.33991134 5.85556742
v 2.97572435 48.34197342 5.85556742
v 3.26703207 51.19322538 5.94366457
v 3.35982771 49.34156954 5.96656974
v 3.38684415 48.79784226 5.97303029
v 3.47963979 48.89730453 5.99064972
v 3.80912294 51.19322538 6.02882501
v 4.42345341 49.90518868 6.00591984
v 4.35591230 51.19322538 6.01355489
v 4.39350040 59.87131119 6.01003107
v 4.66249020 64.43497181 5.96128400
v 4.52094754 61.03004694 5.99123683
v 1.08574772 64.43497181 2.33579438
v 1.07400143 63.74702454 2.37925563
v 1.10924029 48.13476026 2.24123683
v 1.18265474 47.49985933 2.01159704
v 6.71339089 47.49985933 4.31445535
v 6.71104157 47.58440197 4.32032850
v 6.68226326 57.51239657 4.37964719
v 6.59768993 54.18704033 4.53587275
v 6.59710252 52.78462172 4.53587275
v 6.55246669 52.69344807 4.61104896
v 6.54248232 52.67355561 4.62749373
v 6.29757249 52.22929120 4.96519934
v 6.22768202 52.11822510 5.04389938
v 5.92697734 51.67561769 5.33461984
v 5.84768990 51.56620979 5.39981168
v 5.55873150 51.19322538 5.59480008
v 5.49941266 51.11862898 5.63473728
v 5.41014099 51.01087809 5.68407174
v 5.02486297 50.56329727 5.85556742
v 4.93030542 50.45720458 5.88845696
v 4.52036021 50.00796676 5.99123683
v 4.52094754 51.19488358 5.99123683
v 4.71299925 54.75563288 5.94953772
v 4.74119031 54.18704033 5.94248977
v 4.90211436 60.42332649 5.89785393
v 4.92501961 64.43497181 5.88493314
v 1.18206733 64.43497181 2.01100972
v 1.12685972 58.06275487 2.17780691
v 1.18147993 54.18869853 2.01159704
v 1.22200453 53.22391391 1.91057902
v 1.28954583 47.58440197 1.75435346
v 1.28837103 47.49985933 1.75787743
v 6.81852007 47.49985933 4.06249765
v 6.77916998 53.22391391 4.16351568
v 6.76742369 63.19003582 4.19170674
v 6.73394674 64.43497181 4.26453363
v 6.59768993 64.43497181 4.53704741
v 6.52603769 62.63802052 4.65274822
v 6.49608457 54.18869853 4.69620954
v 6.42560700 56.46970034 4.79957681
v 6.41033673 56.96038127 4.82189473
v 6.29757249 56.46970034 4.96519934
v 6.14956939 54.18704033 5.12494873
v 6.20771343 62.08434582 5.06621730
v 6.06617072 56.40670776 5.21069657
v 5.92697734 64.43497181 5.33461984
v 5.82243541 61.53067350 5.41743111
v 5.65974945 55.85800648 5.53489383
v 5.49941266 51.19488358 5.63473728
v 5.42893508 61.03004694 5.67349996
v 5.38371184 60.97699881 5.69816735
v 5.20458104 55.30599117 5.78391518
v 5.02545030 51.19488358 5.85556742
v 5.02603763 54.18869853 5.85556742
v 5.02603763 55.10209322 5.85556742
v 5.02545030 64.43497181 5.85556742
v 1.26605326 64.43497181 1.80956107
v 1.23257631 63.19003582 1.88180063
v 1.18147993 56.46970034 2.01159704
v 1.24197328 54.18869853 1.86183196
v 1.32595921 47.49985933 1.68446314
v 1.31832415 57.51239657 1.69444751
v 6.89898217 47.49985933 3.80407948
v 6.89193422 48.13476026 3.83285787
v 6.87314028 58.06275487 3.89628779
v 6.81852007 57.87709117 4.06249765
v 6.81793267 64.43497181 4.06308498
v 6.46025845 64.43497181 4.74730577
v 6.49667197 63.43869209 4.69562214
v 6.29639784 64.43497181 4.96519934
v 6.14663282 63.43869209 5.12788530
v 6.10140958 64.43497181 5.17193388
v 5.67325765 64.43497181 5.52256029
v 5.72494128 63.43869209 5.48673417
v 5.49882540 64.43497181 5.63473728
v 5.24334380 63.43869209 5.76335903
v 5.18696168 64.43497181 5.78920092
v 1.40231007 64.43497181 1.53704729
v 1.40289748 54.18704033 1.53822195
v 1.40348458 52.78462172 1.53822195
v 1.44694591 52.69676447 1.46598231
v 1.45869219 52.67355561 1.44660097
v 1.70360216 52.23094940 1.11007001
v 1.77290523 52.11822510 1.03019532
v 2.07361007 51.67561769 0.73947486
v 2.15407202 51.56620979 0.67487027
v 2.44185591 51.19322538 0.47929462
v 2.50117460 51.11862898 0.43935742
v 2.59044641 51.01087809 0.39002296
v 2.97572435 50.56329727 0.21852728
v 3.07028191 50.45720458 0.18563773
v 3.48022708 50.00796676 0.08285787
v 3.57713392 49.90518868 0.06817486
v 4.00000000 49.45263565 0.03704723
v 4.09631950 49.34985757 0.03880914
v 4.51977292 48.89730453 0.08344498
v 4.61256852 48.79784226 0.10106441
v 5.02545030 48.34197342 0.21911468
v 5.11237280 48.24251115 0.25200423
v 5.49941266 47.78664231 0.44053193
v 5.57752544 47.69049525 0.48751708
v 5.72317937 47.49985933 0.59147175
v 6.95418948 47.49985933 3.55682027
v 6.93245882 53.78090262 3.66429869
v 6.92893499 54.18869853 3.68015621
v 6.92599857 63.74702454 3.69483907
v 6.91425228 64.43497181 3.73830032
v 1.53974155 64.43497181 1.32678892
v 1.50332803 63.43869209 1.37847256
v 1.47454971 62.63802052 1.42134648
v 1.50450268 54.18869853 1.37788516
v 1.57439300 56.46970034 1.27451789
v 1.59025052 56.96038127 1.25219997
v 1.70360216 56.46970034 1.10889535
v 1.70360216 64.43497181 1.10889535
v 1.79404849 62.08434582 1.00787740
v 1.85336718 63.43869209 0.94620939
v 1.93441653 56.40670776 0.86339813
v 2.07302266 61.67323589 0.73947486
v 2.17756459 61.53067350 0.65548893
v 2.26683626 54.18869853 0.59205901
v 2.34025055 55.85800648 0.53920086
v 2.50117460 64.43497181 0.43935742
v 2.57106492 61.03170395 0.40059473
v 2.61628816 60.97699881 0.37592735
v 2.79600622 55.30599117 0.29017951
v 2.97454970 54.18869853 0.21852728
v 3.10728268 51.19322538 0.17506596
v 2.97454970 64.43497181 0.21852728
v 3.09788564 60.42332649 0.17624076
v 3.25822236 54.18869853 0.13219204
v 3.28700075 54.75563288 0.12455698
v 3.33750980 64.43497181 0.11281069
v 3.47905246 60.00558376 0.08285787
v 3.64467503 51.19322538 0.06053980
v 3.47905246 61.03170395 0.08285787
v 3.60649960 59.87131119 0.06406363
v 3.79972592 54.18869853 0.04468229
v 3.86726703 64.12829638 0.04057106
v 4.00000000 63.98739100 0.03704723
v 4.19146437 51.19322538 0.04526969
v 4.12744715 59.31432128 0.04057106
v 4.31773690 53.65160227 0.05466666
v 4.52036021 49.34156954 0.08285787
v 4.64075962 49.34156954 0.10752495
v 4.52094754 58.89657974 0.08285787
v 4.52094754 61.03170395 0.08285787
v 4.64310886 58.76396418 0.10752495
v 4.73355518 51.19322538 0.13043012
v 4.82870007 53.09792876 0.15451010
v 5.02545030 49.34156954 0.21852728
v 5.24980427 51.19322538 0.31249758
v 5.02603763 61.03170395 0.21852728
v 5.14056386 58.20863247 0.26375052
v 5.17110416 58.75733256 0.27667131
v 5.31264687 52.54757047 0.34127589
v 5.49882540 49.34156954 0.43935742
v 5.64624125 49.34156954 0.53215291
v 5.71848089 47.50648975 0.58794793
v 5.60395458 57.65661716 0.50278720
v 5.92815199 47.49985933 0.73947486
v 6.98942834 47.49985933 3.26609982
v 6.98590451 48.68677557 3.32189465
v 6.97885686 58.61477017 3.38767383
v 6.95418948 54.18869853 3.55799489
v 6.95418948 56.46970034 3.55799489
v 6.95360237 64.43497181 3.55799489
v 1.89859042 64.43497181 0.90216082
v 2.07302266 64.43497181 0.73947486
v 2.27505872 63.43869209 0.58736052
v 2.32674235 64.43497181 0.55153441
v 2.81303832 64.43497181 0.28489377
v 2.75665620 63.43869209 0.31073567
v 3.07498039 64.43497181 0.18916156
v 3.48022708 64.43497181 0.08285787
v 3.67815191 61.03170395 0.05701598
v 3.58241973 64.43497181 0.07169869
v 6.99941272 64.43497181 3.05173020
v 4.38351607 63.57793808 0.06230172
v 4.36237277 63.43869209 0.06053980
v 4.22963978 61.03170395 0.04879352
v 4.37059516 63.43869209 0.06112721
v 4.51272515 63.43869209 0.08168306
v 4.51859830 63.43040228 0.08285787
v 4.77525452 61.03170395 0.14217641
v 4.65015666 58.75733256 0.10928687
v 4.89095540 63.02426577 0.17330404
v 5.02486297 62.87672997 0.21852728
v 5.29444018 61.03170395 0.33422824
v 5.37137830 62.47390747 0.37064161
v 5.50000006 58.75733256 0.43935742
v 5.72494128 51.19322538 0.58442395
v 5.49823815 62.32139826 0.43935742
v 5.65681288 58.75733256 0.53920086
v 6.00920135 47.49985933 0.81171449
v 5.75841823 51.99555516 0.60791653
v 5.81127653 61.92520618 0.64785387
v 5.92815199 58.75733256 0.73947486
v 6.01859832 57.10128546 0.81934955
v 7.00000012 47.49985933 3.03704735
v 6.99647629 54.33291912 3.14863701
v 6.99530149 64.29738283 3.17917734
v 6.99530149 64.43497181 3.17917734
v 6.99412698 64.43497181 3.19151094
v 6.96123743 64.43497181 3.49221572
v 7.00000012 58.98941159 3.03704735
v 6.99530149 59.16512847 2.87142480
v 6.95418948 59.54474211 2.51609981
v 6.92129993 59.71714377 2.35576306
v 6.81852007 60.09841681 2.01100972
v 6.76037604 60.26584387 1.86300661
v 6.59768993 60.65374851 1.53822195
v 6.51605332 60.81951857 1.40431430
v 6.29639784 61.21073723 1.10889535
v 6.19596714 61.37153387 0.99613111
v 5.92697734 61.76606655 0.73947486
v 5.76781520 61.03170395 0.61672624
v 6.07556769 49.33991134 0.87514441
v 6.29757249 47.49985933 1.10889535
v 6.08790138 58.75733256 0.88747796
v 6.15074390 51.44353867 0.94738405
v 6.98120588 47.49985933 2.72165973
v 6.99060315 49.23713386 2.80447099
v 6.97180891 54.88990784 2.62886409
v 6.95418948 47.49985933 2.51609981
v 6.85610825 55.44026494 2.12142479
v 6.90485531 49.79080737 2.29115855
v 6.89956927 49.33991134 2.27118988
v 6.81852007 49.34156954 2.01100972
v 6.72278786 58.75733256 1.78371917
v 6.81852007 47.49985933 2.01159704
v 6.73335934 50.33950806 1.80192593
v 6.65407205 55.99393845 1.63982730
v 6.59768993 50.65612912 1.53704729
v 6.44675025 58.75733256 1.30623292
v 6.29757249 61.03170395 1.10889535
v 6.59768993 49.34156954 1.53704729
v 6.47905254 50.89318037 1.34910684
v 6.18245894 61.03170395 0.98144826
v 6.38038376 47.49985933 1.21461194
v 6.37157404 56.54927015 1.20169099
v 6.87431479 47.49985933 2.18602929
v 6.67169148 47.49985933 1.67741533
v 6.71162897 49.34156954 1.75787743
v 6.59768993 47.49985933 1.53822195
v 6.43382931 49.34156954 1.28685158
f 1 2 3
f 1 3 4
f 1 4 5
f 1 5 2
f 2 5 6
f 2 6 7
f 2 7 8
f 2 8 9
f 2 9 3
f 3 9 10
f 3 10 4
f 4 10 11
f 4 11 12
f 4 12 13
f 4 13 5
f 5 13 38
f 5 38 95
f 5 95 128
f 5 128 156
f 5 156 185
f 5 185 226
f 5 226 285
f 5 285 319
f 5 319 343
f 5 343 364
f 5 364 369
f 5 369 367
f 5 367 355
f 5 355 366
f 5 366 349
f 5 349 346
f 5 346 324
f 5 324 286
f 5 286 227
f 5 227 187
f 5 187 157
f 5 157 129
f 5 129 110
f 5 110 104
f 5 104 63
f 5 63 103
f 5 103 102
f 5 102 100
f 5 100 98
f 5 98 97
f 5 97 47
f 5 47 39
f 5 39 16
f 5 16 14
f 5 14 6
f 6 14 7
f 7 15 8
f 7 14 16
f 7 16 15
f 8 15 17
f 8 17 18
f 8 18 9
f 9 19 20
f 9 20 21
f 9 21 22
f 9 22 23
f 9 23 24
f 9 24 25
f 9 25 26
f 9 26 27
f 9 27 28
f 9 28 29
f 9 29 30
f 9 30 31
f 9 31 32
f 9 32 33
f 9 33 34
f 9 34 35
f 9 35 90
f 9 90 123
f 9 123 150
f 9 150 180
f 9 180 201
f 9 201 199
f 9 199 197
f 9 197 170
f 9 170 196
f 9 196 194
f 9 194 192
f 9 192 161
f 9 161 160
f 9 160 191
f 9 191 231
f 9 231 291
f 9 291 329
f 9 329 328
f 9 328 327
f 9 327 302
f 9 302 301
f 9 301 299
f 9 299 257
f 9 257 298
f 9 298 253
f 9 253 296
f 9 296 247
f 9 247 295
f 9 295 293
f 9 293 292
f 9 292 239
f 9 239 232
f 9 232 202
f 9 202 181
f 9 181 151
f 9 151 125
f 9 125 92
f 9 92 91
f 9 91 36
f 9 36 10
f 9 18 19
f 10 36 37
f 10 37 12
f 10 12 11
f 12 38 13
f 12 37 38
f 15 16 17
f 16 39 40
f 16 40 41
f 16 41 17
f 17 42 19
f 17 19 18
f 17 41 42
f 19 42 43
f 19 43 44
f 19 44 20
f 20 45 21
f 20 44 46
f 20 46 47
f 20 47 48
f 20 48 45
f 21 45 49
f 21 49 22
f 22 50 23
f 22 49 51
f 22 51 52
f 22 52 50
f 23 50 53
f 23 53 54
f 23 54 24
f 24 55 25
f 24 54 56
f 24 56 57
f 24 57 58
f 24 58 55
f 25 55 59
f 25 59 60
f 25 60 61
f 25 61 26
f 26 62 27
f 26 61 63
f 26 63 64
f 26 64 62
f 27 62 65
f 27 65 66
f 27 66 67
f 27 67 28
f 28 68 29
f 28 67 69
f 28 69 70
f 28 70 68
f 29 68 71
f 29 71 72
f 29 72 73
f 29 73 30
f 30 74 31
f 30 73 75
f 30 75 76
f 30 76 74
f 31 74 77
f 31 77 78
f 31 78 32
f 32 79 80
f 32 80 33
f 32 78 81
f 32 81 82
f 32 82 83
f 32 83 79
f 33 80 84
f 33 84 85
f 33 85 86
f 33 86 34
f 34 87 35
f 34 86 88
f 34 88 89
f 34 89 87
f 35 87 90
f 36 91 37
f 37 91 92
f 37 92 93
f 37 93 38
f 38 94 95
f 38 93 94
f 39 47 43
f 39 43 40
f 40 43 41
f 41 43 42
f 43 47 46
f 43 46 44
f 45 48 96
f 45 96 97
f 45 97 51
f 45 51 49
f 47 97 96
f 47 96 48
f 50 52 53
f 51 97 98
f 51 98 52
f 52 98 99
f 52 99 53
f 53 99 100
f 53 100 57
f 53 57 56
f 53 56 54
f 55 58 101
f 55 101 59
f 57 100 102
f 57 102 58
f 58 102 101
f 59 101 60
f 60 101 103
f 60 103 63
f 60 63 61
f 62 64 65
f 63 104 105
f 63 105 106
f 63 106 64
f 64 106 65
f 65 106 66
f 66 106 107
f 66 107 108
f 66 108 109
f 66 109 67
f 67 109 69
f 68 70 71
f 69 109 110
f 69 110 111
f 69 111 70
f 70 111 72
f 70 72 71
f 72 111 73
f 73 111 75
f 74 112 77
f 74 76 112
f 75 111 113
f 75 113 76
f 76 113 114
f 76 114 115
f 76 115 112
f 77 112 115
f 77 115 116
f 77 116 117
f 77 117 78
f 78 117 81
f 79 83 84
f 79 84 80
f 81 117 82
f 82 117 118
f 82 118 83
f 83 118 119
f 83 119 84
f 84 119 85
f 85 119 118
f 85 118 110
f 85 110 86
f 86 110 120
f 86 120 121
f 86 121 88
f 87 122 90
f 87 89 122
f 88 121 89
f 89 121 122
f 90 122 124
f 90 124 123
f 92 125 126
f 92 126 94
f 92 94 93
f 94 126 95
f 95 127 128
f 95 126 127
f 98 100 99
f 101 102 103
f 104 110 105
f 105 109 108
f 105 108 107
f 105 107 106
f 105 110 109
f 110 129 130
f 110 130 131
f 110 131 132
f 110 132 133
f 110 133 134
f 110 134 135
f 110 135 136
f 110 136 137
f 110 137 138
f 110 138 139
f 110 139 140
f 110 140 141
f 110 141 142
f 110 142 143
f 110 143 144
f 110 144 145
f 110 145 120
f 110 118 117
f 110 117 114
f 110 114 111
f 111 114 113
f 114 117 116
f 114 116 115
f 120 145 146
f 120 146 124
f 120 124 122
f 120 122 121
f 123 147 148
f 123 148 149
f 123 149 150
f 123 124 146
f 123 146 147
f 125 151 152
f 125 152 126
f 126 152 127
f 127 152 128
f 128 152 153
f 128 153 154
f 128 154 155
f 128 155 156
f 129 157 130
f 130 157 158
f 130 158 159
f 130 159 160
f 130 160 131
f 131 160 161
f 131 161 132
f 132 134 133
f 132 161 134
f 134 161 135
f 135 161 162
f 135 162 163
f 135 163 136
f 136 163 164
f 136 164 165
f 136 165 166
f 136 166 137
f 137 167 138
f 137 166 168
f 137 168 167
f 138 167 169
f 138 169 170
f 138 170 139
f 139 170 171
f 139 171 172
f 139 172 140
f 140 172 141
f 141 173 142
f 141 172 173
f 142 173 174
f 142 174 175
f 142 175 176
f 142 176 143
f 143 177 144
f 143 176 177
f 144 148 145
f 144 177 178
f 144 178 179
f 144 179 180
f 144 180 149
f 144 149 148
f 145 148 147
f 145 147 146
f 149 180 150
f 151 181 182
f 151 182 183
f 151 183 152
f 152 183 153
f 153 183 182
f 153 182 154
f 154 182 184
f 154 184 155
f 155 185 156
f 155 184 182
f 155 182 186
f 155 186 185
f 157 187 188
f 157 188 189
f 157 189 190
f 157 190 158
f 158 190 191
f 158 191 159
f 159 191 160
f 161 192 193
f 161 193 162
f 162 193 165
f 162 165 164
f 162 164 163
f 165 193 192
f 165 192 194
f 165 194 166
f 166 194 168
f 167 168 169
f 168 194 195
f 168 195 169
f 169 195 196
f 169 196 170
f 170 197 198
f 170 198 171
f 171 198 172
f 172 198 197
f 172 197 199
f 172 199 173
f 173 199 174
f 174 199 175
f 175 199 200
f 175 200 176
f 176 200 201
f 176 201 180
f 176 180 179
f 176 179 178
f 176 178 177
f 181 202 186
f 181 186 182
f 185 186 203
f 185 203 204
f 185 204 205
f 185 205 206
f 185 206 207
f 185 207 208
f 185 208 209
f 185 209 210
f 185 210 211
f 185 211 212
f 185 212 213
f 185 213 214
f 185 214 215
f 185 215 216
f 185 216 217
f 185 217 218
f 185 218 219
f 185 219 220
f 185 220 221
f 185 221 222
f 185 222 223
f 185 223 224
f 185 224 225
f 185 225 226
f 186 202 203
f 187 227 228
f 187 228 229
f 187 229 230
f 187 230 188
f 188 230 231
f 188 231 189
f 189 231 191
f 189 191 190
f 194 196 195
f 199 201 200
f 202 232 233
f 202 233 234
f 202 234 206
f 202 206 203
f 203 206 205
f 203 205 204
f 206 234 235
f 206 235 207
f 207 235 236
f 207 236 237
f 207 237 238
f 207 238 208
f 208 238 239
f 208 239 240
f 208 240 241
f 208 241 242
f 208 242 209
f 209 242 243
f 209 243 244
f 209 244 210
f 210 245 211
f 210 244 245
f 211 245 246
f 211 246 212
f 212 246 247
f 212 247 248
f 212 248 213
f 213 248 249
f 213 249 250
f 213 250 214
f 214 251 215
f 214 250 251
f 215 252 216
f 215 251 253
f 215 253 254
f 215 254 252
f 216 252 255
f 216 255 256
f 216 256 257
f 216 257 258
f 216 258 217
f 217 259 218
f 217 258 260
f 217 260 261
f 217 261 259
f 218 259 262
f 218 262 263
f 218 263 264
f 218 264 219
f 219 265 220
f 219 264 266
f 219 266 265
f 220 265 267
f 220 267 268
f 220 268 221
f 221 269 222
f 221 268 270
f 221 270 271
f 221 271 272
f 221 272 269
f 222 269 273
f 222 273 274
f 222 274 275
f 222 275 223
f 223 276 224
f 223 275 277
f 223 277 278
f 223 278 279
f 223 279 276
f 224 276 280
f 224 280 281
f 224 281 225
f 225 282 283
f 225 283 226
f 225 281 284
f 225 284 282
f 226 283 285
f 227 286 287
f 227 287 288
f 227 288 289
f 227 289 228
f 228 289 290
f 228 290 230
f 228 230 229
f 230 290 291
f 230 291 231
f 232 239 237
f 232 237 236
f 232 236 233
f 233 236 235
f 233 235 234
f 237 239 238
f 239 292 241
f 239 241 240
f 241 292 242
f 242 292 293
f 242 293 243
f 243 293 244
f 244 293 294
f 244 294 246
f 244 246 245
f 246 294 295
f 246 295 247
f 247 296 297
f 247 297 249
f 247 249 248
f 249 297 250
f 250 297 296
f 250 296 253
f 250 253 251
f 252 254 255
f 253 298 254
f 254 298 257
f 254 257 256
f 254 256 255
f 257 299 260
f 257 260 258
f 259 261 262
f 260 299 261
f 261 299 300
f 261 300 262
f 262 300 263
f 263 300 301
f 263 301 302
f 263 302 264
f 264 302 303
f 264 303 304
f 264 304 305
f 264 305 266
f 265 266 267
f 266 305 267
f 267 305 306
f 267 306 303
f 267 303 268
f 268 303 270
f 269 272 273
f 270 303 271
f 271 303 307
f 271 307 308
f 271 308 272
f 272 308 309
f 272 309 310
f 272 310 273
f 273 310 274
f 274 310 309
f 274 309 311
f 274 311 275
f 275 311 277
f 276 279 280
f 277 311 312
f 277 312 278
f 278 312 279
f 279 312 313
f 279 313 280
f 280 313 314
f 280 314 281
f 281 314 315
f 281 315 284
f 282 316 283
f 282 284 316
f 283 316 285
f 284 315 317
f 284 317 318
f 284 318 316
f 285 316 320
f 285 320 321
f 285 321 322
f 285 322 323
f 285 323 319
f 286 324 325
f 286 325 326
f 286 326 287
f 287 326 327
f 287 327 288
f 288 327 328
f 288 328 329
f 288 329 291
f 288 291 290
f 288 290 289
f 293 295 294
f 299 301 300
f 302 330 331
f 302 331 332
f 302 332 333
f 302 333 334
f 302 334 335
f 302 335 336
f 302 336 337
f 302 337 338
f 302 338 339
f 302 339 340
f 302 340 321
f 302 321 317
f 302 317 314
f 302 314 312
f 302 312 311
f 302 311 307
f 302 307 303
f 302 327 330
f 303 306 304
f 304 306 305
f 307 311 308
f 308 311 309
f 312 314 313
f 314 317 315
f 316 318 341
f 316 341 320
f 317 321 341
f 317 341 318
f 319 342 343
f 319 323 342
f 320 341 321
f 321 340 322
f 322 340 323
f 323 340 344
f 323 344 345
f 323 345 342
f 324 346 347
f 324 347 331
f 324 331 330
f 324 330 325
f 325 330 327
f 325 327 326
f 331 348 332
f 331 347 348
f 332 348 349
f 332 349 333
f 333 350 334
f 333 349 351
f 333 351 352
f 333 352 350
f 334 350 353
f 334 353 335
f 335 354 336
f 335 353 355
f 335 355 356
f 335 356 354
f 336 354 357
f 336 357 358
f 336 358 337
f 337 359 360
f 337 360 338
f 337 358 361
f 337 361 362
f 337 362 359
f 338 360 339
f 339 363 340
f 339 360 343
f 339 343 345
f 339 345 363
f 340 363 344
f 342 345 343
f 343 360 365
f 343 365 364
f 344 363 345
f 346 349 348
f 346 348 347
f 349 366 352
f 349 352 351
f 350 352 366
f 350 366 355
f 350 355 353
f 354 356 357
f 355 367 368
f 355 368 356
f 356 368 357
f 357 368 367
f 357 367 361
f 357 361 358
f 359 365 360
f 359 362 365
f 361 367 369
f 361 369 362
f 362 369 370
f 362 370 365
f 364 370 369
f 364 365 370

