# https://github.com/mikedh/trimesh
v 4.00000000 64.43575144 4.61407330
v 4.00000000 65.84509134 4.43887707
v 3.65818331 65.84509134 4.43487491
v 2.11442852 65.84509134 4.36550792
v 1.28719652 65.84509134 4.30636790
v 3.71221618 64.43575144 4.48690053
v 4.00000000 64.43575144 1.46009292
v 4.00000000 65.84509134 1.63528930
v 1.18089283 65.84509134 4.06269375
v 1.18089283 65.56283712 4.06269375
v 1.13449508 65.40777683 3.92484892
v 1.04581082 65.00757217 3.55800349
v 2.05540338 64.43575144 3.60736091
v 3.58095148 64.43575144 0.07141646
v 3.47875887 64.54501152 0.08297767
v 3.35101807 64.68365431 0.10832336
v 2.97366881 65.09986401 0.21815475
v 2.85649964 65.23298979 0.26351001
v 2.50000009 65.65623283 0.43915119
v 2.39487091 65.78701258 0.50273772
v 2.35082233 65.84509134 0.53519782
v 1.12715358 65.84509134 3.89683519
v 1.04581082 65.84509134 3.55800349
v 1.02408016 64.85582113 3.41571201
v 1.06196189 64.43575144 3.05820454
v 3.50871184 64.43575144 0.07942047
v 3.47875887 64.43575144 0.08297767
v 3.35483560 64.43575144 0.10832336
v 3.33633521 64.43575144 0.11232521
v 2.97366881 64.43575144 0.21815475
v 2.81157018 64.43575144 0.28440919
v 2.50000009 64.43575144 0.43915119
v 2.32556784 64.43575144 0.55120584
v 2.07155460 65.84509134 0.73929723
v 1.01908767 65.84509134 3.35079145
v 1.00000018 64.45161581 3.03686079
v 1.00058758 64.43575144 3.02174229
v 2.07184815 64.43575144 0.73929723
v 1.96025857 65.84509134 0.83890136
v 1.00000018 65.84509134 3.03686079
v 1.00411141 64.43575144 2.89412461
v 1.89712220 64.43575144 0.90204325
v 1.70213395 65.84509134 1.10881057
v 1.01292098 65.84509134 2.79407587
v 1.00499237 64.43575144 2.88211878
v 1.70213395 64.43575144 1.10881057
v 1.59113163 65.84509134 1.25332545
v 1.04581082 65.84509134 2.51571808
v 1.04581082 64.43575144 2.51571808
v 1.03846931 64.43575144 2.58152794
v 1.53915444 64.43575144 1.32669445
v 1.40201652 65.84509134 1.53746393
v 1.10924059 65.84509134 2.24758748
v 1.08516061 64.43575144 2.33607505
v 1.40201652 64.43575144 1.53701928
v 1.30452240 65.84509134 1.72733407
v 1.18118668 65.84509134 2.01102782
v 1.18118668 64.43575144 2.01102782
v 1.26575971 64.43575144 1.80915173
f 1 2 3
f 1 3 4
f 1 4 5
f 1 5 6
f 1 6 13
f 1 13 25
f 1 25 37
f 1 37 41
f 1 41 45
f 1 45 50
f 1 50 49
f 1 49 54
f 1 54 58
f 1 58 59
f 1 59 55
f 1 55 51
f 1 51 46
f 1 46 42
f 1 42 38
f 1 38 33
f 1 33 32
f 1 32 31
f 1 31 30
f 1 30 29
f 1 29 28
f 1 28 27
f 1 27 26
f 1 26 14
f 1 14 7
f 1 7 8
f 1 8 2
f 2 8 21
f 2 21 34
f 2 34 39
f 2 39 43
f 2 43 47
f 2 47 52
f 2 52 56
f 2 56 57
f 2 57 53
f 2 53 48
f 2 48 44
f 2 44 40
f 2 40 35
f 2 35 23
f 2 23 22
f 2 22 9
f 2 9 5
f 2 5 4
f 2 4 3
f 5 9 10
f 5 10 6
f 6 10 11
f 6 11 12
f 6 12 13
f 7 14 8
f 8 14 15
f 8 15 16
f 8 16 17
f 8 17 18
f 8 18 19
f 8 19 20
f 8 20 21
f 9 22 11
f 9 11 10
f 11 22 12
f 12 22 23
f 12 23 24
f 12 24 13
f 13 24 25
f 14 26 15
f 15 26 27
f 15 27 16
f 16 27 28
f 16 28 29
f 16 29 17
f 17 29 30
f 17 30 18
f 18 30 31
f 18 31 19
f 19 31 32
f 19 32 20
f 20 33 34
f 20 34 21
f 20 32 33
f 23 35 24
f 24 35 36
f 24 36 25
f 25 36 37
f 33 38 34
f 34 38 39
f 35 40 36
f 36 40 41
f 36 41 37
f 38 42 39
f 39 42 43
f 40 44 41
f 41 44 45
f 42 46 43
f 43 46 47
f 44 48 49
f 44 49 50
f 44 50 45
f 46 51 47
f 47 51 52
f 48 53 54
f 48 54 49
f 51 55 52
f 52 55 56
f 53 57 58
f 53 58 54
f 55 59 56
f 56 59 57
f 57 59 58

