# https://github.com/mikedh/trimesh
v -0.00000006 1.00392580 2.53724311
v 0.01566166 0.82960367 2.53724311
v -0.00000006 1.00392580 3.53626426
v -0.00000006 16.99746609 2.53724311
v 2.07282701 0.00209808 0.73947486
v 0.06108069 0.66368103 2.53724311
v 0.01566166 0.82960367 3.53626426
v -0.00000006 16.99746609 3.53626426
v 2.07204396 0.00209808 5.33461984
v 0.01566166 17.17178822 2.53724311
v 2.23805794 21.45843506 0.62259939
v 2.07282701 19.99454737 0.73947486
v 2.50039154 0.00209808 0.43935742
v 1.70242766 0.00209808 1.10948276
v 0.13469064 0.50406218 2.53724311
v 0.06108069 0.66368103 3.53626426
v 2.07204396 21.45843506 5.33461984
v 1.99060300 21.45843506 5.26296746
v 1.86452621 21.45843506 5.13258379
v 0.01566166 17.17178822 3.53626426
v 1.70242766 0.00209808 4.96519934
v 2.50117460 0.00209808 5.63473728
v 2.39545816 21.45843506 5.57013270
v 0.06108069 17.33770847 2.53724311
v 1.18167573 19.99454737 2.01100972
v 1.04620212 19.99454737 2.51609981
v 1.00078309 19.99454737 3.03704735
v 2.50039154 21.45843506 0.43935742
v 2.97494130 0.00209808 0.21852728
v 2.51918563 21.45843506 0.42937305
v 1.40250587 0.00209808 1.53763469
v 0.50039166 0.13651371 2.53724311
v 0.35787010 0.23732662 2.53724311
v 0.23414248 0.36124229 2.53724311
v 0.13469064 0.50406218 3.53626426
v 1.70321071 21.20850325 4.96519934
v 1.63821468 21.09928966 4.88532465
v 0.06108069 17.33770847 3.53626426
v 1.40250587 0.00209808 4.53704741
v 0.23414248 0.36124229 3.53626426
v 0.35787010 0.23732662 3.53626426
v 0.50039166 0.13651371 3.53626426
v 2.97415817 0.00209808 5.85556742
v 2.84808145 21.45843506 5.80505844
v 2.50117460 21.45843506 5.63473728
v 1.04620212 19.99454737 3.55740756
v 1.40250587 20.65403223 4.53646000
v 3.48003132 0.00209808 0.08344498
v 2.97494130 21.45843506 0.21852728
v 2.98277216 20.55111885 0.21559086
v 3.00704779 21.45843506 0.20795580
v 0.94596708 0.00209808 2.43798703
v 0.80344552 0.02310038 2.51198862
v 0.76507443 0.03150225 2.52314758
v 0.65857494 0.06300449 2.53724311
v 0.64604545 0.06720543 2.53724311
v 0.64604545 0.06720543 3.53626426
v 0.65857494 0.06300449 3.53685159
v 0.76507443 0.03150225 3.55094712
v 0.80344552 0.02310038 3.56151879
v 0.94596708 0.00209808 3.63552034
v 3.47924826 0.00209808 5.99123683
v 3.33359437 21.45843506 5.95952179
v 2.97415817 21.45843506 5.85556742
v 2.87548946 21.45843506 5.81739184
v 4.00000000 0.00209808 0.03704723
v 3.48629603 19.99454737 0.08168306
v 3.52466719 21.45843506 0.07639732
v 3.48003132 21.45843506 0.08344498
v 4.00000000 0.00209808 6.03704747
v 3.89271731 21.45843506 6.03469815
v 3.84025059 21.45843506 6.02999952
v 3.47924826 21.45843506 5.99123683
v 3.37353171 21.45843506 5.97009357
v 4.51996868 0.00209808 0.08344498
v 4.00000000 21.45843506 0.03704723
v 4.10728269 21.45843506 0.03998395
v 4.51996868 0.00209808 5.99123683
v 4.47454972 21.45843506 5.99828478
v 4.00000000 21.45843506 6.03704747
v 5.02505870 0.00209808 0.21852728
v 4.15974941 21.45843506 0.04468229
v 4.51996868 21.45843506 0.08344498
v 4.62490210 21.45843506 0.10400113
v 5.02584183 0.00209808 5.85556742
v 4.99451840 21.45843506 5.86672630
v 4.51996868 21.45843506 5.99123683
v 4.51292092 19.99664783 5.99241164
v 5.49960846 0.00209808 0.43935742
v 4.66562258 21.45843506 0.11516001
v 5.02505870 21.45843506 0.21852728
v 5.12451054 21.45843506 0.25670286
v 5.49882540 0.00209808 5.63473728
v 5.48159742 21.45843506 5.64472165
v 5.02584183 21.45843506 5.85556742
v 5.92717299 0.00209808 0.73947486
v 5.15191855 21.45843506 0.26962366
v 5.49960846 21.45843506 0.43935742
v 5.60454184 21.45843506 0.50454941
v 5.92795604 0.00209808 5.33461984
v 5.76194206 21.45843506 5.45149531
v 5.49882540 21.45843506 5.63473728
v 5.49021134 21.10348940 5.64002302
v 8.00000006 1.00392580 2.53724311
v 7.98433834 0.82960367 2.53724311
v 7.93891931 0.66368103 2.53724311
v 6.29757234 0.00209808 1.10948276
v 5.92717299 21.45843506 0.73947486
v 6.29757234 0.00209808 4.96519934
v 7.93891931 0.66368103 3.53626426
v 7.98433834 0.82960367 3.53626426
v 8.00000006 1.00392580 3.53626426
v 5.92795604 19.99664783 5.33461984
v 6.13547379 21.45843506 0.94209816
v 8.00000006 16.99746609 3.53626426
v 7.98433834 17.17178822 3.53626426
v 7.93891931 17.33770847 3.53626426
v 6.81832427 19.99664783 4.06308498
v 6.93187141 19.99664783 3.64021886
v 6.95379788 19.99454737 3.55740756
v 6.99921691 19.99454737 3.03704735
v 8.00000006 16.99746609 2.53724311
v 7.86530936 0.50406218 2.53724311
v 6.59749413 0.00209808 1.53763469
v 7.76585752 0.36124229 2.53724311
v 7.64212990 0.23732662 2.53724311
v 7.49960834 0.13651371 2.53724311
v 6.01018006 21.45843506 0.81171449
v 6.59749413 0.00209808 4.53704741
v 7.49960834 0.13651371 3.53626426
v 7.64212990 0.23732662 3.53626426
v 7.76585752 0.36124229 3.53626426
v 7.86530936 0.50406218 3.53626426
v 6.29757234 21.20850325 1.10948276
v 7.98433834 17.17178822 2.53724311
v 7.93891931 17.33770847 2.53724311
v 6.95379788 19.99454737 2.51609981
v 6.59749413 20.65403223 1.53763469
v 6.36100227 21.09928966 1.18818279
v 7.05403292 0.00209808 2.43798703
v 7.35395455 0.06720543 2.53724311
v 7.34142506 0.06300449 2.53724311
v 7.23492557 0.03150225 2.52314758
v 7.19655448 0.02310038 2.51198862
v 7.05403292 0.00209808 3.63552034
v 7.19655448 0.02310038 3.56151879
v 7.23492557 0.03150225 3.55094712
v 7.34142506 0.06300449 3.53685159
v 7.35395455 0.06720543 3.53626426
f 1 2 7
f 1 7 3
f 1 3 8
f 1 8 4
f 1 4 12
f 1 12 5
f 1 5 2
f 2 6 16
f 2 16 7
f 2 5 6
f 3 7 9
f 3 9 17
f 3 17 8
f 4 8 20
f 4 20 10
f 4 10 11
f 4 11 12
f 5 13 29
f 5 29 48
f 5 48 66
f 5 66 75
f 5 75 81
f 5 81 89
f 5 89 96
f 5 96 107
f 5 107 124
f 5 124 140
f 5 140 145
f 5 145 129
f 5 129 109
f 5 109 100
f 5 100 93
f 5 93 85
f 5 85 78
f 5 78 70
f 5 70 62
f 5 62 43
f 5 43 22
f 5 22 9
f 5 9 21
f 5 21 39
f 5 39 61
f 5 61 52
f 5 52 31
f 5 31 14
f 5 14 6
f 5 12 11
f 5 11 13
f 6 15 35
f 6 35 16
f 6 14 15
f 7 16 9
f 8 17 18
f 8 18 19
f 8 19 20
f 9 16 21
f 9 22 23
f 9 23 17
f 10 20 38
f 10 38 24
f 10 24 11
f 11 24 25
f 11 25 26
f 11 26 27
f 11 27 19
f 11 19 18
f 11 18 17
f 11 17 23
f 11 23 45
f 11 45 44
f 11 44 65
f 11 65 64
f 11 64 63
f 11 63 74
f 11 74 73
f 11 73 72
f 11 72 71
f 11 71 80
f 11 80 79
f 11 79 87
f 11 87 86
f 11 86 95
f 11 95 94
f 11 94 102
f 11 102 101
f 11 101 114
f 11 114 128
f 11 128 108
f 11 108 99
f 11 99 98
f 11 98 97
f 11 97 92
f 11 92 91
f 11 91 90
f 11 90 84
f 11 84 83
f 11 83 82
f 11 82 77
f 11 77 76
f 11 76 68
f 11 68 69
f 11 69 51
f 11 51 49
f 11 49 30
f 11 30 28
f 11 28 13
f 13 28 30
f 13 30 29
f 14 31 32
f 14 32 33
f 14 33 34
f 14 34 15
f 15 34 40
f 15 40 35
f 16 35 21
f 19 36 20
f 19 27 36
f 20 36 37
f 20 37 38
f 21 35 40
f 21 40 41
f 21 41 42
f 21 42 39
f 22 43 44
f 22 44 45
f 22 45 23
f 24 38 27
f 24 27 26
f 24 26 25
f 27 46 47
f 27 47 37
f 27 37 36
f 27 38 46
f 29 30 49
f 29 49 50
f 29 50 51
f 29 51 48
f 31 52 53
f 31 53 54
f 31 54 55
f 31 55 56
f 31 56 32
f 32 56 57
f 32 57 42
f 32 42 41
f 32 41 33
f 33 41 40
f 33 40 34
f 37 47 38
f 38 47 46
f 39 42 57
f 39 57 58
f 39 58 59
f 39 59 60
f 39 60 61
f 43 62 63
f 43 63 64
f 43 64 65
f 43 65 44
f 48 51 67
f 48 67 68
f 48 68 66
f 49 51 50
f 51 69 67
f 52 61 60
f 52 60 53
f 53 60 59
f 53 59 54
f 54 59 58
f 54 58 55
f 55 58 57
f 55 57 56
f 62 70 71
f 62 71 72
f 62 72 73
f 62 73 74
f 62 74 63
f 66 68 76
f 66 76 77
f 66 77 75
f 67 69 68
f 70 78 79
f 70 79 80
f 70 80 71
f 75 77 82
f 75 82 83
f 75 83 84
f 75 84 81
f 78 85 86
f 78 86 87
f 78 87 88
f 78 88 79
f 79 88 87
f 81 84 90
f 81 90 91
f 81 91 92
f 81 92 89
f 85 93 94
f 85 94 95
f 85 95 86
f 89 92 97
f 89 97 98
f 89 98 99
f 89 99 96
f 93 100 101
f 93 101 102
f 93 102 103
f 93 103 94
f 94 103 102
f 96 104 105
f 96 105 106
f 96 106 107
f 96 99 108
f 96 108 122
f 96 122 104
f 100 109 110
f 100 110 111
f 100 111 112
f 100 112 115
f 100 115 113
f 100 113 101
f 101 113 115
f 101 115 116
f 101 116 117
f 101 117 118
f 101 118 119
f 101 119 120
f 101 120 121
f 101 121 114
f 104 122 115
f 104 115 112
f 104 112 111
f 104 111 105
f 105 111 110
f 105 110 106
f 106 110 133
f 106 133 123
f 106 123 107
f 107 123 125
f 107 125 126
f 107 126 127
f 107 127 124
f 108 128 122
f 109 129 130
f 109 130 131
f 109 131 132
f 109 132 133
f 109 133 110
f 114 121 134
f 114 134 135
f 114 135 122
f 114 122 128
f 115 122 135
f 115 135 116
f 116 135 136
f 116 136 117
f 117 136 121
f 117 121 120
f 117 120 119
f 117 119 118
f 121 136 137
f 121 137 138
f 121 138 139
f 121 139 134
f 123 133 132
f 123 132 125
f 124 127 141
f 124 141 142
f 124 142 143
f 124 143 144
f 124 144 140
f 125 132 131
f 125 131 126
f 126 131 130
f 126 130 127
f 127 130 149
f 127 149 141
f 129 145 146
f 129 146 147
f 129 147 148
f 129 148 149
f 129 149 130
f 134 139 135
f 135 139 136
f 136 139 138
f 136 138 137
f 140 144 146
f 140 146 145
f 141 149 148
f 141 148 142
f 142 148 147
f 142 147 143
f 143 147 146
f 143 146 144

