# https://github.com/mikedh/trimesh
v 4.19209892 43.79030675 1.36977997
v 4.00693679 45.58331430 1.62315842
v 4.00693679 47.49866366 1.45228740
v 4.35909638 47.49866366 1.26597997
v 4.89378119 47.49866366 0.98438915
v 5.72261596 47.49866366 0.59048142
v 5.92799360 47.22856879 0.73952761
v 5.99596450 47.13309169 0.79861369
v 6.29802489 46.67422116 1.10948142
v 6.35310465 46.58092260 1.17761668
v 6.59744823 46.11805856 1.53745677
v 6.64022321 46.02657497 1.61304440
v 6.81102926 45.58295131 1.99417669
v 6.81893969 45.56298494 2.01174293
v 6.84677267 45.47295332 2.09158901
v 6.95429558 45.00754833 2.51637053
v 6.96747953 44.92005765 2.59834591
v 7.00000012 44.45174813 3.03749969
v 6.99853504 44.36498404 3.11894277
v 4.39483972 43.79030675 1.53639223
v 4.19209892 43.79030675 6.02693941
v 4.00693679 45.58331430 4.45343804
v 4.00693679 47.49866366 4.61685654
v 5.92799360 47.49866366 0.73952761
v 6.00944155 47.49866366 0.81085678
v 6.29743883 47.49866366 1.10894915
v 6.38035172 47.49866366 1.21381368
v 6.59744823 47.49866366 1.53745677
v 6.67215788 47.49866366 1.67798605
v 6.81893969 47.49866366 2.01121051
v 6.84823745 45.58295131 2.09637981
v 6.87401974 47.49866366 2.18527514
v 6.95429558 45.58331430 2.51637053
v 6.95429558 47.49866366 2.51690280
v 6.98124969 47.49866366 2.72130895
v 7.00000012 47.49866366 3.03749969
v 6.99531251 45.58331430 3.17643199
v 6.99531251 45.58295131 3.17643199
v 6.95429558 43.89703751 3.55809655
v 6.38943398 43.79030675 3.19772430
v 4.28731674 43.79030675 6.02214869
v 4.19209892 44.19254452 6.02853622
v 4.26622236 44.27132219 6.02481004
v 4.52111320 44.54504728 5.99074241
v 4.77805489 44.82494354 5.93378540
v 5.02679327 45.10012090 5.85553613
v 5.26557037 45.37457168 5.75652715
v 5.43930629 45.58331430 5.66656705
v 5.49995267 45.65592051 5.63462880
v 5.71558455 45.92783034 5.49729344
v 5.92828655 46.21099412 5.33440705
v 6.11374164 46.47854745 5.16460117
v 6.29743883 46.76715672 4.96498551
v 6.44949445 47.02962816 4.76856407
v 6.59774119 47.32186794 4.53594562
v 6.67479450 47.49866366 4.38956108
v 6.98945308 47.49866366 3.26639198
v 6.95429558 47.49866366 3.55703194
v 6.93935359 43.81317765 3.63581348
v 6.93349415 43.79030675 3.65657348
v 4.52111320 43.79030675 5.99074241
v 4.82200162 43.79030675 5.92047777
v 5.02679327 43.79030675 5.85553613
v 5.32885352 43.79030675 5.72512086
v 5.49438620 45.58295131 5.63782241
v 5.50024563 43.79030675 5.63462880
v 5.72818258 45.58331430 5.48824396
v 5.92828655 43.79030675 5.33440705
v 5.90103963 45.58331430 5.35569932
v 6.14216053 45.58331430 5.13532396
v 6.19782636 43.79030675 5.07623788
v 6.29773179 45.58295131 4.96498551
v 6.29773179 43.79030675 4.96498551
v 6.48611659 45.58295131 4.71320417
v 6.53152817 43.79030675 4.64347180
v 6.59803414 45.58295131 4.53647804
v 6.71317452 47.49866366 4.31503799
v 6.59774119 43.79030675 4.53647804
v 6.92001724 45.58331430 3.71672425
v 6.89862990 47.49866366 3.80455505
v 6.81864673 43.79030675 4.06272423
v 5.79263771 43.79030675 5.43980416
v 6.74862498 45.58331430 4.23412729
v 6.81864673 47.49866366 4.06325649
v 6.78143853 43.79030675 4.15853959
v 6.81893969 45.58331430 4.06272423
f 1 2 3
f 1 3 4
f 1 4 5
f 1 5 6
f 1 6 7
f 1 7 8
f 1 8 9
f 1 9 10
f 1 10 11
f 1 11 12
f 1 12 13
f 1 13 14
f 1 14 15
f 1 15 16
f 1 16 17
f 1 17 18
f 1 18 19
f 1 19 20
f 1 20 40
f 1 40 60
f 1 60 81
f 1 81 85
f 1 85 78
f 1 78 75
f 1 75 73
f 1 73 71
f 1 71 68
f 1 68 82
f 1 82 66
f 1 66 64
f 1 64 63
f 1 63 62
f 1 62 61
f 1 61 41
f 1 41 21
f 1 21 22
f 1 22 2
f 2 22 23
f 2 23 3
f 3 23 56
f 3 56 77
f 3 77 84
f 3 84 80
f 3 80 58
f 3 58 57
f 3 57 36
f 3 36 35
f 3 35 34
f 3 34 32
f 3 32 30
f 3 30 29
f 3 29 28
f 3 28 27
f 3 27 26
f 3 26 25
f 3 25 24
f 3 24 6
f 3 6 5
f 3 5 4
f 6 24 7
f 7 24 8
f 8 24 25
f 8 25 9
f 9 25 26
f 9 26 10
f 10 26 27
f 10 27 11
f 11 27 28
f 11 28 12
f 12 28 29
f 12 29 14
f 12 14 13
f 14 29 30
f 14 30 15
f 15 31 16
f 15 30 31
f 16 31 32
f 16 32 33
f 16 33 17
f 17 33 34
f 17 34 35
f 17 35 18
f 18 35 36
f 18 36 19
f 19 36 37
f 19 37 38
f 19 38 39
f 19 39 20
f 20 39 40
f 21 41 42
f 21 42 23
f 21 23 22
f 23 42 43
f 23 43 44
f 23 44 45
f 23 45 46
f 23 46 47
f 23 47 48
f 23 48 49
f 23 49 50
f 23 50 51
f 23 51 52
f 23 52 53
f 23 53 54
f 23 54 55
f 23 55 56
f 30 32 31
f 32 34 33
f 36 57 37
f 37 57 38
f 38 57 39
f 39 58 59
f 39 59 40
f 39 57 58
f 40 59 60
f 41 43 42
f 41 61 44
f 41 44 43
f 44 61 45
f 45 61 62
f 45 62 46
f 46 62 63
f 46 63 47
f 47 63 64
f 47 64 48
f 48 64 65
f 48 65 49
f 49 65 66
f 49 66 50
f 50 66 67
f 50 67 51
f 51 68 52
f 51 67 69
f 51 69 68
f 52 68 70
f 52 70 53
f 53 70 71
f 53 71 72
f 53 72 54
f 54 72 73
f 54 73 74
f 54 74 55
f 55 74 75
f 55 75 76
f 55 76 56
f 56 76 78
f 56 78 77
f 58 79 59
f 58 80 79
f 59 79 60
f 60 79 81
f 64 66 65
f 66 82 67
f 67 82 69
f 68 69 82
f 68 71 70
f 71 73 72
f 73 75 74
f 75 78 76
f 77 83 84
f 77 78 83
f 78 85 83
f 79 80 81
f 80 84 86
f 80 86 81
f 81 86 85
f 83 85 84
f 84 85 86

