# https://github.com/mikedh/trimesh
v 6.91065305 29.74460483 2.33344514
v 6.86734670 29.74460483 2.15725090
v 6.86962599 29.93061423 2.16371138
v 6.36476332 32.35128760 4.87122905
v 6.29752421 32.22855687 4.96519934
v 6.26846322 32.18109787 4.99926355
v 5.92770943 31.67435646 5.33520710
v 5.89522967 31.62944853 5.36163624
v 5.49977282 31.11760378 5.63473728
v 5.46387398 31.07422709 5.65529313
v 5.02568060 30.56340337 5.85556742
v 4.98921202 30.52181244 5.86907562
v 4.52081797 30.00792682 5.99123683
v 4.48377953 29.96837735 5.99769738
v 4.27408488 29.74460483 6.01472940
v 6.81834185 29.74460483 2.01042246
v 6.81834185 30.10054886 2.01042246
v 6.29752421 32.35128760 4.96519934
v 6.67588645 30.48124254 1.68211382
v 6.59782076 30.65628052 1.53763469
v 6.40237162 31.03263676 1.24104109
v 6.29752421 31.21073604 1.10889535
v 6.05648929 31.58454120 0.85341375
v 5.92827925 31.76697850 0.73947486
v 5.64906636 32.13465929 0.53156581
v 5.49920300 32.32168913 0.43935742
v 5.47470072 32.35128760 0.42702373
v 6.29410529 32.35128760 4.96931043
v 6.26447448 32.35128760 5.00337478
v 6.24339113 32.35128760 5.02451804
v 5.92770943 32.35128760 5.33461984
v 5.87471598 32.35128760 5.37808102
v 5.49977282 32.35128760 5.63473728
v 5.42341673 32.35128760 5.67643669
v 5.02568060 32.35128760 5.85556742
v 4.92881083 32.35128760 5.88786956
v 4.52081797 32.35128760 5.99123683
v 4.40058546 32.35128760 6.00885626
v 4.00000030 29.74460483 6.03704747
v 6.66221046 29.74460483 1.65744673
v 6.59725094 29.74460483 1.53704729
v 6.37615973 29.74460483 1.20815154
v 6.29752421 29.74460483 1.10889535
v 6.01204315 29.74460483 0.81347641
v 5.92827925 29.74460483 0.73947486
v 5.58182725 29.74460483 0.48986640
v 5.49977282 29.74460483 0.43935742
v 5.19434804 32.35128760 0.28665569
v 4.00000030 32.35128760 6.03704747
v 3.95270504 29.74460483 6.03587266
v 5.10089719 29.74460483 0.24789300
v 5.17896289 32.35128760 0.27960803
v 3.86324292 32.35128760 6.03293624
v 3.47975244 29.74460483 5.99123683
v 5.02568060 29.74460483 0.21852728
v 5.03479780 32.35128760 0.22205111
v 3.47975244 32.35128760 5.99123683
v 3.41707198 29.74460483 5.97831603
v 5.02568060 32.35128760 0.21852728
v 4.58292862 29.74460483 0.09577867
v 4.68948537 32.35128760 0.11927124
v 3.32988912 32.35128760 5.96010920
v 3.31051522 32.35128760 5.95482346
v 2.97431999 29.74460483 5.85556742
v 4.52024815 29.74460483 0.08285787
v 4.52024815 32.35128760 0.08285787
v 4.67011148 32.35128760 0.11398550
v 2.97431999 32.35128760 5.85556742
v 2.96520279 32.35128760 5.85204359
v 2.89910340 29.74460483 5.82620170
v 4.04729556 29.74460483 0.03822204
v 4.13675768 32.35128760 0.04115846
v 2.82103771 32.35128760 5.79448666
v 2.80565256 32.35128760 5.78743901
v 2.50022778 29.74460483 5.63473728
v 4.00000030 29.74460483 0.03704723
v 4.00000030 32.35128760 0.03704723
v 2.52529988 32.35128760 5.64707097
v 2.50079760 32.32168913 5.63473728
v 2.35093424 32.13465929 5.54252889
v 2.41817334 29.74460483 5.58422830
v 3.72591572 29.74460483 0.05936529
v 3.59941514 32.35128760 0.06523844
v 1.63523728 32.35128760 1.20286565
v 2.07172135 31.76697850 5.33461984
v 2.07172135 29.74460483 5.33461984
v 3.51622106 29.96837735 0.07639732
v 1.08934754 29.74460483 3.74064956
v 3.47918262 32.35128760 0.08285787
v 1.13037461 29.93061423 3.91038332
v 1.18165874 30.10054886 4.06367224
v 1.32411414 30.48124254 4.39198088
v 1.40217984 30.65628052 4.53646000
v 1.59762898 31.03263676 4.83305361
v 1.70247638 31.21073604 4.96519934
v 1.94351131 31.58454120 5.22068094
v 1.70247638 32.35128760 1.10889535
v 1.70247638 32.22855687 1.10889535
v 1.98795745 29.74460483 5.26061829
v 3.47918262 30.00792682 0.08285787
v 1.13265389 29.74460483 3.91684379
v 1.73153737 32.18109787 1.07483115
v 2.07229117 31.67435646 0.73888760
v 2.10477093 31.62944853 0.71245845
v 2.50022778 31.11760378 0.43935742
v 2.53612661 31.07422709 0.41880157
v 2.97431999 30.56340337 0.21852728
v 3.01078857 30.52181244 0.20501908
v 3.07118976 32.35128760 0.18622514
v 1.18165874 29.74460483 4.06367224
v 1.33779013 29.74460483 4.41664796
v 1.40274966 29.74460483 4.53704741
v 1.62384087 29.74460483 4.86594316
v 1.70247638 29.74460483 4.96519934
v 1.70589530 32.35128760 1.10478427
v 1.73552611 32.35128760 1.07071992
v 1.75660947 32.35128760 1.04957666
v 2.07229117 32.35128760 0.73947486
v 2.12528461 32.35128760 0.69601368
v 2.50022778 32.35128760 0.43935742
v 2.57658386 32.35128760 0.39765801
v 2.97431999 32.35128760 0.21852728
f 1 2 3
f 1 3 4
f 1 4 5
f 1 5 6
f 1 6 7
f 1 7 8
f 1 8 9
f 1 9 10
f 1 10 11
f 1 11 12
f 1 12 13
f 1 13 14
f 1 14 15
f 1 15 39
f 1 39 50
f 1 50 54
f 1 54 58
f 1 58 64
f 1 64 70
f 1 70 75
f 1 75 81
f 1 81 86
f 1 86 99
f 1 99 114
f 1 114 113
f 1 113 112
f 1 112 111
f 1 111 110
f 1 110 101
f 1 101 88
f 1 88 82
f 1 82 76
f 1 76 71
f 1 71 65
f 1 65 60
f 1 60 55
f 1 55 51
f 1 51 47
f 1 47 46
f 1 46 45
f 1 45 44
f 1 44 43
f 1 43 42
f 1 42 41
f 1 41 40
f 1 40 16
f 1 16 2
f 2 16 3
f 3 16 17
f 3 17 4
f 4 18 5
f 4 17 19
f 4 19 20
f 4 20 21
f 4 21 22
f 4 22 23
f 4 23 24
f 4 24 25
f 4 25 26
f 4 26 27
f 4 27 48
f 4 48 52
f 4 52 56
f 4 56 59
f 4 59 61
f 4 61 67
f 4 67 66
f 4 66 72
f 4 72 77
f 4 77 83
f 4 83 89
f 4 89 109
f 4 109 122
f 4 122 121
f 4 121 120
f 4 120 119
f 4 119 118
f 4 118 117
f 4 117 116
f 4 116 115
f 4 115 97
f 4 97 84
f 4 84 78
f 4 78 74
f 4 74 73
f 4 73 69
f 4 69 68
f 4 68 63
f 4 63 62
f 4 62 57
f 4 57 53
f 4 53 49
f 4 49 38
f 4 38 37
f 4 37 36
f 4 36 35
f 4 35 34
f 4 34 33
f 4 33 32
f 4 32 31
f 4 31 30
f 4 30 29
f 4 29 28
f 4 28 18
f 5 18 28
f 5 28 6
f 6 28 29
f 6 29 30
f 6 30 7
f 7 30 31
f 7 31 32
f 7 32 8
f 8 32 9
f 9 32 33
f 9 33 10
f 10 33 34
f 10 34 11
f 11 34 35
f 11 35 12
f 12 35 36
f 12 36 13
f 13 36 37
f 13 37 14
f 14 37 38
f 14 38 15
f 15 38 39
f 16 40 19
f 16 19 17
f 19 40 41
f 19 41 20
f 20 41 21
f 21 41 42
f 21 42 43
f 21 43 22
f 22 43 23
f 23 43 44
f 23 44 24
f 24 44 45
f 24 45 25
f 25 45 46
f 25 46 47
f 25 47 26
f 26 47 27
f 27 47 48
f 38 49 39
f 39 49 50
f 47 51 48
f 48 51 52
f 49 53 50
f 50 53 54
f 51 55 56
f 51 56 52
f 53 57 54
f 54 57 58
f 55 59 56
f 55 60 61
f 55 61 59
f 57 62 58
f 58 62 63
f 58 63 64
f 60 65 66
f 60 66 67
f 60 67 61
f 63 68 64
f 64 68 69
f 64 69 70
f 65 71 72
f 65 72 66
f 69 73 70
f 70 73 74
f 70 74 75
f 71 76 77
f 71 77 72
f 74 78 75
f 75 78 79
f 75 79 80
f 75 80 81
f 76 82 83
f 76 83 77
f 78 84 79
f 79 84 80
f 80 85 86
f 80 86 81
f 80 84 85
f 82 87 83
f 82 88 87
f 83 87 89
f 84 88 90
f 84 90 91
f 84 91 92
f 84 92 93
f 84 93 94
f 84 94 95
f 84 95 96
f 84 96 85
f 84 97 98
f 84 98 88
f 85 96 99
f 85 99 86
f 87 100 89
f 87 88 100
f 88 101 90
f 88 98 102
f 88 102 103
f 88 103 104
f 88 104 105
f 88 105 106
f 88 106 107
f 88 107 108
f 88 108 100
f 89 100 109
f 90 101 110
f 90 110 91
f 91 110 92
f 92 110 111
f 92 111 112
f 92 112 93
f 93 112 94
f 94 112 113
f 94 113 114
f 94 114 95
f 95 114 96
f 96 114 99
f 97 115 98
f 98 115 102
f 100 108 109
f 102 115 116
f 102 116 117
f 102 117 103
f 103 117 118
f 103 118 119
f 103 119 104
f 104 119 105
f 105 119 120
f 105 120 106
f 106 120 121
f 106 121 107
f 107 121 122
f 107 122 108
f 108 122 109

