# https://github.com/mikedh/trimesh
v 0.99999988 74.45080757 3.03704735
v 1.02173054 74.82348919 3.38473726
v 1.00176179 79.02410269 3.06993693
v 0.99999988 78.98808241 3.03704735
v 1.00352371 74.32611942 2.92134648
v 1.12862164 69.89552498 3.87631912
v 1.04698503 75.00636578 3.55740756
v 1.04698503 76.91963911 3.55740756
v 1.04698503 79.54363823 3.55682027
v 2.91170710 79.45497036 2.09499564
v 3.03386846 79.34413671 1.90411862
v 1.03993738 78.47131729 2.55486254
v 1.02701628 76.91963911 2.66821414
v 1.00528592 74.26516056 2.86496434
v 1.04639763 73.89525175 2.51727443
v 1.08046198 73.71514797 2.34988991
v 1.18206733 73.33831072 2.01159704
v 1.24491000 73.15820456 1.85360957
v 1.40231007 72.78552532 1.53822195
v 2.80775250 65.84730625 1.46480765
v 2.80775250 65.84730625 4.38963156
v 2.27975720 67.87695885 5.48790883
v 1.18206733 69.89552498 4.06308498
v 1.12685972 75.37488937 3.89452580
v 1.06401706 79.64477539 3.65020320
v 1.05227077 79.57550287 3.58618595
v 2.70790914 79.68495131 2.49378186
v 2.52525443 79.99944210 3.03704735
v 3.32458885 79.12523746 1.52412649
v 3.27819103 79.15710449 1.57933395
v 3.15191852 79.24854279 1.73790868
v 1.04698503 78.43252659 2.51727443
v 1.04639763 74.32611942 2.51727443
v 1.16797173 77.92268753 2.05094714
v 1.18147993 74.32750463 2.01159704
v 1.18147993 77.87835598 2.01159704
v 1.37999201 77.36851692 1.57757204
v 1.40231007 74.32611942 1.53822195
v 1.45927960 72.67053604 1.44425165
v 5.02486297 68.34107637 0.21852728
v 5.16875492 68.17759514 0.27490940
v 5.42306194 67.87695885 0.40176924
v 4.79522319 65.84730625 1.66214522
v 1.49040723 72.60819197 1.39491733
v 1.70242751 72.22858429 1.11007001
v 1.81284258 72.05263376 0.98497208
v 2.07302266 71.67441368 0.73947486
v 2.20164442 71.49984837 0.63728224
v 2.50058734 71.11885786 0.43935742
v 2.64389196 70.94706297 0.36241915
v 2.97454970 70.56330204 0.21852728
v 3.12725136 70.39150715 0.16743090
v 3.47963979 70.00912905 0.08285787
v 3.58594359 69.89413977 0.06700035
v 3.63703994 69.84010696 0.05936529
v 4.00000000 69.45218801 0.03704723
v 4.15681284 69.28455114 0.04174586
v 4.52036021 68.89663219 0.08285787
v 4.67188725 68.73315096 0.11398550
v 3.20418948 65.84730625 4.41194948
v 2.57635081 67.87695885 5.67232545
v 2.50880966 67.87695885 5.63884851
v 2.50058734 67.87695885 5.63473728
v 2.35786998 67.87695885 5.54546561
v 2.24510574 69.89552498 5.46500351
v 2.13645259 71.85590506 5.38630348
v 2.07302266 69.89552498 5.33461984
v 1.82576352 69.89552498 5.09793233
v 1.70360216 69.89552498 4.96519934
v 1.48101026 69.89552498 4.66155794
v 1.40289748 69.89552498 4.53704741
v 1.22317934 69.89552498 4.16821416
v 1.21495688 70.19893408 4.14942015
v 1.18147993 75.56330681 4.06249765
v 1.18147993 79.40648079 4.06249765
v 2.28093186 78.58076572 5.49378198
v 2.55931863 79.92324352 2.90607632
v 2.62509787 79.80409861 2.70227835
v 2.67384493 79.73067045 2.57365659
v 5.47533283 79.99944210 3.03704735
v 5.72024280 78.58076572 0.58031272
v 4.31010181 78.61678600 0.64315539
v 4.00176194 78.75255823 0.87866824
v 3.66523100 78.91880989 1.16880145
v 4.05227095 78.72623682 0.83520707
v 1.40348458 77.32141256 1.53822195
v 1.40348458 76.91963911 1.53763469
v 4.89800313 72.11636543 0.17741527
v 4.95497258 72.95731783 0.19386020
v 5.02545030 69.89413977 0.21852728
v 5.27505869 69.89413977 0.32600578
v 5.49941266 67.87695885 0.43935742
v 5.02603763 72.87834883 0.21852728
v 5.02603763 78.37156773 0.21911468
v 5.19753331 78.14297199 0.28841760
v 5.26742363 78.42975378 0.31954523
v 4.86628817 65.84730625 1.67565342
v 1.56440878 74.32611942 1.29331198
v 1.67188713 76.81988955 1.14824545
v 1.70242751 74.32611942 1.10889535
v 1.70360216 76.76724195 1.11065742
v 1.93089271 74.32611942 0.87103318
v 2.07243541 72.11636543 0.73947486
v 2.07243541 74.32611942 0.73947486
v 2.07302266 76.21030092 0.74006226
v 2.23805794 72.11636543 0.61261501
v 2.50058734 74.32611942 0.43935742
v 2.45242754 75.71570396 0.46872314
v 2.50117460 75.65613031 0.43994483
v 2.71965542 72.11636543 0.32776769
v 2.86472195 74.32611942 0.26375052
v 2.91934216 75.16291857 0.23967054
v 2.97454970 74.32611942 0.21852728
v 2.97454970 75.09918928 0.21970209
v 3.24588881 72.11636543 0.13747808
v 3.39800311 74.32611942 0.09930249
v 3.41738449 74.61290359 0.09519126
v 3.47963979 74.32611942 0.08285787
v 3.68285043 74.32611942 0.06288912
v 3.93363352 74.05734777 0.03880914
v 4.00000000 73.98669004 0.03704723
v 4.44988256 73.50733280 0.07169869
v 4.52036021 73.43113422 0.08285787
v 5.00195773 78.36602449 0.21030482
v 4.11158966 65.84730625 4.45599806
v 2.83124508 68.17759514 5.79918530
v 4.77760376 65.84730625 4.48418912
v 4.86628817 65.84730625 4.48595103
v 2.72494131 69.89413977 5.74808892
v 2.58750984 72.11636543 5.68172242
v 2.56871575 72.40591764 5.67232545
v 2.50058734 72.32279301 5.63473728
v 2.34612370 77.59157181 5.53783055
v 2.07243541 71.76723719 5.33461984
v 2.07302266 78.67220402 5.33461984
v 1.93735310 77.03740120 5.21304574
v 1.75880963 71.30173206 5.02921652
v 1.70242751 76.92102432 4.96402469
v 1.59201244 76.48323059 4.82365664
v 1.44870782 70.75310469 4.61398553
v 1.40289748 70.65751076 4.53704741
v 1.34416604 76.91963911 4.42839425
v 1.31949866 75.93044519 4.37964719
v 1.27897406 76.92102432 4.28920086
v 1.40348458 79.13216591 4.53646000
v 1.70360216 78.88556004 4.96402469
v 2.50117460 78.49902630 5.63414987
v 2.73257637 78.42975378 5.75513657
v 3.69342208 78.61817360 5.42858999
v 4.72180897 79.15710449 4.49476074
v 4.84925607 79.24854279 4.33618601
v 5.34377450 79.75560665 3.45815152
v 6.93598294 79.64477539 2.42389150
v 5.65387630 77.59157181 0.53567704
v 5.50000006 78.49902630 0.43994483
v 6.29757249 78.88556004 1.10948276
v 5.92815199 78.67220402 0.73947486
v 5.86354741 71.85590506 0.68779122
v 5.75489426 69.89552498 0.60909119
v 5.59162104 67.87695885 0.49750146
v 4.47278780 78.55167150 0.53156581
v 1.61844158 76.92102432 1.22577082
v 4.11805012 78.69714260 0.78411069
v 5.41249016 72.11636543 0.39237227
v 5.43128425 72.40591764 0.40176924
v 5.50058731 77.78553009 0.43994483
v 6.87137836 69.89552498 2.19777558
v 2.03308532 76.26571655 0.77471372
v 3.48022708 74.54501867 0.08344498
v 3.68402505 74.32750463 0.06288912
v 2.97454970 68.34107637 5.85556742
v 2.97454970 72.87834883 5.85556742
v 2.80305402 78.14297199 5.78567710
v 4.41405641 69.89413977 6.00709435
v 4.36296006 69.84010696 6.01472940
v 4.00000000 69.45218801 6.03704747
v 3.84318716 69.28455114 6.03234883
v 3.47963979 68.89663219 5.99123683
v 3.32752542 68.73315096 5.96010920
v 6.29757249 72.22996950 4.96519934
v 6.18715742 72.05263376 5.08912262
v 5.92697734 71.67441368 5.33461984
v 5.79835558 71.49984837 5.43681245
v 5.49941266 71.11885786 5.63473728
v 5.35610804 70.94706297 5.71167555
v 5.02545030 70.56330204 5.85556742
v 4.87274864 70.39150715 5.90666380
v 4.52036021 70.00912905 5.99123683
v 1.86217690 76.91963911 5.13375845
v 1.56088480 76.91963911 4.77667149
v 1.40348458 76.91963911 4.53704741
v 2.99921693 78.36602449 5.86378988
v 3.16131556 78.42005730 5.77099409
v 3.68872357 78.61540318 5.43211397
v 6.32870013 76.81988955 4.92584925
v 6.38214567 76.92102432 4.84832387
v 3.87901331 78.69575739 5.29292058
v 4.16209867 78.82875681 5.06210607
v 4.74001566 79.16818619 4.47420474
v 4.39232578 78.95067453 4.85067304
v 6.83261567 77.92268753 4.02314756
v 6.95418948 78.43252659 3.55682027
v 5.02897421 79.39816713 4.07600585
v 6.96065003 78.47131729 3.51923216
v 7.00000012 78.98808241 3.03704735
v 5.32615507 79.73067045 3.50102544
v 6.81852007 79.40648079 2.01218437
v 5.15231015 79.51869965 3.86633474
v 6.94890374 79.57550287 2.48790875
v 6.95418948 75.00636578 2.51668714
v 6.87431479 75.37488937 2.17956889
v 6.06323415 77.03740120 0.86046156
v 6.59768993 79.13216591 1.53763469
v 6.44028971 76.91963911 1.29742321
v 6.40916207 76.48323059 1.25043806
v 6.29639784 69.89552498 1.10889535
v 6.24119037 71.30173206 1.04487818
v 5.92756459 71.76723719 0.73947486
v 5.92697734 69.89552498 0.73947486
v 6.17423648 69.89552498 0.97616237
v 6.51898974 69.89552498 1.41253676
v 6.59710252 69.89552498 1.53704729
v 6.77682066 69.89552498 1.90588053
v 6.81793267 69.89552498 2.01100972
v 6.99647629 74.32611942 3.15333553
v 6.99471408 74.26516056 3.20913035
v 6.95360237 73.89525175 3.55799489
v 6.91953802 73.71514797 3.72420479
v 6.81852007 73.33831072 4.06191032
v 6.75567740 73.15820456 4.22048513
v 6.59768993 72.78552532 4.53587275
v 6.51018018 72.60819197 4.67917737
v 6.97885686 74.82348919 2.68935744
v 7.00000012 74.45080757 3.03704735
v 3.10199687 72.11636543 5.89667942
v 3.04502742 72.95731783 5.88023450
v 4.06636648 74.05734777 6.03528555
v 4.52036021 72.11636543 5.99123683
v 4.52094754 74.54501867 5.99064972
v 4.31714957 74.32750463 6.01120558
v 4.00000000 73.98669004 6.03704747
v 3.55011744 73.50733280 6.00239601
v 3.47963979 69.89413977 5.99123683
v 3.48022708 72.11636543 5.99123683
v 3.47963979 73.43113422 5.99064972
v 6.29757249 74.32611942 4.96519934
v 6.45438531 73.90356541 4.75552823
v 6.29757249 76.76724195 4.96343728
v 6.06910729 74.32611942 5.20306151
v 5.92756459 72.11636543 5.33461984
v 5.92756459 74.32611942 5.33461984
v 5.92815199 76.21030092 5.33403244
v 5.76252946 72.11636543 5.46147969
v 5.54757246 75.71570396 5.60537156
v 5.50000006 75.65613031 5.63414987
v 5.27975732 72.11636543 5.74632701
v 5.02545030 74.32611942 5.85556742
v 5.08124509 75.16291857 5.83442416
v 5.02603763 75.09918928 5.85439261
v 4.75352393 72.11636543 5.93661662
v 4.60317151 74.32750463 5.97420480
v 4.58320284 74.61290359 5.97890344
v 5.96691468 76.26571655 5.29938098
v 6.59768993 77.32141256 4.53646000
v 6.61942059 77.36851692 4.49652266
v 6.81852007 77.87835598 4.06249765
v 6.81852007 74.32750463 4.06249765
v 6.95418948 76.91963911 3.55740756
v 6.99941272 79.02410269 3.00415776
v 6.95418948 74.32750463 3.55740756
v 6.99412698 74.32750463 3.21500350
v 6.81852007 76.91963911 2.01159704
v 6.78504312 70.19893408 1.92467455
v 6.68167585 75.93044519 1.69444751
v 6.65583396 76.91963911 1.64570045
v 6.95418948 79.54363823 2.51727443
v 6.95418948 76.91963911 2.51668714
v 6.81852007 75.56330681 2.01159704
v 6.55129218 70.75310469 1.46010917
v 6.71808922 74.32611942 4.29683592
v 6.59768993 74.32750463 4.53646000
v 6.98942834 76.92102432 2.84617029
f 1 2 3
f 1 3 4
f 1 4 5
f 1 5 6
f 1 6 2
f 2 7 8
f 2 8 9
f 2 9 3
f 2 6 7
f 3 9 10
f 3 10 4
f 4 10 11
f 4 11 12
f 4 12 13
f 4 13 14
f 4 14 5
f 5 14 6
f 6 14 15
f 6 15 16
f 6 16 17
f 6 17 18
f 6 18 19
f 6 19 20
f 6 20 21
f 6 21 22
f 6 22 23
f 6 23 24
f 6 24 7
f 7 24 25
f 7 25 8
f 8 25 26
f 8 26 9
f 9 26 10
f 10 26 25
f 10 25 27
f 10 27 28
f 10 28 29
f 10 29 30
f 10 30 31
f 10 31 11
f 11 31 12
f 12 31 32
f 12 32 33
f 12 33 15
f 12 15 13
f 13 15 14
f 15 33 16
f 16 33 32
f 16 32 34
f 16 34 35
f 16 35 17
f 17 35 18
f 18 35 36
f 18 36 37
f 18 37 19
f 19 38 39
f 19 39 20
f 19 37 38
f 20 40 41
f 20 41 42
f 20 42 43
f 20 43 97
f 20 97 128
f 20 128 127
f 20 127 125
f 20 125 60
f 20 60 21
f 20 39 44
f 20 44 45
f 20 45 46
f 20 46 47
f 20 47 48
f 20 48 49
f 20 49 50
f 20 50 51
f 20 51 52
f 20 52 53
f 20 53 54
f 20 54 55
f 20 55 56
f 20 56 57
f 20 57 58
f 20 58 59
f 20 59 40
f 21 60 61
f 21 61 62
f 21 62 63
f 21 63 64
f 21 64 22
f 22 64 65
f 22 65 66
f 22 66 67
f 22 67 68
f 22 68 69
f 22 69 70
f 22 70 71
f 22 71 72
f 22 72 23
f 23 72 73
f 23 73 74
f 23 74 24
f 24 74 75
f 24 75 25
f 25 75 76
f 25 76 28
f 25 28 77
f 25 77 78
f 25 78 79
f 25 79 27
f 27 79 77
f 27 77 28
f 28 80 81
f 28 81 82
f 28 82 29
f 28 76 80
f 29 82 83
f 29 83 84
f 29 84 36
f 29 36 34
f 29 34 32
f 29 32 30
f 30 32 31
f 34 36 35
f 36 84 37
f 37 84 83
f 37 83 85
f 37 85 86
f 37 86 87
f 37 87 38
f 38 87 39
f 39 87 44
f 40 59 88
f 40 88 89
f 40 89 90
f 40 90 41
f 41 91 92
f 41 92 42
f 41 90 93
f 41 93 94
f 41 94 95
f 41 95 96
f 41 96 91
f 42 92 97
f 42 97 43
f 44 98 45
f 44 87 86
f 44 86 98
f 45 98 99
f 45 99 100
f 45 100 46
f 46 100 101
f 46 101 102
f 46 102 103
f 46 103 47
f 47 103 48
f 48 103 104
f 48 104 105
f 48 105 106
f 48 106 49
f 49 107 50
f 49 106 108
f 49 108 107
f 50 107 109
f 50 109 110
f 50 110 51
f 51 110 111
f 51 111 112
f 51 112 113
f 51 113 52
f 52 113 114
f 52 114 115
f 52 115 53
f 53 55 54
f 53 115 116
f 53 116 117
f 53 117 118
f 53 118 55
f 55 118 119
f 55 119 120
f 55 120 56
f 56 120 121
f 56 121 57
f 57 121 122
f 57 122 58
f 58 122 123
f 58 123 59
f 59 123 124
f 59 124 88
f 60 125 61
f 61 126 62
f 61 125 127
f 61 127 128
f 61 128 126
f 62 126 129
f 62 129 130
f 62 130 63
f 63 130 131
f 63 131 132
f 63 132 64
f 64 132 133
f 64 133 76
f 64 76 65
f 65 76 66
f 66 134 67
f 66 76 135
f 66 135 134
f 67 134 136
f 67 136 68
f 68 137 69
f 68 136 137
f 69 137 138
f 69 138 139
f 69 139 70
f 70 140 71
f 70 139 140
f 71 140 141
f 71 141 142
f 71 142 143
f 71 143 72
f 72 143 144
f 72 144 73
f 73 144 75
f 73 75 74
f 75 145 146
f 75 146 135
f 75 135 76
f 75 144 142
f 75 142 145
f 76 133 147
f 76 147 148
f 76 148 80
f 77 79 78
f 80 148 149
f 80 149 150
f 80 150 151
f 80 151 152
f 80 152 153
f 80 153 81
f 81 154 155
f 81 155 96
f 81 96 82
f 81 153 156
f 81 156 157
f 81 157 158
f 81 158 159
f 81 159 160
f 81 160 154
f 82 96 94
f 82 94 124
f 82 124 161
f 82 161 99
f 82 99 162
f 82 162 163
f 82 163 83
f 83 163 85
f 85 163 86
f 86 163 162
f 86 162 98
f 88 124 89
f 89 93 90
f 89 124 93
f 91 164 92
f 91 96 164
f 92 160 97
f 92 164 165
f 92 165 166
f 92 166 154
f 92 154 160
f 93 124 94
f 94 96 95
f 96 155 165
f 96 165 164
f 97 160 167
f 97 167 128
f 98 162 99
f 99 161 101
f 99 101 100
f 101 161 124
f 101 124 168
f 101 168 102
f 102 168 103
f 103 168 104
f 104 168 105
f 105 168 124
f 105 124 108
f 105 108 106
f 107 108 109
f 108 124 109
f 109 124 112
f 109 112 111
f 109 111 110
f 112 124 114
f 112 114 113
f 114 124 117
f 114 117 116
f 114 116 115
f 117 124 169
f 117 169 118
f 118 169 119
f 119 169 170
f 119 170 120
f 120 170 124
f 120 124 121
f 121 124 122
f 122 124 123
f 124 170 169
f 126 128 171
f 126 171 172
f 126 172 173
f 126 173 148
f 126 148 129
f 128 174 175
f 128 175 176
f 128 176 177
f 128 177 178
f 128 178 179
f 128 179 171
f 128 167 180
f 128 180 181
f 128 181 182
f 128 182 183
f 128 183 184
f 128 184 185
f 128 185 186
f 128 186 187
f 128 187 188
f 128 188 174
f 129 148 130
f 130 148 131
f 131 148 147
f 131 147 132
f 132 147 133
f 134 135 136
f 135 146 136
f 136 146 189
f 136 189 137
f 137 189 146
f 137 146 138
f 138 146 139
f 139 146 190
f 139 190 140
f 140 190 145
f 140 145 191
f 140 191 141
f 141 191 142
f 142 191 145
f 142 144 143
f 145 190 146
f 148 173 192
f 148 192 193
f 148 193 149
f 149 193 194
f 149 194 195
f 149 195 196
f 149 196 197
f 149 197 198
f 149 198 150
f 150 199 151
f 150 198 200
f 150 200 201
f 150 201 202
f 150 202 199
f 151 203 152
f 151 199 202
f 151 202 204
f 151 204 205
f 151 205 203
f 152 206 153
f 152 203 206
f 153 207 156
f 153 206 208
f 153 208 209
f 153 209 210
f 153 210 211
f 153 211 207
f 154 166 155
f 155 166 165
f 156 212 157
f 156 207 213
f 156 213 214
f 156 214 215
f 156 215 216
f 156 216 217
f 156 217 212
f 157 212 218
f 157 218 158
f 158 218 219
f 158 219 159
f 159 219 160
f 160 219 220
f 160 220 216
f 160 216 221
f 160 221 222
f 160 222 223
f 160 223 224
f 160 224 167
f 167 225 226
f 167 226 227
f 167 227 228
f 167 228 229
f 167 229 230
f 167 230 231
f 167 231 232
f 167 232 180
f 167 224 211
f 167 211 210
f 167 210 233
f 167 233 234
f 167 234 225
f 171 179 235
f 171 235 236
f 171 236 172
f 172 236 192
f 172 192 173
f 174 188 175
f 175 237 176
f 175 188 238
f 175 238 239
f 175 239 240
f 175 240 237
f 176 237 241
f 176 241 177
f 177 241 242
f 177 242 178
f 178 242 243
f 178 243 179
f 179 243 244
f 179 244 245
f 179 245 192
f 179 192 235
f 180 246 181
f 180 232 247
f 180 247 195
f 180 195 246
f 181 246 248
f 181 248 249
f 181 249 250
f 181 250 182
f 182 250 183
f 183 250 251
f 183 251 252
f 183 252 253
f 183 253 184
f 184 253 254
f 184 254 255
f 184 255 185
f 185 256 186
f 185 255 256
f 186 257 187
f 186 256 258
f 186 258 257
f 187 257 259
f 187 259 260
f 187 260 188
f 188 260 261
f 188 261 262
f 188 262 238
f 192 236 235
f 192 245 242
f 192 242 241
f 192 241 237
f 192 237 240
f 192 240 239
f 192 239 262
f 192 262 259
f 192 259 258
f 192 258 255
f 192 255 254
f 192 254 252
f 192 252 263
f 192 263 193
f 193 263 248
f 193 248 195
f 193 195 194
f 195 264 196
f 195 248 246
f 195 247 264
f 196 264 197
f 197 264 198
f 198 264 265
f 198 265 200
f 200 265 266
f 200 266 201
f 201 266 267
f 201 267 229
f 201 229 228
f 201 228 202
f 202 268 204
f 202 228 268
f 203 208 206
f 203 205 269
f 203 269 208
f 204 268 270
f 204 270 271
f 204 271 205
f 205 234 269
f 205 271 226
f 205 226 225
f 205 225 234
f 207 211 272
f 207 272 273
f 207 273 274
f 207 274 275
f 207 275 213
f 208 269 276
f 208 276 209
f 209 276 277
f 209 277 210
f 210 277 233
f 211 278 272
f 211 224 278
f 212 217 220
f 212 220 219
f 212 219 218
f 213 275 222
f 213 222 279
f 213 279 214
f 214 279 215
f 215 279 221
f 215 221 216
f 216 220 217
f 221 279 222
f 222 275 274
f 222 274 223
f 223 273 224
f 223 274 273
f 224 273 278
f 226 271 227
f 227 271 270
f 227 270 228
f 228 270 268
f 229 267 230
f 230 280 231
f 230 267 266
f 230 266 280
f 231 280 265
f 231 265 281
f 231 281 232
f 232 281 264
f 232 264 247
f 233 277 276
f 233 276 282
f 233 282 234
f 234 282 269
f 238 262 239
f 242 245 244
f 242 244 243
f 248 263 249
f 249 263 250
f 250 263 251
f 251 263 252
f 252 254 253
f 255 258 256
f 257 258 259
f 259 262 261
f 259 261 260
f 264 281 265
f 265 280 266
f 269 282 276
f 272 278 273

