# https://github.com/mikedh/trimesh
v 3.99982715 43.79030675 0.03704723
v 4.18790200 43.79030675 0.04557785
v 3.71302837 43.79030675 0.05197521
v 3.73396033 44.27132219 0.04930969
v 3.99982715 43.98961037 0.03704723
v 4.00670031 47.49866366 1.45253595
v 4.19165099 45.58222532 1.63806882
v 4.19165099 43.79030675 1.36989903
v 3.47902814 43.79030675 0.08289751
v 3.47902814 44.54504728 0.08289751
v 4.19165099 45.58295131 1.65086415
v 3.22190905 44.82494354 0.14047679
v 2.97353761 45.10012090 0.21831509
v 2.73453870 45.37457168 0.31747933
v 2.56114730 45.58331430 0.40758010
v 2.50053847 45.65592051 0.43903556
v 2.28465834 45.92783034 0.57711896
v 2.07159007 46.21099412 0.73972683
v 1.88601443 46.47854745 0.90926554
v 1.70231336 46.76715672 1.10919338
v 1.55079120 47.02962816 1.30538907
v 1.40208060 47.32186794 1.53783839
v 1.32522607 47.49866366 1.68445211
v 4.00670031 47.49866366 4.61672571
v 4.19165099 43.79030675 4.75640859
v 3.17817071 43.79030675 0.15327211
v 4.19165099 45.58295131 4.48450681
v 2.97353761 43.79030675 0.21831509
v 2.67143050 43.79030675 0.34893479
v 2.50022599 43.79030675 0.43903556
v 2.27184930 45.58331430 0.58564913
v 2.20749134 43.79030675 0.63416492
v 2.07159007 43.79030675 0.73972683
v 1.85820931 45.58295131 0.93858834
v 1.85820931 45.58331430 0.93858834
v 1.80197427 43.79030675 0.99830013
v 1.70200089 43.79030675 1.10919338
v 1.51392588 45.58295131 1.36136886
v 1.51392588 45.58331430 1.36136886
v 1.46831298 43.79030675 1.43067714
v 1.40208060 43.79030675 1.53730538
v 1.28711128 47.49866366 1.75749239
v 3.10600238 47.49866366 5.08962151
v 4.19165099 44.37260747 4.75640859
v 2.27716038 47.49866366 5.48361253
v 3.87017408 43.79030675 4.75640859
v 1.21869200 43.79030675 1.91583510
v 1.25180805 45.58295131 1.83906291
v 1.25180805 45.58331430 1.83906291
v 1.18151450 47.49866366 2.01073419
v 2.07221487 47.49866366 5.33486616
v 2.07221487 47.22856879 5.33486616
v 3.60493214 43.79030675 4.53728776
v 2.00379559 47.13309169 5.27568769
v 1.70200089 46.67422116 4.96433344
v 1.64639065 46.58092260 4.89662465
v 1.40208060 46.11805856 4.53675460
v 1.36021698 46.02657497 4.46104866
v 1.18088955 45.56298494 4.06279262
v 1.15308428 45.47295332 3.98282152
v 1.04592526 45.00754833 3.55737526
v 1.03249156 44.92005765 3.47580474
v 1.00000018 44.45174813 3.03649683
v 1.00124979 44.36498404 2.95492630
v 1.18120188 43.79030675 2.01126736
v 1.18120188 45.58331430 2.01126736
v 1.10122317 47.49866366 2.26930741
v 1.99067408 47.49866366 5.26342552
v 1.04561293 43.89703751 2.51615155
v 1.61046275 43.79030675 2.87655462
v 1.70200089 47.49866366 4.96433344
v 1.61983514 47.49866366 4.86037102
v 1.40208060 47.49866366 4.53675460
v 1.32803792 47.49866366 4.39600553
v 1.18120188 47.49866366 4.06279262
v 1.12590396 47.49866366 3.88898876
v 1.04561293 45.58295131 3.55737526
v 1.04592526 47.49866366 3.55737526
v 1.01874495 47.49866366 3.35264925
v 1.00000018 47.49866366 3.03649683
v 1.01030970 47.49866366 2.80724633
v 1.07997888 45.58295131 2.35727560
v 1.06654489 43.79030675 2.41752051
v 1.06060886 43.81317765 2.43831299
v 1.04592526 47.49866366 2.51668464
v 1.04561293 45.58295131 2.51615155
f 1 2 8
f 1 8 25
f 1 25 46
f 1 46 53
f 1 53 70
f 1 70 83
f 1 83 65
f 1 65 47
f 1 47 41
f 1 41 40
f 1 40 37
f 1 37 36
f 1 36 33
f 1 33 32
f 1 32 30
f 1 30 29
f 1 29 28
f 1 28 26
f 1 26 9
f 1 9 3
f 1 3 4
f 1 4 5
f 1 5 2
f 2 5 6
f 2 6 7
f 2 7 8
f 3 9 10
f 3 10 4
f 4 10 6
f 4 6 5
f 6 11 7
f 6 10 12
f 6 12 13
f 6 13 14
f 6 14 15
f 6 15 16
f 6 16 17
f 6 17 18
f 6 18 19
f 6 19 20
f 6 20 21
f 6 21 22
f 6 22 23
f 6 23 42
f 6 42 50
f 6 50 67
f 6 67 85
f 6 85 81
f 6 81 80
f 6 80 79
f 6 79 78
f 6 78 76
f 6 76 75
f 6 75 74
f 6 74 73
f 6 73 72
f 6 72 71
f 6 71 68
f 6 68 51
f 6 51 45
f 6 45 43
f 6 43 24
f 6 24 27
f 6 27 11
f 7 11 27
f 7 27 44
f 7 44 25
f 7 25 8
f 9 26 12
f 9 12 10
f 12 26 13
f 13 26 28
f 13 28 14
f 14 28 29
f 14 29 16
f 14 16 15
f 16 29 30
f 16 30 17
f 17 30 31
f 17 31 18
f 18 32 33
f 18 33 19
f 18 31 32
f 19 33 34
f 19 34 35
f 19 35 20
f 20 36 37
f 20 37 21
f 20 35 36
f 21 37 38
f 21 38 39
f 21 39 22
f 22 39 40
f 22 40 41
f 22 41 23
f 23 41 42
f 24 43 44
f 24 44 27
f 25 44 45
f 25 45 46
f 30 32 31
f 33 36 34
f 34 36 35
f 37 40 38
f 38 40 39
f 41 47 48
f 41 48 42
f 42 48 49
f 42 49 50
f 43 45 44
f 45 51 52
f 45 52 46
f 46 52 54
f 46 54 55
f 46 55 56
f 46 56 57
f 46 57 58
f 46 58 59
f 46 59 60
f 46 60 61
f 46 61 62
f 46 62 63
f 46 63 64
f 46 64 53
f 47 65 66
f 47 66 50
f 47 50 49
f 47 49 48
f 50 66 67
f 51 68 54
f 51 54 52
f 53 64 69
f 53 69 70
f 54 68 55
f 55 68 71
f 55 71 56
f 56 71 72
f 56 72 57
f 57 72 73
f 57 73 58
f 58 73 74
f 58 74 59
f 59 74 75
f 59 75 60
f 60 75 76
f 60 76 61
f 61 76 77
f 61 77 62
f 62 77 78
f 62 78 79
f 62 79 63
f 63 79 80
f 63 80 64
f 64 80 81
f 64 81 69
f 65 82 67
f 65 67 66
f 65 83 84
f 65 84 82
f 67 82 85
f 69 86 84
f 69 84 70
f 69 81 86
f 70 84 83
f 76 78 77
f 81 85 86
f 82 84 85
f 84 86 85

