# https://github.com/mikedh/trimesh
v 4.00029385 64.43628550 1.46005955
v 4.00029385 65.84561110 1.63551372
v 4.86708449 67.87305355 0.77962633
v 5.42468452 67.87465572 0.40130313
v 5.50044069 67.78543711 0.44023212
v 5.62963703 67.62409687 0.51918652
v 5.92825705 67.22875834 0.73960077
v 6.04101026 67.06902027 0.83939042
v 6.29793489 66.67475224 1.11024778
v 6.39072144 66.51661634 1.22648623
v 6.59772956 66.11860752 1.53791737
v 6.66820014 65.96314430 1.66731488
v 4.28804958 64.43628550 1.58726390
v 4.00029385 64.43628550 4.61384859
v 5.59293354 69.89355087 0.50273772
v 4.00029385 65.84561110 4.43839442
v 5.50044069 67.87465572 0.44023212
v 5.64373115 67.87518978 0.52905586
v 5.75589725 69.89355087 0.60965504
v 5.92825705 69.89355087 0.73960077
v 6.07947552 67.87518978 0.87831926
v 6.17519835 69.89355087 0.97646397
v 6.29793489 67.87465572 1.10969942
v 6.29793489 69.89355087 1.10969942
v 6.44240016 67.87518978 1.30105417
v 6.51933068 69.89355087 1.41345453
v 6.59772956 69.89355087 1.53791737
v 6.71253794 65.84561110 1.76820096
v 6.72134691 67.87518978 1.78355318
v 6.81883150 65.56299686 2.01164369
v 6.86522478 65.40806770 2.14926552
v 6.95390069 65.00792265 2.51662273
v 5.94440648 64.43628550 2.46727627
v 4.41930139 64.43628550 6.00267824
v 5.59293354 69.89355087 2.74800297
v 4.86708449 67.87465572 4.14067056
v 6.77713627 69.89355087 1.90637123
v 6.81883150 69.89355087 2.01164369
v 6.90633261 67.87518978 2.30772261
v 6.93569565 69.64779854 2.42121954
v 6.95419395 65.84561110 2.51662273
v 6.97562897 64.85619783 2.65863098
v 6.93775082 64.43628550 3.01611891
v 4.49153395 64.43628550 5.99445369
v 4.52148402 64.54526901 5.99061575
v 5.59293354 69.83905792 2.80009095
v 6.99794465 69.09432650 2.93716453
v 6.95419395 69.54468966 2.51662273
v 6.87197828 69.89355087 2.19861206
v 4.64921230 64.68417168 5.96539404
v 5.02652460 65.10034561 5.85573521
v 5.14368230 65.23337126 5.81022676
v 5.50014699 65.65649033 5.63477274
v 5.60497233 65.78737736 5.57117041
v 5.64901644 65.84561110 5.53882118
v 5.92855060 66.21156454 5.33485573
v 6.01751992 66.33711100 5.25644954
v 5.59293354 69.74823713 2.87630387
v 6.99177855 67.87518978 2.85711356
v 7.00000012 64.45177794 3.03750239
v 6.99911916 64.43628550 3.05285463
v 4.52148402 64.43628550 5.99061575
v 6.85377324 67.99218893 3.96028172
v 6.95419395 68.43347073 3.55673712
v 6.97034383 68.54405880 3.45420610
v 7.00000012 68.98854733 3.03695409
v 7.00000012 67.87518978 3.03695409
v 4.64539514 64.43628550 5.96539404
v 4.66389374 64.43628550 5.96155610
v 5.02652460 64.43628550 5.85573521
v 5.18860736 64.43628550 5.78939166
v 5.50014699 64.43628550 5.63477274
v 5.67426854 64.43628550 5.52237239
v 5.64960384 65.84561110 5.53882118
v 5.92855060 65.84561110 5.33485573
v 6.29734778 66.76824331 4.96475693
v 5.92796335 64.43628550 5.33430737
v 6.03954205 65.84561110 5.23506608
v 6.37016752 66.89058542 4.87483677
v 6.59772956 67.32171774 4.53599077
v 6.65146345 67.44031906 4.43894263
v 6.81853795 67.87786007 4.06281281
v 7.00000012 67.87465572 3.03750239
v 6.99559563 64.43628550 3.18005892
v 6.81883150 65.84561110 4.06281281
v 6.81853795 64.43628550 4.06281281
v 6.85582870 67.87465572 3.95315390
v 6.85582870 67.87518978 3.95315390
v 6.89047658 65.84561110 3.82649790
v 6.91455448 64.43628550 3.73767424
v 6.95419395 67.87465572 3.55728541
v 6.95419395 65.84561110 3.55728541
v 6.95390069 64.43628550 3.55783369
v 6.97445446 67.87518978 3.41089081
v 6.98678696 65.84561110 3.27984847
v 6.10267216 64.43628550 5.17201226
v 6.29793489 65.84561110 4.96475693
v 6.29764134 64.43628550 4.96475693
v 6.40892649 65.84561110 4.82055556
v 6.46060491 64.43628550 4.74708419
v 6.59772956 65.84561110 4.53653913
v 6.59772956 64.43628550 4.53653913
v 6.69550771 65.84561110 4.34628095
v 6.73397297 64.43628550 4.26458512
v 6.99471498 64.43628550 3.19212139
f 1 2 3
f 1 3 4
f 1 4 5
f 1 5 6
f 1 6 7
f 1 7 8
f 1 8 9
f 1 9 10
f 1 10 11
f 1 11 12
f 1 12 13
f 1 13 33
f 1 33 43
f 1 43 61
f 1 61 84
f 1 84 105
f 1 105 93
f 1 93 90
f 1 90 86
f 1 86 104
f 1 104 102
f 1 102 100
f 1 100 98
f 1 98 96
f 1 96 77
f 1 77 73
f 1 73 72
f 1 72 71
f 1 71 70
f 1 70 69
f 1 69 68
f 1 68 62
f 1 62 44
f 1 44 34
f 1 34 14
f 1 14 16
f 1 16 2
f 2 15 3
f 2 16 35
f 2 35 15
f 3 15 4
f 4 15 17
f 4 17 5
f 5 17 6
f 6 17 15
f 6 15 18
f 6 18 7
f 7 18 19
f 7 19 20
f 7 20 8
f 8 20 21
f 8 21 9
f 9 21 22
f 9 22 23
f 9 23 10
f 10 23 24
f 10 24 25
f 10 25 11
f 11 25 26
f 11 26 27
f 11 27 12
f 12 28 13
f 12 27 29
f 12 29 28
f 13 28 30
f 13 30 31
f 13 31 32
f 13 32 33
f 14 34 16
f 15 19 18
f 15 35 49
f 15 49 38
f 15 38 37
f 15 37 27
f 15 27 26
f 15 26 24
f 15 24 22
f 15 22 20
f 15 20 19
f 16 34 36
f 16 36 35
f 20 22 21
f 22 24 23
f 24 26 25
f 27 37 29
f 28 29 30
f 29 37 30
f 30 37 38
f 30 38 31
f 31 38 39
f 31 39 32
f 32 39 40
f 32 40 41
f 32 41 42
f 32 42 33
f 33 42 43
f 34 44 45
f 34 45 36
f 35 46 47
f 35 47 48
f 35 48 40
f 35 40 49
f 35 36 46
f 36 45 50
f 36 50 51
f 36 51 52
f 36 52 53
f 36 53 54
f 36 54 55
f 36 55 56
f 36 56 57
f 36 57 58
f 36 58 46
f 38 49 40
f 38 40 39
f 40 48 41
f 41 48 42
f 42 48 59
f 42 59 60
f 42 60 43
f 43 60 61
f 44 62 45
f 45 62 50
f 46 58 63
f 46 63 64
f 46 64 65
f 46 65 66
f 46 66 47
f 47 66 67
f 47 67 60
f 47 60 59
f 47 59 48
f 50 62 68
f 50 68 69
f 50 69 51
f 51 69 70
f 51 70 52
f 52 70 71
f 52 71 53
f 53 71 72
f 53 72 54
f 54 72 73
f 54 73 74
f 54 74 55
f 55 74 56
f 56 74 73
f 56 73 75
f 56 75 57
f 57 76 58
f 57 75 77
f 57 77 78
f 57 78 76
f 58 76 79
f 58 79 80
f 58 80 81
f 58 81 82
f 58 82 63
f 60 67 66
f 60 66 83
f 60 83 84
f 60 84 61
f 63 82 85
f 63 85 86
f 63 86 87
f 63 87 88
f 63 88 64
f 64 88 89
f 64 89 90
f 64 90 91
f 64 91 65
f 65 91 92
f 65 92 93
f 65 93 94
f 65 94 66
f 66 94 95
f 66 95 84
f 66 84 83
f 73 77 75
f 76 78 96
f 76 96 97
f 76 97 79
f 77 96 78
f 79 97 98
f 79 98 99
f 79 99 80
f 80 99 100
f 80 100 101
f 80 101 81
f 81 101 102
f 81 102 103
f 81 103 82
f 82 103 104
f 82 104 85
f 84 95 105
f 85 104 86
f 86 90 89
f 86 89 87
f 87 89 88
f 90 93 92
f 90 92 91
f 93 105 95
f 93 95 94
f 96 98 97
f 98 100 99
f 100 102 101
f 102 104 103

