# https://github.com/mikedh/trimesh
v 6.45424107 25.05863428 4.74548038
v 6.29786009 25.05863428 4.96560957
v 6.29786009 22.22887635 4.96548306
v 6.45289296 22.51576424 4.74548038
v 4.65361381 25.05863428 4.74548038
v 6.23899260 25.05863428 5.03249537
v 6.28887275 22.21407413 4.97623023
v 5.66334912 21.45843744 4.74548038
v 4.55340417 24.92893577 4.74548038
v 2.07153136 21.76752925 5.33506211
v 2.40631232 22.20561504 5.57845589
v 2.50023076 22.32227325 5.63510027
v 2.86916384 22.75965452 5.81552770
v 2.97386715 22.87877917 5.85598793
v 3.36437003 23.30875874 5.96889731
v 3.47940886 23.43317151 5.99140342
v 3.88024730 23.86244535 6.03464510
v 4.00022920 23.98932457 6.03692111
v 4.39792202 24.41225529 6.01049539
v 4.52060015 24.54442143 5.99140342
v 4.90481184 24.96488452 5.89720663
v 4.98929346 25.05863428 5.86850520
v 5.92847773 25.05863428 5.33506211
v 5.92802832 21.67483807 5.33531498
v 5.91904083 21.66250229 5.34277495
v 5.76221058 21.45843744 5.45214396
v 2.55325639 21.45843744 4.74548038
v 4.38219407 24.68997955 4.74548038
v 1.86347285 21.45843744 5.13288733
v 1.99244210 21.65580511 5.26615333
v 2.07153136 21.45843744 5.33506211
v 2.39507803 21.45843744 5.57036366
v 2.50023076 21.45843744 5.63510027
v 2.84804338 21.45843744 5.80528613
v 2.87500569 21.45843744 5.81793007
v 2.97386715 21.45843744 5.85598793
v 3.33336347 21.45843744 5.95992025
v 3.37380686 21.45843744 5.97066727
v 3.47940886 21.45843744 5.99140342
v 3.83980395 21.45843744 6.03021976
v 3.89238029 21.45843744 6.03477176
v 4.00022920 21.45843744 6.03692111
v 4.47566310 21.45843744 5.99848386
v 4.52060015 21.45843744 5.99140342
v 4.99468596 21.45843744 5.86686160
v 5.02614187 25.05863428 5.85598793
v 5.84669226 25.05863428 5.40030431
v 5.49977833 21.45843744 5.63510027
v 3.90091834 23.87724876 4.74548038
v 4.20199653 24.41260815 4.74548038
v 1.98974589 21.45843744 5.26337158
v 5.01850256 21.45843744 5.85851666
v 5.02569252 21.45843744 5.85598793
v 5.39642298 25.05863428 5.69161799
v 5.49932891 25.05863428 5.63522663
v 5.48225278 21.45843744 5.64496245
f 1 2 3
f 1 3 4
f 1 4 8
f 1 8 27
f 1 27 49
f 1 49 50
f 1 50 28
f 1 28 9
f 1 9 5
f 1 5 22
f 1 22 46
f 1 46 54
f 1 54 55
f 1 55 47
f 1 47 23
f 1 23 6
f 1 6 2
f 2 6 7
f 2 7 3
f 3 7 8
f 3 8 4
f 5 9 10
f 5 10 11
f 5 11 12
f 5 12 13
f 5 13 14
f 5 14 15
f 5 15 16
f 5 16 17
f 5 17 18
f 5 18 19
f 5 19 20
f 5 20 21
f 5 21 22
f 6 23 24
f 6 24 7
f 7 24 8
f 8 24 25
f 8 25 26
f 8 26 48
f 8 48 56
f 8 56 53
f 8 53 52
f 8 52 45
f 8 45 44
f 8 44 43
f 8 43 42
f 8 42 41
f 8 41 40
f 8 40 39
f 8 39 38
f 8 38 37
f 8 37 36
f 8 36 35
f 8 35 34
f 8 34 33
f 8 33 32
f 8 32 31
f 8 31 51
f 8 51 29
f 8 29 27
f 9 28 29
f 9 29 30
f 9 30 10
f 10 30 31
f 10 31 32
f 10 32 11
f 11 32 33
f 11 33 12
f 12 33 34
f 12 34 13
f 13 34 35
f 13 35 14
f 14 35 36
f 14 36 15
f 15 36 37
f 15 37 38
f 15 38 39
f 15 39 16
f 16 39 17
f 17 39 40
f 17 40 41
f 17 41 42
f 17 42 18
f 18 42 19
f 19 43 20
f 19 42 43
f 20 43 44
f 20 44 21
f 21 45 22
f 21 44 45
f 22 45 46
f 23 47 25
f 23 25 24
f 25 47 26
f 26 47 48
f 27 29 49
f 28 50 29
f 29 51 30
f 29 50 49
f 30 51 31
f 45 52 46
f 46 53 54
f 46 52 53
f 47 55 48
f 48 55 56
f 53 56 54
f 54 56 55

