# https://github.com/mikedh/trimesh
v 6.41633639 34.44065034 4.79876395
v 6.29785919 34.44065034 4.96567037
v 6.36490741 32.35154212 4.87161126
v 6.41633639 32.44683623 4.79876395
v 4.28070005 34.44065034 4.79876395
v 6.29785919 32.35154212 4.96542793
v 6.21290618 34.44065034 5.06069925
v 6.26471603 32.35154212 5.00397276
v 6.32071653 32.35154212 4.79876395
v 4.25098553 34.39893365 4.79876395
v 2.52525726 32.35154212 5.64759906
v 2.80754530 32.68875241 5.78977879
v 4.28070005 34.44065034 4.79888510
v 5.92833245 34.44065034 5.33511918
v 5.92833245 32.35154212 5.33524033
v 3.14621472 32.35154212 4.79876395
v 4.22546150 34.35905755 4.79876395
v 2.80525962 32.35154212 5.78747567
v 4.21479476 34.34167504 4.79876395
v 4.00298351 33.97890329 4.79876395
v 3.91117325 33.81142318 4.79876395
v 3.90088746 33.79199624 4.79876395
v 2.82049769 32.35154212 5.79499062
v 2.96487981 32.35154212 5.85244443
v 2.97402287 32.87852228 5.85595962
v 3.29973975 33.23822677 5.95401850
v 3.47916977 33.43331397 5.99147256
v 3.81402963 33.79199624 6.03122946
v 4.00031684 33.98933291 6.03692647
v 4.42432025 34.44065034 6.00529041
v 5.81442678 34.44065034 5.42469349
v 5.87461764 32.35154212 5.37826996
v 2.97402287 32.35154212 5.85595962
v 3.32945423 32.35154212 5.96044268
v 3.47916977 32.35154212 5.99147256
v 3.86317284 32.35154212 6.03304770
v 3.99536440 32.35154212 6.03680518
v 4.00031684 32.35154212 6.03692647
v 4.33212904 34.34167504 6.01850238
v 4.40146291 32.35154212 6.00904789
v 4.52070200 34.44065034 5.99147256
v 5.49975747 34.44065034 5.63523557
v 5.49975747 32.35154212 5.63511427
v 4.52070200 32.35154212 5.99147256
v 4.86089522 34.44065034 5.91014054
v 5.35728016 34.44065034 5.71159806
v 5.42356634 32.35154212 5.67668941
v 4.92908621 32.35154212 5.88832255
v 5.02622986 34.44065034 5.85595962
v 5.02584898 32.35154212 5.85608061
f 1 2 3
f 1 3 4
f 1 4 9
f 1 9 16
f 1 16 22
f 1 22 21
f 1 21 20
f 1 20 19
f 1 19 17
f 1 17 10
f 1 10 5
f 1 5 13
f 1 13 30
f 1 30 41
f 1 41 45
f 1 45 49
f 1 49 46
f 1 46 42
f 1 42 31
f 1 31 14
f 1 14 7
f 1 7 2
f 2 6 3
f 2 7 8
f 2 8 6
f 3 6 8
f 3 8 15
f 3 15 32
f 3 32 43
f 3 43 47
f 3 47 50
f 3 50 48
f 3 48 44
f 3 44 40
f 3 40 38
f 3 38 37
f 3 37 36
f 3 36 35
f 3 35 34
f 3 34 33
f 3 33 24
f 3 24 23
f 3 23 18
f 3 18 11
f 3 11 16
f 3 16 9
f 3 9 4
f 5 10 11
f 5 11 12
f 5 12 13
f 7 14 15
f 7 15 8
f 10 17 11
f 11 18 12
f 11 17 19
f 11 19 20
f 11 20 21
f 11 21 22
f 11 22 16
f 12 18 23
f 12 23 24
f 12 24 25
f 12 25 13
f 13 25 26
f 13 26 27
f 13 27 28
f 13 28 29
f 13 29 30
f 14 31 32
f 14 32 15
f 24 33 25
f 25 33 26
f 26 33 34
f 26 34 27
f 27 35 28
f 27 34 35
f 28 35 36
f 28 36 29
f 29 36 37
f 29 37 38
f 29 38 39
f 29 39 30
f 30 39 40
f 30 40 41
f 31 42 43
f 31 43 32
f 38 40 39
f 40 44 41
f 41 44 45
f 42 46 47
f 42 47 43
f 44 48 45
f 45 48 49
f 46 49 50
f 46 50 47
f 48 50 49

