# https://github.com/mikedh/trimesh
v 5.89338641 1.97635718 12.45362072
v 5.89338641 1.97635718 9.01023202
v 5.89338641 2.50372742 12.44662107
v 4.27448503 2.50372742 13.40732207
v 4.13966713 2.50372742 13.47775641
v 3.82817270 1.97635718 13.45019497
v 5.89338641 2.50372742 9.01023202
v 3.11657363 1.97635718 9.01023202
v 4.11466059 2.50372742 13.47250648
v 3.99587960 2.43026934 13.46113196
v 4.01789618 2.35531419 13.47906859
v 3.92928612 2.21701890 13.47863147
v 3.83523978 2.03370919 13.45238261
v 3.79419643 1.97635718 13.36357451
v 3.67894893 2.50372742 9.01023202
v 3.80398153 2.04873122 13.36269986
v 3.87111869 2.26466600 13.36532422
v 3.84964574 2.35965046 12.96984448
v 3.88362191 2.50372742 12.78610369
v 3.86459529 2.50372742 12.60061319
v 3.28591138 2.18341297 9.01023202
v 4.05431877 2.50372742 13.45719461
v 3.89313532 2.23007927 13.46550684
v 3.98256090 2.48065241 13.35657487
v 3.59577496 2.44534294 9.01023202
v 3.97250391 2.50372742 13.24370555
v 3.91324921 2.50372742 12.94053333
v 3.86242076 2.31618472 13.16977179
v 3.57457381 2.42815283 9.01023202
v 4.00947009 2.50372742 13.37144921
v 4.00104399 2.50372742 13.35482516
f 1 2 7
f 1 7 3
f 1 3 4
f 1 4 5
f 1 5 6
f 1 6 14
f 1 14 8
f 1 8 2
f 2 8 21
f 2 21 29
f 2 29 25
f 2 25 15
f 2 15 7
f 3 7 15
f 3 15 20
f 3 20 19
f 3 19 27
f 3 27 26
f 3 26 31
f 3 31 30
f 3 30 22
f 3 22 9
f 3 9 5
f 3 5 4
f 5 9 10
f 5 10 11
f 5 11 12
f 5 12 6
f 6 12 13
f 6 13 14
f 8 14 16
f 8 16 17
f 8 17 18
f 8 18 19
f 8 19 20
f 8 20 21
f 9 22 10
f 10 17 23
f 10 23 12
f 10 12 11
f 10 22 24
f 10 24 17
f 12 23 13
f 13 23 16
f 13 16 14
f 15 25 20
f 16 23 17
f 17 24 26
f 17 26 27
f 17 27 19
f 17 19 28
f 17 28 18
f 18 28 19
f 20 25 29
f 20 29 21
f 22 30 24
f 24 31 26
f 24 30 31

