# https://github.com/mikedh/trimesh
v 5.09737740 0.34649260 0.43072795
v 4.98396203 0.35281357 0.40389841
v 5.08079232 0.34930185 0.39529262
v 5.15735188 0.35257948 0.39377398
v 5.16070242 0.35070658 0.43579037
v 5.16321531 0.35257948 0.48590608
v 5.16489057 0.35726164 0.56639510
v 5.05398809 0.34696078 0.46363248
v 4.98412956 0.35140884 0.53349098
v 4.83268567 0.37271303 0.43781510
v 5.00724820 0.36475325 0.32847141
v 5.08062477 0.35398401 0.35631351
v 5.23692693 0.36358261 0.39883640
v 5.22553513 0.35913454 0.43477781
v 5.15232608 0.35819799 0.34922677
v 5.22771299 0.36662615 0.35783216
v 5.27495545 0.37013766 0.47021354
v 5.16639830 0.36966949 0.67978865
v 4.91276330 0.36662615 0.64283427
v 4.86066258 0.39120776 0.78356384
v 4.68576503 0.41953518 0.53045369
v 4.80990210 0.42445162 0.27025639
v 5.12485174 0.40876614 0.18622360
v 5.14361471 0.37224465 0.28999879
v 5.33945308 0.38886668 0.41250421
v 5.29254569 0.38910077 0.33049654
v 5.35134749 0.39378293 0.54057772
v 5.46560046 0.45605647 0.77698318
v 5.23206866 1.05795612 5.17198862
v 4.82900010 0.42562206 0.94251716
v 4.59814868 0.46752797 0.67320799
v 4.55023614 0.52839678 0.37453766
v 4.75964415 0.53752720 0.11130308
v 5.09922021 0.49093914 0.06422466
v 5.41349975 0.56749344 0.11535293
v 5.44315195 0.47759474 0.27784962
v 5.48067784 0.44271227 0.45047075
v 5.42020084 0.42585615 0.64485940
v 5.62156760 0.51926656 0.54108421
v 5.49743053 0.49210958 0.92429301
v 5.71638758 1.22183390 5.17198862
v 4.78259527 1.22253626 5.17198862
v 4.55827738 0.51833001 0.83975413
v 4.44251665 0.61759322 0.52640383
v 4.53063554 0.66020139 0.22570879
v 4.81291757 0.61642258 0.03283878
v 5.08699080 0.60167365 0.00044074
v 5.33526496 0.62883043 0.03435743
v 5.61721188 0.72762546 0.22419014
v 5.68556262 0.63046924 0.38263697
v 5.70985400 0.59277731 0.66662692
v 5.99263863 1.65517352 5.17198862
v 5.75575623 0.65388042 0.80583744
v 5.78524088 0.71030116 0.95871577
v 4.76785294 1.24992723 5.17198862
v 4.40850878 0.70093665 0.70307441
v 4.54085464 0.57662366 1.01794376
v 4.43481041 0.79458115 0.37959968
v 4.71474707 0.73979922 0.10472241
v 5.08414284 0.75150471 0.04751916
v 5.41718537 0.76414675 0.09712878
v 5.71571738 0.90110168 0.38719291
v 5.79277957 0.76180567 0.52286046
v 6.00587324 1.67741407 5.17198862
v 5.80701939 0.77093589 1.12880609
v 5.84169731 0.86036641 0.67675096
v 5.87470003 0.94347581 0.83823548
v 4.57704038 1.62239796 5.17198862
v 4.39996493 0.78498256 0.88885767
v 4.41403715 0.91397781 0.56588902
v 4.65443757 0.91116850 0.25152616
v 4.64237566 1.07996257 0.43427173
v 5.07342113 0.94628517 0.19584195
v 5.46828093 0.95728834 0.26013155
v 5.48436346 1.13240348 0.45857006
v 5.75508613 1.03407682 0.56690118
v 6.03217483 1.61069241 3.13850123
v 6.03602800 1.64159508 3.29036740
v 6.10806436 2.13299427 5.17198862
v 5.90083406 1.02494645 1.01338782
v 5.78172281 1.14223611 0.74407865
v 4.58173110 2.06674084 5.17198862
v 4.49830293 1.69848407 3.61789199
v 4.40649852 1.20193444 1.88104980
v 4.40264535 1.12491187 1.68362345
v 4.39694942 0.95658603 1.27257255
v 4.39694942 0.86996491 1.07666526
v 4.41956553 1.02213715 0.76331496
v 5.06739020 1.13708568 0.39326789
v 4.42743927 1.12444369 0.96074090
v 4.68006910 1.31266900 0.86152165
v 5.09235163 1.41450732 0.80583744
v 5.07308608 1.28902378 0.59524977
v 5.49642532 1.27099723 0.65042750
v 6.02547379 1.57674630 2.97448590
v 6.03720065 2.45466294 5.17198862
v 5.99330873 2.10302804 3.85429683
v 5.80433898 1.24337212 0.93087367
v 5.82410697 1.33935765 1.13690540
v 5.91775430 1.10431015 1.20828255
v 5.51435066 1.38992565 0.85089113
v 4.71139656 2.42446252 5.17198862
v 4.49377976 1.56457253 2.01570438
v 4.47401161 1.48965698 1.82080925
v 4.48238795 1.61818397 3.26404394
v 4.41738767 1.27099723 2.06328888
v 4.46077704 1.40561111 1.60920901
v 4.44804503 1.31477604 1.38799082
v 4.43615067 1.22136567 1.16879736
v 4.70084240 1.41755076 1.08375240
v 5.12032855 1.52219843 1.03161157
v 5.53830693 1.49574387 1.06805987
v 6.01491959 1.53905442 2.79680235
v 5.95829570 1.30353867 1.83498354
v 5.96968746 1.35644775 2.02987827
v 6.01341183 2.39332575 4.84851368
v 5.75726399 2.60543050 4.86825628
v 5.98442983 2.49656875 5.17198862
v 5.93350178 1.84667640 2.77149145
v 5.56310086 1.59079297 1.29484615
v 5.84002211 1.42785167 1.35559278
v 5.85476438 1.50721532 1.57326760
v 5.87000931 1.57604398 1.78436135
v 4.97173262 2.64920931 5.17198862
v 4.57888314 1.86610761 2.94259394
v 4.78946385 1.77433606 1.96558827
v 4.76751789 1.69731352 1.76107518
v 4.56698878 1.81717840 2.76339174
v 4.51740098 1.63246475 2.19895603
v 4.47652452 1.58564254 3.11167129
v 4.74624203 1.61069241 1.54289428
v 4.72412857 1.51634564 1.31408287
v 5.14914309 1.61935452 1.26649797
v 5.88307627 1.63550819 1.98684971
v 5.67701883 2.10232573 2.93348206
v 5.37764912 2.67074738 4.89457974
v 5.36173414 2.71686727 5.07074444
v 5.75424847 2.64663395 5.04087761
v 5.28785497 2.17115438 2.92386370
v 5.75927430 2.67004512 5.17198862
v 5.89329547 1.69099252 2.18225092
v 5.91859195 1.79681074 2.57760889
v 5.66713478 2.05339649 2.74820529
v 5.17393699 1.70972141 1.49935924
v 5.58437671 1.67671175 1.52112676
v 5.60045930 1.74928619 1.74032023
v 5.62659338 1.87664261 2.14833383
v 5.63915784 1.93727739 2.34879747
v 5.65339761 1.99697574 2.55128543
v 5.16438799 2.69767028 5.17198862
v 4.88344617 2.08336272 2.93348206
v 4.86803375 2.03185826 2.75124258
v 5.19404017 1.79002152 1.72310904
v 4.81275002 1.84386705 2.15997692
v 4.83519858 1.90988640 2.35487205
v 5.35252014 2.73817146 5.17198862
v 5.27629566 2.11894761 2.73808085
v 5.22804804 1.93001994 2.13517211
v 5.24547078 1.99440047 2.33664790
v 5.26155333 2.05831283 2.54065491
v 4.85396153 1.97286225 2.55533528
f 1 2 3
f 1 3 4
f 1 4 5
f 1 5 6
f 1 6 7
f 1 7 8
f 1 8 2
f 2 8 9
f 2 9 10
f 2 10 11
f 2 11 12
f 2 12 3
f 3 12 4
f 4 13 14
f 4 14 5
f 4 12 15
f 4 15 16
f 4 16 13
f 5 14 6
f 6 14 7
f 7 9 8
f 7 14 17
f 7 17 18
f 7 18 9
f 9 18 19
f 9 19 10
f 10 19 20
f 10 20 21
f 10 21 22
f 10 22 11
f 11 22 23
f 11 23 24
f 11 24 12
f 12 24 15
f 13 25 14
f 13 16 25
f 14 25 17
f 15 24 16
f 16 24 26
f 16 26 25
f 17 25 27
f 17 27 18
f 18 27 28
f 18 28 29
f 18 29 19
f 19 29 20
f 20 30 31
f 20 31 21
f 20 29 30
f 21 32 22
f 21 31 32
f 22 32 33
f 22 33 34
f 22 34 23
f 23 34 35
f 23 35 36
f 23 36 26
f 23 26 24
f 25 37 27
f 25 26 37
f 26 36 37
f 27 37 38
f 27 38 28
f 28 38 37
f 28 37 39
f 28 39 40
f 28 40 41
f 28 41 29
f 29 41 52
f 29 52 64
f 29 64 79
f 29 79 96
f 29 96 118
f 29 118 140
f 29 140 156
f 29 156 150
f 29 150 124
f 29 124 102
f 29 102 82
f 29 82 68
f 29 68 55
f 29 55 42
f 29 42 30
f 30 42 31
f 31 43 44
f 31 44 32
f 31 42 43
f 32 45 33
f 32 44 45
f 33 45 46
f 33 46 34
f 34 46 47
f 34 47 48
f 34 48 35
f 35 49 50
f 35 50 36
f 35 48 49
f 36 50 39
f 36 39 37
f 39 50 51
f 39 51 40
f 40 51 41
f 41 51 53
f 41 53 54
f 41 54 52
f 42 55 56
f 42 56 57
f 42 57 43
f 43 57 44
f 44 58 45
f 44 57 56
f 44 56 58
f 45 59 46
f 45 58 59
f 46 59 60
f 46 60 47
f 47 60 48
f 48 60 61
f 48 61 49
f 49 61 62
f 49 62 63
f 49 63 50
f 50 63 51
f 51 63 53
f 52 54 65
f 52 65 64
f 53 63 66
f 53 66 54
f 54 66 67
f 54 67 65
f 55 68 56
f 56 69 70
f 56 70 58
f 56 68 69
f 58 71 59
f 58 70 72
f 58 72 71
f 59 71 73
f 59 73 60
f 60 73 61
f 61 73 74
f 61 74 62
f 62 74 75
f 62 75 76
f 62 76 66
f 62 66 63
f 64 77 78
f 64 78 79
f 64 65 80
f 64 80 77
f 65 67 80
f 66 76 67
f 67 76 81
f 67 81 80
f 68 82 83
f 68 83 84
f 68 84 85
f 68 85 86
f 68 86 87
f 68 87 69
f 69 87 70
f 70 87 86
f 70 86 88
f 70 88 72
f 71 72 89
f 71 89 73
f 72 88 90
f 72 90 91
f 72 91 92
f 72 92 93
f 72 93 89
f 73 89 74
f 74 89 75
f 75 93 94
f 75 94 76
f 75 89 93
f 76 94 81
f 77 80 95
f 77 95 79
f 77 79 78
f 79 95 97
f 79 97 96
f 80 81 98
f 80 98 99
f 80 99 100
f 80 100 95
f 81 101 98
f 81 94 101
f 82 102 103
f 82 103 83
f 83 103 104
f 83 104 105
f 83 105 106
f 83 106 84
f 84 106 104
f 84 104 107
f 84 107 108
f 84 108 109
f 84 109 90
f 84 90 88
f 84 88 85
f 85 88 86
f 90 109 91
f 91 109 110
f 91 110 92
f 92 110 111
f 92 111 112
f 92 112 101
f 92 101 94
f 92 94 93
f 95 113 97
f 95 100 114
f 95 114 115
f 95 115 113
f 96 116 117
f 96 117 118
f 96 97 116
f 97 113 119
f 97 119 116
f 98 112 99
f 98 101 112
f 99 120 121
f 99 121 100
f 99 112 120
f 100 121 122
f 100 122 123
f 100 123 114
f 102 124 125
f 102 125 103
f 103 126 127
f 103 127 104
f 103 125 128
f 103 128 129
f 103 129 126
f 104 106 130
f 104 130 105
f 104 127 131
f 104 131 132
f 104 132 107
f 105 130 106
f 107 132 110
f 107 110 108
f 108 110 109
f 110 132 111
f 111 132 131
f 111 131 133
f 111 133 120
f 111 120 112
f 113 115 119
f 114 123 134
f 114 134 119
f 114 119 115
f 116 119 135
f 116 135 117
f 117 136 137
f 117 137 138
f 117 138 118
f 117 135 139
f 117 139 136
f 118 138 140
f 119 134 141
f 119 141 142
f 119 142 143
f 119 143 135
f 120 144 145
f 120 145 121
f 120 133 144
f 121 145 122
f 122 146 123
f 122 145 146
f 123 146 147
f 123 147 148
f 123 148 149
f 123 149 134
f 124 150 151
f 124 151 152
f 124 152 125
f 125 152 128
f 126 153 144
f 126 144 127
f 126 129 154
f 126 154 153
f 127 144 133
f 127 133 131
f 128 152 155
f 128 155 154
f 128 154 129
f 134 149 143
f 134 143 141
f 135 143 139
f 136 139 137
f 137 139 151
f 137 151 150
f 137 150 156
f 137 156 138
f 138 156 140
f 139 143 157
f 139 157 152
f 139 152 151
f 141 143 142
f 143 149 157
f 144 153 145
f 145 153 158
f 145 158 146
f 146 158 159
f 146 159 160
f 146 160 147
f 147 160 157
f 147 157 148
f 148 157 149
f 152 157 161
f 152 161 155
f 153 154 158
f 154 155 158
f 155 161 160
f 155 160 159
f 155 159 158
f 157 160 161

