# https://github.com/mikedh/trimesh
v 2.68855713 1.53242981 8.64205705
v 2.68855713 1.21041568 8.31259090
v 2.68855713 1.61075758 8.61907957
v 0.42712733 0.53180416 6.76939972
v 0.45265477 0.36392628 6.72270373
v 0.18264112 0.18207764 6.47180546
v 2.68855713 0.97153895 7.83043636
v 0.21027434 0.09504677 6.35024764
v 2.68855713 1.83474746 8.50975181
v 0.44449659 0.72716555 6.71010322
v 0.16632476 0.31079163 6.50960698
v 0.06000344 0.09504677 6.29910444
v 2.68855713 0.84923768 7.50245262
v 0.05658225 0.03458333 6.16086949
v 0.25606598 0.04580562 6.18384687
v 2.68855713 1.84299250 8.50567513
v 0.81135716 0.96741641 6.97249020
v 0.86056999 1.17056474 6.77310575
v 0.49239361 0.89435629 6.52591351
v 0.18053575 0.45370551 6.46031675
v 0.04684493 0.27804054 6.29317478
v 0.03237062 0.16421340 6.28946875
v 0.00000040 0.10054339 6.09082549
v 2.68855713 0.77823888 7.26081941
v 0.08579420 0.00320632 5.97964458
v 2.68855713 0.73792985 7.07144122
v 0.32791171 0.02931565 6.01003403
v 2.68855713 1.92681697 8.34965124
v 2.38117314 1.99987703 7.74149155
v 1.80588089 1.69984967 7.39794255
v 1.28138079 1.41402205 7.07329423
v 1.36427964 1.57869358 6.80423641
v 0.95478529 1.31439466 6.50441851
v 0.58318772 1.01001571 6.25796749
v 0.19869457 0.55676825 6.30243984
v 0.04447623 0.27826959 6.14382172
v 0.07868850 0.29842410 5.94258425
v 0.02368579 0.08542761 5.89144101
v 0.14448142 0.00000006 5.80397876
v 2.68855713 0.71365279 6.91208190
v 0.41581088 0.03068973 5.83473879
v 2.68855713 0.70861416 6.87205677
v 2.68855713 2.16615179 7.85193128
v 2.34906645 2.10820756 7.34902294
v 1.84351454 1.84963430 7.09145379
v 1.90457027 1.93071041 6.84314973
v 1.46875871 1.67282430 6.56890346
v 1.07900211 1.40325773 6.26686196
v 0.26001341 0.63028637 6.06933052
v 0.71345735 1.09429822 6.00336319
v 0.36265022 0.69693378 5.82769731
v 0.14527099 0.33163318 5.73467593
v 0.08210969 0.09550487 5.70391590
v 0.22106415 0.00939018 5.63238945
v 0.51739480 0.04786684 5.66574380
v 2.68855713 0.68845965 6.64005925
v 2.68855713 0.69464351 6.73938087
v 2.68855713 0.69762082 6.76977032
v 2.68855713 2.27471125 7.47095136
v 2.36143539 2.17027423 7.06662339
v 1.97167879 1.96850013 6.65228914
v 2.38827884 2.19546737 6.86649772
v 1.57323777 1.72366863 6.38323132
v 1.20479807 1.45959874 6.09119608
v 0.85214848 1.15659399 5.81361435
v 0.48818285 0.75693923 5.62386562
v 0.23974921 0.37217126 5.53751513
v 0.16369314 0.11749156 5.52417335
v 0.31791107 0.03481237 5.46487692
v 0.63161139 0.07970184 5.50934932
v 2.68855713 0.68777261 6.62041728
v 2.68855713 2.32578468 7.18447516
v 2.68855713 2.33631993 7.03252789
v 2.42170154 2.20210923 6.71121504
v 2.03720839 1.98430310 6.50330672
v 2.68855713 2.33952639 6.97656685
v 2.68855713 2.33700708 6.86019747
v 1.66692663 1.74840373 6.24425517
v 1.31664595 1.49212080 5.96556168
v 0.97425993 1.19759011 5.68390333
v 0.61766332 0.80824160 5.46895359
v 0.36001860 0.42026728 5.36518465
v 0.26869824 0.15459413 5.35332542
v 0.43449595 0.07580834 5.30366458
v 0.75661737 0.12207209 5.37000250
v 2.68855713 0.68845965 6.52035446
v 2.68855713 2.33402967 6.81164847
v 2.68855713 2.32624268 6.71417986
v 2.68855713 2.30929462 6.58076275
v 2.45617694 2.19890287 6.57779793
v 2.68855713 2.28684983 6.45661072
v 2.09957992 1.98796755 6.38100769
v 1.75035193 1.75825194 6.13603907
v 2.68855713 2.25890833 6.33950012
v 1.41586117 1.50861084 5.87031667
v 1.08452868 1.22301225 5.59014078
v 0.74477468 0.84992482 5.35110179
v 0.49502563 0.47088262 5.21768469
v 0.39502044 0.20337729 5.19285427
v 0.56950298 0.12825585 5.15653511
v 0.88636075 0.17200039 5.25437433
v 2.68855713 0.68868869 6.51257178
v 2.68855713 2.22524115 6.22868986
v 1.50797130 1.51502365 5.79360178
v 1.18848130 1.23858623 5.51824374
v 2.68855713 2.18447403 6.12306798
v 0.98294476 0.91634308 5.20174869
v 0.86767569 0.88542427 5.26252768
v 0.63319012 0.52218499 5.09909171
v 0.53607987 0.26040534 5.05313686
v 0.71108905 0.18620009 5.03831272
v 1.01242003 0.22994452 5.17432405
v 2.68855713 0.69830786 6.40509691
v 2.68855713 0.69784986 6.40917353
v 2.68855713 2.13385869 6.02337571
v 1.28743360 1.24751830 5.46191211
v 1.09189770 0.94474258 5.16505904
v 1.01057757 0.68227598 4.95085047
v 0.89372977 0.62639297 4.97049246
v 0.76819714 0.57325832 5.01755898
v 0.67898216 0.31972375 4.94936812
v 0.84899062 0.25284739 4.96011558
v 1.13084696 0.30048532 5.13133410
v 2.68855713 0.72075264 6.28946875
v 2.68855713 0.71685924 6.30392224
v 2.68855713 2.06675339 5.93294860
v 1.38270179 1.25301503 5.41892216
v 1.20006107 0.97039382 5.14615823
v 1.12768870 0.73174608 4.95603891
v 1.05610629 0.53272024 4.86709411
v 0.93952141 0.45988917 4.85597606
v 0.81530459 0.38591307 4.88377138
v 0.97610238 0.33140414 4.92268456
v 1.24480022 0.38660001 5.11873360
v 2.68855713 0.76403908 6.17754661
v 2.68855713 0.75327478 6.20015340
v 2.68855713 1.97262267 5.85919862
v 1.31269812 0.98734193 5.14059921
v 1.47875915 1.25347307 5.38556781
v 1.25006346 0.76816162 4.98309286
v 1.17611236 0.59890956 4.90897239
v 1.09268726 0.41591579 4.92676123
v 2.68855713 0.83595406 6.07192473
v 2.68855713 0.81373823 6.09860815
v 2.68855713 1.78184186 5.80953778
v 1.37296447 0.79358381 5.02719467
v 1.30401369 0.66074719 4.97456913
v 1.21243001 0.50432074 4.96382146
v 2.68855713 0.90970122 6.00262196
v 2.68855713 1.45020857 5.82287946
v 1.46717978 0.80778351 5.07500247
v 1.44533644 0.73082990 5.06240197
v 2.68855713 1.13598143 5.88365835
v 1.44033612 0.66945036 5.07314943
v 1.33796264 0.59387093 5.02052388
v 2.68855713 0.94726189 5.97556796
v 2.68855713 1.41722846 5.82806790
v 2.68855713 1.08009847 5.90811818
f 1 2 7
f 1 7 13
f 1 13 24
f 1 24 26
f 1 26 40
f 1 40 42
f 1 42 58
f 1 58 57
f 1 57 56
f 1 56 71
f 1 71 86
f 1 86 102
f 1 102 114
f 1 114 113
f 1 113 125
f 1 125 124
f 1 124 136
f 1 136 135
f 1 135 144
f 1 144 143
f 1 143 149
f 1 149 156
f 1 156 158
f 1 158 153
f 1 153 157
f 1 157 150
f 1 150 145
f 1 145 137
f 1 137 126
f 1 126 115
f 1 115 106
f 1 106 103
f 1 103 94
f 1 94 91
f 1 91 89
f 1 89 88
f 1 88 87
f 1 87 77
f 1 77 76
f 1 76 73
f 1 73 72
f 1 72 59
f 1 59 43
f 1 43 28
f 1 28 16
f 1 16 9
f 1 9 3
f 1 3 4
f 1 4 5
f 1 5 6
f 1 6 2
f 2 6 8
f 2 8 7
f 3 9 10
f 3 10 4
f 4 10 11
f 4 11 6
f 4 6 5
f 6 11 12
f 6 12 8
f 7 8 13
f 8 12 14
f 8 14 15
f 8 15 13
f 9 16 10
f 10 16 17
f 10 17 18
f 10 18 19
f 10 19 20
f 10 20 11
f 11 20 21
f 11 21 22
f 11 22 12
f 12 22 23
f 12 23 14
f 13 15 24
f 14 23 25
f 14 25 15
f 15 26 24
f 15 25 27
f 15 27 26
f 16 28 29
f 16 29 30
f 16 30 31
f 16 31 17
f 17 31 18
f 18 31 32
f 18 32 33
f 18 33 19
f 19 33 34
f 19 34 35
f 19 35 20
f 20 35 21
f 21 35 36
f 21 36 23
f 21 23 22
f 23 36 37
f 23 37 38
f 23 38 25
f 25 38 39
f 25 39 27
f 26 27 40
f 27 39 41
f 27 41 42
f 27 42 40
f 28 43 29
f 29 43 44
f 29 44 45
f 29 45 30
f 30 45 31
f 31 45 32
f 32 45 46
f 32 46 47
f 32 47 33
f 33 47 48
f 33 48 34
f 34 49 35
f 34 48 50
f 34 50 51
f 34 51 49
f 35 49 36
f 36 49 37
f 37 52 38
f 37 49 52
f 38 52 53
f 38 53 39
f 39 53 54
f 39 54 41
f 41 54 55
f 41 55 56
f 41 56 57
f 41 57 58
f 41 58 42
f 43 59 44
f 44 59 60
f 44 60 45
f 45 60 46
f 46 61 47
f 46 60 62
f 46 62 61
f 47 63 48
f 47 61 63
f 48 64 50
f 48 63 64
f 49 51 52
f 50 65 66
f 50 66 51
f 50 64 65
f 51 66 67
f 51 67 52
f 52 67 53
f 53 67 68
f 53 68 54
f 54 68 69
f 54 69 55
f 55 69 70
f 55 70 71
f 55 71 56
f 59 72 60
f 60 73 62
f 60 72 73
f 61 62 74
f 61 74 75
f 61 75 63
f 62 73 76
f 62 76 77
f 62 77 74
f 63 75 78
f 63 78 64
f 64 78 79
f 64 79 80
f 64 80 65
f 65 80 81
f 65 81 66
f 66 81 82
f 66 82 67
f 67 82 83
f 67 83 68
f 68 83 69
f 69 83 84
f 69 84 70
f 70 84 85
f 70 85 86
f 70 86 71
f 74 77 87
f 74 87 88
f 74 88 89
f 74 89 90
f 74 90 75
f 75 90 91
f 75 91 92
f 75 92 78
f 78 93 79
f 78 92 94
f 78 94 93
f 79 95 96
f 79 96 80
f 79 93 95
f 80 96 97
f 80 97 81
f 81 97 98
f 81 98 82
f 82 98 99
f 82 99 83
f 83 99 84
f 84 99 100
f 84 100 85
f 85 100 101
f 85 101 102
f 85 102 86
f 89 91 90
f 91 94 92
f 93 94 103
f 93 103 95
f 95 104 105
f 95 105 96
f 95 103 106
f 95 106 104
f 96 105 107
f 96 107 108
f 96 108 97
f 97 108 109
f 97 109 98
f 98 109 110
f 98 110 99
f 99 110 100
f 100 110 111
f 100 111 101
f 101 111 112
f 101 112 113
f 101 113 114
f 101 114 102
f 104 106 115
f 104 115 105
f 105 116 117
f 105 117 107
f 105 115 116
f 107 117 118
f 107 118 119
f 107 119 108
f 108 119 120
f 108 120 109
f 109 120 121
f 109 121 110
f 110 121 111
f 111 121 122
f 111 122 112
f 112 122 123
f 112 123 124
f 112 124 125
f 112 125 113
f 115 126 127
f 115 127 116
f 116 127 117
f 117 128 118
f 117 127 128
f 118 129 130
f 118 130 131
f 118 131 119
f 118 128 129
f 119 131 132
f 119 132 120
f 120 132 121
f 121 132 122
f 122 132 133
f 122 133 123
f 123 133 134
f 123 134 135
f 123 135 136
f 123 136 124
f 126 137 138
f 126 138 128
f 126 128 139
f 126 139 127
f 127 139 128
f 128 138 129
f 129 140 130
f 129 138 140
f 130 140 141
f 130 141 142
f 130 142 131
f 131 142 133
f 131 133 132
f 133 142 134
f 134 142 143
f 134 143 144
f 134 144 135
f 137 145 146
f 137 146 140
f 137 140 138
f 140 146 141
f 141 146 147
f 141 147 148
f 141 148 142
f 142 148 149
f 142 149 143
f 145 150 147
f 145 147 151
f 145 151 146
f 146 151 147
f 147 150 152
f 147 152 153
f 147 153 154
f 147 154 155
f 147 155 148
f 148 155 156
f 148 156 149
f 150 157 152
f 152 157 153
f 153 158 155
f 153 155 154
f 155 158 156

