# https://github.com/mikedh/trimesh
v 8.33578303 1.97635718 11.15240277
v 8.28867759 1.97635718 12.55690394
v 8.31604346 1.83145930 11.61052725
v 8.33511000 1.96485942 11.15240277
v 6.04420775 1.97635718 11.15240277
v 8.28643430 1.97635718 12.60864999
v 8.22026213 1.61848942 11.15240277
v 8.31626807 1.82610236 11.39664380
v 8.27948063 1.97635718 12.75675826
v 8.25346042 1.91912968 13.14910796
v 8.20568196 1.68342563 13.17256632
v 8.30908979 1.82218270 11.15240277
v 6.04420775 1.97635718 12.43363355
v 6.04420775 0.83206884 11.15240277
v 8.09038527 1.44406319 11.15240277
v 8.22676718 1.63260031 11.15240277
v 8.08612330 1.47293825 13.20085402
v 8.26355421 1.97635718 12.97133167
v 8.24583372 1.97635718 13.14220833
v 8.23102914 1.89953125 13.35356218
v 8.18571798 1.67741545 13.36621137
v 6.04420775 1.62044928 12.60864999
v 6.04443206 0.78124351 13.46533344
v 8.06414064 1.97635718 13.40806808
v 6.04420775 0.74139327 12.60864999
v 6.26941743 0.85950668 11.15240277
v 6.24788339 0.66169301 13.26409919
v 6.04443206 0.64980324 13.16796643
v 6.04443206 0.64157187 13.25949930
v 8.06885143 1.41636404 11.15240277
v 8.06929984 1.48090829 13.37977998
v 7.89097150 1.27669240 13.23742128
v 8.22003772 1.97635718 13.34689280
v 8.16754887 1.97635718 13.43750545
v 8.17405372 1.92461728 13.44026530
v 8.13121026 1.72275320 13.44808476
v 8.02735361 1.54218610 13.45912377
v 6.04443206 0.70102053 13.49960096
v 8.12694829 1.97635718 13.42761651
v 6.04443206 0.64509961 13.32711411
v 6.04443206 0.65267772 13.40967786
v 6.04443206 0.67985426 13.46027384
v 6.62876572 0.91529694 11.15240277
v 6.61104524 0.72414671 13.26225916
v 6.61755009 0.72845837 13.41013757
v 6.24922924 0.66927102 13.41289742
v 7.84453889 1.26519464 11.15240277
v 7.68931464 1.13584483 13.25145000
v 7.63054495 1.09494942 13.25558978
v 7.85867064 1.36802120 13.47476267
v 7.87998027 1.29380836 13.39748878
v 7.62987193 1.11115081 13.40599819
v 6.27569817 0.72009635 13.50190070
v 6.97106646 0.98167034 11.15240277
v 6.68708700 0.74283056 13.26064938
v 6.98026322 0.81756599 13.40254838
v 7.09264380 1.01028407 11.15240277
v 6.65164562 0.78568583 13.49638099
v 7.57805591 1.14982506 11.15240277
v 7.31875060 0.93790051 13.25512967
v 7.32615309 0.94730776 13.40300808
v 7.68931464 1.23631960 13.48166231
v 7.63166639 1.19111248 13.48396205
v 7.34880858 1.02295776 13.48419191
v 6.97084225 0.81325432 13.25489981
v 7.01458316 0.88472341 13.48626180
v 6.68708700 0.79522374 13.49523092
v 7.28644975 1.05810432 11.15240277
v 7.39165225 1.09050710 11.15240277
f 1 2 3
f 1 3 4
f 1 4 12
f 1 12 16
f 1 16 7
f 1 7 15
f 1 15 30
f 1 30 47
f 1 47 59
f 1 59 69
f 1 69 68
f 1 68 57
f 1 57 54
f 1 54 43
f 1 43 26
f 1 26 14
f 1 14 5
f 1 5 13
f 1 13 24
f 1 24 39
f 1 39 34
f 1 34 33
f 1 33 19
f 1 19 18
f 1 18 9
f 1 9 6
f 1 6 2
f 2 6 3
f 3 7 8
f 3 8 4
f 3 6 9
f 3 9 10
f 3 10 11
f 3 11 7
f 4 8 12
f 5 14 25
f 5 25 22
f 5 22 13
f 7 16 8
f 7 11 17
f 7 17 15
f 8 16 12
f 9 18 10
f 10 18 19
f 10 19 20
f 10 20 11
f 11 20 21
f 11 21 17
f 13 22 23
f 13 23 24
f 14 26 27
f 14 27 28
f 14 28 29
f 14 29 25
f 15 17 30
f 17 21 31
f 17 31 32
f 17 32 30
f 19 33 20
f 20 33 34
f 20 34 35
f 20 35 21
f 21 35 36
f 21 36 37
f 21 37 31
f 22 38 23
f 22 25 38
f 23 38 34
f 23 34 39
f 23 39 24
f 25 29 40
f 25 40 41
f 25 41 42
f 25 42 38
f 26 43 27
f 27 44 45
f 27 45 46
f 27 46 29
f 27 29 28
f 27 43 44
f 29 46 40
f 30 32 48
f 30 48 49
f 30 49 47
f 31 37 50
f 31 50 51
f 31 51 32
f 32 51 52
f 32 52 48
f 34 38 53
f 34 53 50
f 34 50 35
f 35 50 36
f 36 50 37
f 38 42 46
f 38 46 53
f 40 46 41
f 41 46 42
f 43 54 44
f 44 55 56
f 44 56 45
f 44 54 57
f 44 57 55
f 45 56 58
f 45 58 53
f 45 53 46
f 47 49 60
f 47 60 59
f 48 52 49
f 49 52 61
f 49 61 60
f 50 53 62
f 50 62 63
f 50 63 51
f 51 63 52
f 52 63 64
f 52 64 61
f 53 58 63
f 53 63 62
f 55 65 56
f 55 57 65
f 56 61 66
f 56 66 67
f 56 67 58
f 56 65 60
f 56 60 61
f 57 68 65
f 58 67 66
f 58 66 64
f 58 64 63
f 59 60 65
f 59 65 69
f 61 64 66
f 65 68 69

