# https://github.com/mikedh/trimesh
v 5.89319567 2.60282449 9.00941362
v 3.67873188 2.50377909 9.00954044
v 5.89319567 3.26157168 9.00941362
v 7.93997907 2.60282449 9.00941362
v 3.92399536 2.50377909 10.30182495
v 3.95694747 2.53747988 10.30182495
v 4.11169729 2.67995654 10.30182495
v 4.29773057 2.83026515 10.30182495
v 3.86768490 2.63581329 9.00954044
v 5.89319567 2.50377909 9.00954044
v 3.95653051 2.69253507 9.00954044
v 4.16675646 2.81143703 9.00954044
v 4.33276819 2.89513513 9.00954044
v 4.47500441 2.95937231 9.00954044
v 4.71943386 3.05288010 9.00954044
v 4.80535963 3.08278353 9.00954044
v 5.11569319 3.16925055 9.00954044
v 5.16616412 3.18151253 9.00954044
v 5.55825226 3.24614529 9.00954044
v 5.97703581 3.26560622 9.00941362
v 7.65216992 2.80914283 9.00941362
v 7.55539922 2.86879161 10.30486829
v 7.86573278 2.62568724 10.30486829
v 7.87991474 2.61065644 10.30486829
v 7.88700552 2.60282449 10.30486829
v 5.89319567 2.50377909 10.30182495
v 5.89319567 2.60282449 10.30486829
v 5.89319567 3.31141076 10.30486829
v 4.35028706 2.86262105 10.30182495
v 4.70984021 3.05200989 10.30182495
v 5.05354305 3.17842725 10.30182495
v 5.43645465 3.26481514 10.30182495
v 5.55533247 3.24741100 9.05506392
v 5.86983722 3.31188549 10.30182495
v 5.97411597 3.26813773 9.05874137
v 6.33909164 3.30112653 10.30486829
v 6.41083545 3.23601924 9.07560656
v 6.41417236 3.23230106 9.00941362
v 7.44611500 2.91269754 9.00941362
v 7.19334339 3.06743628 10.30486829
v 6.51511420 3.27082752 10.30486829
v 6.78582174 3.21671639 10.30486829
v 6.48424771 3.21821951 9.00941362
v 7.26925832 2.99868984 9.00941362
v 6.85214333 3.14108746 9.00941362
v 6.96142734 3.10501338 9.00941362
f 1 2 3
f 1 3 20
f 1 20 38
f 1 38 43
f 1 43 45
f 1 45 46
f 1 46 44
f 1 44 39
f 1 39 21
f 1 21 4
f 1 4 10
f 1 10 2
f 2 5 6
f 2 6 7
f 2 7 8
f 2 8 9
f 2 9 3
f 2 10 26
f 2 26 5
f 3 9 11
f 3 11 12
f 3 12 13
f 3 13 14
f 3 14 15
f 3 15 16
f 3 16 17
f 3 17 18
f 3 18 19
f 3 19 20
f 4 21 22
f 4 22 23
f 4 23 24
f 4 24 25
f 4 25 26
f 4 26 10
f 5 26 25
f 5 25 27
f 5 27 28
f 5 28 6
f 6 28 7
f 7 28 8
f 8 29 11
f 8 11 9
f 8 28 29
f 11 29 12
f 12 29 30
f 12 30 13
f 13 30 14
f 14 30 15
f 15 31 16
f 15 30 31
f 16 31 17
f 17 31 18
f 18 31 32
f 18 32 33
f 18 33 19
f 19 33 34
f 19 34 35
f 19 35 20
f 20 35 36
f 20 36 37
f 20 37 38
f 21 39 40
f 21 40 22
f 22 40 42
f 22 42 41
f 22 41 36
f 22 36 28
f 22 28 27
f 22 27 25
f 22 25 24
f 22 24 23
f 28 36 34
f 28 34 32
f 28 32 31
f 28 31 30
f 28 30 29
f 32 34 33
f 34 36 35
f 36 41 37
f 37 41 42
f 37 42 43
f 37 43 38
f 39 44 40
f 40 44 42
f 42 45 43
f 42 44 46
f 42 46 45

