# https://github.com/mikedh/trimesh
v 8.10449282 2.60280987 12.96901176
v 8.10305503 2.60280987 12.98849527
v 8.23238407 2.30417781 12.96901176
v 7.54742149 2.60280987 12.96901176
v 8.19356384 2.16479575 13.33058812
v 8.23008352 2.30190896 13.00600243
v 7.96660880 2.60280987 13.30220970
v 8.05992142 2.48022965 13.30526876
v 8.27997502 2.09452218 12.96901176
v 7.78465663 1.97641843 12.96901176
v 7.74835249 2.60280987 13.39463940
v 8.02527061 2.43908347 13.41153443
v 8.14554182 2.15572027 13.42861779
v 8.22030668 1.97641843 13.34705974
v 8.28112509 2.08556936 12.98007134
v 7.93397102 2.60280987 13.35666036
v 7.90018297 2.60280987 13.41106384
v 8.28177231 2.08507878 12.96901176
v 8.06452232 1.97641843 13.40833423
v 8.26379979 1.97641843 12.96901176
v 7.82304558 2.60280987 13.44753674
v 7.84454050 2.60280987 13.43854786
v 7.98587515 2.38573439 13.44405426
v 8.08918035 2.17571087 13.44979575
v 8.16775554 1.97641843 13.43784217
v 8.24611519 1.97641843 13.14248173
v 8.26365623 1.97641843 12.97136473
v 8.12721000 1.97641843 13.42786491
f 1 2 3
f 1 3 9
f 1 9 18
f 1 18 20
f 1 20 10
f 1 10 4
f 1 4 11
f 1 11 21
f 1 21 22
f 1 22 17
f 1 17 16
f 1 16 7
f 1 7 2
f 2 5 6
f 2 6 3
f 2 7 8
f 2 8 5
f 3 6 9
f 4 10 11
f 5 8 12
f 5 12 13
f 5 13 14
f 5 14 15
f 5 15 6
f 6 15 9
f 7 16 8
f 8 16 17
f 8 17 12
f 9 15 18
f 10 19 11
f 10 20 27
f 10 27 26
f 10 26 14
f 10 14 25
f 10 25 28
f 10 28 19
f 11 19 21
f 12 17 22
f 12 22 23
f 12 23 13
f 13 24 25
f 13 25 14
f 13 23 24
f 14 26 15
f 15 27 18
f 15 26 27
f 18 27 20
f 19 28 21
f 21 23 22
f 21 28 24
f 21 24 23
f 24 28 25

