# https://github.com/mikedh/trimesh
v 2.76794628 1.80614175 5.79536984
v 2.77294721 1.81699281 5.79536984
v 2.81045404 1.52325732 5.79536984
v 2.68855713 1.78216850 5.81015637
v 2.92234890 2.11148534 5.79536984
v 2.93172571 1.27847780 5.79536984
v 2.68855713 1.45058054 5.82305538
v 2.68855713 1.97269278 5.85923542
v 2.68855713 2.06681937 5.93348311
v 3.20177384 2.35172258 5.79536984
v 2.68855713 1.13615236 5.88346025
v 2.68855713 1.41752268 5.82808907
v 3.03549425 1.19621169 5.79536984
v 2.68855713 2.13369212 6.02346115
v 3.54808572 2.54451804 5.79536984
v 2.68855713 2.18441450 6.12319223
v 2.68855713 2.22504285 6.22890071
v 3.17864474 1.09047700 5.79536984
v 2.68855713 1.08038301 5.90799973
v 2.85858757 2.31361773 6.22197940
v 2.84608536 2.33860037 6.33586773
v 3.18302042 2.46830832 6.21222645
v 3.18364567 2.49127214 6.32076657
v 3.54558536 2.54855559 5.82148230
v 3.80375632 2.63561641 5.79536984
v 2.68855713 2.25885772 6.33995761
v 3.20927513 1.08139235 5.79536984
v 2.68855713 0.94739456 5.97564065
v 2.68855713 2.28686858 6.45699212
v 2.83483322 2.35853602 6.45573367
v 3.18427071 2.51171251 6.43528418
v 3.53933415 2.59852099 6.12948436
v 3.89752320 2.67498294 5.82808907
v 3.89752320 2.67271182 5.81613397
v 3.96128454 2.69088103 5.79536984
v 3.45369379 1.00997730 5.79536984
v 2.68855713 0.90979437 6.00269702
v 3.58621760 0.97591010 5.79536984
v 2.68855713 2.30932778 6.58063340
v 2.82608166 2.37443407 6.58220643
v 3.18677127 2.52811527 6.55703773
v 3.55058608 2.63157875 6.31887884
v 3.54433508 2.61517609 6.22040631
v 3.95815894 2.69643270 5.82934752
v 4.30009503 2.76835252 5.79536984
v 2.68855713 0.83610811 6.07191092
v 3.73311873 0.95875023 5.79536984
v 2.68855713 2.32598288 6.71465674
v 2.81920561 2.38654689 6.71591519
v 3.19177199 2.54123748 6.68508353
v 3.56808922 2.66211316 6.53501515
v 3.55871261 2.64747684 6.42395825
v 3.95253297 2.70804090 5.91838184
v 4.41199010 2.79838216 5.81990931
v 4.41261514 2.79383994 5.79536984
v 2.68855713 0.81364901 6.09865265
v 3.89752320 0.94285224 5.79536984
v 2.68855713 2.33380571 6.81218551
v 2.81107908 2.39462205 6.85843298
v 3.19802320 2.55158381 6.82067991
v 3.57871611 2.67447827 6.65142039
v 3.89752320 2.75977264 6.59919532
v 3.97941272 2.77592307 6.51676782
v 3.95378326 2.74311754 6.24054127
v 3.95003261 2.73378055 6.15811372
v 3.94940737 2.72545300 6.07946161
v 3.95003261 2.71712545 6.00080940
v 4.40573889 2.82210304 6.01465212
v 4.40886449 2.81200904 5.92373017
v 4.87894851 2.87661066 5.90013451
v 4.87394758 2.85945089 5.79536984
v 4.64953252 2.82790714 5.79536984
v 2.68855713 0.76418838 6.17761950
v 4.04379930 0.92872058 5.79536984
v 4.08943246 0.92544003 5.79536984
v 2.68855713 2.33683393 6.86094987
v 2.80732844 2.39638850 7.02077114
v 3.20552449 2.55940669 6.96602918
v 3.60309549 2.69416158 6.90184901
v 3.59059328 2.68482470 6.77317399
v 3.89752320 2.76179142 6.62499324
v 4.00441734 2.79787750 6.72315119
v 3.99128989 2.78727883 6.61775724
v 4.43574434 2.89225642 6.67879134
v 4.40261339 2.83850580 6.17761950
v 4.40386357 2.83068302 6.09802348
v 4.88082383 2.98638301 6.81784843
v 4.87582290 2.97578424 6.72881415
v 4.86707134 2.91976251 6.26067623
v 4.87019694 2.91093029 6.18202402
v 4.87394758 2.90134097 6.09802348
v 4.87769823 2.89023754 6.00552845
v 5.29214728 3.05476984 6.94337738
v 5.29277242 3.04265707 6.85214079
v 5.29339751 3.03130130 6.76814025
v 5.31527643 2.95938148 6.24746268
v 5.32152754 2.94726871 6.16251833
v 5.32715355 2.93263239 6.06624796
v 5.33152933 2.91395851 5.95267426
v 5.12086671 2.87408721 5.79536984
v 2.68855713 0.75358972 6.20027135
v 4.39073622 0.91660781 5.79536984
v 5.11399046 0.90222383 5.79536984
v 2.68855713 2.33935743 6.97735510
v 2.81357944 2.38503278 7.22998599
v 3.24115580 2.56369663 7.34481824
v 3.21802670 2.56521074 7.13403030
v 2.68855713 2.33607687 7.03304088
v 2.68855713 2.32573055 7.18499694
v 3.63435112 2.71081668 7.20922181
v 3.61684798 2.70299380 7.04310835
v 3.89752320 2.78450285 7.07519846
v 4.04754994 2.82790714 7.09250194
v 3.89752320 2.77920352 6.93928745
v 4.03317241 2.81831782 6.95627634
v 3.89752320 2.77314718 6.81753384
v 4.01879488 2.80797149 6.83483731
v 4.86457087 3.07748138 7.92778835
v 4.45887344 2.91345384 6.87919716
v 4.44699627 2.90260275 6.77569089
v 4.89270090 3.01944077 7.14315397
v 4.89020044 3.00833743 7.02077114
v 4.88644979 2.99723400 6.91411875
v 5.24338856 3.15141988 7.90891184
v 5.28839663 3.07950015 7.16265970
v 5.29089705 3.06688261 7.04531061
v 5.67221520 3.10776335 7.18594076
v 5.67784116 3.09337937 7.07236698
v 5.68221695 3.07924782 6.97357981
v 5.72659993 2.97275602 6.29056403
v 5.73410121 2.95887681 6.20467587
v 5.33215442 2.88948053 5.81487552
v 5.33215442 2.88519054 5.79536984
v 2.68855713 0.72078419 6.28962022
v 5.20838234 0.90121449 5.79536984
v 6.81491917 0.88481173 5.79536984
v 4.16694629 2.81099971 9.00941342
v 4.33322598 2.89477987 9.00941342
v 4.47512630 2.95912914 9.00941342
v 4.71954496 3.05275106 9.00941342
v 3.65748022 2.71434957 7.41434678
v 2.68855713 2.27450348 7.47097636
v 2.83733379 2.34718031 7.52445982
v 4.80581036 3.08278071 9.00941342
v 4.82643910 3.09312703 8.63188301
v 4.84581756 3.09060349 8.24208256
v 4.06192747 2.83699169 7.25232325
v 5.21963432 3.17186030 8.21313847
v 5.60720358 3.21551682 8.21125085
v 5.62658204 3.19002940 7.91111410
v 5.26276702 3.12845601 7.66414618
v 5.64283494 3.16378508 7.67138213
v 5.66471381 3.12315668 7.31902026
v 6.03665525 3.16504676 7.69686551
v 6.04665710 3.14056888 7.50463950
v 6.05478353 3.12038079 7.34764972
v 6.06165978 3.10246402 7.21582858
v 6.06853602 3.08606126 7.10382786
v 6.12292065 2.95584859 6.32705870
v 6.13042204 2.94095994 6.23959746
v 5.74160260 2.94121227 6.10557406
v 5.75035417 2.91774373 5.98665194
v 5.65596224 2.87661066 5.79536984
v 2.68855713 0.71699897 6.30409221
v 8.21954514 0.91887893 5.79536984
v 2.68855713 0.69832499 6.40508164
v 3.95690886 2.69214281 9.00941342
v 2.68855713 2.16599293 7.85196757
v 3.86751786 2.63536407 9.00941342
v 3.89752320 2.65454262 9.00941342
v 5.11586579 3.16908441 9.00941342
v 5.16649982 3.18144952 9.00941342
v 5.19400476 3.18195429 8.59601741
v 5.55906995 3.24605113 9.00941342
v 5.58657489 3.23419070 8.58846692
v 5.97726970 3.26573445 9.00941342
v 5.99977366 3.24478946 8.60105120
v 6.01352615 3.21930204 8.23107127
v 6.02540332 3.19230062 7.93408049
v 6.45548004 3.13325067 7.73304545
v 6.46235629 3.10776335 7.54113413
v 6.46923253 3.08530415 7.38288589
v 6.47548374 3.06612561 7.24980636
v 6.48173474 3.04820874 7.13654717
v 6.53486939 2.91824840 6.36040721
v 6.13917361 2.92102429 6.13829340
v 6.54112040 2.90285508 6.27357524
v 6.15042564 2.89326576 6.01748365
v 5.76223124 2.88468587 5.84319034
v 5.76910749 2.87004955 5.79536984
v 8.56523198 0.94386157 5.79536984
v 8.20891825 0.90979437 5.94764047
v 7.86198133 0.87648418 6.17950712
v 7.86448190 0.88430706 6.06530415
v 7.50754293 0.86260486 6.17132737
v 7.15623033 0.86462374 6.03038256
v 2.68855713 0.69782033 6.40917162
v 2.68855713 1.92676508 8.34967876
v 3.28553888 2.18315272 9.00941342
v 3.57434043 2.42818463 9.00941342
v 3.59559421 2.44509212 9.00941342
v 6.41422276 3.23217192 9.00941342
v 6.43172590 3.20996516 8.62527613
v 6.44110251 3.18498241 8.26253215
v 6.44797875 3.15999976 7.96931672
v 6.89743413 3.05905973 7.77834915
v 6.90368513 3.03432942 7.58266249
v 6.90993614 3.01212266 7.41969510
v 6.91618734 2.99269168 7.28284028
v 6.92306359 2.97527957 7.16643502
v 6.96369603 2.85566567 6.39186809
v 6.54799664 2.88216243 6.17132737
v 6.96557115 2.84077701 6.30692374
v 6.55737325 2.85213268 6.04705681
v 6.57487639 2.80898083 5.89352773
v 6.17292960 2.85162801 5.87528040
v 6.02102744 2.84380513 5.79536984
v 8.86528546 1.04656805 5.79536984
v 8.52209938 0.97616243 6.29119330
v 8.14765748 0.92644947 6.80872481
v 8.15828437 0.92215948 6.72378041
v 8.17016134 0.91887893 6.63852143
v 8.18016319 0.91559837 6.55263322
v 8.18953980 0.91282259 6.46517198
v 8.19704128 0.90979437 6.37582311
v 8.20391753 0.90676616 6.28427189
v 8.20766817 0.90525205 6.18863079
v 8.20829321 0.90575672 6.08103459
v 7.85760565 0.87345596 6.27986738
v 7.48878971 0.85225853 6.36890170
v 7.49816632 0.85654853 6.27546286
v 2.68855713 0.68873567 6.51299248
v 2.68855713 1.84323721 8.50572473
v 3.04112021 1.89522132 9.00941342
v 6.48423531 3.21804027 9.00941342
v 6.86867906 3.12492312 8.66271442
v 6.88180631 3.10549214 8.30500433
v 6.89118292 3.08404238 8.01556413
v 7.33938801 2.93338949 7.83592260
v 7.34626426 2.91042562 7.63048304
v 7.35689115 2.87181600 7.31304271
v 7.36314215 2.85617034 7.19128911
v 7.39564807 2.77289485 6.56647599
v 7.39439778 2.76481963 6.49568905
v 7.39314770 2.75523031 6.42081208
v 6.96182051 2.86702134 6.46863268
v 7.39002210 2.74261287 6.33838463
v 6.96619619 2.82033659 6.20624895
v 7.38502118 2.72469600 6.24211435
v 6.96744667 2.79106395 6.08134923
v 6.96994703 2.74816443 5.92121338
v 6.97432292 2.71233079 5.79536984
v 6.78366374 2.74538865 5.79536984
v 6.58987916 2.77567063 5.79536984
v 8.46083861 1.00644441 6.72818493
v 8.47521614 1.00038807 6.64229672
v 8.48834319 0.99458397 6.55609392
v 8.51272257 0.98221887 6.38022763
v 8.91967039 1.10107567 5.79536984
v 8.29768422 1.32743370 9.00941342
v 8.16703594 1.24617699 9.00941342
v 8.08139558 1.19444520 9.00941342
v 8.44708612 1.01300551 6.81218551
v 8.13515507 0.93174880 6.89303998
v 7.78196714 0.88481173 6.97357981
v 7.79446935 0.88026940 6.88674779
v 7.80634632 0.87648418 6.80243262
v 7.81697341 0.87396063 6.71874667
v 7.82760030 0.87244652 6.63443150
v 7.83635187 0.87168952 6.54917251
v 7.84447820 0.87168952 6.46234044
v 7.85135445 0.87219419 6.37330622
v 7.47066154 0.84771621 6.54382419
v 7.48003814 0.84948265 6.45793593
v 7.08621778 0.83333232 6.53407134
v 7.09871999 0.83661288 6.44912690
v 2.68855713 0.68848334 6.52085770
v 2.68855713 1.61107516 8.61898380
v 3.03111837 1.86443462 9.00941342
v 6.85180097 3.14082122 9.00941342
v 7.31313331 2.97502724 8.36792610
v 7.32938637 2.95635326 8.07848590
v 7.74195994 2.75068798 7.90828267
v 7.81322257 2.61568076 6.58849862
v 7.81259753 2.61012899 6.51834090
v 7.81134725 2.60281088 6.44566619
v 7.37064344 2.84178635 7.08872665
v 7.80822185 2.59322156 6.36638481
v 7.80197064 2.57934234 6.27546286
v 7.79196879 2.55814492 6.16377668
v 7.37814493 2.69819914 6.12224832
v 7.36939336 2.65782317 5.96840460
v 7.36626776 2.60356788 5.79536984
v 8.12265285 0.93856224 6.97861355
v 7.80822185 1.09729044 9.00941342
v 9.05469435 1.24239172 5.79536984
v 8.36457116 1.41146630 9.00941342
v 7.89511229 1.12732009 9.00941342
v 7.57755547 1.04480160 9.00941342
v 7.49629100 1.02713716 9.00941342
v 7.76758941 0.89112050 7.06733324
v 7.23561948 0.98701353 9.00941342
v 7.16123125 0.97666710 9.00941342
v 6.87618035 0.94739456 9.00941342
v 6.81304405 0.94184280 9.00941342
v 7.39814843 0.85856731 7.06167028
v 7.41440148 0.85377264 6.96602918
v 7.42815398 0.85023976 6.87856794
v 7.44003095 0.84847331 6.79456740
v 7.45065784 0.84721154 6.71151067
v 7.46128473 0.84695920 6.62782472
v 7.07496565 0.83156588 6.61775724
v 2.68855713 0.68772633 6.62058873
v 2.68855713 1.53259431 8.64195039
v 2.97860896 1.62142152 9.00941342
v 6.96119547 3.10473514 9.00941342
v 7.28875393 2.98865412 8.72374856
v 7.70320303 2.79106395 8.46230885
v 7.72695717 2.77264241 8.16500333
v 8.19954165 2.39638850 6.46265508
v 8.19891661 2.39058450 6.38651976
v 8.19579100 2.38175223 6.30094614
v 8.18828972 2.36863002 6.19775446
v 8.17266190 2.34945142 6.06373117
v 7.77509090 2.52533939 6.02094435
v 8.14390663 2.31816000 5.88629179
v 7.52067038 2.54451804 5.79536984
v 9.07469805 1.51619155 5.79536984
v 8.48396751 1.73043673 9.00941342
v 8.43895939 1.50508816 9.00941342
v 6.50111320 0.92165481 9.00941342
v 6.45422986 0.91913136 9.00941342
v 7.00557835 0.83837932 7.05506350
v 7.02245624 0.83484643 6.95722015
v 7.03808426 0.83257522 6.86881509
v 7.05121151 0.83131355 6.78418528
v 7.06308868 0.83131355 6.70112856
v 2.68855713 0.68873567 6.64009446
v 6.59425485 0.82475244 7.04908593
v 6.57612667 0.82929467 7.16643502
v 6.11104358 0.90752326 9.00941342
v 2.68855713 1.21059563 8.31255491
v 3.13176130 1.40414814 9.00941342
v 7.26875043 2.99849578 9.00941342
v 7.44565711 2.91244440 9.00941342
v 7.66944704 2.80342916 8.82190646
v 8.02576057 2.55435964 8.61835472
v 8.05951656 2.53568577 8.29053233
v 8.08202062 2.51448834 7.99951915
v 8.19641604 2.40421138 6.60485828
v 8.19829136 2.40067849 6.53501515
v 8.54397820 2.13621562 6.31290134
v 8.56273142 2.09180202 5.79536984
v 7.74821095 2.47158882 5.83910046
v 8.12827902 2.29443913 5.79536984
v 7.82447470 2.42465175 5.79536984
v 8.89529101 1.82456331 5.79536984
v 8.42020617 1.99818015 9.00941342
v 2.68855713 0.69479211 6.73951085
v 6.08353870 0.90676616 9.00941342
v 2.68855713 0.97162010 7.83057427
v 3.43806598 1.23684005 9.00941342
v 7.65194390 2.80872859 9.00941342
v 7.98512833 2.56975302 9.00941342
v 8.31206175 2.26087655 8.45947722
v 8.53585147 2.14378614 6.46863268
v 8.54085260 2.14075792 6.39407035
v 8.24830041 2.28863503 9.00941342
v 2.68855713 0.69782033 6.77034251
v 5.70222055 0.90399027 9.00941342
v 2.68855713 0.84923032 7.50275183
v 3.78937878 1.10965565 9.00941342
v 2.68855713 0.70867132 6.87259039
v 5.31090065 0.91004671 9.00941342
v 2.68855713 0.77832003 7.26144687
v 4.15069344 1.01981895 9.00941342
v 2.68855713 0.71371842 6.91286030
v 4.91583010 0.92745891 9.00941342
v 2.68855713 0.73794396 7.07205237
v 4.52638552 0.96177845 9.00941342
f 1 2 5
f 1 5 10
f 1 10 15
f 1 15 25
f 1 25 35
f 1 35 45
f 1 45 55
f 1 55 72
f 1 72 71
f 1 71 100
f 1 100 133
f 1 133 163
f 1 163 190
f 1 190 217
f 1 217 254
f 1 254 253
f 1 253 252
f 1 252 293
f 1 293 327
f 1 327 356
f 1 356 355
f 1 355 353
f 1 353 357
f 1 357 328
f 1 328 296
f 1 296 259
f 1 259 218
f 1 218 191
f 1 191 165
f 1 165 136
f 1 136 135
f 1 135 103
f 1 103 102
f 1 102 75
f 1 75 74
f 1 74 57
f 1 57 47
f 1 47 38
f 1 38 36
f 1 36 27
f 1 27 18
f 1 18 13
f 1 13 6
f 1 6 3
f 1 3 4
f 1 4 2
f 2 4 5
f 3 6 7
f 3 7 4
f 4 7 12
f 4 12 11
f 4 11 19
f 4 19 28
f 4 28 37
f 4 37 46
f 4 46 56
f 4 56 73
f 4 73 101
f 4 101 134
f 4 134 164
f 4 164 166
f 4 166 197
f 4 197 232
f 4 232 277
f 4 277 313
f 4 313 338
f 4 338 359
f 4 359 369
f 4 369 373
f 4 373 377
f 4 377 379
f 4 379 375
f 4 375 371
f 4 371 361
f 4 361 342
f 4 342 314
f 4 314 278
f 4 278 233
f 4 233 198
f 4 198 168
f 4 168 142
f 4 142 109
f 4 109 108
f 4 108 104
f 4 104 76
f 4 76 58
f 4 58 48
f 4 48 39
f 4 39 29
f 4 29 26
f 4 26 17
f 4 17 16
f 4 16 14
f 4 14 9
f 4 9 8
f 4 8 5
f 5 8 9
f 5 9 10
f 6 11 12
f 6 12 7
f 6 13 11
f 9 14 10
f 10 14 16
f 10 16 17
f 10 17 15
f 11 13 18
f 11 18 19
f 15 17 20
f 15 20 21
f 15 21 22
f 15 22 23
f 15 23 24
f 15 24 25
f 17 26 20
f 18 27 28
f 18 28 19
f 20 26 21
f 21 26 29
f 21 29 30
f 21 30 22
f 22 30 23
f 23 31 24
f 23 30 31
f 24 31 32
f 24 32 33
f 24 33 25
f 25 33 34
f 25 34 35
f 27 36 28
f 28 36 38
f 28 38 37
f 29 39 30
f 30 40 31
f 30 39 40
f 31 41 42
f 31 42 43
f 31 43 32
f 31 40 41
f 32 43 33
f 33 43 44
f 33 44 34
f 34 44 35
f 35 44 45
f 37 38 46
f 38 47 46
f 39 48 40
f 40 48 49
f 40 49 41
f 41 50 51
f 41 51 52
f 41 52 42
f 41 49 50
f 42 52 53
f 42 53 43
f 43 53 44
f 44 53 54
f 44 54 45
f 45 54 55
f 46 47 56
f 47 57 56
f 48 58 59
f 48 59 49
f 49 59 50
f 50 60 61
f 50 61 51
f 50 59 60
f 51 61 62
f 51 62 63
f 51 63 64
f 51 64 65
f 51 65 66
f 51 66 52
f 52 66 67
f 52 67 53
f 53 67 68
f 53 68 69
f 53 69 54
f 54 69 70
f 54 70 71
f 54 71 72
f 54 72 55
f 56 57 74
f 56 74 75
f 56 75 73
f 58 76 59
f 59 76 77
f 59 77 78
f 59 78 60
f 60 78 79
f 60 79 80
f 60 80 61
f 61 81 62
f 61 80 82
f 61 82 81
f 62 81 83
f 62 83 63
f 63 83 84
f 63 84 85
f 63 85 64
f 64 85 86
f 64 86 65
f 65 86 66
f 66 86 67
f 67 86 68
f 68 86 87
f 68 87 88
f 68 88 69
f 69 88 89
f 69 89 90
f 69 90 91
f 69 91 92
f 69 92 70
f 70 92 93
f 70 93 94
f 70 94 95
f 70 95 96
f 70 96 97
f 70 97 98
f 70 98 71
f 71 98 99
f 71 99 100
f 73 75 102
f 73 102 103
f 73 103 101
f 76 104 77
f 77 105 106
f 77 106 107
f 77 107 78
f 77 104 108
f 77 108 109
f 77 109 105
f 78 107 110
f 78 110 111
f 78 111 79
f 79 111 112
f 79 112 113
f 79 113 114
f 79 114 80
f 80 114 115
f 80 115 116
f 80 116 82
f 81 82 83
f 82 116 117
f 82 117 118
f 82 118 119
f 82 119 83
f 83 119 120
f 83 120 84
f 84 120 121
f 84 121 122
f 84 122 85
f 85 122 123
f 85 123 86
f 86 123 87
f 87 123 124
f 87 124 125
f 87 125 126
f 87 126 88
f 88 126 89
f 89 126 90
f 90 126 91
f 91 126 93
f 91 93 92
f 93 126 127
f 93 127 128
f 93 128 94
f 94 128 95
f 95 128 96
f 96 128 129
f 96 129 97
f 97 129 98
f 98 129 130
f 98 130 131
f 98 131 99
f 99 132 100
f 99 131 132
f 100 132 133
f 101 103 135
f 101 135 136
f 101 136 134
f 105 109 137
f 105 137 138
f 105 138 139
f 105 139 106
f 106 139 107
f 107 139 140
f 107 140 141
f 107 141 110
f 109 142 143
f 109 143 137
f 110 141 140
f 110 140 144
f 110 144 145
f 110 145 111
f 111 145 146
f 111 146 147
f 111 147 112
f 112 147 113
f 113 115 114
f 113 147 146
f 113 146 115
f 115 146 117
f 115 117 116
f 117 146 118
f 118 146 148
f 118 148 119
f 119 148 124
f 119 124 120
f 120 124 121
f 121 124 122
f 122 124 123
f 124 148 149
f 124 149 150
f 124 150 151
f 124 151 125
f 125 151 150
f 125 150 126
f 126 150 152
f 126 152 153
f 126 153 127
f 127 153 154
f 127 154 128
f 128 154 155
f 128 155 156
f 128 156 157
f 128 157 129
f 129 157 158
f 129 158 130
f 130 158 131
f 131 158 159
f 131 159 160
f 131 160 161
f 131 161 132
f 132 161 162
f 132 162 133
f 133 162 163
f 134 136 164
f 136 165 166
f 136 166 164
f 137 167 170
f 137 170 169
f 137 169 201
f 137 201 200
f 137 200 199
f 137 199 234
f 137 234 279
f 137 279 315
f 137 315 343
f 137 343 362
f 137 362 372
f 137 372 376
f 137 376 380
f 137 380 378
f 137 378 374
f 137 374 370
f 137 370 360
f 137 360 341
f 137 341 332
f 137 332 331
f 137 331 305
f 137 305 304
f 137 304 303
f 137 303 302
f 137 302 300
f 137 300 299
f 137 299 295
f 137 295 298
f 137 298 262
f 137 262 261
f 137 261 260
f 137 260 297
f 137 297 330
f 137 330 329
f 137 329 358
f 137 358 368
f 137 368 364
f 137 364 363
f 137 363 345
f 137 345 344
f 137 344 316
f 137 316 280
f 137 280 235
f 137 235 202
f 137 202 176
f 137 176 174
f 137 174 172
f 137 172 171
f 137 171 144
f 137 144 140
f 137 140 139
f 137 139 138
f 137 143 142
f 137 142 167
f 142 168 169
f 142 169 170
f 142 170 167
f 144 171 145
f 145 171 172
f 145 172 173
f 145 173 146
f 146 173 148
f 148 174 175
f 148 175 149
f 148 173 174
f 149 175 176
f 149 176 177
f 149 177 178
f 149 178 150
f 150 178 179
f 150 179 152
f 152 179 154
f 152 154 153
f 154 179 180
f 154 180 155
f 155 180 156
f 156 180 181
f 156 181 157
f 157 181 182
f 157 182 183
f 157 183 158
f 158 183 184
f 158 184 185
f 158 185 159
f 159 185 160
f 160 186 161
f 160 185 187
f 160 187 186
f 161 186 162
f 162 186 188
f 162 188 189
f 162 189 163
f 163 189 190
f 165 191 192
f 165 192 193
f 165 193 194
f 165 194 195
f 165 195 196
f 165 196 197
f 165 197 166
f 168 198 199
f 168 199 200
f 168 200 201
f 168 201 169
f 172 174 173
f 174 176 175
f 176 202 177
f 177 202 203
f 177 203 178
f 178 203 204
f 178 204 205
f 178 205 179
f 179 205 180
f 180 205 206
f 180 206 207
f 180 207 181
f 181 207 208
f 181 208 209
f 181 209 182
f 182 209 183
f 183 209 210
f 183 210 211
f 183 211 184
f 184 211 185
f 185 211 187
f 186 187 212
f 186 212 188
f 187 211 213
f 187 213 212
f 188 212 214
f 188 214 215
f 188 215 216
f 188 216 189
f 189 216 190
f 190 216 217
f 191 218 219
f 191 219 220
f 191 220 221
f 191 221 222
f 191 222 223
f 191 223 224
f 191 224 225
f 191 225 226
f 191 226 227
f 191 227 228
f 191 228 192
f 192 228 193
f 193 228 229
f 193 229 230
f 193 230 231
f 193 231 195
f 193 195 194
f 195 231 232
f 195 232 197
f 195 197 196
f 198 233 199
f 199 233 234
f 202 235 236
f 202 236 237
f 202 237 203
f 203 237 204
f 204 237 238
f 204 238 205
f 205 238 206
f 206 238 239
f 206 239 240
f 206 240 241
f 206 241 242
f 206 242 207
f 207 242 243
f 207 243 244
f 207 244 208
f 208 244 209
f 209 244 245
f 209 245 210
f 210 246 211
f 210 245 246
f 211 246 245
f 211 245 247
f 211 247 213
f 212 213 248
f 212 248 214
f 213 247 249
f 213 249 248
f 214 248 250
f 214 250 215
f 215 250 251
f 215 251 252
f 215 252 253
f 215 253 254
f 215 254 216
f 216 254 217
f 218 255 256
f 218 256 257
f 218 257 258
f 218 258 219
f 218 259 260
f 218 260 261
f 218 261 262
f 218 262 263
f 218 263 255
f 219 258 220
f 220 258 264
f 220 264 265
f 220 265 266
f 220 266 221
f 221 266 267
f 221 267 222
f 222 267 223
f 223 267 268
f 223 268 224
f 224 268 225
f 225 268 226
f 226 268 269
f 226 269 270
f 226 270 227
f 227 270 271
f 227 271 272
f 227 272 228
f 228 272 229
f 229 272 273
f 229 273 274
f 229 274 230
f 230 274 275
f 230 275 276
f 230 276 232
f 230 232 231
f 232 276 275
f 232 275 277
f 233 278 234
f 234 278 279
f 235 280 236
f 236 280 281
f 236 281 237
f 237 281 282
f 237 282 238
f 238 282 239
f 239 282 283
f 239 283 284
f 239 284 285
f 239 285 240
f 240 285 286
f 240 286 241
f 241 286 242
f 242 286 287
f 242 287 243
f 243 287 286
f 243 286 244
f 244 286 245
f 245 286 288
f 245 288 247
f 247 288 289
f 247 289 249
f 248 249 250
f 249 289 290
f 249 290 291
f 249 291 250
f 250 291 251
f 251 291 252
f 252 291 292
f 252 292 293
f 255 294 264
f 255 264 256
f 255 263 295
f 255 295 294
f 256 264 257
f 257 264 258
f 259 296 260
f 260 296 297
f 262 298 263
f 263 298 295
f 264 294 299
f 264 299 300
f 264 300 301
f 264 301 265
f 265 301 302
f 265 302 303
f 265 303 304
f 265 304 305
f 265 305 306
f 265 306 266
f 266 306 307
f 266 307 267
f 267 307 308
f 267 308 268
f 268 308 309
f 268 309 269
f 269 309 310
f 269 310 270
f 270 310 311
f 270 311 271
f 271 311 272
f 272 311 273
f 273 311 312
f 273 312 275
f 273 275 274
f 275 312 277
f 277 312 313
f 278 314 315
f 278 315 279
f 280 316 281
f 281 317 318
f 281 318 319
f 281 319 282
f 281 316 317
f 282 319 283
f 283 319 320
f 283 320 284
f 284 320 321
f 284 321 285
f 285 321 286
f 286 321 322
f 286 322 288
f 288 322 323
f 288 323 289
f 289 323 324
f 289 324 290
f 290 325 291
f 290 324 326
f 290 326 325
f 291 325 292
f 292 325 293
f 293 325 327
f 294 295 299
f 296 328 329
f 296 329 330
f 296 330 297
f 300 302 301
f 305 331 306
f 306 331 307
f 307 331 332
f 307 332 333
f 307 333 308
f 308 333 334
f 308 334 335
f 308 335 309
f 309 335 336
f 309 336 310
f 310 336 311
f 311 336 337
f 311 337 312
f 312 337 313
f 313 337 336
f 313 336 335
f 313 335 334
f 313 334 339
f 313 339 340
f 313 340 341
f 313 341 338
f 314 342 343
f 314 343 315
f 316 344 317
f 317 344 318
f 318 344 345
f 318 345 346
f 318 346 347
f 318 347 348
f 318 348 319
f 319 348 349
f 319 349 350
f 319 350 351
f 319 351 320
f 320 351 352
f 320 352 353
f 320 353 321
f 321 353 322
f 322 353 323
f 323 353 324
f 324 353 326
f 325 354 327
f 325 326 355
f 325 355 356
f 325 356 354
f 326 353 355
f 327 354 356
f 328 357 358
f 328 358 329
f 332 341 340
f 332 340 333
f 333 340 339
f 333 339 334
f 338 341 360
f 338 360 359
f 342 361 362
f 342 362 343
f 345 363 346
f 346 363 364
f 346 364 347
f 347 364 365
f 347 365 357
f 347 357 348
f 348 357 366
f 348 366 367
f 348 367 349
f 349 367 350
f 350 367 352
f 350 352 351
f 352 367 357
f 352 357 353
f 357 367 366
f 357 365 368
f 357 368 358
f 359 360 370
f 359 370 369
f 361 371 372
f 361 372 362
f 364 368 365
f 369 370 373
f 370 374 373
f 371 375 376
f 371 376 372
f 373 374 377
f 374 378 377
f 375 379 380
f 375 380 376
f 377 378 379
f 378 380 379

