# https://github.com/mikedh/trimesh
v 8.12906294 2.60280997 12.65872900
v 8.10871083 2.64987800 12.65367666
v 8.09120346 2.63082245 12.98649594
v 8.10280199 2.60280997 12.98807467
v 8.12599904 2.60280997 12.44684851
v 7.85682516 2.94036494 12.97733850
v 8.10892960 2.64100879 12.44274341
v 7.86951791 2.96556736 12.63725666
v 7.96646423 2.60280997 13.30194799
v 8.02992797 2.60280997 10.79822446
v 7.54060029 3.17737345 12.99596913
v 7.82662504 2.78660359 13.29752714
v 7.86667297 2.95740071 12.42411318
v 7.54300750 3.19827308 12.43358637
v 7.54738439 3.20556165 12.65430815
v 7.93385690 2.60280997 13.35657608
v 7.88439890 2.76570396 10.79380321
v 8.01439028 2.60280997 10.70286231
v 7.14493626 3.33903803 13.02186192
v 7.50164658 3.02229488 13.31521012
v 7.15281458 3.36775308 12.68651626
v 7.48129447 2.96433805 13.43204462
v 7.80145851 2.73180794 13.41057228
v 7.56729877 3.01632363 10.78780363
v 7.20402330 3.21548456 10.78180405
v 7.15281458 3.36178173 12.46074214
v 7.89993659 2.60280997 13.41088802
v 7.88199189 2.72873446 10.60434270
v 7.99688311 2.60280997 10.61034228
v 6.96001595 3.37539288 13.03228234
v 7.06462184 3.11985566 13.45888464
v 6.96001595 3.39040896 12.89302867
v 6.96001595 3.40805949 12.69788393
v 6.96001595 3.40524943 12.47305744
v 6.96001595 3.40858633 12.59968006
v 7.06374638 3.04433611 13.50940763
v 7.47188440 2.89312129 13.47562039
v 7.77738600 2.66340125 13.44814847
v 7.56664227 2.97557818 10.59865887
v 6.96001595 3.29996104 10.78464617
v 7.20402330 3.17175344 10.58823844
v 6.96001595 3.25710809 10.58729120
v 6.79128983 3.31594311 10.58634397
v 6.78932015 3.35879605 10.78654065
v 6.77597091 3.37460251 11.03694457
v 6.96001595 3.40147348 12.39695701
v 7.84435117 2.60280997 13.43804419
v 7.88702507 2.60280997 10.30531066
v 7.86601627 2.62564147 10.30531066
v 6.70178391 3.46188914 12.71304095
v 6.68558972 3.42904692 13.04712321
v 6.96001595 3.13855988 13.46267400
v 6.96001595 3.12213877 13.47435741
v 6.96001595 3.06260129 13.51414423
v 6.71250717 3.46092315 12.48852980
v 7.82290484 2.60280997 13.44720123
v 7.55548148 2.86888476 10.30531066
v 6.96001595 3.25702028 10.58697546
v 7.19351900 3.06743103 10.30531066
v 6.78581872 3.21671387 10.30562640
v 6.51533165 3.27080695 10.30562640
v 6.33938370 3.30119045 10.30562640
v 6.33019238 3.39260426 10.60876355
v 6.32318952 3.43106660 10.81432831
v 6.72126076 3.45056120 12.31896250
v 6.96001595 2.60280997 10.30531066
v 6.21355034 3.49490698 12.72188224
v 6.23609100 3.49991234 12.50242384
v 6.18597640 3.45539094 13.05880662
v 6.57704467 3.20661534 13.47625188
v 6.57529396 3.13039323 13.53087997
v 6.27263729 3.47567571 11.82068062
v 6.26782287 3.48270096 11.99403727
v 6.25316054 3.49402890 12.33506676
v 5.89338641 3.14716567 13.52014380
v 5.89338641 3.08446680 13.49835572
v 5.89338641 3.05136116 13.48635656
v 5.89338641 2.60280997 12.56999792
v 6.96001595 3.15199542 10.30531066
v 5.89338641 3.31137689 10.30562640
v 5.89338641 3.39348244 10.63528782
v 5.89338641 3.42939815 10.84653683
v 5.89338641 2.60280997 10.30562640
v 5.89338641 3.47646608 12.72282988
v 5.89338641 3.46259160 12.84661078
v 5.89338641 3.48287657 12.57820812
v 5.89338641 3.46952894 11.88320276
v 5.89338641 3.47444640 12.05245432
v 5.89338641 3.48217411 12.39158933
v 5.89338641 3.48410588 12.50779192
v 5.89338641 3.43686224 13.06070150
v 6.07896330 3.29451664 13.36257566
v 6.06298799 3.23559381 13.47467315
v 6.05729811 3.15875704 13.52393276
v 5.89338641 3.17386093 13.50309231
v 5.89338641 3.22409025 13.47025230
f 1 2 3
f 1 3 4
f 1 4 9
f 1 9 16
f 1 16 27
f 1 27 47
f 1 47 56
f 1 56 78
f 1 78 83
f 1 83 66
f 1 66 48
f 1 48 29
f 1 29 18
f 1 18 10
f 1 10 5
f 1 5 2
f 2 6 3
f 2 5 7
f 2 7 8
f 2 8 6
f 3 9 4
f 3 6 9
f 5 10 7
f 6 11 12
f 6 12 9
f 6 8 11
f 7 10 13
f 7 13 8
f 8 13 14
f 8 14 15
f 8 15 11
f 9 12 16
f 10 17 13
f 10 18 17
f 11 19 20
f 11 20 12
f 11 15 21
f 11 21 19
f 12 20 22
f 12 22 23
f 12 23 16
f 13 17 24
f 13 24 14
f 14 24 25
f 14 25 26
f 14 26 15
f 15 26 21
f 16 23 27
f 17 18 28
f 17 28 24
f 18 29 28
f 19 30 31
f 19 31 22
f 19 22 20
f 19 21 32
f 19 32 30
f 21 33 32
f 21 26 34
f 21 34 35
f 21 35 33
f 22 31 36
f 22 36 37
f 22 37 23
f 23 37 38
f 23 38 27
f 24 28 39
f 24 39 25
f 25 40 26
f 25 39 41
f 25 41 42
f 25 42 43
f 25 43 40
f 26 40 44
f 26 44 45
f 26 45 46
f 26 46 34
f 27 38 47
f 28 29 48
f 28 48 49
f 28 49 39
f 30 32 50
f 30 50 51
f 30 51 31
f 31 52 53
f 31 53 54
f 31 54 36
f 31 51 52
f 32 33 50
f 33 35 55
f 33 55 50
f 34 46 55
f 34 55 35
f 36 54 56
f 36 56 37
f 37 56 38
f 38 56 47
f 39 49 57
f 39 57 41
f 40 43 44
f 41 58 42
f 41 57 59
f 41 59 60
f 41 60 58
f 42 58 43
f 43 60 61
f 43 61 62
f 43 62 63
f 43 63 44
f 43 58 60
f 44 63 64
f 44 64 45
f 45 64 55
f 45 55 65
f 45 65 46
f 46 65 55
f 48 66 79
f 48 79 59
f 48 59 57
f 48 57 49
f 50 67 51
f 50 55 68
f 50 68 67
f 51 67 69
f 51 69 70
f 51 70 52
f 52 70 71
f 52 71 53
f 53 71 54
f 54 71 56
f 55 64 72
f 55 72 73
f 55 73 74
f 55 74 68
f 56 71 75
f 56 75 76
f 56 76 77
f 56 77 78
f 59 79 60
f 60 79 61
f 61 79 62
f 62 80 63
f 62 79 80
f 63 81 64
f 63 80 81
f 64 82 72
f 64 81 82
f 66 83 80
f 66 80 79
f 67 84 85
f 67 85 69
f 67 68 86
f 67 86 84
f 68 74 73
f 68 73 87
f 68 87 88
f 68 88 89
f 68 89 90
f 68 90 86
f 69 91 92
f 69 92 93
f 69 93 70
f 69 85 91
f 70 93 71
f 71 93 94
f 71 94 75
f 72 82 73
f 73 82 87
f 75 94 95
f 75 95 96
f 75 96 91
f 75 91 85
f 75 85 84
f 75 84 86
f 75 86 90
f 75 90 89
f 75 89 88
f 75 88 87
f 75 87 82
f 75 82 81
f 75 81 80
f 75 80 83
f 75 83 78
f 75 78 77
f 75 77 76
f 91 96 93
f 91 93 92
f 93 96 95
f 93 95 94

