# https://github.com/mikedh/trimesh
v 8.42613236 1.97647972 9.01014915
v 6.60243622 1.97647972 9.00976162
v 6.60243622 2.60280987 9.00976162
v 8.42043038 1.99806250 9.01014915
v 8.24986140 2.32106861 12.68919789
v 8.30242041 2.07059784 12.52875052
v 8.28853686 1.97647972 12.55665432
v 5.89338641 1.97647972 9.00976162
v 5.89338641 2.60280987 9.00976162
v 7.93996213 2.60280987 9.01014915
v 7.98533137 2.56994517 9.01014915
v 8.00640469 2.54762660 9.01014915
v 8.24862180 2.28887834 9.01014915
v 8.12590185 2.60280987 12.44620169
v 8.12887684 2.60280987 12.65819348
v 8.25457218 2.31597947 12.47720610
v 8.10433273 2.60280987 12.96901176
v 8.23201147 2.30408440 12.96901176
v 8.27985969 2.09457190 12.96901176
v 8.29423924 2.07593223 12.73841717
v 8.27961169 1.97647972 12.75585699
v 5.89338641 1.97647972 12.45395259
v 5.89338641 2.60280987 12.57021890
v 7.54725757 2.60280987 12.96901176
v 8.28134728 2.08512944 12.96901176
v 8.26374495 1.97746076 12.96901176
v 8.26349695 1.97647972 12.96901176
v 7.78451670 1.97647972 12.96901176
f 1 2 3
f 1 3 4
f 1 4 5
f 1 5 6
f 1 6 7
f 1 7 21
f 1 21 27
f 1 27 28
f 1 28 22
f 1 22 8
f 1 8 2
f 2 8 9
f 2 9 3
f 3 9 23
f 3 23 24
f 3 24 17
f 3 17 15
f 3 15 14
f 3 14 10
f 3 10 11
f 3 11 12
f 3 12 13
f 3 13 4
f 4 13 14
f 4 14 15
f 4 15 16
f 4 16 5
f 5 15 17
f 5 17 18
f 5 18 19
f 5 19 20
f 5 20 6
f 5 16 15
f 6 20 7
f 7 20 21
f 8 22 23
f 8 23 9
f 10 14 11
f 11 14 12
f 12 14 13
f 17 24 28
f 17 28 27
f 17 27 26
f 17 26 25
f 17 25 19
f 17 19 18
f 19 25 20
f 20 25 21
f 21 25 26
f 21 26 27
f 22 28 23
f 23 28 24

