# https://github.com/mikedh/trimesh
v 5.33089290 2.88543431 5.79530895
v 5.65499459 2.87681692 5.79530895
v 5.32896375 2.85233572 5.64924113
v 4.87223119 2.85566516 5.77242865
v 5.12061266 2.87407501 5.79530895
v 5.76785136 2.86996215 5.79530895
v 5.35211387 2.73795955 5.17198862
v 4.85824466 2.81453673 5.62080857
v 4.53269611 2.78476758 5.67206044
v 4.53269611 2.79495180 5.71165864
v 4.64941129 2.82805039 5.79530895
v 4.87367808 2.85919049 5.79530895
v 6.02105587 2.84391421 5.79530895
v 3.58305893 2.42773380 5.17198862
v 4.42032158 2.72483764 5.53599891
v 4.53269611 2.74794789 5.55778095
v 7.00686492 2.54661454 5.17198862
v 4.41549864 2.77380005 5.69054771
v 4.41212257 2.79377673 5.79530895
v 6.59016285 2.77556266 5.79530895
v 3.18564852 2.23560537 5.17198862
v 3.55315671 2.53603866 5.74015219
v 3.96841191 2.67920468 5.72337330
v 3.98529223 2.65178569 5.59054554
v 4.00988927 2.60811132 5.42916314
v 6.78404522 2.74540186 5.79530895
v 6.97503385 2.71249915 5.79530895
v 7.36665649 2.60360680 5.79530895
v 7.20701724 2.47747962 5.17198862
v 4.29926575 2.76831623 5.79530895
v 2.91701086 1.96827068 5.17198862
v 2.92231604 2.11143674 5.79530895
v 3.20156425 2.35174416 5.79530895
v 3.54785143 2.54465605 5.79530895
v 3.80394968 2.63553021 5.79530895
v 3.96117758 2.69095573 5.79530895
v 7.37196167 2.41794134 5.17198862
v 7.52099056 2.54485188 5.79530895
v 2.81476440 1.68370122 5.17198862
v 2.76749968 1.80649892 5.79530895
v 2.77280486 1.81727065 5.79530895
v 7.69461659 2.47140827 5.79530895
v 7.69461659 2.38405938 5.62208980
v 7.58899411 2.19291015 5.17198862
v 2.81042380 1.67155854 5.17198862
v 2.83839696 1.38875174 5.17198862
v 2.81090609 1.52310456 5.79530895
v 7.69461659 0.94084374 5.79530895
v 7.69461659 2.21053663 5.46198873
v 7.64108172 1.89228104 5.17198862
v 3.00961114 1.17175040 5.17198862
v 2.93196182 1.27868426 5.79530895
v 7.69461659 0.95024454 5.77309987
v 7.19399504 0.90754927 5.79530895
v 6.87953943 0.97217962 5.17198862
v 7.69461659 1.94183098 5.46619877
v 7.60008675 1.66881666 5.17198862
v 7.69461659 1.56364541 5.47358140
v 7.69461659 1.39110194 5.48761466
v 7.69461659 1.16117452 5.53911060
v 3.35686290 1.07108373 5.17198862
v 3.45380418 1.01017449 5.79530895
v 3.20928108 1.08126790 5.79530895
v 3.17841418 1.09066865 5.79530895
v 3.03565515 1.19642743 5.79530895
v 7.69461659 0.96571660 5.73673544
v 6.81539420 0.88463490 5.79530895
v 7.30733415 1.10712001 5.17198862
v 5.20790792 0.90128214 5.79530895
v 5.11386057 0.90226133 5.79530895
v 4.39041936 0.91655842 5.79530895
v 4.12612211 0.94436907 5.67736864
v 7.56295010 1.50019017 5.17198862
v 7.69461659 1.04131458 5.62739810
v 7.42983715 1.27633406 5.17198862
v 4.08898546 0.92537158 5.79530895
v 4.04316760 0.92870103 5.79530895
v 3.73353469 0.95866605 5.79530895
v 3.60669139 0.97864273 5.74344696
v 3.58643505 0.97609670 5.79530895
f 1 2 3
f 1 3 4
f 1 4 5
f 1 5 12
f 1 12 11
f 1 11 19
f 1 19 30
f 1 30 36
f 1 36 35
f 1 35 34
f 1 34 33
f 1 33 32
f 1 32 41
f 1 41 40
f 1 40 47
f 1 47 52
f 1 52 65
f 1 65 64
f 1 64 63
f 1 63 62
f 1 62 80
f 1 80 78
f 1 78 77
f 1 77 76
f 1 76 71
f 1 71 70
f 1 70 69
f 1 69 67
f 1 67 54
f 1 54 48
f 1 48 42
f 1 42 38
f 1 38 28
f 1 28 27
f 1 27 26
f 1 26 20
f 1 20 13
f 1 13 6
f 1 6 2
f 2 6 7
f 2 7 3
f 3 7 4
f 4 8 9
f 4 9 10
f 4 10 11
f 4 11 12
f 4 12 5
f 4 7 8
f 6 13 7
f 7 14 15
f 7 15 16
f 7 16 8
f 7 13 17
f 7 17 29
f 7 29 37
f 7 37 44
f 7 44 50
f 7 50 57
f 7 57 73
f 7 73 75
f 7 75 68
f 7 68 55
f 7 55 61
f 7 61 51
f 7 51 46
f 7 46 45
f 7 45 39
f 7 39 31
f 7 31 21
f 7 21 14
f 8 16 9
f 9 16 15
f 9 15 18
f 9 18 10
f 10 18 19
f 10 19 11
f 13 20 17
f 14 21 22
f 14 22 23
f 14 23 24
f 14 24 25
f 14 25 15
f 15 25 18
f 17 20 26
f 17 26 27
f 17 27 28
f 17 28 29
f 18 25 24
f 18 24 23
f 18 23 30
f 18 30 19
f 21 31 32
f 21 32 33
f 21 33 34
f 21 34 22
f 22 34 35
f 22 35 23
f 23 36 30
f 23 35 36
f 28 37 29
f 28 38 37
f 31 39 40
f 31 40 41
f 31 41 32
f 37 38 42
f 37 42 43
f 37 43 44
f 39 45 40
f 40 45 46
f 40 46 47
f 42 48 53
f 42 53 66
f 42 66 74
f 42 74 60
f 42 60 59
f 42 59 58
f 42 58 56
f 42 56 49
f 42 49 43
f 43 49 44
f 44 49 50
f 46 51 52
f 46 52 47
f 48 54 55
f 48 55 53
f 49 56 50
f 50 56 58
f 50 58 59
f 50 59 60
f 50 60 57
f 51 61 62
f 51 62 63
f 51 63 64
f 51 64 65
f 51 65 52
f 53 55 66
f 54 67 55
f 55 68 66
f 55 67 69
f 55 69 70
f 55 70 71
f 55 71 72
f 55 72 61
f 57 60 73
f 60 74 75
f 60 75 73
f 61 72 76
f 61 76 77
f 61 77 78
f 61 78 79
f 61 79 80
f 61 80 62
f 66 68 74
f 68 75 74
f 71 76 72
f 78 80 79

