# https://github.com/mikedh/trimesh
v 7.13578365 0.48060884 1.04031817
v 7.13389261 0.48546914 1.11603874
v 7.03966279 0.49174696 0.98063250
v 7.13594112 0.48263397 0.98018731
v 7.23143171 0.48283651 0.96905192
v 7.27444958 0.48486164 1.00691200
v 6.99538415 0.50126501 1.01448386
v 7.32345554 0.49194949 1.07728747
v 7.13405028 0.49316459 1.22026557
v 6.92053601 0.53548947 0.93119143
v 7.01917801 0.50673279 0.92584633
v 7.13436542 0.49498718 0.91604732
v 7.34740687 0.51058052 0.92361917
v 7.24955283 0.49599975 0.91248378
v 7.13625626 0.50308760 1.34988153
v 7.13893507 0.51544081 1.49241444
v 6.94291163 0.52030110 1.07194237
v 7.44935795 0.53710954 0.96949711
v 7.36804932 0.50187260 1.18195990
v 6.81795465 0.58409228 0.95524378
v 6.96386923 0.56100592 0.83320008
v 7.02658413 0.52333880 0.86526987
v 7.13310485 0.51706098 0.85012576
v 7.24072868 0.51260565 0.85502527
v 7.30107992 0.54034976 0.82830057
v 7.42761261 0.61426649 0.80647539
v 7.40492184 0.51402328 1.31246664
v 7.43312768 0.52900912 1.45321798
v 7.13956535 0.53143921 1.63583814
v 6.87988159 0.97230674 5.17154343
v 6.86711807 0.56262599 1.28351478
v 6.89816038 0.54176729 1.16325265
v 7.64837533 0.67481744 0.93876369
v 7.55304241 0.56627118 1.07327875
v 6.72073088 0.63937788 1.03230032
v 6.65234324 0.76736510 0.89422213
v 6.84757872 0.66064153 0.79266724
v 6.86617265 0.77830068 0.68710404
v 7.13105634 0.63087239 0.71739227
v 7.12948063 0.55817076 0.78776774
v 7.43092169 0.72868540 0.69512149
v 7.63009654 0.59401530 1.20734862
v 7.68036306 0.62216437 1.34720918
v 7.45282471 0.54845018 1.59575089
v 7.30738294 1.10717938 5.17154343
v 6.44828361 1.14180887 5.17154343
v 6.82740908 0.60353334 1.55566325
v 6.84521506 0.58267465 1.41803025
v 7.46369738 0.57335913 1.73338389
v 7.75442324 0.73476079 1.09020483
v 7.62095724 0.79895694 0.81850116
v 6.65754317 0.68960065 1.14543579
v 6.70024611 0.88765697 0.79712156
v 6.56898609 0.85971032 1.02250131
v 6.92999065 0.84695215 0.64968874
v 7.13940788 0.72342015 0.64211688
v 7.37829151 0.80847499 0.64790717
v 7.80658061 0.79105895 1.24253635
v 7.71250846 0.65497121 1.49107807
v 7.42997627 1.27627650 5.17154343
v 7.72968396 0.69405597 1.63672892
v 7.73567184 0.73536829 1.77837105
v 6.41330194 1.21167533 5.17154343
v 6.57150722 0.80968998 1.53829238
v 6.59167686 0.77161789 1.40422210
v 6.61956756 0.73273566 1.27237939
v 7.70478720 0.89292223 0.97439662
v 7.44935795 0.89413732 0.72407334
v 6.86822117 0.94922043 0.73030922
v 6.62823424 1.01199900 0.93653613
v 6.53053766 0.93686723 1.15657118
v 7.15122597 0.95306816 0.67552305
v 7.14807436 0.82265069 0.62162807
v 7.83447151 0.84776218 1.39887741
v 7.73677494 0.98101476 1.14098187
v 7.56312713 1.50025421 5.17154343
v 7.84849559 0.90750310 1.55699962
v 7.85479862 0.96521884 1.71378587
v 7.73346585 0.77384555 1.91199532
v 6.24564201 1.58713163 5.17154343
v 7.49300631 1.13553100 1.03809101
v 7.48449710 1.01726431 0.86348831
v 6.82803936 1.09239608 0.86304272
v 6.60191925 1.11710250 1.08619570
v 6.81448809 1.21957327 1.02472846
v 6.50642876 1.00146839 1.29465017
v 7.14649865 1.09016842 0.81716518
v 7.75001127 1.06201934 1.31558458
v 7.49615772 1.23779934 1.22917421
v 7.82359884 1.26898611 2.71062466
v 7.81556244 1.32568928 2.90883452
v 7.81178054 1.34594045 2.97787402
v 7.60031499 1.66854125 5.17154343
v 7.85306524 1.01665676 1.86210907
v 7.75962317 1.14099879 1.49107807
v 7.78924745 1.33662491 1.96455433
v 6.24501173 1.66104832 5.17154343
v 6.47885311 1.11062209 1.58238834
v 6.48909550 1.05898169 1.43718308
v 7.14381985 1.22645869 0.99087670
v 7.14413499 1.33763748 1.18195990
v 6.58868292 1.20094224 1.23941841
v 6.81007592 1.32103153 1.19576804
v 7.50104251 1.32892949 1.41803025
v 7.14571090 1.43079276 1.37037074
v 7.84944102 1.06019674 1.99706972
v 7.77695654 1.56060263 2.72576877
v 7.77049604 1.59462456 2.83712267
v 7.80799885 1.36376145 3.03711410
v 7.64128435 1.89251895 5.17154343
v 7.78073823 1.52253046 2.59704400
v 7.50718807 1.40871899 1.60020481
v 7.52042440 1.53184600 1.92892141
v 7.52688489 1.57842363 2.07323588
v 7.53161221 1.61852090 2.20596938
v 7.53507876 1.65558052 2.33469455
v 7.53696981 1.69365267 2.46653726
v 7.53507876 1.73395246 2.60238910
v 7.51380623 1.47575030 1.77124438
v 6.26455109 2.01058316 5.17154343
v 6.54440428 1.45387906 1.84384701
v 6.27873284 2.10900372 5.17154343
v 6.57765278 1.27465643 1.39486868
v 6.80597888 1.40790896 1.36814359
v 7.15012288 1.51017727 1.55343609
v 7.72038719 1.79511093 3.44244185
v 7.53003630 1.77344221 2.73289544
v 7.46543056 2.05047790 3.58096604
v 7.76435049 1.62196361 2.92308785
v 7.71502959 1.81637464 3.50836321
v 7.70951432 1.83682829 3.57473015
v 7.70384178 1.85728195 3.64644200
v 7.69722361 1.87976073 3.72884385
v 7.58896951 2.19304600 5.17154343
v 7.68902954 1.90649225 3.83039833
v 7.15831675 1.63269672 1.89195170
v 7.15500767 1.57720857 1.72714801
v 7.16005013 1.67765426 2.04294766
v 7.46873964 2.02982174 3.51370831
v 6.80156690 1.59948483 1.86389063
v 6.80172437 1.54642682 1.70844077
v 6.80330028 1.48223068 1.54185551
v 6.40526554 2.39576003 5.17154343
v 6.64147057 2.54946624 5.17154343
v 7.10710500 2.15436631 3.63976073
v 7.46212147 2.07153913 3.65356867
v 7.10899585 2.13350761 3.56715810
v 7.45865492 2.09422037 3.73730669
v 7.45313985 2.12135693 3.84108853
v 7.44242465 2.15963161 3.98985712
v 7.37198869 2.41803625 5.17154343
v 7.67610855 1.94395687 3.97783075
v 7.65341759 2.00329273 4.21880060
v 7.42272782 2.22038505 4.23127197
v 6.80125176 1.64241726 2.00909589
v 7.00720224 2.54663107 5.17154343
v 7.05195369 2.40345548 4.56800601
v 7.05746876 2.38381178 4.49183985
v 7.07748073 2.31232525 4.21479168
v 7.09260811 2.24691406 3.97560379
v 6.71868237 2.36882595 4.52079190
v 7.10505649 2.17725013 3.72305336
v 7.10080198 2.20560169 3.82638961
v 7.39830368 2.28093600 4.49183985
v 7.38869157 2.30422479 4.59161297
v 7.20700757 2.47737211 5.17154343
f 1 2 3
f 1 3 4
f 1 4 5
f 1 5 6
f 1 6 2
f 2 7 3
f 2 6 8
f 2 8 9
f 2 9 7
f 3 10 11
f 3 11 12
f 3 12 4
f 3 7 10
f 4 12 5
f 5 13 6
f 5 12 14
f 5 14 13
f 6 13 8
f 7 9 15
f 7 15 16
f 7 16 17
f 7 17 10
f 8 13 18
f 8 18 19
f 8 19 9
f 9 19 15
f 10 17 20
f 10 20 21
f 10 21 22
f 10 22 11
f 11 22 12
f 12 22 23
f 12 23 24
f 12 24 14
f 13 14 24
f 13 24 25
f 13 25 26
f 13 26 18
f 15 19 27
f 15 27 16
f 16 27 28
f 16 28 29
f 16 29 30
f 16 30 17
f 17 31 32
f 17 32 20
f 17 30 31
f 18 26 33
f 18 33 34
f 18 34 19
f 19 34 27
f 20 32 35
f 20 35 36
f 20 36 37
f 20 37 21
f 21 37 38
f 21 38 39
f 21 39 40
f 21 40 22
f 22 40 23
f 23 40 24
f 24 40 25
f 25 40 39
f 25 39 41
f 25 41 26
f 26 41 33
f 27 34 42
f 27 42 28
f 28 42 43
f 28 43 44
f 28 44 29
f 29 44 30
f 30 45 60
f 30 60 76
f 30 76 93
f 30 93 110
f 30 110 134
f 30 134 151
f 30 151 166
f 30 166 156
f 30 156 144
f 30 144 143
f 30 143 122
f 30 122 120
f 30 120 97
f 30 97 80
f 30 80 63
f 30 63 46
f 30 46 47
f 30 47 48
f 30 48 31
f 30 44 49
f 30 49 45
f 31 48 35
f 31 35 32
f 33 50 42
f 33 42 34
f 33 41 51
f 33 51 50
f 35 52 36
f 35 48 47
f 35 47 52
f 36 53 38
f 36 38 37
f 36 52 54
f 36 54 53
f 38 55 56
f 38 56 39
f 38 53 55
f 39 56 41
f 41 56 57
f 41 57 51
f 42 50 43
f 43 50 58
f 43 58 59
f 43 59 44
f 44 59 49
f 45 49 59
f 45 59 61
f 45 61 62
f 45 62 60
f 46 63 64
f 46 64 65
f 46 65 66
f 46 66 52
f 46 52 47
f 50 51 67
f 50 67 58
f 51 57 68
f 51 68 67
f 52 66 54
f 53 69 55
f 53 54 70
f 53 70 69
f 54 66 65
f 54 65 71
f 54 71 70
f 55 69 72
f 55 72 73
f 55 73 56
f 56 73 57
f 57 73 72
f 57 72 68
f 58 74 59
f 58 67 75
f 58 75 74
f 59 74 61
f 60 62 76
f 61 74 77
f 61 77 62
f 62 77 78
f 62 78 79
f 62 79 76
f 63 80 64
f 64 71 65
f 64 80 71
f 67 81 75
f 67 68 82
f 67 82 81
f 68 72 82
f 69 70 83
f 69 83 72
f 70 71 84
f 70 84 85
f 70 85 83
f 71 80 86
f 71 86 84
f 72 83 87
f 72 87 82
f 74 75 88
f 74 88 77
f 75 81 89
f 75 89 88
f 76 90 91
f 76 91 92
f 76 92 93
f 76 79 78
f 76 78 94
f 76 94 90
f 77 95 96
f 77 96 78
f 77 88 95
f 78 96 94
f 80 97 98
f 80 98 99
f 80 99 86
f 81 82 100
f 81 100 101
f 81 101 89
f 82 87 100
f 83 85 87
f 84 86 102
f 84 102 103
f 84 103 85
f 85 100 87
f 85 103 100
f 86 99 102
f 88 89 104
f 88 104 95
f 89 101 105
f 89 105 104
f 90 106 107
f 90 107 91
f 90 94 106
f 91 107 92
f 92 107 108
f 92 108 109
f 92 109 93
f 93 109 110
f 94 96 111
f 94 111 106
f 95 104 112
f 95 112 96
f 96 113 114
f 96 114 115
f 96 115 116
f 96 116 117
f 96 117 118
f 96 118 111
f 96 112 119
f 96 119 113
f 97 120 98
f 98 121 99
f 98 120 122
f 98 122 121
f 99 121 123
f 99 123 102
f 100 103 101
f 101 103 124
f 101 124 105
f 102 123 103
f 103 123 124
f 104 105 112
f 105 124 125
f 105 125 112
f 106 111 107
f 107 126 108
f 107 111 118
f 107 118 127
f 107 127 128
f 107 128 126
f 108 126 129
f 108 129 109
f 109 129 130
f 109 130 131
f 109 131 132
f 109 132 133
f 109 133 110
f 110 133 135
f 110 135 134
f 112 125 119
f 113 136 114
f 113 119 137
f 113 137 136
f 114 136 115
f 115 136 138
f 115 138 139
f 115 139 116
f 116 139 117
f 117 139 118
f 118 139 127
f 119 125 137
f 121 140 141
f 121 141 142
f 121 142 124
f 121 124 123
f 121 122 143
f 121 143 144
f 121 144 140
f 124 142 125
f 125 142 141
f 125 141 137
f 126 130 129
f 126 128 130
f 127 139 128
f 128 145 146
f 128 146 130
f 128 139 138
f 128 138 147
f 128 147 145
f 130 146 131
f 131 146 148
f 131 148 132
f 132 148 149
f 132 149 133
f 133 149 150
f 133 150 135
f 134 135 152
f 134 152 153
f 134 153 151
f 135 150 154
f 135 154 152
f 136 137 140
f 136 140 147
f 136 147 138
f 137 141 140
f 140 144 155
f 140 155 147
f 144 156 157
f 144 157 158
f 144 158 159
f 144 159 160
f 144 160 145
f 144 145 147
f 144 147 161
f 144 161 155
f 145 160 162
f 145 162 146
f 146 162 163
f 146 163 160
f 146 160 148
f 147 155 161
f 148 160 159
f 148 159 149
f 149 159 158
f 149 158 157
f 149 157 150
f 150 157 154
f 151 164 165
f 151 165 166
f 151 153 152
f 151 152 154
f 151 154 164
f 154 157 156
f 154 156 165
f 154 165 164
f 156 166 165
f 160 163 162

