# https://github.com/mikedh/trimesh
v 4.46410750 0.91957877 11.15240277
v 4.42043519 0.93531803 11.15286248
v 4.35469450 0.96005112 11.15286248
v 4.24853367 1.01348523 11.15286248
v 4.17977302 1.04959294 11.15286248
v 4.09057008 1.10897884 11.15286248
v 4.02343555 1.15632890 11.15286248
v 3.95072580 1.21955039 11.15286248
v 3.88870187 1.27721693 11.15286248
v 3.67684487 1.70098639 11.15263262
v 3.67126971 1.73021643 11.15263262
v 4.46410750 1.97635718 11.15240277
v 4.54843217 0.88876158 11.15240277
v 4.46410750 0.91203978 11.28519594
v 4.54076628 0.88307432 11.28979100
v 4.34633171 0.95674456 11.27784426
v 4.33401984 0.95357026 11.46922304
v 4.17303635 1.04774126 11.27026273
v 4.16211826 1.04655091 11.46278997
v 4.01995105 1.15553530 11.26520838
v 4.15398780 1.04681544 11.65233073
v 4.01274978 1.15606437 11.45957364
v 4.00647766 1.15738698 11.65026285
v 3.88335899 1.28290419 11.65003340
v 3.83457613 1.34255465 11.15286248
v 4.00438700 1.15870960 11.83704658
v 3.78114731 1.41186027 11.15286248
v 3.74583779 1.47931421 11.15286248
v 3.70657923 1.56277192 11.15286248
v 3.68962129 1.63485506 11.15286248
v 3.67684487 1.70098639 11.15286248
v 3.67452184 1.81129339 11.15263262
v 3.74072718 1.58234679 12.04680517
v 3.74955456 1.58314039 12.23772424
v 3.79740823 1.64755227 13.36830586
v 3.79136843 1.70098639 13.36738685
v 3.77580443 1.84092024 13.36485967
v 3.68125856 1.91115170 11.15263262
v 3.70146862 1.97635718 11.15263262
v 6.04397558 1.97635718 11.15240277
v 4.60697160 0.87368360 11.15240277
v 4.46410750 0.90622025 11.40811026
v 4.52984822 0.87804829 11.48071007
v 4.75843081 0.82620132 11.30610293
v 4.75030033 0.82038180 11.49725185
v 4.32588933 0.95237991 11.65830410
v 4.46410750 0.89987166 11.60684112
v 4.32519246 0.95211538 11.84416881
v 4.15212942 1.04747672 11.83865475
v 3.88266207 1.28502040 11.83842530
v 4.00996215 1.15937093 12.01877595
v 3.88730813 1.28594627 12.02268185
v 3.79067161 1.42508652 11.84347965
v 3.79554984 1.42680594 12.03164170
v 3.76976463 1.86300809 13.19898293
v 3.80646788 1.42588012 12.21750641
v 3.87824848 1.46423625 13.36715700
v 3.90008456 1.48685318 13.45009537
v 3.82737486 1.65548803 13.44366230
v 3.82342582 1.70098639 13.44435186
v 3.81134622 1.83933309 13.44596002
v 3.82807178 1.97635718 13.45032522
v 3.79415600 1.97635718 13.36348096
v 3.77092609 1.97635718 13.02184821
v 6.04397558 1.97635718 12.43346822
v 6.04397558 0.83215311 11.15240277
v 4.76330910 0.83387258 11.15240277
v 4.52357612 0.87553533 11.66933182
v 4.74611894 0.81681070 11.68426543
v 5.00118367 0.78784524 11.32586145
v 5.20885931 0.68401904 13.07262242
v 4.46410750 0.89854900 11.66588563
v 4.46410750 0.89762323 11.79477331
v 4.33239372 0.95198311 12.02406016
v 4.46410750 0.89749097 11.85083133
v 4.46410750 0.89749097 11.85106119
v 4.46410750 0.89841673 11.97167818
v 4.15886609 1.04774126 12.01900581
v 3.89985228 1.28488813 12.20234335
v 4.02390014 1.15870960 12.19430210
v 3.82528421 1.41900246 12.40268197
v 3.92819281 1.32800576 12.87687845
v 4.01344670 1.29533689 13.38025259
v 4.02645545 1.33316401 13.46089324
v 4.19022651 1.19217202 13.47674587
v 4.38047971 1.06427412 13.48662513
v 6.04397558 0.70121318 13.49949087
v 6.04397558 0.78136438 13.46525884
v 5.91574631 0.81601720 11.15240277
v 6.04397558 0.64989528 13.16773738
v 5.00513275 0.79697133 11.15240277
v 4.52404072 0.87408039 11.85381822
v 4.74728044 0.81376867 11.86737312
v 4.75308792 0.81072664 12.04450744
v 4.76098610 0.80728781 12.21589824
v 5.18051879 0.68639974 13.24745901
v 5.52316040 0.64037229 13.07859579
v 5.50945473 0.63323020 13.24952689
v 4.34609939 0.95145410 12.19705914
v 4.46410750 0.89934260 12.03003353
v 4.46410750 0.90132649 12.13801423
v 4.58815535 0.86521884 12.69032457
v 4.53077741 0.87275773 12.03325027
v 4.17326867 1.04747672 12.19292379
v 3.92052689 1.27893634 12.38062653
v 4.04550399 1.15460944 12.36730108
v 3.98208628 1.24917723 12.72938110
v 3.94933206 1.26650364 12.55936901
v 4.00880069 1.23912528 12.88400068
v 4.18093454 1.12815694 13.23780961
v 4.18418671 1.14654143 13.39748353
v 4.38280270 1.01507238 13.40391620
v 4.46410750 0.99047151 13.43470245
v 4.46410750 1.02023062 13.48593597
v 5.13731111 0.76165717 13.48984146
v 5.88183063 0.68772240 13.49788270
v 6.04397558 0.67965434 13.45997463
v 5.87346790 0.62516215 13.25573011
v 5.58309362 0.78903554 11.15240277
v 6.04397558 0.64182723 13.25940615
v 5.27831681 0.78176118 11.15240277
v 4.77562097 0.80120376 12.54420595
v 4.77538866 0.80080696 12.70089259
v 5.49412295 0.65148248 13.40184873
v 5.15357205 0.70888434 13.40207818
v 4.89084146 0.76972523 13.24033719
v 4.92824166 0.75702794 13.05516163
v 5.86928648 0.63812396 13.40690309
v 4.36514794 0.94999916 12.36569291
v 4.60186102 0.86376401 12.82357745
v 4.54239237 0.87143516 12.20555968
v 4.55679495 0.86971580 12.37235543
v 4.75541091 0.80887501 12.84425458
v 4.19440788 1.04496371 12.36316573
v 4.07407684 1.14614468 12.54213807
v 4.10752792 1.13503459 12.71490719
v 4.14144365 1.12564397 12.88514914
v 4.22228380 1.03914418 12.53386738
v 4.25736105 1.03001810 12.70319031
v 4.38164118 0.99734917 13.24079649
v 4.46410750 0.97314510 13.40253789
v 4.60906231 0.89841673 13.40024057
v 4.59721503 0.95026370 13.48478711
v 4.84345238 0.84723110 13.48478711
v 4.86203634 0.79392930 13.39955141
v 5.49040618 0.70293255 13.49190934
v 6.04397558 0.65254051 13.40966012
v 5.32988729 0.78295148 11.15240277
v 6.04397558 0.64526616 13.32695160
v 4.62276798 0.87672573 13.23413397
v 4.41904141 0.93981494 12.69239204
v 4.38907477 0.94642807 12.53225881
v 4.46410750 0.92658869 12.83782151
v 4.46410750 0.95608322 13.23849917
f 1 2 3
f 1 3 4
f 1 4 5
f 1 5 6
f 1 6 7
f 1 7 8
f 1 8 9
f 1 9 10
f 1 10 11
f 1 11 12
f 1 12 40
f 1 40 66
f 1 66 89
f 1 89 119
f 1 119 148
f 1 148 121
f 1 121 91
f 1 91 67
f 1 67 41
f 1 41 13
f 1 13 2
f 2 14 3
f 2 13 15
f 2 15 14
f 3 14 16
f 3 16 4
f 4 16 17
f 4 17 5
f 5 17 18
f 5 18 6
f 6 18 19
f 6 19 7
f 7 20 8
f 7 19 21
f 7 21 20
f 8 20 22
f 8 22 23
f 8 23 9
f 9 24 25
f 9 25 10
f 9 23 26
f 9 26 24
f 10 25 27
f 10 27 28
f 10 28 29
f 10 29 30
f 10 30 31
f 10 31 11
f 11 32 12
f 11 31 33
f 11 33 34
f 11 34 35
f 11 35 36
f 11 36 37
f 11 37 32
f 12 32 38
f 12 38 39
f 12 39 64
f 12 64 63
f 12 63 62
f 12 62 65
f 12 65 40
f 13 41 15
f 14 42 16
f 14 15 43
f 14 43 42
f 15 41 44
f 15 44 45
f 15 45 43
f 16 42 17
f 17 46 19
f 17 19 18
f 17 42 43
f 17 43 47
f 17 47 46
f 19 46 21
f 20 21 22
f 21 46 48
f 21 48 49
f 21 49 23
f 21 23 22
f 23 49 26
f 24 50 25
f 24 26 50
f 25 50 27
f 26 49 51
f 26 51 52
f 26 52 50
f 27 53 28
f 27 50 53
f 28 53 29
f 29 33 30
f 29 53 54
f 29 54 33
f 30 33 31
f 32 37 55
f 32 55 38
f 33 54 34
f 34 54 56
f 34 56 35
f 35 56 57
f 35 57 58
f 35 58 59
f 35 59 36
f 36 59 37
f 37 59 60
f 37 60 61
f 37 61 62
f 37 62 63
f 37 63 64
f 37 64 55
f 38 55 64
f 38 64 39
f 40 65 88
f 40 88 87
f 40 87 117
f 40 117 147
f 40 147 149
f 40 149 120
f 40 120 90
f 40 90 66
f 41 67 44
f 43 68 47
f 43 45 69
f 43 69 68
f 44 67 70
f 44 70 71
f 44 71 45
f 45 71 69
f 46 47 72
f 46 72 73
f 46 73 48
f 47 68 72
f 48 74 49
f 48 73 75
f 48 75 76
f 48 76 77
f 48 77 74
f 49 74 78
f 49 78 51
f 50 52 53
f 51 79 52
f 51 78 80
f 51 80 79
f 52 79 56
f 52 56 54
f 52 54 53
f 56 79 81
f 56 81 57
f 57 82 83
f 57 83 58
f 57 81 82
f 58 62 61
f 58 61 60
f 58 60 59
f 58 83 84
f 58 84 85
f 58 85 62
f 62 85 86
f 62 86 87
f 62 87 88
f 62 88 65
f 66 90 89
f 67 91 70
f 68 92 73
f 68 73 72
f 68 69 93
f 68 93 94
f 68 94 95
f 68 95 92
f 69 71 96
f 69 96 93
f 70 91 97
f 70 97 98
f 70 98 71
f 71 98 96
f 73 92 75
f 74 99 78
f 74 77 100
f 74 100 101
f 74 101 102
f 74 102 99
f 75 92 76
f 76 92 103
f 76 103 77
f 77 103 100
f 78 99 104
f 78 104 80
f 79 80 105
f 79 105 82
f 79 82 81
f 80 104 106
f 80 106 107
f 80 107 105
f 82 108 107
f 82 107 83
f 82 105 108
f 83 107 109
f 83 109 110
f 83 110 111
f 83 111 84
f 84 111 85
f 85 111 86
f 86 111 112
f 86 112 113
f 86 113 114
f 86 114 115
f 86 115 116
f 86 116 87
f 87 116 117
f 89 90 118
f 89 118 119
f 90 120 118
f 91 121 97
f 92 95 96
f 92 96 122
f 92 122 123
f 92 123 103
f 93 96 94
f 94 96 95
f 96 98 124
f 96 124 125
f 96 125 126
f 96 126 127
f 96 127 122
f 97 121 118
f 97 118 98
f 98 118 128
f 98 128 124
f 99 129 104
f 99 102 130
f 99 130 129
f 100 103 101
f 101 103 131
f 101 131 132
f 101 132 102
f 102 132 133
f 102 133 126
f 102 126 130
f 103 123 133
f 103 133 131
f 104 134 135
f 104 135 106
f 104 129 134
f 105 107 108
f 106 135 109
f 106 109 107
f 109 135 136
f 109 136 110
f 110 136 137
f 110 137 138
f 110 138 139
f 110 139 140
f 110 140 112
f 110 112 111
f 112 140 141
f 112 141 142
f 112 142 113
f 113 142 143
f 113 143 114
f 114 143 115
f 115 143 144
f 115 144 145
f 115 145 125
f 115 125 146
f 115 146 116
f 116 146 124
f 116 124 128
f 116 128 147
f 116 147 117
f 118 121 148
f 118 148 119
f 118 120 149
f 118 149 147
f 118 147 128
f 122 127 123
f 123 127 126
f 123 126 133
f 124 146 125
f 125 145 126
f 126 145 150
f 126 150 130
f 129 130 151
f 129 151 152
f 129 152 138
f 129 138 134
f 130 150 153
f 130 153 151
f 131 133 132
f 134 138 136
f 134 136 135
f 136 138 137
f 138 152 139
f 139 152 151
f 139 151 140
f 140 151 153
f 140 153 154
f 140 154 142
f 140 142 141
f 142 150 145
f 142 145 144
f 142 144 143
f 142 154 150
f 150 154 153

