# https://github.com/mikedh/trimesh
v 9.21607323 0.40669766 2.23871784
v 9.12488675 0.41215537 2.20679282
v 9.14331817 0.42468793 2.14332303
v 9.24789139 0.41882596 2.19121037
v 9.32685532 0.42933712 2.23529706
v 9.24478716 0.40770831 2.29420607
v 9.10567947 0.41033610 2.27254299
v 9.02729784 0.42448580 2.16574624
v 9.02070105 0.44308245 2.10569724
v 9.16058540 0.44934878 2.08213363
v 9.25642823 0.43742261 2.13154082
v 9.40601280 0.45298722 2.30218763
v 9.27311317 0.41640030 2.37591896
v 9.31502029 0.46551977 2.12470006
v 9.08259170 0.41943235 2.35159523
v 8.96191503 0.43641196 2.19159064
v 8.89789037 0.48128661 2.08327362
v 9.04728098 0.46329624 2.05590937
v 9.16950976 0.49765973 2.02398475
v 9.58334149 0.58316410 2.30826826
v 9.47294773 0.47623316 2.40784399
v 9.28902225 0.42933712 2.47625442
v 9.28611239 0.44389107 2.58723168
v 9.42716012 0.54334290 2.14218263
v 9.18367277 0.58639828 1.97153623
v 9.46441089 0.68403093 2.07567273
v 8.16335385 0.91750026 5.79530875
v 7.69481056 0.94094823 5.79530875
v 8.88042917 0.46289198 2.24479888
v 8.76324465 0.54394929 2.09315530
v 8.97724222 0.51201156 2.00802203
v 9.60526507 0.72466065 2.23947797
v 9.64212791 0.62136815 2.44813004
v 9.50554175 0.49806399 2.52680241
v 9.27291920 0.45985994 2.70010906
v 8.84899893 0.63794351 1.95899430
v 8.91379945 0.78489777 1.91262722
v 9.21684908 0.70545751 1.94189159
v 9.43336859 0.78287637 2.06427079
v 8.22078212 0.91871309 5.79530875
v 7.69481056 2.47173888 5.79530875
v 7.69481056 0.96560908 5.73677960
v 8.49996813 0.72607556 2.36603728
v 8.54711348 0.67837110 2.26988274
v 8.63170358 0.61752749 2.17068728
v 8.80728578 0.49806399 2.33183227
v 8.60764558 0.77014169 2.04754835
v 9.65512673 0.78388712 2.38770077
v 9.48788659 0.84675203 2.17942857
v 9.66773762 0.66199787 2.57278963
v 9.51873494 0.52333124 2.64386071
v 9.52086894 0.54839635 2.76129887
v 9.25662219 0.47886095 2.81108633
v 8.56554450 0.94357602 5.79530875
v 8.70581679 0.90658479 2.00916203
v 9.00750827 0.86292303 1.94341185
v 9.23877307 0.82108043 1.98179818
v 9.22868412 0.93549052 2.09201491
v 8.66914791 1.58273621 3.20862790
v 8.68078897 1.55241552 3.12121464
v 8.70174233 1.49318912 2.95284822
v 8.71551741 1.45922994 2.86201418
v 8.40160296 1.48005014 3.09423025
v 8.42682474 1.41475958 2.93042501
v 8.44137567 1.37837476 2.84073097
v 7.69481056 2.38401099 5.62200189
v 7.82518785 2.42484284 5.79530875
v 8.80515177 1.89140084 4.66729402
v 8.89963645 1.76223471 4.10442675
v 8.91341152 1.74464871 4.03107549
v 8.92679867 1.72726483 3.95924428
v 8.94057334 1.70866815 3.88627307
v 8.97239191 1.66520849 3.72018724
v 8.98888288 1.64115408 3.62707282
v 9.00537426 1.61507828 3.53091787
v 8.56050023 1.80913070 3.92199855
v 8.57252922 1.78790624 3.84940721
v 8.58552804 1.76405395 3.77073504
v 8.62859934 1.67814533 3.49899305
v 8.64256838 1.64762249 3.40207798
v 7.69481056 1.04141081 5.62732279
v 8.45204651 0.93730974 2.28166414
v 8.50035606 0.86514656 2.16954689
v 9.50418400 0.93346912 2.32423098
v 9.66521528 0.84230497 2.51806112
v 9.67666238 0.69959554 2.69174804
v 9.51563070 0.57528073 2.87645664
v 8.86626617 1.04646426 5.79530875
v 8.61404801 1.01776066 2.15966521
v 8.86549031 1.08729611 2.18664959
v 8.92369444 0.96601334 2.03386603
v 9.20307441 1.04990062 2.24289835
v 9.06532447 1.44568668 2.98591324
v 8.73336653 1.42062157 2.76547938
v 9.07812932 1.41172750 2.89659946
v 8.46038939 1.33734074 2.74305576
v 7.69481056 2.21037453 5.46161703
v 8.48289486 1.29246614 2.63625941
v 8.53275652 1.18978003 2.39682232
v 8.33447407 1.14632040 2.73203409
v 8.12862541 2.29466606 5.79530875
v 8.69417572 2.00864085 5.21837939
v 8.70465260 1.99914039 5.17163214
v 8.74520156 1.96214912 4.98920394
v 8.78070626 1.92232797 4.80639546
v 9.33267545 1.46468764 3.65785765
v 9.34451048 1.44265461 3.56398310
v 9.35362921 1.41718523 3.46782815
v 9.01934330 1.58617256 3.43210268
v 9.03020811 1.55504331 3.33252736
v 9.05756389 1.47297532 3.06990652
v 7.69481056 1.16107648 5.53876904
v 8.41964646 0.99774899 2.39188168
v 9.17397215 1.14530970 2.38542038
v 9.48594655 1.01109012 2.45801172
v 9.66308127 0.94519316 2.74837667
v 9.67278189 0.73476755 2.80842608
v 9.50593008 0.60176075 2.98515351
v 8.92020188 1.10083936 5.79530875
v 9.49409505 0.62763438 3.08548897
v 8.83056751 1.18634372 2.32651137
v 9.38913350 1.31914834 3.12539515
v 9.39476007 1.29165757 3.04406253
v 9.09442673 1.37150207 2.80424516
v 8.75490218 1.37534269 2.66362366
v 7.69481056 1.94193532 5.46579774
v 8.38938000 1.05151771 2.50741931
v 8.36047211 1.10124362 2.62295735
v 8.77837788 1.32298896 2.55644705
v 8.80262984 1.26194332 2.44470966
v 7.69481056 1.39131158 5.48746102
v 7.69481056 1.56353311 5.47339893
v 8.56302257 2.09192168 5.79530875
v 8.62918124 2.05088771 5.47339893
v 9.04534093 1.76749029 5.22636064
v 9.05678804 1.75819194 5.17163214
v 9.09403840 1.72766912 4.99300458
v 9.12508071 1.69451851 4.80981605
v 9.31657240 1.48469931 3.74869169
v 9.48517029 1.28397633 3.99230950
v 9.54162874 1.20332329 3.60540954
v 9.55559737 1.18108815 3.51685568
v 9.56898452 1.15804438 3.43020236
v 9.58101352 1.13661776 3.34848967
v 9.59051977 1.11458475 3.27285781
v 9.38408922 1.34239418 3.20444739
v 9.05019124 1.49824256 3.15275940
v 9.15030249 1.21727080 2.50247868
v 9.13148314 1.27629510 2.60851490
v 9.46266481 1.07355072 2.57735000
v 9.65241042 0.79460031 3.01403802
v 9.66269294 0.76630112 2.91636282
v 9.40290857 1.25668774 2.95930912
v 9.05504155 1.24233592 5.79530875
v 9.16815161 1.20777030 5.41562991
v 9.11285775 1.32662745 2.70847049
v 8.89595032 1.82429105 5.79530875
v 8.90603887 1.82307822 5.74970180
v 8.97685429 1.80468367 5.49050154
v 9.24013082 1.47014538 5.19937646
v 9.28921662 1.43942040 4.96982084
v 9.49293086 1.01614357 3.98736866
v 9.50437797 1.00502597 3.92807938
v 9.60623529 0.87848763 3.33556787
v 9.61748803 0.85968875 3.26373666
v 9.64018747 0.81946339 3.10335180
v 9.41319149 1.07395498 4.36362701
v 9.07502509 1.51623283 5.79530875
v 9.23547447 1.18533302 5.15528956
v 9.17377818 1.49783828 5.46161703
v 9.28882829 1.16006578 4.92915453
f 1 2 3
f 1 3 4
f 1 4 5
f 1 5 6
f 1 6 7
f 1 7 2
f 2 7 8
f 2 8 3
f 3 8 9
f 3 9 10
f 3 10 11
f 3 11 4
f 4 11 5
f 5 12 13
f 5 13 6
f 5 11 14
f 5 14 12
f 6 13 15
f 6 15 7
f 7 16 8
f 7 15 16
f 8 17 9
f 8 16 17
f 9 17 18
f 9 18 10
f 10 18 19
f 10 19 11
f 11 19 14
f 12 14 20
f 12 20 21
f 12 21 13
f 13 21 22
f 13 22 23
f 13 23 15
f 14 24 20
f 14 19 25
f 14 25 26
f 14 26 24
f 15 23 27
f 15 27 28
f 15 28 16
f 16 28 29
f 16 29 17
f 17 29 30
f 17 30 31
f 17 31 18
f 18 31 19
f 19 31 25
f 20 32 33
f 20 33 21
f 20 24 26
f 20 26 32
f 21 33 34
f 21 34 22
f 22 34 23
f 23 34 35
f 23 35 27
f 25 31 36
f 25 36 37
f 25 37 38
f 25 38 26
f 26 38 39
f 26 39 32
f 27 40 54
f 27 54 88
f 27 88 119
f 27 119 154
f 27 154 168
f 27 168 157
f 27 157 133
f 27 133 101
f 27 101 67
f 27 67 41
f 27 41 28
f 27 35 40
f 28 41 66
f 28 66 97
f 28 97 126
f 28 126 132
f 28 132 131
f 28 131 112
f 28 112 81
f 28 81 42
f 28 42 43
f 28 43 44
f 28 44 45
f 28 45 46
f 28 46 29
f 29 46 30
f 30 45 47
f 30 47 36
f 30 36 31
f 30 46 45
f 32 48 33
f 32 39 49
f 32 49 48
f 33 48 50
f 33 50 51
f 33 51 34
f 34 51 35
f 35 51 52
f 35 52 53
f 35 53 54
f 35 54 40
f 36 47 37
f 37 47 55
f 37 55 56
f 37 56 38
f 38 56 57
f 38 57 39
f 39 57 58
f 39 58 49
f 41 59 60
f 41 60 61
f 41 61 62
f 41 62 63
f 41 63 64
f 41 64 65
f 41 65 66
f 41 67 68
f 41 68 69
f 41 69 70
f 41 70 71
f 41 71 72
f 41 72 73
f 41 73 74
f 41 74 75
f 41 75 76
f 41 76 77
f 41 77 78
f 41 78 79
f 41 79 80
f 41 80 59
f 42 81 82
f 42 82 43
f 43 82 83
f 43 83 44
f 44 83 47
f 44 47 45
f 47 83 55
f 48 49 84
f 48 84 85
f 48 85 50
f 49 58 84
f 50 85 86
f 50 86 52
f 50 52 51
f 52 86 87
f 52 87 88
f 52 88 54
f 52 54 53
f 55 83 89
f 55 89 90
f 55 90 91
f 55 91 56
f 56 91 58
f 56 58 57
f 58 91 92
f 58 92 84
f 59 93 60
f 59 80 93
f 60 93 61
f 61 93 62
f 62 94 65
f 62 65 64
f 62 64 63
f 62 93 95
f 62 95 94
f 65 94 96
f 65 96 66
f 66 96 98
f 66 98 99
f 66 99 100
f 66 100 97
f 67 101 102
f 67 102 103
f 67 103 104
f 67 104 105
f 67 105 68
f 68 105 106
f 68 106 70
f 68 70 69
f 70 106 71
f 71 106 72
f 72 106 73
f 73 106 74
f 74 106 107
f 74 107 75
f 75 107 108
f 75 108 109
f 75 109 77
f 75 77 76
f 77 109 78
f 78 109 79
f 79 109 80
f 80 109 110
f 80 110 111
f 80 111 93
f 81 112 82
f 82 113 99
f 82 99 89
f 82 89 83
f 82 112 113
f 84 92 114
f 84 114 115
f 84 115 116
f 84 116 85
f 85 116 86
f 86 116 117
f 86 117 87
f 87 117 118
f 87 118 88
f 88 118 120
f 88 120 119
f 89 99 90
f 90 99 121
f 90 121 92
f 90 92 91
f 92 121 114
f 93 111 122
f 93 122 123
f 93 123 95
f 94 124 125
f 94 125 99
f 94 99 98
f 94 98 96
f 94 95 124
f 95 123 124
f 97 100 126
f 99 113 127
f 99 127 128
f 99 128 100
f 99 125 129
f 99 129 130
f 99 130 121
f 100 128 131
f 100 131 132
f 100 132 126
f 101 133 134
f 101 134 102
f 102 135 136
f 102 136 137
f 102 137 103
f 102 134 135
f 103 137 104
f 104 137 138
f 104 138 139
f 104 139 105
f 105 139 106
f 106 139 140
f 106 140 141
f 106 141 142
f 106 142 143
f 106 143 107
f 107 143 144
f 107 144 145
f 107 145 146
f 107 146 108
f 108 146 109
f 109 146 110
f 110 146 147
f 110 147 111
f 111 147 146
f 111 146 122
f 112 131 128
f 112 128 127
f 112 127 113
f 114 121 130
f 114 130 148
f 114 148 115
f 115 148 149
f 115 149 150
f 115 150 116
f 116 151 152
f 116 152 117
f 116 150 153
f 116 153 123
f 116 123 122
f 116 122 146
f 116 146 145
f 116 145 144
f 116 144 151
f 117 152 120
f 117 120 118
f 119 120 155
f 119 155 154
f 120 152 151
f 120 151 155
f 123 153 124
f 124 156 125
f 124 153 156
f 125 156 129
f 129 156 149
f 129 149 130
f 130 149 148
f 133 157 158
f 133 158 159
f 133 159 135
f 133 135 134
f 135 159 160
f 135 160 161
f 135 161 136
f 136 161 137
f 137 161 140
f 137 140 138
f 138 140 139
f 140 161 162
f 140 162 163
f 140 163 164
f 140 164 165
f 140 165 143
f 140 143 142
f 140 142 141
f 143 165 144
f 144 165 166
f 144 166 151
f 149 156 150
f 150 156 153
f 151 166 165
f 151 165 167
f 151 167 155
f 154 155 168
f 155 167 169
f 155 169 170
f 155 170 168
f 157 168 170
f 157 170 159
f 157 159 158
f 159 170 160
f 160 170 169
f 160 169 171
f 160 171 167
f 160 167 161
f 161 167 162
f 162 167 163
f 163 167 165
f 163 165 164
f 167 171 169

