# https://github.com/mikedh/trimesh
v 5.89338641 3.14710095 13.52020348
v 5.56942379 3.12425886 13.51169810
v 4.83652479 2.93537964 13.50350725
v 4.13952720 2.50377904 13.47767536
v 5.89338641 3.08442920 13.49815207
v 5.89338641 3.22407312 13.47043014
v 5.57940820 3.20276661 13.46223929
v 5.15623871 3.04047245 13.50193215
v 5.16792259 3.12214744 13.45436379
v 4.84396000 3.02079761 13.45814427
v 4.58394016 2.91205768 13.45499367
v 4.58224071 2.82520011 13.49437159
v 5.89338641 3.05141368 13.48618115
v 4.16523177 2.53525893 13.47736042
v 4.11467238 2.50377904 13.47263512
v 4.27442313 2.50377904 13.40711036
v 5.89338641 3.43685024 13.06058617
v 5.69964619 3.42456538 13.06153099
v 5.26946629 3.34999256 13.05302520
v 4.90981469 3.24921868 13.04640986
v 4.57076924 3.12166757 13.04073974
v 4.14547536 2.94996787 13.02656343
v 4.35238659 2.78537034 13.44806338
v 3.86591160 2.81099577 13.01900286
v 4.35875962 2.69659329 13.48177078
v 5.89338641 2.50377904 12.44692230
v 4.15014895 2.62422798 13.45026836
v 4.05434100 2.50377904 13.45688411
v 5.70665652 3.43656232 12.96576397
v 5.89338641 3.46266762 12.84637085
v 5.28306212 3.39106999 12.71217113
v 5.27286525 3.36064587 12.96576397
v 4.91045199 3.25872019 12.96576397
v 4.91300121 3.28952821 12.70461057
v 4.56014751 3.16082542 12.71437651
v 4.56822003 3.13068922 12.96576397
v 4.11106101 2.97828057 12.74965901
v 4.13782774 2.95620628 12.96576397
v 3.79644547 2.79871092 12.84794595
v 3.74057526 2.69745706 12.88669359
v 5.89338641 2.50377904 10.30193544
v 4.00930485 2.50377904 13.37151292
v 5.72386366 3.46679449 12.72351218
v 5.89338641 3.47639188 12.72288190
v 5.29240919 3.40076345 12.50866698
v 4.91342607 3.29816596 12.50551678
v 4.55611127 3.16946317 12.51433710
v 4.10128902 2.98269537 12.50583172
v 3.78306215 2.79698339 12.51307694
v 3.91328449 2.50377904 12.94024742
v 3.97255371 2.50377904 13.24361401
v 4.00101990 2.50377904 13.35450175
v 3.72315559 2.68689983 12.53197855
v 3.86399969 2.50377904 12.60065351
v 3.88333117 2.50377904 12.78588633
v 3.92390624 2.50377904 10.30193544
v 5.89338641 3.31112264 10.30193544
v 5.89338641 3.48291831 12.57797182
v 5.74234549 3.47706370 12.51024208
v 5.30090661 3.40249109 12.35336067
v 4.91618772 3.29912570 12.35399095
v 4.55759831 3.16917525 12.35525111
v 4.10978638 2.98221550 12.30138194
v 3.79856990 2.79861494 12.23333726
v 3.73505192 2.68785957 12.22861196
v 3.77159065 2.62422798 12.25570402
v 3.85656443 2.50377904 12.37478220
v 3.76096890 2.68977905 11.98919503
v 3.82788578 2.80178208 12.00337093
v 4.16565664 2.90150036 10.82298250
v 3.94196314 2.52230225 10.30193544
v 3.86187536 2.50377904 12.17033283
v 5.87957817 3.31160251 10.30193544
v 5.89338641 3.39356541 10.63522895
v 5.89338641 3.48426194 12.50772176
v 5.75700349 3.47504825 12.34737521
v 5.77527280 3.47005761 12.01597174
v 5.31386510 3.40114735 12.03046299
v 5.30791694 3.40268303 12.19301452
v 4.91916180 3.29874180 12.19364440
v 4.92319806 3.29711025 12.03014805
v 4.56248428 3.16706382 12.18639878
v 4.57353088 3.16610408 12.01817712
v 4.13379150 2.98307927 12.10354831
v 4.13888991 2.90447565 11.04916834
v 4.36470779 3.01254375 10.84093848
v 4.20708137 2.90150036 10.68815290
v 3.95683355 2.53746632 10.30193544
v 5.87001858 3.31189043 10.30193544
v 5.85196168 3.39366139 10.63774927
v 5.89338641 3.42946005 10.84629407
v 5.89338641 3.48224649 12.39147843
v 5.78249564 3.46573878 11.85058535
v 5.32045055 3.39740437 11.86885628
v 5.89338641 3.47437643 12.05314468
v 4.92893379 3.29336727 11.86759652
v 4.59095052 3.16572019 11.85688575
v 4.67422483 3.15036416 10.85605961
v 4.69079472 3.12512263 10.66106084
v 4.38149011 2.98797403 10.66893635
v 4.35004979 2.86263043 10.30193544
v 4.29757849 2.83028673 10.30193544
v 4.11148584 2.67998951 10.30193544
v 5.43643978 3.26476665 10.30193544
v 5.41370929 3.33914741 10.65822558
v 5.84027777 3.42917213 10.85007415
v 5.89338641 3.46957774 11.88366247
v 5.37632086 3.38022484 11.13075905
v 4.98990250 3.28031462 11.12414370
v 4.93785604 3.28914432 11.70472965
v 4.60943232 3.16524032 11.69716949
v 5.01263298 3.27407621 10.86803054
v 5.03111480 3.24681923 10.66137578
v 5.05320797 3.17848492 10.30193544
v 4.70970139 3.05189355 10.30193544
v 5.39692697 3.37129907 10.87118074
f 1 2 3
f 1 3 4
f 1 4 5
f 1 5 13
f 1 13 26
f 1 26 41
f 1 41 57
f 1 57 74
f 1 74 91
f 1 91 107
f 1 107 95
f 1 95 92
f 1 92 75
f 1 75 58
f 1 58 44
f 1 44 30
f 1 30 17
f 1 17 6
f 1 6 7
f 1 7 2
f 2 8 3
f 2 7 9
f 2 9 8
f 3 8 10
f 3 10 11
f 3 11 12
f 3 12 4
f 4 13 5
f 4 12 14
f 4 14 15
f 4 15 28
f 4 28 42
f 4 42 52
f 4 52 51
f 4 51 50
f 4 50 55
f 4 55 54
f 4 54 67
f 4 67 72
f 4 72 56
f 4 56 41
f 4 41 26
f 4 26 16
f 4 16 13
f 6 17 18
f 6 18 7
f 7 18 19
f 7 19 9
f 8 9 10
f 9 19 20
f 9 20 10
f 10 20 21
f 10 21 22
f 10 22 11
f 11 23 12
f 11 22 24
f 11 24 23
f 12 25 14
f 12 23 25
f 13 16 26
f 14 27 15
f 14 25 27
f 15 27 28
f 17 29 18
f 17 30 29
f 18 29 31
f 18 31 32
f 18 32 19
f 19 33 20
f 19 32 34
f 19 34 33
f 20 33 35
f 20 35 36
f 20 36 21
f 21 36 37
f 21 37 38
f 21 38 22
f 22 38 24
f 23 27 25
f 23 24 27
f 24 38 37
f 24 37 39
f 24 39 40
f 24 40 28
f 24 28 27
f 28 40 42
f 29 30 43
f 29 43 31
f 30 44 43
f 31 43 45
f 31 45 46
f 31 46 34
f 31 34 32
f 33 34 35
f 34 46 47
f 34 47 35
f 35 47 37
f 35 37 36
f 37 47 48
f 37 48 39
f 39 48 49
f 39 49 40
f 40 50 51
f 40 51 52
f 40 52 42
f 40 49 53
f 40 53 54
f 40 54 55
f 40 55 50
f 41 56 71
f 41 71 88
f 41 88 103
f 41 103 102
f 41 102 101
f 41 101 115
f 41 115 114
f 41 114 104
f 41 104 89
f 41 89 73
f 41 73 57
f 43 44 58
f 43 58 59
f 43 59 45
f 45 59 60
f 45 60 61
f 45 61 46
f 46 61 47
f 47 61 62
f 47 62 48
f 48 62 63
f 48 63 64
f 48 64 49
f 49 64 65
f 49 65 53
f 53 65 66
f 53 66 67
f 53 67 54
f 56 65 68
f 56 68 69
f 56 69 70
f 56 70 71
f 56 72 66
f 56 66 65
f 57 73 74
f 58 75 59
f 59 75 76
f 59 76 77
f 59 77 78
f 59 78 79
f 59 79 60
f 60 79 80
f 60 80 61
f 61 80 62
f 62 80 81
f 62 81 82
f 62 82 63
f 63 82 83
f 63 83 84
f 63 84 69
f 63 69 64
f 64 69 68
f 64 68 65
f 66 72 67
f 69 85 70
f 69 84 85
f 70 85 86
f 70 86 87
f 70 87 88
f 70 88 71
f 73 89 74
f 74 89 90
f 74 90 91
f 75 92 76
f 76 92 77
f 77 93 94
f 77 94 78
f 77 92 95
f 77 95 93
f 78 81 79
f 78 94 96
f 78 96 81
f 79 81 80
f 81 96 83
f 81 83 82
f 83 96 97
f 83 97 84
f 84 97 98
f 84 98 86
f 84 86 85
f 86 98 99
f 86 99 100
f 86 100 87
f 87 100 101
f 87 101 102
f 87 102 103
f 87 103 88
f 89 104 90
f 90 104 105
f 90 105 106
f 90 106 91
f 91 106 107
f 93 95 107
f 93 107 106
f 93 106 108
f 93 108 94
f 94 108 109
f 94 109 96
f 96 109 110
f 96 110 111
f 96 111 97
f 97 111 98
f 98 111 110
f 98 110 109
f 98 109 112
f 98 112 99
f 99 113 114
f 99 114 115
f 99 115 100
f 99 112 113
f 100 115 101
f 104 114 105
f 105 114 113
f 105 113 116
f 105 116 106
f 106 116 108
f 108 116 112
f 108 112 109
f 112 116 113

