# https://github.com/mikedh/trimesh
v 2.97957414 1.62105347 9.00941362
v 3.03184039 1.86431604 9.00941362
v 3.13260167 1.40398840 9.00941362
v 3.78135317 1.41182428 11.15228381
v 3.74632936 1.47918928 11.15228381
v 3.70699478 1.56281080 11.15228381
v 3.69029089 1.63485395 11.15228381
v 3.67143182 1.73028773 11.15228381
v 3.67466489 1.81145323 11.15228381
v 3.68113083 1.91121425 11.15228381
v 3.04153940 1.89507471 9.00941362
v 3.70160633 1.97635718 11.15228381
v 3.43865725 1.23674539 9.00941362
v 4.18008756 1.04950341 11.15228381
v 4.09118056 1.10891558 11.15228381
v 4.02382675 1.15616468 11.15228381
v 3.95108480 1.21955331 11.15228381
v 3.88911934 1.27721118 11.15228381
v 3.83469751 1.34270496 11.15228381
v 3.11751442 1.97635718 9.00941362
v 8.33554551 1.97635718 11.15228381
v 3.78997449 1.10961734 9.00941362
v 4.54864743 0.88857588 11.15228381
v 4.42094460 0.93524016 11.15228381
v 4.35466859 0.96003423 11.15228381
v 4.24905780 1.01348186 11.15228381
v 8.42553030 1.97635718 9.00941362
v 8.33446802 1.96477882 11.15228381
v 8.48318520 1.73028773 9.00941362
v 8.34847779 1.97635718 10.92700568
v 4.15099073 1.01968034 9.00941362
v 4.76364062 0.83372479 11.15228381
v 4.60737992 0.87348882 11.15228381
v 8.35117191 1.97635718 10.86030303
v 8.35224940 1.97191295 10.86093250
v 8.33285139 1.95577341 11.15228381
v 8.30860427 1.82221289 11.15228381
v 8.43846218 1.50468506 9.00941362
v 4.52655539 0.96167158 9.00941362
v 4.81159652 0.82635678 11.15228381
v 8.22023612 1.61848050 11.15228381
v 8.36410379 1.41112255 9.00941362
v 8.09037781 1.44398640 11.15228381
v 4.91612957 0.92740432 9.00941362
v 5.00611421 0.79817110 11.12627408
v 5.00557536 0.79676758 11.15228381
v 8.29728863 1.32738410 9.00941362
v 8.06828607 1.41638544 11.15228381
v 5.31055324 0.90986131 9.00941362
v 5.27930109 0.78179767 11.14787909
v 5.27930109 0.78156369 11.15228381
v 7.84413261 1.26516500 11.15228381
v 8.16743072 1.24621862 9.00941362
v 5.70120506 0.90389672 9.00941362
v 6.08323565 0.90670360 9.00941362
v 5.33048990 0.78273322 11.15228381
v 7.65931393 1.18516905 11.15228381
v 8.08121794 1.19429141 9.00941362
v 6.11071604 0.90740531 9.00941362
v 5.58374008 0.78881486 11.15228381
v 7.57741151 1.14973226 11.15228381
v 7.89478263 1.12716030 9.00941362
v 6.45395081 0.91898367 9.00941362
v 5.91512066 0.81583100 11.15228381
v 6.50136785 0.92143968 9.00941362
v 6.81335052 0.94167257 9.00941362
v 7.39151534 1.09043698 11.15228381
v 7.80803111 1.09722028 9.00941362
v 6.87639367 0.94728634 9.00941362
v 7.16143489 0.97664159 9.00941362
v 6.26859328 0.85945446 11.15228381
v 7.28644330 1.05804096 11.15228381
v 7.09192561 1.01020715 11.15228381
v 6.97068881 0.98155360 11.15228381
v 7.57741151 1.04447441 9.00941362
v 7.23525454 0.98693348 9.00941362
v 7.49604824 1.02704835 9.00941362
v 6.62853184 0.91535814 11.15228381
f 1 2 11
f 1 11 20
f 1 20 27
f 1 27 29
f 1 29 38
f 1 38 42
f 1 42 47
f 1 47 53
f 1 53 58
f 1 58 62
f 1 62 68
f 1 68 75
f 1 75 77
f 1 77 76
f 1 76 70
f 1 70 69
f 1 69 66
f 1 66 65
f 1 65 63
f 1 63 59
f 1 59 55
f 1 55 54
f 1 54 49
f 1 49 44
f 1 44 39
f 1 39 31
f 1 31 22
f 1 22 13
f 1 13 3
f 1 3 4
f 1 4 5
f 1 5 6
f 1 6 7
f 1 7 8
f 1 8 9
f 1 9 10
f 1 10 2
f 2 10 12
f 2 12 11
f 3 13 14
f 3 14 15
f 3 15 16
f 3 16 17
f 3 17 18
f 3 18 19
f 3 19 4
f 4 19 18
f 4 18 17
f 4 17 16
f 4 16 15
f 4 15 14
f 4 14 26
f 4 26 25
f 4 25 24
f 4 24 23
f 4 23 33
f 4 33 32
f 4 32 40
f 4 40 46
f 4 46 51
f 4 51 56
f 4 56 60
f 4 60 64
f 4 64 71
f 4 71 78
f 4 78 74
f 4 74 73
f 4 73 72
f 4 72 67
f 4 67 61
f 4 61 57
f 4 57 52
f 4 52 48
f 4 48 43
f 4 43 41
f 4 41 37
f 4 37 36
f 4 36 28
f 4 28 21
f 4 21 12
f 4 12 10
f 4 10 9
f 4 9 8
f 4 8 7
f 4 7 6
f 4 6 5
f 11 12 20
f 12 21 30
f 12 30 34
f 12 34 27
f 12 27 20
f 13 22 23
f 13 23 24
f 13 24 25
f 13 25 26
f 13 26 14
f 21 28 29
f 21 29 30
f 22 31 32
f 22 32 33
f 22 33 23
f 27 34 35
f 27 35 29
f 28 36 29
f 29 35 30
f 29 36 37
f 29 37 38
f 30 35 34
f 31 39 32
f 32 39 40
f 37 41 38
f 38 41 43
f 38 43 42
f 39 44 45
f 39 45 46
f 39 46 40
f 42 43 47
f 43 48 47
f 44 49 50
f 44 50 45
f 45 50 46
f 46 50 51
f 47 48 52
f 47 52 53
f 49 54 50
f 50 54 55
f 50 55 51
f 51 55 56
f 52 57 58
f 52 58 53
f 55 59 60
f 55 60 56
f 57 61 58
f 58 61 62
f 59 63 60
f 60 63 65
f 60 65 66
f 60 66 64
f 61 67 68
f 61 68 62
f 64 66 69
f 64 69 70
f 64 70 71
f 67 72 68
f 68 72 73
f 68 73 74
f 68 74 75
f 70 76 71
f 71 76 77
f 71 77 78
f 74 78 77
f 74 77 75

