# https://github.com/mikedh/trimesh
v 2.96369933 0.42042112 1.04095531
v 2.85585413 0.43082088 0.98151602
v 2.97529564 0.42980136 0.93853706
v 3.01974808 0.42572297 0.98060185
v 3.09860252 0.43347186 1.04049843
v 3.10169486 0.43816187 1.12371343
v 2.90359206 0.42205248 1.12782821
v 2.72520282 0.44122064 1.07250370
v 2.81546041 0.47690609 0.83520384
v 2.98824486 0.44550287 0.86949555
v 3.04583967 0.43387964 0.92161945
v 3.04429340 0.44040496 0.88961377
v 3.05144446 0.43041309 0.95133909
v 3.09628342 0.43367570 0.98288748
v 3.17668413 0.44754211 0.95225367
v 3.23601837 0.45916534 0.99111785
v 3.10420752 0.44794990 1.22338836
v 3.30404974 0.47751792 1.06153042
v 2.86145892 0.43163656 1.22613168
v 2.59010647 0.51279548 0.97099962
v 2.64576850 0.46100063 1.17629421
v 2.70761520 0.56826093 0.70900947
v 3.00080735 0.57866068 0.58190093
v 3.05762913 0.50361929 0.70809490
v 3.08623318 0.46324372 0.81965808
v 3.09531703 0.44020112 0.91110305
v 3.09087179 0.44794990 0.87452530
v 3.09377076 0.43571494 0.94585245
v 3.14266845 0.44264805 0.93442188
v 3.22500194 0.46303978 0.89601499
v 3.34386358 0.49301559 0.89327126
v 3.35642628 0.49852128 1.15983388
v 3.10478739 0.46120448 1.32534972
v 3.49171599 0.53726549 0.93396459
v 3.10401416 0.48873336 1.52058479
v 3.10459403 0.50239572 1.61477348
v 2.83768663 0.44489114 1.32123454
v 2.50139495 0.56051204 1.09125006
v 2.54004924 0.62902822 0.86309433
v 2.82396438 0.45875755 1.41085075
v 2.81507389 0.47262386 1.49863823
v 2.80869587 0.48689806 1.58825445
v 2.60885364 0.48322756 1.26682501
v 2.71785860 0.65451786 0.64362625
v 2.96698503 0.68061922 0.53526368
v 3.23969048 0.70366183 0.50097196
v 3.32318363 0.63269872 0.55766793
v 3.33709914 0.53644992 0.73049915
v 3.19968339 0.47201212 0.83428926
v 3.15059254 0.45406743 0.87315385
v 3.15523105 0.44835779 0.90378766
v 3.60265363 0.62596946 0.75336070
v 3.38676975 0.51993263 1.26545314
v 3.59588908 0.58457427 1.02266664
v 3.86917441 1.16227101 5.17198862
v 3.35661954 1.07091623 5.17198862
v 2.47858885 0.71100282 0.98197331
v 2.59087951 0.50504670 1.34821086
v 2.46621951 0.60272291 1.18315272
v 2.66084366 0.74159036 0.72775583
v 2.80386410 0.50239572 1.68015670
v 2.80212488 0.51932090 1.77617413
v 2.98012740 0.81010644 0.57367097
v 3.34096450 0.80663989 0.53846469
v 3.55955420 0.73445321 0.60476207
v 3.73948950 0.71202244 0.83794716
v 3.65560984 0.62515378 1.12096970
v 4.23291059 1.47446786 5.17198862
v 3.69310448 0.65961576 1.21698714
v 3.72325479 0.69142677 1.31254729
v 3.00950468 1.17185510 5.17198862
v 2.80038525 0.72364567 2.77018250
v 2.79690640 0.70243826 2.66364907
v 2.80367095 0.53828512 1.87310574
v 2.45037132 0.63902009 1.26225254
v 2.45713587 0.77890717 1.07158953
v 2.63591162 0.85272510 0.82377327
v 2.57966972 0.52706968 1.43142586
v 2.57097259 0.55031623 1.52149937
v 2.56459456 0.57560192 1.61797409
v 2.99771502 0.94591513 0.65048476
v 3.41344122 0.93612711 0.62122240
v 3.68073514 0.84966633 0.69849348
v 3.80713436 0.78053852 0.93213585
v 4.26847245 1.56072474 5.17198862
v 3.74992616 0.72364567 1.40902201
v 3.84675504 0.83457646 1.02495227
v 3.87903129 0.88249696 1.12188428
v 3.90976129 0.92939785 1.22613168
v 3.93411345 0.97609489 1.33632300
v 2.80541037 0.74301777 2.86757180
v 2.83826651 1.38882276 5.17198862
v 2.57715726 0.93082526 2.97547669
v 2.56865329 0.91145315 2.88540358
v 2.56034267 0.88922622 2.78389951
v 2.55357813 0.86353264 2.67233632
v 2.54893973 0.83376078 2.55254317
v 2.56150222 0.60190723 1.71947817
v 2.54874637 0.80031842 2.42452006
v 2.44109452 0.67450170 1.34501025
v 2.63223941 0.94591513 0.91201762
v 2.43336358 0.71243023 1.43691250
v 2.45017817 0.83355693 1.15251850
v 3.01221050 1.05521462 0.74558762
v 3.45209541 1.04012479 0.72409794
v 3.73659043 0.93755452 0.80594148
v 4.36162911 1.80970733 5.17198862
v 3.76886679 1.00443934 0.90973159
v 3.80094969 1.06377913 1.01580814
v 3.83322594 1.12209939 1.12828550
v 3.85815798 1.17858436 1.24807864
v 3.95421373 1.02197615 1.45154408
v 2.81043549 1.67124773 5.17198862
v 2.67823792 1.48282847 4.23101832
v 2.65775133 1.44775476 4.07327557
v 2.52265478 1.22813622 3.04131719
v 2.51202486 1.20794843 2.95535887
v 2.47414381 1.12882865 2.63667275
v 2.46042156 1.09273531 2.51230713
v 2.44843854 1.05113628 2.37834009
v 2.43993477 1.00423540 2.23842912
v 2.43471629 0.95529527 2.10217604
v 2.42601936 0.82968249 1.75011238
v 2.42485961 0.79012260 1.64174980
v 2.42737227 0.75137839 1.53658783
v 2.64306269 1.01626651 0.99980510
v 2.44998481 0.93429191 1.32946450
v 2.45095120 0.88331264 1.23710536
v 3.02999148 1.13249915 0.85120647
v 3.47470814 1.11720538 0.83566112
v 4.39931701 2.00974987 5.17198862
v 3.49654775 1.17960398 0.95225367
v 3.52225282 1.23955555 1.07113224
v 3.54331939 1.29930322 1.19458329
v 3.87787164 1.23343807 1.37290115
v 3.97044844 1.06744962 1.57087995
v 2.81468738 1.68327883 5.17198862
v 2.75689941 1.74894008 4.04492758
v 2.70490939 1.52463143 4.42030987
v 2.53309154 1.24710043 3.12178887
v 2.73718564 1.71610945 3.88901357
v 2.55338477 1.36700362 2.43183585
v 2.53251166 1.32234582 2.29329634
v 2.48844594 1.15941619 2.75326529
v 2.51241138 1.27218228 2.14972747
v 2.49463061 1.21916387 2.00890193
v 2.47936209 1.17001990 1.87813550
v 2.46757242 1.12413853 1.75879963
v 2.45810226 1.07866506 1.64632187
v 2.45211095 1.03237591 1.53613055
v 2.43162416 0.91084142 1.97598168
v 2.44959829 0.98425156 1.43005440
v 2.65813784 1.07642197 1.09216464
v 2.67205325 1.19469380 1.29883068
v 2.66683497 1.13616965 1.19183956
v 3.04622619 1.19775257 0.96139820
v 4.38694767 2.35090292 5.17198862
v 4.08447841 1.37250939 2.50727777
v 3.06091483 1.25913155 1.07707617
v 3.07251093 1.31928706 1.19686932
v 3.55800793 1.35741954 1.32306369
v 3.89236703 1.28686427 1.50046697
v 2.91132300 1.95387664 5.17198862
v 2.91673463 1.96855862 5.17198862
v 2.88542457 1.92593997 4.90679786
v 2.84850970 1.87434899 4.63383422
v 3.11503059 2.13944103 4.60365729
v 3.02245390 2.00363234 3.99737595
v 2.66084366 1.56011298 3.15882431
v 2.57445144 1.40615567 2.56168771
v 2.78550345 1.53992520 2.21099551
v 2.76173117 1.49180080 2.06102583
v 2.73834540 1.44184115 1.91334178
v 2.71708557 1.39392067 1.77525956
v 2.70046414 1.34722368 1.64815102
v 2.68790144 1.29930322 1.52835787
v 2.67862464 1.24893573 1.41130804
v 3.97315425 1.59600236 2.34907773
v 3.98784289 1.63637793 2.47435752
v 4.04408475 1.77891587 2.94255643
v 4.13182983 1.94510818 3.56164000
v 4.08080625 2.50363669 5.17198862
v 3.08198130 1.37495640 1.32169182
v 3.56709168 1.41247712 1.45428741
v 3.90203055 1.33886311 1.63077652
v 3.95749932 1.54991714 2.21099551
v 3.18518810 2.23568981 5.17198862
v 3.15271849 2.19307115 4.88622275
v 3.58274671 2.42798346 5.17198862
v 3.55066371 2.37394553 4.86884805
v 3.50891709 2.31440180 4.57119412
v 3.09976227 2.11537886 4.49163701
v 3.04989840 2.04135698 4.15877660
v 3.47296872 2.25485807 4.31149000
v 3.00216026 1.96549986 3.84009048
v 2.80946910 1.58315560 2.35547895
v 3.17185237 1.65473045 2.17213133
v 3.15136558 1.60946088 2.01758918
v 3.13165202 1.56337566 1.86258974
v 3.11367768 1.51790219 1.71627756
v 3.10072867 1.47222477 1.58002448
v 3.09087179 1.42593562 1.44925765
v 3.57598216 1.51504734 1.72542209
v 3.58583904 1.56582266 1.87264885
v 3.72615377 1.92349299 3.03171577
v 4.02263166 1.73160714 2.78298493
v 4.05374832 1.80093890 3.02165666
v 3.73794333 1.94796300 3.11447348
v 3.88115724 2.22100782 4.06275937
v 3.90918161 2.27463796 4.26485315
v 3.85216657 2.46937865 5.17198862
v 3.57153692 1.46427202 1.58733987
v 3.92464329 1.44469599 1.90876931
v 3.94107125 1.49791832 2.06056854
v 3.44281840 2.20449053 4.11168246
v 2.83304823 1.62251157 2.49036056
v 3.41653355 2.15922098 3.94799577
v 3.31815861 1.93307707 3.14282127
v 3.30830173 1.90901489 3.05686294
v 3.29747856 1.88515661 2.97319065
v 3.75069929 1.97365658 3.20363241
v 3.71475082 1.89881903 2.95078680
v 3.61270367 1.66349888 2.18173315
v 3.59917468 1.61537448 2.02719100
f 1 2 3
f 1 3 4
f 1 4 5
f 1 5 6
f 1 6 7
f 1 7 2
f 2 7 8
f 2 8 9
f 2 9 10
f 2 10 3
f 3 11 4
f 3 10 12
f 3 12 11
f 4 11 13
f 4 13 14
f 4 14 5
f 5 14 15
f 5 15 16
f 5 16 6
f 6 17 7
f 6 16 18
f 6 18 17
f 7 17 19
f 7 19 8
f 8 20 9
f 8 19 21
f 8 21 20
f 9 22 23
f 9 23 24
f 9 24 10
f 9 20 22
f 10 24 25
f 10 25 12
f 11 26 13
f 11 12 26
f 12 25 27
f 12 27 26
f 13 28 14
f 13 26 28
f 14 28 29
f 14 29 15
f 15 29 30
f 15 30 16
f 16 30 31
f 16 31 18
f 17 18 32
f 17 32 33
f 17 33 19
f 18 31 34
f 18 34 32
f 19 33 35
f 19 35 36
f 19 36 37
f 19 37 21
f 20 21 38
f 20 38 39
f 20 39 22
f 21 37 40
f 21 40 41
f 21 41 42
f 21 42 43
f 21 43 38
f 22 44 23
f 22 39 44
f 23 45 46
f 23 46 47
f 23 47 24
f 23 44 45
f 24 47 48
f 24 48 49
f 24 49 25
f 25 49 50
f 25 50 27
f 26 29 28
f 26 27 50
f 26 50 51
f 26 51 29
f 29 51 30
f 30 51 50
f 30 50 49
f 30 49 31
f 31 49 48
f 31 48 52
f 31 52 34
f 32 53 33
f 32 34 54
f 32 54 53
f 33 53 55
f 33 55 35
f 34 52 54
f 35 55 36
f 36 55 56
f 36 56 37
f 37 56 40
f 38 57 39
f 38 43 58
f 38 58 59
f 38 59 57
f 39 60 44
f 39 57 60
f 40 56 41
f 41 56 42
f 42 61 43
f 42 56 61
f 43 61 62
f 43 62 58
f 44 60 63
f 44 63 45
f 45 63 46
f 46 63 64
f 46 64 65
f 46 65 47
f 47 65 52
f 47 52 48
f 52 66 54
f 52 65 66
f 53 54 55
f 54 66 67
f 54 67 55
f 55 68 85
f 55 85 107
f 55 107 131
f 55 131 157
f 55 157 182
f 55 182 211
f 55 211 189
f 55 189 187
f 55 187 164
f 55 164 163
f 55 163 137
f 55 137 113
f 55 113 92
f 55 92 71
f 55 71 56
f 55 67 69
f 55 69 70
f 55 70 68
f 56 71 72
f 56 72 73
f 56 73 74
f 56 74 62
f 56 62 61
f 57 59 75
f 57 75 76
f 57 76 77
f 57 77 60
f 58 62 74
f 58 74 73
f 58 73 78
f 58 78 59
f 59 78 79
f 59 79 80
f 59 80 75
f 60 81 63
f 60 77 81
f 63 81 64
f 64 81 82
f 64 82 83
f 64 83 65
f 65 83 66
f 66 83 84
f 66 84 69
f 66 69 67
f 68 70 86
f 68 86 87
f 68 87 88
f 68 88 89
f 68 89 90
f 68 90 85
f 69 84 70
f 70 84 86
f 71 91 72
f 71 92 93
f 71 93 94
f 71 94 95
f 71 95 96
f 71 96 97
f 71 97 98
f 71 98 80
f 71 80 91
f 72 91 79
f 72 79 78
f 72 78 73
f 75 80 98
f 75 98 99
f 75 99 97
f 75 97 100
f 75 100 76
f 76 101 77
f 76 100 102
f 76 102 103
f 76 103 101
f 77 101 81
f 79 91 80
f 81 101 104
f 81 104 82
f 82 104 105
f 82 105 83
f 83 105 106
f 83 106 84
f 84 106 87
f 84 87 86
f 85 90 107
f 87 106 108
f 87 108 88
f 88 108 109
f 88 109 110
f 88 110 89
f 89 110 90
f 90 110 111
f 90 111 112
f 90 112 107
f 92 113 114
f 92 114 115
f 92 115 116
f 92 116 117
f 92 117 118
f 92 118 119
f 92 119 93
f 93 119 120
f 93 120 121
f 93 121 94
f 94 121 122
f 94 122 95
f 95 122 123
f 95 123 124
f 95 124 96
f 96 124 97
f 97 99 98
f 97 124 125
f 97 125 102
f 97 102 100
f 101 103 126
f 101 126 104
f 102 125 103
f 103 125 124
f 103 124 127
f 103 127 128
f 103 128 126
f 104 129 105
f 104 126 129
f 105 129 130
f 105 130 108
f 105 108 106
f 107 112 131
f 108 130 109
f 109 130 110
f 110 130 132
f 110 132 133
f 110 133 111
f 111 133 134
f 111 134 135
f 111 135 112
f 112 135 136
f 112 136 131
f 113 137 138
f 113 138 139
f 113 139 114
f 114 139 138
f 114 138 140
f 114 140 116
f 114 116 115
f 116 140 141
f 116 141 142
f 116 142 117
f 117 142 143
f 117 143 144
f 117 144 118
f 118 143 145
f 118 145 119
f 118 144 143
f 119 145 146
f 119 146 147
f 119 147 120
f 120 147 148
f 120 148 149
f 120 149 121
f 121 149 150
f 121 150 122
f 122 151 123
f 122 150 151
f 123 150 152
f 123 152 124
f 123 151 150
f 124 152 127
f 126 153 129
f 126 128 127
f 126 127 152
f 126 152 154
f 126 154 155
f 126 155 153
f 129 153 155
f 129 155 154
f 129 154 156
f 129 156 130
f 130 156 132
f 131 136 158
f 131 158 157
f 132 156 159
f 132 159 133
f 133 159 160
f 133 160 134
f 134 160 161
f 134 161 135
f 135 161 162
f 135 162 136
f 136 162 157
f 136 157 158
f 137 163 138
f 138 163 164
f 138 164 165
f 138 165 166
f 138 166 167
f 138 167 168
f 138 168 141
f 138 141 140
f 141 169 170
f 141 170 142
f 141 168 169
f 142 170 171
f 142 171 172
f 142 172 143
f 143 172 173
f 143 173 174
f 143 174 145
f 145 174 175
f 145 175 146
f 146 175 147
f 147 175 148
f 148 175 176
f 148 176 149
f 149 176 177
f 149 177 150
f 150 177 154
f 150 154 152
f 154 177 160
f 154 160 159
f 154 159 156
f 157 178 179
f 157 179 180
f 157 180 181
f 157 181 182
f 157 162 178
f 160 177 183
f 160 183 161
f 161 183 184
f 161 184 162
f 162 184 185
f 162 185 186
f 162 186 178
f 164 187 188
f 164 188 165
f 165 188 166
f 166 188 167
f 167 188 189
f 167 189 190
f 167 190 191
f 167 191 192
f 167 192 168
f 168 192 193
f 168 193 191
f 168 191 194
f 168 194 195
f 168 195 169
f 169 195 170
f 170 196 171
f 170 195 196
f 171 197 198
f 171 198 199
f 171 199 172
f 171 196 197
f 172 199 200
f 172 200 173
f 173 200 174
f 174 200 201
f 174 201 175
f 175 201 202
f 175 202 176
f 176 202 183
f 176 183 177
f 178 186 203
f 178 203 204
f 178 204 179
f 179 204 205
f 179 205 206
f 179 206 180
f 180 207 181
f 180 206 208
f 180 208 209
f 180 209 182
f 180 182 207
f 181 207 182
f 182 209 210
f 182 210 194
f 182 194 191
f 182 191 190
f 182 190 211
f 183 202 184
f 184 202 212
f 184 212 213
f 184 213 185
f 185 213 214
f 185 214 186
f 186 214 212
f 186 212 203
f 187 189 188
f 189 211 190
f 191 193 192
f 194 210 215
f 194 215 195
f 195 216 196
f 195 215 216
f 196 216 217
f 196 217 197
f 197 217 218
f 197 218 219
f 197 219 220
f 197 220 209
f 197 209 221
f 197 221 208
f 197 208 198
f 198 208 205
f 198 205 199
f 199 205 222
f 199 222 223
f 199 223 200
f 200 223 224
f 200 224 204
f 200 204 201
f 201 204 203
f 201 203 202
f 202 203 212
f 204 224 205
f 205 208 206
f 205 224 222
f 208 221 209
f 209 220 219
f 209 219 217
f 209 217 215
f 209 215 210
f 212 214 213
f 215 217 216
f 217 219 218
f 222 224 223

