# https://github.com/mikedh/trimesh
v 113.41274592 5.49926143 2.38128754
v 113.41274592 4.12444606 4.76210769
v 117.38608014 5.49872297 2.38128754
v 113.41274592 4.12444606 -0.00000011
v 8.20100273 5.49926143 2.38128754
v 7.86354150 5.49926143 2.39766223
v 7.86354150 4.12444606 4.77941738
v 117.38608014 4.12390771 4.76210769
v 117.52759854 4.12175453 4.75789670
v 117.52759854 5.49387838 2.38128754
v 117.52759854 4.12175453 0.00467837
v 117.38608014 4.12390771 0.00046738
v 113.41274592 1.37481532 -0.00000011
v 8.20100273 4.12444606 -0.00000011
v 7.86354150 4.12444606 0.01403446
v 7.86354150 4.81023875 1.20280786
v 7.86354150 1.37481532 4.77941738
v 117.38608014 1.37535367 4.76210769
v 117.52759854 1.37750685 4.75789670
v 117.67999970 4.11206513 4.74152289
v 117.67999970 5.47503803 2.38128754
v 117.52759854 1.37750685 0.00467837
v 117.67999970 4.11206513 0.02105218
v 117.38608014 1.37535367 0.00046738
v 117.38608014 0.00053841 2.38128754
v 113.41274592 -0.00000005 2.38128754
v 8.20100273 1.37481532 -0.00000011
v 7.86354150 1.37481532 0.01403446
v 7.86354150 -0.00000005 2.39485461
v 113.41274592 1.37481532 4.76210769
v 117.52759854 0.00538300 2.38128754
v 117.67999970 0.02422335 2.38128754
v 117.67999970 1.38719625 4.74152289
v 117.82151456 4.09591619 4.71298449
v 117.82151456 5.44220170 2.38128754
v 117.82151456 4.09591619 0.04959059
v 117.67999970 1.38719625 0.02105218
v 8.20100273 -0.00000005 2.38128754
v 117.82151456 1.40334518 0.04959059
v 117.82151456 0.05705968 2.38128754
v 117.82151456 1.40334518 4.71298449
v 117.96302942 4.07223103 4.67228326
v 117.96302942 5.39536961 2.38128754
v 117.96302942 4.07223103 0.09029181
v 117.96302942 1.42703035 0.09029181
v 117.96302942 0.10389177 2.38128754
v 117.96302942 1.42703035 4.67228326
v 118.09366152 4.04208634 4.62035332
v 118.09366152 5.33508023 2.38128754
v 118.09366152 4.04208634 0.14222175
v 118.09366152 1.45717504 0.14222175
v 118.09366152 0.16418115 2.38128754
v 118.09366152 1.45717504 4.62035332
v 118.22429007 4.00548201 4.55625967
v 118.22429007 5.26133332 2.38128754
v 118.22429007 4.00548201 0.20584791
v 118.22429007 1.49377937 0.20584791
v 118.22429007 0.23792806 2.38128754
v 118.22429007 1.49377937 4.55625967
v 118.35492217 3.96241803 4.48187318
v 118.35492217 5.17520538 2.38128754
v 118.35492217 3.96241803 0.28070189
v 118.35492217 1.53684335 0.28070189
v 118.35492217 0.32405600 2.38128754
v 118.35492217 1.53684335 4.48187318
v 118.47466442 3.91343288 4.39719473
v 118.47466442 5.07723507 2.38128754
v 118.47466442 3.91343288 0.36538034
v 118.47466442 1.58582850 0.36538034
v 118.47466442 0.42202631 2.38128754
v 118.47466442 1.58582850 4.39719473
v 118.58352391 3.85852644 4.30222433
v 118.58352391 4.96796042 2.38128754
v 118.58352391 3.85852644 0.45988325
v 118.58352391 1.64073494 0.45988325
v 118.58352391 0.53130095 2.38128754
v 118.58352391 1.64073494 4.30222433
v 118.69238340 3.79877518 4.19883194
v 118.69238340 4.84845813 2.38128754
v 118.69238340 3.79877518 0.56374314
v 118.69238340 1.70048620 0.56374314
v 118.69238340 0.65080325 2.38128754
v 118.69238340 1.70048620 4.19883194
v 118.77947029 3.73417933 4.08655185
v 118.77947029 4.71872798 2.38128754
v 118.77947029 3.73417933 0.67602323
v 118.77947029 1.76508205 0.67602323
v 118.77947029 0.78053340 2.38128754
v 118.77947029 1.76508205 4.08655185
v 118.86655717 3.66527708 3.96678565
v 118.86655717 4.58092346 2.38128754
v 118.86655717 3.66527708 0.79532193
v 118.86655717 1.83398430 0.79532193
v 118.86655717 0.91833792 2.38128754
v 118.86655717 1.83398430 3.96678565
v 118.94275775 3.59206841 3.84046921
v 118.94275775 4.43504448 2.38128754
v 118.94275775 3.59206841 0.92163748
v 118.94275775 1.90719297 0.92163748
v 118.94275775 1.06421690 2.38128754
v 118.94275775 1.90719297 3.84046921
v 119.00807203 3.51562998 3.70854019
v 119.00807203 4.28216762 2.38128754
v 119.00807203 3.51562998 1.05403577
v 119.00807203 1.98363140 1.05403577
v 119.00807203 1.21709376 2.38128754
v 119.00807203 1.98363140 3.70854019
v 119.05161724 3.43703837 3.57146342
v 119.05161724 4.12444606 2.38128754
v 119.05161724 3.43703837 1.19064416
v 119.05161724 2.06222300 1.19064416
v 119.05161724 1.37481532 2.38128754
v 119.05161724 2.06222300 3.57146342
f 1 2 8
f 1 8 3
f 1 3 4
f 1 4 14
f 1 14 5
f 1 5 6
f 1 6 7
f 1 7 2
f 2 7 8
f 3 8 9
f 3 9 10
f 3 10 11
f 3 11 12
f 3 12 4
f 4 12 24
f 4 24 13
f 4 13 27
f 4 27 14
f 5 14 15
f 5 15 16
f 5 16 6
f 6 16 15
f 6 15 28
f 6 28 29
f 6 29 17
f 6 17 7
f 7 17 18
f 7 18 8
f 8 18 19
f 8 19 9
f 9 19 33
f 9 33 20
f 9 20 21
f 9 21 10
f 10 21 11
f 11 22 24
f 11 24 12
f 11 21 23
f 11 23 37
f 11 37 22
f 13 24 25
f 13 25 26
f 13 26 38
f 13 38 27
f 14 27 28
f 14 28 15
f 17 29 26
f 17 26 30
f 17 30 18
f 18 25 19
f 18 30 26
f 18 26 25
f 19 25 31
f 19 31 32
f 19 32 33
f 20 33 41
f 20 41 34
f 20 34 21
f 21 34 35
f 21 35 36
f 21 36 23
f 22 37 32
f 22 32 31
f 22 31 25
f 22 25 24
f 23 36 39
f 23 39 37
f 26 29 38
f 27 38 29
f 27 29 28
f 32 37 39
f 32 39 40
f 32 40 41
f 32 41 33
f 34 41 47
f 34 47 42
f 34 42 43
f 34 43 35
f 35 43 36
f 36 43 44
f 36 44 45
f 36 45 39
f 39 45 46
f 39 46 40
f 40 46 41
f 41 46 47
f 42 47 53
f 42 53 48
f 42 48 43
f 43 48 49
f 43 49 50
f 43 50 44
f 44 50 51
f 44 51 45
f 45 51 46
f 46 51 52
f 46 52 53
f 46 53 47
f 48 54 49
f 48 53 59
f 48 59 54
f 49 54 55
f 49 55 56
f 49 56 50
f 50 56 57
f 50 57 51
f 51 57 52
f 52 57 58
f 52 58 59
f 52 59 53
f 54 59 65
f 54 65 60
f 54 60 55
f 55 60 61
f 55 61 56
f 56 61 62
f 56 62 63
f 56 63 57
f 57 63 64
f 57 64 58
f 58 64 65
f 58 65 59
f 60 65 71
f 60 71 66
f 60 66 61
f 61 66 67
f 61 67 68
f 61 68 62
f 62 68 69
f 62 69 63
f 63 69 64
f 64 70 71
f 64 71 65
f 64 69 70
f 66 71 77
f 66 77 72
f 66 72 73
f 66 73 67
f 67 73 68
f 68 73 74
f 68 74 75
f 68 75 69
f 69 75 76
f 69 76 70
f 70 76 71
f 71 76 77
f 72 77 83
f 72 83 78
f 72 78 73
f 73 78 79
f 73 79 74
f 74 79 80
f 74 80 81
f 74 81 75
f 75 81 82
f 75 82 76
f 76 82 83
f 76 83 77
f 78 83 89
f 78 89 84
f 78 84 79
f 79 84 85
f 79 85 86
f 79 86 80
f 80 86 87
f 80 87 81
f 81 87 82
f 82 87 88
f 82 88 89
f 82 89 83
f 84 89 95
f 84 95 90
f 84 90 91
f 84 91 85
f 85 91 92
f 85 92 86
f 86 92 93
f 86 93 87
f 87 93 88
f 88 93 94
f 88 94 89
f 89 94 95
f 90 96 97
f 90 97 91
f 90 95 101
f 90 101 96
f 91 97 92
f 92 97 98
f 92 98 99
f 92 99 93
f 93 99 100
f 93 100 94
f 94 100 95
f 95 100 101
f 96 101 107
f 96 107 102
f 96 102 97
f 97 102 103
f 97 103 98
f 98 103 104
f 98 104 105
f 98 105 99
f 99 105 106
f 99 106 100
f 100 106 107
f 100 107 101
f 102 107 113
f 102 113 108
f 102 108 109
f 102 109 103
f 103 109 110
f 103 110 104
f 104 110 111
f 104 111 105
f 105 111 106
f 106 112 107
f 106 111 112
f 107 112 113
f 108 113 112
f 108 112 111
f 108 111 110
f 108 110 109

