# https://github.com/mikedh/trimesh
v 7.85265874 4.12444606 4.77911222
v 7.85265874 1.37481532 4.77911222
v 7.85265874 5.09553718 3.09754993
v 4.76186740 4.12444606 8.24537016
v 7.85265874 -0.00000005 2.39575766
v 4.76186740 1.37481532 8.24537016
v 7.85265874 5.49926143 2.39817497
v 2.38131870 5.49926143 8.24537016
v 7.71122550 -0.00000005 2.40139775
v 7.85265874 1.37481532 0.01401494
v 2.38823441 0.00376806 8.24537016
v 2.38131870 -0.00000005 8.24537016
v 7.85265874 4.81023875 1.20327447
v 7.51444881 4.12444606 0.02851878
v 7.62129284 5.49926143 2.40945514
v 2.38131870 5.49926143 8.19138618
v 0.00000000 4.12444606 8.24537016
v 7.23465518 -0.00000005 2.46102226
v 6.84263469 1.37481532 0.11231458
v 7.51444881 1.37481532 0.02851878
v 7.85265874 4.12444606 0.01401494
v 0.00000000 1.37481532 8.24537016
v 2.38131870 -0.00000005 8.19138618
v 6.84263469 4.12444606 0.11231458
v 7.23542162 5.49926143 2.46666235
v 2.40514579 5.49926143 7.71116994
v 0.02843994 4.12444606 7.51457156
v 0.00000000 4.12444606 8.19138618
v 6.76500058 -0.00000005 2.55932190
v 6.18004980 1.37481532 0.25090028
v 0.00000000 1.37481532 8.19138618
v 2.40130294 -0.00000005 7.71116994
v 6.18004980 4.12444606 0.25090028
v 7.05786274 5.49926143 2.49325183
v 2.40975863 5.49926143 7.62173361
v 0.11222332 4.12444606 6.84259111
v 0.02843994 1.37481532 7.51457156
v 6.30457166 -0.00000005 2.69629577
v 5.53129633 1.37481532 0.44427588
v 0.11222332 1.37481532 6.84259111
v 2.46125923 -0.00000005 7.23498240
v 5.53129633 4.12444606 0.44427588
v 6.50442475 5.49926143 2.63183753
v 2.46663851 5.49926143 7.23578832
v 2.49354201 5.49926143 7.05772158
v 0.25135369 4.12444606 6.18027944
v 5.85721127 -0.00000005 2.87113929
v 4.90099423 1.37481532 0.69002409
v 2.55964757 -0.00000005 6.76443539
v 0.25135369 1.37481532 6.18027944
v 4.90099423 4.12444606 0.69002409
v 5.96789815 5.49926143 2.82360130
v 2.63190240 5.49926143 6.50418424
v 0.44428753 4.12444606 5.53166613
v 5.45289223 -0.00000005 3.06854403
v 4.29221280 1.37481532 0.98733852
v 2.63651169 -0.00000005 6.50579519
v 0.44428753 1.37481532 5.53166613
v 4.29221280 4.12444606 0.98733852
v 5.45212579 5.49926143 3.06773856
v 2.82406624 5.49926143 5.96756627
v 0.69025839 4.12444606 4.90077767
v 5.42599227 -0.00000005 3.08224150
v 3.71187131 1.37481532 1.33460914
v 5.01321754 -0.00000005 3.32798971
v 2.69646797 -0.00000005 6.30436219
v 2.82714265 -0.00000005 5.96917811
v 0.69025839 1.37481532 4.90077767
v 3.71187131 4.12444606 1.33460914
v 4.96325693 5.49926143 3.36102474
v 3.06773423 5.49926143 5.45189858
v 0.98772984 4.12444606 4.29245043
v 3.16073975 1.37481532 1.72780591
v 4.96402337 -0.00000005 3.36263569
v 2.87095400 -0.00000005 5.85718100
v 0.98772984 1.37481532 4.29245043
v 3.06850067 -0.00000005 5.45270406
v 3.16073975 4.12444606 1.72780591
v 4.62581344 5.49926143 3.61080120
v 3.08310564 5.49926143 5.42611458
v 1.33439901 4.12444606 3.71151814
v 2.64420094 1.37481532 2.16531877
v 4.62273703 -0.00000005 3.60677294
v 4.50820729 -0.00000005 3.70346075
v 4.25608716 -0.00000005 3.91697939
v 1.33439901 1.37481532 3.71151814
v 3.32754007 -0.00000005 5.01358025
v 3.08156921 -0.00000005 5.42611458
v 2.64420094 4.12444606 2.16531877
v 4.50513088 5.49926143 3.70023797
v 3.36059284 5.49926143 4.96281949
v 1.72795239 4.12444606 3.16039722
v 2.16532420 1.37481532 2.64392317
v 3.91710369 -0.00000005 4.25619261
v 1.72795239 1.37481532 3.16039722
v 3.60656725 -0.00000005 4.62199443
v 2.16532420 4.12444606 2.64392317
v 4.08236758 5.49926143 4.08376551
v 3.61117654 5.49926143 4.62521721
v 3.70034276 5.49926143 4.50516359
v 3.70341562 -0.00000005 4.50758090
f 1 2 5
f 1 5 10
f 1 10 21
f 1 21 13
f 1 13 7
f 1 7 3
f 1 3 4
f 1 4 6
f 1 6 2
f 2 6 5
f 3 7 4
f 4 8 17
f 4 17 22
f 4 22 12
f 4 12 11
f 4 11 6
f 4 7 8
f 5 9 10
f 5 6 11
f 5 11 12
f 5 12 23
f 5 23 32
f 5 32 41
f 5 41 49
f 5 49 57
f 5 57 66
f 5 66 67
f 5 67 75
f 5 75 77
f 5 77 88
f 5 88 87
f 5 87 96
f 5 96 101
f 5 101 94
f 5 94 85
f 5 85 84
f 5 84 83
f 5 83 74
f 5 74 65
f 5 65 63
f 5 63 55
f 5 55 47
f 5 47 38
f 5 38 29
f 5 29 18
f 5 18 9
f 7 13 14
f 7 14 15
f 7 15 25
f 7 25 34
f 7 34 43
f 7 43 52
f 7 52 60
f 7 60 70
f 7 70 79
f 7 79 90
f 7 90 98
f 7 98 100
f 7 100 99
f 7 99 91
f 7 91 80
f 7 80 71
f 7 71 61
f 7 61 53
f 7 53 45
f 7 45 44
f 7 44 35
f 7 35 26
f 7 26 16
f 7 16 8
f 8 16 28
f 8 28 17
f 9 18 19
f 9 19 20
f 9 20 10
f 10 20 14
f 10 14 21
f 12 22 31
f 12 31 23
f 13 21 14
f 14 24 15
f 14 20 19
f 14 19 24
f 15 24 25
f 16 26 27
f 16 27 28
f 17 28 31
f 17 31 22
f 18 29 30
f 18 30 19
f 19 30 33
f 19 33 24
f 23 31 32
f 24 33 34
f 24 34 25
f 26 35 27
f 27 35 36
f 27 36 40
f 27 40 37
f 27 37 31
f 27 31 28
f 29 38 30
f 30 39 42
f 30 42 33
f 30 38 39
f 31 37 32
f 32 37 40
f 32 40 41
f 33 42 43
f 33 43 34
f 35 44 36
f 36 44 45
f 36 45 46
f 36 46 50
f 36 50 40
f 38 47 48
f 38 48 39
f 39 48 51
f 39 51 42
f 40 49 41
f 40 50 49
f 42 51 52
f 42 52 43
f 45 53 46
f 46 53 54
f 46 54 58
f 46 58 50
f 47 55 48
f 48 56 59
f 48 59 51
f 48 55 56
f 49 50 57
f 50 58 57
f 51 59 60
f 51 60 52
f 53 61 54
f 54 61 62
f 54 62 68
f 54 68 58
f 55 63 56
f 56 64 69
f 56 69 59
f 56 63 65
f 56 65 64
f 57 58 66
f 58 67 66
f 58 68 67
f 59 69 60
f 60 69 70
f 61 71 62
f 62 71 72
f 62 72 76
f 62 76 68
f 64 73 78
f 64 78 69
f 64 65 74
f 64 74 73
f 67 68 75
f 68 76 77
f 68 77 75
f 69 78 70
f 70 78 79
f 71 80 72
f 72 81 86
f 72 86 76
f 72 80 81
f 73 82 89
f 73 89 78
f 73 74 83
f 73 83 84
f 73 84 85
f 73 85 82
f 76 86 87
f 76 87 88
f 76 88 77
f 78 89 90
f 78 90 79
f 80 91 81
f 81 92 95
f 81 95 86
f 81 91 92
f 82 93 97
f 82 97 89
f 82 85 93
f 85 94 93
f 86 95 96
f 86 96 87
f 89 97 98
f 89 98 90
f 91 99 92
f 92 99 100
f 92 100 97
f 92 97 93
f 92 93 95
f 93 94 101
f 93 101 95
f 95 101 96
f 97 100 98

