# https://github.com/mikedh/trimesh
v 2.38124773 -0.00000005 8.24736566
v 0.00046483 1.37481532 8.24736566
v 4.76249546 1.37481532 8.24736566
v 2.38124773 -0.00000005 28.63650527
v 0.00046483 1.37481532 28.63650527
v 0.00046483 4.12444606 8.24736566
v 4.76249546 4.12444606 8.24736566
v 4.76249546 1.37481532 28.63650527
v 0.00046483 4.12444606 28.63650527
v 2.38124773 5.49926143 8.24736566
v 4.76249546 4.12444606 28.63650527
v 2.38124773 5.49926143 28.63650527
f 1 2 6
f 1 6 10
f 1 10 7
f 1 7 3
f 1 3 8
f 1 8 4
f 1 4 5
f 1 5 2
f 2 5 9
f 2 9 6
f 3 7 11
f 3 11 8
f 4 8 11
f 4 11 12
f 4 12 9
f 4 9 5
f 6 9 12
f 6 12 10
f 7 10 12
f 7 12 11

