# https://github.com/mikedh/trimesh
v 10.26439136 0.67869313 24.01109547
v 9.96129318 1.67224392 24.01109547
v 9.95959038 1.66944517 25.37277228
v 10.25928345 0.67869313 25.37277228
v 10.26439136 -0.67869313 24.01109547
v 10.20479371 0.67869313 17.22793623
v 9.93404831 1.64145782 17.22793623
v 9.94085953 1.64705532 18.58456889
v 9.94596794 1.65405212 19.94120155
v 4.48849890 5.60306667 0.92817585
v 4.48849890 5.60306667 17.22793623
v 9.94767074 1.65545144 26.72940493
v 4.47998487 5.59467055 18.58456889
v 10.25928345 -0.67869313 25.37277228
v 9.91702077 1.62046728 29.44771440
v 9.87104505 1.56589202 33.52265247
v 10.23203858 0.67869313 26.72940493
v 9.95959038 -1.66944517 25.37277228
v 9.96129318 -1.67224392 24.01109547
v 9.94596794 -1.65405212 19.94120155
v 9.94085953 -1.64705532 18.58456889
v 9.93404831 -1.64145782 17.22793623
v 10.20479371 -0.67869313 17.22793623
v 10.18265675 0.67869313 15.86625943
v 9.92383148 1.63026283 15.86625943
v 9.76887729 1.43435139 7.71637924
v 9.74163242 1.39516917 6.91954772
v 4.41868417 5.54569253 -0.06030087
v 3.60304362 6.16841090 0.92817585
v 3.60304362 6.17120978 2.28480851
v 9.90339833 1.60787298 14.50962677
v 9.85231420 1.54630078 11.79132136
v 9.82506933 1.51131663 10.43468870
v 3.60304362 6.17120978 17.22793623
v 4.46125402 5.58067669 19.94120155
v 4.44422598 5.56528364 21.30287430
v 9.03667390 2.14802887 33.52265247
v 3.60304362 6.15721591 18.58456889
v 10.23203858 -0.67869313 26.72940493
v 9.87104505 -1.56589202 33.52265247
v 9.91702077 -1.62046728 29.44771440
v 9.94767074 -1.65545144 26.72940493
v 10.06856935 0.67869313 33.52265247
v 9.03667390 2.11584333 34.87928513
v 9.03667390 2.06546613 36.24096193
v 9.84550298 1.53370648 34.87928513
v 4.47998487 -5.59467055 18.58456889
v 4.48849890 -5.60306667 17.22793623
v 4.48849890 -5.60306667 0.92817585
v 9.92383148 -1.63026283 15.86625943
v 10.18265675 -0.67869313 15.86625943
v 10.13838484 0.67869313 14.50962677
v 10.02599975 0.67869313 11.79132136
v 9.96980720 0.67869313 10.43468870
v 9.85401701 0.67869313 7.71637924
v 9.77058009 0.67869313 6.80859672
v 9.55943285 0.67869313 6.12775832
v 6.76514035 0.67869313 -1.82543455
v 6.75832914 0.71507666 -1.82543455
v 6.47736741 2.03747878 -1.82543455
v 5.95120286 3.27172066 -1.82543455
v 5.55785630 3.95181316 -1.82543455
v 5.73494745 4.19670251 -0.01491165
v 4.87843960 4.69487730 -1.82543455
v 4.20413156 5.37496981 -1.82543455
v 3.52471486 5.79897774 -1.82543455
v 2.60520369 6.67778069 0.92817585
v 2.60520369 6.68057906 2.28480851
v 2.60520369 6.68057906 17.22793623
v 3.60304362 6.10124147 21.30287430
v 4.41698136 5.54429284 22.65950696
v 2.58647290 6.67358263 18.58456889
v 10.06856935 -0.67869313 33.52265247
v 9.03667390 -2.14802887 33.52265247
v 9.84550298 -1.53370648 34.87928513
v 9.03667390 -2.06546613 36.24096193
v 9.03667390 -2.11584333 34.87928513
v 4.44422598 -5.56528364 21.30287430
v 4.46125402 -5.58067669 19.94120155
v 9.80804129 1.48472872 36.24096193
v 9.76887729 1.43435139 37.59759459
v 9.73822681 1.39097111 38.67180359
v 10.01237731 0.67869313 34.87928513
v 8.95493929 1.91013633 41.67253266
v 8.90045005 1.88914579 43.02916532
v 3.60304362 -6.15721591 18.58456889
v 3.60304362 -6.17120978 17.22793623
v 3.60304362 -6.17120978 2.28480851
v 3.60304362 -6.16841090 0.92817585
v 4.41868417 -5.54569253 -0.06030087
v 9.74163242 -1.39516917 6.91954772
v 9.76887729 -1.43435139 7.71637924
v 9.82506933 -1.51131663 10.43468870
v 9.85231420 -1.54490147 11.79132136
v 9.87785627 -1.57708688 13.15299614
v 9.90339833 -1.60647367 14.50962677
v 10.13838484 -0.67869313 14.50962677
v 10.02599975 -0.67869313 11.79132136
v 9.96980720 -0.67869313 10.43468870
v 9.85401701 -0.67869313 7.71637924
v 9.77058009 -0.67869313 6.80859672
v 9.55943285 -0.67869313 6.12775832
v 6.76514035 -0.67869313 -1.82543455
v 2.27996917 6.39230970 -1.82543455
v 2.24421041 6.40910193 -1.82543455
v 1.80659116 6.86809452 -0.00986750
v 1.92578705 6.90727673 0.92817585
v 1.92578705 6.90727673 17.22793623
v 2.54901133 6.66098795 19.94120155
v 2.50984695 6.64699460 21.30287430
v 3.60304362 6.06065956 22.65950696
v 1.90705626 6.90027980 18.58456889
v 1.86959472 6.88908481 19.94120155
v 10.01237731 -0.67869313 34.87928513
v 9.73822681 -1.39097111 38.67180359
v 9.76887729 -1.43435139 37.59759459
v 9.80804129 -1.48472872 36.24096193
v 8.90045005 -1.88914579 43.02916532
v 8.95493929 -1.91013633 41.67253266
v 4.41698136 -5.54429284 22.65950696
v 3.60304362 -6.10124147 21.30287430
v 9.71098194 1.28182046 39.57958813
v 9.93404831 0.67869313 36.24096193
v 9.73141559 0.37642978 39.88722442
v 7.67784050 2.47128263 43.02916532
v 7.67784050 2.30895603 44.39083807
v 8.73017011 1.74081292 44.39083807
v 9.49472628 0.67869313 43.02916532
v 3.60304362 5.99209044 24.01109547
v 3.60304362 5.90812877 25.37277228
v 3.49747012 5.78358469 28.08603759
v 3.39019382 5.71781444 29.44771440
v 3.27951191 5.65064500 30.80434301
v 2.58647290 -6.67358263 18.58456889
v 2.60520369 -6.68057906 17.22793623
v 2.60520369 -6.68057906 2.28480851
v 2.60520369 -6.67778069 0.92817585
v 3.52471486 -5.79897774 -1.82543455
v 3.54344571 -5.78778275 -1.82543455
v 4.20413156 -5.37496981 -1.82543455
v 4.85970900 -4.71446841 -1.82543455
v 5.73494745 -4.19670251 -0.01491165
v 5.55785630 -3.95181316 -1.82543455
v 5.95120286 -3.27172066 -1.82543455
v 6.47736741 -2.03747878 -1.82543455
v 0.93475834 6.73655401 -1.82543455
v 0.88707994 7.10738636 0.92817585
v 0.69296093 6.77573623 -1.82543455
v 0.88707994 7.10738636 17.22793623
v 1.83043035 6.87649064 21.30287430
v 2.45365460 6.62880267 22.65950696
v 0.88707994 7.09479219 18.58456889
v 9.73141559 -0.37642978 39.88722442
v 9.93404831 -0.67869313 36.24096193
v 9.71098194 -1.28182046 39.57958813
v 9.49472628 -0.67869313 43.02916532
v 8.73017011 -1.74081292 44.39083807
v 7.67784050 -2.30895603 44.39083807
v 7.67784050 -2.47128263 43.02916532
v 3.27951191 -5.65064500 30.80434301
v 3.39019382 -5.71781444 29.44771440
v 3.49747012 -5.78358469 28.08603759
v 3.60304362 -5.90812877 25.37277228
v 3.60304362 -5.99209044 24.01109547
v 3.60304362 -6.06065956 22.65950696
v 2.50984695 -6.64699460 21.30287430
v 2.54901133 -6.66098795 19.94120155
v 9.68373707 0.76965199 40.33102839
v 9.76376888 0.76965199 39.06013409
v 9.85401701 0.67869313 37.59759459
v 9.59519174 0.67869313 41.67253266
v 3.16201878 5.57787781 32.16097566
v 2.24421041 5.97949626 32.16097566
v 1.93940945 5.57927750 36.24096193
v 1.74018203 5.50091257 37.34038762
v 1.53925180 5.42814539 38.24817216
v 1.60906654 4.09594810 45.17254322
v 1.24126206 3.99799231 46.08032776
v 0.82748204 3.78248963 47.01836908
v 1.83724153 2.90368718 48.00684378
v 7.67784050 1.75900459 45.51548450
v 8.51050885 1.52251162 45.23810499
v 2.24421041 5.81437079 33.52265247
v 9.15586971 0.67869313 44.39083807
v 2.36000067 6.59521770 24.01109547
v 2.24421041 6.47627188 26.72940493
v 2.24421041 6.37551747 28.08603759
v 2.24421041 6.24957421 29.44771440
v 1.86959472 -6.88908481 19.94120155
v 1.90705626 -6.90027980 18.58456889
v 1.92578705 -6.90727673 17.22793623
v 1.92578705 -6.90727673 0.92817585
v 1.80659116 -6.86809452 -0.00986750
v 2.24421041 -6.40910193 -1.82543455
v 4.89717045 -4.67528620 -1.82543455
v 0.13274016 6.80232427 -1.82543455
v -0.47005047 7.14796776 0.92817585
v -0.47005047 7.14796776 17.22793623
v 0.88707994 7.04721335 21.30287430
v 1.77423799 6.85829871 22.65950696
v 1.68058408 6.82751262 24.01109547
v -0.47005047 7.13537359 18.58456889
v 9.76376888 -0.76965199 39.06013409
v 9.85401701 -0.67869313 37.59759459
v 9.59519174 -0.67869313 41.67253266
v 9.68373707 -0.76965199 40.33102839
v 9.15586971 -0.67869313 44.39083807
v 8.51050885 -1.52251162 45.23810499
v 7.67784050 -1.75900459 45.51548450
v 1.83724153 -2.90368718 48.00684378
v 0.82748204 -3.78248963 47.01836908
v 1.24126206 -3.99799231 46.08032776
v 1.60906654 -4.09594810 45.17254322
v 1.53925180 -5.42814539 38.24817216
v 1.74018203 -5.50091257 37.34038762
v 1.93940945 -5.57927750 36.24096193
v 2.24421041 -5.81437079 33.52265247
v 2.24421041 -5.97949626 32.16097566
v 3.16201878 -5.57787781 32.16097566
v 2.24421041 -6.24957421 29.44771440
v 2.24421041 -6.37551747 28.08603759
v 2.24421041 -6.47627188 26.72940493
v 2.36000067 -6.59521770 24.01109547
v 2.45365460 -6.62880267 22.65950696
v 1.83043035 -6.87649064 21.30287430
v 2.24421041 6.11943288 30.80434301
v 0.88707994 6.33213669 32.16097566
v 0.88707994 6.17540784 33.52265247
v 0.88707994 5.83116352 36.24096193
v 1.00627587 5.59886861 37.71358568
v 0.63336296 5.50091257 38.69702028
v 1.00627587 5.37776818 39.07526248
v 0.88707994 5.19025323 40.31590000
v 0.88707994 4.95655863 41.67253266
v 0.88707994 4.69627649 43.02916532
v 0.33537326 4.10154534 46.50395919
v 0.82748204 4.17431253 45.67686887
v -0.47005047 3.12898516 48.27413499
v 0.88707994 3.08700407 48.22370567
v 0.88707994 2.37472628 48.90454407
v 1.68058408 1.48332928 49.20714026
v 7.67784050 0.67869313 46.00972185
v 8.61437941 0.67869313 45.34905598
v 1.60395814 6.80372345 24.91888001
v 2.13182569 6.59521770 25.37277228
v 1.47284265 6.77853510 25.82162040
v 1.28553482 6.75194706 26.72940493
v 0.88707994 6.46507689 30.80434301
v 0.88707994 -7.09479219 18.58456889
v 0.88707994 -7.10738636 17.22793623
v 0.88707994 -7.10738636 0.92817585
v 0.69296093 -6.77573623 -1.82543455
v 0.93475834 -6.73655401 -1.82543455
v 2.21696560 -6.41749805 -1.82543455
v -0.47005047 6.79252846 -1.82543455
v -1.54621909 6.89468256 -0.10064595
v -1.74374364 6.94645895 0.92817585
v -1.74374364 6.94645895 17.22793623
v -1.72160744 6.94086170 18.58456889
v -0.47005047 7.11158442 19.94120155
v -0.47005047 7.08639557 21.30287430
v -0.47005047 7.05141141 22.65950696
v 0.88707994 7.01083001 22.65950696
v -1.62795345 6.91707254 21.30287430
v 8.61437941 -0.67869313 45.34905598
v 7.67784050 -0.67869313 46.00972185
v 1.68058408 -1.48332928 49.20714026
v 0.88707994 -2.37472628 48.90454407
v 0.88707994 -3.08700407 48.22370567
v -0.47005047 -3.12898516 48.27413499
v 0.33537326 -4.10154534 46.50395919
v 0.82748204 -4.17431253 45.67686887
v 0.88707994 -4.69627649 43.02916532
v 0.88707994 -4.95655863 41.67253266
v 0.88707994 -5.19025323 40.31590000
v 1.00627587 -5.37776818 39.07526248
v 0.63336296 -5.50091257 38.69702028
v 1.00627587 -5.59886861 37.71358568
v 0.88707994 -5.83116352 36.24096193
v 0.88707994 -6.17540784 33.52265247
v 0.88707994 -6.33213669 32.16097566
v 2.24421041 -6.11943288 30.80434301
v 0.88707994 -6.46507689 30.80434301
v 1.28553482 -6.75194706 26.72940493
v 1.47284265 -6.77853510 25.82162040
v 1.60395814 -6.80372345 24.91888001
v 2.13182569 -6.59521770 25.37277228
v 1.68058408 -6.82751262 24.01109547
v 1.77423799 -6.85829871 22.65950696
v 0.88707994 -7.04721335 21.30287430
v 0.37964605 6.81351926 27.66745030
v -0.47005047 6.37831584 32.16097566
v -0.47005047 6.22158698 33.52265247
v -0.47005047 5.88014104 36.24096193
v -0.47005047 5.68702834 37.59759459
v -0.47005047 5.50651032 38.72728111
v -0.47005047 5.24482849 40.31590000
v -0.47005047 5.01533245 41.67253266
v -0.02732283 4.10154534 46.50395919
v -0.47686169 3.84406182 47.01836908
v -1.57686957 2.95966188 48.07240959
v -0.47005047 2.44609403 48.95497339
v 0.88707994 1.69603309 49.31808721
v 0.88707994 0.67869313 49.61564330
v 1.84234995 0.67869313 49.30296286
v 0.88707994 6.95205669 24.01109547
v 0.60611822 6.84290566 26.72940493
v 0.85472678 6.71136516 28.10621013
v 0.88707994 6.58682159 29.44771440
v -0.47005047 -7.13537359 18.58456889
v -0.47005047 -7.14796776 17.22793623
v -0.47005047 -7.14796776 0.92817585
v -0.47005047 -6.79252846 -1.82543455
v -1.70968781 6.60641269 -1.82543455
v -2.42316034 6.76594093 0.92817585
v -2.42316034 6.76594093 17.22793623
v -2.40102389 6.76034318 18.58456889
v -1.56154433 6.89888062 22.65950696
v -1.44745693 6.86949370 24.01109547
v -1.20736227 6.80652232 26.33603029
v -0.47005047 6.99263809 24.01109547
v -2.30737015 6.73375514 21.30287430
v 1.84234995 -0.67869313 49.30296286
v 0.88707994 -0.67869313 49.61564330
v 0.88707994 -1.69603309 49.31808721
v -0.47005047 -2.44609403 48.95497339
v -1.57686957 -2.95966188 48.07240959
v -0.47686169 -3.84406182 47.01836908
v -0.02732283 -4.10154534 46.50395919
v -0.47005047 -5.01533245 41.67253266
v -0.47005047 -5.50651032 38.72728111
v -0.47005047 -5.68702834 37.59759459
v -0.47005047 -5.88014104 36.24096193
v -0.47005047 -5.24482849 40.31590000
v -0.47005047 -6.22158698 33.52265247
v -0.47005047 -6.37831584 32.16097566
v 0.37964605 -6.81351926 27.66745030
v 0.88707994 -6.58682159 29.44771440
v 0.60611822 -6.84290566 26.72940493
v 0.85472678 -6.71136516 28.10621013
v 0.88707994 -6.95205669 24.01109547
v 0.88707994 -7.01083001 22.65950696
v -0.47005047 -7.05141141 22.65950696
v -0.47005047 -7.08639557 21.30287430
v -0.47005047 -7.11158442 19.94120155
v -0.11246280 6.81351926 27.66745030
v -0.47005047 6.50845716 30.80434301
v -1.01835148 6.78133398 27.23877067
v -1.82888361 6.12223176 32.16097566
v -1.82888361 5.95990516 33.52265247
v -1.45597070 5.53169867 37.59759459
v -1.24141810 5.46312954 38.45998990
v -0.93321176 4.04697008 46.30222975
v -0.47005047 4.75784868 43.02916532
v -0.47686169 4.20090056 45.80799240
v -1.94978248 3.23253844 47.22010258
v -2.48275825 2.69378199 47.75468501
v -1.93786285 2.13543444 48.54143025
v -1.39296719 1.57848632 49.25757364
v -0.47005047 1.76600152 49.35843229
v -0.47005047 0.67869313 49.69128932
v -1.72160744 -6.94086170 18.58456889
v -1.62795345 -6.91707254 21.30287430
v -1.74374364 -6.94645895 17.22793623
v -1.74374364 -6.94645895 0.92817585
v -1.54621909 -6.89468256 -0.10064595
v -0.72206451 -6.77433704 -1.82543455
v -1.78971936 6.57422741 -1.82543455
v -3.18771676 5.99768818 -1.82543455
v -3.18771676 6.39930663 0.92817585
v -3.18771676 6.39930663 17.22793623
v -3.18771676 6.38531277 18.58456889
v -3.18771676 6.33213669 21.30287430
v -2.24096103 6.71556372 22.65950696
v -2.12687338 6.68477763 24.01109547
v -1.98724392 6.64559491 25.37277228
v -1.72841866 6.63719879 26.76470587
v -1.82888361 6.50985634 28.08603759
v -0.52794557 6.84150648 26.76470587
v -0.47005047 6.91987091 25.37277228
v -3.18771676 6.29295448 22.65950696
v -0.47005047 -0.67869313 49.69128932
v -0.47005047 -1.76600152 49.35843229
v -1.39296719 -1.57848632 49.25757364
v -2.48275825 -2.69378199 47.75468501
v -1.94978248 -3.23253844 47.22010258
v -0.93321176 -4.04697008 46.30222975
v -1.93786285 -2.13543444 48.54143025
v -0.47686169 -4.20090056 45.80799240
v -0.47005047 -4.75784868 43.02916532
v -1.24141810 -5.46312954 38.45998990
v -1.82888361 -5.95990516 33.52265247
v -1.82888361 -6.12223176 32.16097566
v -1.45597070 -5.53169867 37.59759459
v -0.47005047 -6.50845716 30.80434301
v -0.11246280 -6.81351926 27.66745030
v -1.01835148 -6.78133398 27.23877067
v -0.47005047 -6.99263809 24.01109547
v -1.20736227 -6.80652232 26.33603029
v -1.44745693 -6.86949370 24.01109547
v -1.56154433 -6.89888062 22.65950696
v -0.52794557 6.74495013 28.10621013
v -1.82888361 6.38531277 29.44771440
v -1.82888361 6.25936951 30.80434301
v -2.95273076 5.67583385 32.16097566
v -2.79947886 5.59187168 33.52265247
v -2.53384238 5.44773700 35.66603037
v -1.88337336 5.59886861 36.16531187
v -2.37207646 5.38336593 36.56877076
v -2.13538740 5.29940375 37.59759459
v -1.82888361 4.92717222 40.31590000
v -1.82888361 4.68228262 41.67253266
v -1.30953003 4.14072781 45.39444521
v -1.78971936 3.81187654 45.80799240
v -2.71263634 2.90928442 46.84690047
v -3.20644761 2.04727433 47.11923583
v -2.79607325 1.78839138 48.10771053
v -1.63817027 0.67869313 49.37356473
v -2.31758697 0.67869313 49.02558336
v -2.40102389 -6.76034318 18.58456889
v -2.30737015 -6.73375514 21.30287430
v -2.42316034 -6.76594093 17.22793623
v -2.42316034 -6.76594093 0.92817585
v -1.70968781 -6.60641269 -1.82543455
v -3.99314074 5.52890030 -1.82543455
v -4.27750807 5.74440247 0.92817585
v -4.27750807 5.74440247 17.22793623
v -4.26899405 5.73740554 18.58456889
v -4.23153235 5.70941832 21.30287430
v -4.20428748 5.68842803 22.65950696
v -3.18771676 6.22578504 24.01109547
v -3.18771676 6.14462174 25.37277228
v -3.18771676 6.06205875 26.72940493
v -3.18771676 5.95430791 28.08603759
v -4.15831226 5.65344387 24.01109547
v -1.63817027 -0.67869313 49.37356473
v -2.31758697 -0.67869313 49.02558336
v -2.79607325 -1.78839138 48.10771053
v -3.20644761 -2.04727433 47.11923583
v -2.71263634 -2.90928442 46.84690047
v -1.78971936 -3.81187654 45.80799240
v -1.30953003 -4.14072781 45.39444521
v -1.82888361 -4.68228262 41.67253266
v -1.82888361 -4.92717222 40.31590000
v -2.13538740 -5.29940375 37.59759459
v -1.88337336 -5.59886861 36.16531187
v -2.53384238 -5.44773700 35.66603037
v -2.79947886 -5.59187168 33.52265247
v -2.95273076 -5.67583385 32.16097566
v -1.82888361 -6.25936951 30.80434301
v -2.37207646 -5.38336593 36.56877076
v -0.52794557 -6.74495013 28.10621013
v -0.52794557 -6.84150648 26.76470587
v -0.47005047 -6.91987091 25.37277228
v -1.82888361 -6.38531277 29.44771440
v -1.82888361 -6.50985634 28.08603759
v -1.72841866 -6.63719879 26.76470587
v -1.98724392 -6.64559491 25.37277228
v -2.12687338 -6.68477763 24.01109547
v -2.24096103 -6.71556372 22.65950696
v -3.63214720 5.27981265 32.16097566
v -3.08214339 5.74580216 30.80434301
v -3.83648323 5.41275234 29.95708014
v -3.76155984 5.36377482 30.80434301
v -3.47889531 5.18045742 33.52265247
v -3.06681815 5.02512775 36.16531187
v -3.18771676 4.70327342 37.59759459
v -2.93910832 4.37302247 40.31590000
v -2.75180034 4.24428084 41.67253266
v -2.60706272 4.14212699 42.65596726
v -1.92083480 4.36182798 43.07959869
v -2.43507998 4.03717452 43.55870765
v -2.23414981 3.93502068 44.39083807
v -2.90334943 3.08840351 45.74747073
v -3.58276638 2.24878327 45.74747073
v -3.88756686 1.40216598 46.48883080
v -3.68833975 0.67869313 47.36131036
v -3.00892330 0.67869313 48.34474495
v -3.18771676 -6.38531277 18.58456889
v -3.18771676 -6.33213669 21.30287430
v -3.18771676 -6.29295448 22.65950696
v -3.18771676 -6.39930663 17.22793623
v -3.18771676 -6.39930663 0.92817585
v -3.18771676 -5.99768818 -1.82543455
v -4.01187159 5.51210756 -1.82543455
v -4.95692452 5.17765905 0.92817585
v -4.95692452 5.17765905 17.22793623
v -4.94841049 5.16786325 18.58456889
v -4.91094879 5.13287909 21.30287430
v -4.92967964 5.15107102 19.94120155
v -4.88370443 5.10629105 22.65950696
v -4.10211972 5.61146278 25.37277228
v -4.04422436 5.56808251 26.72940493
v -3.97100428 5.51210756 28.08603759
v -3.90629771 5.46312954 29.04929560
v -3.30520976 5.75419828 29.47797118
v -4.83772871 5.06291078 24.01109547
v -3.00892330 -0.67869313 48.34474495
v -3.68833975 -0.67869313 47.36131036
v -3.88756686 -1.40216598 46.48883080
v -3.58276638 -2.24878327 45.74747073
v -2.90334943 -3.08840351 45.74747073
v -2.43507998 -4.03717452 43.55870765
v -2.23414981 -3.93502068 44.39083807
v -1.92083480 -4.36182798 43.07959869
v -2.60706272 -4.14212699 42.65596726
v -2.75180034 -4.24428084 41.67253266
v -2.93910832 -4.37302247 40.31590000
v -3.18771676 -4.70327342 37.59759459
v -3.06681815 -5.02512775 36.16531187
v -3.47889531 -5.18045742 33.52265247
v -3.63214720 -5.27981265 32.16097566
v -3.76155984 -5.36377482 30.80434301
v -3.83648323 -5.41275234 29.95708014
v -3.08214339 -5.74580216 30.80434301
v -3.18771676 -5.95430791 28.08603759
v -3.18771676 -6.06205875 26.72940493
v -3.18771676 -6.14462174 25.37277228
v -3.18771676 -6.22578504 24.01109547
v -4.31156416 4.50036491 33.52265247
v -4.08338887 4.28206387 36.24096193
v -4.41543472 4.60111932 32.16097566
v -3.95397623 4.15752004 37.59759459
v -3.87735054 4.08475311 38.32382222
v -3.75985703 3.97560233 39.23160270
v -3.61852477 3.84266239 40.31590000
v -3.43121729 3.66914105 41.67253266
v -3.96078745 2.83791693 42.75682996
v -3.85351128 2.69518143 43.66461449
v -3.75985703 2.53985151 44.39083807
v -3.96930147 1.57009008 45.74747073
v -5.23277782 1.37977612 39.68549497
v -4.73215534 0.67869313 43.02916532
v -4.45800483 0.67869313 44.39083807
v -4.18215102 0.67869313 45.74747073
v -3.95567904 0.67869313 46.68047600
v -4.26899405 -5.73740554 18.58456889
v -4.23153235 -5.70941832 21.30287430
v -4.20428748 -5.68842803 22.65950696
v -4.15831226 -5.65344387 24.01109547
v -4.27750807 -5.74440247 17.22793623
v -4.27750807 -5.74440247 0.92817585
v -3.99314074 -5.52890030 -1.82543455
v -4.67255718 4.90478224 -1.82543455
v -5.34856802 4.22608917 -1.82543455
v -5.57163490 4.49756655 0.92817585
v -5.57163490 4.49756655 17.22793623
v -5.56482368 4.48916992 18.58456889
v -5.53417320 4.45418577 21.30287430
v -5.51373955 4.42759824 22.65950696
v -5.47798116 4.38421746 24.01109547
v -4.72364132 4.95515944 26.72940493
v -4.65042073 4.88519113 28.08603759
v -5.38943533 4.27646612 26.72940493
v -3.95567904 -0.67869313 46.68047600
v -4.18215102 -0.67869313 45.74747073
v -4.45800483 -0.67869313 44.39083807
v -4.73215534 -0.67869313 43.02916532
v -5.23277782 -1.37977612 39.68549497
v -3.96930147 -1.57009008 45.74747073
v -3.85351128 -2.69518143 43.66461449
v -3.75985703 -2.53985151 44.39083807
v -3.96078745 -2.83791693 42.75682996
v -3.43121729 -3.66914105 41.67253266
v -3.61852477 -3.84266239 40.31590000
v -3.75985703 -3.97560233 39.23160270
v -3.87735054 -4.08475311 38.32382222
v -3.95397623 -4.15752004 37.59759459
v -4.08338887 -4.28206387 36.24096193
v -4.31156416 -4.50036491 33.52265247
v -4.41543472 -4.60111932 32.16097566
v -3.90629771 -5.46312954 29.04929560
v -3.30520976 -5.75419828 29.47797118
v -3.97100428 -5.51210756 28.08603759
v -4.04422436 -5.56808251 26.72940493
v -4.10211972 -5.61146278 25.37277228
v -5.18169420 4.01618398 30.80434301
v -5.09485117 3.89583847 32.16097566
v -4.99098060 3.75310297 33.52265247
v -5.22426380 4.07215868 30.11342036
v -4.87689321 3.59777330 34.87928513
v -4.84624273 3.30950369 36.31660794
v -4.54995577 3.39486505 37.59759459
v -4.20939589 3.16257013 40.31590000
v -4.07657765 2.98904854 41.67253266
v -5.21234417 2.68398644 36.82597773
v -4.59082308 2.03747878 41.67253266
v -4.22982954 2.16062304 43.14011631
v -5.29407878 1.54210273 38.95422725
v -5.85940784 0.67869313 36.24096193
v -5.66528864 0.67869313 37.59759459
v -5.44733068 0.67869313 38.95422725
v -5.28045635 0.67869313 39.97800287
v -5.16807176 0.67869313 40.65884128
v -4.99098060 0.67869313 41.67253266
v -4.91605721 1.91433439 40.20494901
v -5.14252969 2.52026040 37.59759459
v -4.94841049 -5.16786325 18.58456889
v -4.95692452 -5.17765905 17.22793623
v -4.91094879 -5.13287909 21.30287430
v -4.92967964 -5.15107102 19.94120155
v -4.88370443 -5.10629105 22.65950696
v -4.83772871 -5.06291078 24.01109547
v -4.95692452 -5.17765905 0.92817585
v -4.67255718 -4.90478224 -1.82543455
v -5.36389326 4.20230000 -1.82543455
v -6.61034207 2.77074724 0.16160314
v -6.25105135 3.47602835 0.92817585
v -6.25105135 3.47602835 17.22793623
v -6.24253732 3.46343392 18.58456889
v -6.21358965 3.41165728 21.30287430
v -6.22891489 3.43684588 19.94120155
v -6.26126817 3.26052567 22.53847172
v -6.11312469 3.39486505 24.01109547
v -5.33154048 4.20509862 28.08603759
v -5.27364513 4.13233144 29.21067997
v -6.02968778 3.39486505 25.37277228
v -5.94454756 3.39486505 26.72940493
v -4.99098060 -0.67869313 41.67253266
v -4.91605721 -1.91433439 40.20494901
v -4.59082308 -2.03747878 41.67253266
v -5.16807176 -0.67869313 40.65884128
v -5.28045635 -0.67869313 39.97800287
v -5.44733068 -0.67869313 38.95422725
v -5.66528864 -0.67869313 37.59759459
v -5.85940784 -0.67869313 36.24096193
v -5.29407878 -1.54210273 38.95422725
v -5.21234417 -2.68398644 36.82597773
v -5.14252969 -2.52026040 37.59759459
v -4.22982954 -2.16062304 43.14011631
v -4.07657765 -2.98904854 41.67253266
v -4.20939589 -3.16257013 40.31590000
v -4.54995577 -3.39486505 37.59759459
v -4.84624273 -3.30950369 36.31660794
v -4.87689321 -3.59777330 34.87928513
v -4.99098060 -3.75310297 33.52265247
v -5.09485117 -3.89583847 32.16097566
v -5.18169420 -4.01618398 30.80434301
v -5.22426380 -4.07215868 30.11342036
v -4.65042073 -4.88519113 28.08603759
v -4.72364132 -4.95515944 26.72940493
v -5.52395637 3.21714539 32.16097566
v -5.43881666 3.07440990 33.52265247
v -5.34686522 2.91768079 34.87928513
v -5.27534794 2.79873446 35.91819320
v -5.83556858 3.39486505 28.08603759
v -5.59717697 3.33749091 30.80434301
v -5.89005832 2.03747878 33.52265247
v -5.47627836 2.15362611 36.31660794
v -5.40305776 1.84156733 37.59759459
v -6.20337333 0.67869313 33.52265247
v -5.53417320 -4.45418577 21.30287430
v -5.56482368 -4.48916992 18.58456889
v -5.57163490 -4.49756655 17.22793623
v -5.51373955 -4.42759824 22.65950696
v -5.47798116 -4.38421746 24.01109547
v -5.38943533 -4.27646612 26.72940493
v -5.57163490 -4.49756655 0.92817585
v -5.34856802 -4.22608917 -1.82543455
v -5.86792186 3.39486505 -1.82543455
v -6.86405892 2.03747878 0.92817585
v -6.62226170 2.79733528 0.92817585
v -6.42303409 2.23199079 -1.82543455
v -6.64269536 1.55329772 -1.82543455
v -6.62226170 2.79733528 17.22793623
v -6.61715329 2.78474085 18.58456889
v -6.59161122 2.73156477 21.30287430
v -6.58480001 2.71757116 22.00388525
v -6.56606916 2.66719395 22.91166978
v -6.53882429 2.58043316 24.01109547
v -6.49965978 2.45728902 25.37277228
v -6.46049579 2.33414463 26.72940493
v -5.40305776 -1.84156733 37.59759459
v -6.20337333 -0.67869313 33.52265247
v -5.89005832 -2.03747878 33.52265247
v -5.27534794 -2.79873446 35.91819320
v -5.47627836 -2.15362611 36.31660794
v -5.34686522 -2.91768079 34.87928513
v -5.43881666 -3.07440990 33.52265247
v -5.52395637 -3.21714539 32.16097566
v -5.59717697 -3.33749091 30.80434301
v -5.83556858 -3.39486505 28.08603759
v -5.27364513 -4.13233144 29.21067997
v -5.33154048 -4.20509862 28.08603759
v -6.05522985 2.03747878 32.16097566
v -6.40770885 2.17321747 28.08603759
v -6.19315650 2.03747878 30.80434301
v -5.70956155 2.03747878 34.87928513
v -6.58990842 1.38257487 28.84756615
v -6.35832752 0.67869313 32.16097566
v -6.59671964 0.13014116 30.27480472
v -6.21358965 -3.41165728 21.30287430
v -6.22891489 -3.43684588 19.94120155
v -6.24253732 -3.46343392 18.58456889
v -6.25105135 -3.47602835 17.22793623
v -6.11312469 -3.39486505 24.01109547
v -6.26126817 -3.26052567 22.53847172
v -5.94454756 -3.39486505 26.72940493
v -6.02968778 -3.39486505 25.37277228
v -6.25105135 -3.47602835 0.92817585
v -6.61034207 -2.77074724 0.16160314
v -5.86792186 -3.39486505 -1.82543455
v -7.13139821 0.67869313 0.92817585
v -6.86405892 2.03747878 17.22793623
v -6.77040519 0.67869313 -1.82543455
v -6.85213929 2.03747878 18.58456889
v -6.73805190 2.14243137 22.53847172
v -6.80105516 2.03747878 21.30287430
v -6.74656592 1.90174009 24.01109547
v -6.67164253 1.65405212 26.72940493
v -6.62396451 1.49312483 28.08603759
v -5.70956155 -2.03747878 34.87928513
v -6.59671964 -0.13014116 30.27480472
v -6.35832752 -0.67869313 32.16097566
v -6.58990842 -1.38257487 28.84756615
v -6.05522985 -2.03747878 32.16097566
v -6.19315650 -2.03747878 30.80434301
v -6.40770885 -2.17321747 28.08603759
v -6.46049579 -2.33414463 26.72940493
v -6.83000284 0.67869313 26.72940493
v -6.73294349 0.67869313 28.08603759
v -6.62737012 0.62131906 29.35693594
v -6.54733831 1.03553175 29.75535069
v -6.49965978 0.62131906 30.75895378
v -6.58480001 -2.71757116 22.00388525
v -6.59161122 -2.73156477 21.30287430
v -6.61715329 -2.78474085 18.58456889
v -6.62226170 -2.79733528 17.22793623
v -6.56606916 -2.66719395 22.91166978
v -6.49965978 -2.45728902 25.37277228
v -6.53882429 -2.58043316 24.01109547
v -6.62226170 -2.79733528 0.92817585
v -6.86405892 -2.03747878 0.92817585
v -6.64269536 -1.55329772 -1.82543455
v -6.42303409 -2.23199079 -1.82543455
v -6.40941165 -2.26277688 -1.82543455
v -7.13139821 0.67869313 17.22793623
v -7.13139821 -0.67869313 0.92817585
v -6.77040519 -0.67869313 -1.82543455
v -7.11777578 0.67869313 18.58456889
v -7.07009725 0.67869313 21.30287430
v -7.03433886 0.67869313 22.65950696
v -6.97474121 0.67869313 24.01109547
v -6.62737012 -0.62131906 29.35693594
v -6.54733831 -1.03553175 29.75535069
v -6.49965978 -0.62131906 30.75895378
v -6.83000284 -0.67869313 26.72940493
v -6.73294349 -0.67869313 28.08603759
v -6.62396451 -1.49312483 28.08603759
v -6.67164253 -1.65405212 26.72940493
v -6.73805190 -2.14243137 22.53847172
v -6.80105516 -2.03747878 21.30287430
v -6.85213929 -2.03747878 18.58456889
v -6.86405892 -2.03747878 17.22793623
v -6.74656592 -1.90174009 24.01109547
v -7.13139821 -0.67869313 17.22793623
v -7.11777578 -0.67869313 18.58456889
v -7.07009725 -0.67869313 21.30287430
v -7.03433886 -0.67869313 22.65950696
v -6.97474121 -0.67869313 24.01109547
f 1 2 3
f 1 3 4
f 1 4 14
f 1 14 5
f 1 5 23
f 1 23 6
f 1 6 7
f 1 7 8
f 1 8 9
f 1 9 2
f 2 9 10
f 2 10 11
f 2 11 3
f 3 12 4
f 3 11 13
f 3 13 12
f 4 12 15
f 4 15 16
f 4 16 17
f 4 17 39
f 4 39 14
f 5 14 18
f 5 18 19
f 5 19 20
f 5 20 21
f 5 21 22
f 5 22 23
f 6 23 51
f 6 51 24
f 6 24 25
f 6 25 7
f 7 25 10
f 7 10 9
f 7 9 8
f 10 26 27
f 10 27 28
f 10 28 29
f 10 29 30
f 10 30 34
f 10 34 11
f 10 25 31
f 10 31 32
f 10 32 33
f 10 33 26
f 11 34 13
f 12 13 35
f 12 35 36
f 12 36 37
f 12 37 15
f 13 34 38
f 13 38 35
f 14 39 40
f 14 40 41
f 14 41 42
f 14 42 18
f 15 37 16
f 16 43 17
f 16 37 44
f 16 44 45
f 16 45 46
f 16 46 43
f 17 43 73
f 17 73 39
f 18 42 47
f 18 47 48
f 18 48 19
f 19 48 49
f 19 49 20
f 20 49 22
f 20 22 21
f 22 49 50
f 22 50 23
f 23 50 51
f 24 33 32
f 24 32 31
f 24 31 25
f 24 51 97
f 24 97 52
f 24 52 26
f 24 26 33
f 26 52 27
f 27 52 53
f 27 53 54
f 27 54 55
f 27 55 56
f 27 56 57
f 27 57 58
f 27 58 59
f 27 59 60
f 27 60 61
f 27 61 62
f 27 62 63
f 27 63 28
f 28 63 64
f 28 64 65
f 28 65 66
f 28 66 29
f 29 66 67
f 29 67 68
f 29 68 30
f 30 68 69
f 30 69 34
f 34 69 38
f 35 38 36
f 36 70 71
f 36 71 44
f 36 44 37
f 36 38 70
f 38 69 72
f 38 72 70
f 39 73 40
f 40 74 41
f 40 73 75
f 40 75 76
f 40 76 77
f 40 77 74
f 41 74 42
f 42 78 79
f 42 79 47
f 42 74 78
f 43 46 80
f 43 80 81
f 43 81 82
f 43 82 83
f 43 83 114
f 43 114 73
f 44 71 45
f 45 71 84
f 45 84 46
f 46 84 85
f 46 85 80
f 47 79 86
f 47 86 87
f 47 87 48
f 48 87 88
f 48 88 49
f 49 88 89
f 49 89 90
f 49 90 91
f 49 91 92
f 49 92 93
f 49 93 94
f 49 94 95
f 49 95 96
f 49 96 50
f 50 96 51
f 51 96 95
f 51 95 94
f 51 94 93
f 51 93 92
f 51 92 97
f 52 97 98
f 52 98 53
f 53 98 99
f 53 99 54
f 54 99 100
f 54 100 55
f 55 100 101
f 55 101 56
f 56 101 102
f 56 102 57
f 57 102 103
f 57 103 58
f 58 103 145
f 58 145 144
f 58 144 143
f 58 143 195
f 58 195 141
f 58 141 140
f 58 140 139
f 58 139 138
f 58 138 194
f 58 194 254
f 58 254 253
f 58 253 252
f 58 252 313
f 58 313 367
f 58 367 424
f 58 424 484
f 58 484 543
f 58 543 605
f 58 605 659
f 58 659 702
f 58 702 736
f 58 736 735
f 58 735 734
f 58 734 739
f 58 739 705
f 58 705 664
f 58 664 663
f 58 663 660
f 58 660 606
f 58 606 545
f 58 545 544
f 58 544 485
f 58 485 425
f 58 425 369
f 58 369 368
f 58 368 314
f 58 314 255
f 58 255 196
f 58 196 148
f 58 148 146
f 58 146 105
f 58 105 104
f 58 104 66
f 58 66 65
f 58 65 64
f 58 64 62
f 58 62 61
f 58 61 60
f 58 60 59
f 62 64 63
f 66 104 67
f 67 104 105
f 67 105 106
f 67 106 107
f 67 107 68
f 68 107 108
f 68 108 69
f 69 108 112
f 69 112 72
f 70 72 109
f 70 109 110
f 70 110 111
f 70 111 71
f 71 111 84
f 72 112 113
f 72 113 109
f 73 114 115
f 73 115 116
f 73 116 117
f 73 117 75
f 74 77 78
f 75 117 118
f 75 118 119
f 75 119 76
f 76 119 120
f 76 120 77
f 77 120 78
f 78 120 121
f 78 121 86
f 78 86 79
f 80 85 81
f 81 85 82
f 82 122 83
f 82 85 122
f 83 122 123
f 83 123 124
f 83 124 153
f 83 153 114
f 84 111 85
f 85 125 126
f 85 126 127
f 85 127 128
f 85 128 122
f 85 111 129
f 85 129 130
f 85 130 131
f 85 131 132
f 85 132 133
f 85 133 125
f 86 134 135
f 86 135 87
f 86 121 134
f 87 135 136
f 87 136 88
f 88 136 137
f 88 137 89
f 89 137 138
f 89 138 90
f 90 138 139
f 90 139 140
f 90 140 141
f 90 141 142
f 90 142 91
f 91 102 101
f 91 101 100
f 91 100 99
f 91 99 98
f 91 98 97
f 91 97 92
f 91 142 143
f 91 143 144
f 91 144 145
f 91 145 103
f 91 103 102
f 105 146 106
f 106 147 107
f 106 146 148
f 106 148 147
f 107 147 149
f 107 149 108
f 108 149 112
f 109 113 150
f 109 150 110
f 110 151 111
f 110 150 200
f 110 200 151
f 111 151 129
f 112 149 152
f 112 152 113
f 113 152 150
f 114 153 154
f 114 154 155
f 114 155 115
f 115 155 118
f 115 118 116
f 116 118 117
f 118 155 156
f 118 156 157
f 118 157 158
f 118 158 159
f 118 159 160
f 118 160 161
f 118 161 162
f 118 162 163
f 118 163 164
f 118 164 165
f 118 165 119
f 119 165 120
f 120 165 121
f 121 165 166
f 121 166 167
f 121 167 134
f 122 168 124
f 122 124 169
f 122 169 170
f 122 170 123
f 122 128 171
f 122 171 168
f 123 170 124
f 124 170 169
f 124 168 171
f 124 171 128
f 124 128 156
f 124 156 153
f 125 133 172
f 125 172 173
f 125 173 126
f 126 174 175
f 126 175 176
f 126 176 177
f 126 177 178
f 126 178 179
f 126 179 180
f 126 180 181
f 126 181 182
f 126 182 127
f 126 173 183
f 126 183 174
f 127 182 184
f 127 184 128
f 128 184 207
f 128 207 156
f 129 151 185
f 129 185 130
f 130 185 186
f 130 186 131
f 131 186 187
f 131 187 132
f 132 187 133
f 133 187 188
f 133 188 172
f 134 167 189
f 134 189 190
f 134 190 191
f 134 191 135
f 135 191 192
f 135 192 136
f 136 192 137
f 137 192 193
f 137 193 194
f 137 194 138
f 141 195 142
f 142 195 143
f 147 148 196
f 147 196 197
f 147 197 198
f 147 198 149
f 149 198 202
f 149 202 152
f 150 152 199
f 150 199 200
f 151 200 201
f 151 201 185
f 152 202 199
f 153 155 203
f 153 203 204
f 153 204 154
f 153 156 205
f 153 205 206
f 153 206 155
f 154 204 155
f 155 204 203
f 155 206 205
f 155 205 156
f 156 207 157
f 157 207 208
f 157 208 158
f 158 208 209
f 158 209 210
f 158 210 211
f 158 211 212
f 158 212 213
f 158 213 214
f 158 214 215
f 158 215 216
f 158 216 217
f 158 217 218
f 158 218 159
f 159 218 219
f 159 219 160
f 160 219 220
f 160 220 221
f 160 221 161
f 161 221 162
f 162 221 222
f 162 222 163
f 163 222 223
f 163 223 164
f 164 223 224
f 164 224 165
f 165 224 166
f 166 225 167
f 166 224 289
f 166 289 225
f 167 225 189
f 172 188 226
f 172 226 173
f 173 226 227
f 173 227 228
f 173 228 174
f 173 174 183
f 174 228 175
f 175 229 176
f 175 228 229
f 176 229 230
f 176 230 231
f 176 231 232
f 176 232 233
f 176 233 234
f 176 234 177
f 177 234 235
f 177 235 178
f 178 236 179
f 178 235 237
f 178 237 236
f 179 236 238
f 179 238 239
f 179 239 180
f 180 239 240
f 180 240 241
f 180 241 182
f 180 182 181
f 182 241 242
f 182 242 243
f 182 243 184
f 184 243 265
f 184 265 207
f 185 201 244
f 185 244 245
f 185 245 186
f 186 245 244
f 186 244 246
f 186 246 187
f 187 246 247
f 187 247 188
f 188 247 248
f 188 248 226
f 189 225 249
f 189 249 190
f 190 249 250
f 190 250 191
f 191 250 251
f 191 251 192
f 192 251 193
f 193 251 252
f 193 252 253
f 193 253 254
f 193 254 194
f 196 255 197
f 197 255 256
f 197 256 257
f 197 257 258
f 197 258 198
f 198 258 259
f 198 259 202
f 199 260 261
f 199 261 262
f 199 262 263
f 199 263 200
f 199 202 260
f 200 263 201
f 201 263 244
f 202 259 264
f 202 264 260
f 207 265 208
f 208 265 266
f 208 266 267
f 208 267 210
f 208 210 209
f 210 267 268
f 210 268 269
f 210 269 211
f 211 269 270
f 211 270 271
f 211 271 212
f 212 271 272
f 212 272 273
f 212 273 213
f 213 273 274
f 213 274 214
f 214 275 276
f 214 276 277
f 214 277 278
f 214 278 279
f 214 279 215
f 214 274 275
f 215 279 280
f 215 280 216
f 216 280 218
f 216 218 217
f 218 280 281
f 218 281 282
f 218 282 219
f 219 282 220
f 220 283 284
f 220 284 221
f 220 282 283
f 221 284 285
f 221 285 222
f 222 285 286
f 222 286 287
f 222 287 223
f 223 287 286
f 223 286 288
f 223 288 224
f 224 288 289
f 225 289 290
f 225 290 249
f 226 248 227
f 227 248 291
f 227 291 292
f 227 292 293
f 227 293 228
f 228 293 294
f 228 294 229
f 229 294 231
f 229 231 230
f 231 294 295
f 231 295 296
f 231 296 297
f 231 297 298
f 231 298 234
f 231 234 233
f 231 233 232
f 234 298 236
f 234 236 235
f 235 236 237
f 236 299 300
f 236 300 238
f 236 298 299
f 238 301 302
f 238 302 239
f 238 300 301
f 239 302 240
f 240 302 303
f 240 303 241
f 241 303 304
f 241 304 305
f 241 305 242
f 242 305 323
f 242 323 266
f 242 266 265
f 242 265 243
f 244 263 306
f 244 306 246
f 246 307 247
f 246 306 307
f 247 307 291
f 247 291 308
f 247 308 309
f 247 309 248
f 248 309 291
f 249 310 311
f 249 311 250
f 249 290 310
f 250 311 312
f 250 312 251
f 251 312 252
f 252 312 313
f 255 314 256
f 256 315 257
f 256 314 315
f 257 315 316
f 257 316 258
f 258 316 317
f 258 317 259
f 259 317 264
f 260 264 261
f 261 264 318
f 261 318 262
f 262 318 319
f 262 319 320
f 262 320 321
f 262 321 291
f 262 291 263
f 263 291 306
f 264 322 374
f 264 374 318
f 264 317 322
f 266 323 267
f 267 323 324
f 267 324 325
f 267 325 268
f 268 325 326
f 268 326 269
f 269 326 270
f 270 326 327
f 270 327 328
f 270 328 271
f 271 328 329
f 271 329 330
f 271 330 274
f 271 274 273
f 271 273 272
f 274 330 277
f 274 277 275
f 275 277 276
f 277 331 332
f 277 332 333
f 277 333 279
f 277 279 278
f 277 330 334
f 277 334 331
f 279 333 280
f 280 335 336
f 280 336 281
f 280 333 335
f 281 336 337
f 281 337 283
f 281 283 282
f 283 338 284
f 283 337 338
f 284 337 339
f 284 339 285
f 284 338 340
f 284 340 337
f 285 339 341
f 285 341 286
f 286 341 342
f 286 342 288
f 288 342 289
f 289 342 290
f 290 342 343
f 290 343 344
f 290 344 345
f 290 345 310
f 291 307 306
f 291 321 346
f 291 346 292
f 291 309 308
f 292 347 348
f 292 348 349
f 292 349 293
f 292 346 347
f 293 349 350
f 293 350 351
f 293 351 352
f 293 352 294
f 294 352 295
f 295 352 296
f 296 352 297
f 297 352 298
f 298 353 354
f 298 354 299
f 298 352 353
f 299 354 355
f 299 355 353
f 299 353 300
f 300 353 301
f 301 353 356
f 301 356 357
f 301 357 358
f 301 358 359
f 301 359 302
f 302 359 360
f 302 360 303
f 303 360 361
f 303 361 304
f 304 361 382
f 304 382 324
f 304 324 323
f 304 323 305
f 310 362 311
f 310 345 363
f 310 363 362
f 311 362 364
f 311 364 365
f 311 365 312
f 312 365 366
f 312 366 367
f 312 367 313
f 314 368 315
f 315 368 369
f 315 369 370
f 315 370 371
f 315 371 316
f 316 371 372
f 316 372 317
f 317 372 373
f 317 373 322
f 318 374 319
f 319 374 375
f 319 375 320
f 320 376 377
f 320 377 378
f 320 378 348
f 320 348 321
f 320 375 376
f 321 348 379
f 321 379 380
f 321 380 346
f 322 373 381
f 322 381 374
f 324 382 325
f 325 382 383
f 325 383 326
f 326 383 384
f 326 384 327
f 327 385 386
f 327 386 387
f 327 387 328
f 327 384 388
f 327 388 385
f 328 387 329
f 329 387 389
f 329 389 390
f 329 390 330
f 330 390 387
f 330 387 391
f 330 391 334
f 331 334 391
f 331 391 332
f 332 391 333
f 333 391 335
f 335 392 393
f 335 393 336
f 335 391 394
f 335 394 392
f 336 395 396
f 336 396 337
f 336 393 397
f 336 397 395
f 337 396 398
f 337 398 343
f 337 343 342
f 337 342 341
f 337 341 339
f 337 340 338
f 343 398 399
f 343 399 400
f 343 400 401
f 343 401 344
f 344 401 363
f 344 363 345
f 346 380 379
f 346 379 348
f 346 348 402
f 346 402 347
f 347 402 348
f 348 378 403
f 348 403 404
f 348 404 349
f 349 405 406
f 349 406 407
f 349 407 350
f 349 404 405
f 350 407 408
f 350 408 351
f 351 408 409
f 351 409 410
f 351 410 352
f 352 410 411
f 352 411 412
f 352 412 413
f 352 413 353
f 353 355 354
f 353 413 414
f 353 414 356
f 356 414 415
f 356 415 357
f 357 415 416
f 357 416 417
f 357 417 358
f 358 417 359
f 359 418 361
f 359 361 360
f 359 417 419
f 359 419 418
f 361 418 436
f 361 436 382
f 362 420 422
f 362 422 364
f 362 363 420
f 363 401 460
f 363 460 421
f 363 421 420
f 364 422 423
f 364 423 365
f 365 423 366
f 366 423 424
f 366 424 367
f 369 425 370
f 370 425 426
f 370 426 427
f 370 427 371
f 371 427 428
f 371 428 372
f 372 428 429
f 372 429 373
f 373 429 430
f 373 430 381
f 374 381 431
f 374 431 375
f 375 431 432
f 375 432 433
f 375 433 376
f 376 433 378
f 376 378 377
f 378 434 403
f 378 433 434
f 381 430 435
f 381 435 431
f 382 436 384
f 382 384 383
f 384 436 437
f 384 437 438
f 384 438 388
f 385 439 440
f 385 440 386
f 385 388 438
f 385 438 439
f 386 440 441
f 386 441 387
f 387 441 442
f 387 442 391
f 387 390 389
f 391 442 443
f 391 443 444
f 391 444 445
f 391 445 394
f 392 394 446
f 392 446 447
f 392 447 393
f 393 447 448
f 393 448 449
f 393 449 450
f 393 450 397
f 394 445 451
f 394 451 446
f 395 452 396
f 395 397 452
f 396 397 453
f 396 453 454
f 396 454 398
f 396 452 397
f 397 399 398
f 397 398 453
f 397 450 455
f 397 455 456
f 397 456 399
f 398 454 453
f 399 456 457
f 399 457 458
f 399 458 459
f 399 459 400
f 400 459 460
f 400 460 401
f 403 434 405
f 403 405 404
f 405 461 406
f 405 434 462
f 405 462 463
f 405 463 464
f 405 464 461
f 406 461 465
f 406 465 407
f 407 466 467
f 407 467 468
f 407 468 469
f 407 469 409
f 407 409 408
f 407 465 466
f 409 469 470
f 409 470 412
f 409 412 410
f 410 412 411
f 412 470 471
f 412 471 413
f 413 471 472
f 413 472 414
f 414 472 473
f 414 473 415
f 415 473 472
f 415 472 474
f 415 474 475
f 415 475 416
f 416 475 476
f 416 476 417
f 417 476 477
f 417 477 478
f 417 478 419
f 418 419 437
f 418 437 436
f 419 478 498
f 419 498 437
f 420 479 422
f 420 421 480
f 420 480 479
f 421 460 481
f 421 481 480
f 422 479 482
f 422 482 483
f 422 483 423
f 423 483 484
f 423 484 424
f 425 485 486
f 425 486 426
f 426 486 487
f 426 487 427
f 427 487 428
f 428 487 488
f 428 488 429
f 429 489 430
f 429 488 490
f 429 490 489
f 430 491 435
f 430 489 491
f 431 435 492
f 431 492 493
f 431 493 432
f 432 493 433
f 433 493 494
f 433 494 434
f 434 494 495
f 434 495 496
f 434 496 462
f 435 497 492
f 435 491 497
f 437 498 438
f 438 498 499
f 438 499 500
f 438 500 439
f 439 500 501
f 439 501 440
f 440 501 502
f 440 502 503
f 440 503 504
f 440 504 441
f 441 504 503
f 441 503 442
f 442 503 505
f 442 505 443
f 443 505 506
f 443 506 451
f 443 451 445
f 443 445 444
f 446 451 447
f 447 451 507
f 447 507 508
f 447 508 509
f 447 509 510
f 447 510 511
f 447 511 448
f 448 511 512
f 448 512 449
f 449 512 513
f 449 513 514
f 449 514 515
f 449 515 516
f 449 516 455
f 449 455 450
f 451 506 507
f 455 516 456
f 456 516 517
f 456 517 458
f 456 458 457
f 458 517 459
f 459 517 518
f 459 518 519
f 459 519 460
f 460 519 481
f 461 520 521
f 461 521 465
f 461 464 520
f 462 496 463
f 463 496 495
f 463 495 522
f 463 522 464
f 464 522 520
f 465 521 523
f 465 523 467
f 465 467 466
f 467 523 524
f 467 524 468
f 468 524 469
f 469 524 470
f 470 472 471
f 470 524 525
f 470 525 526
f 470 526 527
f 470 527 474
f 470 474 472
f 474 527 528
f 474 528 529
f 474 529 530
f 474 530 475
f 475 530 476
f 476 530 529
f 476 529 531
f 476 531 532
f 476 532 533
f 476 533 534
f 476 534 535
f 476 535 536
f 476 536 477
f 477 499 498
f 477 498 478
f 477 536 555
f 477 555 499
f 479 537 482
f 479 480 538
f 479 538 537
f 480 481 539
f 480 539 538
f 481 519 540
f 481 540 539
f 482 537 541
f 482 541 542
f 482 542 483
f 483 542 543
f 483 543 484
f 485 544 486
f 486 544 545
f 486 545 546
f 486 546 547
f 486 547 487
f 487 547 548
f 487 548 488
f 488 548 549
f 488 549 490
f 489 549 550
f 489 550 491
f 489 490 549
f 491 550 551
f 491 551 497
f 492 497 493
f 493 497 552
f 493 552 494
f 494 552 553
f 494 553 495
f 495 553 522
f 497 551 554
f 497 554 552
f 499 555 500
f 500 555 556
f 500 556 557
f 500 557 558
f 500 558 559
f 500 559 560
f 500 560 561
f 500 561 562
f 500 562 501
f 501 562 502
f 502 506 503
f 502 562 561
f 502 561 563
f 502 563 564
f 502 564 506
f 503 506 505
f 506 564 565
f 506 565 566
f 506 566 567
f 506 567 507
f 507 567 508
f 508 567 509
f 509 567 568
f 509 568 511
f 509 511 510
f 511 568 569
f 511 569 512
f 512 569 570
f 512 570 513
f 513 570 571
f 513 571 514
f 514 572 573
f 514 573 515
f 514 571 572
f 515 573 516
f 516 574 517
f 516 573 572
f 516 572 574
f 517 575 518
f 517 574 575
f 518 575 519
f 519 575 576
f 519 576 540
f 520 522 577
f 520 577 578
f 520 578 521
f 521 578 579
f 521 579 523
f 522 553 580
f 522 580 577
f 523 579 581
f 523 581 582
f 523 582 583
f 523 583 524
f 524 584 585
f 524 585 528
f 524 528 525
f 524 583 584
f 525 528 526
f 526 528 527
f 528 585 586
f 528 586 587
f 528 587 529
f 529 587 588
f 529 588 531
f 531 588 587
f 531 587 532
f 532 589 590
f 532 590 591
f 532 591 592
f 532 592 593
f 532 593 594
f 532 594 595
f 532 595 533
f 532 587 596
f 532 596 597
f 532 597 586
f 532 586 589
f 533 558 557
f 533 557 534
f 533 595 619
f 533 619 558
f 534 557 556
f 534 556 535
f 535 556 555
f 535 555 536
f 537 598 599
f 537 599 541
f 537 538 598
f 538 539 600
f 538 600 601
f 538 601 598
f 539 540 602
f 539 602 600
f 540 576 603
f 540 603 602
f 541 599 604
f 541 604 542
f 542 604 543
f 543 604 605
f 545 606 607
f 545 607 546
f 546 607 608
f 546 608 609
f 546 609 547
f 547 609 548
f 548 609 610
f 548 610 549
f 549 611 550
f 549 610 612
f 549 612 611
f 550 613 614
f 550 614 551
f 550 611 613
f 551 614 554
f 552 554 615
f 552 615 553
f 553 615 616
f 553 616 580
f 554 614 617
f 554 617 618
f 554 618 615
f 558 619 559
f 559 620 621
f 559 621 560
f 559 619 622
f 559 622 623
f 559 623 624
f 559 624 625
f 559 625 626
f 559 626 627
f 559 627 628
f 559 628 629
f 559 629 620
f 560 630 561
f 560 621 630
f 561 630 621
f 561 621 563
f 563 621 628
f 563 628 631
f 563 631 567
f 563 567 566
f 563 566 565
f 563 565 564
f 567 631 632
f 567 632 633
f 567 633 568
f 568 633 634
f 568 634 635
f 568 635 636
f 568 636 569
f 569 636 637
f 569 637 570
f 570 637 638
f 570 638 571
f 571 638 639
f 571 639 640
f 571 640 572
f 572 640 574
f 574 640 641
f 574 641 575
f 575 641 603
f 575 603 576
f 577 580 642
f 577 642 578
f 578 642 643
f 578 643 644
f 578 644 645
f 578 645 579
f 579 645 586
f 579 586 582
f 579 582 581
f 580 616 646
f 580 646 647
f 580 647 642
f 582 586 583
f 583 586 584
f 584 586 585
f 586 645 648
f 586 648 649
f 586 649 650
f 586 650 589
f 586 597 587
f 587 597 596
f 589 650 590
f 590 626 625
f 590 625 591
f 590 650 648
f 590 648 651
f 590 651 674
f 590 674 626
f 591 625 624
f 591 624 592
f 592 624 623
f 592 623 593
f 593 623 622
f 593 622 594
f 594 622 619
f 594 619 595
f 598 601 652
f 598 652 653
f 598 653 599
f 599 653 654
f 599 654 658
f 599 658 604
f 600 602 655
f 600 655 652
f 600 652 601
f 602 603 656
f 602 656 655
f 603 641 657
f 603 657 656
f 604 658 659
f 604 659 605
f 606 660 607
f 607 661 662
f 607 662 608
f 607 660 663
f 607 663 664
f 607 664 661
f 608 662 665
f 608 665 609
f 609 665 666
f 609 666 610
f 610 666 667
f 610 667 668
f 610 668 612
f 611 612 668
f 611 668 613
f 613 668 614
f 614 668 669
f 614 669 617
f 615 618 646
f 615 646 616
f 617 669 618
f 618 669 670
f 618 670 671
f 618 671 672
f 618 672 646
f 620 629 621
f 621 629 628
f 626 673 627
f 626 674 675
f 626 675 673
f 627 673 628
f 628 676 636
f 628 636 634
f 628 634 633
f 628 633 632
f 628 632 631
f 628 673 677
f 628 677 675
f 628 675 676
f 634 636 635
f 636 676 637
f 637 676 678
f 637 678 679
f 637 679 680
f 637 680 638
f 638 680 639
f 639 680 681
f 639 681 682
f 639 682 683
f 639 683 640
f 640 683 684
f 640 684 641
f 641 684 657
f 642 685 643
f 642 647 646
f 642 646 686
f 642 686 687
f 642 687 685
f 643 685 644
f 644 685 645
f 645 685 648
f 646 672 686
f 648 685 651
f 648 650 688
f 648 688 649
f 649 688 650
f 651 685 689
f 651 689 690
f 651 690 691
f 651 691 713
f 651 713 674
f 652 655 692
f 652 692 693
f 652 693 694
f 652 694 653
f 653 694 695
f 653 695 654
f 654 695 700
f 654 700 658
f 655 656 696
f 655 696 697
f 655 697 692
f 656 657 696
f 657 698 699
f 657 699 696
f 657 684 698
f 658 700 701
f 658 701 659
f 659 701 702
f 661 664 703
f 661 703 737
f 661 737 704
f 661 704 665
f 661 665 662
f 664 705 703
f 665 704 666
f 666 706 667
f 666 704 706
f 667 706 668
f 668 707 669
f 668 706 708
f 668 708 707
f 669 709 670
f 669 707 709
f 670 709 710
f 670 710 671
f 671 710 672
f 672 710 711
f 672 711 686
f 673 675 712
f 673 712 677
f 674 713 714
f 674 714 715
f 674 715 716
f 674 716 675
f 675 716 676
f 675 677 712
f 676 716 678
f 678 716 679
f 679 716 680
f 680 716 717
f 680 717 718
f 680 718 682
f 680 682 681
f 682 718 719
f 682 719 698
f 682 698 684
f 682 684 683
f 685 687 689
f 686 711 689
f 686 689 687
f 689 711 720
f 689 720 721
f 689 721 722
f 689 722 723
f 689 723 690
f 690 723 724
f 690 724 691
f 691 724 723
f 691 723 722
f 691 722 721
f 691 721 720
f 691 720 747
f 691 747 713
f 692 697 725
f 692 725 693
f 693 725 694
f 694 725 726
f 694 726 727
f 694 727 695
f 695 727 728
f 695 728 732
f 695 732 700
f 696 729 725
f 696 725 697
f 696 699 729
f 698 719 730
f 698 730 731
f 698 731 729
f 698 729 699
f 700 732 701
f 701 732 733
f 701 733 734
f 701 734 735
f 701 735 736
f 701 736 702
f 703 705 739
f 703 739 738
f 703 738 756
f 703 756 737
f 704 737 706
f 706 740 741
f 706 741 708
f 706 737 740
f 707 708 709
f 708 741 742
f 708 742 709
f 709 742 743
f 709 743 710
f 710 743 720
f 710 720 711
f 713 744 745
f 713 745 746
f 713 746 714
f 713 747 748
f 713 748 744
f 714 746 745
f 714 745 715
f 715 744 748
f 715 748 747
f 715 747 749
f 715 749 718
f 715 718 717
f 715 717 716
f 715 745 744
f 718 749 719
f 719 750 730
f 719 749 750
f 720 743 760
f 720 760 747
f 725 729 751
f 725 751 752
f 725 752 753
f 725 753 726
f 726 753 727
f 727 753 754
f 727 754 728
f 728 754 733
f 728 733 732
f 729 731 755
f 729 755 751
f 730 750 731
f 731 750 755
f 733 738 734
f 733 754 756
f 733 756 738
f 734 738 739
f 737 756 757
f 737 757 740
f 740 757 758
f 740 758 741
f 741 758 759
f 741 759 742
f 742 759 760
f 742 760 743
f 747 750 749
f 747 760 750
f 750 760 755
f 751 755 752
f 752 758 753
f 752 755 759
f 752 759 758
f 753 758 757
f 753 757 756
f 753 756 754
f 755 760 759

