# https://github.com/mikedh/trimesh
v 0.54822179 -6.83584042 -3.15401268
v 1.13263402 -6.73413264 -5.87647972
v 1.22736751 -6.74617726 -3.15401268
v 0.45081973 -6.82245784 -2.03151993
v -0.57390307 -6.82647272 -3.03673828
v -0.34440779 -6.82914913 -4.51105826
v -0.16561509 -6.81710501 -7.23352530
v 0.01050916 -6.80506039 -9.94761646
v 0.31205521 -6.80506039 -9.94761646
v 0.88579322 -6.43168573 -42.55020379
v 0.88579322 -6.15868038 -72.42194821
v 2.24408472 -6.22826967 -27.60595470
v 2.24408472 -6.28046202 -22.16939852
v 2.24408472 -6.42365598 -7.23352530
v 2.24408472 -6.46246575 -3.15401268
v 2.21739902 -6.41696469 -1.83047869
v 0.93382711 -6.73680905 -1.83047869
v 0.69098916 -6.77561883 -1.83047869
v 0.88579322 -6.13325318 -75.14441120
v 2.24408472 -5.77058417 -75.14441120
v 2.24408472 -6.00611821 -50.69247323
v -0.47116387 -6.79301628 -1.83047869
v -0.47116387 -6.81442860 -2.14041845
v -1.15164387 -6.79167782 -2.47549394
v -1.15164387 -6.79167782 -2.50899744
v -1.09560415 -6.78766345 -3.41369719
v 0.16528510 -6.79435474 -12.30988039
v -0.47116387 -6.63643974 -24.89186556
v 0.22933016 -6.79435474 -12.30988039
v 2.98327264 -5.46947571 -75.14441120
v 3.48229125 -5.77459904 -14.02712706
v 3.54900500 -5.81474677 -5.87647972
v 3.57035331 -5.82812985 -3.15401268
v 3.48896255 -5.81608523 -1.83047869
v 2.24408472 -6.40893494 -1.83047869
v 2.99528108 -5.47616700 -73.77899379
v 3.07266911 -5.52434397 -64.27129885
v -0.47116387 -6.18009219 -75.14441120
v 0.88579322 -6.11853214 -76.50145678
v 2.24408472 -5.75452518 -76.50145678
v 2.96992979 -5.46144597 -76.50145678
v -0.72200733 -6.77428037 -1.83047869
v -1.69469351 -6.63510128 -3.03673828
v -1.71070468 -6.60699767 -1.83047869
v -1.82945518 -6.39153800 -24.89186556
v -1.82945518 -6.21221068 -43.90724735
v -1.82945518 -5.94322020 -72.42194821
v -1.82945518 -5.91645505 -75.14441120
v -0.47116387 -6.20551939 -72.42194821
v -0.47116387 -6.57487969 -31.68546630
v -0.47116387 -6.26707944 -65.63672031
v 3.66241836 -4.97298044 -75.14441120
v 3.67442680 -4.98101019 -73.77899379
v 3.71845783 -5.01446663 -68.35081147
v 3.78517158 -5.06398206 -60.20016615
v 4.05202634 -5.26070683 -27.60595470
v 4.16143697 -5.34367869 -14.02712706
v 4.23882500 -5.40122438 -4.51105826
v 4.24949903 -5.40925362 -3.15401268
v 3.37288088 -5.70634770 -27.60595470
v 3.54366786 -5.78798162 -1.83047869
v 3.52498812 -5.79868778 -1.83047869
v -0.47116387 -6.16537166 -76.50145678
v 0.88579322 -6.06366389 -77.85850237
v 2.35482951 -5.65415536 -77.85012649
v 2.94858148 -5.44806339 -77.38940074
v 3.64907551 -4.96227428 -76.50145678
v -3.18774662 -6.04626644 -3.15401268
v -1.82945518 -6.58290944 -4.51105826
v -1.82945518 -6.55748224 -7.23352530
v -1.82945518 -6.53205504 -9.94761646
v -3.18774662 -5.99675050 -1.83047869
v -2.75944449 -5.56984503 -75.14441120
v -2.74343357 -5.56181528 -76.50145678
v -1.82945518 -5.90173402 -76.50145678
v 4.48299729 -4.28377578 -76.50145678
v 4.49233716 -4.29314348 -75.14441120
v 4.76186049 -4.57417858 -28.96299927
v 4.88061099 -4.69729868 -8.59057088
v 4.89662241 -4.71335767 -5.87647972
v 4.91129942 -4.72941666 -3.15401268
v 4.87927658 -4.69596022 -1.83047869
v 4.20413384 -5.37445872 -1.83047869
v 4.50034262 -4.30251118 -73.77899379
v 4.55638235 -4.36005636 -64.27129885
v -0.47116387 -6.11050290 -77.85850237
v -0.47116387 -5.96463252 -79.21554795
v 0.88579322 -5.91511659 -79.21554795
v 2.05061476 -5.62337533 -79.21554795
v 2.88186772 -5.41460695 -78.30247637
v 3.48229125 -5.01714304 -77.85012649
v 4.44830613 -4.24764242 -77.85850237
v -4.03367659 -5.55913887 -3.15401268
v -4.01499685 -5.54575629 -5.87647972
v -3.92026324 -5.47349008 -19.45530736
v -3.87222948 -5.43735723 -26.24890911
v -3.86689233 -5.43334235 -26.95256155
v -3.99231438 -5.52835884 -1.83047869
v -3.46260709 -5.16970471 -72.42194821
v -3.43859021 -5.15364572 -75.14441120
v -3.80151274 -5.39051821 -34.39955645
v -3.42257878 -5.14427802 -76.50145678
v -2.69006216 -5.53237372 -77.85850237
v -1.82945518 -5.84418884 -77.85850237
v 5.13946004 -3.39516993 -76.50145678
v 5.15813978 -3.39516993 -75.14441120
v 5.56776217 -3.96526937 -7.23352530
v 5.59044514 -4.00006427 -3.15401268
v 5.55842230 -3.95188679 -1.83047869
v -1.92685711 -5.65415536 -79.26580724
v -1.48254407 -5.53906500 -80.57259353
v -1.20501477 -5.45073980 -81.30975149
v -0.47116387 -5.70233283 -80.57259353
v 0.55889601 -5.48821112 -81.42702993
v 0.96184684 -5.61802250 -80.67311617
v 1.79977117 -5.52434397 -80.27940552
v 2.72976048 -5.34635561 -79.21554795
v 3.60237590 -4.74146128 -79.21554795
v 4.35357252 -4.14994952 -79.21554795
v 5.07408044 -3.39516993 -77.85850237
v -4.71282231 -4.94487683 -3.15401268
v -4.28318577 -4.47380876 -75.14441120
v -4.27384590 -4.46444105 -76.50145678
v -4.65411427 -4.92212655 -1.83047869
v -4.23648642 -4.42964616 -77.85850237
v -3.37054229 -5.10948312 -77.85850237
v -2.60066594 -5.48285829 -78.85534484
v 5.61846475 -2.65778779 -76.50145678
v 5.62647021 -2.68053807 -75.14441120
v 5.63847890 -2.70997989 -72.87429404
v 5.64248163 -2.72068605 -71.96959834
v 5.88665367 -3.15562102 -22.16939852
v 5.97871897 -3.32156551 -3.15401268
v 5.94002457 -3.29078549 -1.83047869
v -2.44322156 -5.40925362 -79.76004054
v -2.16168953 -5.30754584 -80.57259353
v -1.72671611 -5.08004155 -81.82911646
v -1.86948348 -4.42429333 -83.33694399
v -1.44384992 -4.19545032 -84.19975627
v -0.47116387 -4.80302133 -83.29506057
v -0.47116387 -5.26472119 -82.10555273
v -0.47116387 -5.48821112 -81.42702993
v 1.46353409 -5.41594491 -81.18410122
v 0.88579322 -4.74279923 -83.29506057
v 0.96184684 -5.26472119 -81.90450744
v 2.24942161 -5.23126476 -80.67311617
v 3.20342805 -4.29180502 -81.92963911
v 3.64640694 -4.42964616 -80.44693921
v 4.28685902 -4.07902151 -79.91082249
v 4.89662241 -3.39516993 -79.21554795
v 5.58777632 -2.57749209 -77.85850237
v -5.34927141 -4.22623035 -1.83047869
v -5.38129375 -4.26503987 -3.15401268
v -5.36661674 -4.24764242 -5.87647972
v -5.33726272 -4.21150957 -11.30466204
v -5.23318923 -4.08437459 -30.32004485
v -5.22785209 -4.07768331 -31.24149433
v -5.22251495 -4.07099202 -32.14619104
v -5.20116689 -4.04155020 -35.75660204
v -4.98768278 -3.74980919 -71.06490263
v -4.97967732 -3.73776483 -72.42194821
v -4.96233149 -3.71501430 -75.14441120
v -4.95299162 -3.70163172 -76.50145678
v -4.91563214 -3.65211604 -77.85850237
v -4.13908449 -4.33596762 -79.21554795
v -3.10635611 -5.08405592 -79.26580724
v 5.85463133 -1.97795071 -76.50145678
v 5.82794563 -1.89899333 -77.85850237
v 5.86263679 -2.00070124 -75.14441120
v 5.86930834 -2.01943689 -73.77899379
v 6.17218842 -2.03683422 -41.19315821
v 6.45505486 -2.03683422 -11.30466204
v 6.51910004 -2.03683422 -4.51105826
v 6.53110823 -2.03683422 -3.15401268
v 5.95069885 -3.27204983 -1.83047869
v -3.31983971 -4.59692886 -80.69824380
v -2.99694548 -4.41358717 -81.92963911
v -2.71407955 -4.21686265 -82.91810166
v -2.34982235 -3.99471119 -83.82279737
v -0.47116387 -4.29314348 -84.38404576
v -1.86948348 -3.71902917 -84.65210615
v -1.82945518 -3.01242706 -85.69920792
v -0.47116387 -3.92512139 -85.06256855
v 0.88579322 -4.26102500 -84.32540654
v 1.72238326 -4.15262593 -84.11598942
v 2.24408472 -4.82844802 -81.92963911
v 2.99928406 -4.13255207 -82.73381217
v 4.12674581 -3.90906240 -80.81552224
v 4.60041338 -3.43264124 -80.44693921
v 5.50505140 -2.36337012 -79.21554795
v 5.75322616 -1.68353316 -79.21554795
v -5.85229249 -3.41925867 -1.83047869
v -5.92834637 -3.39516993 -3.15401268
v -5.91500377 -3.39516993 -4.51105826
v -5.41731932 -3.03651579 -75.14441120
v -5.40797945 -3.02179476 -76.50145678
v -5.37862543 -2.97361754 -77.85850237
v -5.29856882 -2.83979128 -79.21554795
v -4.81823021 -3.51829003 -79.21554795
v -4.00298866 -4.20481828 -80.32966482
v 6.14550322 -0.67849869 -76.50145678
v 6.16151414 -0.67849869 -75.14441120
v 6.09079791 -0.67849869 -77.85850237
v 6.71657273 -0.67849869 -14.02712706
v 6.81530907 -0.67849869 -3.15401268
v 6.76594090 -0.67849869 -1.83047869
v 6.47773732 -2.03683422 -1.83047869
v -3.86022129 -4.06831560 -81.23436052
v -3.67609069 -3.89701803 -81.92963911
v -3.26113167 -3.46609768 -83.39558321
v -2.86084966 -3.04856016 -84.65210615
v -2.58332036 -2.78626072 -85.41439578
v -0.90613742 -2.66314062 -86.64578705
v -0.46048971 -3.15829743 -86.11804620
v -0.00016499 -2.74745120 -86.71280214
v 0.32006092 -2.74745120 -86.71280214
v 0.88579322 -3.88363546 -85.00392933
v 1.95321283 -2.98566191 -85.66570037
v 2.29078432 -3.43531766 -84.68561370
v 2.62835556 -3.88631187 -83.63850787
v 2.20272201 -4.32526197 -83.22804547
v 3.17407378 -2.98030883 -84.35053821
v 3.53966513 -3.32691859 -83.16103037
v 3.88257352 -3.64943962 -81.92963911
v 4.31754694 -2.76752507 -82.69192875
v 4.46164873 -2.97094087 -81.92963911
v 5.37295830 -1.97259775 -80.54746185
v 5.68117552 -1.47610261 -80.06998435
v 5.94402780 -0.67849869 -79.21554795
v -5.86696951 -3.39516993 -1.83047869
v -6.45271602 -2.30983957 -3.15401268
v -5.84695535 -2.03683422 -75.14441120
v -5.83094444 -2.03683422 -76.50145678
v -5.77357030 -2.03683422 -77.85850237
v -5.23719196 -2.73674504 -79.94433004
v -5.61879474 -2.03683422 -79.21554795
v -4.55938065 -3.40186122 -80.58934528
v 6.14550322 0.67849869 -76.50145678
v 6.16151414 0.67849869 -75.14441120
v 6.09079791 0.67849869 -77.85850237
v 6.71657273 0.67849869 -14.02712706
v 6.81530907 0.67849869 -3.15401268
v 6.76594090 0.67849869 -1.83047869
v -4.25116343 -3.21851928 -81.92963911
v -4.03767932 -2.93882264 -82.95998508
v -3.80818429 -2.62031648 -83.87306071
v -2.84083500 -2.03683422 -85.72433554
v -2.49659246 -1.32621736 -86.67929460
v -1.95887996 -2.14121866 -86.43636588
v -3.55467188 -2.11579172 -84.70236545
v -1.59195444 -1.75713758 -86.90546751
v -0.46048971 -2.14121866 -86.98924245
v 0.81774524 -2.08768823 -86.95573086
v 1.22469894 -2.57481542 -86.57039608
v 0.81774524 -3.12617920 -86.07616278
v 2.85918500 -2.64440497 -85.25523392
v 2.35482951 -2.15727790 -86.10129445
v 4.08004621 -2.34061959 -83.59662445
v 4.31621304 -1.43595475 -84.03221853
v 4.46298314 -1.94850902 -83.20291380
v 4.92330761 -2.03683422 -81.92963911
v 5.29557001 -0.67849869 -81.92963911
v 5.58110477 -0.67849869 -81.00818761
v 5.74121798 -0.67849869 -80.32966482
v 5.94402780 0.67849869 -79.21554795
v -6.42336200 -2.23222053 -1.83047869
v -6.64218325 -1.55372177 -1.83047869
v -6.66486572 -1.63000273 -3.15401268
v -6.65285753 -1.58851667 -5.87647972
v -6.64084884 -1.54703049 -8.59057088
v -6.60348936 -1.42257218 -16.74121822
v -6.58614353 -1.36636521 -20.41864228
v -6.16051022 -0.67849869 -75.14441120
v -6.14583321 -0.67849869 -76.50145678
v -6.58214080 -1.34227647 -21.32333799
v -6.09112790 -0.67849869 -77.85850237
v -5.94435779 -0.67849869 -79.21554795
v -5.38262816 -2.01542215 -80.47207088
v -5.11443873 -2.45437199 -80.84902979
v 5.85463133 1.97795071 -76.50145678
v 5.82794563 1.89899333 -77.85850237
v 5.86263679 2.00070124 -75.14441120
v 6.51910004 2.03683422 -4.51105826
v 5.75322616 1.68353316 -79.21554795
v 6.53110823 2.03683422 -3.15401268
v 6.47773732 2.03683422 -1.83047869
v -4.94098343 -2.01542215 -81.92963911
v -4.29386005 -2.11579172 -83.37045154
v -4.03767932 -1.71431319 -84.28352312
v -2.60600308 -0.42021415 -86.77144541
v -1.95887996 -0.79492744 -87.02274595
v -3.78283300 -0.91001792 -85.18822287
v -3.19441817 -0.66511605 -86.00914768
v -0.47116387 -0.67849869 -87.40807668
v 0.88579322 -0.67849869 -87.36619326
v 1.85047363 -1.66881225 -86.86358409
v 3.15272547 -1.73840192 -85.63219282
v 3.61705292 -2.03951076 -84.64372622
v 4.38426095 -0.67849869 -84.16624872
v 4.77920582 -0.67849869 -83.29506057
v 3.33151816 -0.67849869 -85.87512154
v 4.01066388 -0.67849869 -84.84477151
v 5.29557001 0.67849869 -81.92963911
v 5.58110477 0.67849869 -81.00818761
v 5.74121798 0.67849869 -80.32966482
v 5.68117552 1.47610261 -80.06998435
v -6.77027362 -0.67849869 -1.83047869
v -6.81563906 -0.67849869 -3.15401268
v -6.17385282 -0.67849869 -73.77899379
v -6.58347521 -0.00267652 -36.47700825
v -6.14583321 0.67849869 -76.50145678
v -6.56612938 -1.18703814 -24.89186556
v -6.09112790 0.67849869 -77.85850237
v -5.94435779 0.67849869 -79.21554795
v -5.68150551 -0.67849869 -80.57259353
v -5.29590000 -1.54836882 -81.46891336
v 5.61846475 2.65778779 -76.50145678
v 5.58777632 2.57749209 -77.85850237
v 5.62647021 2.68053807 -75.14441120
v 5.63847890 2.70997989 -72.87429404
v 5.86930834 2.01943689 -73.77899379
v 6.17218842 2.03683422 -41.19315821
v 6.45505486 2.03683422 -11.30466204
v 5.64248163 2.72068605 -71.96959834
v 5.50505140 2.36337012 -79.21554795
v 5.88665367 3.15562102 -22.16939852
v 5.97871897 3.32156551 -3.15401268
v 5.95069885 3.27204983 -1.83047869
v -4.77820190 -0.67849869 -83.29506057
v -4.11373320 -0.54601076 -84.70236545
v -2.60600308 0.42021415 -86.77144541
v -3.86822675 -0.00401478 -85.33062894
v -1.95887996 0.79492744 -87.02274595
v -0.47116387 0.67849869 -87.40807668
v 0.88579322 0.67849869 -87.36619326
v 2.09064306 -0.67849869 -87.00598611
v 2.76978878 -0.67849869 -86.55364433
v 4.38426095 0.67849869 -84.16624872
v 4.77920582 0.67849869 -83.29506057
v 3.33151816 0.67849869 -85.87512154
v 4.01066388 0.67849869 -84.84477151
v 4.31621304 1.43595475 -84.03221853
v 4.92330761 2.03683422 -81.92963911
v 5.37295830 1.97259775 -80.54746185
v -6.77027362 0.67849869 -1.83047869
v -6.81563906 0.67849869 -3.15401268
v -6.58747794 -0.03479480 -35.75660204
v -6.60615768 -0.21144535 -31.68546630
v -6.58347521 0.00267652 -36.47700825
v -6.16051022 0.67849869 -75.14441120
v -5.84695535 2.03683422 -75.14441120
v -5.83094444 2.03683422 -76.50145678
v -5.77357030 2.03683422 -77.85850237
v -5.61879474 2.03683422 -79.21554795
v -5.38262816 2.01542215 -80.47207088
v -5.68150551 0.67849869 -80.57259353
v -5.37328829 -0.67849869 -81.71184207
v -5.14912990 -0.67849869 -82.39036081
v 5.07408044 3.39516993 -77.85850237
v 5.13946004 3.39516993 -76.50145678
v 4.89662241 3.39516993 -79.21554795
v 5.15813978 3.39516993 -75.14441120
v 5.56776217 3.96526937 -7.23352530
v 5.59044514 4.00006427 -3.15401268
v 4.60041338 3.43264124 -80.44693921
v 5.55842230 3.95188679 -1.83047869
v -4.77820190 0.67849869 -83.29506057
v -3.86822675 0.00401478 -85.33062894
v -3.19441817 0.66511605 -86.00914768
v -2.49659246 1.32621736 -86.67929460
v -1.59195444 1.75713758 -86.90546751
v -0.46048971 2.14121866 -86.98924245
v 2.09064306 0.67849869 -87.00598611
v 0.81774524 2.08768823 -86.95573086
v 1.85047363 1.66881225 -86.86358409
v 2.76978878 0.67849869 -86.55364433
v 3.15272547 1.73840192 -85.63219282
v 4.08004621 2.34061959 -83.59662445
v 4.31754694 2.76752507 -82.69192875
v 4.46298314 1.94850902 -83.20291380
v 3.61705292 2.03951076 -84.64372622
v 4.46164873 2.97094087 -81.92963911
v -6.64618598 1.52695662 -1.83047869
v -6.64218325 1.55372177 -1.83047869
v -6.66486572 1.63000273 -3.15401268
v -6.65285753 1.58851667 -5.87647972
v -6.64084884 1.54703049 -8.59057088
v -6.60348936 1.42257218 -16.74121822
v -6.58614353 1.36636521 -20.41864228
v -6.58214080 1.34227647 -21.32333799
v -6.56612938 1.18703814 -24.89186556
v -6.60615768 0.21144535 -31.68546630
v -6.58747794 0.03479480 -35.75660204
v -6.17385282 0.67849869 -73.77899379
v -5.41731932 3.03651579 -75.14441120
v -5.40797945 3.02179476 -76.50145678
v -6.45271602 2.30983957 -3.15401268
v -5.37862543 2.97361754 -77.85850237
v -5.29856882 2.83979128 -79.21554795
v -5.23719196 2.73674504 -79.94433004
v -5.11443873 2.45437199 -80.84902979
v -5.29590000 1.54836882 -81.46891336
v -5.37328829 0.67849869 -81.71184207
v -5.14912990 0.67849869 -82.39036081
v 4.35357252 4.14994952 -79.21554795
v 4.44830613 4.24764242 -77.85850237
v 4.48299729 4.28377578 -76.50145678
v 4.28685902 4.07902151 -79.91082249
v 4.49233716 4.29314348 -75.14441120
v 4.74584907 4.55811908 -31.68546630
v 4.88061099 4.69729868 -8.59057088
v 4.89662241 4.71335767 -5.87647972
v 4.91129942 4.72941666 -3.15401268
v 4.87927658 4.69596022 -1.83047869
v 4.50034262 4.30251118 -73.77899379
v 4.55638235 4.36005636 -64.27129885
v 4.12674581 3.90906240 -80.81552224
v -4.03767932 1.71431319 -84.28352312
v -4.11373320 0.54601076 -84.70236545
v -3.78283300 0.91001792 -85.18822287
v -1.95887996 2.14121866 -86.43636588
v -3.55467188 2.11579172 -84.70236545
v -2.84083500 2.03683422 -85.72433554
v -2.58332036 2.78626072 -85.41439578
v -0.90613742 2.66314062 -86.64578705
v -0.00016499 2.74745120 -86.71280214
v 0.32006092 2.74745120 -86.71280214
v 1.22469894 2.57481542 -86.57039608
v 2.35482951 2.15727790 -86.10129445
v 2.85918500 2.64440497 -85.25523392
v 3.17407378 2.98030883 -84.35053821
v 3.53966513 3.32691859 -83.16103037
v 3.88257352 3.64943962 -81.92963911
v -6.63684611 1.57245743 -1.83047869
v -4.98768278 3.74980919 -71.06490263
v -4.97967732 3.73776483 -72.42194821
v -4.96233149 3.71501430 -75.14441120
v -4.95299162 3.70163172 -76.50145678
v -5.92834637 3.39516993 -3.15401268
v -5.91500377 3.39516993 -4.51105826
v -5.23318923 4.08437459 -30.32004485
v -5.22785209 4.07768331 -31.24149433
v -5.22251495 4.07099202 -32.14619104
v -5.20116689 4.04155020 -35.75660204
v -6.42336200 2.23222053 -1.83047869
v -5.88164652 3.36572811 -1.83047869
v -4.91563214 3.65211604 -77.85850237
v -4.81823021 3.51829003 -79.21554795
v -4.55938065 3.40186122 -80.58934528
v -4.25116343 3.21851928 -81.92963911
v -4.03767932 2.93882264 -82.95998508
v -4.94098343 2.01542215 -81.92963911
v -4.29386005 2.11579172 -83.37045154
v 3.60237590 4.74146128 -79.21554795
v 3.48229125 5.01714304 -77.85012649
v 3.64907551 4.96227428 -76.50145678
v 3.66241836 4.97298044 -75.14441120
v 3.67442680 4.98101019 -73.77899379
v 3.71845783 5.01446663 -68.35081147
v 3.91859909 5.16301342 -43.90724735
v 4.07337491 5.27810428 -24.89186556
v 4.23882500 5.40122438 -4.51105826
v 3.64640694 4.42964616 -80.44693921
v 4.24949903 5.40925362 -3.15401268
v 4.20413384 5.37445872 -1.83047869
v 2.99928406 4.13255207 -82.73381217
v 3.20342805 4.29180502 -81.92963911
v -3.80818429 2.62031648 -83.87306071
v -1.82945518 3.01242706 -85.69920792
v -2.86084966 3.04856016 -84.65210615
v -2.34982235 3.99471119 -83.82279737
v -1.86948348 3.71902917 -84.65210615
v -0.47116387 3.92512139 -85.06256855
v -0.46048971 3.15829743 -86.11804620
v 0.81774524 3.12617920 -86.07616278
v 0.88579322 3.88363546 -85.00392933
v 1.95321283 2.98566191 -85.66570037
v 2.29078432 3.43531766 -84.68561370
v 2.62835556 3.88631187 -83.63850787
v -4.27384590 4.46444105 -76.50145678
v -4.23648642 4.42964616 -77.85850237
v -5.86696951 3.39516993 -1.83047869
v -5.34927141 4.22623035 -1.83047869
v -5.38129375 4.26503987 -3.15401268
v -5.36661674 4.24764242 -5.87647972
v -5.33726272 4.21150957 -11.30466204
v -4.71282231 4.94487683 -3.15401268
v -4.28318577 4.47380876 -75.14441120
v -4.13908449 4.33596762 -79.21554795
v -4.00298866 4.20481828 -80.32966482
v -3.86022129 4.06831560 -81.23436052
v -3.67609069 3.89701803 -81.92963911
v -3.26113167 3.46609768 -83.39558321
v 2.72976048 5.34635561 -79.21554795
v 2.88186772 5.41460695 -78.30247637
v 2.94858148 5.44806339 -77.38940074
v 2.96992979 5.46144597 -76.50145678
v 2.98327264 5.46947571 -75.14441120
v 3.42758594 5.74114260 -20.81235294
v 3.54900500 5.81474677 -5.87647972
v 3.57035331 5.82812985 -3.15401268
v 3.52498812 5.79868778 -1.83047869
v 4.18545385 5.38650334 -1.83047869
v 2.99528108 5.47616700 -73.77899379
v 3.07266911 5.52434397 -64.27129885
v 3.23945337 5.62605225 -43.90724735
v 1.72238326 4.15262593 -84.11598942
v 2.20272201 4.32526197 -83.22804547
v 2.24408472 4.82844802 -81.92963911
v 2.24942161 5.23126476 -80.67311617
v -1.44384992 4.19545032 -84.19975627
v -2.71407955 4.21686265 -82.91810166
v -1.86948348 4.42429333 -83.33694399
v -0.47116387 4.29314348 -84.38404576
v 0.88579322 4.26102500 -84.32540654
v -3.86022129 5.42798953 -27.88238994
v -3.46260709 5.16970471 -72.42194821
v -3.43859021 5.15364572 -75.14441120
v -3.42257878 5.14427802 -76.50145678
v -3.37054229 5.10948312 -77.85850237
v -4.67145960 4.90472910 -1.83047869
v -3.99231438 5.52835884 -1.83047869
v -4.03367659 5.55913887 -3.15401268
v -4.01499685 5.54575629 -5.87647972
v -3.92026324 5.47349008 -19.45530736
v -3.87222948 5.43735723 -26.24890911
v -3.86689233 5.43334235 -26.96931533
v -3.10635611 5.08405592 -79.26580724
v -3.31983971 4.59692886 -80.69824380
v -2.99694548 4.41358717 -81.92963911
v 1.79977117 5.52434397 -80.27940552
v 2.05061476 5.62337533 -79.21554795
v 2.35482951 5.65415536 -77.85012649
v 2.24408472 5.75452518 -76.50145678
v 2.24408472 5.77058417 -75.14441120
v 2.24408472 6.12388548 -38.47069117
v 2.24408472 6.28046202 -22.16939852
v 2.24408472 6.42365598 -7.23352530
v 2.24408472 6.46246575 -3.15401268
v 2.24408472 6.40893494 -1.83047869
v 0.88579322 4.74279923 -83.29506057
v 1.46353409 5.41594491 -81.18410122
v -1.20501477 5.45073980 -81.30975149
v -0.47116387 4.80302133 -83.29506057
v -2.16168953 5.30754584 -80.57259353
v -1.72671611 5.08004155 -81.82911646
v -3.18774662 6.04626644 -3.15401268
v -2.75944449 5.56984503 -75.14441120
v -2.74343357 5.56181528 -76.50145678
v -2.69006216 5.53237372 -77.85850237
v -2.60066594 5.48285829 -78.85534484
v -3.96963141 5.54174142 -1.83047869
v -3.18774662 5.99675050 -1.83047869
v -2.44322156 5.40925362 -79.76004054
v 0.96184684 5.61802250 -80.67311617
v 0.88579322 5.91511659 -79.21554795
v 0.88579322 6.06366389 -77.85850237
v 0.88579322 6.11853214 -76.50145678
v 0.88579322 6.13325318 -75.14441120
v 1.22736751 6.74617726 -3.15401268
v 0.93382711 6.73680905 -1.83047869
v 0.55889601 5.48821112 -81.42702993
v 0.96184684 5.26472119 -81.90450744
v -0.47116387 5.48821112 -81.42702993
v -0.47116387 5.26472119 -82.10555273
v -1.48254407 5.53906500 -80.57259353
v -0.47116387 5.96463252 -79.21554795
v -0.47116387 5.70233283 -80.57259353
v -1.71070468 6.60699767 -1.83047869
v -1.69469351 6.63510128 -3.03673828
v -1.82945518 6.58290944 -4.51105826
v -1.82945518 6.21221068 -43.90724735
v -1.82945518 5.94322020 -72.42194821
v -1.82945518 5.91645505 -75.14441120
v -1.82945518 6.55748224 -7.23352530
v -1.82945518 6.53205504 -9.94761646
v -1.82945518 6.41696469 -22.16939852
v -1.82945518 5.90173402 -76.50145678
v -1.82945518 5.84418884 -77.85850237
v -1.92685711 5.65415536 -79.26580724
v -0.47116387 6.11050290 -77.85850237
v -0.47116387 6.16537166 -76.50145678
v -0.47116387 6.18009219 -75.14441120
v 0.22933016 6.79435474 -12.30988039
v 0.88579322 6.15868038 -72.42194821
v 1.13263402 6.73413264 -5.87647972
v 0.54822179 6.83584042 -3.15401268
v 0.45081973 6.82245784 -2.03151993
v 0.69098916 6.77561883 -1.83047869
v -0.47116387 6.79301628 -1.83047869
v -1.15164387 6.79167782 -2.47549394
v -1.15164387 6.79167782 -2.50899744
v -0.47116387 6.20551939 -72.42194821
v 0.16528510 6.79435474 -12.30988039
v 0.31205521 6.80506039 -9.94761646
v 0.88579322 6.29518305 -57.48607499
v 0.01050916 6.80506039 -9.94761646
v -0.16561509 6.81710501 -7.23352530
v -0.34440779 6.82914913 -4.51105826
v -0.57390307 6.82647272 -3.03673828
v -0.47116387 6.81442860 -2.14041845
v 0.13192823 6.80238398 -1.83047869
v -1.09560415 6.78766345 -3.41369719
v -0.47116387 6.50127502 -39.83611263
f 1 2 3
f 1 3 4
f 1 4 5
f 1 5 6
f 1 6 7
f 1 7 8
f 1 8 9
f 1 9 2
f 2 9 10
f 2 10 11
f 2 11 3
f 3 12 13
f 3 13 14
f 3 14 15
f 3 15 16
f 3 16 17
f 3 17 18
f 3 18 4
f 3 11 19
f 3 19 20
f 3 20 21
f 3 21 12
f 4 18 22
f 4 22 23
f 4 23 5
f 5 23 24
f 5 24 25
f 5 25 26
f 5 26 6
f 6 26 8
f 6 8 7
f 8 27 29
f 8 29 9
f 8 26 28
f 8 28 27
f 9 29 10
f 10 29 11
f 11 29 19
f 12 21 30
f 12 30 13
f 13 30 14
f 14 30 15
f 15 31 32
f 15 32 33
f 15 33 34
f 15 34 35
f 15 35 16
f 15 30 36
f 15 36 37
f 15 37 31
f 16 35 34
f 16 34 62
f 16 62 61
f 16 61 83
f 16 83 82
f 16 82 109
f 16 109 134
f 16 134 175
f 16 175 207
f 16 207 206
f 16 206 243
f 16 243 286
f 16 286 328
f 16 328 366
f 16 366 414
f 16 414 465
f 16 465 503
f 16 503 502
f 16 502 540
f 16 540 561
f 16 561 589
f 16 589 602
f 16 602 590
f 16 590 569
f 16 569 553
f 16 553 552
f 16 552 522
f 16 522 521
f 16 521 483
f 16 483 482
f 16 482 446
f 16 446 445
f 16 445 434
f 16 434 384
f 16 384 383
f 16 383 345
f 16 345 307
f 16 307 267
f 16 267 266
f 16 266 230
f 16 230 192
f 16 192 152
f 16 152 124
f 16 124 98
f 16 98 72
f 16 72 44
f 16 44 42
f 16 42 22
f 16 22 18
f 16 18 17
f 19 29 38
f 19 38 63
f 19 63 39
f 19 39 20
f 20 39 40
f 20 40 41
f 20 41 30
f 20 30 21
f 22 42 24
f 22 24 23
f 24 43 25
f 24 42 44
f 24 44 43
f 25 43 45
f 25 45 46
f 25 46 47
f 25 47 48
f 25 48 38
f 25 38 49
f 25 49 26
f 26 50 28
f 26 49 51
f 26 51 50
f 27 28 50
f 27 50 51
f 27 51 49
f 27 49 38
f 27 38 29
f 30 41 52
f 30 52 53
f 30 53 54
f 30 54 55
f 30 55 56
f 30 56 57
f 30 57 58
f 30 58 59
f 30 59 36
f 31 59 32
f 31 37 60
f 31 60 59
f 32 59 33
f 33 59 61
f 33 61 62
f 33 62 34
f 36 59 37
f 37 59 60
f 38 48 75
f 38 75 63
f 39 63 86
f 39 86 64
f 39 64 40
f 40 64 65
f 40 65 66
f 40 66 41
f 41 67 52
f 41 66 67
f 43 44 68
f 43 68 69
f 43 69 70
f 43 70 71
f 43 71 45
f 44 72 68
f 45 71 73
f 45 73 46
f 46 73 47
f 47 73 48
f 48 73 74
f 48 74 75
f 52 67 76
f 52 76 53
f 53 76 54
f 54 76 55
f 55 76 56
f 56 76 57
f 57 76 58
f 58 76 77
f 58 77 59
f 59 78 79
f 59 79 80
f 59 80 81
f 59 81 82
f 59 82 83
f 59 83 61
f 59 77 84
f 59 84 85
f 59 85 78
f 63 75 86
f 64 86 87
f 64 87 88
f 64 88 89
f 64 89 65
f 65 89 90
f 65 90 66
f 66 90 91
f 66 91 67
f 67 91 92
f 67 92 76
f 68 72 93
f 68 93 94
f 68 94 95
f 68 95 96
f 68 96 97
f 68 97 73
f 68 73 69
f 69 73 70
f 70 73 71
f 72 98 93
f 73 99 100
f 73 100 74
f 73 97 101
f 73 101 99
f 74 100 102
f 74 102 103
f 74 103 75
f 75 103 104
f 75 104 86
f 76 92 105
f 76 105 106
f 76 106 107
f 76 107 77
f 77 107 108
f 77 108 84
f 78 108 79
f 78 85 108
f 79 108 80
f 80 108 81
f 81 108 82
f 82 108 109
f 84 108 85
f 86 104 87
f 87 110 111
f 87 111 112
f 87 112 113
f 87 113 88
f 87 104 110
f 88 113 114
f 88 114 115
f 88 115 116
f 88 116 89
f 89 117 90
f 89 116 117
f 90 117 118
f 90 118 91
f 91 118 119
f 91 119 92
f 92 120 105
f 92 119 120
f 93 98 121
f 93 121 94
f 94 121 95
f 95 121 96
f 96 121 122
f 96 122 97
f 97 122 123
f 97 123 101
f 98 124 121
f 99 123 100
f 99 101 123
f 100 123 102
f 102 123 125
f 102 125 126
f 102 126 103
f 103 126 127
f 103 127 104
f 104 127 110
f 105 128 129
f 105 129 130
f 105 130 106
f 105 120 128
f 106 130 131
f 106 131 107
f 107 131 108
f 108 132 133
f 108 133 134
f 108 134 109
f 108 131 132
f 110 135 111
f 110 127 135
f 111 136 112
f 111 135 136
f 112 137 138
f 112 138 139
f 112 139 140
f 112 140 141
f 112 141 142
f 112 142 113
f 112 136 137
f 113 142 114
f 114 143 115
f 114 142 141
f 114 141 140
f 114 140 144
f 114 144 145
f 114 145 143
f 115 143 116
f 116 143 146
f 116 146 117
f 117 146 147
f 117 147 148
f 117 148 118
f 118 148 149
f 118 149 119
f 119 150 120
f 119 149 150
f 120 151 128
f 120 150 151
f 121 124 152
f 121 152 153
f 121 153 154
f 121 154 155
f 121 155 156
f 121 156 122
f 122 156 157
f 122 157 158
f 122 158 123
f 123 158 159
f 123 159 160
f 123 160 161
f 123 161 162
f 123 162 163
f 123 163 125
f 125 163 164
f 125 164 165
f 125 165 126
f 126 165 166
f 126 166 127
f 127 166 135
f 128 167 169
f 128 169 129
f 128 151 168
f 128 168 167
f 129 169 130
f 130 169 170
f 130 170 171
f 130 171 172
f 130 172 173
f 130 173 131
f 131 173 174
f 131 174 132
f 132 174 133
f 133 174 175
f 133 175 134
f 135 166 176
f 135 176 177
f 135 177 136
f 136 177 178
f 136 178 137
f 137 178 138
f 138 178 179
f 138 179 139
f 139 180 140
f 139 179 181
f 139 181 182
f 139 182 183
f 139 183 180
f 140 180 184
f 140 184 144
f 143 145 144
f 143 144 185
f 143 185 186
f 143 186 146
f 144 184 185
f 146 186 147
f 147 186 187
f 147 187 188
f 147 188 148
f 148 188 149
f 149 188 189
f 149 189 150
f 150 190 151
f 150 189 190
f 151 190 191
f 151 191 168
f 152 192 193
f 152 193 153
f 153 193 154
f 154 193 155
f 155 193 156
f 156 193 194
f 156 194 195
f 156 195 157
f 157 195 158
f 158 195 159
f 159 195 160
f 160 195 161
f 161 195 162
f 162 195 163
f 163 195 196
f 163 196 197
f 163 197 164
f 164 197 198
f 164 198 199
f 164 199 165
f 165 199 200
f 165 200 166
f 166 200 176
f 167 201 202
f 167 202 169
f 167 168 201
f 168 203 201
f 168 191 203
f 169 202 173
f 169 173 172
f 169 172 171
f 169 171 170
f 173 204 205
f 173 205 174
f 173 202 204
f 174 205 206
f 174 206 207
f 174 207 175
f 176 200 208
f 176 208 177
f 177 208 178
f 178 208 209
f 178 209 210
f 178 210 179
f 179 210 211
f 179 211 212
f 179 212 181
f 180 183 184
f 181 212 182
f 182 212 213
f 182 213 183
f 183 213 214
f 183 214 215
f 183 215 216
f 183 216 217
f 183 217 184
f 184 217 185
f 185 217 218
f 185 218 219
f 185 219 220
f 185 220 187
f 185 187 221
f 185 221 186
f 186 221 187
f 187 220 222
f 187 222 223
f 187 223 224
f 187 224 188
f 188 224 225
f 188 225 226
f 188 226 189
f 189 227 190
f 189 226 227
f 190 227 228
f 190 228 191
f 191 229 203
f 191 228 229
f 192 230 193
f 193 230 231
f 193 231 195
f 193 195 194
f 195 232 196
f 195 231 232
f 196 232 233
f 196 233 197
f 197 233 234
f 197 234 198
f 198 235 199
f 198 234 236
f 198 236 235
f 199 235 237
f 199 237 200
f 200 237 208
f 201 203 240
f 201 240 238
f 201 238 239
f 201 239 202
f 202 239 241
f 202 241 204
f 203 229 265
f 203 265 240
f 204 241 242
f 204 242 205
f 205 242 243
f 205 243 206
f 208 237 244
f 208 244 245
f 208 245 209
f 209 245 210
f 210 246 211
f 210 245 246
f 211 246 212
f 212 247 248
f 212 248 249
f 212 249 213
f 212 246 250
f 212 250 247
f 213 249 251
f 213 251 252
f 213 252 215
f 213 215 214
f 215 252 216
f 216 252 253
f 216 253 254
f 216 254 255
f 216 255 217
f 217 255 218
f 218 256 219
f 218 255 254
f 218 254 257
f 218 257 256
f 219 256 220
f 220 256 222
f 222 258 225
f 222 225 223
f 222 256 258
f 223 225 224
f 225 258 259
f 225 259 260
f 225 260 261
f 225 261 226
f 226 261 227
f 227 261 228
f 228 261 262
f 228 262 263
f 228 263 264
f 228 264 229
f 229 264 305
f 229 305 265
f 230 266 231
f 231 266 267
f 231 267 268
f 231 268 269
f 231 269 270
f 231 270 271
f 231 271 272
f 231 272 232
f 232 273 274
f 232 274 233
f 232 272 275
f 232 275 273
f 233 274 276
f 233 276 234
f 234 276 277
f 234 277 236
f 235 236 278
f 235 278 279
f 235 279 244
f 235 244 237
f 236 277 278
f 238 280 239
f 238 240 281
f 238 281 280
f 239 280 282
f 239 282 283
f 239 283 241
f 240 265 284
f 240 284 281
f 241 283 242
f 242 283 285
f 242 285 243
f 243 285 286
f 244 279 245
f 245 279 287
f 245 287 288
f 245 288 246
f 246 288 289
f 246 289 250
f 247 250 248
f 248 290 291
f 248 291 251
f 248 251 249
f 248 250 292
f 248 292 293
f 248 293 290
f 250 289 292
f 251 291 294
f 251 294 252
f 252 294 295
f 252 295 253
f 253 295 296
f 253 296 254
f 254 296 257
f 256 257 297
f 256 297 298
f 256 298 258
f 257 296 297
f 258 298 259
f 259 299 300
f 259 300 262
f 259 262 261
f 259 261 260
f 259 298 297
f 259 297 301
f 259 301 302
f 259 302 299
f 262 300 339
f 262 339 303
f 262 303 304
f 262 304 263
f 263 304 305
f 263 305 264
f 265 305 306
f 265 306 284
f 267 307 308
f 267 308 268
f 268 308 269
f 269 308 270
f 270 308 271
f 271 308 272
f 272 308 275
f 273 275 309
f 273 309 310
f 273 310 274
f 274 310 349
f 274 349 311
f 274 311 313
f 274 313 276
f 275 308 312
f 275 312 309
f 276 313 314
f 276 314 277
f 277 314 356
f 277 356 315
f 277 315 278
f 278 315 316
f 278 316 279
f 279 316 287
f 280 281 317
f 280 317 319
f 280 319 282
f 281 284 318
f 281 318 317
f 282 319 320
f 282 320 321
f 282 321 322
f 282 322 323
f 282 323 283
f 283 323 320
f 283 320 324
f 283 324 285
f 284 306 325
f 284 325 318
f 285 326 327
f 285 327 328
f 285 328 286
f 285 324 326
f 287 316 288
f 288 316 289
f 289 329 330
f 289 330 292
f 289 316 329
f 290 331 333
f 290 333 291
f 290 293 332
f 290 332 368
f 290 368 331
f 291 333 334
f 291 334 294
f 292 330 332
f 292 332 293
f 294 334 335
f 294 335 295
f 295 335 373
f 295 373 336
f 295 336 296
f 296 336 337
f 296 337 297
f 297 337 301
f 299 338 339
f 299 339 300
f 299 302 341
f 299 341 338
f 301 340 341
f 301 341 302
f 301 337 376
f 301 376 340
f 303 339 342
f 303 342 343
f 303 343 306
f 303 306 304
f 304 306 305
f 306 343 344
f 306 344 325
f 307 345 346
f 307 346 308
f 308 346 349
f 308 349 310
f 308 310 347
f 308 347 348
f 308 348 312
f 309 312 348
f 309 348 347
f 309 347 310
f 311 350 351
f 311 351 352
f 311 352 313
f 311 349 350
f 313 353 314
f 313 352 353
f 314 354 355
f 314 355 356
f 314 353 354
f 315 356 403
f 315 403 357
f 315 357 316
f 316 357 358
f 316 358 329
f 317 318 359
f 317 359 360
f 317 360 319
f 318 325 361
f 318 361 359
f 319 360 320
f 320 360 362
f 320 362 324
f 320 323 322
f 320 322 321
f 324 362 363
f 324 363 364
f 324 364 326
f 325 344 365
f 325 365 361
f 326 364 327
f 327 364 328
f 328 364 366
f 329 358 404
f 329 404 367
f 329 367 368
f 329 368 332
f 329 332 330
f 331 368 369
f 331 369 370
f 331 370 333
f 333 370 371
f 333 371 334
f 334 371 372
f 334 372 335
f 335 372 374
f 335 374 375
f 335 375 373
f 336 373 376
f 336 376 337
f 338 342 339
f 338 341 342
f 340 377 342
f 340 342 341
f 340 376 377
f 342 378 379
f 342 379 380
f 342 380 343
f 342 377 381
f 342 381 378
f 343 380 379
f 343 379 382
f 343 382 344
f 344 382 365
f 345 383 346
f 346 383 384
f 346 384 385
f 346 385 386
f 346 386 387
f 346 387 388
f 346 388 389
f 346 389 390
f 346 390 391
f 346 391 392
f 346 392 393
f 346 393 349
f 349 393 394
f 349 394 350
f 350 394 390
f 350 390 351
f 351 395 396
f 351 396 352
f 351 390 389
f 351 389 397
f 351 397 395
f 352 396 398
f 352 398 353
f 353 398 399
f 353 399 354
f 354 399 400
f 354 400 355
f 355 400 401
f 355 401 402
f 355 402 356
f 356 402 403
f 357 403 404
f 357 404 358
f 359 361 405
f 359 405 406
f 359 406 360
f 360 406 407
f 360 407 362
f 361 365 408
f 361 408 405
f 362 407 363
f 363 407 409
f 363 409 364
f 364 410 411
f 364 411 412
f 364 412 413
f 364 413 414
f 364 414 366
f 364 409 415
f 364 415 416
f 364 416 410
f 365 382 417
f 365 417 408
f 367 418 419
f 367 419 368
f 367 404 402
f 367 402 418
f 368 419 420
f 368 420 369
f 369 420 370
f 370 421 371
f 370 420 422
f 370 422 423
f 370 423 424
f 370 424 421
f 371 421 425
f 371 425 372
f 372 425 426
f 372 426 427
f 372 427 374
f 373 375 376
f 374 427 428
f 374 428 375
f 375 428 429
f 375 429 377
f 375 377 376
f 377 429 430
f 377 430 381
f 378 381 430
f 378 430 431
f 378 431 379
f 379 431 432
f 379 432 433
f 379 433 417
f 379 417 382
f 384 434 385
f 385 434 397
f 385 397 386
f 386 397 387
f 387 397 388
f 388 397 389
f 390 394 391
f 391 394 392
f 392 394 393
f 395 435 436
f 395 436 437
f 395 437 438
f 395 438 396
f 395 397 439
f 395 439 440
f 395 440 441
f 395 441 442
f 395 442 443
f 395 443 444
f 395 444 435
f 396 438 398
f 397 434 445
f 397 445 446
f 397 446 439
f 398 447 399
f 398 438 447
f 399 448 400
f 399 447 448
f 400 449 450
f 400 450 401
f 400 448 449
f 401 450 451
f 401 451 452
f 401 452 402
f 402 452 453
f 402 453 418
f 402 404 403
f 405 408 454
f 405 454 455
f 405 455 406
f 406 455 456
f 406 456 407
f 407 456 457
f 407 457 458
f 407 458 459
f 407 459 460
f 407 460 461
f 407 461 462
f 407 462 409
f 408 417 463
f 408 463 454
f 409 462 464
f 409 464 415
f 410 464 411
f 410 416 464
f 411 464 412
f 412 464 413
f 413 464 414
f 414 464 465
f 415 464 416
f 417 433 466
f 417 466 467
f 417 467 463
f 418 453 468
f 418 468 422
f 418 422 420
f 418 420 419
f 421 424 425
f 422 424 423
f 422 468 424
f 424 469 425
f 424 468 470
f 424 470 471
f 424 471 472
f 424 472 469
f 425 469 473
f 425 473 474
f 425 474 426
f 426 474 473
f 426 473 427
f 427 475 428
f 427 473 476
f 427 476 475
f 428 475 477
f 428 477 429
f 429 477 430
f 430 477 478
f 430 478 479
f 430 479 431
f 431 479 466
f 431 466 432
f 432 466 433
f 435 480 436
f 435 444 480
f 436 480 437
f 437 480 438
f 438 480 481
f 438 481 447
f 439 446 482
f 439 482 483
f 439 483 484
f 439 484 485
f 439 485 486
f 439 486 441
f 439 441 440
f 441 486 487
f 441 487 488
f 441 488 442
f 442 488 443
f 443 488 480
f 443 480 444
f 447 481 489
f 447 489 448
f 448 489 490
f 448 490 449
f 449 490 491
f 449 491 450
f 450 491 451
f 451 491 492
f 451 492 493
f 451 493 468
f 451 468 453
f 451 453 452
f 454 494 495
f 454 495 455
f 454 463 494
f 455 496 456
f 455 495 496
f 456 496 497
f 456 497 457
f 457 497 498
f 457 498 458
f 458 498 459
f 459 498 460
f 460 498 461
f 461 498 462
f 462 498 464
f 463 467 494
f 464 499 500
f 464 500 501
f 464 501 502
f 464 502 503
f 464 503 465
f 464 498 504
f 464 504 505
f 464 505 506
f 464 506 499
f 466 479 507
f 466 507 508
f 466 508 509
f 466 509 467
f 467 509 510
f 467 510 494
f 468 493 470
f 469 472 511
f 469 511 473
f 470 493 471
f 471 493 512
f 471 512 513
f 471 513 511
f 471 511 472
f 473 511 514
f 473 514 515
f 473 515 476
f 475 476 477
f 476 515 507
f 476 507 477
f 477 507 478
f 478 507 479
f 480 488 516
f 480 516 517
f 480 517 518
f 480 518 519
f 480 519 481
f 481 520 489
f 481 519 520
f 483 521 487
f 483 487 484
f 484 487 485
f 485 487 486
f 487 521 522
f 487 522 523
f 487 523 524
f 487 524 525
f 487 525 526
f 487 526 488
f 488 526 527
f 488 527 516
f 489 520 528
f 489 528 490
f 490 528 529
f 490 529 491
f 491 529 530
f 491 530 512
f 491 512 492
f 492 512 493
f 494 510 531
f 494 531 532
f 494 532 495
f 495 532 533
f 495 533 496
f 496 533 534
f 496 534 497
f 497 534 535
f 497 535 498
f 498 535 536
f 498 536 537
f 498 537 538
f 498 538 539
f 498 539 504
f 499 539 500
f 499 506 539
f 500 539 501
f 501 539 502
f 502 539 540
f 504 539 505
f 505 539 506
f 507 515 541
f 507 541 542
f 507 542 509
f 507 509 508
f 509 542 510
f 510 542 531
f 511 513 543
f 511 543 544
f 511 544 514
f 512 530 545
f 512 545 546
f 512 546 513
f 513 546 543
f 514 544 515
f 515 544 541
f 516 527 547
f 516 547 548
f 516 548 517
f 517 548 518
f 518 548 549
f 518 549 519
f 519 549 550
f 519 550 520
f 520 550 551
f 520 551 528
f 522 552 523
f 523 552 553
f 523 553 547
f 523 547 524
f 524 547 525
f 525 547 526
f 526 547 527
f 528 554 529
f 528 551 554
f 529 554 530
f 530 554 545
f 531 542 555
f 531 555 556
f 531 556 532
f 532 556 557
f 532 557 533
f 533 557 534
f 534 557 558
f 534 558 535
f 535 558 559
f 535 559 560
f 535 560 536
f 536 560 537
f 537 560 538
f 538 560 539
f 539 560 540
f 540 560 561
f 541 544 562
f 541 562 563
f 541 563 542
f 542 563 562
f 542 562 555
f 543 564 565
f 543 565 544
f 543 546 545
f 543 545 566
f 543 566 567
f 543 567 568
f 543 568 564
f 544 565 562
f 545 554 566
f 547 553 569
f 547 569 570
f 547 570 571
f 547 571 548
f 548 572 573
f 548 573 574
f 548 574 549
f 548 571 575
f 548 575 576
f 548 576 577
f 548 577 572
f 549 578 550
f 549 574 578
f 550 579 551
f 550 578 579
f 551 579 580
f 551 580 554
f 554 580 566
f 555 562 556
f 556 562 568
f 556 568 567
f 556 567 557
f 557 567 581
f 557 581 582
f 557 582 558
f 558 582 583
f 558 583 559
f 559 583 584
f 559 584 585
f 559 585 560
f 560 586 587
f 560 587 588
f 560 588 589
f 560 589 561
f 560 585 586
f 562 564 568
f 562 565 564
f 566 580 567
f 567 580 579
f 567 579 581
f 569 590 591
f 569 591 570
f 570 577 576
f 570 576 575
f 570 575 571
f 570 591 592
f 570 592 572
f 570 572 577
f 572 592 573
f 573 592 574
f 574 583 582
f 574 582 578
f 574 592 583
f 578 582 581
f 578 581 579
f 583 593 594
f 583 594 584
f 583 592 593
f 584 594 597
f 584 597 595
f 584 595 596
f 584 596 585
f 585 596 586
f 586 595 587
f 586 596 595
f 587 597 598
f 587 598 599
f 587 599 600
f 587 600 588
f 587 595 597
f 588 600 601
f 588 601 590
f 588 590 602
f 588 602 589
f 590 601 591
f 591 601 600
f 591 600 592
f 592 600 603
f 592 603 593
f 593 603 604
f 593 604 594
f 594 604 597
f 597 603 599
f 597 599 598
f 597 604 603
f 599 603 600

