# https://github.com/mikedh/trimesh
v 16.99204631 208.46716309 284.93707463
v 20.31723266 208.46716309 284.42338992
v 15.31661197 208.46716309 284.93707463
v 16.99204631 3.46717906 284.93707463
v 23.52990843 208.46716309 283.44005149
v 20.31723266 3.46717906 284.42338992
v 15.31661197 208.46716309 137.53906564
v 15.31661197 3.46717906 284.93707463
v 26.55914223 208.46716309 281.97237828
v 23.52990843 3.46717906 283.44005149
v 27.81021468 208.46716309 134.99999812
v 15.31661197 3.46717906 137.53906564
v 26.87221620 208.46716309 281.76690439
v 26.55914223 3.46717906 281.97237828
v 27.81021468 208.46716309 274.36985679
v 27.81021468 3.46717906 134.99999812
v 27.14860124 208.46716309 281.50272456
v 26.87221620 3.46717906 281.76690439
v 27.70504158 208.46716309 280.53406720
v 27.81021468 3.46717906 274.36985679
v 27.38218405 208.46716309 281.20919480
v 27.14860124 3.46717906 281.50272456
v 27.56929438 208.46716309 280.88630291
v 27.70504158 3.46717906 280.53406720
v 27.38218405 3.46717906 281.20919480
v 27.56929438 3.46717906 280.88630291
f 1 2 5
f 1 5 9
f 1 9 13
f 1 13 17
f 1 17 21
f 1 21 23
f 1 23 19
f 1 19 15
f 1 15 11
f 1 11 7
f 1 7 3
f 1 3 8
f 1 8 4
f 1 4 6
f 1 6 2
f 2 6 10
f 2 10 5
f 3 7 12
f 3 12 8
f 4 8 12
f 4 12 16
f 4 16 20
f 4 20 24
f 4 24 26
f 4 26 25
f 4 25 22
f 4 22 18
f 4 18 14
f 4 14 10
f 4 10 6
f 5 10 14
f 5 14 9
f 7 11 16
f 7 16 12
f 9 14 18
f 9 18 13
f 11 15 20
f 11 20 16
f 13 18 22
f 13 22 17
f 15 19 24
f 15 24 20
f 17 22 25
f 17 25 21
f 19 23 26
f 19 26 24
f 21 25 26
f 21 26 23

