# https://github.com/mikedh/trimesh
v 0.00016112 -0.06609081 -0.10022588
v 0.01886608 -0.06609081 -0.10022588
v 0.00016112 -0.06609081 -0.09311596
v 0.00016112 -0.01978355 -0.10022588
v 0.02027468 -0.06609081 -0.09493255
v 0.02360198 -0.06205867 -0.10022588
v 0.02060695 -0.06609081 -0.09311596
v 0.01591316 -0.06608250 -0.05582801
v 0.00016112 -0.02177052 -0.09311596
v 0.03332650 0.01646414 -0.05583236
v 0.03352773 0.01388691 -0.08050412
v 0.02662510 0.00169903 -0.09311161
v 0.02085497 -0.00859332 -0.10022588
v 0.02095325 -0.06608250 -0.09181219
v 0.02491700 -0.05983891 -0.10022588
v 0.02707904 -0.06608250 -0.05582801
v 0.01591316 -0.03126475 -0.05582801
v 0.03378512 0.01687152 -0.05583236
v 0.03293340 -0.01194374 -0.05582801
v 0.03645726 0.01877535 -0.05583236
v 0.03695799 0.01604847 -0.08050412
v 0.04084218 0.01609835 -0.08050412
v 0.04712240 0.00169903 -0.09311161
v 0.04438007 -0.00859332 -0.10022588
v 0.02660638 -0.05623077 -0.10022588
v 0.03293340 -0.04244667 -0.05582801
v 0.02734110 -0.05428537 -0.10022588
v 0.03399103 -0.03651070 -0.10022588
v 0.04238650 -0.01403879 -0.10022588
v 0.04311186 -0.01208507 -0.10022588
v 0.04414140 -0.00928335 -0.10022588
v 0.04430519 -0.00882610 -0.10022588
v 0.04568572 -0.00540918 -0.09311161
v 0.04616773 -0.00571678 -0.07040421
v 0.04620985 -0.00584149 -0.06651462
v 0.04629876 -0.00609921 -0.05583236
v 0.04687905 -0.00415381 -0.05583236
v 0.04796944 0.00625494 -0.05583236
v 0.04763249 0.01014574 -0.05583236
v 0.04702413 0.01324675 -0.05583236
v 0.04629876 0.01469333 -0.05583236
v 0.04387934 0.01707105 -0.05583236
v 0.04084218 0.01872547 -0.05583236
v 0.04032741 0.01884186 -0.05583236
v 0.03695799 0.01884186 -0.05583236
v 0.04498844 0.01408643 -0.08050412
v 0.04677142 0.01234056 -0.08050412
v 0.04688373 0.01169209 -0.08050412
v 0.04712240 0.01029539 -0.08050412
v 0.04732831 0.00859108 -0.08050412
v 0.04753890 0.00626325 -0.08050412
v 0.04747338 0.00237244 -0.08050412
v 0.04770269 0.00237244 -0.07040421
v 0.04686034 -0.00059554 -0.09311161
v 0.04649531 -0.00254095 -0.09311161
v 0.04741722 -0.00151837 -0.05583236
v 0.04753890 -0.00053735 -0.05583236
v 0.04789456 0.00237244 -0.05583236
v 0.04666379 -0.00338064 -0.07951759
v 0.04669655 -0.00351365 -0.07693177
v 0.04605542 -0.00525953 -0.08050412
v 0.04677142 -0.00377137 -0.07040421
v 0.04680886 -0.00389608 -0.06651462
v 0.04738447 -0.00151837 -0.05873978
v 0.04781501 0.00237244 -0.06262937
v 0.04776821 0.00237244 -0.06651462
v 0.04783372 0.00625494 -0.06651462
v 0.04776353 0.00625494 -0.07040421
v 0.04728619 -0.00151837 -0.06651462
v 0.04721132 -0.00151837 -0.07040421
v 0.04733767 -0.00151837 -0.06262937
f 1 2 5
f 1 5 7
f 1 7 3
f 1 3 9
f 1 9 4
f 1 4 13
f 1 13 24
f 1 24 32
f 1 32 31
f 1 31 30
f 1 30 29
f 1 29 28
f 1 28 27
f 1 27 25
f 1 25 15
f 1 15 6
f 1 6 2
f 2 6 5
f 3 7 16
f 3 16 8
f 3 8 17
f 3 17 9
f 4 9 10
f 4 10 11
f 4 11 12
f 4 12 13
f 5 14 7
f 5 6 14
f 6 15 16
f 6 16 14
f 7 14 16
f 8 16 26
f 8 26 19
f 8 19 17
f 9 17 10
f 10 18 11
f 10 17 19
f 10 19 18
f 11 18 20
f 11 20 21
f 11 21 12
f 12 21 22
f 12 22 23
f 12 23 24
f 12 24 13
f 15 25 16
f 16 25 27
f 16 27 28
f 16 28 29
f 16 29 30
f 16 30 31
f 16 31 32
f 16 32 33
f 16 33 34
f 16 34 35
f 16 35 36
f 16 36 37
f 16 37 26
f 18 19 20
f 19 26 38
f 19 38 39
f 19 39 40
f 19 40 41
f 19 41 42
f 19 42 43
f 19 43 44
f 19 44 45
f 19 45 20
f 20 45 21
f 21 45 22
f 22 45 44
f 22 44 43
f 22 43 46
f 22 46 23
f 23 46 47
f 23 47 48
f 23 48 49
f 23 49 50
f 23 50 51
f 23 51 52
f 23 52 53
f 23 53 54
f 23 54 24
f 24 54 55
f 24 55 33
f 24 33 32
f 26 37 56
f 26 56 57
f 26 57 58
f 26 58 38
f 33 55 59
f 33 59 60
f 33 60 61
f 33 61 34
f 34 61 60
f 34 60 62
f 34 62 35
f 35 62 63
f 35 63 36
f 36 63 37
f 37 63 64
f 37 64 56
f 38 58 65
f 38 65 66
f 38 66 67
f 38 67 39
f 39 67 68
f 39 68 50
f 39 50 49
f 39 49 48
f 39 48 47
f 39 47 40
f 40 47 41
f 41 47 42
f 42 47 46
f 42 46 43
f 50 68 51
f 51 68 53
f 51 53 52
f 53 66 69
f 53 69 70
f 53 70 54
f 53 68 67
f 53 67 66
f 54 70 59
f 54 59 55
f 56 64 57
f 57 64 65
f 57 65 58
f 59 70 60
f 60 70 69
f 60 69 62
f 62 69 63
f 63 69 71
f 63 71 64
f 64 71 65
f 65 71 66
f 66 71 69

