# https://github.com/mikedh/trimesh
v 0.01006110 0.02988357 -0.09311468
v 0.01006110 0.02989725 -0.08985144
v 0.01006110 0.04814175 -0.09311468
v 0.02231258 0.01715707 -0.10022202
v 0.02422056 0.00262162 -0.10022202
v 0.01006110 0.03070831 -0.08667311
v 0.01006110 0.04825566 -0.08985144
v 0.01223694 0.04758585 -0.09311468
v 0.04461400 0.01715707 -0.10022202
v 0.04705035 0.00262162 -0.10022202
v 0.02663123 0.00170575 -0.09311275
v 0.02664591 0.00170575 -0.08985144
v 0.02684405 0.00170575 -0.08776729
v 0.01006110 0.03252183 -0.08472212
v 0.02694678 0.00170575 -0.08723081
v 0.01289740 0.04750383 -0.08985144
v 0.01006110 0.04804151 -0.08596296
v 0.01266624 0.04742181 -0.08596296
v 0.01274329 0.04744916 -0.09311468
v 0.01305884 0.04735346 -0.09311468
v 0.01468797 0.04682946 -0.09311468
v 0.01708396 0.04587258 -0.09311468
v 0.01751326 0.04569943 -0.09311468
v 0.02038624 0.04431424 -0.09311468
v 0.02095130 0.04404084 -0.09311468
v 0.02289965 0.04296549 -0.09311468
v 0.02492505 0.04162129 -0.09311468
v 0.02529564 0.04137069 -0.09311468
v 0.02728802 0.03996726 -0.09311468
v 0.02768062 0.03968932 -0.09311468
v 0.02962530 0.03804439 -0.09311468
v 0.03144523 0.03641314 -0.09311468
v 0.03179013 0.03609873 -0.09311468
v 0.03373481 0.03407562 -0.09311468
v 0.03549603 0.03212996 -0.09311468
v 0.03580791 0.03173354 -0.09311468
v 0.03767187 0.02933679 -0.09311468
v 0.03844974 0.02832067 -0.09311468
v 0.03933402 0.02707217 -0.09311468
v 0.04002016 0.02603327 -0.09311468
v 0.04214830 0.02269331 -0.09311468
v 0.04326374 0.02074765 -0.09311468
v 0.04349123 0.02026921 -0.09311468
v 0.04458098 0.01794536 -0.09311275
v 0.04577347 0.01405861 -0.10022202
v 0.04712741 0.00628510 -0.10022202
v 0.04711640 0.00262162 -0.09762841
v 0.04720813 0.00239379 -0.09311275
v 0.04712741 0.00170575 -0.09311275
v 0.01006110 0.03446749 -0.08366653
v 0.03418612 0.00249403 -0.08050943
v 0.03485025 0.00170575 -0.08050943
v 0.01483841 0.04687958 -0.08985144
v 0.01006110 0.04744459 -0.08374565
v 0.01212686 0.04724411 -0.08389617
v 0.01461092 0.04659707 -0.08596296
v 0.01751326 0.04579512 -0.08985144
v 0.02298037 0.04301561 -0.08985144
v 0.02103936 0.04408640 -0.08985144
v 0.02529564 0.04147093 -0.08985144
v 0.02774667 0.03973944 -0.08985144
v 0.02969135 0.03809451 -0.08985144
v 0.03184150 0.03614886 -0.08985144
v 0.03378251 0.03413030 -0.08985144
v 0.03553639 0.03218464 -0.08985144
v 0.03748474 0.02971498 -0.08985144
v 0.03897444 0.02776933 -0.08985144
v 0.03893040 0.02771009 -0.09263224
v 0.04033938 0.02572343 -0.08985144
v 0.04221434 0.02279811 -0.08985144
v 0.04332244 0.02085245 -0.08985144
v 0.04359763 0.02026921 -0.08985144
v 0.04469106 0.01794536 -0.08985144
v 0.04602665 0.01400393 -0.09311468
v 0.04666509 0.01201271 -0.09117719
v 0.04601197 0.01320197 -0.10022202
v 0.04617708 0.01424087 -0.08596489
v 0.04696229 0.00823987 -0.10022202
v 0.04718611 0.00628510 -0.09762841
v 0.04747598 0.00239379 -0.08050943
v 0.04735490 0.00170575 -0.08207640
v 0.01006110 0.03739280 -0.08324005
v 0.03308169 0.01025387 -0.08050943
v 0.04738425 0.00170575 -0.08050943
v 0.01006110 0.04517542 -0.08332110
v 0.01751326 0.04404995 -0.08361057
v 0.01751326 0.04536224 -0.08596296
v 0.02020278 0.04358062 -0.08375723
v 0.02082655 0.04393603 -0.08596296
v 0.02277490 0.04274221 -0.08596296
v 0.02762559 0.03964375 -0.08596296
v 0.02956659 0.03795782 -0.08596296
v 0.03169840 0.03601216 -0.08596296
v 0.03363941 0.03399360 -0.08596296
v 0.03542265 0.03204794 -0.08596296
v 0.03896710 0.02776021 -0.08726748
v 0.04334446 0.02085701 -0.08596296
v 0.04363800 0.02026921 -0.08596296
v 0.04478646 0.01794536 -0.08596489
v 0.04621378 0.01370775 -0.08987267
v 0.04670178 0.01218130 -0.08858744
v 0.04686689 0.00932433 -0.10022202
v 0.04675682 0.00997136 -0.10022202
v 0.04656969 0.01147959 -0.09762841
v 0.04652933 0.01126543 -0.10022202
v 0.04678250 0.01239546 -0.08207640
v 0.04673113 0.01229522 -0.08596489
v 0.04677149 0.01235445 -0.08050943
v 0.04754203 0.00628054 -0.08050943
v 0.04751634 0.00471764 -0.08050943
v 0.01006110 0.04128412 -0.08316286
v 0.03353300 0.01390368 -0.08050943
v 0.03695270 0.01606350 -0.08050943
v 0.04084573 0.01611817 -0.08050943
v 0.02739076 0.03945693 -0.08392126
v 0.04498826 0.01410418 -0.08050943
v 0.03139386 0.03571143 -0.08384214
v 0.03518782 0.03177455 -0.08388460
v 0.03869191 0.02745948 -0.08467387
v 0.03754711 0.02928211 -0.08596682
v 0.04314632 0.02049248 -0.08367039
v 0.04715309 0.01017185 -0.08207640
v 0.04689625 0.00953849 -0.09762841
v 0.04732921 0.00860895 -0.08050943
v 0.04688524 0.01170742 -0.08050943
v 0.04712374 0.01030855 -0.08050943
f 1 2 6
f 1 6 14
f 1 14 50
f 1 50 82
f 1 82 111
f 1 111 85
f 1 85 54
f 1 54 17
f 1 17 7
f 1 7 3
f 1 3 4
f 1 4 5
f 1 5 2
f 2 5 6
f 3 7 8
f 3 8 9
f 3 9 4
f 4 9 45
f 4 45 76
f 4 76 105
f 4 105 103
f 4 103 102
f 4 102 78
f 4 78 46
f 4 46 10
f 4 10 5
f 5 10 49
f 5 49 11
f 5 11 12
f 5 12 13
f 5 13 6
f 6 13 15
f 6 15 14
f 7 16 8
f 7 17 18
f 7 18 16
f 8 16 19
f 8 19 9
f 9 19 20
f 9 20 21
f 9 21 22
f 9 22 23
f 9 23 24
f 9 24 25
f 9 25 26
f 9 26 27
f 9 27 28
f 9 28 29
f 9 29 30
f 9 30 31
f 9 31 32
f 9 32 33
f 9 33 34
f 9 34 35
f 9 35 36
f 9 36 37
f 9 37 38
f 9 38 39
f 9 39 40
f 9 40 41
f 9 41 42
f 9 42 43
f 9 43 44
f 9 44 45
f 10 46 47
f 10 47 48
f 10 48 49
f 11 49 81
f 11 81 84
f 11 84 52
f 11 52 15
f 11 15 13
f 11 13 12
f 14 15 51
f 14 51 50
f 15 52 51
f 16 20 19
f 16 18 53
f 16 53 20
f 17 54 55
f 17 55 18
f 18 55 56
f 18 56 57
f 18 57 53
f 20 53 21
f 21 53 22
f 22 53 23
f 23 53 57
f 23 57 24
f 24 57 25
f 25 58 26
f 25 57 59
f 25 59 58
f 26 58 27
f 27 60 28
f 27 58 60
f 28 60 29
f 29 61 30
f 29 60 61
f 30 61 62
f 30 62 31
f 31 62 32
f 32 63 33
f 32 62 63
f 33 63 64
f 33 64 34
f 34 64 35
f 35 65 66
f 35 66 36
f 35 64 65
f 36 66 37
f 37 66 67
f 37 67 38
f 38 67 68
f 38 68 39
f 39 68 40
f 40 68 69
f 40 69 70
f 40 70 41
f 41 70 42
f 42 70 71
f 42 71 43
f 43 72 73
f 43 73 44
f 43 71 72
f 44 73 45
f 45 74 75
f 45 75 76
f 45 73 77
f 45 77 74
f 46 78 79
f 46 79 47
f 47 79 48
f 48 80 49
f 48 79 80
f 49 80 81
f 50 51 82
f 51 52 84
f 51 84 80
f 51 80 110
f 51 110 109
f 51 109 124
f 51 124 126
f 51 126 125
f 51 125 108
f 51 108 116
f 51 116 114
f 51 114 113
f 51 113 112
f 51 112 83
f 51 83 82
f 54 85 86
f 54 86 55
f 55 87 56
f 55 86 88
f 55 88 89
f 55 89 87
f 56 87 57
f 57 87 89
f 57 89 59
f 58 59 89
f 58 89 90
f 58 90 91
f 58 91 60
f 60 91 61
f 61 91 62
f 62 92 63
f 62 91 92
f 63 92 93
f 63 93 94
f 63 94 64
f 64 94 95
f 64 95 65
f 65 95 96
f 65 96 66
f 66 96 67
f 67 96 69
f 67 69 68
f 69 96 70
f 70 97 71
f 70 96 97
f 71 97 98
f 71 98 99
f 71 99 72
f 72 99 73
f 73 99 77
f 74 100 101
f 74 101 75
f 74 77 100
f 75 101 102
f 75 102 103
f 75 103 104
f 75 104 76
f 76 104 105
f 77 106 107
f 77 107 101
f 77 101 100
f 77 99 108
f 77 108 106
f 78 109 79
f 78 102 109
f 79 109 110
f 79 110 80
f 80 84 81
f 82 83 111
f 83 112 111
f 85 111 112
f 85 112 113
f 85 113 114
f 85 114 86
f 86 114 88
f 88 115 89
f 88 114 116
f 88 116 115
f 89 115 90
f 90 115 91
f 91 115 92
f 92 115 93
f 93 117 94
f 93 115 117
f 94 118 95
f 94 117 118
f 95 118 119
f 95 119 120
f 95 120 96
f 96 120 119
f 96 119 97
f 97 119 121
f 97 121 108
f 97 108 98
f 98 108 99
f 101 107 122
f 101 122 123
f 101 123 102
f 102 123 122
f 102 122 124
f 102 124 109
f 103 105 104
f 106 108 125
f 106 125 126
f 106 126 122
f 106 122 107
f 108 121 118
f 108 118 117
f 108 117 116
f 115 116 117
f 118 121 119
f 122 126 124

