# https://github.com/mikedh/trimesh
v 0.04721446 0.00261723 -0.09311583
v 0.04720787 0.00239047 -0.09311583
v 0.04711551 0.00261723 -0.09764898
v 0.04712870 0.00627829 -0.10024767
v 0.04696377 0.00823606 -0.10024767
v 0.04686480 0.00931952 -0.10024767
v 0.04675924 0.00996455 -0.10024767
v 0.04652834 0.01126217 -0.10024767
v 0.04600714 0.01319727 -0.10024767
v 0.04576964 0.01405647 -0.10024767
v 0.04461509 0.01715313 -0.10024767
v 0.02674274 0.00261723 -0.09311583
v 0.04686480 -0.00057265 -0.09311583
v 0.04681203 -0.00030305 -0.09764898
v 0.04676584 -0.00001833 -0.10152954
v 0.04710891 0.00239047 -0.09764898
v 0.04671306 0.00399044 -0.11617777
v 0.04709571 0.00627829 -0.10154119
v 0.04669327 0.00829654 -0.11162132
v 0.04673286 0.00851323 -0.10931396
v 0.04679223 0.00886598 -0.10542175
v 0.04685161 0.00921117 -0.10154119
v 0.04650854 0.01115383 -0.10154119
v 0.04547275 0.01405647 -0.10931396
v 0.04560470 0.01405647 -0.10542175
v 0.04573005 0.01405647 -0.10154119
v -0.00665990 0.01715313 -0.10024767
v 0.04443696 0.01715313 -0.10542175
v 0.02310757 -0.00858768 -0.09311583
v -0.02018456 0.01715313 -0.10064388
v 0.04649535 -0.00251531 -0.09311583
v 0.04644257 -0.00224570 -0.09764898
v 0.04638320 -0.00196098 -0.10152954
v 0.04638320 -0.00122524 -0.10571308
v 0.04671306 0.00025127 -0.10458271
v 0.04700995 0.00239047 -0.10152954
v 0.04671306 0.00500082 -0.11617777
v 0.04675924 0.00350163 -0.11320617
v 0.04666688 0.00051836 -0.10716974
v 0.04656792 0.00155394 -0.11320617
v 0.04654153 0.00261975 -0.11712169
v 0.04637660 0.00239047 -0.12099059
v 0.04607312 0.00239047 -0.12876336
v 0.04590818 0.00239047 -0.13265557
v 0.04591478 0.00261723 -0.13265557
v 0.04510990 0.00627829 -0.15209332
v 0.04600054 0.00627829 -0.13264392
v 0.04698356 0.00627829 -0.10542175
v 0.04638320 0.01045589 -0.10931396
v 0.04675265 0.00629089 -0.11303137
v 0.04664709 0.00759355 -0.11420835
v 0.04554532 0.01016613 -0.13264392
v 0.04614569 0.01016613 -0.11709838
v 0.04636340 0.00982345 -0.11303137
v 0.04454912 0.01405647 -0.13264392
v 0.04338797 0.01715313 -0.13264392
v 0.04458210 -0.00858768 -0.09311583
v -0.02018456 0.00261975 -0.10095852
v -0.01507818 -0.00858768 -0.10095852
v -0.02018456 0.01715313 -0.21216621
v 0.04568387 -0.00538520 -0.09311583
v 0.04557171 -0.00538520 -0.09764898
v 0.04544636 -0.00538520 -0.10152954
v 0.04530782 -0.00538520 -0.10542175
v 0.04547275 -0.00149989 -0.12876336
v 0.04591478 -0.00149989 -0.11711003
v 0.04605992 -0.00149989 -0.11320617
v 0.04646236 0.00627829 -0.12099059
v 0.04660091 0.00629089 -0.11731979
v 0.04530122 -0.00149989 -0.13265557
v 0.04497135 0.00239047 -0.15211662
v 0.04498455 0.00261723 -0.15211662
v 0.04478002 0.00239047 -0.15596222
v 0.04470086 0.00627829 -0.15985443
v 0.04444356 0.01016613 -0.15597387
v 0.04464148 0.01016613 -0.15209332
v 0.04536719 0.01016613 -0.13653613
v 0.04419286 0.01405647 -0.14042834
v 0.04282060 0.01608984 -0.15478524
v 0.04288657 0.01624857 -0.15209332
v 0.04316366 0.01687849 -0.14042834
v 0.04325603 0.01706998 -0.13653613
v 0.04329561 0.01715313 -0.13483474
v 0.04458210 -0.00858768 -0.09323237
v 0.04547275 -0.00601259 -0.09311583
v -0.02018456 0.00261975 -0.21216621
v -0.01507818 -0.00858768 -0.21216621
v 0.03846632 0.01715313 -0.21216621
v 0.04444356 -0.00858768 -0.09833652
v 0.04433800 -0.00858768 -0.10152954
v 0.04406091 -0.00858768 -0.10931396
v 0.04471405 -0.00538520 -0.12099059
v 0.04441717 -0.00538520 -0.12876336
v 0.04423904 -0.00538520 -0.13265557
v 0.04404112 -0.00538520 -0.13655943
v 0.04311748 -0.00441009 -0.15985443
v 0.04390257 -0.00149989 -0.15985443
v 0.04456891 0.00239047 -0.15985443
v 0.04458210 0.00261723 -0.15985443
v 0.04447654 0.00627829 -0.16373499
v 0.04402792 0.01016613 -0.16373499
v 0.04423904 0.01016613 -0.15985443
v 0.04288657 0.01244893 -0.17541162
v 0.04299873 0.01281680 -0.17151941
v 0.04311088 0.01316200 -0.16762720
v 0.04322304 0.01349207 -0.16373499
v 0.04363208 0.01405647 -0.15209332
v 0.04276122 0.01592354 -0.15736062
v 0.04229940 0.01715313 -0.15638174
v 0.04251052 0.01715313 -0.15209332
v 0.04306470 0.01715313 -0.13992724
v 0.03743712 -0.00858768 -0.21216621
v 0.03873681 0.01660385 -0.21216621
v 0.03853229 0.01715313 -0.21158354
v 0.04361229 -0.00858768 -0.12099059
v 0.04330881 -0.00858768 -0.12876336
v 0.04324943 -0.00858768 -0.13006853
v 0.04319005 -0.00841886 -0.13265557
v 0.04344735 -0.00858768 -0.12522075
v 0.04309109 -0.00813666 -0.13655943
v 0.04274143 -0.00719431 -0.14930817
v 0.04245114 -0.00635778 -0.15985443
v 0.04299873 -0.00406490 -0.16373499
v 0.04367166 -0.00149989 -0.16373499
v 0.04434460 0.00239047 -0.16373499
v 0.04433800 0.00261723 -0.16397971
v 0.04424564 0.00627829 -0.16762720
v 0.04286678 0.00870220 -0.18627252
v 0.04333520 0.01016613 -0.17541162
v 0.04274143 0.01181650 -0.18042255
v 0.04281400 0.01221208 -0.17783551
v 0.04229281 0.01439410 -0.17541162
v 0.04239837 0.01475946 -0.17151941
v 0.04250392 0.01510717 -0.16762720
v 0.04260948 0.01543724 -0.16373499
v 0.04332860 0.01379443 -0.15985443
v 0.04270185 0.01573961 -0.15985443
v 0.04199592 0.01715313 -0.16234824
v 0.04217405 0.01715313 -0.15887555
v 0.03781317 -0.00762769 -0.21216621
v 0.03757567 -0.00858768 -0.21114072
v 0.03896112 0.01614023 -0.21216621
v 0.03905348 0.01633172 -0.21041821
v 0.03855868 0.01715313 -0.21132717
v 0.04312408 -0.00858768 -0.13265557
v 0.04270844 -0.00858768 -0.14043999
v 0.04230600 -0.00858768 -0.14779324
v 0.04180460 -0.00858768 -0.15688284
v 0.04163966 -0.00858768 -0.15985443
v 0.04139556 -0.00858768 -0.16373499
v 0.04233239 -0.00601007 -0.16373499
v 0.04286018 -0.00366427 -0.16763886
v 0.04410050 0.00239047 -0.16763886
v 0.04278761 -0.00345262 -0.16961992
v 0.04282720 0.00026387 -0.18186757
v 0.04280740 0.00414414 -0.18936065
v 0.04400153 0.00627829 -0.17151941
v 0.04278101 0.00778757 -0.18885956
v 0.04199592 0.01016613 -0.19486103
v 0.04229281 0.01016613 -0.19096881
v 0.04256330 0.01006534 -0.18737959
v 0.04297234 0.00933212 -0.18318439
v 0.04306470 0.01037777 -0.17918730
v 0.04016844 0.01405647 -0.20652600
v 0.04107889 0.01405647 -0.19486103
v 0.04136257 0.01405647 -0.19096881
v 0.04163307 0.01405647 -0.18707660
v 0.04189696 0.01405647 -0.18318439
v 0.04226642 0.01372892 -0.17918730
v 0.04107229 0.01715313 -0.17842984
v 0.04131639 0.01715313 -0.17444439
v 0.04154730 0.01715313 -0.17043565
v 0.04177821 0.01715313 -0.16640360
v 0.03846632 -0.00582614 -0.21216621
v 0.03765484 -0.00858768 -0.21042987
v 0.03914585 0.01559598 -0.21216621
v 0.03865104 0.01715313 -0.21041821
v 0.03878299 0.01715313 -0.20904311
v 0.03901390 0.01715313 -0.20652600
v 0.03922502 0.01671219 -0.20652600
v 0.03982538 0.01405647 -0.21041821
v 0.04111847 -0.00858768 -0.16763886
v 0.04219384 -0.00560945 -0.16763886
v 0.04056429 -0.00538520 -0.19098047
v 0.04274143 0.00081316 -0.18447791
v 0.04357270 0.00239047 -0.17541162
v 0.04174522 -0.00149989 -0.19098047
v 0.04280740 0.00519232 -0.18936065
v 0.04375083 0.00627829 -0.17541162
v 0.04301192 0.00222165 -0.18317274
v 0.04253031 0.00261975 -0.19073575
v 0.04247753 0.00261975 -0.19148156
v 0.04218725 0.00239047 -0.19486103
v 0.04186398 0.00239047 -0.19875324
v 0.04152091 0.00261975 -0.20286686
v 0.04118444 0.00239047 -0.20652600
v 0.04117785 0.00261975 -0.20675906
v 0.04139556 0.00627829 -0.20652600
v 0.04204870 0.00627829 -0.19875324
v 0.04237197 0.00627829 -0.19486103
v 0.04348694 0.00627829 -0.17930383
v 0.04321644 0.00627829 -0.18318439
v 0.04268205 0.00640680 -0.19078236
v 0.04073582 0.01016613 -0.21041821
v 0.04106569 0.01016613 -0.20652600
v 0.03942953 0.01715313 -0.20155003
v 0.03991774 0.01715313 -0.19486103
v 0.03996392 0.01715313 -0.19422009
v 0.04047852 0.01715313 -0.18707660
v 0.04074902 0.01715313 -0.18318439
v 0.03911286 -0.00403970 -0.21216621
v 0.03850590 -0.00623684 -0.21042987
v 0.03869722 -0.00677101 -0.20652600
v 0.03803089 -0.00858768 -0.20652600
v 0.03962086 0.01415222 -0.21216621
v 0.03907987 0.01715313 -0.20578019
v 0.04056429 0.01016613 -0.21216621
v 0.03940974 -0.00858768 -0.19098047
v 0.03937016 -0.00858768 -0.19151652
v 0.03923161 -0.00822989 -0.19486103
v 0.04025421 -0.00538520 -0.19486103
v 0.04144174 -0.00149989 -0.19486103
v 0.04111187 -0.00149989 -0.19875324
v 0.04040595 -0.00149989 -0.20652600
v 0.04082159 0.00239047 -0.21042987
v 0.04081499 0.00261975 -0.21065128
v 0.04104590 0.00627829 -0.21041821
v 0.03981218 -0.00165610 -0.21216621
v 0.04003650 -0.00149989 -0.21042987
v 0.03919863 -0.00429167 -0.21042987
v 0.03938995 -0.00482584 -0.20652600
v 0.03946912 -0.00565480 -0.20257553
v 0.03894793 -0.00746643 -0.20123539
v 0.03843333 -0.00858768 -0.20223758
v 0.04087437 0.00627829 -0.21216621
v 0.03909967 -0.00858768 -0.19486103
v 0.03906008 -0.00777131 -0.19875324
v 0.03991114 -0.00538520 -0.19875324
v 0.04064346 0.00239047 -0.21216621
v 0.04074902 0.00412651 -0.21216621
v 0.04020143 0.00023616 -0.21216621
v 0.03875000 -0.00858768 -0.19875324
f 1 2 16
f 1 16 3
f 1 3 4
f 1 4 5
f 1 5 6
f 1 6 7
f 1 7 8
f 1 8 9
f 1 9 10
f 1 10 11
f 1 11 27
f 1 27 12
f 1 12 29
f 1 29 57
f 1 57 85
f 1 85 61
f 1 61 31
f 1 31 13
f 1 13 2
f 2 13 14
f 2 14 15
f 2 15 16
f 3 16 17
f 3 17 4
f 4 17 18
f 4 18 19
f 4 19 20
f 4 20 5
f 5 20 21
f 5 21 22
f 5 22 6
f 6 22 7
f 7 22 21
f 7 21 23
f 7 23 8
f 8 23 24
f 8 24 25
f 8 25 9
f 9 25 26
f 9 26 10
f 10 26 11
f 11 26 25
f 11 25 24
f 11 24 28
f 11 28 56
f 11 56 83
f 11 83 111
f 11 111 110
f 11 110 109
f 11 109 139
f 11 139 138
f 11 138 173
f 11 173 172
f 11 172 171
f 11 171 170
f 11 170 210
f 11 210 209
f 11 209 208
f 11 208 207
f 11 207 206
f 11 206 216
f 11 216 179
f 11 179 178
f 11 178 177
f 11 177 144
f 11 144 114
f 11 114 88
f 11 88 60
f 11 60 30
f 11 30 27
f 12 27 30
f 12 30 29
f 13 31 32
f 13 32 14
f 14 32 15
f 15 33 34
f 15 34 35
f 15 35 36
f 15 36 16
f 15 32 33
f 16 36 17
f 17 37 18
f 17 36 38
f 17 38 39
f 17 39 40
f 17 40 41
f 17 41 42
f 17 42 43
f 17 43 44
f 17 44 45
f 17 45 46
f 17 46 47
f 17 47 37
f 18 37 48
f 18 48 19
f 19 49 20
f 19 48 50
f 19 50 51
f 19 51 47
f 19 47 52
f 19 52 53
f 19 53 54
f 19 54 49
f 20 49 23
f 20 23 21
f 23 49 24
f 24 49 52
f 24 52 55
f 24 55 56
f 24 56 28
f 29 30 58
f 29 58 59
f 29 59 87
f 29 87 112
f 29 112 141
f 29 141 175
f 29 175 214
f 29 214 234
f 29 234 242
f 29 242 236
f 29 236 219
f 29 219 218
f 29 218 182
f 29 182 150
f 29 150 149
f 29 149 148
f 29 148 147
f 29 147 146
f 29 146 145
f 29 145 117
f 29 117 116
f 29 116 119
f 29 119 115
f 29 115 91
f 29 91 90
f 29 90 89
f 29 89 84
f 29 84 57
f 30 60 86
f 30 86 58
f 31 61 62
f 31 62 32
f 32 62 63
f 32 63 33
f 33 63 64
f 33 64 65
f 33 65 66
f 33 66 67
f 33 67 34
f 34 67 35
f 35 67 66
f 35 66 39
f 35 39 36
f 36 39 38
f 37 51 50
f 37 50 48
f 37 47 68
f 37 68 69
f 37 69 51
f 39 66 65
f 39 65 43
f 39 43 42
f 39 42 40
f 40 42 41
f 43 65 44
f 44 65 70
f 44 70 71
f 44 71 72
f 44 72 46
f 44 46 45
f 46 72 73
f 46 73 74
f 46 74 102
f 46 102 75
f 46 75 76
f 46 76 77
f 46 77 47
f 47 77 52
f 47 51 68
f 49 54 53
f 49 53 52
f 51 69 68
f 52 77 78
f 52 78 55
f 55 78 79
f 55 79 80
f 55 80 81
f 55 81 82
f 55 82 56
f 56 82 83
f 57 84 85
f 58 86 87
f 58 87 59
f 60 88 113
f 60 113 142
f 60 142 176
f 60 176 215
f 60 215 217
f 60 217 235
f 60 235 240
f 60 240 239
f 60 239 241
f 60 241 228
f 60 228 211
f 60 211 174
f 60 174 140
f 60 140 112
f 60 112 87
f 60 87 86
f 61 85 62
f 62 85 84
f 62 84 89
f 62 89 63
f 63 90 91
f 63 91 64
f 63 89 90
f 64 91 92
f 64 92 65
f 65 92 93
f 65 93 70
f 70 94 95
f 70 95 96
f 70 96 97
f 70 97 73
f 70 73 71
f 70 93 94
f 71 73 72
f 73 97 98
f 73 98 99
f 73 99 74
f 74 99 100
f 74 100 101
f 74 101 102
f 75 102 103
f 75 103 104
f 75 104 76
f 76 78 77
f 76 104 105
f 76 105 106
f 76 106 78
f 78 107 108
f 78 108 79
f 78 106 107
f 79 108 109
f 79 109 110
f 79 110 80
f 80 110 81
f 81 111 82
f 81 110 111
f 82 111 83
f 88 114 113
f 91 115 93
f 91 93 92
f 93 116 117
f 93 117 118
f 93 118 94
f 93 115 119
f 93 119 116
f 94 118 120
f 94 120 95
f 95 120 121
f 95 121 96
f 96 121 122
f 96 122 123
f 96 123 97
f 97 123 124
f 97 124 125
f 97 125 98
f 98 125 99
f 99 125 126
f 99 126 100
f 100 126 127
f 100 127 128
f 100 128 101
f 101 128 129
f 101 129 130
f 101 130 131
f 101 131 102
f 102 131 103
f 103 131 132
f 103 132 104
f 104 132 105
f 105 132 133
f 105 133 106
f 106 133 134
f 106 134 135
f 106 135 136
f 106 136 107
f 107 136 135
f 107 135 137
f 107 137 108
f 108 137 138
f 108 138 139
f 108 139 109
f 112 140 141
f 113 114 143
f 113 143 142
f 114 144 143
f 117 145 118
f 118 145 146
f 118 146 120
f 120 146 147
f 120 147 121
f 121 147 148
f 121 148 149
f 121 149 122
f 122 149 150
f 122 150 151
f 122 151 123
f 123 151 183
f 123 183 152
f 123 152 124
f 124 153 125
f 124 152 154
f 124 154 155
f 124 155 153
f 125 153 126
f 126 153 156
f 126 156 127
f 127 156 157
f 127 157 128
f 128 158 159
f 128 159 160
f 128 160 161
f 128 161 162
f 128 162 129
f 128 157 158
f 129 163 130
f 129 162 163
f 130 162 161
f 130 161 160
f 130 160 159
f 130 159 164
f 130 164 165
f 130 165 166
f 130 166 131
f 130 163 162
f 131 166 167
f 131 167 168
f 131 168 169
f 131 169 132
f 132 169 168
f 132 168 170
f 132 170 133
f 133 170 171
f 133 171 134
f 134 171 135
f 135 171 172
f 135 172 173
f 135 173 137
f 137 173 138
f 140 174 175
f 140 175 141
f 142 143 176
f 143 177 178
f 143 178 179
f 143 179 180
f 143 180 164
f 143 164 181
f 143 181 176
f 143 144 177
f 150 182 151
f 151 182 183
f 152 183 184
f 152 184 154
f 153 155 185
f 153 185 186
f 153 186 156
f 154 184 187
f 154 187 155
f 155 187 185
f 156 188 189
f 156 189 157
f 156 186 190
f 156 190 191
f 156 191 192
f 156 192 193
f 156 193 194
f 156 194 195
f 156 195 196
f 156 196 197
f 156 197 198
f 156 198 199
f 156 199 200
f 156 200 188
f 157 189 158
f 158 189 201
f 158 201 202
f 158 202 203
f 158 203 200
f 158 200 199
f 158 199 198
f 158 198 204
f 158 204 205
f 158 205 159
f 159 205 164
f 164 180 165
f 164 205 204
f 164 204 181
f 165 180 206
f 165 206 207
f 165 207 166
f 166 208 209
f 166 209 210
f 166 210 167
f 166 207 208
f 167 210 170
f 167 170 168
f 174 211 212
f 174 212 175
f 175 212 213
f 175 213 214
f 176 181 215
f 179 216 180
f 180 216 206
f 181 204 217
f 181 217 215
f 182 218 183
f 183 218 184
f 184 218 219
f 184 219 220
f 184 220 221
f 184 221 222
f 184 222 187
f 185 190 186
f 185 187 222
f 185 222 193
f 185 193 192
f 185 192 191
f 185 191 190
f 188 200 203
f 188 203 202
f 188 202 201
f 188 201 189
f 193 222 194
f 194 222 223
f 194 223 196
f 194 196 195
f 196 224 225
f 196 225 197
f 196 223 224
f 197 225 226
f 197 226 227
f 197 227 198
f 198 227 204
f 204 227 235
f 204 235 217
f 211 228 229
f 211 229 224
f 211 224 230
f 211 230 212
f 212 230 231
f 212 231 213
f 213 231 232
f 213 232 233
f 213 233 214
f 214 233 234
f 219 236 220
f 220 236 237
f 220 237 221
f 221 237 238
f 221 238 223
f 221 223 222
f 223 238 231
f 223 231 230
f 223 230 224
f 224 229 225
f 225 229 239
f 225 239 226
f 226 239 240
f 226 240 235
f 226 235 227
f 228 241 229
f 229 241 239
f 231 238 232
f 232 238 233
f 233 238 237
f 233 237 234
f 234 237 242
f 236 242 237

