# https://github.com/mikedh/trimesh
v 0.03930482 -0.02846879 -0.23751285
v 0.03923406 -0.02846879 -0.23442248
v 0.03931897 -0.02876960 -0.23765493
v 0.03930482 -0.03276811 -0.24145215
v 0.03914915 -0.03009387 -0.24009169
v 0.03784717 -0.02846879 -0.23947717
v 0.03921990 -0.02846879 -0.23402110
v 0.03928359 -0.03242695 -0.23780411
v 0.03931897 -0.03641813 -0.24160134
v 0.03932605 -0.05594849 -0.26102083
v 0.03925528 -0.03676296 -0.24525294
v 0.03917037 -0.05724342 -0.26346825
v 0.03909254 -0.03416209 -0.24383563
v 0.03902178 -0.03822663 -0.24757958
v 0.03893687 -0.04228751 -0.25131997
v 0.03695559 -0.02846879 -0.24003130
v 0.03912792 -0.03506084 -0.23918944
v 0.03917745 -0.03914005 -0.24293339
v 0.03771980 -0.02846879 -0.23249013
v 0.03906423 -0.03099996 -0.23544550
v 0.03925528 -0.05960584 -0.26117712
v 0.03920575 -0.04323394 -0.24666312
v 0.03931897 -0.04042398 -0.24539502
v 0.03924113 -0.05983695 -0.26404014
v 0.03619846 -0.06065866 -0.26757096
v 0.03660180 -0.05594849 -0.26393358
v 0.03766319 -0.05465355 -0.26233157
v 0.03866090 -0.04644376 -0.25494669
v 0.03507338 -0.05398591 -0.26295319
v 0.03562531 -0.04989569 -0.25923767
v 0.03695559 -0.04183263 -0.25171070
v 0.03370065 -0.02846879 -0.23825168
v 0.03606402 -0.04581280 -0.25551859
v 0.00195076 -0.04165288 -0.25204816
v -0.00048338 -0.04164921 -0.25205170
v -0.00193395 -0.04164921 -0.25205170
v -0.00452376 -0.04195736 -0.25179240
v 0.03903593 -0.05815317 -0.25882916
v 0.03919160 -0.05561833 -0.25735858
v 0.03695559 -0.02846879 -0.23215268
v 0.03895101 -0.05409596 -0.25507812
v 0.03908546 -0.06207098 -0.26260153
v 0.03908546 -0.06207098 -0.26388030
v 0.03597911 -0.06372908 -0.26744663
v 0.03307088 -0.06372908 -0.26821034
v 0.03307088 -0.06032117 -0.26796169
v 0.00788750 -0.05391988 -0.26301357
v 0.03365111 -0.02846879 -0.23809894
v -0.00760181 -0.05391621 -0.26301357
v -0.00788485 -0.05391621 -0.26301357
v -0.03296210 -0.06032851 -0.26796169
v -0.03296210 -0.05874011 -0.26516617
v -0.00446008 -0.04197570 -0.24933433
v 0.03373602 -0.02846879 -0.23368720
v 0.03365111 -0.02846879 -0.23799948
v 0.03695559 -0.06068067 -0.26004400
v 0.03695559 -0.06279732 -0.26198702
v 0.03495309 -0.04240489 -0.24344845
v 0.03517953 -0.04240489 -0.24344845
v 0.03571730 -0.04649512 -0.24716398
v 0.03394123 -0.02846879 -0.23307623
v -0.00424780 -0.04650612 -0.24719950
v -0.00193395 -0.04661984 -0.24705741
v 0.03695559 -0.05456918 -0.25467318
v 0.03695559 -0.05873644 -0.25832477
v 0.03511584 -0.06572834 -0.26647691
v 0.03511584 -0.06572834 -0.26690316
v 0.03307088 -0.06584939 -0.26707366
v 0.03297182 -0.06373275 -0.26821745
v 0.02917202 -0.06373275 -0.26835598
v 0.02528731 -0.06373275 -0.26839861
v 0.02139553 -0.06373275 -0.26843768
v 0.02139553 -0.06046424 -0.26805760
v 0.01556493 -0.06046424 -0.26806115
v 0.01361196 -0.06046424 -0.26806115
v -0.02137873 -0.06046424 -0.26805760
v -0.03296210 -0.06040188 -0.26797236
v -0.03296210 -0.05999836 -0.26102793
v -0.00400721 -0.04224349 -0.24729541
v 0.03375726 -0.02846879 -0.23338526
v 0.03613478 -0.05057434 -0.25087595
v 0.03307088 -0.06331456 -0.26198702
v 0.03307088 -0.06526246 -0.26400817
v -0.00048338 -0.04661984 -0.24705386
v 0.00195076 -0.04661984 -0.24705741
v 0.00972017 -0.06327787 -0.26180940
v 0.03297182 -0.06336224 -0.26202609
v -0.00424780 -0.04429043 -0.24717818
v -0.03296210 -0.06331456 -0.26199767
v -0.00970337 -0.06327420 -0.26180585
v 0.03307088 -0.06584939 -0.26595475
v 0.03297182 -0.06585306 -0.26708076
v 0.02917202 -0.06594110 -0.26720509
v 0.01556493 -0.06373275 -0.26844123
v -0.01358808 -0.06372908 -0.26844123
v -0.01677935 -0.06372908 -0.26844123
v -0.02137873 -0.06373275 -0.26844123
v -0.03296210 -0.06373275 -0.26821745
v -0.02915522 -0.06373275 -0.26835242
v 0.02917202 -0.06519276 -0.26366717
v 0.03297182 -0.06528080 -0.26404725
v 0.01361196 -0.06524778 -0.26366717
v -0.01358808 -0.06525145 -0.26366362
v -0.03296210 -0.06526246 -0.26399396
v -0.02915522 -0.06518909 -0.26366717
v 0.03297182 -0.06585306 -0.26594764
v 0.02917202 -0.06594110 -0.26561018
v 0.01556493 -0.06594477 -0.26720509
v -0.01677935 -0.06594477 -0.26720509
v -0.02915522 -0.06594110 -0.26720509
v -0.03296210 -0.06585306 -0.26708076
v 0.01556493 -0.06594477 -0.26561018
v -0.02915522 -0.06594110 -0.26561018
v -0.01677935 -0.06594477 -0.26561018
v -0.03296210 -0.06585306 -0.26594053
f 1 2 3
f 1 3 4
f 1 4 5
f 1 5 6
f 1 6 16
f 1 16 32
f 1 32 48
f 1 48 55
f 1 55 54
f 1 54 80
f 1 80 61
f 1 61 40
f 1 40 19
f 1 19 7
f 1 7 2
f 2 7 8
f 2 8 3
f 3 9 10
f 3 10 4
f 3 8 9
f 4 11 5
f 4 10 12
f 4 12 11
f 5 11 12
f 5 12 13
f 5 13 6
f 6 13 14
f 6 14 15
f 6 15 16
f 7 17 18
f 7 18 8
f 7 19 20
f 7 20 17
f 8 21 9
f 8 18 22
f 8 22 21
f 9 23 10
f 9 21 23
f 10 23 21
f 10 21 24
f 10 24 12
f 12 24 25
f 12 25 26
f 12 26 27
f 12 27 28
f 12 28 15
f 12 15 14
f 12 14 13
f 15 28 27
f 15 27 26
f 15 26 29
f 15 29 30
f 15 30 31
f 15 31 16
f 16 31 33
f 16 33 30
f 16 30 29
f 16 29 34
f 16 34 35
f 16 35 36
f 16 36 37
f 16 37 32
f 17 20 38
f 17 38 18
f 18 38 39
f 18 39 21
f 18 21 22
f 19 40 41
f 19 41 20
f 20 41 38
f 21 39 38
f 21 38 42
f 21 42 24
f 24 42 43
f 24 43 44
f 24 44 25
f 25 29 26
f 25 44 45
f 25 45 46
f 25 46 29
f 29 46 47
f 29 47 34
f 30 33 31
f 32 37 48
f 34 47 35
f 35 47 49
f 35 49 50
f 35 50 36
f 36 50 51
f 36 51 37
f 37 51 52
f 37 52 53
f 37 53 54
f 37 54 55
f 37 55 48
f 38 41 56
f 38 56 57
f 38 57 42
f 40 58 59
f 40 59 60
f 40 60 41
f 40 61 62
f 40 62 63
f 40 63 58
f 41 60 64
f 41 64 65
f 41 65 56
f 42 57 66
f 42 66 67
f 42 67 43
f 43 67 44
f 44 67 45
f 45 67 68
f 45 68 92
f 45 92 69
f 45 69 46
f 46 69 70
f 46 70 71
f 46 71 72
f 46 72 73
f 46 73 74
f 46 74 75
f 46 75 51
f 46 51 50
f 46 50 49
f 46 49 47
f 51 75 76
f 51 76 77
f 51 77 98
f 51 98 111
f 51 111 115
f 51 115 104
f 51 104 89
f 51 89 78
f 51 78 52
f 52 78 79
f 52 79 53
f 53 79 80
f 53 80 54
f 56 65 81
f 56 81 60
f 56 60 82
f 56 82 57
f 57 82 83
f 57 83 66
f 58 63 84
f 58 84 59
f 59 84 85
f 59 85 86
f 59 86 87
f 59 87 82
f 59 82 60
f 60 81 64
f 61 80 79
f 61 79 88
f 61 88 62
f 62 88 78
f 62 78 89
f 62 89 63
f 63 89 90
f 63 90 84
f 64 81 65
f 66 83 91
f 66 91 68
f 66 68 67
f 68 91 106
f 68 106 92
f 69 92 93
f 69 93 70
f 70 93 71
f 71 93 72
f 72 93 94
f 72 94 74
f 72 74 73
f 74 94 95
f 74 95 96
f 74 96 75
f 75 96 97
f 75 97 76
f 76 97 77
f 77 97 99
f 77 99 98
f 78 88 79
f 82 87 83
f 83 87 100
f 83 100 101
f 83 101 91
f 84 90 86
f 84 86 85
f 86 102 100
f 86 100 87
f 86 90 103
f 86 103 102
f 89 104 105
f 89 105 90
f 90 105 103
f 91 101 106
f 92 106 107
f 92 107 93
f 93 107 112
f 93 112 108
f 93 108 94
f 94 108 109
f 94 109 97
f 94 97 96
f 94 96 95
f 97 109 110
f 97 110 99
f 98 99 110
f 98 110 111
f 100 102 107
f 100 107 101
f 101 107 106
f 102 112 107
f 102 103 112
f 103 105 113
f 103 113 114
f 103 114 112
f 104 115 113
f 104 113 105
f 108 112 114
f 108 114 109
f 109 114 113
f 109 113 110
f 110 113 115
f 110 115 111

