# https://github.com/mikedh/trimesh
v -0.04852921 0.00627959 -0.00818168
v -0.04849120 0.00627959 -0.01207347
v -0.04844369 0.00239154 -0.00818168
v -0.04796857 0.00627959 -0.00428399
v -0.04826314 0.01016763 -0.00818168
v -0.04831065 0.00627959 -0.02759928
v -0.04828215 0.00239154 -0.02374883
v -0.04840568 0.00239154 -0.01207347
v -0.04822513 0.01016763 -0.01207347
v -0.04788305 0.00239154 -0.00428399
v -0.04797808 -0.00149650 -0.01207347
v -0.04800658 -0.00149650 -0.00818168
v -0.04698984 0.00239154 -0.00189812
v -0.04703735 0.00627959 -0.00184498
v -0.04689482 0.01016763 -0.00202215
v -0.04770251 0.01016763 -0.00428399
v -0.04710387 0.01394098 -0.00423674
v -0.04685681 0.01665918 -0.00550054
v -0.04763599 0.01406714 -0.00818168
v -0.04797808 0.00627959 -0.05582212
v -0.04800658 0.00239154 -0.04705821
v -0.04759799 0.01406714 -0.01207347
v -0.04767400 0.01016763 -0.05483588
v -0.04731292 -0.00181764 -0.00392965
v -0.04683780 -0.00072807 -0.00209892
v -0.04790206 0.00239154 -0.05582212
v -0.04783554 -0.00149650 -0.02374883
v -0.04722740 -0.00538455 -0.00818168
v -0.04669527 -0.00743753 -0.00610882
v -0.04694233 -0.00538455 -0.00520527
v -0.04435771 0.00221951 0.00034010
v -0.04477581 0.00627959 0.00009796
v -0.04433871 0.00994972 0.00021017
v -0.04675228 0.01257616 -0.00221703
v -0.04646722 0.01515672 -0.00290799
v -0.04605862 0.01795519 -0.00423674
v -0.04464278 0.02183177 -0.00428399
v -0.04522242 0.02183177 -0.00818168
v -0.04634368 0.01889566 -0.00818168
v -0.04694233 0.01695738 -0.00818168
v -0.04774052 0.00918128 -0.05582212
v -0.04553599 -0.00838947 -0.05582802
v -0.04692332 0.01686562 -0.01207347
v -0.04665726 0.01598249 -0.04483771
v -0.04706586 0.01382629 -0.05094409
v -0.04704685 0.01348221 -0.05483588
v -0.04717989 0.01263350 -0.05582212
v -0.04764550 0.01016763 -0.05582212
v -0.04663826 -0.00333157 -0.00240600
v -0.04442423 -0.00538455 -0.00074063
v -0.04508939 -0.00181764 -0.00072292
v -0.04743644 -0.00149650 -0.05582212
v -0.04774052 -0.00149650 -0.03149107
v -0.04707536 -0.00577450 -0.01244552
v -0.04667626 -0.00740312 -0.01140023
v -0.04670477 -0.00744900 -0.00818168
v -0.04714188 -0.00532720 -0.01595344
v -0.03066494 -0.06609081 -0.03551868
v -0.03911246 -0.02742827 -0.00538243
v -0.04410115 -0.01317211 -0.00428989
v -0.04569753 -0.00895146 -0.00460289
v -0.04637219 -0.00538455 -0.00325641
v -0.04281834 0.00341230 0.00157436
v -0.04270432 0.00080880 0.00153302
v -0.04282785 0.00627959 0.00158026
v -0.04279934 0.00849313 0.00155665
v -0.04249527 0.01108516 0.00148578
v -0.04499436 0.01394098 -0.00088237
v -0.04412016 0.01794372 -0.00096504
v -0.04339798 0.02183177 -0.00163237
v -0.04291337 0.02406825 -0.00216388
v -0.04329346 0.02477934 -0.00428399
v -0.04514640 0.02183177 -0.01207347
v -0.04631518 0.01880391 -0.01207347
v -0.04359753 0.02532986 -0.00818168
v -0.04526043 -0.00928406 -0.05582802
v -0.04629617 -0.00613005 -0.05582212
v -0.04687581 -0.00419176 -0.05582212
v -0.04701835 0.01329871 -0.05582212
v -0.04566902 0.01515672 -0.05582212
v -0.04438622 0.01687709 -0.05582212
v -0.00501832 0.01672799 -0.05582802
v -0.04660025 0.01577605 -0.05094409
v -0.04603011 0.01808135 -0.03926873
v -0.04591608 0.01794372 -0.04705821
v -0.04583056 0.01794372 -0.05094409
v -0.04277083 -0.01514480 -0.00232333
v -0.04313192 -0.01317211 -0.00190403
v -0.04382558 -0.00928406 -0.00120126
v -0.04183961 -0.00538455 0.00120231
v -0.04239074 -0.00149650 0.00144444
v -0.04129798 -0.00928406 0.00074758
v -0.04143101 -0.00838947 0.00084797
v -0.04665726 -0.00733431 -0.01398097
v -0.03051291 -0.06609081 -0.03920377
v -0.02954367 -0.06609081 -0.03150287
v -0.03821925 -0.02871282 -0.00416588
v -0.03872287 -0.02639605 -0.00279578
v -0.04307491 -0.01593618 -0.00428989
v -0.04044278 -0.00149650 0.00182831
v -0.04116495 0.00221951 0.00179287
v -0.04082287 0.00627959 0.00186373
v -0.03935002 -0.00928406 0.00171610
v -0.03948305 -0.00838947 0.00173972
v -0.03989164 -0.00538455 0.00181058
v -0.04105092 0.00994972 0.00179287
v -0.04014821 0.01406714 0.00182831
v -0.03958757 0.01794372 0.00176925
v -0.04208667 0.01406714 0.00134404
v -0.04152604 0.01794372 0.00097789
v -0.04060432 0.02190058 0.00050545
v -0.04087038 0.02550190 -0.00106544
v -0.03960658 0.02874767 -0.00161466
v -0.03871336 0.03133970 -0.00273081
v -0.04224821 0.02672910 -0.00428399
v -0.04486133 0.02183177 -0.02374883
v -0.04255228 0.02725668 -0.00818168
v -0.04355002 0.02522664 -0.01207347
v -0.04448124 0.02183177 -0.03926873
v -0.04387310 -0.01317211 -0.05582802
v -0.02719662 -0.06609081 -0.05582212
v -0.02850793 -0.06609081 -0.04942045
v -0.02978123 -0.06609081 -0.04316643
v -0.04414866 0.02183177 -0.05094409
v -0.04287536 0.02394209 -0.05302286
v -0.03941653 0.02834625 -0.05335948
v -0.03575816 0.03240632 -0.05344807
v -0.03196675 0.03625997 -0.05345397
v -0.02922060 0.03748717 -0.05387917
v -0.02526766 0.03738394 -0.05456422
v -0.01748530 0.04127199 -0.05462328
v -0.04082287 0.01872362 -0.05582212
v -0.00193009 0.01782903 -0.05582802
v -0.04426269 0.02183177 -0.04705821
v -0.03920748 -0.02380402 -0.00194537
v -0.03972060 -0.02094820 -0.00139615
v -0.03723101 -0.02094820 0.00054088
v -0.04051879 -0.01308036 0.00026332
v -0.03901744 -0.01170405 0.00160980
v -0.03500748 -0.02297824 0.00156255
v -0.03841879 -0.01430756 0.00141491
v -0.02791879 -0.06609081 -0.02866228
v -0.03559662 -0.03141954 -0.00168552
v -0.01619299 0.00626812 0.00446810
v -0.01605996 0.01016763 0.00446810
v -0.03507400 -0.02253094 0.00158617
v -0.03527354 -0.02094820 0.00165705
v -0.03589119 -0.01706015 0.00179287
v -0.03692694 -0.00928406 0.00200547
v -0.01596494 0.00505239 0.00446810
v -0.03692694 -0.00838947 0.00203500
v -0.03692694 0.01794372 0.00205862
v -0.03709798 0.02190058 0.00184011
v -0.03915997 0.02065044 0.00165114
v -0.03850431 0.02323100 0.00145625
v -0.03776314 0.02570834 0.00106058
v -0.03694594 0.02961933 -0.00022094
v -0.03612875 0.03284216 -0.00140796
v -0.03498847 0.03543419 -0.00235877
v -0.03709798 0.03367941 -0.00384107
v -0.03917898 0.03192463 -0.00532928
v -0.04019572 0.02986017 -0.00413635
v -0.04249527 0.02716493 -0.01207347
v -0.04103192 0.02959639 -0.00818168
v -0.04310341 0.02433204 -0.04316643
v -0.04296088 -0.01563798 -0.05582802
v 0.02707084 -0.06609081 -0.05582212
v -0.04038576 -0.02253094 -0.05582802
v -0.04303690 0.02421735 -0.04705821
v -0.04297038 0.02410266 -0.05094409
v -0.04168757 0.02605241 -0.05094409
v -0.03974911 0.02877061 -0.05094409
v -0.03816223 0.03070890 -0.05094409
v -0.03621427 0.03291097 -0.05094409
v -0.03441834 0.03484926 -0.05094409
v -0.03247037 0.03674167 -0.05094409
v -0.03035137 0.03867996 -0.05094409
v -0.02796630 0.03990715 -0.05338901
v -0.02503960 0.04123757 -0.05365476
v -0.02136222 0.04127199 -0.05433981
v -0.00970294 0.04516004 -0.05458784
v -0.00581651 0.04516004 -0.05462328
v -0.03692694 0.01883832 -0.05582212
v 0.00194684 0.01781756 -0.05582802
v 0.04032650 0.01884979 -0.05582212
v -0.03629029 -0.02871282 -0.00103590
v -0.03435182 -0.02558174 0.00133224
v -0.03174820 -0.02776088 0.00172791
v -0.03305001 -0.02450364 0.00176925
v -0.02587580 -0.06609081 -0.02671344
v -0.03276495 -0.03268115 -0.00113630
v -0.03305001 -0.02893073 0.00100743
v -0.02510612 -0.06609081 -0.02602248
v -0.02393734 -0.06609081 -0.02527838
v -0.00108438 -0.00840094 0.00450354
v -0.01467263 0.01406714 0.00446810
v -0.03304051 -0.02094820 0.00195823
v -0.01497670 0.00210481 0.00446810
v -0.01305724 0.01747349 0.00446810
v -0.03305001 0.02570834 0.00202909
v -0.03581517 0.02570834 0.00173972
v -0.03517852 0.02791042 0.00161570
v -0.03403825 0.03050245 0.00119050
v -0.03322105 0.03366794 -0.00010282
v -0.03238485 0.03659258 -0.00139025
v -0.03092150 0.03918460 -0.00269538
v -0.03324006 0.03755598 -0.00382335
v -0.03548259 0.03593883 -0.00495132
v -0.03763011 0.03402349 -0.00818168
v -0.03930250 0.03208520 -0.00818168
v -0.04227671 0.02682085 -0.02374883
v -0.04089889 0.02959639 -0.01207347
v 0.02960794 -0.06609081 -0.04316643
v -0.02680702 -0.02253094 -0.05582802
v 0.00553870 -0.00062485 -0.05582802
v 0.00748666 0.00075145 -0.05582802
v 0.00874096 0.00271268 -0.05582802
v 0.01002377 0.00626812 -0.05582802
v 0.04630342 -0.00607270 -0.05582212
v -0.04180160 0.02616711 -0.04705821
v -0.03984413 0.02890823 -0.04705821
v -0.03881789 0.03147733 -0.02840244
v -0.03862784 0.03124794 -0.03538285
v -0.03827626 0.03085800 -0.04705821
v -0.03752558 0.03393172 -0.01207347
v -0.03558712 0.03603058 -0.01207347
v -0.03359164 0.03808356 -0.00818168
v -0.03165318 0.03976953 -0.00818168
v -0.02841291 0.04025123 -0.05094409
v -0.02359526 0.04338231 -0.05308192
v -0.02207489 0.04376080 -0.05334767
v -0.02136222 0.04393283 -0.05346578
v -0.01728575 0.04524031 -0.05367839
v -0.01360837 0.04516004 -0.05428076
v -0.00970294 0.04807320 -0.05372563
v -0.00581651 0.04832552 -0.05376106
v -0.00193009 0.04849757 -0.05376106
v 0.00583327 0.04516004 -0.05462328
v 0.00502557 0.01672799 -0.05582802
v 0.04083962 0.01874656 -0.05582212
v 0.00971969 0.04516004 -0.05458784
v -0.02914458 -0.02832287 0.00182240
v -0.02914458 -0.02484771 0.00211177
v -0.02914458 -0.03027262 0.00146216
v -0.03131110 -0.03463090 -0.00224656
v -0.02305363 -0.06609081 -0.02488861
v -0.02138123 -0.06609081 -0.02433348
v -0.01327579 -0.00130153 0.00446810
v -0.01168891 -0.00345773 0.00446810
v -0.00954140 -0.00510929 0.00446810
v -0.00630113 -0.00699023 0.00446810
v -0.00383054 -0.00793070 0.00446810
v -0.02526766 -0.02840315 0.00183421
v -0.00102737 -0.00840094 0.00450354
v -0.00193009 0.02389622 0.00446220
v -0.01147036 0.01893007 0.00446810
v -0.00918982 0.02123537 0.00446220
v -0.02893553 0.03332386 0.00176925
v -0.03285997 0.02936700 0.00176925
v -0.03144413 0.03190169 0.00165114
v -0.03008530 0.03449372 0.00120231
v -0.02920160 0.03741835 -0.00018551
v -0.02831788 0.04012507 -0.00157332
v -0.03150114 0.03964336 -0.00529384
v -0.02382331 0.04349701 -0.00200443
v -0.02654096 0.04279739 -0.00428399
v -0.02942965 0.04073294 -0.00411273
v -0.03568214 0.03613381 -0.00818168
v -0.03922649 0.03197051 -0.01207347
v 0.03007355 -0.06609081 -0.04081009
v 0.04796632 0.00627959 -0.05582212
v 0.04789981 0.00239154 -0.05582212
v 0.04741519 -0.00149650 -0.05582212
v 0.04688306 -0.00413441 -0.05582212
v 0.00985273 0.01016763 -0.05582802
v 0.03032061 -0.06609081 -0.03928054
v -0.03888440 0.03155761 -0.02580988
v -0.02915408 0.04160460 -0.00818168
v -0.02574277 0.04220099 -0.05094409
v -0.02379480 0.04351995 -0.05094409
v -0.02207489 0.04441454 -0.05094409
v -0.02136222 0.04478155 -0.05095000
v -0.01804593 0.04643311 -0.05095000
v -0.01586041 0.04723596 -0.05305829
v -0.01360837 0.04761444 -0.05341854
v -0.00581651 0.04980505 -0.05095000
v -0.00193009 0.05014912 -0.05095000
v 0.00194684 0.04848609 -0.05376106
v 0.00697354 0.01524847 -0.05582802
v 0.04388035 0.01709500 -0.05582212
v 0.01750205 0.04127199 -0.05462328
v 0.01360612 0.04516004 -0.05428076
v 0.02139798 0.04127199 -0.05433391
v 0.02072332 0.04127199 -0.05438706
v 0.00583327 0.04832552 -0.05376106
v 0.00971969 0.04807320 -0.05371382
v -0.02526766 -0.03034144 0.00147987
v -0.02914458 -0.03261233 -0.00029771
v -0.01983236 -0.06609081 -0.02402049
v -0.01748530 -0.06609081 -0.02374292
v -0.01594593 -0.06609081 -0.02370158
v -0.01095724 -0.02903395 0.00172791
v 0.02527491 -0.02840315 0.00183421
v 0.02917084 -0.02832287 0.00182831
v 0.00112014 -0.00840094 0.00448582
v 0.00583327 -0.00711639 0.00446810
v 0.00954865 -0.00510929 0.00446810
v 0.01032784 -0.00432939 0.00446810
v 0.01248485 -0.00211584 0.00446810
v 0.01327354 -0.00129006 0.00446810
v 0.01504096 0.00239154 0.00446810
v 0.01619074 0.00626812 0.00446810
v 0.01615273 0.00781646 0.00446810
v 0.01605771 0.01016763 0.00446810
v 0.01582965 0.01121132 0.00446810
v 0.01465137 0.01411302 0.00446810
v 0.01328304 0.01702619 0.00446810
v 0.01305499 0.01746201 0.00446810
v 0.01272241 0.01779462 0.00446810
v 0.01158214 0.01893007 0.00446810
v 0.00194684 0.02389622 0.00446220
v -0.00581651 0.02266902 0.00446220
v -0.00193009 0.04404752 0.00181058
v -0.00581651 0.04392137 0.00179287
v -0.00970294 0.04366904 0.00172200
v -0.02157127 0.03761333 0.00186373
v -0.02526766 0.03637466 0.00174562
v -0.02526766 0.03349590 0.00203500
v -0.01748530 0.04040034 0.00179287
v -0.02749119 0.03564064 0.00161570
v -0.02526766 0.03831294 0.00111373
v -0.02517263 0.04136374 -0.00092960
v -0.02701607 0.04310705 -0.00818168
v -0.02207489 0.04361170 -0.00131938
v -0.02207489 0.04393283 -0.00157922
v -0.01586991 0.04722448 -0.00219931
v -0.01846403 0.04671984 -0.00356941
v -0.02101064 0.04591700 -0.00462651
v -0.02460250 0.04396725 -0.00428399
v 0.04854596 0.00627959 -0.00817578
v 0.04763374 0.01016763 -0.05582212
v 0.04766225 0.01016763 -0.05483588
v 0.04793782 0.01016763 -0.03538285
v 0.04808985 0.01016763 -0.02373702
v 0.04823238 0.01016763 -0.01207347
v 0.04832741 0.00239154 -0.01984523
v 0.04796632 -0.00149650 -0.01207347
v 0.04782379 -0.00149650 -0.02373702
v 0.04720614 -0.00538455 -0.00817578
v 0.04707311 -0.00574009 -0.01187268
v 0.04668352 -0.00734578 -0.01044352
v 0.03051065 -0.06609081 -0.03692421
v 0.00953915 0.01095901 -0.05582802
v 0.04702560 0.01326431 -0.05582212
v -0.02507761 0.04425397 -0.00818168
v -0.02207489 0.04459804 -0.04705821
v -0.02136222 0.04498800 -0.04704640
v -0.01818847 0.04657073 -0.04704640
v -0.01609797 0.04735065 -0.05095000
v -0.01360837 0.04819936 -0.05095000
v -0.00970294 0.04918572 -0.05095000
v -0.00581651 0.05008030 -0.04704640
v -0.00193009 0.05044732 -0.04704640
v 0.00194684 0.05043585 -0.04704640
v 0.00194684 0.05012618 -0.05095000
v 0.04629392 0.01472088 -0.05582212
v 0.00858892 0.01329871 -0.05582802
v 0.02528441 0.03738394 -0.05456422
v 0.02923735 0.03748717 -0.05387917
v 0.03319980 0.03362207 -0.05391461
v 0.03199301 0.03625997 -0.05345988
v 0.01360612 0.04761444 -0.05341263
v 0.01731201 0.04524031 -0.05367839
v 0.02139798 0.04393283 -0.05347169
v 0.02072332 0.04193720 -0.05422761
v 0.02505636 0.04123757 -0.05365476
v 0.00583327 0.04980505 -0.05095000
v -0.01094774 -0.03035291 0.00147987
v -0.01358937 -0.06609081 -0.02368977
v 0.02527491 -0.03035291 0.00147987
v 0.03175545 -0.02776088 0.00172791
v 0.02917084 -0.02625842 0.00200547
v 0.02917084 -0.03027262 0.00146806
v 0.02916133 -0.02483624 0.00211177
v 0.03304776 -0.02094820 0.00195232
v 0.03694369 -0.00928406 0.00200547
v 0.03695319 -0.00838947 0.00203500
v 0.04083962 0.00627959 0.00187555
v 0.03990840 -0.00538455 0.00181648
v 0.04045003 -0.00149650 0.00184011
v 0.04016496 0.01405567 0.00182831
v 0.03695319 0.01795519 0.00205272
v 0.03711473 0.02188911 0.00184602
v 0.03306677 0.02571981 0.00203500
v 0.03287672 0.02936700 0.00176335
v 0.01123055 0.01948058 0.00446220
v 0.00919707 0.02123537 0.00446220
v 0.00874096 0.02145329 0.00446220
v 0.00583327 0.02265755 0.00446220
v 0.00268802 0.02374711 0.00446220
v 0.00583327 0.04390989 0.00179287
v 0.00194684 0.04404752 0.00181058
v -0.01366539 0.04147843 0.00182831
v -0.00193009 0.04599729 0.00110782
v -0.01240158 0.04339379 0.00162751
v -0.00581651 0.04587113 0.00097789
v -0.02041200 0.03974659 0.00168657
v -0.02299661 0.03908138 0.00149169
v -0.02207489 0.04075588 0.00076529
v -0.02157127 0.04114583 0.00070624
v -0.02136222 0.04410487 -0.00140206
v -0.01360837 0.04755709 -0.00177411
v -0.00970294 0.04957566 -0.00428989
v -0.01360837 0.04860078 -0.00428989
v -0.01729525 0.04748827 -0.00462651
v -0.01729525 0.04530914 -0.00096504
v -0.01947127 0.04713273 -0.00615016
v 0.04799483 0.00627959 -0.00428399
v 0.04844144 0.00239154 -0.00817578
v 0.04841293 0.00239154 -0.01207347
v 0.04827039 0.01016763 -0.00817578
v 0.04772876 0.01016763 -0.00428399
v 0.04704460 0.01343634 -0.05483588
v 0.04706361 0.01380336 -0.05095000
v 0.04728216 0.01405567 -0.03538285
v 0.04733917 0.01405567 -0.03150287
v 0.04745320 0.01405567 -0.02373702
v 0.04761474 0.01405567 -0.01207347
v 0.04799483 -0.00149650 -0.00817578
v 0.04669302 -0.00739165 -0.00817578
v 0.04669302 -0.00739165 -0.00616197
v 0.03044414 -0.06609081 -0.03539466
v 0.04289211 0.02393062 -0.05301106
v 0.04583781 0.01795519 -0.05095000
v 0.04661700 0.01574164 -0.05095000
v -0.02101064 0.04637577 -0.00834704
v -0.02136222 0.04607756 -0.01207347
v -0.01940476 0.04709832 -0.00975848
v -0.01624050 0.04739653 -0.04704640
v -0.01360837 0.04841728 -0.04316643
v -0.01360837 0.04831405 -0.04704640
v -0.00970294 0.04938068 -0.04704640
v -0.00970294 0.04956420 -0.03928054
v -0.00581651 0.05025235 -0.03928054
v -0.00581651 0.05033262 -0.03538285
v -0.00193009 0.05067670 -0.03538285
v 0.00194684 0.05059643 -0.03928054
v 0.00583327 0.05018353 -0.04316643
v 0.00583327 0.05008030 -0.04704640
v 0.03578441 0.03241780 -0.05344807
v 0.03942378 0.02834625 -0.05335358
v 0.02798305 0.03990715 -0.05338901
v 0.03036812 0.03867996 -0.05095000
v 0.03249663 0.03673021 -0.05095000
v 0.03444459 0.03486074 -0.05095000
v 0.00971969 0.04918572 -0.05095000
v 0.01587716 0.04724742 -0.05305829
v 0.02361201 0.04338231 -0.05308782
v 0.01360612 -0.06609081 -0.02368977
v 0.01750205 -0.06609081 -0.02374292
v 0.03354188 -0.02625842 0.00146216
v 0.03501473 -0.02296677 0.00155665
v 0.03305726 -0.02449217 0.00176925
v 0.03305726 -0.02891926 0.00099562
v 0.02917084 -0.03261233 -0.00029771
v 0.03132785 -0.03463090 -0.00223474
v 0.03279120 -0.03266968 -0.00114812
v 0.03589844 -0.01706015 0.00179287
v 0.03761835 -0.00838947 0.00196413
v 0.04285410 0.00627959 0.00157436
v 0.04281609 0.00849313 0.00155665
v 0.04106768 0.00993825 0.00178696
v 0.04118170 0.00225391 0.00179877
v 0.04284460 0.00345817 0.00157436
v 0.04270207 0.00086615 0.00153302
v 0.03949030 -0.00838947 0.00173972
v 0.03960433 0.01795519 0.00176335
v 0.03917672 0.02063897 0.00165705
v 0.03583193 0.02571981 0.00173381
v 0.03518577 0.02791042 0.00161570
v 0.03146088 0.03189022 0.00164522
v 0.02895228 0.03331239 0.00176335
v 0.02528441 0.03349590 0.00204091
v 0.02528441 0.03637466 0.00174562
v 0.02159753 0.03762479 0.00186965
v 0.01750205 0.04037740 0.00179287
v 0.01366314 0.04147843 0.00182831
v 0.00971969 0.04365758 0.00172200
v 0.00194684 0.04599729 0.00110782
v -0.00193009 0.04853197 -0.00083512
v -0.01499570 0.04291208 0.00147396
v -0.00970294 0.04560734 0.00069443
v -0.00581651 0.04835992 -0.00096504
v -0.01748530 0.04233862 0.00120231
v -0.00970294 0.04805026 -0.00124851
v -0.01366539 0.04487331 0.00040506
v -0.00546493 0.05036704 -0.00466195
v -0.00392556 0.05099784 -0.00621512
v -0.00970294 0.05012618 -0.00818758
v -0.01360837 0.04916277 -0.00818758
v -0.01786539 0.04770619 -0.00834704
v -0.01947127 0.04713273 -0.00716591
v 0.04705410 0.00627959 -0.00183907
v 0.04700659 0.00239154 -0.00190403
v 0.04789030 0.00239154 -0.00428399
v 0.04692107 0.01016763 -0.00201033
v 0.04765275 0.01405567 -0.00817578
v 0.04687356 0.01663623 -0.00550645
v 0.04712062 0.01394098 -0.00424265
v 0.04676904 0.01256469 -0.00221703
v 0.04710162 0.01395245 -0.04705231
v 0.04721564 0.01405567 -0.03927464
v 0.04667401 0.01599397 -0.04487905
v 0.04670252 0.01606278 -0.04228649
v 0.04679754 0.01634951 -0.03150287
v 0.04682605 0.01645273 -0.02760518
v 0.04694008 0.01685415 -0.01207347
v 0.04695908 0.01693443 -0.00817578
v 0.04731066 -0.00178323 -0.00394737
v 0.04694958 -0.00538455 -0.00527022
v 0.04580931 -0.00838947 -0.00443754
v 0.04604686 -0.00838947 -0.00515211
v 0.04409890 -0.01317211 -0.00428989
v 0.03912921 -0.02741680 -0.00540014
v 0.04636994 -0.00538455 -0.00332728
v 0.02995002 -0.06609081 -0.03303242
v 0.03974686 0.02875914 -0.05095000
v 0.04169482 0.02602948 -0.05095000
v 0.04298713 0.02409119 -0.05095000
v 0.04414641 0.02183177 -0.05095000
v 0.04613238 0.01759965 -0.04341446
v 0.04426994 0.02183177 -0.04705231
v 0.04459302 0.02183177 -0.03538285
v 0.04469754 0.02183177 -0.03150287
v 0.04488759 0.02183177 -0.02373702
v 0.04515365 0.02183177 -0.01207347
v 0.04613238 0.01829926 -0.03150287
v 0.04592334 0.01795519 -0.04705231
v -0.01736177 0.04780942 -0.01207347
v -0.00581651 0.05069964 -0.01207347
v -0.00546493 0.05081433 -0.00827027
v -0.00379253 0.05098637 -0.00963445
v -0.00340294 0.05097491 -0.01207347
v -0.00193009 0.05081433 -0.02761109
v -0.00028619 0.05099784 -0.01873498
v 0.00029344 0.05099784 -0.01873498
v 0.00194684 0.05073405 -0.03149107
v 0.00341969 0.05097491 -0.01207347
v 0.00971969 0.05008030 -0.01207347
v 0.00971969 0.04947244 -0.04316643
v 0.00971969 0.04938068 -0.04704640
v 0.00379978 0.05098637 -0.00965217
v 0.00583327 0.05047026 -0.02761109
v 0.03624052 0.03292245 -0.05095000
v 0.03818849 0.03070890 -0.05095000
v 0.02842016 0.04026271 -0.05095000
v 0.03048215 0.03878319 -0.04705231
v 0.03359889 0.03807210 -0.00817578
v 0.03262016 0.03684490 -0.04705231
v 0.03456812 0.03498689 -0.04705231
v 0.01360612 0.04819936 -0.05095000
v 0.01612422 0.04735065 -0.05095000
v 0.01806268 0.04644459 -0.05095000
v 0.02139798 0.04479302 -0.05095000
v 0.02381156 0.04351995 -0.05095000
v 0.02575002 0.04220099 -0.05095000
v 0.02139798 -0.06609081 -0.02436892
v 0.03409301 -0.02625842 0.00126728
v 0.03435907 -0.02555880 0.00133224
v 0.03723826 -0.02094820 0.00053498
v 0.04130523 -0.00928406 0.00073577
v 0.03842604 -0.01429609 0.00141491
v 0.03903419 -0.01170405 0.00160980
v 0.03529030 -0.02094820 0.00165705
v 0.03560387 -0.03141954 -0.00168552
v 0.03631654 -0.02871282 -0.00103000
v 0.02385907 -0.06609081 -0.02531972
v 0.03935727 -0.00928406 0.00171610
v 0.04479256 0.00627959 0.00010387
v 0.04436496 0.00993825 0.00021607
v 0.04251202 0.01108516 0.00148578
v 0.04437446 0.00225391 0.00033418
v 0.04238849 -0.00149650 0.00144444
v 0.04510614 -0.00178323 -0.00073472
v 0.03851157 0.02323100 0.00145625
v 0.04210342 0.01405567 0.00134404
v 0.04154279 0.01795519 0.00097789
v 0.03777039 0.02571981 0.00104877
v 0.03404550 0.03050245 0.00118459
v 0.03009256 0.03448225 0.00120231
v 0.02749844 0.03564064 0.00161570
v 0.02042875 0.03974659 0.00168657
v 0.02072332 0.03921901 0.00173381
v 0.01239933 0.04339379 0.00162751
v 0.00583327 0.04587113 0.00097199
v 0.00194684 0.04853197 -0.00083512
v -0.00193009 0.05047026 -0.00408320
v -0.00193009 0.05104372 -0.00603795
v -0.00227217 0.05107812 -0.00827027
v -0.00392556 0.05099784 -0.00703009
v 0.04684505 -0.00067072 -0.00211073
v 0.04501112 0.01394098 -0.00087647
v 0.04648397 0.01515672 -0.00291980
v 0.04635093 0.01888419 -0.00817578
v 0.04522967 0.02183177 -0.00817578
v 0.04464053 0.02183177 -0.00428399
v 0.04607537 0.01794372 -0.00424265
v 0.04412741 0.01795519 -0.00096504
v 0.04621790 0.01849424 -0.02373702
v 0.04633193 0.01880391 -0.01207347
v 0.04664551 -0.00326276 -0.00243554
v 0.04278759 -0.01513333 -0.00233514
v 0.04569528 -0.00892852 -0.00463832
v 0.04308216 -0.01591324 -0.00428989
v 0.03875862 -0.02625842 -0.00276034
v 0.03873012 -0.02637311 -0.00280759
v 0.03822650 -0.02870135 -0.00418359
v 0.02936088 -0.06609081 -0.03150287
v 0.03985138 0.02889677 -0.04705231
v 0.03832152 0.03085800 -0.04705231
v 0.04179935 0.02615564 -0.04705231
v 0.04188487 0.02627033 -0.04317233
v 0.04197039 0.02638503 -0.03927464
v 0.04213193 0.02660293 -0.03150287
v 0.04220795 0.02671762 -0.02760518
v 0.04305365 0.02421735 -0.04705231
v 0.04324369 0.02454996 -0.03538285
v 0.04330071 0.02466465 -0.03150287
v 0.04355727 0.02521517 -0.01207347
v 0.04360478 0.02530692 -0.00817578
v -0.00076131 0.05102078 -0.01596526
v 0.00076856 0.05102078 -0.01596526
v 0.00228892 0.05107812 -0.00828208
v 0.00583327 0.05071112 -0.01207347
v 0.00971969 0.05012618 -0.00818758
v 0.01360612 0.04918572 -0.00818758
v 0.01360612 0.04841728 -0.04316643
v 0.01360612 0.04831405 -0.04704640
v 0.00394232 0.05099784 -0.00705961
v 0.00547218 0.05081433 -0.00828208
v 0.03637355 0.03303714 -0.04705231
v 0.02918034 0.04159313 -0.00817578
v 0.03153690 0.03967778 -0.01207347
v 0.03568939 0.03613381 -0.00817578
v 0.03558487 0.03601912 -0.01207347
v 0.03166043 0.03975806 -0.00817578
v 0.03151789 0.03964336 -0.00529975
v 0.03548985 0.03593883 -0.00496903
v 0.01626676 0.04739653 -0.04704640
v 0.01944051 0.04709832 -0.00998879
v 0.01820522 0.04657073 -0.04704640
v 0.02072332 0.04517150 -0.05012912
v 0.02139798 0.04498800 -0.04705231
v 0.02705183 0.04310705 -0.00817578
v 0.02510387 0.04425397 -0.00817578
v 0.03972786 -0.02094820 -0.00140796
v 0.04382333 -0.00928406 -0.00121308
v 0.04396587 -0.00838947 -0.00110678
v 0.04201790 -0.00838947 0.00039915
v 0.04143826 -0.00838947 0.00084207
v 0.04184686 -0.00538455 0.00119640
v 0.02580703 -0.06609081 -0.02681383
v 0.02784052 -0.06609081 -0.02875677
v 0.02841065 -0.06609081 -0.02967214
v 0.03921473 -0.02379255 -0.00194537
v 0.04442198 -0.00538455 -0.00075244
v 0.04062107 0.02188911 0.00049365
v 0.04088713 0.02550190 -0.00107725
v 0.03962333 0.02874767 -0.00161466
v 0.03696269 0.02961933 -0.00021504
v 0.03614550 0.03283069 -0.00141387
v 0.03322830 0.03365647 -0.00010874
v 0.03240161 0.03659258 -0.00139615
v 0.02921835 0.03740688 -0.00019141
v 0.02528441 0.03831294 0.00110782
v 0.02303237 0.03908138 0.00149169
v 0.01499345 0.04290062 0.00147396
v 0.00971969 0.04560734 0.00068852
v 0.00583327 0.04835992 -0.00097094
v 0.00194684 0.05047026 -0.00408320
v 0.00194684 0.05104372 -0.00603795
v 0.04293012 0.02404531 -0.00216388
v 0.04340523 0.02183177 -0.00164419
v 0.04331021 0.02476787 -0.00428399
v 0.04312967 -0.01317211 -0.00190993
v 0.03994641 0.02903440 -0.04317233
v 0.03753283 0.03390879 -0.01207347
v 0.03889165 0.03154615 -0.02560909
v 0.04089663 0.02960786 -0.01207347
v 0.04250252 0.02715345 -0.01207347
v 0.04255953 0.02725668 -0.00817578
v 0.00394232 0.05099784 -0.00621512
v 0.00971969 0.04957566 -0.00428989
v 0.01789164 0.04772913 -0.00848878
v 0.01740703 0.04782088 -0.01207347
v 0.01360612 0.04862372 -0.00428989
v 0.01950703 0.04713273 -0.00614425
v 0.03763736 0.03402349 -0.00817578
v 0.03092875 0.03917313 -0.00271900
v 0.03325681 0.03755598 -0.00384107
v 0.02656722 0.04279739 -0.00428399
v 0.02944640 0.04074441 -0.00411863
v 0.03498623 0.03542272 -0.00238239
v 0.03711473 0.03367941 -0.00385288
v 0.03919573 0.03192463 -0.00532337
v 0.01950703 0.04713273 -0.00739624
v 0.02104640 0.04637577 -0.00848878
v 0.02461925 0.04395577 -0.00428399
v 0.03873012 0.03133970 -0.00273673
v 0.02833464 0.04012507 -0.00158514
v 0.02519889 0.04136374 -0.00094733
v 0.02159753 0.04113436 0.00070033
v 0.01750205 0.04233862 0.00120231
v 0.01366314 0.04487331 0.00040506
v 0.00971969 0.04805026 -0.00125441
v 0.00547218 0.05035557 -0.00466195
v 0.04225546 0.02671762 -0.00428399
v 0.03895817 0.03162643 -0.02302244
v 0.03923374 0.03197051 -0.01207347
v 0.03931926 0.03207373 -0.00817578
v 0.04102967 0.02960786 -0.00817578
v 0.01360612 0.04756856 -0.00177411
v 0.01590567 0.04722448 -0.00219341
v 0.01731201 0.04749975 -0.00462651
v 0.01849029 0.04671984 -0.00353988
v 0.02072332 0.04616932 -0.00493361
v 0.02384006 0.04349701 -0.00201624
v 0.04021247 0.02987165 -0.00412454
v 0.02104640 0.04590554 -0.00461470
v 0.02139798 0.04411635 -0.00141978
v 0.02072332 0.04431133 -0.00134300
v 0.01731201 0.04530914 -0.00096504
v 0.02072332 0.04600875 -0.00447887
f 1 2 8
f 1 8 3
f 1 3 10
f 1 10 4
f 1 4 16
f 1 16 5
f 1 5 9
f 1 9 2
f 2 6 7
f 2 7 8
f 2 9 6
f 3 8 11
f 3 11 12
f 3 12 10
f 4 10 13
f 4 13 14
f 4 14 15
f 4 15 16
f 5 16 17
f 5 17 18
f 5 18 19
f 5 19 22
f 5 22 9
f 6 20 7
f 6 9 20
f 7 20 21
f 7 21 11
f 7 11 8
f 9 22 23
f 9 23 20
f 10 12 24
f 10 24 25
f 10 25 13
f 11 21 26
f 11 26 27
f 11 27 28
f 11 28 12
f 12 28 29
f 12 29 30
f 12 30 24
f 13 25 31
f 13 31 32
f 13 32 14
f 14 32 33
f 14 33 15
f 15 33 34
f 15 34 16
f 16 34 17
f 17 34 35
f 17 35 18
f 18 35 36
f 18 36 37
f 18 37 38
f 18 38 39
f 18 39 40
f 18 40 19
f 19 40 22
f 20 26 21
f 20 23 41
f 20 41 42
f 20 42 26
f 22 40 43
f 22 43 44
f 22 44 45
f 22 45 23
f 23 45 46
f 23 46 47
f 23 47 48
f 23 48 41
f 24 49 25
f 24 30 49
f 25 49 50
f 25 50 51
f 25 51 31
f 26 52 53
f 26 53 27
f 26 42 52
f 27 53 28
f 28 54 55
f 28 55 56
f 28 56 29
f 28 53 52
f 28 52 57
f 28 57 54
f 29 56 58
f 29 58 59
f 29 59 60
f 29 60 61
f 29 61 62
f 29 62 49
f 29 49 30
f 31 63 32
f 31 51 64
f 31 64 63
f 32 65 66
f 32 66 33
f 32 63 65
f 33 67 68
f 33 68 34
f 33 66 67
f 34 68 69
f 34 69 35
f 35 69 70
f 35 70 71
f 35 71 36
f 36 71 37
f 37 71 72
f 37 72 38
f 38 73 74
f 38 74 39
f 38 72 75
f 38 75 73
f 39 74 43
f 39 43 40
f 41 48 42
f 42 76 77
f 42 77 78
f 42 78 52
f 42 48 47
f 42 47 79
f 42 79 80
f 42 80 81
f 42 81 82
f 42 82 133
f 42 133 184
f 42 184 239
f 42 239 289
f 42 289 367
f 42 367 353
f 42 353 275
f 42 275 218
f 42 218 217
f 42 217 216
f 42 216 215
f 42 215 214
f 42 214 168
f 42 168 166
f 42 166 120
f 42 120 76
f 43 74 44
f 44 83 45
f 44 74 84
f 44 84 85
f 44 85 83
f 45 83 46
f 46 79 47
f 46 83 86
f 46 86 79
f 49 62 87
f 49 87 88
f 49 88 89
f 49 89 50
f 50 90 91
f 50 91 51
f 50 89 92
f 50 92 93
f 50 93 90
f 51 91 64
f 52 78 57
f 54 57 55
f 55 57 78
f 55 78 94
f 55 94 58
f 55 58 56
f 58 95 123
f 58 123 122
f 58 122 121
f 58 121 167
f 58 167 213
f 58 213 270
f 58 270 276
f 58 276 352
f 58 352 432
f 58 432 526
f 58 526 618
f 58 618 664
f 58 664 663
f 58 663 662
f 58 662 577
f 58 577 567
f 58 567 460
f 58 460 459
f 58 459 379
f 58 379 301
f 58 301 300
f 58 300 299
f 58 299 247
f 58 247 246
f 58 246 194
f 58 194 193
f 58 193 190
f 58 190 142
f 58 142 96
f 58 96 97
f 58 97 59
f 58 94 78
f 58 78 95
f 59 98 99
f 59 99 60
f 59 97 98
f 60 99 87
f 60 87 61
f 61 87 62
f 63 64 100
f 63 100 101
f 63 101 102
f 63 102 65
f 64 91 103
f 64 103 104
f 64 104 105
f 64 105 100
f 65 102 106
f 65 106 66
f 66 106 107
f 66 107 108
f 66 108 67
f 67 108 109
f 67 109 68
f 68 109 69
f 69 109 110
f 69 110 111
f 69 111 70
f 70 111 112
f 70 112 71
f 71 112 113
f 71 113 114
f 71 114 115
f 71 115 72
f 72 115 75
f 73 116 86
f 73 86 85
f 73 85 84
f 73 84 74
f 73 75 116
f 75 115 117
f 75 117 118
f 75 118 119
f 75 119 116
f 76 120 121
f 76 121 77
f 77 121 122
f 77 122 123
f 77 123 95
f 77 95 78
f 79 86 124
f 79 124 125
f 79 125 126
f 79 126 80
f 80 126 81
f 81 126 127
f 81 127 128
f 81 128 129
f 81 129 130
f 81 130 131
f 81 131 132
f 81 132 82
f 82 132 133
f 83 85 86
f 86 116 119
f 86 119 134
f 86 134 124
f 87 99 98
f 87 98 135
f 87 135 88
f 88 135 136
f 88 136 89
f 89 136 137
f 89 137 138
f 89 138 92
f 90 93 139
f 90 139 91
f 91 139 103
f 92 138 137
f 92 137 140
f 92 140 141
f 92 141 139
f 92 139 93
f 96 142 143
f 96 143 97
f 97 143 98
f 98 143 135
f 100 105 144
f 100 144 101
f 101 144 102
f 102 144 145
f 102 145 106
f 103 139 146
f 103 146 147
f 103 147 148
f 103 148 104
f 104 148 149
f 104 149 105
f 105 150 144
f 105 149 151
f 105 151 150
f 106 145 107
f 107 145 152
f 107 152 108
f 108 152 153
f 108 153 154
f 108 154 109
f 109 154 110
f 110 154 155
f 110 155 111
f 111 155 156
f 111 156 112
f 112 156 113
f 113 156 157
f 113 157 158
f 113 158 114
f 114 158 159
f 114 159 160
f 114 160 161
f 114 161 162
f 114 162 115
f 115 162 161
f 115 161 117
f 117 163 118
f 117 161 164
f 117 164 163
f 118 163 165
f 118 165 134
f 118 134 119
f 120 166 121
f 121 166 168
f 121 168 214
f 121 214 167
f 124 134 165
f 124 165 169
f 124 169 170
f 124 170 125
f 125 170 171
f 125 171 172
f 125 172 126
f 126 172 173
f 126 173 174
f 126 174 127
f 127 174 175
f 127 175 128
f 128 175 176
f 128 176 177
f 128 177 178
f 128 178 129
f 129 178 179
f 129 179 180
f 129 180 130
f 130 180 131
f 131 180 181
f 131 181 132
f 132 181 182
f 132 182 183
f 132 183 133
f 133 183 185
f 133 185 184
f 135 143 186
f 135 186 136
f 136 186 137
f 137 186 187
f 137 187 140
f 139 141 140
f 139 140 146
f 140 187 188
f 140 188 189
f 140 189 146
f 142 190 143
f 143 191 192
f 143 192 186
f 143 190 193
f 143 193 194
f 143 194 191
f 144 150 195
f 144 195 145
f 145 196 152
f 145 195 196
f 146 189 147
f 147 189 148
f 148 189 197
f 148 197 149
f 149 197 198
f 149 198 151
f 150 198 195
f 150 151 198
f 152 196 199
f 152 199 153
f 153 200 201
f 153 201 154
f 153 199 200
f 154 201 202
f 154 202 155
f 155 202 156
f 156 202 203
f 156 203 157
f 157 203 158
f 158 203 204
f 158 204 205
f 158 205 159
f 159 205 206
f 159 206 207
f 159 207 208
f 159 208 160
f 160 208 161
f 161 208 209
f 161 209 210
f 161 210 164
f 163 211 170
f 163 170 169
f 163 169 165
f 163 164 212
f 163 212 211
f 164 210 212
f 167 214 215
f 167 215 216
f 167 216 217
f 167 217 218
f 167 218 219
f 167 219 213
f 170 211 220
f 170 220 171
f 171 220 172
f 172 220 221
f 172 221 222
f 172 222 223
f 172 223 224
f 172 224 173
f 173 224 174
f 174 224 223
f 174 223 225
f 174 225 226
f 174 226 175
f 175 226 176
f 176 226 227
f 176 227 177
f 177 227 228
f 177 228 229
f 177 229 178
f 178 229 230
f 178 230 179
f 179 230 231
f 179 231 232
f 179 232 180
f 180 232 233
f 180 233 234
f 180 234 181
f 181 234 235
f 181 235 236
f 181 236 237
f 181 237 182
f 182 237 238
f 182 238 185
f 182 185 183
f 184 185 240
f 184 240 239
f 185 238 241
f 185 241 240
f 186 192 187
f 187 192 188
f 188 242 243
f 188 243 197
f 188 197 189
f 188 192 244
f 188 244 242
f 191 245 244
f 191 244 192
f 191 194 246
f 191 246 247
f 191 247 245
f 195 199 196
f 195 198 248
f 195 248 249
f 195 249 250
f 195 250 251
f 195 251 252
f 195 252 242
f 195 242 253
f 195 253 303
f 195 303 254
f 195 254 321
f 195 321 255
f 195 255 256
f 195 256 199
f 197 243 248
f 197 248 198
f 199 256 257
f 199 257 258
f 199 258 259
f 199 259 200
f 200 259 201
f 201 259 202
f 202 259 260
f 202 260 203
f 203 260 261
f 203 261 204
f 204 261 205
f 205 261 262
f 205 262 263
f 205 263 206
f 206 264 207
f 206 263 265
f 206 265 266
f 206 266 267
f 206 267 264
f 207 264 208
f 208 268 209
f 208 264 227
f 208 227 268
f 209 225 269
f 209 269 210
f 209 268 225
f 210 269 212
f 211 212 220
f 212 269 220
f 213 219 270
f 218 271 272
f 218 272 273
f 218 273 274
f 218 274 219
f 218 275 271
f 219 276 270
f 219 274 276
f 220 269 221
f 221 269 277
f 221 277 222
f 222 277 225
f 222 225 223
f 225 277 269
f 225 268 226
f 226 268 227
f 227 264 228
f 228 278 229
f 228 264 278
f 229 278 279
f 229 279 230
f 230 279 280
f 230 280 281
f 230 281 282
f 230 282 283
f 230 283 284
f 230 284 231
f 231 284 232
f 232 284 285
f 232 285 233
f 233 285 234
f 234 285 235
f 235 285 286
f 235 286 287
f 235 287 236
f 236 287 237
f 237 288 238
f 237 287 288
f 238 288 241
f 239 240 290
f 239 290 289
f 240 241 291
f 240 291 290
f 241 292 293
f 241 293 294
f 241 294 291
f 241 288 295
f 241 295 296
f 241 296 292
f 242 252 251
f 242 251 243
f 242 244 297
f 242 297 253
f 243 251 250
f 243 250 249
f 243 249 248
f 244 245 298
f 244 298 299
f 244 299 300
f 244 300 301
f 244 301 297
f 245 247 299
f 245 299 298
f 253 297 302
f 253 302 303
f 254 303 304
f 254 304 305
f 254 305 306
f 254 306 307
f 254 307 308
f 254 308 309
f 254 309 310
f 254 310 311
f 254 311 312
f 254 312 313
f 254 313 314
f 254 314 315
f 254 315 316
f 254 316 317
f 254 317 318
f 254 318 319
f 254 319 320
f 254 320 321
f 255 322 256
f 255 321 402
f 255 402 323
f 255 323 324
f 255 324 325
f 255 325 322
f 256 322 257
f 257 326 327
f 257 327 328
f 257 328 258
f 257 322 329
f 257 329 326
f 258 328 327
f 258 327 330
f 258 330 260
f 258 260 259
f 260 330 261
f 261 330 331
f 261 331 262
f 262 331 263
f 263 332 265
f 263 331 332
f 264 267 266
f 264 266 333
f 264 333 278
f 265 332 334
f 265 334 335
f 265 335 336
f 265 336 337
f 265 337 338
f 265 338 339
f 265 339 266
f 266 339 333
f 271 340 272
f 271 275 341
f 271 341 342
f 271 342 343
f 271 343 344
f 271 344 345
f 271 345 340
f 272 340 346
f 272 346 347
f 272 347 348
f 272 348 273
f 273 348 274
f 274 348 349
f 274 349 350
f 274 350 351
f 274 351 352
f 274 352 276
f 275 353 354
f 275 354 341
f 278 333 279
f 279 333 280
f 280 333 355
f 280 355 356
f 280 356 357
f 280 357 281
f 281 357 282
f 282 357 358
f 282 358 283
f 283 358 359
f 283 359 284
f 284 359 360
f 284 360 361
f 284 361 285
f 285 361 286
f 286 362 363
f 286 363 287
f 286 361 362
f 287 363 364
f 287 364 365
f 287 365 288
f 288 365 295
f 289 290 366
f 289 366 367
f 290 291 368
f 290 368 369
f 290 369 370
f 290 370 371
f 290 371 366
f 291 294 368
f 292 296 372
f 292 372 373
f 292 373 374
f 292 374 375
f 292 375 293
f 293 375 374
f 293 374 376
f 293 376 369
f 293 369 368
f 293 368 294
f 295 365 296
f 296 365 377
f 296 377 372
f 297 378 302
f 297 301 379
f 297 379 378
f 302 378 380
f 302 380 303
f 303 380 304
f 304 381 382
f 304 382 306
f 304 306 305
f 304 380 383
f 304 383 381
f 306 382 307
f 307 382 384
f 307 384 308
f 308 384 309
f 309 384 310
f 310 384 385
f 310 385 311
f 311 385 386
f 311 386 387
f 311 387 312
f 312 388 313
f 312 387 389
f 312 389 390
f 312 390 388
f 313 388 314
f 314 391 315
f 314 388 391
f 315 391 392
f 315 392 316
f 316 392 317
f 317 392 393
f 317 393 318
f 318 393 394
f 318 394 395
f 318 395 396
f 318 396 319
f 319 396 320
f 320 396 397
f 320 397 398
f 320 398 399
f 320 399 400
f 320 400 321
f 321 400 401
f 321 401 402
f 322 325 403
f 322 403 329
f 323 402 489
f 323 489 404
f 323 404 324
f 324 404 325
f 325 405 329
f 325 329 403
f 325 404 406
f 325 406 405
f 326 407 327
f 326 329 407
f 327 407 330
f 329 405 407
f 330 407 408
f 330 408 331
f 331 408 409
f 331 409 332
f 332 409 410
f 332 410 334
f 333 339 355
f 334 410 411
f 334 411 335
f 335 411 336
f 336 412 413
f 336 413 414
f 336 414 415
f 336 415 337
f 336 411 416
f 336 416 412
f 337 415 417
f 337 417 338
f 338 417 339
f 339 417 355
f 340 418 505
f 340 505 419
f 340 419 420
f 340 420 346
f 340 345 421
f 340 421 422
f 340 422 418
f 341 354 423
f 341 423 342
f 342 423 424
f 342 424 425
f 342 425 426
f 342 426 427
f 342 427 343
f 343 427 428
f 343 428 344
f 344 428 345
f 345 428 507
f 345 507 421
f 346 420 347
f 347 429 349
f 347 349 348
f 347 420 419
f 347 419 429
f 349 430 351
f 349 351 350
f 349 429 431
f 349 431 430
f 351 430 352
f 352 430 431
f 352 431 432
f 353 367 354
f 354 367 366
f 354 366 433
f 354 433 434
f 354 434 435
f 354 435 423
f 355 436 437
f 355 437 357
f 355 357 356
f 355 417 436
f 357 437 436
f 357 436 358
f 358 438 359
f 358 436 438
f 359 438 439
f 359 439 440
f 359 440 441
f 359 441 360
f 360 441 442
f 360 442 361
f 361 442 362
f 362 442 443
f 362 443 444
f 362 444 363
f 363 444 445
f 363 445 446
f 363 446 447
f 363 447 364
f 364 448 449
f 364 449 377
f 364 377 365
f 364 447 448
f 366 371 450
f 366 450 451
f 366 451 433
f 369 376 452
f 369 452 371
f 369 371 370
f 371 452 453
f 371 453 454
f 371 454 455
f 371 455 450
f 372 377 456
f 372 456 457
f 372 457 374
f 372 374 373
f 374 457 458
f 374 458 376
f 376 458 452
f 377 449 456
f 378 379 459
f 378 459 380
f 380 459 460
f 380 460 383
f 381 461 462
f 381 462 463
f 381 463 385
f 381 385 384
f 381 384 382
f 381 383 464
f 381 464 461
f 383 460 465
f 383 465 466
f 383 466 467
f 383 467 464
f 385 463 468
f 385 468 386
f 386 469 387
f 386 468 469
f 387 469 389
f 388 470 471
f 388 471 472
f 388 472 391
f 388 390 473
f 388 473 474
f 388 474 470
f 389 475 390
f 389 469 476
f 389 476 475
f 390 475 474
f 390 474 473
f 391 477 392
f 391 472 471
f 391 471 477
f 392 477 393
f 393 478 479
f 393 479 394
f 393 477 478
f 394 479 395
f 395 479 480
f 395 480 481
f 395 481 482
f 395 482 396
f 396 482 483
f 396 483 397
f 397 483 484
f 397 484 485
f 397 485 486
f 397 486 398
f 398 486 399
f 399 486 487
f 399 487 400
f 400 487 488
f 400 488 401
f 401 488 489
f 401 489 402
f 404 489 596
f 404 596 490
f 404 490 406
f 405 491 407
f 405 406 492
f 405 492 491
f 406 490 493
f 406 493 492
f 407 491 408
f 408 491 494
f 408 494 410
f 408 410 409
f 410 494 411
f 411 494 416
f 412 495 413
f 412 416 496
f 412 496 495
f 413 497 498
f 413 498 499
f 413 499 500
f 413 500 414
f 413 495 497
f 414 500 417
f 414 417 415
f 416 494 496
f 417 500 501
f 417 501 502
f 417 502 436
f 418 503 504
f 418 504 505
f 418 422 506
f 418 506 503
f 419 505 429
f 421 507 508
f 421 508 422
f 422 508 509
f 422 509 510
f 422 510 506
f 423 435 424
f 424 511 512
f 424 512 425
f 424 435 513
f 424 513 511
f 425 512 514
f 425 514 515
f 425 515 426
f 426 515 427
f 427 515 428
f 428 515 516
f 428 516 517
f 428 517 518
f 428 518 507
f 429 519 520
f 429 520 431
f 429 505 519
f 431 521 522
f 431 522 523
f 431 523 524
f 431 524 432
f 431 520 525
f 431 525 521
f 432 524 526
f 433 451 527
f 433 527 528
f 433 528 529
f 433 529 530
f 433 530 434
f 434 531 513
f 434 513 435
f 434 530 532
f 434 532 533
f 434 533 534
f 434 534 535
f 434 535 536
f 434 536 537
f 434 537 538
f 434 538 531
f 436 502 438
f 438 502 539
f 438 539 439
f 439 539 440
f 440 539 500
f 440 500 443
f 440 443 442
f 440 442 441
f 443 500 499
f 443 499 445
f 443 445 444
f 445 499 540
f 445 540 541
f 445 541 542
f 445 542 446
f 446 542 543
f 446 543 544
f 446 544 545
f 446 545 546
f 446 546 447
f 447 546 547
f 447 547 548
f 447 548 448
f 448 549 550
f 448 550 551
f 448 551 449
f 448 548 552
f 448 552 553
f 448 553 549
f 449 551 456
f 450 455 554
f 450 554 451
f 451 554 555
f 451 555 527
f 452 458 556
f 452 556 453
f 453 557 558
f 453 558 559
f 453 559 454
f 453 556 557
f 454 559 560
f 454 560 455
f 455 560 554
f 456 551 561
f 456 561 457
f 457 561 562
f 457 562 563
f 457 563 564
f 457 564 458
f 458 564 565
f 458 565 566
f 458 566 556
f 460 567 465
f 461 464 568
f 461 568 569
f 461 569 462
f 462 570 571
f 462 571 572
f 462 572 573
f 462 573 574
f 462 574 463
f 462 569 570
f 463 574 468
f 464 467 575
f 464 575 576
f 464 576 568
f 465 567 466
f 466 567 467
f 467 567 577
f 467 577 575
f 468 574 578
f 468 578 476
f 468 476 469
f 470 579 471
f 470 474 579
f 471 579 580
f 471 580 581
f 471 581 477
f 474 475 582
f 474 582 579
f 475 476 578
f 475 578 583
f 475 583 584
f 475 584 582
f 477 581 478
f 478 585 480
f 478 480 479
f 478 581 586
f 478 586 587
f 478 587 585
f 480 585 588
f 480 588 589
f 480 589 481
f 481 589 590
f 481 590 591
f 481 591 482
f 482 591 484
f 482 484 483
f 484 591 592
f 484 592 593
f 484 593 485
f 485 593 486
f 486 594 488
f 486 488 487
f 486 593 592
f 486 592 594
f 488 594 595
f 488 595 489
f 489 595 596
f 490 596 680
f 490 680 597
f 490 597 493
f 491 492 496
f 491 496 494
f 492 493 495
f 492 495 496
f 493 597 497
f 493 497 495
f 497 597 498
f 498 598 599
f 498 599 600
f 498 600 541
f 498 541 499
f 498 597 598
f 499 541 540
f 500 539 501
f 501 539 502
f 503 579 504
f 503 506 580
f 503 580 579
f 504 579 582
f 504 582 584
f 504 584 601
f 504 601 505
f 505 601 519
f 506 510 602
f 506 602 580
f 507 518 508
f 508 603 509
f 508 518 604
f 508 604 605
f 508 605 606
f 508 606 607
f 508 607 603
f 509 603 510
f 510 603 608
f 510 608 602
f 511 513 512
f 512 513 514
f 513 531 537
f 513 537 514
f 514 537 609
f 514 609 610
f 514 610 515
f 515 610 516
f 516 610 517
f 517 610 604
f 517 604 518
f 519 601 611
f 519 611 520
f 520 611 525
f 521 612 613
f 521 613 522
f 521 525 612
f 522 613 523
f 523 613 612
f 523 612 614
f 523 614 524
f 524 614 612
f 524 612 615
f 524 615 616
f 524 616 617
f 524 617 526
f 525 611 612
f 526 617 618
f 527 619 528
f 527 555 620
f 527 620 619
f 528 619 621
f 528 621 529
f 529 621 622
f 529 622 623
f 529 623 624
f 529 624 625
f 529 625 626
f 529 626 530
f 530 626 532
f 531 538 537
f 532 626 627
f 532 627 628
f 532 628 533
f 533 628 629
f 533 629 534
f 534 629 535
f 535 629 630
f 535 630 536
f 536 630 605
f 536 605 610
f 536 610 609
f 536 609 537
f 541 600 542
f 542 600 599
f 542 599 543
f 543 599 544
f 544 599 545
f 545 599 631
f 545 631 632
f 545 632 546
f 546 632 633
f 546 633 548
f 546 548 547
f 548 633 552
f 549 553 634
f 549 634 635
f 549 635 636
f 549 636 550
f 550 636 637
f 550 637 551
f 551 637 638
f 551 638 561
f 552 633 639
f 552 639 640
f 552 640 553
f 553 640 634
f 554 641 620
f 554 620 555
f 554 560 641
f 556 566 642
f 556 642 643
f 556 643 557
f 557 643 558
f 558 644 645
f 558 645 559
f 558 643 646
f 558 646 647
f 558 647 648
f 558 648 644
f 559 645 560
f 560 645 641
f 561 638 562
f 562 649 650
f 562 650 651
f 562 651 563
f 562 638 637
f 562 637 649
f 563 651 652
f 563 652 564
f 564 652 653
f 564 653 565
f 565 654 566
f 565 653 655
f 565 655 654
f 566 654 642
f 568 576 569
f 569 576 570
f 570 576 656
f 570 656 657
f 570 657 571
f 571 657 658
f 571 658 659
f 571 659 660
f 571 660 573
f 571 573 572
f 573 578 574
f 573 660 661
f 573 661 583
f 573 583 578
f 575 577 662
f 575 662 663
f 575 663 664
f 575 664 618
f 575 618 617
f 575 617 616
f 575 616 615
f 575 615 576
f 576 615 665
f 576 665 656
f 580 602 581
f 581 602 586
f 583 661 666
f 583 666 584
f 584 666 601
f 585 587 667
f 585 667 588
f 586 602 608
f 586 608 587
f 587 608 667
f 588 668 669
f 588 669 670
f 588 670 589
f 588 667 668
f 589 670 671
f 589 671 672
f 589 672 590
f 590 672 673
f 590 673 674
f 590 674 675
f 590 675 591
f 591 675 676
f 591 676 592
f 592 676 677
f 592 677 594
f 594 677 678
f 594 678 595
f 595 678 679
f 595 679 596
f 596 679 680
f 597 680 681
f 597 681 598
f 598 681 599
f 599 633 631
f 599 681 633
f 601 666 611
f 603 607 682
f 603 682 683
f 603 683 608
f 604 610 605
f 605 630 684
f 605 684 606
f 606 684 682
f 606 682 607
f 608 683 667
f 611 666 658
f 611 658 657
f 611 657 685
f 611 685 612
f 612 685 665
f 612 665 615
f 619 620 686
f 619 686 621
f 620 641 687
f 620 687 688
f 620 688 686
f 621 686 689
f 621 689 622
f 622 689 623
f 623 689 624
f 624 689 625
f 625 690 626
f 625 689 690
f 626 690 627
f 627 690 628
f 628 690 691
f 628 691 629
f 629 691 630
f 630 691 684
f 631 633 632
f 633 692 639
f 633 681 692
f 634 640 635
f 635 693 636
f 635 640 692
f 635 692 693
f 636 694 695
f 636 695 637
f 636 693 696
f 636 696 697
f 636 697 694
f 637 695 649
f 639 692 640
f 641 645 687
f 642 646 643
f 642 654 647
f 642 647 646
f 644 698 687
f 644 687 645
f 644 648 698
f 647 699 700
f 647 700 648
f 647 654 701
f 647 701 702
f 647 702 699
f 648 703 704
f 648 704 705
f 648 705 698
f 648 700 703
f 649 695 694
f 649 694 650
f 650 694 706
f 650 706 707
f 650 707 651
f 651 707 653
f 651 653 652
f 653 707 655
f 654 655 708
f 654 708 701
f 655 707 697
f 655 697 708
f 656 665 685
f 656 685 657
f 658 666 659
f 659 666 660
f 660 666 661
f 667 683 668
f 668 683 682
f 668 682 669
f 669 682 709
f 669 709 671
f 669 671 670
f 671 709 703
f 671 703 673
f 671 673 672
f 673 703 699
f 673 699 710
f 673 710 674
f 674 710 675
f 675 710 711
f 675 711 712
f 675 712 676
f 676 712 713
f 676 713 677
f 677 713 714
f 677 714 678
f 678 714 715
f 678 715 679
f 679 715 680
f 680 716 692
f 680 692 681
f 680 715 716
f 682 684 717
f 682 717 709
f 684 691 717
f 686 688 718
f 686 718 719
f 686 719 689
f 687 698 719
f 687 719 718
f 687 718 688
f 689 719 720
f 689 720 721
f 689 721 690
f 690 721 691
f 691 721 705
f 691 705 717
f 692 716 693
f 693 716 715
f 693 715 722
f 693 722 723
f 693 723 696
f 694 697 706
f 696 723 724
f 696 724 697
f 697 724 725
f 697 725 726
f 697 726 708
f 697 707 706
f 698 705 720
f 698 720 719
f 699 703 700
f 699 702 701
f 699 701 727
f 699 727 710
f 701 708 727
f 703 709 704
f 704 709 705
f 705 709 728
f 705 728 717
f 705 721 720
f 708 726 729
f 708 729 727
f 709 717 728
f 710 727 711
f 711 727 730
f 711 730 712
f 712 730 713
f 713 730 731
f 713 731 732
f 713 732 714
f 714 732 722
f 714 722 715
f 722 732 723
f 723 725 724
f 723 732 730
f 723 730 727
f 723 727 725
f 725 727 733
f 725 733 726
f 726 733 729
f 727 729 733
f 730 732 731

