# https://github.com/mikedh/trimesh
v -0.01812581 -0.14683046 0.01183381
v -0.01749318 -0.14616508 0.01183381
v 0.01777940 -0.14683046 0.01183381
v -0.01749318 -0.14683046 0.01213129
v -0.00061253 -0.13596846 0.04107534
v -0.00003965 -0.13182445 0.04825930
v -0.00391275 -0.13185947 0.04442934
v -0.00395844 -0.12810067 0.04840060
v -0.00109052 -0.09350690 0.08777106
v -0.00325551 -0.09078702 0.08519793
v -0.00396195 -0.08936872 0.08391880
v -0.00396195 -0.08889011 0.08391880
v -0.00402873 -0.08877338 0.08128616
v -0.00403927 -0.08876171 0.07739673
v -0.00397601 -0.08886677 0.07446662
v -0.00401467 -0.09256136 0.06717111
v -0.00341719 -0.09370534 0.06457566
v -0.00455592 -0.13498791 0.01183381
v -0.00188833 -0.09118975 0.06600353
v 0.00397051 -0.12808900 0.04839317
v 0.00392482 -0.13185363 0.04441447
v 0.00005173 -0.13182445 0.04825930
v 0.00062461 -0.13596846 0.04107534
v 0.01750877 -0.14683046 0.01194536
v 0.01750877 -0.14657364 0.01183381
v 0.00190041 -0.09119559 0.06601097
v 0.00342575 -0.09372285 0.06460541
v 0.00402323 -0.09257887 0.06719342
v 0.00398457 -0.08887844 0.07452611
v 0.00404784 -0.08877338 0.07739673
v 0.00403729 -0.08879089 0.08128616
v 0.00397754 -0.08890179 0.08387418
v 0.00397754 -0.08935121 0.08387418
v 0.00325705 -0.09077535 0.08517563
v 0.00109908 -0.09350690 0.08777106
v -0.00280213 -0.14683046 0.01573070
v -0.00193402 -0.14683046 0.01593149
v -0.00262991 -0.13069798 0.04702479
v -0.00155445 -0.09096796 0.08780825
v -0.00193402 -0.08725585 0.08128616
v -0.00097805 -0.08865081 0.08737691
v -0.00213787 -0.08814302 0.08519793
v -0.00193402 -0.08720333 0.07739673
v -0.00228900 -0.08789205 0.07330648
v -0.00119596 -0.08835898 0.06961782
v -0.00035948 -0.08885510 0.06741652
v -0.00198674 -0.13368050 0.01183381
v -0.00082341 -0.09240377 0.06327422
v 0.00264551 -0.13068631 0.04700992
v 0.00195313 -0.14683046 0.01592406
v 0.00456448 -0.13499374 0.01183381
v 0.00083549 -0.09240377 0.06327422
v 0.00037156 -0.08885510 0.06741652
v 0.00120452 -0.08835898 0.06961782
v 0.00230108 -0.08789789 0.07333622
v 0.00194962 -0.08721500 0.07739673
v 0.00194962 -0.08726753 0.08128616
v 0.00214643 -0.08814886 0.08517563
v 0.00097958 -0.08865081 0.08737691
v 0.00155598 -0.09096796 0.08780825
v 0.00199882 -0.13368634 0.01183381
v 0.00418842 -0.13470191 0.01183381
f 1 2 18
f 1 18 47
f 1 47 61
f 1 61 62
f 1 62 51
f 1 51 25
f 1 25 3
f 1 3 24
f 1 24 50
f 1 50 37
f 1 37 36
f 1 36 4
f 1 4 5
f 1 5 6
f 1 6 7
f 1 7 8
f 1 8 9
f 1 9 10
f 1 10 11
f 1 11 12
f 1 12 13
f 1 13 14
f 1 14 15
f 1 15 16
f 1 16 17
f 1 17 2
f 2 17 19
f 2 19 18
f 3 20 21
f 3 21 22
f 3 22 23
f 3 23 24
f 3 25 26
f 3 26 27
f 3 27 28
f 3 28 29
f 3 29 30
f 3 30 31
f 3 31 32
f 3 32 33
f 3 33 34
f 3 34 35
f 3 35 20
f 4 36 5
f 5 36 37
f 5 37 23
f 5 23 22
f 5 22 6
f 6 38 7
f 6 22 35
f 6 35 9
f 6 9 38
f 7 38 8
f 8 38 9
f 9 35 60
f 9 60 39
f 9 39 10
f 10 39 12
f 10 12 11
f 12 40 13
f 12 39 41
f 12 41 42
f 12 42 40
f 13 40 43
f 13 43 14
f 14 43 15
f 15 43 44
f 15 44 45
f 15 45 16
f 16 45 46
f 16 46 19
f 16 19 17
f 18 19 48
f 18 48 46
f 18 46 47
f 19 46 48
f 20 49 21
f 20 35 49
f 21 49 22
f 22 49 35
f 23 37 50
f 23 50 24
f 25 51 26
f 26 28 27
f 26 51 52
f 26 52 53
f 26 53 54
f 26 54 28
f 28 54 29
f 29 54 55
f 29 55 56
f 29 56 30
f 30 56 31
f 31 56 57
f 31 57 32
f 32 34 33
f 32 57 58
f 32 58 59
f 32 59 60
f 32 60 34
f 34 60 35
f 39 60 59
f 39 59 41
f 40 57 56
f 40 56 43
f 40 42 58
f 40 58 57
f 41 59 42
f 42 59 58
f 43 56 54
f 43 54 45
f 43 45 44
f 45 54 53
f 45 53 46
f 46 53 47
f 47 53 61
f 51 62 52
f 52 62 53
f 53 62 61
f 54 56 55

