# https://github.com/mikedh/trimesh
v 0.04087822 0.00625970 -0.21218410
v 0.04074215 0.00800356 -0.21218410
v 0.03357847 -0.01848766 -0.21216622
v 0.04075015 0.00410506 -0.21218410
v 0.03930941 -0.02846256 -0.23751612
v 0.03986170 0.00625970 -0.22211490
v 0.03899725 0.00881737 -0.22867584
v 0.03956554 0.01015820 -0.22211490
v 0.03995774 0.01015820 -0.21823554
v 0.04034994 0.01015820 -0.21434725
v 0.04056606 0.01015820 -0.21218410
v 0.03188160 -0.01848766 -0.21216622
v 0.03287411 -0.02094457 -0.21216622
v 0.03980567 -0.00163806 -0.21218410
v 0.04021388 0.00025306 -0.21218410
v 0.04064610 0.00238445 -0.21218410
v 0.03962157 0.01414971 -0.21218410
v 0.03896524 0.01613384 -0.21218410
v 0.03807678 0.01794746 -0.21218410
v 0.03714030 0.01966032 -0.21218410
v 0.03595569 0.02177621 -0.21218410
v 0.03486713 0.02355107 -0.21218410
v 0.03321028 0.02567471 -0.21218410
v 0.03138535 0.02795336 -0.21218410
v 0.03050489 0.02883692 -0.21218410
v 0.02827975 0.03100706 -0.21218410
v 0.02747134 0.03175886 -0.21218410
v 0.02652685 0.03247966 -0.21218410
v 0.02543029 0.03330121 -0.21218410
v 0.02415763 0.03423902 -0.21218410
v 0.02288498 0.03514583 -0.21218410
v 0.02202054 0.03565736 -0.21218410
v 0.02093198 0.03627740 -0.21218410
v 0.01730612 0.03811427 -0.21218410
v 0.01500093 0.03912184 -0.21218410
v 0.01436861 0.03935435 -0.21218410
v 0.01324804 0.03974963 -0.21218410
v 0.01105491 0.04037742 -0.21218410
v 0.00971822 0.04073395 -0.21218410
v 0.00582823 0.04141599 -0.21218410
v 0.00193823 0.04181901 -0.21218410
v -0.00193576 0.04184226 -0.21218410
v 0.03785266 0.00625970 -0.23767701
v 0.03942147 0.00625970 -0.22601213
v 0.03923737 -0.02846256 -0.23441443
v 0.02512613 -0.03557752 -0.21218410
v 0.02124414 -0.03707337 -0.21218410
v 0.03784466 -0.02846256 -0.23947368
v 0.00425942 0.00394230 -0.30216015
v 0.00471566 0.00627520 -0.30253557
v 0.03178555 -0.00148306 -0.26000567
v 0.03216174 0.00238445 -0.26052410
v 0.03393865 0.00238445 -0.25709168
v 0.03491516 0.00625970 -0.25464249
v 0.03527534 0.00625970 -0.25269388
v 0.03658801 0.00625970 -0.24542679
v 0.03726036 0.00625970 -0.24153849
v 0.03749248 0.01015820 -0.23767701
v 0.03859705 0.01011945 -0.22994512
v 0.03878114 0.01141379 -0.22705794
v 0.03914132 0.01011945 -0.22586018
v 0.03894923 0.01226634 -0.22445681
v 0.03907729 0.01264611 -0.22211490
v 0.03928540 0.01327391 -0.21823554
v -0.03369606 -0.01848766 -0.21217516
v 0.03188160 -0.02360299 -0.21216622
v -0.00582576 0.04143149 -0.21218410
v -0.00797886 0.04103621 -0.21218410
v -0.00970775 0.04071069 -0.21218410
v -0.01324556 0.03974187 -0.21218410
v -0.01501447 0.03913734 -0.21218410
v -0.01730365 0.03813752 -0.21218410
v -0.02092951 0.03629290 -0.21218410
v -0.02287451 0.03514583 -0.21218410
v 0.03780464 -0.00761370 -0.21218410
v 0.03911731 -0.00401747 -0.21218410
v 0.03898124 -0.02692796 -0.23170602
v 0.03922137 -0.02846256 -0.23402112
v 0.03938945 0.01424272 -0.21415060
v 0.03878915 0.01568431 -0.21532156
v 0.03692419 0.01791646 -0.22211490
v 0.03738042 0.01791646 -0.21823554
v 0.03548345 0.02065239 -0.22211490
v 0.03571557 0.02102441 -0.21823554
v 0.03594769 0.02139643 -0.21434725
v 0.03422680 0.02259776 -0.22211490
v 0.03227380 0.02521743 -0.22211490
v 0.03111320 0.02764334 -0.21622435
v 0.02872798 0.02910819 -0.22211490
v 0.02739129 0.03168910 -0.21339081
v 0.02564640 0.03283618 -0.21455283
v 0.02469391 0.03253391 -0.22211490
v 0.02265286 0.03501407 -0.21434725
v 0.01986743 0.03566511 -0.22211490
v 0.02071587 0.03614565 -0.21434725
v 0.01750622 0.03776550 -0.21434725
v 0.01750622 0.03681219 -0.22211490
v 0.01465676 0.03899783 -0.21434725
v 0.01207944 0.03947061 -0.21823554
v 0.01271176 0.03968762 -0.21434725
v 0.01172725 0.03933885 -0.22037187
v 0.00971822 0.04049368 -0.21434725
v 0.00582823 0.04117572 -0.21434725
v 0.00193823 0.04157875 -0.21434725
v 0.00193823 0.04113697 -0.21823554
v -0.00193576 0.04071069 -0.22211490
v -0.00582576 0.04030766 -0.22211490
v -0.00582576 0.04119122 -0.21434725
v 0.02695907 -0.03429094 -0.21218410
v 0.01749822 -0.03733688 -0.21218410
v 0.03695620 -0.02846256 -0.24002787
v 0.01969935 -0.01915420 -0.26306267
v 0.00194623 0.00338427 -0.30258027
v 0.00194623 0.00627520 -0.30347411
v 0.00459559 0.01016595 -0.30242830
v 0.03222578 0.00625970 -0.26057773
v 0.03405872 0.00625970 -0.25709168
v 0.03352244 0.01015820 -0.25709168
v 0.03464302 0.01019695 -0.25332852
v 0.03516328 0.00893362 -0.25212181
v 0.03687616 0.01015820 -0.24153849
v 0.03637190 0.01405671 -0.23767701
v 0.03754050 0.01405671 -0.22990043
v 0.03822886 0.01375444 -0.22586018
v 0.03840495 0.01459924 -0.22211490
v 0.03862906 0.01521929 -0.21823554
v -0.03364003 -0.01868142 -0.21217516
v -0.02541981 0.03331671 -0.21218410
v -0.02746886 0.03175886 -0.21218410
v -0.02942187 0.02989099 -0.21218410
v -0.03137487 0.02795336 -0.21218410
v -0.03192715 0.02727131 -0.21218410
v -0.03320781 0.02567471 -0.21218410
v -0.03485666 0.02355882 -0.21218410
v -0.03594521 0.02177621 -0.21218410
v -0.03806630 0.01795521 -0.21218410
v -0.03895476 0.01613384 -0.21218410
v -0.03961910 0.01414971 -0.21218410
v -0.04006733 0.01231284 -0.21218410
v -0.04057159 0.01015820 -0.21218410
v -0.04089176 0.00625970 -0.21218410
v -0.04065163 0.00238445 -0.21218410
v -0.03985122 -0.00148306 -0.21218410
v -0.03956307 -0.00248287 -0.21218410
v -0.03287164 -0.02094457 -0.21217516
v -0.03236738 -0.02230866 -0.21217516
v -0.03163100 -0.02428503 -0.21217516
v -0.03109472 -0.02571113 -0.21217516
v -0.02122566 -0.03708112 -0.21218410
v -0.01747974 -0.03733688 -0.21218410
v 0.02814368 -0.03249282 -0.21218410
v 0.02885605 -0.03105123 -0.21218410
v 0.02993660 -0.02871832 -0.21218410
v -0.00970775 0.04047818 -0.21434725
v -0.01169277 0.03933110 -0.22027355
v -0.01203694 0.03945511 -0.21823554
v -0.01270128 0.03967212 -0.21434725
v -0.01398194 0.03878081 -0.21823554
v -0.01359774 0.03794376 -0.22601213
v -0.01748774 0.03684319 -0.22211490
v -0.01748774 0.03778875 -0.21434725
v -0.01986496 0.03568062 -0.22211490
v -0.02028918 0.03592863 -0.21823554
v -0.02070539 0.03616114 -0.21434725
v -0.02265039 0.03501407 -0.21434725
v -0.02467543 0.03255716 -0.22211490
v 0.03642793 0.01791646 -0.22601213
v 0.03522732 0.02023386 -0.22601213
v 0.03393865 0.02217923 -0.22601213
v 0.03199366 0.02486091 -0.22601213
v 0.03067298 0.02716281 -0.22211490
v 0.02717518 0.03150309 -0.21598301
v 0.02840782 0.02879817 -0.22601213
v 0.02663891 0.03105356 -0.22211490
v 0.02430971 0.03227040 -0.22601213
v 0.02223665 0.03475831 -0.21823554
v 0.01958729 0.03551010 -0.22457302
v 0.01776235 0.03619990 -0.22592274
v 0.01360822 0.03794376 -0.22601213
v 0.01403244 0.03876531 -0.21823554
v 0.01326404 0.03861030 -0.22184674
v 0.01109493 0.03919934 -0.22296407
v 0.00850160 0.03948611 -0.22525235
v 0.00582823 0.04074169 -0.21823554
v 0.00193823 0.04068744 -0.22211490
v 0.00193823 0.04022241 -0.22601213
v -0.00193576 0.04023791 -0.22601213
v -0.00382473 0.03932335 -0.23182223
v -0.00506536 0.03950162 -0.22923003
v -0.00614592 0.03973413 -0.22632498
v -0.00765870 0.03930010 -0.22782667
v -0.00845911 0.03947836 -0.22524341
v 0.00583623 -0.02312246 -0.25941571
v 0.00971822 -0.02312246 -0.25940677
v 0.01360822 -0.02302946 -0.25927270
v 0.01575332 -0.02292870 -0.25910286
v 0.01833865 -0.02261093 -0.25845928
v -0.00192775 0.00338427 -0.30258027
v -0.00192775 0.00627520 -0.30348306
v 0.00194623 0.01016595 -0.30327746
v 0.00409934 0.01230509 -0.30201713
v 0.03150541 0.01300264 -0.25957661
v 0.03193763 0.01015820 -0.26018444
v 0.03209771 0.01419622 -0.25722575
v 0.03338637 0.01405671 -0.25320339
v 0.03487514 0.01153004 -0.25059331
v 0.03617180 0.01015820 -0.24542679
v 0.03513927 0.01242135 -0.24800111
v 0.03537939 0.01304914 -0.24542679
v 0.03566754 0.01422722 -0.24145804
v 0.03510726 0.01617259 -0.24011726
v 0.03530736 0.01657562 -0.23767701
v -0.03909883 -0.00401747 -0.21218410
v -0.02562792 0.03285168 -0.21454390
v -0.02737281 0.03168910 -0.21338187
v -0.02871751 0.02910819 -0.22211490
v -0.03127882 0.02785260 -0.21364109
v -0.03252746 0.02554295 -0.21823554
v -0.03227133 0.02522518 -0.22211490
v -0.03472059 0.02335731 -0.21434725
v -0.03548898 0.02066788 -0.22211490
v -0.03593721 0.02140418 -0.21434725
v -0.03694573 0.01791646 -0.22211490
v -0.03892274 0.01608734 -0.21275617
v -0.03937898 0.01425822 -0.21416847
v -0.03927492 0.01329716 -0.21823554
v -0.03907482 0.01268487 -0.22211490
v -0.03894675 0.01227409 -0.22452832
v -0.04036348 0.01015820 -0.21434725
v -0.04067564 0.00625970 -0.21434725
v -0.03915486 -0.01847991 -0.22909595
v -0.03923490 -0.01847991 -0.22708477
v -0.03923490 -0.01847991 -0.22628029
v -0.03917887 -0.01606950 -0.22351826
v -0.03840248 -0.00597835 -0.21218410
v -0.02995014 -0.02871832 -0.21218410
v -0.02814121 -0.03251607 -0.21218410
v -0.02800514 -0.03273309 -0.21218410
v -0.02716471 -0.03406617 -0.21218410
v -0.02696461 -0.03431419 -0.21218410
v -0.02513166 -0.03558527 -0.21218410
v -0.02280247 -0.03656183 -0.21218410
v -0.03550499 -0.02846256 -0.23992061
v -0.00970775 -0.02312246 -0.25940677
v -0.00581775 -0.02312246 -0.25941571
v -0.00973976 0.03961012 -0.22179311
v -0.01105244 0.03917609 -0.22286574
v -0.01322955 0.03861030 -0.22179311
v -0.01359774 0.03739347 -0.22990043
v -0.01538266 0.03537059 -0.23919658
v -0.01582289 0.03555661 -0.23663120
v -0.01687142 0.03607588 -0.22990043
v -0.01775188 0.03622315 -0.22595851
v -0.01957681 0.03551785 -0.22462665
v -0.02180996 0.03450254 -0.22211490
v -0.02223418 0.03475831 -0.21823554
v -0.02429924 0.03227814 -0.22601213
v -0.02662043 0.03105356 -0.22211490
v -0.02696461 0.03134033 -0.21823554
v -0.02716471 0.03149534 -0.21597408
v 0.03576359 0.01814122 -0.22970377
v 0.03505923 0.01995484 -0.22827360
v 0.03379458 0.02148169 -0.22970377
v 0.03114522 0.02379909 -0.23588930
v 0.03166549 0.02445013 -0.22990043
v 0.03034481 0.02679854 -0.22601213
v 0.02803963 0.02844164 -0.22990043
v 0.02625471 0.03074354 -0.22601213
v 0.02108406 0.03437853 -0.22592274
v 0.02181243 0.03449479 -0.22211490
v 0.02387749 0.03194487 -0.22990043
v 0.02138821 0.03355698 -0.22990043
v 0.01922710 0.03531634 -0.22716522
v 0.01581735 0.03555661 -0.23657756
v 0.01685789 0.03604489 -0.22990043
v 0.01360822 0.03739347 -0.22990043
v 0.01287985 0.03588212 -0.24153849
v 0.00971822 0.03741673 -0.23767701
v 0.00971822 0.03799027 -0.23378872
v 0.00976625 0.03904433 -0.22633393
v 0.00582823 0.04029216 -0.22211490
v 0.00767718 0.03930010 -0.22784455
v 0.00616440 0.03972638 -0.22633393
v 0.00508384 0.03950162 -0.22918534
v 0.00373915 0.03931560 -0.23176860
v 0.00224239 0.03962562 -0.23024903
v 0.00114582 0.03940086 -0.23238535
v -0.00123140 0.03940086 -0.23238535
v -0.00228794 0.03915283 -0.23372615
v -0.00193576 0.03861030 -0.23767701
v -0.00193576 0.03802126 -0.24153849
v -0.00582576 0.03759499 -0.24153849
v -0.00582576 0.03818403 -0.23767701
v -0.00614592 0.03919159 -0.23027585
v -0.00973976 0.03903658 -0.22632498
v -0.00970775 0.03740123 -0.23767701
v -0.00970775 0.03853280 -0.22990043
v -0.00424094 0.00394230 -0.30216015
v -0.01359774 -0.02302946 -0.25927270
v -0.01574285 -0.02292870 -0.25910286
v -0.01968887 -0.01916195 -0.26306267
v -0.00470518 0.00627520 -0.30253557
v -0.00458512 0.01016595 -0.30242830
v -0.00192775 0.01016595 -0.30328641
v 0.00194623 0.01271587 -0.30238362
v 0.01227954 0.03178986 -0.25939784
v 0.01486487 0.03123957 -0.25831626
v 0.01977939 0.02789136 -0.25934421
v 0.02384547 0.02425637 -0.25957661
v 0.02753537 0.02028036 -0.25942465
v 0.03092911 0.01559131 -0.25860230
v 0.03145738 0.01660662 -0.25602798
v 0.03184158 0.01728092 -0.25320339
v 0.03486713 0.01565331 -0.24270945
v 0.03459499 0.01500227 -0.24542679
v 0.03427483 0.01385520 -0.24930615
v 0.03310623 0.01791646 -0.24542679
v 0.03404271 0.01765294 -0.24145804
v 0.03427483 0.01851324 -0.23767701
v 0.03485112 0.01957507 -0.23086580
v -0.03066250 0.02717056 -0.22211490
v -0.03095065 0.02748833 -0.21823554
v -0.02839734 0.02879817 -0.22601213
v -0.03421633 0.02262101 -0.22211490
v -0.03447246 0.02298529 -0.21823554
v -0.03199118 0.02486091 -0.22601213
v -0.03523285 0.02025711 -0.22601213
v -0.03839447 0.01463025 -0.22211490
v -0.03861859 0.01524253 -0.21823554
v -0.03644147 0.01791646 -0.22601213
v -0.03822639 0.01375444 -0.22590487
v -0.03754604 0.01405671 -0.22990043
v -0.03637744 0.01405671 -0.23767701
v -0.03749001 0.01015820 -0.23767701
v -0.03877067 0.01144479 -0.22712052
v -0.03913885 0.01015820 -0.22590487
v -0.03957108 0.01015820 -0.22211490
v -0.03997128 0.01015820 -0.21823554
v -0.04027544 0.00625970 -0.21823554
v -0.03986723 0.00625970 -0.22211490
v -0.03941900 0.00625970 -0.22601213
v -0.03903480 0.00625970 -0.22903338
v -0.03838647 0.00625970 -0.23378872
v -0.03785019 0.00625970 -0.23767701
v -0.03726589 0.00625970 -0.24153849
v -0.03659355 0.00625970 -0.24542679
v -0.03589719 0.00625970 -0.24931508
v -0.03527287 0.00625970 -0.25279220
v -0.03491269 0.00625970 -0.25473188
v -0.03484865 0.00238445 -0.25434752
v -0.03550499 -0.02846256 -0.23220659
v -0.03397620 0.00238445 -0.25709168
v -0.03320781 -0.00148306 -0.25709168
v -0.03178308 -0.00148306 -0.26000567
v -0.03137487 -0.00419573 -0.25943360
v -0.02774901 -0.01314756 -0.25978219
v -0.02731679 -0.01533320 -0.25919225
v -0.02386702 -0.01943322 -0.25954086
v -0.01832817 -0.02261093 -0.25845928
v -0.01359774 0.03681219 -0.23378872
v -0.01389390 0.03610689 -0.23782897
v -0.01727163 0.03464979 -0.23782897
v -0.01288538 0.03586662 -0.24153849
v -0.01483038 0.03516908 -0.24153849
v -0.01659128 0.03208438 -0.25320339
v -0.01748774 0.03314620 -0.24542679
v -0.01748774 0.03389025 -0.24153849
v -0.01922463 0.03533184 -0.22721884
v -0.02108159 0.03439403 -0.22595851
v -0.02387502 0.03195262 -0.22990043
v -0.02624423 0.03074354 -0.22601213
v 0.03197765 0.02110966 -0.24153849
v 0.03209771 0.02203972 -0.23737310
v 0.03091310 0.02348907 -0.23847255
v 0.02915220 0.02568247 -0.23749824
v 0.02998462 0.02640326 -0.22990043
v 0.02739129 0.02779835 -0.23651500
v 0.02712716 0.02755808 -0.23908932
v 0.02561438 0.02908493 -0.23775746
v 0.02582249 0.03037927 -0.22990043
v 0.02324517 0.03147984 -0.23533510
v 0.02101202 0.03253391 -0.23767701
v 0.02049175 0.03220839 -0.24153849
v 0.01881089 0.03510708 -0.22990043
v 0.01727410 0.03463430 -0.23779322
v 0.01536912 0.03536285 -0.23914295
v 0.01388836 0.03611464 -0.23779322
v 0.01360822 0.03681219 -0.23378872
v 0.01482484 0.03516133 -0.24153849
v 0.01217548 0.03562636 -0.24449718
v 0.00971822 0.03680443 -0.24153849
v 0.00582823 0.03759499 -0.24153849
v 0.00582823 0.03818403 -0.23767701
v 0.00616440 0.03919159 -0.23024903
v 0.00193823 0.03802126 -0.24153849
v 0.00193823 0.03861030 -0.23767701
v -0.00193576 0.03737797 -0.24542679
v -0.00970775 0.03678894 -0.24153849
v -0.00416090 0.03547910 -0.25528607
v -0.00582576 0.03627740 -0.24931508
v -0.00802688 0.03550236 -0.25163913
v -0.01216501 0.03561086 -0.24448824
v -0.03222330 0.00625970 -0.26059561
v -0.03216728 0.00238445 -0.26053305
v -0.00408086 0.01230509 -0.30201713
v -0.03193516 0.01015820 -0.26019338
v -0.03149493 0.01301039 -0.25958555
v -0.00192775 0.01271587 -0.30238362
v -0.00193576 0.03482806 -0.25745816
v 0.00193823 0.03481256 -0.25743135
v 0.00558810 0.03465755 -0.25676988
v 0.00971822 0.03220064 -0.25996990
v 0.00971822 0.03360348 -0.25709168
v 0.01359221 0.03228589 -0.25704699
v 0.01597744 0.03175886 -0.25573301
v 0.01736215 0.03042577 -0.25704699
v 0.02053978 0.02844164 -0.25709168
v 0.02247677 0.02693804 -0.25709168
v 0.02459786 0.02499267 -0.25709168
v 0.02654286 0.02300079 -0.25709168
v 0.02811967 0.02103216 -0.25709168
v 0.03016072 0.01791646 -0.25722575
v 0.03072100 0.01921854 -0.25320339
v 0.03099314 0.01968357 -0.25071845
v 0.03128129 0.02011760 -0.24812625
v 0.03157744 0.02054388 -0.24542679
v -0.03034234 0.02681404 -0.22601213
v -0.02803716 0.02844939 -0.22990043
v -0.03393618 0.02221799 -0.22601213
v -0.03167102 0.02447338 -0.22990043
v -0.03505676 0.01998584 -0.22837193
v -0.03576912 0.01815673 -0.22975741
v -0.03560904 0.01721116 -0.23378872
v -0.03530489 0.01660662 -0.23767701
v -0.03510478 0.01621135 -0.24015301
v -0.03566507 0.01424272 -0.24148487
v -0.03538493 0.01308789 -0.24542679
v -0.03688170 0.01015820 -0.24153849
v -0.03898678 0.00884837 -0.22868477
v -0.03859457 0.01015820 -0.22995406
v -0.03516081 0.00896463 -0.25213075
v -0.03464054 0.01022796 -0.25333746
v -0.03352797 0.01015820 -0.25709168
v -0.03408826 0.00625970 -0.25709168
v -0.02048928 0.03220839 -0.24153849
v -0.01820811 0.03481256 -0.23378872
v -0.01359774 0.03343296 -0.25320339
v -0.01853628 0.03103031 -0.25320339
v -0.01908056 0.03134033 -0.25031621
v -0.01767184 0.03232465 -0.24913631
v -0.01599097 0.03178212 -0.25575982
v -0.01954480 0.03161160 -0.24772402
v -0.01990498 0.03183637 -0.24542679
v -0.02100955 0.03255716 -0.23767701
v -0.02137774 0.03358023 -0.22990043
v -0.02354685 0.03171235 -0.23279654
v -0.02582002 0.03038702 -0.22990043
v -0.02738082 0.02782160 -0.23658650
v 0.03058493 0.02307054 -0.24153849
v 0.02820771 0.02484541 -0.24542679
v 0.02864794 0.02532594 -0.24153849
v 0.02683101 0.02727131 -0.24153849
v 0.02438975 0.02854240 -0.24542679
v 0.02489401 0.02895318 -0.24153849
v 0.02295702 0.03127058 -0.23767701
v 0.02242875 0.03090630 -0.24153849
v 0.01989945 0.03183637 -0.24542679
v 0.01750622 0.03386699 -0.24153849
v 0.01750622 0.03314620 -0.24542679
v 0.01656974 0.03208438 -0.25320339
v 0.01360822 0.03340197 -0.25320339
v 0.01360822 0.03416151 -0.24931508
v 0.01353618 0.03489006 -0.24565025
v 0.01147112 0.03537834 -0.24708937
v 0.00999036 0.03602163 -0.24565025
v 0.00799734 0.03549460 -0.25159443
v 0.00582823 0.03694394 -0.24542679
v 0.00193823 0.03737797 -0.24542679
v -0.00193576 0.03671143 -0.24931508
v -0.01146065 0.03537834 -0.24708044
v -0.00675423 0.03526984 -0.25423132
v -0.00560164 0.03567286 -0.25304249
v -0.00193576 0.03602163 -0.25320339
v -0.00193576 0.03555661 -0.25550955
v -0.00560164 0.03466529 -0.25678777
v -0.01072427 0.03518458 -0.24931508
v -0.00947563 0.03485131 -0.25304249
v -0.03091063 0.01559906 -0.25861124
v -0.02751689 0.02027261 -0.25940677
v -0.02383500 0.02427187 -0.25958555
v -0.01976091 0.02789136 -0.25933526
v -0.01487840 0.03123957 -0.25834309
v -0.01228507 0.03178986 -0.25940677
v -0.03209524 0.01420397 -0.25723470
v -0.00970775 0.03220839 -0.25996990
v 0.00193823 0.03555661 -0.25549167
v 0.00412335 0.03547135 -0.25525926
v 0.00671668 0.03526209 -0.25419556
v 0.00947010 0.03483581 -0.25301568
v 0.01850673 0.03101481 -0.25320339
v 0.02316512 0.02750383 -0.25456204
v 0.02711115 0.02363633 -0.25469613
v 0.02858391 0.02213273 -0.25332852
v 0.03014471 0.02248150 -0.24542679
v -0.02998215 0.02641101 -0.22990043
v -0.03114275 0.02382234 -0.23597868
v -0.03211925 0.02205523 -0.23743568
v -0.03380011 0.02148944 -0.22975741
v -0.03484865 0.01960607 -0.23096412
v -0.03484865 0.01565331 -0.24275415
v -0.03428036 0.01855200 -0.23767701
v -0.03404824 0.01767619 -0.24148487
v -0.03183911 0.01729642 -0.25320339
v -0.03458452 0.01501777 -0.24542679
v -0.03512880 0.01244460 -0.24805474
v -0.03487266 0.01156879 -0.25063800
v -0.03616933 0.01015820 -0.24542679
v -0.03541694 0.01022796 -0.24933296
v -0.03339991 0.01405671 -0.25320339
v -0.02243428 0.03091406 -0.24153849
v -0.02295455 0.03128608 -0.23767701
v -0.00970775 0.03363448 -0.25709168
v -0.01358974 0.03230139 -0.25707380
v -0.02165788 0.02889892 -0.25323914
v -0.02051329 0.02844164 -0.25709168
v -0.02314665 0.02750383 -0.25456204
v -0.01736768 0.03042577 -0.25707380
v -0.02105757 0.03023976 -0.24913631
v -0.02184998 0.03049552 -0.24542679
v -0.02324270 0.03148759 -0.23538873
v -0.02560391 0.02910819 -0.23779322
v -0.02712469 0.02756583 -0.23915188
v 0.02742331 0.02398510 -0.25210394
v 0.02775948 0.02434938 -0.24931508
v 0.02633475 0.02678303 -0.24542679
v 0.02352531 0.02782160 -0.25197879
v 0.02388549 0.02811612 -0.24931508
v 0.02185245 0.03049552 -0.24542679
v 0.01954727 0.03161160 -0.24767932
v 0.01767431 0.03232465 -0.24910950
v 0.01908303 0.03132483 -0.25027152
v 0.00582823 0.03627740 -0.24931508
v 0.00193823 0.03671143 -0.24931508
v 0.00193823 0.03602163 -0.25320339
v -0.03145491 0.01662988 -0.25602798
v -0.03015825 0.01791646 -0.25723470
v -0.02811720 0.02103216 -0.25709168
v -0.02653238 0.02298529 -0.25709168
v -0.02459539 0.02500042 -0.25709168
v -0.02245829 0.02695355 -0.25709168
v 0.00558810 0.03565736 -0.25301568
v 0.02167636 0.02887567 -0.25324807
v 0.02532624 0.02574447 -0.25333746
v -0.02914172 0.02568247 -0.23757869
v -0.03091063 0.02350457 -0.23856194
v -0.03197518 0.02114842 -0.24153849
v -0.03157497 0.02056713 -0.24542679
v -0.03127882 0.02013310 -0.24818882
v -0.03099868 0.01969907 -0.25078995
v -0.03211925 0.01821098 -0.24942235
v -0.03073454 0.01925729 -0.25320339
v -0.03427236 0.01386294 -0.24933296
v -0.02351483 0.02782160 -0.25196985
v -0.02387502 0.02811612 -0.24931508
v -0.02438728 0.02854240 -0.24542679
v -0.02489154 0.02896868 -0.24153849
v -0.02709267 0.02362858 -0.25466932
v -0.02530776 0.02574447 -0.25331958
v -0.02683654 0.02728682 -0.24153849
v -0.02865347 0.02534144 -0.24153849
v 0.02106805 0.03023201 -0.24910950
v -0.03059847 0.02310154 -0.24153849
v -0.03015024 0.02251251 -0.24542679
v -0.02858944 0.02213273 -0.25331065
v -0.02633228 0.02679854 -0.24542679
v -0.02740483 0.02397735 -0.25207711
v -0.02820524 0.02485316 -0.24542679
f 1 2 3
f 1 3 4
f 1 4 5
f 1 5 6
f 1 6 7
f 1 7 8
f 1 8 2
f 2 8 9
f 2 9 10
f 2 10 11
f 2 11 3
f 3 12 66
f 3 66 13
f 3 13 14
f 3 14 15
f 3 15 16
f 3 16 4
f 3 11 17
f 3 17 18
f 3 18 19
f 3 19 20
f 3 20 21
f 3 21 22
f 3 22 23
f 3 23 24
f 3 24 25
f 3 25 26
f 3 26 27
f 3 27 28
f 3 28 29
f 3 29 30
f 3 30 31
f 3 31 32
f 3 32 33
f 3 33 34
f 3 34 35
f 3 35 36
f 3 36 37
f 3 37 38
f 3 38 39
f 3 39 40
f 3 40 41
f 3 41 42
f 3 42 12
f 4 16 5
f 5 43 7
f 5 7 44
f 5 44 6
f 5 16 45
f 5 45 46
f 5 46 47
f 5 47 48
f 5 48 49
f 5 49 50
f 5 50 51
f 5 51 52
f 5 52 53
f 5 53 54
f 5 54 55
f 5 55 56
f 5 56 57
f 5 57 43
f 6 44 7
f 7 43 57
f 7 57 58
f 7 58 59
f 7 59 60
f 7 60 61
f 7 61 8
f 8 61 62
f 8 62 9
f 9 62 10
f 10 62 11
f 11 62 63
f 11 63 64
f 11 64 17
f 12 65 66
f 12 42 67
f 12 67 68
f 12 68 69
f 12 69 70
f 12 70 71
f 12 71 72
f 12 72 73
f 12 73 74
f 12 74 65
f 13 75 76
f 13 76 14
f 13 66 77
f 13 77 75
f 14 76 77
f 14 77 78
f 14 78 15
f 15 78 16
f 16 78 45
f 17 79 18
f 17 64 79
f 18 79 80
f 18 80 81
f 18 81 82
f 18 82 19
f 19 82 81
f 19 81 83
f 19 83 84
f 19 84 20
f 20 84 85
f 20 85 21
f 21 85 22
f 22 85 84
f 22 84 83
f 22 83 86
f 22 86 87
f 22 87 23
f 23 87 88
f 23 88 24
f 24 88 25
f 25 88 89
f 25 89 26
f 26 89 90
f 26 90 27
f 27 90 28
f 28 90 29
f 29 90 91
f 29 91 30
f 30 91 92
f 30 92 31
f 31 92 93
f 31 93 32
f 32 93 94
f 32 94 95
f 32 95 33
f 33 95 34
f 34 95 96
f 34 96 35
f 35 96 97
f 35 97 98
f 35 98 36
f 36 98 99
f 36 99 37
f 37 99 100
f 37 100 38
f 38 100 99
f 38 99 39
f 39 99 101
f 39 101 102
f 39 102 103
f 39 103 40
f 40 103 104
f 40 104 41
f 41 104 42
f 42 104 105
f 42 105 106
f 42 106 107
f 42 107 108
f 42 108 67
f 45 78 46
f 46 109 66
f 46 66 47
f 46 78 109
f 47 66 110
f 47 110 111
f 47 111 48
f 48 111 112
f 48 112 49
f 49 112 113
f 49 113 114
f 49 114 50
f 50 114 115
f 50 115 116
f 50 116 52
f 50 52 51
f 52 116 117
f 52 117 53
f 53 117 54
f 54 117 118
f 54 118 119
f 54 119 120
f 54 120 55
f 55 120 56
f 56 121 57
f 56 120 121
f 57 121 58
f 58 122 62
f 58 62 60
f 58 60 59
f 58 121 122
f 60 62 61
f 62 122 123
f 62 123 124
f 62 124 125
f 62 125 126
f 62 126 63
f 63 126 80
f 63 80 64
f 64 80 79
f 65 127 66
f 65 74 128
f 65 128 129
f 65 129 130
f 65 130 131
f 65 131 132
f 65 132 133
f 65 133 134
f 65 134 135
f 65 135 136
f 65 136 137
f 65 137 138
f 65 138 139
f 65 139 140
f 65 140 141
f 65 141 142
f 65 142 143
f 65 143 144
f 65 144 127
f 66 127 145
f 66 145 146
f 66 146 147
f 66 147 148
f 66 148 149
f 66 149 150
f 66 150 110
f 66 109 151
f 66 151 152
f 66 152 153
f 66 153 77
f 67 108 68
f 68 108 154
f 68 154 69
f 69 154 155
f 69 155 156
f 69 156 157
f 69 157 70
f 70 157 156
f 70 156 71
f 71 156 158
f 71 158 159
f 71 159 160
f 71 160 72
f 72 160 161
f 72 161 162
f 72 162 163
f 72 163 164
f 72 164 73
f 73 164 165
f 73 165 74
f 74 165 166
f 74 166 128
f 75 77 76
f 77 153 152
f 77 152 78
f 78 152 151
f 78 151 109
f 80 126 81
f 81 126 167
f 81 167 168
f 81 168 83
f 83 168 86
f 86 168 169
f 86 169 170
f 86 170 87
f 87 170 171
f 87 171 88
f 88 171 89
f 89 172 90
f 89 171 173
f 89 173 174
f 89 174 172
f 90 172 91
f 91 172 92
f 92 172 174
f 92 174 175
f 92 175 93
f 93 175 176
f 93 176 94
f 94 176 177
f 94 177 96
f 94 96 95
f 96 177 97
f 97 177 178
f 97 178 179
f 97 179 180
f 97 180 98
f 98 180 99
f 99 180 181
f 99 181 101
f 101 181 179
f 101 179 182
f 101 182 102
f 102 182 183
f 102 183 184
f 102 184 103
f 103 184 104
f 104 184 105
f 105 184 281
f 105 281 185
f 105 185 106
f 106 185 186
f 106 186 187
f 106 187 107
f 107 187 188
f 107 188 189
f 107 189 190
f 107 190 191
f 107 191 192
f 107 192 108
f 108 192 154
f 110 150 245
f 110 245 193
f 110 193 194
f 110 194 111
f 111 194 195
f 111 195 196
f 111 196 197
f 111 197 112
f 112 197 196
f 112 196 113
f 113 198 199
f 113 199 114
f 113 196 195
f 113 195 194
f 113 194 193
f 113 193 245
f 113 245 198
f 114 199 304
f 114 304 200
f 114 200 115
f 115 200 201
f 115 201 202
f 115 202 203
f 115 203 116
f 116 203 117
f 117 203 118
f 118 204 205
f 118 205 119
f 118 203 202
f 118 202 204
f 119 205 206
f 119 206 120
f 120 206 207
f 120 207 121
f 121 207 208
f 121 208 122
f 122 208 209
f 122 209 210
f 122 210 211
f 122 211 212
f 122 212 123
f 123 212 167
f 123 167 125
f 123 125 124
f 125 167 126
f 127 144 213
f 127 213 145
f 128 166 214
f 128 214 215
f 128 215 129
f 129 215 130
f 130 215 216
f 130 216 217
f 130 217 131
f 131 217 132
f 132 217 133
f 133 217 218
f 133 218 134
f 134 218 219
f 134 219 220
f 134 220 221
f 134 221 222
f 134 222 135
f 135 222 136
f 136 222 221
f 136 221 223
f 136 223 224
f 136 224 137
f 137 224 138
f 138 224 225
f 138 225 226
f 138 226 227
f 138 227 139
f 139 227 140
f 140 227 228
f 140 228 229
f 140 229 141
f 141 229 230
f 141 230 231
f 141 231 232
f 141 232 142
f 142 232 233
f 142 233 234
f 142 234 143
f 143 234 144
f 144 234 213
f 145 213 235
f 145 235 234
f 145 234 146
f 146 234 147
f 147 234 148
f 148 234 236
f 148 236 237
f 148 237 238
f 148 238 239
f 148 239 240
f 148 240 241
f 148 241 242
f 148 242 149
f 149 242 243
f 149 243 150
f 150 243 244
f 150 244 245
f 154 192 246
f 154 246 155
f 155 246 247
f 155 247 159
f 155 159 248
f 155 248 158
f 155 158 156
f 158 248 159
f 159 249 250
f 159 250 251
f 159 251 252
f 159 252 160
f 159 247 249
f 160 253 254
f 160 254 161
f 160 252 253
f 161 254 162
f 162 254 255
f 162 255 256
f 162 256 165
f 162 165 163
f 163 165 164
f 165 256 257
f 165 257 166
f 166 258 259
f 166 259 260
f 166 260 215
f 166 215 214
f 166 257 258
f 167 212 261
f 167 261 262
f 167 262 168
f 168 262 169
f 169 262 263
f 169 263 264
f 169 264 265
f 169 265 170
f 170 265 266
f 170 266 171
f 171 266 173
f 173 266 267
f 173 267 268
f 173 268 174
f 174 268 175
f 175 269 270
f 175 270 176
f 175 268 271
f 175 271 269
f 176 270 177
f 177 269 272
f 177 272 273
f 177 273 178
f 177 270 269
f 178 273 274
f 178 274 275
f 178 275 179
f 179 181 180
f 179 275 274
f 179 274 276
f 179 276 182
f 182 276 277
f 182 277 278
f 182 278 279
f 182 279 280
f 182 280 183
f 183 281 184
f 183 280 279
f 183 279 282
f 183 282 283
f 183 283 281
f 185 281 186
f 186 281 284
f 186 284 285
f 186 285 286
f 186 286 287
f 186 287 187
f 187 287 288
f 187 288 289
f 187 289 188
f 188 289 290
f 188 290 291
f 188 291 292
f 188 292 293
f 188 293 294
f 188 294 189
f 189 191 190
f 189 294 191
f 191 295 192
f 191 294 293
f 191 293 296
f 191 296 297
f 191 297 295
f 192 247 246
f 192 295 247
f 198 298 199
f 198 245 244
f 198 244 299
f 198 299 300
f 198 300 301
f 198 301 298
f 199 298 302
f 199 302 303
f 199 303 304
f 200 304 305
f 200 305 201
f 201 305 306
f 201 306 307
f 201 307 308
f 201 308 309
f 201 309 310
f 201 310 311
f 201 311 202
f 202 311 204
f 204 311 312
f 204 312 205
f 205 312 313
f 205 313 314
f 205 314 315
f 205 315 316
f 205 316 208
f 205 208 206
f 206 208 207
f 208 316 315
f 208 315 314
f 208 314 210
f 208 210 209
f 210 314 211
f 211 314 317
f 211 317 318
f 211 318 319
f 211 319 212
f 212 319 320
f 212 320 261
f 213 234 235
f 215 260 216
f 216 321 322
f 216 322 217
f 216 260 259
f 216 259 323
f 216 323 321
f 217 322 219
f 217 219 218
f 219 324 325
f 219 325 220
f 219 322 321
f 219 321 326
f 219 326 324
f 220 325 221
f 221 325 324
f 221 324 327
f 221 327 223
f 223 328 329
f 223 329 224
f 223 327 330
f 223 330 328
f 224 329 227
f 224 227 226
f 224 226 225
f 227 329 228
f 228 331 332
f 228 332 333
f 228 333 334
f 228 334 335
f 228 335 336
f 228 336 337
f 228 337 338
f 228 338 229
f 228 329 328
f 228 328 331
f 229 338 230
f 230 338 339
f 230 339 231
f 231 339 340
f 231 340 341
f 231 341 342
f 231 342 343
f 231 343 344
f 231 344 345
f 231 345 346
f 231 346 347
f 231 347 348
f 231 348 349
f 231 349 350
f 231 350 243
f 231 243 232
f 232 243 351
f 232 351 233
f 233 351 237
f 233 237 236
f 233 236 234
f 237 351 238
f 238 351 239
f 239 351 240
f 240 351 241
f 241 351 243
f 241 243 242
f 243 350 352
f 243 352 353
f 243 353 354
f 243 354 355
f 243 355 356
f 243 356 357
f 243 357 298
f 243 298 358
f 243 358 301
f 243 301 359
f 243 359 300
f 243 300 299
f 243 299 244
f 247 295 297
f 247 297 296
f 247 296 249
f 249 296 360
f 249 360 361
f 249 361 250
f 250 362 251
f 250 361 363
f 250 363 364
f 250 364 365
f 250 365 366
f 250 366 367
f 250 367 362
f 251 368 252
f 251 362 368
f 252 368 253
f 253 368 254
f 254 368 369
f 254 369 255
f 255 369 257
f 255 257 256
f 257 370 371
f 257 371 258
f 257 369 370
f 258 371 323
f 258 323 259
f 261 320 262
f 262 320 372
f 262 372 373
f 262 373 263
f 263 373 264
f 264 373 374
f 264 374 375
f 264 375 376
f 264 376 265
f 265 376 266
f 266 376 267
f 267 376 377
f 267 377 268
f 268 377 378
f 268 378 379
f 268 379 380
f 268 380 381
f 268 381 271
f 269 271 272
f 271 381 272
f 272 381 382
f 272 382 273
f 273 382 383
f 273 383 384
f 273 384 274
f 274 384 385
f 274 385 386
f 274 386 276
f 276 386 387
f 276 387 388
f 276 388 277
f 277 387 386
f 277 386 389
f 277 389 390
f 277 390 278
f 277 388 387
f 278 390 391
f 278 391 392
f 278 392 393
f 278 393 282
f 278 282 279
f 281 283 284
f 282 393 394
f 282 394 284
f 282 284 283
f 284 394 393
f 284 393 285
f 285 393 392
f 285 392 395
f 285 395 396
f 285 396 287
f 285 287 286
f 287 396 290
f 287 290 288
f 288 290 289
f 290 396 395
f 290 395 291
f 291 395 478
f 291 478 397
f 291 397 292
f 292 398 296
f 292 296 293
f 292 397 399
f 292 399 400
f 292 400 401
f 292 401 398
f 296 398 402
f 296 402 363
f 296 363 360
f 298 357 356
f 298 356 355
f 298 355 302
f 298 301 358
f 300 359 301
f 302 403 303
f 302 355 354
f 302 354 404
f 302 404 403
f 303 405 304
f 303 403 406
f 303 406 407
f 303 407 405
f 304 405 408
f 304 408 305
f 305 408 409
f 305 409 410
f 305 410 411
f 305 411 412
f 305 412 306
f 306 412 413
f 306 413 414
f 306 414 307
f 307 414 415
f 307 415 416
f 307 416 308
f 308 416 417
f 308 417 418
f 308 418 309
f 309 418 419
f 309 419 420
f 309 420 310
f 310 420 421
f 310 421 422
f 310 422 311
f 311 422 312
f 312 422 423
f 312 423 313
f 313 423 424
f 313 424 317
f 313 317 314
f 317 425 426
f 317 426 318
f 317 424 425
f 318 426 319
f 319 426 372
f 319 372 320
f 321 323 427
f 321 427 326
f 323 371 428
f 323 428 427
f 324 326 429
f 324 429 327
f 326 427 430
f 326 430 429
f 327 429 431
f 327 431 330
f 328 330 332
f 328 332 331
f 330 431 432
f 330 432 433
f 330 433 434
f 330 434 332
f 332 434 435
f 332 435 333
f 333 435 436
f 333 436 437
f 333 437 438
f 333 438 334
f 334 438 345
f 334 345 439
f 334 439 440
f 334 440 335
f 335 440 439
f 335 439 336
f 336 439 337
f 337 339 338
f 337 439 339
f 339 439 340
f 340 439 341
f 341 439 342
f 342 439 343
f 343 439 344
f 344 439 345
f 345 438 346
f 346 438 441
f 346 441 347
f 347 441 348
f 348 441 349
f 349 441 442
f 349 442 443
f 349 443 444
f 349 444 352
f 349 352 350
f 352 444 404
f 352 404 354
f 352 354 353
f 360 363 361
f 362 367 445
f 362 445 446
f 362 446 368
f 363 402 364
f 364 402 447
f 364 447 365
f 365 448 449
f 365 449 450
f 365 450 366
f 365 447 451
f 365 451 448
f 366 450 452
f 366 452 367
f 367 452 453
f 367 453 445
f 368 446 445
f 368 445 454
f 368 454 455
f 368 455 369
f 369 455 456
f 369 456 370
f 370 456 371
f 371 456 457
f 371 457 458
f 371 458 428
f 372 426 459
f 372 459 374
f 372 374 373
f 374 459 460
f 374 460 461
f 374 461 375
f 375 461 378
f 375 378 376
f 376 378 377
f 378 461 460
f 378 460 462
f 378 462 463
f 378 463 464
f 378 464 379
f 379 464 465
f 379 465 381
f 379 381 380
f 381 465 382
f 382 465 383
f 383 466 467
f 383 467 468
f 383 468 385
f 383 385 384
f 383 465 466
f 385 468 386
f 386 468 469
f 386 469 389
f 389 469 470
f 389 470 471
f 389 471 472
f 389 472 473
f 389 473 390
f 390 473 472
f 390 472 474
f 390 474 391
f 391 474 475
f 391 475 476
f 391 476 392
f 392 476 477
f 392 477 478
f 392 478 395
f 397 478 543
f 397 543 479
f 397 479 399
f 398 401 480
f 398 480 402
f 399 481 482
f 399 482 400
f 399 479 483
f 399 483 484
f 399 484 409
f 399 409 485
f 399 485 481
f 400 482 401
f 401 486 480
f 401 482 481
f 401 481 487
f 401 487 486
f 402 480 447
f 403 404 444
f 403 444 406
f 405 407 488
f 405 488 489
f 405 489 490
f 405 490 491
f 405 491 492
f 405 492 493
f 405 493 408
f 406 444 443
f 406 443 407
f 407 443 494
f 407 494 488
f 408 493 495
f 408 495 485
f 408 485 409
f 409 484 496
f 409 496 410
f 410 496 497
f 410 497 411
f 411 497 498
f 411 498 413
f 411 413 412
f 413 498 499
f 413 499 471
f 413 471 414
f 414 471 415
f 415 417 416
f 415 471 470
f 415 470 500
f 415 500 417
f 417 500 501
f 417 501 418
f 418 501 419
f 419 501 502
f 419 502 420
f 420 502 421
f 421 502 423
f 421 423 422
f 423 502 503
f 423 503 424
f 424 503 425
f 425 504 426
f 425 503 504
f 426 504 459
f 427 428 458
f 427 458 505
f 427 505 506
f 427 506 430
f 429 430 506
f 429 506 507
f 429 507 508
f 429 508 431
f 431 508 507
f 431 507 509
f 431 509 432
f 432 509 434
f 432 434 433
f 434 509 435
f 435 510 436
f 435 509 511
f 435 511 512
f 435 512 513
f 435 513 510
f 436 510 437
f 437 514 515
f 437 515 438
f 437 510 514
f 438 515 516
f 438 516 517
f 438 517 441
f 441 517 518
f 441 518 516
f 441 516 442
f 442 516 519
f 442 519 443
f 443 519 494
f 445 453 520
f 445 520 521
f 445 521 454
f 447 486 487
f 447 487 522
f 447 522 523
f 447 523 451
f 447 480 486
f 448 524 449
f 448 451 525
f 448 525 526
f 448 526 524
f 449 524 452
f 449 452 450
f 451 523 492
f 451 492 527
f 451 527 525
f 452 524 528
f 452 528 529
f 452 529 520
f 452 520 453
f 454 521 530
f 454 530 456
f 454 456 455
f 456 530 457
f 457 530 531
f 457 531 532
f 457 532 458
f 458 532 505
f 459 504 502
f 459 502 533
f 459 533 534
f 459 534 460
f 460 534 462
f 462 534 533
f 462 533 535
f 462 535 536
f 462 536 537
f 462 537 463
f 463 537 466
f 463 466 464
f 464 466 465
f 466 537 536
f 466 536 538
f 466 538 539
f 466 539 467
f 467 539 468
f 468 539 469
f 469 539 540
f 469 540 470
f 470 540 539
f 470 539 541
f 470 541 500
f 471 499 474
f 471 474 472
f 474 499 476
f 474 476 475
f 476 499 498
f 476 498 542
f 476 542 477
f 477 542 497
f 477 497 478
f 478 497 543
f 479 543 544
f 479 544 483
f 481 485 522
f 481 522 487
f 483 544 484
f 484 544 496
f 485 495 522
f 488 494 545
f 488 545 546
f 488 546 489
f 489 546 547
f 489 547 548
f 489 548 490
f 490 548 549
f 490 549 550
f 490 550 491
f 491 550 525
f 491 525 527
f 491 527 492
f 492 523 493
f 493 523 522
f 493 522 495
f 494 519 545
f 496 544 497
f 497 544 543
f 497 542 551
f 497 551 498
f 498 551 542
f 500 541 552
f 500 552 501
f 501 552 536
f 501 536 553
f 501 553 502
f 502 553 535
f 502 535 533
f 502 504 503
f 505 532 554
f 505 554 506
f 506 554 555
f 506 555 507
f 507 555 556
f 507 556 509
f 509 556 511
f 510 513 519
f 510 519 514
f 511 556 557
f 511 557 512
f 512 557 558
f 512 558 559
f 512 559 560
f 512 560 513
f 513 560 559
f 513 559 561
f 513 561 545
f 513 545 519
f 514 519 562
f 514 562 515
f 515 562 519
f 515 519 516
f 516 518 517
f 520 529 563
f 520 563 564
f 520 564 565
f 520 565 566
f 520 566 521
f 521 566 531
f 521 531 530
f 524 526 563
f 524 563 529
f 524 529 528
f 525 550 526
f 526 550 549
f 526 549 567
f 526 567 568
f 526 568 563
f 531 566 532
f 532 566 569
f 532 569 570
f 532 570 554
f 535 553 536
f 536 552 538
f 538 571 539
f 538 552 571
f 539 571 552
f 539 552 541
f 545 561 546
f 546 561 547
f 547 561 567
f 547 567 548
f 548 567 549
f 554 570 555
f 555 570 572
f 555 572 556
f 556 572 557
f 557 572 558
f 558 572 573
f 558 573 559
f 559 574 561
f 559 573 574
f 561 574 567
f 563 568 575
f 563 575 569
f 563 569 564
f 564 569 565
f 565 569 566
f 567 574 573
f 567 573 572
f 567 572 576
f 567 576 569
f 567 569 575
f 567 575 568
f 569 576 577
f 569 577 570
f 570 577 572
f 572 577 576

