# https://github.com/mikedh/trimesh
v 0.01619890 0.00628211 0.00446987
v 0.01505715 0.00239190 0.00446987
v 0.01616084 0.00780973 0.00446987
v 0.00999542 0.00628211 0.07350345
v 0.01328428 -0.00128640 0.00446987
v 0.00873633 0.00275562 0.07350345
v 0.01606886 0.01016599 0.00446987
v 0.00983050 0.01016599 0.07350345
v 0.00880928 0.01016599 0.07688317
v 0.00889174 0.00628211 0.07694859
v 0.00841918 0.00328381 0.07640347
v 0.01250092 -0.00211188 0.00446987
v 0.00744553 0.00081052 0.07350345
v 0.01584369 0.01121604 0.00446987
v 0.00857459 0.01329398 0.07350345
v 0.00831135 0.01289863 0.07632352
v 0.00584074 0.01016599 0.07851126
v 0.00584074 0.00628211 0.07857667
v 0.00609447 0.00214837 0.07726112
v 0.00496541 -0.00025533 0.07643254
v 0.01033477 -0.00431949 0.00446987
v 0.00550139 -0.00060640 0.07350345
v 0.00955458 -0.00509754 0.00446987
v 0.01466389 0.01410048 0.00446987
v 0.00697297 0.01523908 0.07350345
v 0.01329696 0.01702605 0.00446987
v 0.01306544 0.01745618 0.00446987
v 0.00465143 0.01646307 0.07627264
v 0.00590417 0.01413844 0.07712303
v 0.00194930 0.01405620 0.07845311
v 0.00194930 0.01016599 0.07872203
v 0.00194930 0.00239190 0.07861301
v 0.00194930 0.00628211 0.07872203
v 0.00194930 -0.00080566 0.07698493
v 0.00194930 -0.00205811 0.07350345
v 0.00584074 -0.00711538 0.00446987
v 0.00502884 0.01669712 0.07350345
v 0.01123865 0.01947719 0.00446987
v 0.00920254 0.02123253 0.00446987
v 0.00194930 0.01689005 0.07681776
v 0.00194930 0.01777878 0.07350345
v -0.00193580 0.01689321 0.07682503
v -0.00193580 0.01405620 0.07845311
v -0.00193580 0.01016599 0.07872203
v -0.00193580 0.00239190 0.07861301
v -0.00193580 0.00628211 0.07872203
v -0.00193580 -0.00080566 0.07698493
v -0.00193580 -0.00205811 0.07350345
v 0.00112154 -0.00839631 0.00450621
v 0.00136574 -0.00839631 0.00446987
v 0.00198736 -0.00828877 0.00446987
v 0.00875219 0.02146025 0.00446987
v 0.00584074 0.02267475 0.00446987
v -0.00193580 0.01778827 0.07350345
v 0.00270412 0.02375959 0.00446987
v 0.00195247 0.02390823 0.00446987
v -0.00463792 0.01646940 0.07627991
v -0.00582407 0.01016599 0.07851126
v -0.00589067 0.01413844 0.07712303
v -0.00582407 0.00628211 0.07857667
v -0.00607462 0.00215154 0.07726112
v -0.00494556 -0.00025533 0.07643254
v -0.00548155 -0.00060640 0.07350345
v -0.00630614 -0.00698571 0.00446987
v -0.00384188 -0.00794403 0.00446987
v -0.00166305 -0.00839631 0.00446987
v -0.00159645 -0.00839631 0.00449168
v -0.00110486 -0.00839631 0.00450621
v -0.00501851 0.01670660 0.07350345
v -0.00193580 0.02391456 0.00446987
v -0.00582407 0.02268108 0.00446987
v -0.00829785 0.01289863 0.07632352
v -0.00696264 0.01523908 0.07350345
v -0.00880212 0.01016599 0.07688317
v -0.00888458 0.00628211 0.07694859
v -0.00840568 0.00328381 0.07640347
v -0.00742568 0.00081368 0.07350345
v -0.00954425 -0.00510386 0.00446987
v -0.00919221 0.02123569 0.00446987
v -0.00856108 0.01329398 0.07350345
v -0.00983603 0.01016599 0.07350345
v -0.01305828 0.01746567 0.00446987
v -0.01000095 0.00628211 0.07350345
v -0.00872917 0.00275879 0.07350345
v -0.01327395 -0.00129273 0.00446987
v -0.01168819 -0.00345606 0.00446987
v -0.01468210 0.01405620 0.00446987
v -0.01607122 0.01016599 0.00446987
v -0.01620125 0.00628211 0.00446987
v -0.01597290 0.00505496 0.00446987
v -0.01498656 0.00210409 0.00446987
f 1 2 5
f 1 5 12
f 1 12 21
f 1 21 23
f 1 23 36
f 1 36 51
f 1 51 50
f 1 50 66
f 1 66 65
f 1 65 64
f 1 64 78
f 1 78 86
f 1 86 85
f 1 85 91
f 1 91 90
f 1 90 89
f 1 89 88
f 1 88 87
f 1 87 82
f 1 82 79
f 1 79 71
f 1 71 70
f 1 70 56
f 1 56 55
f 1 55 53
f 1 53 52
f 1 52 39
f 1 39 38
f 1 38 27
f 1 27 26
f 1 26 24
f 1 24 14
f 1 14 7
f 1 7 3
f 1 3 4
f 1 4 2
f 2 4 6
f 2 6 5
f 3 7 4
f 4 8 9
f 4 9 10
f 4 10 11
f 4 11 6
f 4 7 8
f 5 6 13
f 5 13 12
f 6 11 13
f 7 14 8
f 8 15 16
f 8 16 9
f 8 14 15
f 9 16 17
f 9 17 10
f 10 17 18
f 10 18 11
f 11 18 19
f 11 19 20
f 11 20 13
f 12 13 21
f 13 20 22
f 13 22 23
f 13 23 21
f 14 24 15
f 15 25 16
f 15 24 26
f 15 26 27
f 15 27 25
f 16 25 28
f 16 28 29
f 16 29 17
f 17 29 30
f 17 30 31
f 17 31 18
f 18 32 19
f 18 31 33
f 18 33 32
f 19 32 20
f 20 32 34
f 20 34 35
f 20 35 22
f 22 35 36
f 22 36 23
f 25 37 28
f 25 27 38
f 25 38 39
f 25 39 37
f 28 40 30
f 28 30 29
f 28 37 41
f 28 41 40
f 30 40 42
f 30 42 43
f 30 43 44
f 30 44 31
f 31 44 46
f 31 46 33
f 32 33 46
f 32 46 45
f 32 45 47
f 32 47 34
f 34 47 48
f 34 48 35
f 35 48 68
f 35 68 49
f 35 49 50
f 35 50 51
f 35 51 36
f 37 39 52
f 37 52 53
f 37 53 41
f 40 41 54
f 40 54 42
f 41 53 55
f 41 55 56
f 41 56 54
f 42 54 57
f 42 57 43
f 43 58 44
f 43 57 59
f 43 59 58
f 44 60 46
f 44 58 60
f 45 46 60
f 45 60 61
f 45 61 62
f 45 62 47
f 47 62 48
f 48 62 63
f 48 63 64
f 48 64 65
f 48 65 66
f 48 66 67
f 48 67 68
f 49 68 67
f 49 67 66
f 49 66 50
f 54 69 57
f 54 56 70
f 54 70 71
f 54 71 69
f 57 72 59
f 57 69 73
f 57 73 72
f 58 59 72
f 58 72 74
f 58 74 75
f 58 75 60
f 60 75 76
f 60 76 61
f 61 76 62
f 62 76 77
f 62 77 63
f 63 77 78
f 63 78 64
f 69 71 79
f 69 79 73
f 72 73 80
f 72 80 81
f 72 81 74
f 73 79 82
f 73 82 80
f 74 81 83
f 74 83 75
f 75 83 76
f 76 83 84
f 76 84 77
f 77 84 85
f 77 85 86
f 77 86 78
f 80 82 87
f 80 87 81
f 81 87 88
f 81 88 83
f 83 88 89
f 83 89 90
f 83 90 91
f 83 91 84
f 84 91 85

