# https://github.com/mikedh/trimesh
v -0.03741190 -0.00858768 -0.21216621
v -0.01509535 -0.00858768 -0.21216621
v -0.03746911 -0.00858768 -0.21176670
v -0.03840665 -0.00599136 -0.21216621
v -0.01509535 0.00261816 -0.21216621
v -0.01509535 -0.00858768 -0.10096160
v -0.03765662 -0.00858768 -0.21042642
v -0.03850517 -0.00624138 -0.21042642
v -0.03871810 -0.00512272 -0.21216621
v -0.02018983 0.01715113 -0.21216621
v -0.01882960 0.02415798 -0.09312611
v -0.01509535 0.00261816 -0.10101315
v -0.01509535 -0.00297835 -0.10096160
v -0.01891541 0.02415798 -0.08834492
v -0.01912517 0.02415798 -0.08767478
v -0.01967498 0.02415798 -0.08690154
v -0.02654919 -0.00208727 -0.08675978
v -0.02311685 -0.00858768 -0.09312611
v -0.03776785 -0.00858768 -0.20934388
v -0.03869585 -0.00678949 -0.20653445
v -0.03918210 -0.00429895 -0.21042642
v -0.03909629 -0.00404572 -0.21216621
v -0.03846067 0.01715113 -0.21216621
v -0.04121290 0.02415798 -0.09312611
v -0.01884867 0.02415798 -0.09089661
v -0.01886138 0.02415798 -0.08985274
v -0.01509535 0.00239058 -0.10100026
v -0.02301515 0.02415798 -0.08486535
v -0.03404313 -0.00208727 -0.08050943
v -0.04438463 -0.00858768 -0.09312611
v -0.03812380 -0.00858768 -0.20565812
v -0.03882297 -0.00714848 -0.20389256
v -0.03937279 -0.00484706 -0.20653445
v -0.04040249 -0.00149749 -0.20653445
v -0.03956347 -0.00249755 -0.21216621
v -0.03895010 0.01614786 -0.21216621
v -0.03864818 0.01715113 -0.21042642
v -0.03901366 0.01715113 -0.20653445
v -0.03940139 0.01715113 -0.20184348
v -0.03963339 0.01715113 -0.19875052
v -0.04074572 0.01715113 -0.18319553
v -0.04101268 0.01715113 -0.17930356
v -0.04125104 0.01715113 -0.17541160
v -0.04212819 0.01715113 -0.15984373
v -0.04214408 0.02269635 -0.09312611
v -0.04221082 0.02281495 -0.08985274
v -0.04134956 0.02415798 -0.08985274
v -0.02420058 0.02415798 -0.08428542
v -0.03294351 0.01017633 -0.08050943
v -0.04688261 -0.00208727 -0.08050943
v -0.04459439 -0.00858768 -0.09315188
v -0.03838122 -0.00858768 -0.20288735
v -0.03894056 -0.00747863 -0.20130221
v -0.03991306 -0.00538555 -0.19875052
v -0.03945859 -0.00566442 -0.20261671
v -0.04075843 -0.00149749 -0.20264249
v -0.04118747 0.00239058 -0.20653445
v -0.04082835 0.00239058 -0.21042642
v -0.04002747 -0.00149749 -0.21042642
v -0.03984950 -0.00149749 -0.21216621
v -0.03961750 0.01415414 -0.21216621
v -0.03982090 0.01405478 -0.21042642
v -0.03904226 0.01634018 -0.21042642
v -0.03922024 0.01672162 -0.20653445
v -0.04107942 0.01405478 -0.19485855
v -0.04188983 0.01405478 -0.18319553
v -0.04227438 0.01442660 -0.17541160
v -0.04270025 0.01577283 -0.15984373
v -0.04275745 0.01595874 -0.15761422
v -0.04229981 0.01715113 -0.15657035
v -0.04325006 0.02075392 -0.09312611
v -0.04251274 0.01715113 -0.15209845
v -0.04331362 0.02086931 -0.08985274
v -0.04333269 0.02086931 -0.08597366
v -0.04108260 0.02415798 -0.08594788
v -0.02468682 0.02415798 -0.08413077
v -0.03343293 0.01396182 -0.08050943
v -0.03330581 0.01311241 -0.08050943
v -0.04698749 -0.00153595 -0.08050943
v -0.04679999 -0.00208727 -0.08414365
v -0.04648218 -0.00255845 -0.09312611
v -0.04580842 -0.00496245 -0.09312611
v -0.04568448 -0.00538555 -0.09312611
v -0.04566858 -0.00538555 -0.09375759
v -0.04556689 -0.00538555 -0.09764956
v -0.04457850 -0.00858768 -0.09375759
v -0.03864182 -0.00858768 -0.20005214
v -0.03905815 -0.00779275 -0.19875052
v -0.04025630 -0.00538555 -0.19485855
v -0.04110802 -0.00149749 -0.19875052
v -0.04144490 -0.00149749 -0.19485855
v -0.04185805 0.00239058 -0.19875052
v -0.04279559 0.00413748 -0.18935567
v -0.04122244 0.00262136 -0.20630248
v -0.04106353 0.00627865 -0.21042642
v -0.04088874 0.00627865 -0.21216621
v -0.04065038 0.00239058 -0.21216621
v -0.04029443 0.00065650 -0.21216621
v -0.04006243 0.01231749 -0.21216621
v -0.04057410 0.01016351 -0.21216621
v -0.04074254 0.01016351 -0.21042642
v -0.04016731 0.01405478 -0.20653445
v -0.04078386 0.01405478 -0.19875052
v -0.04272567 0.01183348 -0.18051497
v -0.04280830 0.01223415 -0.17792462
v -0.04225849 0.01374065 -0.17925201
v -0.04288775 0.01248096 -0.17541160
v -0.04322146 0.01349705 -0.16373569
v -0.04332633 0.01382720 -0.15984373
v -0.04331997 0.01442019 -0.15617084
v -0.04420349 0.01405478 -0.14044832
v -0.04282102 0.01610939 -0.15501098
v -0.04436239 0.01841403 -0.09312611
v -0.04305301 0.01715113 -0.14044832
v -0.04328502 0.01715113 -0.13499699
v -0.04316743 0.01690432 -0.14044832
v -0.04469927 0.01794285 -0.08985274
v -0.04478190 0.01794285 -0.08597366
v -0.04676185 0.01236557 -0.08050943
v -0.04313564 0.02049429 -0.08367972
v -0.04036117 0.02415798 -0.08453028
v -0.02683204 0.02415798 -0.08360239
v -0.03653475 0.01599401 -0.08050943
v -0.04721631 0.00018211 -0.08050943
v -0.04699385 -0.00130196 -0.08208169
v -0.04687308 -0.00061282 -0.09312611
v -0.04681905 -0.00034357 -0.09764956
v -0.04647582 -0.00251999 -0.09375759
v -0.04446727 -0.00858768 -0.09764956
v -0.04642497 -0.00228920 -0.09764956
v -0.04544294 -0.00538555 -0.10154153
v -0.03875941 -0.00858768 -0.19875052
v -0.03910265 -0.00858768 -0.19485855
v -0.03922659 -0.00825112 -0.19485855
v -0.03941092 -0.00858768 -0.19097947
v -0.04056139 -0.00538555 -0.19097947
v -0.04174364 -0.00149749 -0.19097947
v -0.04282737 0.00023339 -0.18199701
v -0.04273521 0.00076547 -0.18458737
v -0.04218222 0.00239058 -0.19485855
v -0.04279559 0.00547731 -0.18935567
v -0.04237608 0.00627865 -0.19485855
v -0.04206145 0.00627865 -0.19875052
v -0.04141312 0.00627865 -0.20653445
v -0.04252863 0.00261816 -0.19064440
v -0.04287822 0.00345475 -0.18708750
v -0.04356469 0.00239058 -0.17541160
v -0.04383165 0.00239058 -0.17150674
v -0.04409543 0.00239058 -0.16762766
v -0.04435285 0.00239058 -0.16373569
v -0.04436239 0.00261816 -0.16373569
v -0.04424480 0.00627865 -0.16762766
v -0.04399373 0.00627865 -0.17150674
v -0.04373630 0.00627865 -0.17541160
v -0.04108578 0.01016351 -0.20653445
v -0.04171504 0.01016351 -0.19875052
v -0.04296403 0.00935897 -0.18319553
v -0.04305301 0.01038788 -0.17925201
v -0.04333904 0.01016351 -0.17541160
v -0.04201060 0.01016351 -0.19485855
v -0.04228392 0.01016351 -0.19097947
v -0.04285597 0.00871470 -0.18637870
v -0.04357422 0.01016351 -0.17150674
v -0.04380622 0.01016351 -0.16762766
v -0.04403187 0.01016351 -0.16373569
v -0.04424480 0.01016351 -0.15984373
v -0.04463252 0.01016351 -0.15209845
v -0.04537620 0.01016351 -0.13655635
v -0.04454672 0.01405478 -0.13266438
v -0.04458486 0.01794285 -0.09312611
v -0.04337718 0.01715113 -0.13266438
v -0.04517598 0.01405478 -0.11710940
v -0.04429565 0.01715113 -0.10932546
v -0.04616437 0.01425030 -0.08597366
v -0.04470245 0.01715113 -0.09843569
v -0.04483593 0.01715113 -0.09455661
v -0.04575439 0.01405478 -0.10154153
v -0.04588469 0.01405478 -0.09764956
v -0.04712097 0.01030775 -0.08050943
v -0.04572261 0.01360282 -0.08050943
v -0.04677138 0.01241365 -0.08208169
v -0.03978594 0.02415798 -0.08364105
v -0.03073791 0.02415798 -0.08312556
v -0.03693837 0.01612542 -0.08050943
v -0.04749917 0.00239378 -0.08050943
v -0.04676503 -0.00007111 -0.10154153
v -0.04434332 -0.00858768 -0.10154153
v -0.04636141 -0.00201354 -0.10154153
v -0.04548743 -0.00149749 -0.12877242
v -0.04471198 -0.00538555 -0.12100137
v -0.04406365 -0.00858768 -0.10932546
v -0.04408907 -0.00858768 -0.10862955
v -0.04422891 -0.00858768 -0.10473758
v -0.04084742 -0.00538555 -0.18708750
v -0.04112074 -0.00858768 -0.16762766
v -0.04277970 -0.00345594 -0.16965097
v -0.04257312 -0.00264179 -0.17541160
v -0.04292271 -0.00015125 -0.17930356
v -0.04366639 -0.00149749 -0.16373569
v -0.04277970 0.00261816 -0.18708750
v -0.04290682 0.00657354 -0.18744834
v -0.04277016 0.00806722 -0.18898194
v -0.04267164 0.00657354 -0.19077327
v -0.04458486 0.00239058 -0.15984373
v -0.04448633 0.00627865 -0.16373569
v -0.04471516 0.00627865 -0.15984373
v -0.04511877 0.00627865 -0.15209845
v -0.04599593 0.00627865 -0.13266438
v -0.04554782 0.01016351 -0.13266438
v -0.04455943 0.01715113 -0.10232765
v -0.04548108 0.01405478 -0.10932546
v -0.04603406 0.01399708 -0.09312611
v -0.04620886 0.01370860 -0.08990428
v -0.04667922 0.01217966 -0.08865422
v -0.04671418 0.01230788 -0.08597366
v -0.04599911 0.01405478 -0.09375759
v -0.04656798 0.01152898 -0.09764956
v -0.04662519 0.01187516 -0.09312611
v -0.04664744 0.01202260 -0.09124457
v -0.04715911 0.01016671 -0.08208169
v -0.04755955 0.00628506 -0.08050943
v -0.04497576 0.01411889 -0.08050943
v -0.04082835 0.01614466 -0.08050943
v -0.03879120 0.02415798 -0.08344774
v -0.03305474 0.02415798 -0.08307401
v -0.04017049 0.01617030 -0.08050943
v -0.03462154 0.02415798 -0.08304823
v -0.04722267 0.00261816 -0.09312611
v -0.04746420 0.00239378 -0.08208169
v -0.04711779 0.00239058 -0.09764956
v -0.04666968 0.00042892 -0.10748258
v -0.04604996 -0.00149749 -0.11321743
v -0.04593554 0.00239058 -0.13266438
v -0.04532217 -0.00149749 -0.13266438
v -0.04441324 -0.00538555 -0.12877242
v -0.04361872 -0.00858768 -0.12100137
v -0.04391746 -0.00858768 -0.11321743
v -0.04218857 -0.00561634 -0.16762766
v -0.04139723 -0.00858768 -0.16373569
v -0.04232523 -0.00602021 -0.16373569
v -0.04285280 -0.00367391 -0.16762766
v -0.04298628 -0.00407457 -0.16373569
v -0.04389521 -0.00149749 -0.15984373
v -0.04499801 0.00239058 -0.15209845
v -0.04480096 0.00261816 -0.15596464
v -0.04670146 0.00392273 -0.11636194
v -0.04670146 0.00503818 -0.11636194
v -0.04645039 0.00627865 -0.12100137
v -0.04662519 0.00763130 -0.11417109
v -0.04667604 0.00828198 -0.11156785
v -0.04613894 0.01016351 -0.11710940
v -0.04650760 0.01119242 -0.10154153
v -0.04682541 0.00924999 -0.10154153
v -0.04687626 0.00958655 -0.09764956
v -0.04717818 0.00627865 -0.09764956
v -0.03709727 0.02415798 -0.08322866
v -0.04712733 0.00262136 -0.09740470
v -0.04701927 0.00239058 -0.10154153
v -0.04663472 0.00261816 -0.11469947
v -0.04654256 0.00261816 -0.11736714
v -0.04639319 0.00239058 -0.12100137
v -0.04492491 -0.00149749 -0.14044832
v -0.04423526 -0.00538555 -0.13266438
v -0.04331362 -0.00858768 -0.12877242
v -0.04145761 -0.00858768 -0.16282070
v -0.04244600 -0.00637280 -0.15984373
v -0.04310387 -0.00442716 -0.15984373
v -0.04472151 -0.00149749 -0.14432740
v -0.04707648 0.00627865 -0.10154153
v -0.04673960 0.00631390 -0.11299835
v -0.04658705 0.00631390 -0.11743158
v -0.04676821 0.00886855 -0.10543349
v -0.04637412 0.01043917 -0.10932546
v -0.04323734 -0.00858768 -0.13043488
v -0.04403187 -0.00538555 -0.13655635
v -0.04297992 -0.00787609 -0.14044832
v -0.04308162 -0.00816137 -0.13655635
v -0.04318332 -0.00844023 -0.13266438
v -0.04163876 -0.00858768 -0.15984373
v -0.04169915 -0.00858768 -0.15881274
v -0.04265893 -0.00699463 -0.15209845
v -0.04280512 -0.00740812 -0.14680177
v -0.04314200 -0.00858768 -0.13240664
v -0.04243964 -0.00858768 -0.14544860
v -0.04296721 -0.00858768 -0.13580889
v -0.04312929 -0.00858768 -0.13266438
f 1 2 6
f 1 6 18
f 1 18 30
f 1 30 51
f 1 51 86
f 1 86 129
f 1 129 187
f 1 187 193
f 1 193 192
f 1 192 191
f 1 191 237
f 1 237 236
f 1 236 264
f 1 264 274
f 1 274 283
f 1 283 286
f 1 286 285
f 1 285 284
f 1 284 280
f 1 280 279
f 1 279 265
f 1 265 239
f 1 239 195
f 1 195 135
f 1 135 133
f 1 133 132
f 1 132 87
f 1 87 52
f 1 52 31
f 1 31 19
f 1 19 7
f 1 7 3
f 1 3 4
f 1 4 9
f 1 9 22
f 1 22 35
f 1 35 60
f 1 60 98
f 1 98 97
f 1 97 96
f 1 96 100
f 1 100 99
f 1 99 61
f 1 61 36
f 1 36 23
f 1 23 10
f 1 10 5
f 1 5 2
f 2 5 12
f 2 12 27
f 2 27 13
f 2 13 6
f 3 7 4
f 4 7 8
f 4 8 9
f 5 10 11
f 5 11 12
f 6 13 14
f 6 14 15
f 6 15 16
f 6 16 17
f 6 17 18
f 7 19 8
f 8 19 20
f 8 20 33
f 8 33 21
f 8 21 22
f 8 22 9
f 10 23 24
f 10 24 11
f 11 24 47
f 11 47 75
f 11 75 121
f 11 121 182
f 11 182 224
f 11 224 256
f 11 256 227
f 11 227 225
f 11 225 183
f 11 183 122
f 11 122 76
f 11 76 48
f 11 48 28
f 11 28 16
f 11 16 15
f 11 15 14
f 11 14 26
f 11 26 25
f 11 25 12
f 12 25 26
f 12 26 14
f 12 14 27
f 13 27 14
f 16 28 29
f 16 29 17
f 17 29 18
f 18 29 50
f 18 50 30
f 19 31 32
f 19 32 20
f 20 32 33
f 21 33 34
f 21 34 22
f 22 34 35
f 23 36 37
f 23 37 24
f 24 37 38
f 24 38 39
f 24 39 40
f 24 40 41
f 24 41 42
f 24 42 43
f 24 43 44
f 24 44 45
f 24 45 46
f 24 46 47
f 28 48 49
f 28 49 29
f 29 49 78
f 29 78 77
f 29 77 123
f 29 123 184
f 29 184 226
f 29 226 223
f 29 223 222
f 29 222 180
f 29 180 119
f 29 119 179
f 29 179 221
f 29 221 185
f 29 185 124
f 29 124 79
f 29 79 50
f 30 50 51
f 31 52 32
f 32 52 53
f 32 53 54
f 32 54 55
f 32 55 33
f 33 55 54
f 33 54 56
f 33 56 34
f 34 57 58
f 34 58 59
f 34 59 35
f 34 56 57
f 35 59 60
f 36 61 62
f 36 62 63
f 36 63 37
f 37 63 38
f 38 63 64
f 38 64 39
f 39 64 40
f 40 64 65
f 40 65 41
f 41 65 66
f 41 66 42
f 42 66 67
f 42 67 43
f 43 67 68
f 43 68 69
f 43 69 44
f 44 69 70
f 44 70 45
f 45 71 46
f 45 70 72
f 45 72 71
f 46 71 73
f 46 73 74
f 46 74 47
f 47 74 75
f 48 76 77
f 48 77 78
f 48 78 49
f 50 79 80
f 50 80 81
f 50 81 82
f 50 82 83
f 50 83 51
f 51 83 84
f 51 84 85
f 51 85 86
f 52 87 88
f 52 88 53
f 53 88 54
f 54 88 89
f 54 89 90
f 54 90 56
f 56 90 57
f 57 90 91
f 57 91 92
f 57 92 93
f 57 93 94
f 57 94 95
f 57 95 58
f 58 95 96
f 58 96 97
f 58 97 98
f 58 98 59
f 59 98 60
f 61 99 62
f 62 99 100
f 62 100 101
f 62 101 102
f 62 102 63
f 63 102 64
f 64 102 103
f 64 103 65
f 65 103 104
f 65 104 105
f 65 105 66
f 66 105 106
f 66 106 67
f 67 106 107
f 67 107 108
f 67 108 68
f 68 109 69
f 68 108 109
f 69 110 111
f 69 111 112
f 69 112 70
f 69 109 110
f 70 112 72
f 71 113 73
f 71 72 114
f 71 114 115
f 71 115 113
f 72 112 116
f 72 116 114
f 73 113 117
f 73 117 118
f 73 118 74
f 74 118 119
f 74 119 120
f 74 120 75
f 75 120 121
f 76 122 77
f 77 122 123
f 79 124 125
f 79 125 126
f 79 126 80
f 80 126 127
f 80 127 128
f 80 128 81
f 81 128 82
f 82 128 85
f 82 85 84
f 82 84 83
f 85 129 86
f 85 128 130
f 85 130 131
f 85 131 187
f 85 187 129
f 87 132 88
f 88 132 133
f 88 133 134
f 88 134 89
f 89 134 135
f 89 135 136
f 89 136 91
f 89 91 90
f 91 136 137
f 91 137 138
f 91 138 139
f 91 139 92
f 92 139 140
f 92 140 93
f 93 141 142
f 93 142 143
f 93 143 144
f 93 144 94
f 93 140 145
f 93 145 146
f 93 146 147
f 93 147 148
f 93 148 149
f 93 149 150
f 93 150 151
f 93 151 152
f 93 152 153
f 93 153 154
f 93 154 141
f 94 144 95
f 95 101 100
f 95 100 96
f 95 144 101
f 101 144 155
f 101 155 102
f 102 155 156
f 102 156 103
f 103 156 104
f 104 157 158
f 104 158 159
f 104 159 105
f 104 156 160
f 104 160 161
f 104 161 162
f 104 162 157
f 105 159 163
f 105 163 164
f 105 164 165
f 105 165 166
f 105 166 107
f 105 107 106
f 107 166 108
f 108 166 167
f 108 167 109
f 109 167 111
f 109 111 110
f 111 167 168
f 111 168 209
f 111 209 169
f 111 169 112
f 112 169 116
f 113 170 117
f 113 115 170
f 114 116 115
f 115 116 171
f 115 171 170
f 116 169 172
f 116 172 173
f 116 173 171
f 117 174 118
f 117 170 175
f 117 175 176
f 117 176 177
f 117 177 178
f 117 178 174
f 118 174 119
f 119 180 120
f 119 174 181
f 119 181 179
f 120 182 121
f 120 180 182
f 122 183 123
f 123 183 184
f 124 185 126
f 124 126 125
f 126 185 127
f 127 186 130
f 127 130 128
f 127 185 186
f 130 186 188
f 130 188 131
f 131 188 189
f 131 189 190
f 131 190 237
f 131 237 191
f 131 191 192
f 131 192 193
f 131 193 187
f 133 135 134
f 135 194 136
f 135 195 194
f 136 194 196
f 136 196 137
f 137 196 197
f 137 197 138
f 138 197 196
f 138 196 198
f 138 198 199
f 138 199 150
f 138 150 139
f 139 200 145
f 139 145 140
f 139 150 149
f 139 149 148
f 139 148 147
f 139 147 200
f 141 154 201
f 141 201 202
f 141 202 203
f 141 203 142
f 142 203 202
f 142 202 143
f 143 202 144
f 144 202 155
f 145 200 146
f 146 200 147
f 150 199 204
f 150 204 151
f 151 204 205
f 151 205 152
f 152 205 202
f 152 202 153
f 153 202 154
f 154 202 201
f 155 202 156
f 156 202 160
f 157 159 158
f 157 162 159
f 159 162 163
f 160 202 162
f 160 162 161
f 162 202 205
f 162 205 164
f 162 164 163
f 164 205 206
f 164 206 165
f 165 206 166
f 166 206 207
f 166 207 167
f 167 207 168
f 168 207 208
f 168 208 209
f 169 209 172
f 170 171 173
f 170 173 210
f 170 210 175
f 172 209 211
f 172 211 173
f 173 211 210
f 174 212 213
f 174 213 214
f 174 214 215
f 174 215 181
f 174 178 216
f 174 216 212
f 175 210 211
f 175 211 177
f 175 177 176
f 177 217 178
f 177 211 217
f 178 217 218
f 178 218 219
f 178 219 212
f 178 212 216
f 179 181 220
f 179 220 221
f 180 222 182
f 181 215 220
f 182 222 223
f 182 223 224
f 183 225 184
f 184 225 227
f 184 227 226
f 185 221 228
f 185 228 229
f 185 229 230
f 185 230 186
f 186 230 231
f 186 231 188
f 188 231 232
f 188 232 189
f 189 232 231
f 189 231 233
f 189 233 234
f 189 234 235
f 189 235 190
f 190 235 236
f 190 236 237
f 194 195 238
f 194 238 196
f 195 239 240
f 195 240 238
f 196 238 241
f 196 241 199
f 196 199 198
f 199 241 242
f 199 242 243
f 199 243 204
f 204 243 244
f 204 244 245
f 204 245 206
f 204 206 205
f 206 245 244
f 206 244 207
f 207 244 233
f 207 233 246
f 207 246 208
f 208 246 247
f 208 247 248
f 208 248 249
f 208 249 250
f 208 250 209
f 209 250 251
f 209 251 252
f 209 252 211
f 211 252 217
f 212 219 214
f 212 214 213
f 214 219 220
f 214 220 215
f 217 252 253
f 217 253 254
f 217 254 218
f 218 254 219
f 219 254 220
f 220 254 253
f 220 253 221
f 221 253 255
f 221 255 228
f 223 226 227
f 223 227 256
f 223 256 224
f 228 255 257
f 228 257 230
f 228 230 229
f 230 257 246
f 230 246 258
f 230 258 231
f 231 246 259
f 231 259 260
f 231 260 261
f 231 261 233
f 231 258 246
f 233 261 246
f 233 244 234
f 234 244 262
f 234 262 263
f 234 263 235
f 235 263 264
f 235 264 236
f 238 240 241
f 239 265 240
f 240 265 266
f 240 266 242
f 240 242 241
f 242 266 267
f 242 267 243
f 243 267 268
f 243 268 244
f 244 268 262
f 246 261 260
f 246 260 259
f 246 257 255
f 246 255 247
f 247 255 269
f 247 269 270
f 247 270 250
f 247 250 249
f 247 249 271
f 247 271 248
f 248 271 249
f 250 272 253
f 250 253 252
f 250 252 273
f 250 273 251
f 250 270 269
f 250 269 255
f 250 255 272
f 251 273 252
f 253 272 255
f 262 268 267
f 262 267 263
f 263 274 264
f 263 267 275
f 263 275 276
f 263 276 277
f 263 277 278
f 263 278 274
f 265 279 266
f 266 279 280
f 266 280 281
f 266 281 267
f 267 281 282
f 267 282 275
f 274 278 283
f 275 282 276
f 276 282 284
f 276 284 285
f 276 285 277
f 277 285 278
f 278 285 286
f 278 286 283
f 280 284 282
f 280 282 281

