# https://github.com/mikedh/trimesh
v 0.01590495 -0.03127186 -0.05583408
v 0.01570784 -0.01660411 -0.09311583
v 0.01570784 -0.01660411 -0.09247349
v 0.01570784 -0.01662349 -0.08984935
v 0.01570784 -0.01694804 -0.08863399
v 0.01570784 -0.01777152 -0.08661206
v -0.01415022 -0.01816874 -0.08801355
v -0.01090817 -0.03315619 -0.05583408
v 0.01590495 -0.06609081 -0.05583408
v 0.01590495 -0.03130577 -0.07340742
v -0.01415022 -0.01766496 -0.09311583
v 0.01570784 -0.06609081 -0.09311583
v -0.01415022 -0.01766496 -0.09267422
v -0.01415022 -0.01768433 -0.08984935
v -0.01415022 -0.01877908 -0.08673250
v -0.01329999 -0.03241505 -0.07340742
v -0.01090817 -0.06609081 -0.05583408
v -0.01415022 -0.02067795 -0.08570328
v 0.01590495 -0.06609081 -0.07340742
v -0.01415022 -0.06609081 -0.09311583
v -0.01415022 -0.03132030 -0.08050610
v -0.01329999 -0.06608596 -0.07340742
v -0.01415022 -0.06609081 -0.08050610
f 1 2 3
f 1 3 4
f 1 4 5
f 1 5 6
f 1 6 7
f 1 7 8
f 1 8 17
f 1 17 9
f 1 9 19
f 1 19 10
f 1 10 2
f 2 11 13
f 2 13 3
f 2 10 19
f 2 19 12
f 2 12 20
f 2 20 11
f 3 13 14
f 3 14 4
f 4 14 7
f 4 7 5
f 5 7 6
f 7 15 8
f 7 14 13
f 7 13 11
f 7 11 20
f 7 20 23
f 7 23 21
f 7 21 18
f 7 18 15
f 8 16 22
f 8 22 17
f 8 15 18
f 8 18 16
f 9 17 23
f 9 23 20
f 9 20 12
f 9 12 19
f 16 21 23
f 16 23 22
f 16 18 21
f 17 22 23

