# https://github.com/mikedh/trimesh
v 0.04486697 0.01715770 -0.09312790
v -0.04488426 0.01715770 -0.09312790
v 0.04484939 0.01715770 -0.09375987
v 0.04457705 0.01795341 -0.09312790
v 0.01005059 0.04517795 -0.08333232
v 0.01005059 0.04128152 -0.08316801
v 0.01005059 0.03739455 -0.08324385
v 0.01005059 0.03446749 -0.08367359
v -0.03073104 0.02416119 -0.08313009
v -0.03461417 0.02416119 -0.08304162
v -0.03709165 0.02416119 -0.08323121
v -0.03878722 0.02416119 -0.08344608
v -0.03977996 0.02416119 -0.08364831
v -0.04035980 0.02416119 -0.08453307
v -0.04108020 0.02416119 -0.08594869
v -0.04458555 0.01795341 -0.09312790
v -0.04469976 0.01715770 -0.09843647
v 0.04443648 0.01715770 -0.10542608
v 0.04413778 0.01795341 -0.10542608
v 0.04310989 0.02046999 -0.10153313
v 0.04318018 0.02059945 -0.09765282
v 0.04325924 0.02074786 -0.09312790
v 0.01005059 0.04744192 -0.08374943
v 0.00972553 0.04517479 -0.08329440
v 0.00583362 0.04517479 -0.08318065
v 0.00194170 0.04517479 -0.08316801
v -0.00193264 0.04517479 -0.08316801
v -0.00582455 0.04517479 -0.08318065
v -0.01749151 0.04128152 -0.08319329
v -0.02915846 0.03350758 -0.08324385
v -0.03305038 0.02962062 -0.08328176
v -0.03283075 0.03325183 -0.08366095
v -0.03595833 0.02962062 -0.08371150
v -0.03517644 0.03178355 -0.08388846
v -0.03947248 0.02490006 -0.08373679
v -0.03869937 0.02749242 -0.08458363
v -0.03895414 0.02777660 -0.08718735
v -0.04135254 0.02416119 -0.08985428
v -0.04325018 0.02076365 -0.09312790
v -0.04436592 0.01842389 -0.09312790
v -0.04428685 0.01795341 -0.10153313
v -0.04458555 0.01715770 -0.10153313
v 0.04339102 0.01715770 -0.13266409
v 0.04334710 0.01726506 -0.13266409
v 0.04246856 0.01921328 -0.13266409
v 0.04294297 0.02018897 -0.10931903
v 0.04095748 0.02184353 -0.13656968
v 0.04111561 0.02184353 -0.13266409
v 0.03934097 0.02451168 -0.14043735
v 0.03942004 0.02463798 -0.13654440
v 0.04214350 0.02269292 -0.09312790
v 0.01005059 0.04803871 -0.08597397
v 0.00972553 0.04811450 -0.08597397
v 0.00583362 0.04869864 -0.08597397
v 0.00972553 0.04747350 -0.08372415
v 0.04202051 0.02290132 -0.09312790
v 0.04001745 0.02603678 -0.09312790
v 0.03933219 0.02707878 -0.09312790
v 0.03844487 0.02832602 -0.09312790
v 0.03767176 0.02934276 -0.09312790
v 0.03549299 0.03213720 -0.09312790
v 0.03521186 0.03244981 -0.09312790
v 0.03372713 0.03407595 -0.09312790
v 0.03210184 0.03577472 -0.09312790
v 0.03178556 0.03609995 -0.09312790
v 0.03144294 0.03640939 -0.09312790
v 0.02962437 0.03804500 -0.09312790
v 0.02767402 0.03968695 -0.09312790
v 0.02728746 0.03996797 -0.09312790
v 0.02528440 0.04136993 -0.09312790
v 0.02491542 0.04161937 -0.09312790
v 0.02289478 0.04296450 -0.09312790
v 0.02126071 0.04387072 -0.09312790
v 0.00583362 0.04769454 -0.08361039
v 0.00194170 0.04777663 -0.08359775
v -0.00193264 0.04777348 -0.08359775
v -0.00582455 0.04769454 -0.08361039
v -0.00970768 0.04517479 -0.08329440
v -0.01749151 0.04405070 -0.08361039
v -0.02143614 0.04136045 -0.08352192
v -0.02526655 0.03739455 -0.08330705
v -0.02885976 0.03716721 -0.08368623
v -0.03138116 0.03572104 -0.08383790
v -0.03363900 0.03400648 -0.08597397
v -0.03540486 0.03206458 -0.08597397
v -0.03754848 0.02929223 -0.08592341
v -0.03552785 0.03220351 -0.08985428
v -0.03746941 0.02972482 -0.08985428
v -0.03895414 0.02778292 -0.08985428
v -0.04034223 0.02573050 -0.08985428
v -0.04214323 0.02270555 -0.09312790
v -0.03968333 0.02506741 -0.12098524
v -0.03932313 0.02452115 -0.14043735
v -0.04302176 0.02035000 -0.10542608
v -0.04294269 0.02020475 -0.10931903
v -0.04398815 0.01795341 -0.10931903
v -0.04429564 0.01715770 -0.10931903
v 0.04329439 0.01715770 -0.13485071
v 0.04306596 0.01715770 -0.13995705
v 0.04206443 0.01820286 -0.15214148
v 0.04030736 0.02184353 -0.15214148
v 0.03909499 0.02411067 -0.15211620
v 0.03974510 0.02289816 -0.15214148
v 0.03809345 0.02645674 -0.14043735
v 0.03817252 0.02657988 -0.13654440
v 0.03949032 0.02475165 -0.13266409
v 0.02094443 0.04403808 -0.09312790
v 0.01750936 0.04569895 -0.09312790
v 0.01707888 0.04587261 -0.09312790
v 0.01468047 0.04682936 -0.09312790
v 0.01005059 0.04825026 -0.08985428
v 0.00972553 0.04833867 -0.08985428
v 0.00583362 0.04905229 -0.08985428
v 0.00194170 0.04941225 -0.08985428
v 0.00194170 0.04895756 -0.08597397
v 0.03845365 0.02702510 -0.12098524
v 0.03864693 0.02731875 -0.10930639
v 0.03888413 0.02765346 -0.09523868
v 0.03501858 0.03157832 -0.12299491
v 0.03771568 0.02925750 -0.09387362
v 0.03542270 0.03206141 -0.09764018
v 0.03515914 0.03237718 -0.09704612
v 0.03367442 0.03400963 -0.09703348
v 0.03172407 0.03604311 -0.09703348
v 0.03177678 0.03609048 -0.09374723
v 0.03158350 0.03590734 -0.10542608
v 0.02954530 0.03798502 -0.09703348
v 0.02735774 0.03943434 -0.10930639
v 0.02528440 0.04135098 -0.09374723
v 0.02528440 0.04124678 -0.09703348
v 0.02527562 0.04083314 -0.10930639
v 0.02278057 0.04290450 -0.09704612
v 0.02083901 0.04398439 -0.09703348
v -0.00193264 0.04895441 -0.08597397
v -0.00582455 0.04869549 -0.08597397
v -0.00970768 0.04748298 -0.08372415
v -0.01212366 0.04725879 -0.08388846
v -0.02017983 0.04358338 -0.08376206
v -0.02526655 0.04001533 -0.08373679
v -0.02737504 0.03945960 -0.08392638
v -0.03169743 0.03602101 -0.08597397
v -0.03377956 0.03414226 -0.08985428
v -0.03548393 0.03214983 -0.09314053
v -0.03524672 0.03186249 -0.10930639
v -0.03766269 0.02934276 -0.09314053
v -0.03694229 0.02962378 -0.10930639
v -0.03667873 0.02962378 -0.11713021
v -0.03890143 0.02770398 -0.09314053
v -0.03863787 0.02731560 -0.10930639
v -0.03850609 0.02710404 -0.11713021
v -0.03842702 0.02701563 -0.12098524
v -0.03809318 0.02646305 -0.14043735
v -0.03908592 0.02411698 -0.15211620
v -0.04274941 0.01985743 -0.11850791
v -0.03974482 0.02289816 -0.15211620
v -0.04030709 0.02184353 -0.15212884
v -0.04359281 0.01780500 -0.12099788
v -0.04383880 0.01715770 -0.12099788
v 0.04250370 0.01715770 -0.15214148
v 0.04179209 0.01795341 -0.15985154
v 0.04159881 0.01795341 -0.16373185
v 0.03984174 0.02165092 -0.16373185
v 0.04013166 0.02184353 -0.15595859
v 0.03966603 0.02289816 -0.15402476
v 0.03782989 0.02605573 -0.15211620
v 0.03893685 0.02385490 -0.15857496
v 0.03587954 0.02881860 -0.15211620
v 0.03614310 0.02918803 -0.14043735
v 0.03623096 0.02930170 -0.13654440
v 0.01750936 0.04568316 -0.09374723
v 0.01465412 0.04682305 -0.09374723
v 0.01273891 0.04745141 -0.09312790
v 0.01222936 0.04758717 -0.09312790
v 0.01255442 0.04738825 -0.09703348
v 0.01208879 0.04750824 -0.09703348
v 0.00973432 0.04822817 -0.09312790
v 0.00583362 0.04893546 -0.09311526
v 0.00195049 0.04916596 -0.09703348
v 0.00195049 0.04930173 -0.09312790
v 0.00911056 0.04834184 -0.09312790
v 0.00912813 0.04820291 -0.09703348
v -0.00193264 0.04941225 -0.08985428
v -0.00193264 0.04930490 -0.09312790
v 0.03655602 0.02962378 -0.12098524
v 0.03128480 0.03560422 -0.12098524
v 0.03151322 0.03583156 -0.10930639
v 0.03359535 0.03392439 -0.10153313
v 0.03366563 0.03399701 -0.09764018
v 0.03473745 0.03124361 -0.13654440
v 0.03278710 0.03330866 -0.13654440
v 0.02937838 0.03784924 -0.10542608
v 0.02728746 0.03938067 -0.11254209
v 0.02567095 0.04042265 -0.11359116
v 0.02276300 0.04289503 -0.09764018
v 0.02264001 0.04282241 -0.10153313
v 0.02250823 0.04275295 -0.10542608
v 0.02069844 0.04389598 -0.10153313
v 0.02031189 0.04423700 -0.09703348
v -0.00582455 0.04905229 -0.08985428
v -0.00970768 0.04813344 -0.08597397
v -0.01266835 0.04743562 -0.08597397
v -0.02081237 0.04394335 -0.08597397
v -0.02275394 0.04275295 -0.08597397
v -0.02761224 0.03965221 -0.08597397
v -0.02955381 0.03796291 -0.08597397
v -0.03182921 0.03615363 -0.08985428
v -0.03178529 0.03610627 -0.09311526
v -0.03172379 0.03604627 -0.09704612
v -0.03164472 0.03597996 -0.10153313
v -0.03372685 0.03408542 -0.09311526
v -0.03504466 0.03162883 -0.12098524
v -0.03352479 0.03386755 -0.10542608
v -0.03621311 0.02930170 -0.13654440
v -0.03614283 0.02918488 -0.14043735
v -0.03587048 0.02883755 -0.15211620
v -0.03782083 0.02606836 -0.15211620
v -0.03898928 0.02397173 -0.15595859
v -0.04269670 0.01974691 -0.12099788
v -0.04205537 0.01823127 -0.15212884
v -0.04237164 0.01903330 -0.13656968
v -0.04012259 0.02184353 -0.15595859
v -0.04333803 0.01726506 -0.13266409
v -0.04328532 0.01715770 -0.13498975
v 0.04216986 0.01715770 -0.15887831
v 0.04199415 0.01715770 -0.16234152
v 0.04138796 0.01795341 -0.16763744
v 0.03973632 0.02145199 -0.16763744
v 0.03975389 0.02219402 -0.15987682
v 0.03950789 0.02289816 -0.15733629
v 0.03772447 0.02590416 -0.15595859
v 0.03577412 0.02868598 -0.15595859
v 0.03878750 0.02359598 -0.16373185
v 0.03784746 0.02538632 -0.15986418
v 0.03431575 0.03076366 -0.15211620
v 0.01750936 0.04557896 -0.09703348
v 0.01707009 0.04575894 -0.09703348
v 0.01449598 0.04677253 -0.09703348
v 0.01422363 0.04669043 -0.10153313
v 0.01228207 0.04730299 -0.10153313
v 0.00973432 0.04809239 -0.09703348
v 0.00584240 0.04879337 -0.09703348
v -0.00193264 0.04917227 -0.09703348
v 0.00195049 0.04899546 -0.10153313
v -0.00193264 0.04900493 -0.10153313
v -0.00193264 0.04915018 -0.09764018
v 0.00786303 0.04712933 -0.13102096
v 0.02917631 0.03742928 -0.12098524
v 0.02929931 0.03777661 -0.10930639
v 0.03090703 0.03525056 -0.13654440
v 0.03237418 0.03286975 -0.15211620
v 0.02717325 0.03929541 -0.11713021
v 0.02523169 0.04058369 -0.11713021
v 0.02511748 0.04050791 -0.12098524
v 0.02221831 0.04260453 -0.11321198
v 0.02055788 0.04381704 -0.10542608
v 0.01750057 0.04541477 -0.10153313
v -0.00582455 0.04893862 -0.09311526
v -0.00644831 0.04882810 -0.09311526
v -0.00970768 0.04835131 -0.08985428
v -0.00526229 0.04895441 -0.09422753
v -0.01287920 0.04751140 -0.08985428
v -0.01482076 0.04687357 -0.08985428
v -0.01749151 0.04579684 -0.08985428
v -0.02102322 0.04409491 -0.08985428
v -0.02297357 0.04302766 -0.08985428
v -0.02526655 0.04149939 -0.08985428
v -0.02773524 0.03975641 -0.08985428
v -0.02967680 0.03809553 -0.08985428
v -0.02962409 0.03804817 -0.09311526
v -0.03158323 0.03590734 -0.10542608
v -0.03321730 0.03356758 -0.12098524
v -0.03500073 0.03158779 -0.12300755
v -0.03344572 0.03380124 -0.10930639
v -0.03471960 0.03124361 -0.13654440
v -0.03430668 0.03078261 -0.15211620
v -0.03577384 0.02869861 -0.15595859
v -0.03565963 0.02855021 -0.15985154
v -0.03771541 0.02591048 -0.15595859
v -0.03891900 0.02386122 -0.15863815
v -0.04179181 0.01795341 -0.15985154
v -0.04211687 0.01762818 -0.15616083
v -0.04233650 0.01715770 -0.15579428
v -0.04251221 0.01715770 -0.15212884
v -0.04304812 0.01715770 -0.14044999
v -0.03939341 0.02289816 -0.15937124
v -0.03973604 0.02219718 -0.15990210
v -0.03949883 0.02104151 -0.17541070
v 0.04177452 0.01715770 -0.16638614
v 0.04117711 0.01795341 -0.17151775
v 0.03950789 0.02104151 -0.17541070
v 0.03844487 0.02299289 -0.17541070
v 0.03855908 0.02319813 -0.17151775
v 0.03737305 0.02573366 -0.16373185
v 0.03565991 0.02853757 -0.15985154
v 0.03420154 0.03063420 -0.15595859
v 0.03665265 0.02573366 -0.17541070
v 0.03713585 0.02573366 -0.16759952
v 0.01750057 0.04556002 -0.09764018
v 0.01750057 0.04430015 -0.12877114
v 0.01361745 0.04579052 -0.12877114
v 0.01164952 0.04711039 -0.11113911
v 0.00972553 0.04791873 -0.10153313
v 0.00846044 0.04725564 -0.12487819
v 0.00583362 0.04861970 -0.10153313
v -0.00582455 0.04878074 -0.09764018
v 0.00583362 0.04749877 -0.12877114
v 0.00195049 0.04787136 -0.12877114
v -0.00193264 0.04868917 -0.10930639
v -0.00582455 0.04863549 -0.10153313
v 0.01003302 0.04677253 -0.12877114
v 0.00938290 0.04673463 -0.13244922
v 0.00972553 0.04643151 -0.13654440
v 0.00972553 0.04510849 -0.15985154
v 0.00583362 0.04576842 -0.15985154
v 0.00737105 0.04705354 -0.13361205
v 0.00598297 0.04730616 -0.13244922
v 0.02896547 0.03689882 -0.13654440
v 0.03080160 0.03513373 -0.14043735
v 0.02886004 0.03680409 -0.14043735
v 0.03225998 0.03273399 -0.15595859
v 0.03041505 0.03479903 -0.15211620
v 0.02705904 0.03921331 -0.12098524
v 0.02473092 0.04025531 -0.13266409
v 0.02161212 0.04228562 -0.12877114
v 0.01967056 0.04333393 -0.12877114
v 0.01954756 0.04327709 -0.13162765
v -0.00643074 0.04869232 -0.09704612
v -0.00971647 0.04821238 -0.09374723
v -0.01225544 0.04730299 -0.10153313
v -0.01251900 0.04738510 -0.09704612
v -0.01272106 0.04745456 -0.09314053
v -0.01435514 0.04693040 -0.09311526
v -0.01463627 0.04681673 -0.09374723
v -0.01749151 0.04557581 -0.09704612
v -0.01749151 0.04568001 -0.09374723
v -0.01749151 0.04569895 -0.09314053
v -0.02095294 0.04404755 -0.09311526
v -0.02084752 0.04398439 -0.09704612
v -0.02288572 0.04297082 -0.09374723
v -0.02526655 0.04140466 -0.09314053
v -0.02766495 0.03969957 -0.09374723
v -0.02924632 0.03824394 -0.09704612
v -0.02945717 0.03791871 -0.10153313
v -0.02937810 0.03784924 -0.10542608
v -0.03127574 0.03561369 -0.12098524
v -0.03276925 0.03331813 -0.13654440
v -0.03236512 0.03288554 -0.15211620
v -0.03225091 0.03275293 -0.15595859
v -0.03419248 0.03064683 -0.15595859
v -0.03736399 0.02573366 -0.16373185
v -0.03783840 0.02538632 -0.15990210
v -0.03406070 0.03049527 -0.15985154
v -0.03504466 0.02774818 -0.17809026
v -0.03661723 0.02573366 -0.17541070
v -0.03884872 0.02373492 -0.16122924
v -0.04212565 0.01715770 -0.15985154
v -0.04094842 0.01795341 -0.17541070
v -0.03841823 0.02299289 -0.17541070
v -0.03937584 0.02082364 -0.17929101
v 0.04154610 0.01715770 -0.17041812
v 0.04095748 0.01795341 -0.17541070
v 0.03938490 0.02081732 -0.17929101
v 0.03831309 0.02276554 -0.17929101
v 0.03622217 0.02555052 -0.18317133
v 0.03613432 0.02609678 -0.17941741
v 0.03406976 0.03048264 -0.15985154
v 0.03507129 0.02776081 -0.17819138
v 0.03212819 0.03260136 -0.15985154
v 0.01786077 0.04395282 -0.13282840
v 0.01730730 0.04398439 -0.13654440
v 0.01361745 0.04560739 -0.13266409
v 0.01112240 0.04699355 -0.11713021
v 0.00479694 0.04723037 -0.13654440
v 0.00195049 0.04768822 -0.13266409
v -0.00193264 0.04788399 -0.12877114
v -0.00582455 0.04831658 -0.10930639
v -0.00970768 0.04807028 -0.09764018
v -0.00783640 0.04712933 -0.13099568
v -0.00845138 0.04725564 -0.12487819
v -0.00917178 0.04742298 -0.11713021
v 0.01361745 0.04404123 -0.15985154
v 0.01307275 0.04369705 -0.16759952
v 0.00972553 0.04485904 -0.16373185
v 0.00583362 0.04551581 -0.16373185
v 0.00195049 0.04589472 -0.16373185
v 0.00195049 0.04614417 -0.15985154
v 0.00421711 0.04715459 -0.13926188
v 0.02847349 0.03646939 -0.15211620
v 0.02639136 0.03875231 -0.14043735
v 0.02654071 0.03884387 -0.13654440
v 0.02668127 0.03893545 -0.13266409
v 0.03027448 0.03466957 -0.15595859
v 0.02832413 0.03635255 -0.15595859
v 0.02459914 0.04016058 -0.13654440
v 0.02444979 0.04005638 -0.14043735
v 0.02106743 0.04239298 -0.13282840
v 0.02139249 0.04201407 -0.13654440
v 0.02139249 0.04091208 -0.15595859
v 0.01940700 0.04320132 -0.13423138
v -0.01164046 0.04711039 -0.11118967
v -0.01181617 0.04716091 -0.10858594
v -0.01395980 0.04661464 -0.10542608
v -0.01420579 0.04668412 -0.10153313
v -0.01446056 0.04676621 -0.09704612
v -0.01442542 0.04675674 -0.09764018
v -0.01748272 0.04527584 -0.10542608
v -0.02043461 0.04375705 -0.10930639
v -0.02056639 0.04383283 -0.10542608
v -0.02278908 0.04291714 -0.09704612
v -0.02526655 0.04099102 -0.10542608
v -0.02526655 0.04112680 -0.10153313
v -0.02526655 0.04128152 -0.09704612
v -0.02526655 0.04138572 -0.09374723
v -0.02743654 0.03950696 -0.10542608
v -0.02751560 0.03957327 -0.10153313
v -0.02914968 0.03742928 -0.12098524
v -0.03089797 0.03526635 -0.13654440
v -0.03080133 0.03515900 -0.14043735
v -0.03041477 0.03481482 -0.15211620
v -0.03211913 0.03261083 -0.15985154
v -0.03196978 0.03245611 -0.16373185
v -0.03391134 0.03031528 -0.16373185
v -0.03341936 0.02980691 -0.17541070
v -0.03356872 0.02927960 -0.17932893
v -0.03258476 0.02999953 -0.18337355
v -0.03255840 0.02931434 -0.19095723
v -0.03493923 0.02762188 -0.18066872
v -0.03619554 0.02553789 -0.18317133
v -0.03609890 0.02608415 -0.17932893
v -0.04124712 0.01715770 -0.17541070
v -0.04072000 0.01795341 -0.17929101
v -0.03821617 0.02289816 -0.17912670
v -0.03828645 0.02276870 -0.17929101
v -0.03923527 0.02056787 -0.18317133
v 0.04125618 0.01715770 -0.17541070
v 0.04071149 0.01795341 -0.17929101
v 0.03925312 0.02056787 -0.18317133
v 0.03911256 0.02030264 -0.18707691
v 0.03816374 0.02251293 -0.18317133
v 0.03607282 0.02532317 -0.18707691
v 0.03496587 0.02763767 -0.18079510
v 0.03197884 0.03244664 -0.16373185
v 0.03343721 0.02981954 -0.17541070
v 0.03359535 0.02928907 -0.17941741
v 0.03011635 0.03453379 -0.15985154
v 0.01771142 0.04246877 -0.15985154
v 0.01561172 0.04324236 -0.16205080
v -0.00193264 0.04769769 -0.13266409
v 0.00338250 0.04707881 -0.14182769
v 0.00195049 0.04747350 -0.13654440
v 0.00078204 0.04716091 -0.14325595
v -0.00582455 0.04750824 -0.12877114
v -0.00424319 0.04716406 -0.13936299
v -0.00483181 0.04723985 -0.13654440
v -0.00970768 0.04791873 -0.10153313
v -0.00936505 0.04672516 -0.13243658
v -0.01000638 0.04675989 -0.12877114
v -0.00596512 0.04731246 -0.13243658
v -0.00737078 0.04705354 -0.13361205
v -0.00582455 0.04577790 -0.15985154
v -0.00970768 0.04510534 -0.15985154
v -0.00970768 0.04555055 -0.15211620
v -0.01039294 0.04683884 -0.12487819
v -0.01111334 0.04699355 -0.11713021
v 0.01387222 0.04372863 -0.16350434
v 0.01533937 0.04314448 -0.16465453
v 0.01501432 0.04303396 -0.16759952
v 0.01218543 0.04339393 -0.17541070
v 0.01186037 0.04328658 -0.17819138
v 0.01149139 0.04318553 -0.18076983
v 0.00972553 0.04457171 -0.16759952
v 0.00795089 0.04326132 -0.18950369
v 0.00583362 0.04523163 -0.16759952
v -0.00193264 0.04590736 -0.16373185
v 0.00195049 0.04560739 -0.16759952
v -0.00193264 0.04614732 -0.15985154
v 0.02589059 0.03841761 -0.15211620
v 0.02378210 0.03961748 -0.15595859
v 0.02817478 0.03621994 -0.15985154
v 0.02358883 0.03949749 -0.15985154
v 0.02139249 0.04068474 -0.15985154
v -0.01359960 0.04579052 -0.12877114
v -0.01359960 0.04594840 -0.12487819
v -0.01748272 0.04496639 -0.11321198
v -0.01748272 0.04512428 -0.10930639
v -0.01748272 0.04432541 -0.12877114
v -0.01999534 0.04351707 -0.12098524
v -0.02223560 0.04261085 -0.11321198
v -0.02237617 0.04269295 -0.10930639
v -0.02509963 0.04050791 -0.12098524
v -0.02526655 0.04084893 -0.10930639
v -0.02726961 0.03937435 -0.11230194
v -0.02704119 0.03920699 -0.12098524
v -0.02885976 0.03681356 -0.14043735
v -0.02846442 0.03647886 -0.15211620
v -0.02832386 0.03635255 -0.15595859
v -0.03026542 0.03468221 -0.15595859
v -0.03010728 0.03454326 -0.15985154
v -0.03164472 0.03211510 -0.17151775
v -0.03118788 0.03165094 -0.18221073
v -0.03107367 0.03154042 -0.18481445
v -0.03078376 0.03125624 -0.19095723
v -0.03237391 0.02910594 -0.19485017
v -0.03450875 0.02704405 -0.19095723
v -0.03467567 0.02726508 -0.18707691
v -0.03484259 0.02748295 -0.18317133
v -0.03096825 0.03143938 -0.18707691
v -0.03589683 0.02510530 -0.19095723
v -0.04100991 0.01715770 -0.17929101
v -0.03887507 0.01990794 -0.19296690
v -0.04044765 0.01795341 -0.18317133
v -0.04068486 0.01715770 -0.18398024
v -0.03814589 0.02251293 -0.18317133
v 0.04106290 0.01715770 -0.17843153
v 0.04074663 0.01715770 -0.18317133
v 0.04044793 0.01795341 -0.18317133
v 0.03889292 0.01989847 -0.19289106
v 0.03801438 0.02224454 -0.18707691
v 0.03590590 0.02509267 -0.19095723
v 0.03486923 0.02749873 -0.18317133
v 0.03275195 0.02948800 -0.18707691
v 0.03120573 0.03165094 -0.18223600
v 0.03261139 0.02999953 -0.18337355
v 0.03109152 0.03154042 -0.18481445
v 0.02992307 0.03437592 -0.16373185
v 0.02727868 0.03548738 -0.17790067
v 0.02113771 0.04024584 -0.16759952
v 0.01750057 0.04200460 -0.16759952
v 0.01714037 0.04247507 -0.16350434
v 0.01780806 0.04002480 -0.19085611
v 0.01709645 0.04000586 -0.19485017
v -0.00084326 0.04716091 -0.14325595
v -0.00193264 0.04748298 -0.13654440
v -0.00344372 0.04708828 -0.14196672
v -0.00582455 0.04644730 -0.14823589
v -0.00582455 0.04667148 -0.14433030
v -0.00970768 0.04642203 -0.13654440
v -0.01359960 0.04560739 -0.13266409
v -0.00582455 0.04552529 -0.16373185
v -0.00970768 0.04485272 -0.16373185
v -0.01359960 0.04405702 -0.15985154
v -0.01359960 0.04428436 -0.15595859
v -0.01359960 0.04517479 -0.14043735
v 0.01412699 0.04272769 -0.17541070
v 0.01361745 0.04166990 -0.19095723
v 0.01361745 0.04134466 -0.19485017
v 0.00943561 0.04283819 -0.19085611
v 0.01001545 0.04360864 -0.17940476
v 0.00972553 0.04243719 -0.19485017
v 0.00730956 0.04316027 -0.19208213
v 0.00593904 0.04343498 -0.19085611
v 0.00471788 0.04333393 -0.19411708
v -0.00193264 0.04561686 -0.16759952
v 0.00195049 0.04411701 -0.18707691
v 0.02572367 0.03830077 -0.15595859
v 0.02553039 0.03816816 -0.15985154
v 0.02343948 0.03939961 -0.16258166
v 0.02173512 0.04022373 -0.16380769
v -0.01967906 0.04335288 -0.12877114
v -0.01733337 0.04400018 -0.13654440
v -0.01786050 0.04396861 -0.13294216
v -0.01954728 0.04328341 -0.13181725
v -0.02193690 0.04244666 -0.12098524
v -0.02162063 0.04228562 -0.12877114
v -0.02472186 0.04025531 -0.13266409
v -0.02654043 0.03884387 -0.13654440
v -0.02639108 0.03875231 -0.14043735
v -0.02589031 0.03842708 -0.15211620
v -0.02816572 0.03622309 -0.15985154
v -0.02992279 0.03439171 -0.16373185
v -0.02883341 0.03299606 -0.19095723
v -0.02863134 0.03280345 -0.19485017
v -0.03057291 0.03105100 -0.19485017
v -0.03432426 0.02681038 -0.19485017
v -0.03217184 0.02886596 -0.19874313
v -0.03573870 0.02486216 -0.19485017
v -0.03786475 0.02146147 -0.19449627
v -0.03864665 0.01939326 -0.19874313
v -0.03951640 0.01821549 -0.19449627
v -0.03951640 0.01744820 -0.19874313
v -0.03963061 0.01715770 -0.19874313
v -0.04013138 0.01715770 -0.19175351
v -0.03727614 0.02289816 -0.19095723
v -0.03783840 0.02197931 -0.19096986
v 0.04047428 0.01715770 -0.18707691
v 0.04017558 0.01795341 -0.18707691
v 0.03968360 0.01777659 -0.19485017
v 0.03954304 0.01741662 -0.19874313
v 0.03942883 0.01715770 -0.20154908
v 0.03901592 0.01715770 -0.20651638
v 0.03829552 0.01866702 -0.20651638
v 0.03651209 0.02184353 -0.20651638
v 0.03760147 0.02184353 -0.19485017
v 0.03805831 0.02156251 -0.19134904
v 0.03970117 0.01833863 -0.19134904
v 0.03573898 0.02483691 -0.19485017
v 0.03451781 0.02703773 -0.19095723
v 0.03469352 0.02726824 -0.18707691
v 0.03237418 0.02908068 -0.19485017
v 0.03256746 0.02928907 -0.19095723
v 0.03097731 0.03143307 -0.18707691
v 0.02902696 0.03316025 -0.18707691
v 0.02714690 0.03538318 -0.18049176
v 0.02326377 0.03928909 -0.16518539
v 0.02000440 0.03961748 -0.18317133
v 0.01952121 0.03937118 -0.18950369
v 0.01930157 0.03926699 -0.19208213
v 0.01903801 0.03914384 -0.19485017
v 0.01667475 0.03981641 -0.19874313
v -0.01578715 0.04332446 -0.15985154
v -0.01632306 0.04355180 -0.15211620
v -0.01684139 0.04377599 -0.14433030
v -0.01708738 0.04389283 -0.14043735
v -0.00582455 0.04523480 -0.16759952
v -0.00792425 0.04325815 -0.18946577
v -0.00838109 0.04334972 -0.18707691
v -0.00909271 0.04350445 -0.18317133
v -0.00970768 0.04455907 -0.16759952
v -0.01147354 0.04318553 -0.18074455
v -0.01183374 0.04328341 -0.17814082
v -0.01307247 0.04368758 -0.16759952
v -0.01387194 0.04372863 -0.16359282
v -0.01561144 0.04325183 -0.16220248
v 0.01556779 0.03933962 -0.20850078
v 0.01361745 0.04097523 -0.19874313
v 0.00972553 0.04207407 -0.19874313
v 0.00972553 0.04133204 -0.20651638
v 0.00583362 0.04202354 -0.20651638
v 0.00583362 0.04276242 -0.19874313
v 0.00593904 0.04307501 -0.19519144
v 0.00376906 0.04321710 -0.19670818
v -0.00193264 0.04412648 -0.18707691
v -0.00384785 0.04321710 -0.19677136
v -0.00470003 0.04333393 -0.19419292
v 0.00195049 0.04381704 -0.19095723
v 0.02480999 0.03645360 -0.18707691
v 0.02456400 0.03628940 -0.19095723
v -0.02105837 0.04240245 -0.13294216
v -0.01878296 0.04293924 -0.14433030
v -0.01940672 0.04321079 -0.13443361
v -0.02137464 0.04160358 -0.14433030
v -0.02137464 0.04203933 -0.13654440
v -0.02459008 0.04016058 -0.13654440
v -0.02444951 0.04005638 -0.14043735
v -0.02394875 0.03973430 -0.15211620
v -0.02377304 0.03961748 -0.15595859
v -0.02572339 0.03830077 -0.15595859
v -0.02552133 0.03817131 -0.15985154
v -0.02797244 0.03607153 -0.16373185
v -0.02726083 0.03548738 -0.17785012
v -0.02651407 0.03492534 -0.19095723
v -0.02712026 0.03538002 -0.18045384
v -0.02674249 0.03509268 -0.18707691
v -0.02838536 0.03259189 -0.19874313
v -0.02625930 0.03473904 -0.19485017
v -0.02787580 0.03214667 -0.20651638
v -0.03032692 0.03081103 -0.19874313
v -0.03172379 0.02837654 -0.20651638
v -0.03411341 0.02654199 -0.19874313
v -0.03504466 0.02386753 -0.20891787
v -0.03516765 0.02404120 -0.20651638
v -0.03536971 0.02431906 -0.20262343
v -0.03555421 0.02460009 -0.19874313
v -0.03673145 0.02289816 -0.19739070
v -0.03696865 0.02289816 -0.19466058
v -0.03725857 0.02184353 -0.19874313
v -0.03689837 0.02184353 -0.20263608
v -0.03829524 0.01867649 -0.20651638
v -0.03901564 0.01715770 -0.20651638
v -0.03940219 0.01715770 -0.20183978
v 0.03965725 0.01715770 -0.19845241
v 0.03878750 0.01715770 -0.20904427
v 0.03810224 0.01828180 -0.21042197
v 0.03714464 0.01968376 -0.21216621
v 0.03595861 0.02213718 -0.21028294
v 0.03575655 0.02289816 -0.20774240
v 0.03587076 0.02289816 -0.20651638
v 0.03505372 0.02386122 -0.20887996
v 0.03431575 0.02678197 -0.19485017
v 0.03216334 0.02884070 -0.19874313
v 0.03056440 0.03102574 -0.19485017
v 0.03077525 0.03123414 -0.19095723
v 0.02882490 0.03298027 -0.19095723
v 0.02698876 0.03526635 -0.18317133
v 0.02252580 0.03886913 -0.17541070
v 0.02430923 0.03611574 -0.19485017
v 0.02104986 0.03841761 -0.19085611
v 0.02139249 0.03786187 -0.19485017
v 0.02139249 0.03747033 -0.19874313
v 0.02139249 0.03706932 -0.20262343
v 0.02112893 0.03639360 -0.21039670
v 0.01861631 0.03895123 -0.19874313
v -0.01772871 0.04247824 -0.15985154
v -0.01852818 0.04282241 -0.14823589
v -0.00582455 0.04464117 -0.17541070
v -0.00729171 0.04315712 -0.19204421
v -0.00941777 0.04283819 -0.19084347
v -0.01032266 0.04294555 -0.18707691
v -0.00970768 0.04243719 -0.19485017
v -0.01359960 0.04136677 -0.19485017
v -0.01359960 0.04169516 -0.19095723
v -0.01359960 0.04200460 -0.18707691
v -0.01501404 0.04304975 -0.16759952
v -0.01534788 0.04315712 -0.16479357
v -0.01748272 0.04141413 -0.17541070
v -0.01748272 0.04203302 -0.16759952
v -0.01714009 0.04248454 -0.16359282
v 0.01711402 0.03845549 -0.21004279
v 0.01731608 0.03812079 -0.21215358
v 0.01593678 0.03873336 -0.21215358
v 0.01517245 0.03919437 -0.21111714
v 0.01377558 0.03980693 -0.21004279
v 0.01361745 0.04021426 -0.20651638
v 0.01818583 0.03875231 -0.20262343
v 0.01773778 0.03855654 -0.20651638
v 0.01324846 0.03975641 -0.21215358
v 0.01106091 0.04038161 -0.21215358
v 0.00972553 0.04093734 -0.21039670
v 0.00195049 0.04240877 -0.20651638
v 0.00583362 0.04162885 -0.21039670
v 0.00195049 0.04201723 -0.21039670
v 0.00117738 0.04329920 -0.19760557
v 0.00225798 0.04345077 -0.19519144
v -0.00193264 0.04382651 -0.19095723
v -0.00229284 0.04345392 -0.19522935
v -0.00124738 0.04329920 -0.19760557
v -0.00193264 0.04278768 -0.20262343
v -0.00193264 0.04241824 -0.20651638
v -0.00193264 0.04202986 -0.21039670
v -0.00582455 0.04202986 -0.20651638
v -0.00582455 0.04276242 -0.19874313
v -0.00592119 0.04306870 -0.19522935
v -0.00592119 0.04344129 -0.19084347
v 0.02651435 0.03491586 -0.19095723
v -0.02137464 0.04069736 -0.15985154
v -0.02137464 0.04093734 -0.15595859
v -0.02137464 0.04138256 -0.14823589
v -0.02357098 0.03949117 -0.15985154
v -0.02341284 0.03939645 -0.16256902
v -0.02457251 0.03628940 -0.19095723
v -0.02430016 0.03611574 -0.19485017
v -0.02401903 0.03591365 -0.19874313
v -0.02596938 0.03452432 -0.19874313
v -0.02759467 0.03190354 -0.21039670
v -0.02981737 0.03031844 -0.20651638
v -0.03367414 0.02598311 -0.20651638
v -0.03148659 0.02810814 -0.21039670
v -0.03368292 0.02539579 -0.21029558
v -0.03485138 0.02358335 -0.21215358
v -0.03555421 0.02289816 -0.20970152
v -0.03652060 0.02184353 -0.20651638
v -0.03660845 0.02289816 -0.19874313
v -0.03810196 0.01829127 -0.21042197
v -0.03864665 0.01715770 -0.21042197
v 0.03855908 0.01715770 -0.21133201
v 0.03806710 0.01796920 -0.21216621
v 0.03594982 0.02180249 -0.21216621
v 0.03528214 0.02289816 -0.21216621
v 0.03556327 0.02289816 -0.20966360
v 0.03490437 0.02363388 -0.21147105
v 0.03369199 0.02538632 -0.21027030
v 0.03368320 0.02597047 -0.20651638
v 0.03173285 0.02836075 -0.20651638
v 0.03031841 0.03078577 -0.19874313
v 0.02787608 0.03213720 -0.20651638
v 0.02837685 0.03256978 -0.19874313
v 0.02861405 0.03278766 -0.19485017
v 0.02164726 0.03839550 -0.18707691
v 0.02625079 0.03472009 -0.19485017
v 0.02401931 0.03591365 -0.19874313
v 0.02329012 0.03541160 -0.20817214
v 0.02175269 0.03643781 -0.20673125
v 0.02307049 0.03528214 -0.21039670
v 0.02093565 0.03629572 -0.21215358
v -0.02085630 0.04010690 -0.17151775
v -0.00970768 0.04207407 -0.19874313
v -0.01359960 0.04099734 -0.19874313
v -0.01557630 0.03934909 -0.20860189
v -0.01625277 0.03964274 -0.20262343
v -0.01668326 0.03983535 -0.19874313
v -0.01708738 0.04001533 -0.19485017
v -0.01748272 0.04048265 -0.18707691
v -0.01779900 0.04004059 -0.19089403
v -0.01951214 0.03937435 -0.18954160
v -0.01970542 0.03947538 -0.18707691
v -0.02058396 0.03995218 -0.17541070
v 0.01889745 0.03732508 -0.21215358
v 0.01500553 0.03913437 -0.21215358
v 0.00972553 0.04073842 -0.21215358
v 0.00583362 0.04143307 -0.21215358
v 0.00195049 0.04182777 -0.21215358
v -0.00193264 0.04183724 -0.21215358
v -0.00582455 0.04143939 -0.21215358
v -0.00582455 0.04162885 -0.21039670
v -0.00970768 0.04092472 -0.21039670
v -0.00970768 0.04132257 -0.20651638
v -0.02171727 0.04022373 -0.16380769
v -0.02112865 0.04025531 -0.16759952
v -0.02324592 0.03928909 -0.16516011
v -0.02279787 0.03903649 -0.17151775
v -0.02252552 0.03887545 -0.17541070
v -0.02165577 0.03839550 -0.18707691
v -0.02137464 0.03786819 -0.19485017
v -0.02348312 0.03555369 -0.20558106
v -0.02497663 0.03433487 -0.20673125
v -0.02953624 0.03005952 -0.21039670
v -0.02526655 0.03366547 -0.21039670
v -0.02746289 0.03178672 -0.21215358
v -0.03192585 0.02729665 -0.21215358
v -0.03137238 0.02797553 -0.21215358
v -0.03319973 0.02570208 -0.21215358
v -0.03526429 0.02289816 -0.21216621
v -0.03594076 0.02181512 -0.21216621
v -0.03805804 0.01797551 -0.21216621
v -0.03844459 0.01715770 -0.21216621
v 0.03846244 0.01715770 -0.21216621
v 0.02201625 0.03567052 -0.21215358
v 0.02288600 0.03516530 -0.21215358
v 0.02415987 0.03425277 -0.21215358
v 0.02543375 0.03332760 -0.21215358
v 0.02652314 0.03250980 -0.21215358
v 0.02747196 0.03178672 -0.21215358
v 0.02827142 0.03102574 -0.21215358
v 0.02943109 0.02990796 -0.21215358
v 0.03050290 0.02885333 -0.21215358
v 0.03138144 0.02797553 -0.21215358
v 0.03233904 0.02679144 -0.21215358
v 0.03320879 0.02570208 -0.21215358
v 0.03486044 0.02356756 -0.21215358
v 0.03515036 0.02310972 -0.21215358
v 0.03149565 0.02810183 -0.21039670
v 0.02981765 0.03030266 -0.20651638
v 0.02760373 0.03189722 -0.21039670
v 0.02596087 0.03450538 -0.19874313
v 0.02527562 0.03366547 -0.21039670
v 0.02498570 0.03432539 -0.20673125
v -0.01359960 0.04023636 -0.20651638
v -0.01376652 0.03981009 -0.21009334
v -0.01500525 0.03914700 -0.21215358
v -0.01729823 0.03814605 -0.21215358
v -0.01712252 0.03846496 -0.21009334
v -0.01776386 0.03855969 -0.20651638
v -0.01862482 0.03896071 -0.19874313
v -0.01902895 0.03915332 -0.19485017
v -0.01929251 0.03926699 -0.19213269
v -0.02104079 0.03841761 -0.19089403
v -0.00970768 0.04072894 -0.21215358
v -0.01324818 0.03975009 -0.21215358
v -0.02137464 0.03747981 -0.19874313
v -0.02327228 0.03541160 -0.20814687
v -0.02941324 0.02991112 -0.21215358
v -0.02541590 0.03332760 -0.21215358
v -0.02286815 0.03516530 -0.21215358
v -0.02092659 0.03629888 -0.21215358
v 0.02955408 0.03005005 -0.21039670
v -0.02110229 0.03640307 -0.21039670
v -0.02137464 0.03707879 -0.20262343
v -0.02173484 0.03644412 -0.20673125
v -0.02304386 0.03528214 -0.21039670
f 1 2 17
f 1 17 42
f 1 42 97
f 1 97 158
f 1 158 223
f 1 223 284
f 1 284 283
f 1 283 282
f 1 282 356
f 1 356 430
f 1 430 509
f 1 509 512
f 1 512 582
f 1 582 581
f 1 581 670
f 1 670 669
f 1 669 754
f 1 754 815
f 1 815 816
f 1 816 755
f 1 755 672
f 1 672 590
f 1 590 589
f 1 589 671
f 1 671 585
f 1 585 515
f 1 515 514
f 1 514 435
f 1 435 360
f 1 360 288
f 1 288 225
f 1 225 224
f 1 224 159
f 1 159 99
f 1 99 98
f 1 98 43
f 1 43 18
f 1 18 3
f 1 3 4
f 1 4 5
f 1 5 6
f 1 6 7
f 1 7 8
f 1 8 9
f 1 9 10
f 1 10 2
f 2 10 11
f 2 11 12
f 2 12 13
f 2 13 14
f 2 14 15
f 2 15 16
f 2 16 17
f 3 18 4
f 4 18 19
f 4 19 20
f 4 20 21
f 4 21 22
f 4 22 23
f 4 23 5
f 5 24 6
f 5 23 24
f 6 25 26
f 6 26 10
f 6 10 7
f 6 24 25
f 7 10 9
f 7 9 8
f 10 26 27
f 10 27 28
f 10 28 29
f 10 29 30
f 10 30 31
f 10 31 11
f 11 31 12
f 12 31 32
f 12 32 33
f 12 33 13
f 13 33 34
f 13 34 35
f 13 35 14
f 14 35 36
f 14 36 15
f 15 36 37
f 15 37 38
f 15 38 39
f 15 39 40
f 15 40 16
f 16 40 41
f 16 41 17
f 17 41 42
f 18 43 19
f 19 43 44
f 19 44 45
f 19 45 46
f 19 46 20
f 20 46 47
f 20 47 48
f 20 48 49
f 20 49 50
f 20 50 21
f 21 50 51
f 21 51 22
f 22 51 23
f 23 52 53
f 23 53 54
f 23 54 55
f 23 55 24
f 23 51 56
f 23 56 57
f 23 57 58
f 23 58 59
f 23 59 60
f 23 60 61
f 23 61 62
f 23 62 63
f 23 63 64
f 23 64 65
f 23 65 66
f 23 66 67
f 23 67 68
f 23 68 69
f 23 69 70
f 23 70 71
f 23 71 72
f 23 72 73
f 23 73 52
f 24 55 74
f 24 74 25
f 25 74 75
f 25 75 26
f 26 75 27
f 27 75 76
f 27 76 28
f 28 76 77
f 28 77 78
f 28 78 29
f 29 78 79
f 29 79 80
f 29 80 81
f 29 81 30
f 30 81 82
f 30 82 32
f 30 32 31
f 32 82 83
f 32 83 34
f 32 34 33
f 34 36 35
f 34 83 84
f 34 84 85
f 34 85 36
f 36 86 37
f 36 85 86
f 37 85 87
f 37 87 88
f 37 88 89
f 37 89 90
f 37 90 38
f 37 86 85
f 38 91 39
f 38 90 92
f 38 92 91
f 39 91 93
f 39 93 94
f 39 94 40
f 40 94 41
f 41 94 95
f 41 95 96
f 41 96 97
f 41 97 42
f 43 98 44
f 44 98 99
f 44 99 100
f 44 100 45
f 45 47 46
f 45 100 101
f 45 101 47
f 47 102 48
f 47 101 103
f 47 103 102
f 48 102 49
f 49 102 104
f 49 104 50
f 50 104 105
f 50 105 106
f 50 106 56
f 50 56 51
f 52 73 107
f 52 107 108
f 52 108 109
f 52 109 110
f 52 110 111
f 52 111 112
f 52 112 53
f 53 112 113
f 53 113 54
f 54 113 114
f 54 114 115
f 54 115 74
f 54 74 55
f 56 106 116
f 56 116 57
f 57 116 117
f 57 117 58
f 58 117 118
f 58 118 59
f 59 118 119
f 59 119 120
f 59 120 60
f 60 120 121
f 60 121 61
f 61 122 62
f 61 121 122
f 62 122 123
f 62 123 63
f 63 123 64
f 64 123 124
f 64 124 125
f 64 125 65
f 65 125 66
f 66 125 124
f 66 124 67
f 67 124 126
f 67 126 127
f 67 127 128
f 67 128 68
f 68 128 69
f 69 128 70
f 70 128 129
f 70 129 71
f 71 129 130
f 71 130 72
f 72 130 131
f 72 131 132
f 72 132 133
f 72 133 73
f 73 133 107
f 74 115 75
f 75 115 134
f 75 134 76
f 76 134 77
f 77 134 135
f 77 135 136
f 77 136 78
f 78 136 79
f 79 136 137
f 79 137 138
f 79 138 80
f 80 138 139
f 80 139 81
f 81 139 82
f 82 139 140
f 82 140 83
f 83 140 141
f 83 141 84
f 84 141 142
f 84 142 85
f 85 142 87
f 87 142 143
f 87 143 88
f 88 143 144
f 88 144 145
f 88 145 89
f 89 145 144
f 89 144 146
f 89 146 147
f 89 147 148
f 89 148 90
f 90 148 149
f 90 149 150
f 90 150 92
f 91 92 93
f 92 150 151
f 92 151 152
f 92 152 93
f 93 152 153
f 93 153 94
f 94 153 95
f 95 154 96
f 95 153 155
f 95 155 156
f 95 156 154
f 96 154 157
f 96 157 97
f 97 157 158
f 99 159 100
f 100 159 160
f 100 160 161
f 100 161 162
f 100 162 163
f 100 163 101
f 101 163 164
f 101 164 103
f 102 165 104
f 102 103 164
f 102 164 166
f 102 166 165
f 104 165 167
f 104 167 168
f 104 168 169
f 104 169 105
f 105 169 116
f 105 116 106
f 107 133 170
f 107 170 108
f 108 170 109
f 109 170 171
f 109 171 110
f 110 171 172
f 110 172 111
f 111 172 112
f 112 172 173
f 112 173 174
f 112 174 175
f 112 175 176
f 112 176 113
f 113 177 178
f 113 178 179
f 113 179 114
f 113 176 180
f 113 180 181
f 113 181 177
f 114 182 115
f 114 179 183
f 114 183 182
f 115 182 134
f 116 169 184
f 116 184 117
f 117 184 118
f 118 184 119
f 119 185 186
f 119 186 187
f 119 187 188
f 119 188 122
f 119 122 121
f 119 121 120
f 119 184 169
f 119 169 189
f 119 189 190
f 119 190 185
f 122 188 123
f 123 188 126
f 123 126 124
f 126 186 191
f 126 191 127
f 126 188 187
f 126 187 186
f 127 191 128
f 128 191 192
f 128 192 129
f 129 192 130
f 130 192 131
f 131 192 193
f 131 193 132
f 132 193 194
f 132 194 133
f 133 194 195
f 133 195 196
f 133 196 197
f 133 197 198
f 133 198 170
f 134 182 135
f 135 182 199
f 135 199 200
f 135 200 137
f 135 137 136
f 137 200 201
f 137 201 202
f 137 202 138
f 138 202 140
f 138 140 139
f 140 202 203
f 140 203 204
f 140 204 205
f 140 205 141
f 141 205 206
f 141 206 142
f 142 206 207
f 142 207 208
f 142 208 209
f 142 209 210
f 142 210 144
f 142 144 143
f 144 211 146
f 144 210 212
f 144 212 211
f 146 211 147
f 147 149 148
f 147 211 213
f 147 213 149
f 149 213 150
f 150 213 151
f 151 213 152
f 152 213 214
f 152 214 215
f 152 215 216
f 152 216 153
f 153 216 217
f 153 217 155
f 154 218 157
f 154 156 218
f 155 217 156
f 156 219 220
f 156 220 218
f 156 217 221
f 156 221 219
f 157 218 220
f 157 220 222
f 157 222 158
f 158 222 223
f 159 224 160
f 160 224 161
f 161 224 225
f 161 225 226
f 161 226 227
f 161 227 162
f 162 166 228
f 162 228 163
f 162 227 166
f 163 229 164
f 163 228 229
f 164 229 166
f 165 166 230
f 165 230 231
f 165 231 167
f 166 229 228
f 166 227 232
f 166 232 233
f 166 233 230
f 167 231 234
f 167 234 189
f 167 189 168
f 168 189 169
f 170 198 235
f 170 235 236
f 170 236 171
f 171 236 237
f 171 237 172
f 172 237 174
f 172 174 173
f 174 237 238
f 174 238 239
f 174 239 175
f 175 240 176
f 175 239 240
f 176 240 181
f 176 181 180
f 177 181 241
f 177 241 178
f 178 242 179
f 178 241 243
f 178 243 244
f 178 244 245
f 178 245 242
f 179 242 183
f 181 240 246
f 181 246 241
f 182 183 199
f 183 242 199
f 185 247 248
f 185 248 186
f 185 190 249
f 185 249 247
f 186 248 191
f 189 234 250
f 189 250 190
f 190 250 249
f 191 248 192
f 192 248 247
f 192 247 251
f 192 251 193
f 193 251 252
f 193 252 194
f 194 252 253
f 194 253 195
f 195 253 196
f 196 253 254
f 196 254 197
f 197 254 255
f 197 255 256
f 197 256 235
f 197 235 198
f 199 257 258
f 199 258 259
f 199 259 200
f 199 242 260
f 199 260 257
f 200 259 201
f 201 259 261
f 201 261 262
f 201 262 263
f 201 263 202
f 202 263 264
f 202 264 265
f 202 265 203
f 203 265 204
f 204 265 266
f 204 266 267
f 204 267 268
f 204 268 205
f 205 268 206
f 206 268 207
f 207 269 208
f 207 268 269
f 208 269 209
f 209 270 212
f 209 212 210
f 209 269 270
f 211 271 272
f 211 272 213
f 211 212 273
f 211 273 271
f 212 270 273
f 213 274 214
f 213 272 274
f 214 274 215
f 215 274 275
f 215 275 276
f 215 276 216
f 216 276 277
f 216 277 278
f 216 278 279
f 216 279 217
f 217 279 221
f 219 221 280
f 219 280 281
f 219 281 282
f 219 282 283
f 219 283 284
f 219 284 220
f 220 284 222
f 221 279 285
f 221 285 286
f 221 286 287
f 221 287 280
f 222 284 223
f 225 288 226
f 226 289 290
f 226 290 227
f 226 288 289
f 227 290 291
f 227 291 292
f 227 292 232
f 230 233 293
f 230 293 294
f 230 294 231
f 231 294 295
f 231 295 234
f 232 292 296
f 232 296 233
f 233 296 297
f 233 297 293
f 234 295 250
f 235 256 298
f 235 298 236
f 236 298 256
f 236 256 237
f 237 256 299
f 237 299 238
f 238 299 300
f 238 300 239
f 239 300 301
f 239 301 240
f 240 301 302
f 240 302 303
f 240 303 246
f 241 246 304
f 241 304 243
f 242 245 305
f 242 305 260
f 243 304 306
f 243 306 307
f 243 307 308
f 243 308 244
f 244 308 309
f 244 309 305
f 244 305 245
f 246 303 310
f 246 310 311
f 246 311 312
f 246 312 313
f 246 313 314
f 246 314 315
f 246 315 316
f 246 316 306
f 246 306 304
f 247 249 317
f 247 317 251
f 249 250 318
f 249 318 319
f 249 319 317
f 250 295 320
f 250 320 321
f 250 321 318
f 251 317 322
f 251 322 253
f 251 253 252
f 253 322 323
f 253 323 254
f 254 323 324
f 254 324 325
f 254 325 255
f 255 325 256
f 256 325 326
f 256 326 299
f 257 260 305
f 257 305 258
f 258 305 327
f 258 327 328
f 258 328 259
f 259 328 329
f 259 329 330
f 259 330 331
f 259 331 261
f 261 332 262
f 261 331 332
f 262 332 333
f 262 333 334
f 262 334 335
f 262 335 336
f 262 336 263
f 263 337 264
f 263 336 338
f 263 338 337
f 264 337 265
f 265 337 339
f 265 339 340
f 265 340 266
f 266 340 341
f 266 341 267
f 267 341 269
f 267 269 268
f 269 341 342
f 269 342 343
f 269 343 270
f 270 343 344
f 270 344 345
f 270 345 273
f 271 345 346
f 271 346 272
f 271 273 345
f 272 346 274
f 274 346 347
f 274 347 275
f 275 347 348
f 275 348 349
f 275 349 276
f 276 349 277
f 277 350 351
f 277 351 278
f 277 349 352
f 277 352 353
f 277 353 354
f 277 354 350
f 278 351 279
f 279 351 355
f 279 355 285
f 280 356 282
f 280 282 281
f 280 287 357
f 280 357 356
f 285 355 286
f 286 355 287
f 287 358 359
f 287 359 357
f 287 355 358
f 288 360 361
f 288 361 289
f 289 361 290
f 290 361 362
f 290 362 291
f 291 362 363
f 291 363 364
f 291 364 365
f 291 365 296
f 291 296 292
f 293 297 294
f 294 366 295
f 294 297 367
f 294 367 366
f 295 366 368
f 295 368 320
f 296 365 367
f 296 367 297
f 299 326 369
f 299 369 370
f 299 370 371
f 299 371 300
f 300 371 310
f 300 310 372
f 300 372 301
f 301 372 302
f 302 372 310
f 302 310 303
f 305 309 327
f 306 316 373
f 306 373 374
f 306 374 307
f 307 375 308
f 307 374 375
f 308 376 309
f 308 375 376
f 309 377 327
f 309 376 378
f 309 378 379
f 309 379 380
f 309 380 377
f 310 371 312
f 310 312 311
f 312 371 313
f 313 381 382
f 313 382 383
f 313 383 314
f 313 371 381
f 314 383 384
f 314 384 385
f 314 385 386
f 314 386 387
f 314 387 316
f 314 316 315
f 316 387 373
f 317 319 322
f 318 321 388
f 318 388 319
f 319 388 389
f 319 389 390
f 319 390 391
f 319 391 322
f 320 368 321
f 321 368 392
f 321 392 393
f 321 393 388
f 322 391 323
f 323 391 394
f 323 394 324
f 324 394 395
f 324 395 396
f 324 396 326
f 324 326 325
f 326 396 397
f 326 397 398
f 326 398 399
f 326 399 369
f 327 377 328
f 328 377 400
f 328 400 401
f 328 401 329
f 329 401 402
f 329 402 403
f 329 403 330
f 330 404 331
f 330 403 405
f 330 405 404
f 331 404 332
f 332 404 333
f 333 404 406
f 333 406 334
f 334 338 335
f 334 406 407
f 334 407 408
f 334 408 338
f 335 338 336
f 337 338 339
f 338 408 409
f 338 409 339
f 339 409 410
f 339 410 411
f 339 411 412
f 339 412 413
f 339 413 340
f 340 413 414
f 340 414 415
f 340 415 341
f 341 415 343
f 341 343 342
f 343 415 414
f 343 414 344
f 344 414 416
f 344 416 345
f 345 416 417
f 345 417 346
f 346 417 418
f 346 418 347
f 347 419 348
f 347 418 419
f 348 420 349
f 348 419 420
f 349 420 352
f 350 355 351
f 350 354 355
f 352 420 421
f 352 421 422
f 352 422 353
f 353 423 424
f 353 424 425
f 353 425 426
f 353 426 427
f 353 427 428
f 353 428 429
f 353 429 354
f 353 422 423
f 354 429 428
f 354 428 358
f 354 358 355
f 356 357 430
f 357 359 431
f 357 431 430
f 358 428 432
f 358 432 433
f 358 433 359
f 359 433 513
f 359 513 434
f 359 434 431
f 360 435 361
f 361 435 436
f 361 436 362
f 362 436 437
f 362 437 363
f 363 437 438
f 363 438 439
f 363 439 440
f 363 440 364
f 364 440 441
f 364 441 365
f 365 441 367
f 366 442 368
f 366 367 443
f 366 443 442
f 367 441 444
f 367 444 443
f 368 442 445
f 368 445 392
f 369 399 370
f 370 399 446
f 370 446 447
f 370 447 371
f 371 447 381
f 373 387 374
f 374 448 375
f 374 387 449
f 374 449 450
f 374 450 451
f 374 451 448
f 375 452 376
f 375 448 453
f 375 453 454
f 375 454 452
f 376 452 378
f 377 380 455
f 377 455 400
f 378 456 457
f 378 457 379
f 378 452 458
f 378 458 459
f 378 459 460
f 378 460 461
f 378 461 462
f 378 462 456
f 379 463 380
f 379 457 463
f 380 463 464
f 380 464 455
f 381 447 465
f 381 465 382
f 382 465 466
f 382 466 467
f 382 467 468
f 382 468 383
f 383 468 469
f 383 469 470
f 383 470 471
f 383 471 472
f 383 472 473
f 383 473 384
f 384 473 385
f 385 474 386
f 385 473 475
f 385 475 474
f 386 474 476
f 386 476 451
f 386 451 450
f 386 450 449
f 386 449 387
f 388 393 389
f 389 393 477
f 389 477 478
f 389 478 395
f 389 395 394
f 389 394 390
f 390 394 391
f 392 445 479
f 392 479 393
f 393 479 477
f 395 397 396
f 395 478 397
f 397 478 398
f 398 478 480
f 398 480 481
f 398 481 399
f 399 481 446
f 400 464 482
f 400 482 483
f 400 483 401
f 400 455 464
f 401 483 402
f 402 483 482
f 402 482 403
f 403 484 485
f 403 485 405
f 403 482 486
f 403 486 484
f 404 405 406
f 405 485 406
f 406 485 487
f 406 487 407
f 407 487 488
f 407 488 489
f 407 489 408
f 408 489 409
f 409 489 490
f 409 490 491
f 409 491 410
f 410 491 492
f 410 492 414
f 410 414 411
f 411 414 412
f 412 414 413
f 414 492 416
f 416 492 493
f 416 493 494
f 416 494 417
f 417 494 418
f 418 494 495
f 418 495 419
f 419 495 496
f 419 496 497
f 419 497 420
f 420 497 498
f 420 498 421
f 421 498 499
f 421 499 422
f 422 499 423
f 423 499 500
f 423 500 501
f 423 501 425
f 423 425 424
f 425 501 426
f 426 502 503
f 426 503 504
f 426 504 505
f 426 505 506
f 426 506 427
f 426 501 507
f 426 507 502
f 427 506 508
f 427 508 428
f 428 508 432
f 430 431 509
f 431 434 510
f 431 510 511
f 431 511 512
f 431 512 509
f 432 508 433
f 433 508 513
f 434 513 510
f 435 514 436
f 436 514 515
f 436 515 516
f 436 516 438
f 436 438 437
f 438 516 517
f 438 517 439
f 439 517 518
f 439 518 519
f 439 519 440
f 440 520 441
f 440 519 520
f 441 520 521
f 441 521 444
f 442 443 522
f 442 522 445
f 443 444 522
f 444 521 523
f 444 523 524
f 444 524 522
f 445 522 524
f 445 524 525
f 445 525 526
f 445 526 479
f 446 481 527
f 446 527 528
f 446 528 529
f 446 529 447
f 447 529 528
f 447 528 530
f 447 530 531
f 447 531 466
f 447 466 465
f 448 451 532
f 448 532 533
f 448 533 534
f 448 534 453
f 451 476 532
f 452 454 458
f 453 534 460
f 453 460 535
f 453 535 536
f 453 536 454
f 454 536 458
f 456 462 537
f 456 537 457
f 457 537 538
f 457 538 463
f 458 536 459
f 459 536 535
f 459 535 460
f 460 476 474
f 460 474 539
f 460 539 540
f 460 540 461
f 460 534 476
f 461 540 541
f 461 541 542
f 461 542 462
f 462 543 537
f 462 542 543
f 463 538 482
f 463 482 464
f 466 531 467
f 467 544 468
f 467 531 545
f 467 545 544
f 468 544 469
f 469 544 545
f 469 545 546
f 469 546 470
f 470 547 548
f 470 548 471
f 470 546 549
f 470 549 547
f 471 548 472
f 472 548 547
f 472 547 549
f 472 549 550
f 472 550 473
f 473 550 551
f 473 551 552
f 473 552 475
f 474 475 553
f 474 553 614
f 474 614 539
f 475 552 554
f 475 554 632
f 475 632 553
f 476 534 532
f 477 479 555
f 477 555 478
f 478 555 480
f 479 556 555
f 479 526 556
f 480 556 557
f 480 557 481
f 480 555 556
f 481 557 558
f 481 558 527
f 482 538 486
f 484 486 559
f 484 559 485
f 485 559 487
f 486 538 560
f 486 560 561
f 486 561 562
f 486 562 559
f 487 563 488
f 487 559 564
f 487 564 563
f 488 563 565
f 488 565 489
f 489 565 490
f 490 493 491
f 490 565 493
f 491 493 492
f 493 565 566
f 493 566 494
f 494 567 495
f 494 566 567
f 495 568 496
f 495 567 568
f 496 569 497
f 496 568 569
f 497 569 498
f 498 569 570
f 498 570 501
f 498 501 500
f 498 500 499
f 501 570 507
f 502 571 572
f 502 572 573
f 502 573 503
f 502 507 571
f 503 574 504
f 503 573 575
f 503 575 574
f 504 574 576
f 504 576 508
f 504 508 505
f 505 508 506
f 507 570 571
f 508 576 513
f 510 577 578
f 510 578 579
f 510 579 511
f 510 513 577
f 511 579 580
f 511 580 581
f 511 581 582
f 511 582 512
f 513 576 583
f 513 583 584
f 513 584 577
f 515 585 586
f 515 586 516
f 516 586 517
f 517 587 588
f 517 588 589
f 517 589 590
f 517 590 591
f 517 591 592
f 517 592 593
f 517 593 594
f 517 594 518
f 517 586 595
f 517 595 587
f 518 594 593
f 518 593 596
f 518 596 519
f 519 596 597
f 519 597 598
f 519 598 520
f 520 598 599
f 520 599 600
f 520 600 521
f 521 601 524
f 521 524 523
f 521 600 601
f 524 601 602
f 524 602 603
f 524 603 525
f 525 603 526
f 526 603 556
f 527 558 604
f 527 604 605
f 527 605 528
f 528 605 606
f 528 606 607
f 528 607 530
f 530 607 531
f 531 608 609
f 531 609 546
f 531 546 545
f 531 607 608
f 532 534 533
f 537 543 538
f 538 543 610
f 538 610 611
f 538 611 612
f 538 612 613
f 538 613 560
f 539 614 615
f 539 615 540
f 540 615 616
f 540 616 617
f 540 617 618
f 540 618 619
f 540 619 620
f 540 620 621
f 540 621 541
f 541 621 622
f 541 622 623
f 541 623 542
f 542 623 543
f 543 623 610
f 546 609 624
f 546 624 625
f 546 625 626
f 546 626 549
f 549 626 550
f 550 626 627
f 550 627 628
f 550 628 629
f 550 629 630
f 550 630 552
f 550 552 551
f 552 630 629
f 552 629 631
f 552 631 554
f 553 632 633
f 553 633 634
f 553 634 614
f 554 631 635
f 554 635 724
f 554 724 632
f 556 603 557
f 557 604 558
f 557 603 636
f 557 636 637
f 557 637 604
f 559 562 638
f 559 638 564
f 560 613 639
f 560 639 561
f 561 640 562
f 561 639 640
f 562 640 641
f 562 641 642
f 562 642 638
f 563 564 643
f 563 643 565
f 564 638 642
f 564 642 644
f 564 644 643
f 565 643 566
f 566 643 567
f 567 643 644
f 567 644 645
f 567 645 568
f 568 645 646
f 568 646 647
f 568 647 569
f 569 647 648
f 569 648 649
f 569 649 570
f 570 649 650
f 570 650 571
f 571 651 572
f 571 650 652
f 571 652 653
f 571 653 651
f 572 654 573
f 572 651 655
f 572 655 654
f 573 654 656
f 573 656 657
f 573 657 658
f 573 658 575
f 574 575 658
f 574 658 659
f 574 659 660
f 574 660 661
f 574 661 662
f 574 662 663
f 574 663 576
f 576 663 664
f 576 664 665
f 576 665 583
f 577 584 583
f 577 583 665
f 577 665 664
f 577 664 666
f 577 666 578
f 578 666 667
f 578 667 668
f 578 668 669
f 578 669 670
f 578 670 579
f 579 670 580
f 580 670 581
f 585 671 588
f 585 588 586
f 586 588 587
f 586 587 595
f 588 671 589
f 590 672 591
f 591 672 673
f 591 673 674
f 591 674 592
f 592 674 675
f 592 675 676
f 592 676 593
f 593 676 677
f 593 677 596
f 596 677 678
f 596 678 597
f 597 678 679
f 597 679 680
f 597 680 599
f 597 599 598
f 599 681 682
f 599 682 601
f 599 601 600
f 599 680 681
f 601 682 683
f 601 683 602
f 602 683 603
f 603 683 684
f 603 684 636
f 604 685 605
f 604 637 686
f 604 686 685
f 605 685 606
f 606 685 687
f 606 687 607
f 607 688 608
f 607 687 688
f 608 688 689
f 608 689 690
f 608 690 691
f 608 691 692
f 608 692 609
f 609 692 624
f 610 623 693
f 610 693 694
f 610 694 611
f 611 694 639
f 611 639 612
f 612 639 613
f 614 634 695
f 614 695 696
f 614 696 615
f 615 697 698
f 615 698 616
f 615 696 699
f 615 699 697
f 616 698 617
f 617 698 619
f 617 619 618
f 619 698 699
f 619 699 700
f 619 700 701
f 619 701 620
f 620 701 702
f 620 702 703
f 620 703 704
f 620 704 621
f 621 704 622
f 622 704 623
f 623 704 705
f 623 705 706
f 623 706 707
f 623 707 693
f 624 708 709
f 624 709 710
f 624 710 711
f 624 711 712
f 624 712 713
f 624 713 625
f 624 692 714
f 624 714 715
f 624 715 708
f 625 713 627
f 625 627 626
f 627 713 716
f 627 716 717
f 627 717 718
f 627 718 720
f 627 720 628
f 628 719 631
f 628 631 629
f 628 720 721
f 628 721 719
f 631 719 722
f 631 722 723
f 631 723 635
f 632 724 633
f 633 725 726
f 633 726 727
f 633 727 728
f 633 728 729
f 633 729 730
f 633 730 731
f 633 731 634
f 633 724 725
f 634 731 732
f 634 732 696
f 634 696 733
f 634 733 695
f 635 723 722
f 635 722 724
f 636 684 637
f 637 734 686
f 637 684 734
f 639 694 735
f 639 735 736
f 639 736 640
f 640 736 737
f 640 737 641
f 641 737 646
f 641 646 642
f 642 646 645
f 642 645 644
f 646 736 738
f 646 738 647
f 646 737 736
f 647 738 648
f 648 738 739
f 648 739 740
f 648 740 652
f 648 652 650
f 648 650 649
f 651 740 741
f 651 741 655
f 651 653 740
f 652 740 653
f 654 655 656
f 655 741 742
f 655 742 743
f 655 743 656
f 656 744 745
f 656 745 657
f 656 743 744
f 657 745 658
f 658 746 659
f 658 745 747
f 658 747 746
f 659 746 660
f 660 748 749
f 660 749 750
f 660 750 751
f 660 751 667
f 660 667 662
f 660 662 661
f 660 746 748
f 662 667 752
f 662 752 663
f 663 752 664
f 664 752 666
f 666 752 667
f 667 751 668
f 668 751 753
f 668 753 754
f 668 754 669
f 672 755 673
f 673 755 756
f 673 756 674
f 674 756 816
f 674 816 815
f 674 815 814
f 674 814 813
f 674 813 812
f 674 812 758
f 674 758 757
f 674 757 675
f 675 757 758
f 675 758 759
f 675 759 676
f 676 759 678
f 676 678 677
f 678 759 760
f 678 760 761
f 678 761 762
f 678 762 679
f 679 762 763
f 679 763 680
f 680 763 681
f 681 763 764
f 681 764 765
f 681 765 766
f 681 766 767
f 681 767 682
f 682 767 683
f 683 767 684
f 684 767 734
f 685 768 687
f 685 686 768
f 686 769 770
f 686 770 688
f 686 688 768
f 686 734 769
f 687 768 688
f 688 770 771
f 688 771 689
f 689 771 690
f 690 771 772
f 690 772 691
f 691 715 714
f 691 714 692
f 691 772 771
f 691 771 773
f 691 773 774
f 691 774 715
f 693 707 706
f 693 706 775
f 693 775 735
f 693 735 694
f 695 733 696
f 696 732 731
f 696 731 730
f 696 730 776
f 696 776 699
f 697 699 698
f 699 776 700
f 700 776 777
f 700 777 778
f 700 778 779
f 700 779 780
f 700 780 781
f 700 781 701
f 701 781 704
f 701 704 702
f 702 704 703
f 704 781 782
f 704 782 705
f 705 782 783
f 705 783 784
f 705 784 706
f 706 784 785
f 706 785 786
f 706 786 775
f 708 715 709
f 709 787 758
f 709 758 710
f 709 715 787
f 710 788 711
f 710 758 788
f 711 788 716
f 711 716 712
f 712 716 713
f 715 774 787
f 716 758 717
f 716 788 758
f 717 758 789
f 717 789 718
f 718 789 790
f 718 790 720
f 719 728 722
f 719 721 729
f 719 729 728
f 720 790 791
f 720 791 721
f 721 791 729
f 722 726 724
f 722 728 726
f 724 726 725
f 726 728 727
f 729 791 792
f 729 792 793
f 729 793 794
f 729 794 730
f 730 794 795
f 730 795 796
f 730 796 776
f 734 767 769
f 735 797 739
f 735 739 738
f 735 738 736
f 735 775 798
f 735 798 797
f 739 797 775
f 739 775 799
f 739 799 740
f 740 799 800
f 740 800 801
f 740 801 802
f 740 802 741
f 741 803 742
f 741 802 803
f 742 804 743
f 742 803 804
f 743 804 805
f 743 805 744
f 744 806 745
f 744 805 807
f 744 807 808
f 744 808 806
f 745 806 747
f 746 747 809
f 746 809 748
f 747 806 810
f 747 810 809
f 748 809 811
f 748 811 749
f 749 811 812
f 749 812 813
f 749 813 750
f 750 813 751
f 751 813 753
f 753 813 814
f 753 814 754
f 754 814 815
f 755 816 756
f 758 812 792
f 758 792 791
f 758 791 790
f 758 790 789
f 758 787 774
f 758 774 817
f 758 817 818
f 758 818 819
f 758 819 820
f 758 820 821
f 758 821 822
f 758 822 823
f 758 823 824
f 758 824 825
f 758 825 826
f 758 826 827
f 758 827 828
f 758 828 829
f 758 829 830
f 758 830 760
f 758 760 759
f 760 830 829
f 760 829 828
f 760 828 761
f 761 828 827
f 761 827 762
f 762 827 831
f 762 831 763
f 763 832 764
f 763 831 832
f 764 832 765
f 765 832 833
f 765 833 834
f 765 834 769
f 765 769 766
f 766 769 767
f 769 834 770
f 770 834 771
f 771 835 820
f 771 820 773
f 771 834 836
f 771 836 835
f 773 820 819
f 773 819 818
f 773 818 817
f 773 817 774
f 775 786 799
f 775 797 798
f 776 796 777
f 777 796 837
f 777 837 778
f 778 838 839
f 778 839 840
f 778 840 841
f 778 841 842
f 778 842 843
f 778 843 779
f 778 837 838
f 779 843 780
f 780 843 844
f 780 844 781
f 781 844 783
f 781 783 782
f 783 844 845
f 783 845 784
f 784 845 846
f 784 846 785
f 785 846 802
f 785 802 786
f 786 801 800
f 786 800 799
f 786 802 801
f 792 812 793
f 793 812 847
f 793 847 795
f 793 795 794
f 795 837 796
f 795 847 848
f 795 848 837
f 802 846 803
f 803 844 849
f 803 849 804
f 803 846 845
f 803 845 844
f 804 849 850
f 804 850 805
f 805 850 807
f 806 808 851
f 806 851 810
f 807 852 808
f 807 850 852
f 808 852 812
f 808 812 851
f 809 810 812
f 809 812 811
f 810 851 812
f 812 852 853
f 812 853 854
f 812 854 840
f 812 840 839
f 812 839 848
f 812 848 847
f 820 835 821
f 821 835 836
f 821 836 833
f 821 833 822
f 822 833 855
f 822 855 823
f 823 855 824
f 824 855 825
f 825 855 826
f 826 855 831
f 826 831 827
f 831 855 832
f 832 855 833
f 833 836 834
f 837 848 838
f 838 848 839
f 840 854 842
f 840 842 841
f 842 854 856
f 842 856 843
f 843 856 857
f 843 857 844
f 844 857 849
f 849 857 850
f 850 857 858
f 850 858 856
f 850 856 859
f 850 859 852
f 852 859 853
f 853 859 854
f 854 859 856
f 856 858 857

