# https://github.com/mikedh/trimesh
v 0.04438757 -0.00858768 -0.10023683
v 0.04414425 -0.00928002 -0.10023683
v 0.04397046 -0.00928002 -0.10541966
v 0.04434412 -0.00858768 -0.10152980
v -0.04438794 -0.00858768 -0.10023683
v 0.04378797 -0.01024816 -0.10023683
v 0.04309278 -0.01203246 -0.10152980
v 0.04303195 -0.01186360 -0.10541966
v 0.04420508 -0.00858768 -0.10541966
v 0.04288422 -0.01147522 -0.11319938
v 0.04338824 -0.00965151 -0.11726456
v 0.04367500 -0.00928002 -0.11319938
v 0.04359679 -0.00858768 -0.12152697
v -0.04414462 -0.00928002 -0.10023683
v -0.04434449 -0.00858768 -0.10152980
v 0.04311016 -0.01208312 -0.10023683
v 0.04238891 -0.01403066 -0.10023683
v 0.03484611 -0.03411398 -0.10152980
v 0.02732071 -0.05423670 -0.10152980
v 0.04277995 -0.01118815 -0.11868901
v 0.04343169 -0.00912241 -0.12097910
v 0.04328396 -0.00867774 -0.12874787
v 0.04346645 -0.00858768 -0.12486896
v -0.04238927 -0.01405881 -0.10023683
v -0.04410117 -0.00928002 -0.10152980
v -0.04423152 -0.00858768 -0.10471839
v 0.03510681 -0.03352296 -0.10023683
v 0.03350788 -0.03780080 -0.10023683
v 0.02788555 -0.05284077 -0.10023683
v 0.02685145 -0.05558759 -0.10023683
v 0.02658207 -0.05617861 -0.10152980
v 0.02637351 -0.05595346 -0.10930952
v 0.02592164 -0.05595346 -0.12097910
v 0.03757473 -0.02484346 -0.12097910
v 0.03741831 -0.02484346 -0.12486896
v 0.03925187 -0.01994083 -0.12486896
v 0.04264960 -0.01084480 -0.12486896
v 0.04324920 -0.00858768 -0.13006275
v 0.04331003 -0.00858768 -0.12874787
v 0.04256270 -0.01061965 -0.12874787
v 0.04311016 -0.00858768 -0.13303219
v -0.03981707 -0.02094838 -0.10023683
v -0.04301494 -0.01186923 -0.10541966
v -0.04287590 -0.01150899 -0.11319938
v -0.04215465 -0.01345090 -0.11319938
v -0.04122483 -0.01705892 -0.10152980
v -0.03977363 -0.02094838 -0.10152980
v -0.04368406 -0.00928002 -0.11319938
v -0.04394475 -0.00858768 -0.11249811
v 0.02659945 -0.05623490 -0.10023683
v 0.02487885 -0.05984292 -0.10152980
v 0.02427057 -0.05963465 -0.12097910
v 0.02575653 -0.05595346 -0.12486896
v 0.02678194 -0.05279574 -0.12874787
v 0.03725320 -0.02484346 -0.12874787
v 0.04161551 -0.01316946 -0.12874787
v 0.04142433 -0.01316946 -0.13263773
v 0.04286685 -0.00858768 -0.13757950
v -0.02762521 -0.05352748 -0.10023683
v -0.02731238 -0.05425921 -0.10152980
v -0.04338860 -0.00966277 -0.11738509
v -0.04281508 -0.01135139 -0.11627840
v -0.04221548 -0.01285426 -0.11738509
v -0.03462924 -0.03357925 -0.11319938
v -0.03940865 -0.02039676 -0.11708924
v -0.04391869 -0.00858768 -0.11319938
v -0.04343205 -0.00915056 -0.12097910
v 0.02491362 -0.05984292 -0.10023683
v 0.02358407 -0.06204375 -0.10152980
v 0.02337551 -0.06182423 -0.11211460
v 0.02332337 -0.06176231 -0.11470054
v 0.02318434 -0.06157656 -0.12097910
v 0.02419236 -0.05943765 -0.12486896
v 0.02557405 -0.05595346 -0.12874787
v 0.02669504 -0.05256496 -0.13263773
v 0.03500253 -0.03064668 -0.13043530
v 0.03706202 -0.02484346 -0.13263773
v 0.02725988 -0.05018401 -0.13892725
v 0.02719036 -0.04999826 -0.14152414
v 0.04215428 -0.00952205 -0.14430731
v 0.04250187 -0.00858768 -0.14430731
v -0.02732976 -0.05431550 -0.10023683
v -0.02720810 -0.05398341 -0.10710709
v -0.02658243 -0.05620113 -0.10152980
v -0.03207442 -0.04039564 -0.11319938
v -0.04272818 -0.01109247 -0.12097910
v -0.03528097 -0.03143470 -0.11708924
v -0.03042335 -0.04440330 -0.11708924
v -0.03520277 -0.03122644 -0.12097910
v -0.04348419 -0.00858768 -0.12449641
v -0.04335385 -0.00892540 -0.12486896
v 0.02360145 -0.06206626 -0.10023683
v 0.02342765 -0.06188614 -0.10930952
v 0.01885679 -0.06609081 -0.10026970
v 0.02123781 -0.06307381 -0.12097910
v 0.02106401 -0.06292746 -0.12486896
v 0.02300185 -0.06138519 -0.12486896
v 0.02408808 -0.05908304 -0.12874787
v 0.02530466 -0.05595346 -0.13263773
v 0.02659076 -0.05229479 -0.13652759
v 0.02687752 -0.04922150 -0.15208703
v 0.02700787 -0.04951419 -0.14819717
v 0.03993837 -0.01316946 -0.15985580
v 0.04138957 -0.00928002 -0.15985580
v 0.04185883 -0.00858768 -0.15597689
v -0.02659982 -0.05625741 -0.10023683
v -0.02638257 -0.05595346 -0.10930952
v -0.02593939 -0.05595346 -0.12097910
v -0.02546144 -0.05868903 -0.10023683
v -0.02427093 -0.05964591 -0.12097910
v -0.04327563 -0.00870025 -0.12874787
v -0.04264128 -0.01087294 -0.12486896
v -0.03596747 -0.02873291 -0.12486896
v -0.03105771 -0.04221373 -0.12174612
v -0.02869407 -0.04817455 -0.12486896
v -0.02759046 -0.05112401 -0.12486896
v -0.04331909 -0.00858768 -0.12862734
v 0.01885679 -0.06609081 -0.10023683
v 0.01734476 -0.06609081 -0.10410478
v 0.01750987 -0.06446411 -0.12486896
v 0.02058607 -0.06252782 -0.12874787
v 0.02252391 -0.06102495 -0.12874787
v 0.02339289 -0.05794603 -0.13868619
v 0.02359276 -0.05819370 -0.13652759
v 0.02389690 -0.05864400 -0.13263773
v 0.02721643 -0.04618198 -0.16544405
v 0.02739891 -0.04662102 -0.15985580
v 0.02751188 -0.04695312 -0.15597689
v 0.02829397 -0.04428510 -0.15985580
v 0.02762485 -0.04727396 -0.15208703
v 0.02997980 -0.04039564 -0.15597689
v 0.03833075 -0.01746982 -0.15985580
v 0.03243034 -0.03262237 -0.16374566
v 0.03896510 -0.01529713 -0.16277046
v 0.04114626 -0.00928002 -0.16374566
v 0.04164158 -0.00858768 -0.15985580
v -0.02686051 -0.05306592 -0.12486896
v -0.02577428 -0.05595346 -0.12486896
v -0.02487053 -0.05984292 -0.10152980
v -0.02491398 -0.05984292 -0.10023683
v -0.02418403 -0.05944890 -0.12486896
v -0.02317601 -0.06159345 -0.12097910
v -0.02331505 -0.06177357 -0.11488681
v -0.02473149 -0.05984292 -0.10541966
v -0.04324087 -0.00858768 -0.13042434
v -0.04255438 -0.01064216 -0.12874787
v -0.03504635 -0.03082117 -0.12801372
v -0.02750356 -0.05089323 -0.12874787
v -0.01860515 -0.06609081 -0.10023683
v 0.01349515 -0.06609081 -0.10791793
v 0.01361681 -0.06515644 -0.12097910
v 0.01361681 -0.06485249 -0.12486896
v 0.01750987 -0.06361417 -0.12874787
v 0.01997778 -0.06209441 -0.13177210
v 0.02333206 -0.05400029 -0.15401553
v 0.02293233 -0.05760268 -0.14128308
v 0.02368835 -0.05434364 -0.15141863
v 0.02729463 -0.04242762 -0.18163902
v 0.02709477 -0.04593995 -0.16763552
v 0.02742498 -0.04265840 -0.17930511
v 0.02894571 -0.03651182 -0.19097468
v 0.02838087 -0.04039564 -0.17930511
v 0.02929330 -0.03651182 -0.18708483
v 0.02870239 -0.04039564 -0.17541524
v 0.02898916 -0.04039564 -0.17152538
v 0.02926723 -0.04039564 -0.16763552
v 0.02789423 -0.04464534 -0.16398672
v 0.02951924 -0.04039564 -0.16374566
v 0.02975386 -0.04039564 -0.15985580
v 0.03080534 -0.03759254 -0.15985580
v 0.03266496 -0.03262237 -0.15985580
v 0.03141362 -0.03534104 -0.16374566
v 0.04139826 -0.00858768 -0.16374566
v 0.03887820 -0.01505509 -0.16536735
v 0.04086818 -0.00928002 -0.16763552
v 0.04134612 -0.00858768 -0.16447980
v -0.02677361 -0.05283514 -0.12874787
v -0.02668671 -0.05258748 -0.13263773
v -0.02558310 -0.05595346 -0.12874787
v -0.02358443 -0.06206064 -0.10023683
v -0.02336719 -0.06182986 -0.11230088
v -0.02355837 -0.06204375 -0.10152980
v -0.02299353 -0.06139645 -0.12486896
v -0.02407976 -0.05908867 -0.12874787
v -0.02122949 -0.06307944 -0.12097910
v -0.02105569 -0.06293309 -0.12486896
v -0.02271545 -0.06282614 -0.10023683
v -0.04313660 -0.00858768 -0.13263773
v -0.03833980 -0.02142682 -0.13263773
v -0.03498552 -0.03066357 -0.13059966
v -0.03563726 -0.02911004 -0.12908755
v -0.03443806 -0.03231841 -0.12908755
v -0.01830101 -0.06609081 -0.10148597
v -0.01749285 -0.06446411 -0.12486896
v 0.00583940 -0.06609081 -0.10873974
v 0.00583940 -0.06516207 -0.12097910
v 0.00583940 -0.06485812 -0.12486896
v 0.01361681 -0.06396315 -0.12874787
v 0.01638018 -0.06189177 -0.13491686
v 0.01760545 -0.06234770 -0.13290070
v 0.01896976 -0.06171728 -0.13435803
v 0.01960412 -0.05796292 -0.14647687
v 0.02331468 -0.04622138 -0.18122264
v 0.02288019 -0.04995323 -0.16901615
v 0.02360145 -0.05031910 -0.16643021
v 0.02725119 -0.03847062 -0.19690261
v 0.02704263 -0.04205612 -0.18422496
v 0.02742498 -0.03872391 -0.19486455
v 0.02770306 -0.03920235 -0.19097468
v 0.02850253 -0.03651182 -0.19486455
v 0.02939758 -0.03262237 -0.20264427
v 0.02977124 -0.03262237 -0.19875441
v 0.03011015 -0.03262237 -0.19486455
v 0.03098782 -0.03030896 -0.19486455
v 0.03108341 -0.03057914 -0.19246489
v 0.03937353 -0.00858768 -0.19152255
v 0.02958876 -0.03651182 -0.18319496
v 0.04030334 -0.00928002 -0.17541524
v 0.04084211 -0.00858768 -0.17147059
v 0.04112018 -0.00858768 -0.16763552
v -0.02657374 -0.05231167 -0.13652759
v -0.02833778 -0.04817455 -0.13263773
v -0.02731238 -0.05036976 -0.13652759
v -0.02699086 -0.04952545 -0.14819717
v -0.02530502 -0.05595346 -0.13263773
v -0.02686920 -0.04923276 -0.15208703
v -0.02388858 -0.05864962 -0.13263773
v -0.02358443 -0.05820495 -0.13652759
v -0.02337588 -0.05795166 -0.13869715
v -0.02251558 -0.06103621 -0.12874787
v -0.02668671 -0.04892317 -0.15597689
v -0.02719072 -0.04617635 -0.16544405
v -0.02057775 -0.06252782 -0.12874787
v -0.04292804 -0.00858768 -0.13652759
v -0.03823552 -0.02115101 -0.13652759
v -0.03270009 -0.03651182 -0.13263773
v -0.01647614 -0.06609081 -0.10465264
v -0.01749285 -0.06476243 -0.12097910
v -0.01359980 -0.06485249 -0.12486896
v -0.01359980 -0.06515644 -0.12097910
v -0.01996946 -0.06210004 -0.13177210
v -0.01749285 -0.06361979 -0.12874787
v 0.00194634 -0.06609081 -0.10875069
v -0.00582238 -0.06516207 -0.12097910
v -0.00582238 -0.06485812 -0.12486896
v -0.01359980 -0.06396315 -0.12874787
v 0.01361681 -0.06272483 -0.13263773
v 0.01750987 -0.04609755 -0.18472900
v 0.01750987 -0.04781994 -0.17930511
v 0.01750987 -0.05051048 -0.17082411
v 0.01750987 -0.05368508 -0.16078718
v 0.01750987 -0.05519921 -0.15597689
v 0.01750987 -0.05642065 -0.15208703
v 0.01992564 -0.05418041 -0.15847517
v 0.02354062 -0.04246139 -0.19333052
v 0.02404463 -0.04281600 -0.19097468
v 0.02384476 -0.04660414 -0.17863671
v 0.02686883 -0.03805972 -0.19949951
v 0.02704263 -0.03436164 -0.21179366
v 0.02739891 -0.03476691 -0.20920772
v 0.02765092 -0.03513278 -0.20653413
v 0.02792899 -0.03566188 -0.20264427
v 0.02893702 -0.03262237 -0.20653413
v 0.02994504 -0.02873291 -0.21216621
v 0.03013621 -0.02873291 -0.21042398
v 0.03057940 -0.02850776 -0.20681902
v 0.03081403 -0.02984740 -0.19875441
v 0.03064023 -0.02938022 -0.20264427
v 0.03501991 -0.01903461 -0.19692453
v 0.03739224 -0.01316946 -0.19486455
v 0.03910414 -0.00858768 -0.19486455
v 0.03940829 -0.00858768 -0.19105139
v 0.03939090 -0.00864959 -0.19097468
v 0.03957339 -0.00964588 -0.18346890
v 0.04001657 -0.00928002 -0.17930511
v -0.02780770 -0.04849539 -0.14034075
v -0.02761653 -0.04729084 -0.15208703
v -0.02751225 -0.04698126 -0.15597689
v -0.02739928 -0.04664917 -0.15985580
v -0.02729500 -0.04639587 -0.16284716
v -0.02706906 -0.04592306 -0.16763552
v -0.02728631 -0.04243325 -0.18168285
v -0.02291532 -0.05760268 -0.14129404
v -0.02703430 -0.04207301 -0.18427975
v -0.02366264 -0.05433239 -0.15141863
v -0.02331505 -0.05400029 -0.15401553
v -0.02869407 -0.04039564 -0.17541524
v -0.02838123 -0.04039564 -0.17930511
v -0.02741666 -0.04266965 -0.17930511
v -0.04259783 -0.00858768 -0.14257605
v -0.04216333 -0.00894229 -0.14814239
v -0.03228297 -0.03651182 -0.14041745
v -0.03172682 -0.03685517 -0.14830675
v -0.01580702 -0.06609081 -0.10550732
v -0.00582238 -0.06609081 -0.10872878
v -0.00598749 -0.06609081 -0.10871782
v -0.00949819 -0.06609081 -0.10826857
v -0.00971544 -0.06609081 -0.10823570
v -0.01187921 -0.06609081 -0.10757826
v -0.01246143 -0.06609081 -0.10737007
v -0.01438188 -0.06609081 -0.10657018
v -0.01957841 -0.05796292 -0.14646591
v -0.01896144 -0.06172291 -0.13436899
v -0.02358443 -0.05031910 -0.16641925
v -0.02330636 -0.04622138 -0.18123360
v -0.01759713 -0.06234770 -0.13290070
v -0.01637186 -0.06189177 -0.13491686
v -0.00212920 -0.06609081 -0.10875069
v -0.01749285 -0.05520484 -0.15597689
v -0.01749285 -0.05429861 -0.15884772
v -0.01749285 -0.05275071 -0.16374566
v -0.01749285 -0.04781994 -0.17930511
v -0.01749285 -0.04609755 -0.18472900
v -0.01359980 -0.06272483 -0.13263773
v 0.01361681 -0.06132327 -0.13703163
v 0.01750987 -0.04229253 -0.19666155
v 0.01962150 -0.03847062 -0.20855029
v 0.02221107 -0.03827924 -0.20794763
v 0.02374918 -0.03867888 -0.20535074
v 0.02434878 -0.03908978 -0.20264427
v 0.02697311 -0.03430536 -0.21216621
v 0.02815493 -0.03250979 -0.21216621
v 0.02885881 -0.03105758 -0.21216621
v 0.03043167 -0.02747208 -0.21216621
v 0.03099651 -0.02645327 -0.21042398
v 0.03110079 -0.02674034 -0.20829827
v 0.03531537 -0.01592192 -0.20653413
v 0.03490694 -0.01871940 -0.19951046
v 0.03833943 -0.00971905 -0.19875441
v 0.03669705 -0.01316946 -0.20264427
v 0.03875655 -0.00858768 -0.19875441
v -0.02895476 -0.04428510 -0.14819717
v -0.02852896 -0.04428510 -0.15597689
v -0.02830303 -0.04428510 -0.15985580
v -0.02788591 -0.04463971 -0.16398672
v -0.02897214 -0.04039564 -0.17152538
v -0.02890262 -0.03651182 -0.19097468
v -0.02938925 -0.03262237 -0.20264427
v -0.02893738 -0.03262237 -0.20653413
v -0.02768604 -0.03919673 -0.19097468
v -0.02740797 -0.03872391 -0.19486455
v -0.02723417 -0.03847062 -0.19690261
v -0.02398417 -0.05069060 -0.16374566
v -0.03099688 -0.03427158 -0.17541524
v -0.02987589 -0.03651182 -0.17930511
v -0.02958043 -0.03651182 -0.18319496
v -0.02925891 -0.03651182 -0.18708483
v -0.04231106 -0.00858768 -0.14782462
v -0.04170277 -0.00858768 -0.15882581
v -0.04138994 -0.00928002 -0.15985580
v -0.03993873 -0.01316946 -0.15985580
v -0.03915664 -0.01583749 -0.15597689
v -0.03090998 -0.03791900 -0.15597689
v -0.03019741 -0.04039564 -0.15208703
v -0.02352361 -0.04246139 -0.19333052
v -0.01991732 -0.05418604 -0.15847517
v -0.02704300 -0.03438416 -0.21184845
v -0.02383644 -0.04660414 -0.17864766
v -0.02402762 -0.04281600 -0.19097468
v -0.01749285 -0.05642065 -0.15208703
v -0.01960448 -0.03847062 -0.20855029
v -0.01749285 -0.04229253 -0.19666155
v -0.01359980 -0.06132327 -0.13703163
v 0.01750987 -0.03734487 -0.21216621
v 0.01933473 -0.03722667 -0.21216621
v 0.02124650 -0.03709158 -0.21216621
v 0.02513955 -0.03559434 -0.21216621
v 0.03163956 -0.02426933 -0.21216621
v 0.03172646 -0.02451136 -0.21042398
v 0.03634077 -0.01316946 -0.20653413
v 0.03844371 -0.00858768 -0.20223885
v 0.03305601 -0.02094838 -0.21042398
v 0.03740962 -0.00928002 -0.21042398
v -0.03152696 -0.03568440 -0.15985580
v -0.02976292 -0.04039564 -0.15985580
v -0.03067535 -0.03729984 -0.16374566
v -0.02951091 -0.04039564 -0.16374566
v -0.03117068 -0.03473314 -0.17048443
v -0.02975423 -0.03262237 -0.19875441
v -0.03063191 -0.02939710 -0.20264427
v -0.03014527 -0.02873291 -0.21042398
v -0.02995409 -0.02873291 -0.21216621
v -0.02764260 -0.03514404 -0.20653413
v -0.02791198 -0.03566188 -0.20264427
v -0.02815530 -0.03252668 -0.21216621
v -0.02739059 -0.03477817 -0.20925156
v -0.04001694 -0.00928002 -0.17930511
v -0.03553298 -0.02433124 -0.16374566
v -0.03886988 -0.01507198 -0.16545500
v -0.04086855 -0.00928002 -0.16763552
v -0.03938258 -0.00867211 -0.19097468
v -0.03935651 -0.00858768 -0.19173074
v -0.03624555 -0.01705892 -0.19097468
v -0.03739260 -0.01316946 -0.19486455
v -0.03436854 -0.02123544 -0.19486455
v -0.03301292 -0.02484346 -0.19486455
v -0.03096212 -0.03029207 -0.19486455
v -0.03008444 -0.03262237 -0.19486455
v -0.04164194 -0.00858768 -0.15985580
v -0.04145946 -0.00858768 -0.16282524
v -0.04114662 -0.00928002 -0.16374566
v -0.03895678 -0.01531401 -0.16285812
v -0.03832242 -0.01749796 -0.15985580
v -0.03492469 -0.02659399 -0.15985580
v -0.02433176 -0.03908978 -0.20264427
v -0.02373216 -0.03867888 -0.20536170
v -0.02219406 -0.03828487 -0.20795858
v -0.02717334 -0.03408584 -0.21216621
v -0.02697347 -0.03433350 -0.21216621
v -0.02673016 -0.03450799 -0.21216621
v -0.02123818 -0.03709721 -0.21216621
v -0.01749285 -0.03734487 -0.21216621
v 0.03287352 -0.02094838 -0.21216621
v 0.03778328 -0.00928002 -0.20653413
v 0.03803529 -0.00858768 -0.20653413
v 0.03757473 -0.00858768 -0.21115813
v 0.03766162 -0.00858768 -0.21042398
v -0.03079701 -0.02985866 -0.19875441
v -0.03268271 -0.02484346 -0.19875441
v -0.03501159 -0.01904586 -0.19697931
v -0.03833111 -0.00974157 -0.19875441
v -0.03530704 -0.01594443 -0.20653413
v -0.03109246 -0.02675160 -0.20833113
v -0.03057108 -0.02851339 -0.20684094
v -0.03171813 -0.02453388 -0.21042398
v -0.03163123 -0.02429747 -0.21216621
v -0.03090129 -0.02623938 -0.21216621
v -0.04118138 -0.00858768 -0.16681372
v -0.03910451 -0.00858768 -0.19486455
v -0.04139863 -0.00858768 -0.16374566
v -0.02513992 -0.03560559 -0.21216621
v -0.02281973 -0.03657936 -0.21216621
v 0.03743569 -0.00858768 -0.21216621
v -0.03864394 -0.00858768 -0.20005833
v -0.03826159 -0.00898169 -0.20262235
v -0.03838325 -0.00858768 -0.20289629
v -0.03634113 -0.01316946 -0.20653413
v -0.03740999 -0.00928002 -0.21042398
v -0.03305637 -0.02094838 -0.21042398
v -0.03236987 -0.02231053 -0.21216621
v -0.03741867 -0.00858768 -0.21216621
v -0.03812256 -0.00858768 -0.20567946
v -0.03766199 -0.00858768 -0.21042398
v -0.03716667 -0.00928002 -0.21216621
f 1 2 3
f 1 3 4
f 1 4 9
f 1 9 13
f 1 13 23
f 1 23 39
f 1 39 38
f 1 38 41
f 1 41 58
f 1 58 81
f 1 81 105
f 1 105 136
f 1 136 173
f 1 173 176
f 1 176 220
f 1 220 219
f 1 219 272
f 1 272 216
f 1 216 271
f 1 271 331
f 1 331 371
f 1 371 415
f 1 415 417
f 1 417 416
f 1 416 433
f 1 433 441
f 1 441 443
f 1 443 442
f 1 442 436
f 1 436 434
f 1 434 429
f 1 429 392
f 1 392 428
f 1 428 430
f 1 430 400
f 1 400 399
f 1 399 349
f 1 349 348
f 1 348 290
f 1 290 234
f 1 234 188
f 1 188 145
f 1 145 117
f 1 117 90
f 1 90 66
f 1 66 49
f 1 49 26
f 1 26 15
f 1 15 5
f 1 5 14
f 1 14 24
f 1 24 42
f 1 42 59
f 1 59 82
f 1 82 106
f 1 106 109
f 1 109 140
f 1 140 180
f 1 180 187
f 1 187 149
f 1 149 118
f 1 118 92
f 1 92 68
f 1 68 50
f 1 50 30
f 1 30 29
f 1 29 28
f 1 28 27
f 1 27 17
f 1 17 16
f 1 16 6
f 1 6 2
f 2 6 7
f 2 7 8
f 2 8 3
f 3 9 4
f 3 8 10
f 3 10 11
f 3 11 12
f 3 12 13
f 3 13 9
f 5 15 25
f 5 25 14
f 6 16 7
f 7 16 17
f 7 17 8
f 8 18 19
f 8 19 10
f 8 17 18
f 10 19 20
f 10 20 11
f 11 20 21
f 11 21 12
f 12 21 13
f 13 21 22
f 13 22 23
f 14 25 24
f 15 26 25
f 17 27 18
f 18 27 28
f 18 28 29
f 18 29 19
f 19 29 30
f 19 30 31
f 19 31 32
f 19 32 33
f 19 33 20
f 20 33 34
f 20 34 35
f 20 35 36
f 20 36 37
f 20 37 22
f 20 22 21
f 22 38 39
f 22 39 23
f 22 37 40
f 22 40 41
f 22 41 38
f 24 25 43
f 24 43 44
f 24 44 45
f 24 45 46
f 24 46 47
f 24 47 42
f 25 26 48
f 25 48 44
f 25 44 43
f 26 49 48
f 30 50 31
f 31 50 51
f 31 51 52
f 31 52 33
f 31 33 32
f 33 52 53
f 33 53 54
f 33 54 35
f 33 35 34
f 35 54 55
f 35 55 36
f 36 55 56
f 36 56 37
f 37 56 40
f 40 56 41
f 41 57 58
f 41 56 57
f 42 47 60
f 42 60 59
f 44 48 61
f 44 61 62
f 44 62 63
f 44 63 45
f 45 64 47
f 45 47 46
f 45 63 65
f 45 65 64
f 47 64 60
f 48 49 66
f 48 66 67
f 48 67 61
f 50 68 51
f 51 68 69
f 51 69 70
f 51 70 71
f 51 71 52
f 52 71 72
f 52 72 73
f 52 73 53
f 53 73 74
f 53 74 75
f 53 75 54
f 54 75 55
f 55 75 76
f 55 76 56
f 56 76 57
f 57 77 78
f 57 78 79
f 57 79 80
f 57 80 58
f 57 76 77
f 58 80 81
f 59 60 82
f 60 83 84
f 60 84 106
f 60 106 82
f 60 64 85
f 60 85 83
f 61 67 86
f 61 86 62
f 62 86 63
f 63 86 65
f 64 65 87
f 64 87 88
f 64 88 85
f 65 86 89
f 65 89 87
f 66 90 67
f 67 90 91
f 67 91 86
f 68 92 69
f 69 93 70
f 69 92 94
f 69 94 93
f 70 93 94
f 70 94 71
f 71 94 72
f 72 94 95
f 72 95 96
f 72 96 97
f 72 97 73
f 73 97 98
f 73 98 99
f 73 99 74
f 74 100 75
f 74 99 101
f 74 101 102
f 74 102 100
f 75 100 78
f 75 78 77
f 75 77 76
f 78 100 79
f 79 100 102
f 79 102 80
f 80 102 103
f 80 103 104
f 80 104 81
f 81 104 105
f 83 107 84
f 83 85 88
f 83 88 108
f 83 108 107
f 84 109 106
f 84 107 108
f 84 108 110
f 84 110 109
f 86 91 111
f 86 111 112
f 86 112 113
f 86 113 89
f 87 89 114
f 87 114 88
f 88 114 108
f 89 113 115
f 89 115 116
f 89 116 114
f 90 117 91
f 91 117 111
f 92 118 94
f 94 118 149
f 94 149 193
f 94 193 237
f 94 237 294
f 94 294 301
f 94 301 300
f 94 300 299
f 94 299 298
f 94 298 297
f 94 297 296
f 94 296 295
f 94 295 308
f 94 308 243
f 94 243 195
f 94 195 150
f 94 150 119
f 94 119 120
f 94 120 96
f 94 96 95
f 96 120 121
f 96 121 122
f 96 122 97
f 97 122 123
f 97 123 124
f 97 124 125
f 97 125 98
f 98 125 126
f 98 126 99
f 99 126 101
f 101 126 127
f 101 127 102
f 102 127 128
f 102 128 129
f 102 129 130
f 102 130 131
f 102 131 103
f 103 131 132
f 103 132 133
f 103 133 134
f 103 134 104
f 104 134 135
f 104 135 173
f 104 173 136
f 104 136 105
f 108 114 116
f 108 116 137
f 108 137 138
f 108 138 110
f 109 139 140
f 109 110 139
f 110 138 141
f 110 141 142
f 110 142 143
f 110 143 144
f 110 144 139
f 111 145 146
f 111 146 112
f 111 117 145
f 112 146 113
f 113 146 147
f 113 147 115
f 115 147 148
f 115 148 116
f 116 148 177
f 116 177 137
f 119 150 151
f 119 151 120
f 120 151 152
f 120 152 153
f 120 153 154
f 120 154 121
f 121 154 155
f 121 155 156
f 121 156 123
f 121 123 122
f 123 156 155
f 123 155 157
f 123 157 158
f 123 158 124
f 124 158 159
f 124 159 125
f 125 159 126
f 126 159 158
f 126 158 160
f 126 160 161
f 126 161 162
f 126 162 163
f 126 163 164
f 126 164 165
f 126 165 166
f 126 166 167
f 126 167 129
f 126 129 127
f 127 129 128
f 129 168 169
f 129 169 130
f 129 167 168
f 130 169 131
f 131 169 170
f 131 170 171
f 131 171 132
f 132 171 133
f 133 171 172
f 133 172 166
f 133 166 134
f 134 166 135
f 135 166 174
f 135 174 175
f 135 175 176
f 135 176 173
f 137 177 138
f 138 177 178
f 138 178 179
f 138 179 141
f 139 144 143
f 139 143 140
f 140 143 181
f 140 181 182
f 140 182 180
f 141 183 142
f 141 179 184
f 141 184 183
f 142 185 149
f 142 149 143
f 142 183 186
f 142 186 185
f 143 149 187
f 143 187 181
f 145 188 146
f 146 188 189
f 146 189 190
f 146 190 191
f 146 191 147
f 147 191 192
f 147 192 148
f 148 192 178
f 148 178 177
f 149 185 186
f 149 186 194
f 149 194 193
f 150 195 151
f 151 196 197
f 151 197 152
f 151 195 196
f 152 197 198
f 152 198 153
f 153 198 199
f 153 199 200
f 153 200 201
f 153 201 154
f 154 201 202
f 154 202 203
f 154 203 204
f 154 204 205
f 154 205 155
f 155 205 206
f 155 206 157
f 157 206 207
f 157 207 158
f 158 207 206
f 158 206 208
f 158 208 209
f 158 209 210
f 158 210 161
f 158 161 160
f 161 163 162
f 161 210 211
f 161 211 212
f 161 212 163
f 163 212 213
f 163 213 214
f 163 214 215
f 163 215 216
f 163 216 217
f 163 217 164
f 164 217 165
f 165 218 175
f 165 175 174
f 165 174 166
f 165 217 218
f 166 172 168
f 166 168 167
f 168 172 170
f 168 170 169
f 170 172 171
f 175 218 219
f 175 219 220
f 175 220 176
f 178 221 179
f 178 192 222
f 178 222 223
f 178 223 224
f 178 224 221
f 179 225 184
f 179 221 224
f 179 224 226
f 179 226 225
f 180 182 187
f 181 187 182
f 183 184 227
f 183 227 228
f 183 228 229
f 183 229 230
f 183 230 186
f 184 225 231
f 184 231 232
f 184 232 227
f 186 230 233
f 186 233 194
f 188 234 235
f 188 235 189
f 189 236 190
f 189 235 223
f 189 223 236
f 190 192 191
f 190 236 222
f 190 222 192
f 193 194 238
f 193 238 237
f 194 239 240
f 194 240 238
f 194 233 241
f 194 241 242
f 194 242 239
f 195 243 196
f 196 244 245
f 196 245 197
f 196 243 308
f 196 308 244
f 197 245 246
f 197 246 198
f 198 246 314
f 198 314 247
f 198 247 248
f 198 248 249
f 198 249 250
f 198 250 251
f 198 251 199
f 199 202 200
f 199 251 252
f 199 252 253
f 199 253 202
f 200 202 201
f 202 253 254
f 202 254 255
f 202 255 203
f 203 255 256
f 203 256 257
f 203 257 205
f 203 205 204
f 205 257 258
f 205 258 206
f 206 258 259
f 206 259 260
f 206 260 261
f 206 261 208
f 208 261 262
f 208 262 209
f 209 262 263
f 209 263 210
f 210 263 211
f 211 263 264
f 211 264 265
f 211 265 266
f 211 266 212
f 212 267 214
f 212 214 213
f 212 266 268
f 212 268 267
f 214 267 269
f 214 269 270
f 214 270 215
f 215 270 271
f 215 271 216
f 216 272 273
f 216 273 217
f 217 273 274
f 217 274 218
f 218 275 273
f 218 273 272
f 218 272 219
f 218 274 275
f 222 236 223
f 223 235 276
f 223 276 224
f 224 277 278
f 224 278 226
f 224 276 277
f 225 226 231
f 226 278 279
f 226 279 280
f 226 280 232
f 226 232 231
f 227 232 281
f 227 281 282
f 227 282 228
f 228 282 229
f 229 283 233
f 229 233 230
f 229 282 284
f 229 284 285
f 229 285 286
f 229 286 283
f 232 280 287
f 232 287 288
f 232 288 289
f 232 289 282
f 232 282 281
f 233 283 286
f 233 286 241
f 234 290 291
f 234 291 235
f 235 292 276
f 235 291 293
f 235 293 292
f 237 238 240
f 237 240 294
f 239 245 244
f 239 244 240
f 239 242 246
f 239 246 245
f 240 244 295
f 240 295 296
f 240 296 297
f 240 297 298
f 240 298 299
f 240 299 300
f 240 300 301
f 240 301 294
f 241 302 303
f 241 303 242
f 241 286 304
f 241 304 305
f 241 305 302
f 242 303 306
f 242 306 307
f 242 307 246
f 244 308 295
f 246 307 309
f 246 309 310
f 246 310 311
f 246 311 312
f 246 312 313
f 246 313 314
f 247 314 363
f 247 363 315
f 247 315 316
f 247 316 248
f 248 316 317
f 248 317 249
f 249 317 250
f 250 317 251
f 251 317 252
f 252 317 254
f 252 254 253
f 254 317 318
f 254 318 255
f 255 318 319
f 255 319 320
f 255 320 256
f 256 320 321
f 256 321 259
f 256 259 257
f 257 259 258
f 259 321 322
f 259 322 260
f 260 322 261
f 261 322 263
f 261 263 262
f 263 322 323
f 263 323 264
f 264 323 322
f 264 322 321
f 264 321 367
f 264 367 366
f 264 366 365
f 264 365 364
f 264 364 412
f 264 412 411
f 264 411 432
f 264 432 431
f 264 431 410
f 264 410 409
f 264 409 408
f 264 408 385
f 264 385 382
f 264 382 427
f 264 427 426
f 264 426 440
f 264 440 444
f 264 444 441
f 264 441 433
f 264 433 413
f 264 413 368
f 264 368 324
f 264 324 265
f 265 324 325
f 265 325 326
f 265 326 266
f 266 326 327
f 266 327 268
f 267 268 328
f 267 328 329
f 267 329 269
f 268 327 330
f 268 330 329
f 268 329 328
f 269 329 271
f 269 271 270
f 271 329 331
f 273 275 274
f 276 292 293
f 276 293 332
f 276 332 277
f 277 332 333
f 277 333 278
f 278 333 334
f 278 334 279
f 279 334 280
f 280 334 335
f 280 335 336
f 280 336 287
f 282 289 337
f 282 337 338
f 282 338 339
f 282 339 340
f 282 340 341
f 282 341 342
f 282 342 284
f 284 342 286
f 284 286 285
f 286 342 343
f 286 343 304
f 287 336 344
f 287 344 345
f 287 345 346
f 287 346 288
f 288 346 347
f 288 347 337
f 288 337 289
f 290 348 291
f 291 348 349
f 291 349 350
f 291 350 351
f 291 351 352
f 291 352 353
f 291 353 293
f 293 353 354
f 293 354 332
f 302 307 306
f 302 306 303
f 302 305 355
f 302 355 356
f 302 356 307
f 304 343 342
f 304 342 357
f 304 357 358
f 304 358 305
f 305 358 359
f 305 359 355
f 307 356 360
f 307 360 309
f 309 360 356
f 309 356 361
f 309 361 310
f 310 361 311
f 311 361 312
f 312 361 313
f 313 361 362
f 313 362 314
f 314 362 363
f 315 363 412
f 315 412 364
f 315 364 316
f 316 364 317
f 317 364 365
f 317 365 366
f 317 366 318
f 318 366 319
f 319 366 367
f 319 367 321
f 319 321 320
f 324 368 325
f 325 369 326
f 325 368 369
f 326 369 327
f 327 370 371
f 327 371 329
f 327 329 330
f 327 369 372
f 327 372 373
f 327 373 370
f 329 371 331
f 332 354 333
f 333 354 353
f 333 353 374
f 333 374 375
f 333 375 334
f 334 375 376
f 334 376 377
f 334 377 335
f 335 377 336
f 336 377 376
f 336 376 378
f 336 378 344
f 337 347 379
f 337 379 338
f 338 379 380
f 338 380 381
f 338 381 382
f 338 382 339
f 339 383 384
f 339 384 341
f 339 341 340
f 339 382 385
f 339 385 383
f 341 384 383
f 341 383 342
f 342 383 386
f 342 386 357
f 344 387 345
f 344 378 388
f 344 388 389
f 344 389 390
f 344 390 387
f 345 387 391
f 345 391 346
f 346 391 392
f 346 392 393
f 346 393 394
f 346 394 395
f 346 395 396
f 346 396 397
f 346 397 398
f 346 398 347
f 347 398 379
f 349 399 350
f 350 399 400
f 350 400 401
f 350 401 402
f 350 402 351
f 351 403 352
f 351 402 403
f 352 403 353
f 353 403 404
f 353 404 374
f 355 359 405
f 355 405 406
f 355 406 407
f 355 407 356
f 356 407 361
f 357 386 408
f 357 408 409
f 357 409 410
f 357 410 405
f 357 405 359
f 357 359 358
f 361 407 411
f 361 411 412
f 361 412 362
f 362 412 363
f 368 413 373
f 368 373 372
f 368 372 369
f 370 414 371
f 370 373 414
f 371 414 415
f 373 413 416
f 373 416 417
f 373 417 415
f 373 415 414
f 374 404 388
f 374 388 375
f 375 388 376
f 376 388 378
f 379 418 380
f 379 398 418
f 380 418 419
f 380 419 420
f 380 420 421
f 380 421 422
f 380 422 423
f 380 423 424
f 380 424 381
f 381 425 426
f 381 426 427
f 381 427 382
f 381 424 423
f 381 423 425
f 383 385 386
f 385 408 386
f 387 390 428
f 387 428 391
f 388 404 402
f 388 402 389
f 389 402 401
f 389 401 390
f 390 401 428
f 391 428 392
f 392 429 394
f 392 394 393
f 394 429 420
f 394 420 395
f 395 420 419
f 395 419 396
f 396 419 418
f 396 418 397
f 397 418 398
f 400 430 401
f 401 430 428
f 402 404 403
f 405 410 406
f 406 410 431
f 406 431 432
f 406 432 407
f 407 432 411
f 413 433 416
f 420 429 421
f 421 434 422
f 421 429 434
f 422 434 435
f 422 435 436
f 422 436 437
f 422 437 438
f 422 438 439
f 422 439 425
f 422 425 423
f 425 439 426
f 426 439 438
f 426 438 440
f 434 436 435
f 436 442 437
f 437 442 438
f 438 442 443
f 438 443 441
f 438 441 444
f 438 444 440

