# https://github.com/mikedh/trimesh
v -0.04798085 0.00625878 -0.05583043
v -0.04774527 0.00917671 -0.05583043
v -0.04789604 0.00625878 -0.06263112
v -0.04777825 0.00238484 -0.06651599
v -0.04782537 0.00238484 -0.06263112
v -0.04790075 0.00238484 -0.05583043
v -0.04765104 0.01015767 -0.05583043
v -0.04784422 0.00625878 -0.06651599
v -0.04771229 0.00238484 -0.07040086
v -0.04729768 -0.00150572 -0.06651599
v -0.04743431 -0.00150572 -0.05583043
v -0.04676056 0.01236066 -0.08050412
v -0.04712335 0.01029899 -0.08050412
v -0.04777825 0.00625878 -0.07040086
v -0.04717989 0.01262668 -0.05583043
v -0.04765104 0.00238484 -0.07340793
v -0.04722700 -0.00150572 -0.07040086
v -0.04676999 -0.00380016 -0.07040086
v -0.04680768 -0.00392486 -0.06651599
v -0.04683594 -0.00402462 -0.06263112
v -0.04687835 -0.00419088 -0.05583043
v -0.04702441 0.01328342 -0.05583043
v -0.04567220 0.01514557 -0.05583043
v -0.04439066 0.01686640 -0.05583043
v -0.04571931 0.01359101 -0.08050412
v -0.04657210 -0.00209596 -0.09311038
v -0.04755681 0.00625878 -0.08050412
v -0.04766518 0.00325773 -0.07340793
v -0.04721758 0.00017354 -0.08050412
v -0.04749556 0.00238484 -0.08050412
v -0.04715633 -0.00150572 -0.07340793
v -0.04688306 -0.00209596 -0.08050846
v -0.04665220 -0.00340113 -0.07976538
v -0.04668518 -0.00352583 -0.07717982
v -0.03606067 -0.04068574 -0.07794897
v -0.04644489 -0.00563737 -0.05583043
v -0.04082874 0.01872024 -0.05583043
v -0.04497489 0.01411474 -0.08050412
v -0.04438124 -0.00859687 -0.10022395
v -0.04648258 -0.00256981 -0.09311038
v -0.04662864 -0.00209596 -0.09104627
v -0.04698200 -0.00154729 -0.08050412
v -0.04684537 -0.00209596 -0.08207284
v -0.04664277 -0.00335956 -0.08050846
v -0.04629412 -0.00612785 -0.05583043
v -0.04568633 -0.00539629 -0.09311038
v -0.03597115 -0.04047790 -0.08211195
v -0.03540106 -0.04242319 -0.08050412
v -0.02720299 -0.06608250 -0.05583043
v -0.03694173 0.01883662 -0.05583043
v -0.04016442 0.01616810 -0.08050412
v -0.04082874 0.01614315 -0.08050412
v -0.02702395 -0.00859687 -0.10022395
v -0.04414095 -0.00928686 -0.10022395
v -0.04662393 -0.00325981 -0.08207284
v -0.04238355 -0.01406693 -0.10022395
v -0.04162499 -0.01610366 -0.10022395
v -0.04029634 -0.01966171 -0.10022395
v -0.02659991 -0.05624801 -0.10022395
v -0.03531625 -0.04263933 -0.08084307
v -0.03531625 -0.04265596 -0.08050412
v -0.02545972 -0.05868377 -0.10022395
v -0.02491318 -0.05983098 -0.10022395
v -0.02358453 -0.06205060 -0.10022395
v -0.02047021 -0.06609081 -0.09374048
v -0.02356097 -0.06609081 -0.07448127
v -0.02371645 -0.06609081 -0.07340793
v -0.01091522 -0.06608250 -0.05583043
v -0.03372375 0.01724049 -0.05583043
v -0.03653182 0.01598521 -0.08050412
v -0.03694173 0.01611821 -0.08050412
v -0.02081886 -0.00860518 -0.10022395
v -0.02272703 -0.06281542 -0.10022395
v -0.01974934 -0.06609081 -0.09776875
v -0.01331339 -0.06609081 -0.07340793
v 0.00015217 -0.06609081 -0.09311473
v -0.01091522 -0.03314568 -0.05583043
v 0.00015217 -0.01978640 -0.10022395
v -0.03343635 0.01395679 -0.08050412
v 0.00015217 -0.02177325 -0.09311473
v -0.01861386 -0.06609081 -0.10022395
v 0.00015217 -0.06609081 -0.10022395
f 1 2 3
f 1 3 4
f 1 4 5
f 1 5 6
f 1 6 11
f 1 11 21
f 1 21 36
f 1 36 45
f 1 45 49
f 1 49 68
f 1 68 77
f 1 77 69
f 1 69 50
f 1 50 37
f 1 37 24
f 1 24 23
f 1 23 22
f 1 22 15
f 1 15 7
f 1 7 2
f 2 7 8
f 2 8 3
f 3 8 4
f 4 8 14
f 4 14 9
f 4 9 10
f 4 10 11
f 4 11 5
f 5 11 6
f 7 12 13
f 7 13 14
f 7 14 8
f 7 15 12
f 9 14 16
f 9 16 17
f 9 17 10
f 10 17 18
f 10 18 19
f 10 19 11
f 11 19 20
f 11 20 21
f 12 15 22
f 12 22 23
f 12 23 24
f 12 24 25
f 12 25 26
f 12 26 13
f 13 26 27
f 13 27 14
f 14 27 28
f 14 28 16
f 16 29 17
f 16 28 30
f 16 30 29
f 17 29 31
f 17 31 32
f 17 32 33
f 17 33 34
f 17 34 18
f 18 34 35
f 18 35 19
f 19 35 20
f 20 35 21
f 21 35 36
f 24 37 38
f 24 38 25
f 25 38 39
f 25 39 26
f 26 40 41
f 26 41 29
f 26 29 30
f 26 30 27
f 26 39 40
f 27 30 28
f 29 42 31
f 29 41 42
f 31 42 32
f 32 43 44
f 32 44 33
f 32 42 43
f 33 44 35
f 33 35 34
f 35 45 36
f 35 44 46
f 35 46 47
f 35 47 48
f 35 48 49
f 35 49 45
f 37 50 51
f 37 51 52
f 37 52 38
f 38 52 39
f 39 53 72
f 39 72 78
f 39 78 82
f 39 82 81
f 39 81 73
f 39 73 64
f 39 64 63
f 39 63 62
f 39 62 59
f 39 59 58
f 39 58 57
f 39 57 56
f 39 56 54
f 39 54 47
f 39 47 46
f 39 46 40
f 39 52 51
f 39 51 53
f 40 55 41
f 40 46 55
f 41 43 42
f 41 55 44
f 41 44 43
f 44 55 46
f 47 54 56
f 47 56 57
f 47 57 58
f 47 58 59
f 47 59 60
f 47 60 48
f 48 60 61
f 48 61 49
f 49 61 60
f 49 60 62
f 49 62 63
f 49 63 64
f 49 64 65
f 49 65 66
f 49 66 67
f 49 67 75
f 49 75 68
f 50 69 70
f 50 70 71
f 50 71 51
f 51 71 72
f 51 72 53
f 59 62 60
f 64 73 74
f 64 74 65
f 65 74 81
f 65 81 82
f 65 82 76
f 65 76 75
f 65 75 67
f 65 67 66
f 68 75 76
f 68 76 80
f 68 80 77
f 69 78 79
f 69 79 70
f 69 77 80
f 69 80 78
f 70 79 78
f 70 78 72
f 70 72 71
f 73 81 74
f 76 82 78
f 76 78 80

