# https://github.com/mikedh/trimesh
v -0.00192843 -0.18258550 -0.00818482
v 0.00194152 -0.18258550 -0.00429953
v -0.00192843 -0.18258550 -0.00040164
v -0.00582233 -0.18253989 0.00349626
v -0.00192843 -0.18257409 -0.01207010
v 0.00582943 -0.18251708 0.00349626
v 0.00194152 -0.18258550 -0.00040164
v 0.00194152 -0.18256268 -0.01207010
v -0.00192843 -0.18256268 0.00349626
v -0.00820660 -0.18243726 0.00349626
v -0.00582233 -0.18251708 -0.00040164
v -0.00582233 -0.18246007 0.00604439
v -0.00814669 -0.18241446 0.00582995
v -0.00192843 -0.18255129 -0.01596799
v 0.00805794 -0.18241446 0.00349626
v 0.00803997 -0.18240306 0.00580471
v 0.00582943 -0.18244866 0.00601916
v 0.00194152 -0.18256268 0.00349626
v 0.00194152 -0.18251708 -0.01984066
v 0.00451748 -0.18246007 -0.01207010
v -0.00192843 -0.18246007 0.00605700
v -0.01015355 -0.18207239 0.00349626
v -0.00785914 -0.18238025 -0.00316423
v -0.00437859 -0.18243726 -0.01596799
v -0.00469010 -0.18246007 -0.01207010
v -0.00192843 -0.18251708 -0.01984066
v -0.00582233 -0.18214080 0.00798703
v -0.00955449 -0.18207239 0.00723016
v 0.00790219 -0.18239165 0.00036785
v 0.01000490 -0.18194696 0.00349626
v 0.00948970 -0.18199256 0.00720494
v 0.00582943 -0.18214080 0.00796181
v 0.00194152 -0.18246007 0.00605700
v -0.00192843 -0.18242585 -0.02313305
v 0.00194152 -0.18242585 -0.02308259
v 0.00397234 -0.18238025 -0.02230049
v 0.00408616 -0.18240306 -0.01984066
v -0.00192843 -0.18214080 0.00799964
v -0.00993190 -0.18194696 -0.00040164
v -0.00756560 -0.18234604 -0.00576282
v -0.01359816 -0.18110316 0.00738153
v -0.00396524 -0.18238025 -0.02238879
v -0.00413298 -0.18240306 -0.01984066
v -0.00582233 -0.18104615 0.01126682
v -0.00970425 -0.18101194 0.01126682
v -0.01359816 -0.18051023 0.01126682
v 0.00772846 -0.18235745 -0.00223074
v 0.00940583 -0.18191274 -0.00071701
v 0.00972933 -0.18160488 -0.00429953
v 0.01361125 -0.18074969 0.00738153
v 0.01361125 -0.18025938 0.01126682
v 0.00972933 -0.18096634 0.01126682
v 0.00194152 -0.18214080 0.00799964
v 0.00582943 -0.18105755 0.01126682
v -0.00192843 -0.18233464 -0.02508831
v 0.00194152 -0.18233464 -0.02503785
v 0.00582943 -0.18116018 -0.02762383
v 0.00549396 -0.18185573 -0.02363763
v 0.00603311 -0.18191274 -0.01984066
v -0.00970425 -0.18154787 -0.00818482
v -0.00938076 -0.18188994 -0.00440045
v -0.00606795 -0.18196975 -0.01984066
v -0.00548686 -0.18191274 -0.02368809
v -0.01679715 -0.17925596 0.01126682
v -0.01683909 -0.17941558 0.00738153
v -0.01359816 -0.18085231 0.00349626
v -0.00970425 -0.17931297 0.01429431
v -0.01359816 -0.17915332 0.01414293
v -0.01622205 -0.17882266 0.01373927
v 0.00972933 -0.18134262 -0.00818482
v 0.01643283 -0.17916473 0.00738153
v 0.01639090 -0.17905071 0.01126682
v 0.00972933 -0.18105755 -0.01207010
v 0.01361125 -0.18045322 0.00349626
v 0.01596557 -0.17870862 0.01358790
v 0.01361125 -0.17907351 0.01402939
v 0.00972933 -0.17931297 0.01428168
v 0.00582943 -0.17931297 0.01429431
v -0.00582233 -0.18120579 -0.02762383
v -0.00192843 -0.18167329 -0.02762383
v 0.00194152 -0.18167329 -0.02762383
v 0.00582943 -0.17958663 -0.03133250
v 0.00877682 -0.17908491 -0.03065132
v 0.00947772 -0.17956382 -0.02762383
v 0.00972933 -0.18033919 -0.01984066
v 0.00972933 -0.18072687 -0.01596799
v -0.00970425 -0.18126280 -0.01207010
v -0.00970425 -0.18092071 -0.01596799
v -0.00970425 -0.18053303 -0.01984066
v -0.00970425 -0.18008833 -0.02372594
v -0.01873811 -0.17793325 0.01126682
v -0.01879203 -0.17778502 0.00738153
v -0.01645569 -0.17918754 0.00349626
v -0.01302306 -0.17947260 -0.01207010
v -0.01359816 -0.18045322 -0.00040164
v -0.00970425 -0.17752276 0.01623694
v -0.01359816 -0.17746575 0.01608557
v -0.01657550 -0.17516243 0.01752364
v -0.01769575 -0.17661055 0.01534131
v -0.02017586 -0.17545891 0.01433216
v 0.01838578 -0.17724910 0.00738153
v 0.01833186 -0.17744295 0.01126682
v 0.01314398 -0.17952961 -0.00818482
v 0.01279053 -0.17933577 -0.01207010
v 0.01560014 -0.17851478 -0.00259657
v 0.01990140 -0.17516243 0.01399156
v 0.01741530 -0.17640531 0.01508902
v 0.01626510 -0.17507122 0.01746055
v 0.01361125 -0.17738592 0.01597204
v 0.00972933 -0.17752276 0.01622433
v 0.00582943 -0.17752276 0.01623694
v -0.00994388 -0.17941558 -0.02738416
v -0.00881165 -0.17910772 -0.03067655
v -0.00582233 -0.17959803 -0.03135773
v -0.00192843 -0.17975766 -0.03147127
v 0.00194152 -0.17975766 -0.03147127
v 0.00582943 -0.17834375 -0.03327515
v 0.01142467 -0.17825252 -0.02762383
v 0.00972933 -0.17567555 -0.03439784
v 0.00993900 -0.17763679 -0.03177402
v 0.01164633 -0.17844637 -0.02552981
v 0.01009475 -0.17964364 -0.02404130
v -0.01262768 -0.17923314 -0.01596799
v -0.01189682 -0.17868582 -0.02372594
v -0.01169913 -0.17851478 -0.02593348
v -0.02054129 -0.17599482 0.01126682
v -0.02034959 -0.17584659 0.00738153
v -0.01528752 -0.17822972 -0.00889123
v -0.01555709 -0.17848057 -0.00630525
v -0.00582233 -0.17558433 0.01777593
v -0.00970425 -0.17557293 0.01777593
v -0.01359816 -0.17551592 0.01775069
v -0.01359816 -0.17263107 0.01916352
v -0.01772570 -0.17289333 0.01825528
v -0.01917543 -0.17437565 0.01691814
v -0.02143988 -0.17259686 0.01513947
v -0.02338085 -0.17082947 0.01336083
v 0.01994334 -0.17531067 0.00738153
v 0.02012306 -0.17550451 0.01126682
v 0.01536650 -0.17828673 -0.00519517
v 0.01509093 -0.17799026 -0.00818482
v 0.01244308 -0.17909631 -0.01596799
v 0.01185600 -0.17862880 -0.02293122
v 0.02059033 -0.17266528 0.01521517
v 0.01985348 -0.17139960 0.01747316
v 0.01885304 -0.17398797 0.01657754
v 0.02161472 -0.17263107 0.01126682
v 0.01753511 -0.17266528 0.01809128
v 0.01361125 -0.17263107 0.01910045
v 0.01361125 -0.17543609 0.01770023
v 0.00972933 -0.17557293 0.01777593
v 0.00582943 -0.17558433 0.01777593
v -0.01140559 -0.17827534 -0.02851946
v -0.00994388 -0.17770520 -0.03177402
v -0.00970425 -0.17572116 -0.03443568
v -0.00582233 -0.17834375 -0.03328776
v -0.00192843 -0.17844637 -0.03341391
v 0.00194152 -0.17844637 -0.03341391
v 0.00090514 -0.11647350 -0.10361385
v 0.01244308 -0.17558433 -0.03149650
v 0.01298823 -0.17631410 -0.02762383
v 0.01193987 -0.17490017 -0.03375450
v -0.02262004 -0.17232320 0.01127943
v -0.02200899 -0.17263107 0.00738153
v -0.01997218 -0.17535627 0.00349626
v -0.01613818 -0.17543609 -0.01596799
v -0.01651559 -0.17592640 -0.01207010
v -0.01496402 -0.17786484 -0.01207010
v -0.00970425 -0.17263107 0.01920137
v -0.01359816 -0.16874279 0.02010962
v -0.01748607 -0.16874279 0.01955456
v -0.02011596 -0.17177588 0.01766239
v -0.02411170 -0.16485452 0.01126682
v -0.02338085 -0.17082947 0.01257873
v -0.02256013 -0.16874279 0.01573236
v -0.02355458 -0.16874279 0.01378972
v 0.01966777 -0.17491158 0.00412698
v 0.02118939 -0.17263107 0.00738153
v 0.01663651 -0.17605184 -0.00818482
v 0.01595358 -0.17516243 -0.01596799
v 0.02193223 -0.16874279 0.01516471
v 0.02020693 -0.16874279 0.01778854
v 0.01750515 -0.16874279 0.01925183
v 0.02275893 -0.16874279 0.01126682
v 0.01361125 -0.16874279 0.02008438
v 0.00972933 -0.17263107 0.01920137
v -0.01282537 -0.17679300 -0.02738416
v -0.01251386 -0.17567555 -0.03149650
v -0.01196272 -0.17494578 -0.03377973
v -0.00067040 -0.11647350 -0.10361385
v -0.00193442 -0.06609702 -0.10873536
v 0.00584141 -0.06609702 -0.10872275
v 0.01349144 -0.06609702 -0.10789019
v 0.01734940 -0.06609702 -0.10408059
v 0.00404423 -0.11645069 -0.10040976
v 0.01410847 -0.17263107 -0.03149650
v 0.01503702 -0.17257406 -0.02787612
v 0.01528263 -0.17389675 -0.02372594
v 0.01549231 -0.17440987 -0.02139225
v 0.01570797 -0.17480896 -0.01880626
v 0.01259284 -0.17263107 -0.03462491
v -0.02326104 -0.17037336 0.00998012
v -0.01966067 -0.17134258 -0.00742794
v -0.01997218 -0.17214076 -0.00429953
v -0.01922935 -0.17407920 -0.00429953
v -0.01942105 -0.17455810 -0.00230644
v -0.01557507 -0.17462651 -0.02195990
v 0.00972933 -0.16874279 0.02013484
v -0.00970425 -0.16874279 0.02012223
v -0.01359816 -0.16485452 0.01998347
v -0.01748607 -0.16485452 0.01947889
v -0.02064912 -0.16485452 0.01804083
v -0.02061917 -0.16874279 0.01805344
v -0.02360849 -0.16893664 0.01127943
v -0.02370434 -0.16485452 0.01406724
v -0.02420755 -0.16096626 0.01126682
v -0.02725678 -0.12054421 -0.00991301
v -0.02925765 -0.11430701 -0.03930490
v -0.02259608 -0.16485452 0.01600989
v 0.01945211 -0.17458090 0.00154100
v 0.02228567 -0.16874279 0.00738153
v 0.02000924 -0.17220918 -0.00040164
v 0.01966777 -0.17130837 -0.00429953
v 0.01948206 -0.17078385 -0.00643139
v 0.02211793 -0.16485452 0.01516471
v 0.02322021 -0.16476330 0.01143080
v 0.02314832 -0.16096626 0.01245258
v 0.02023089 -0.16485452 0.01777593
v 0.01750515 -0.16485452 0.01920137
v 0.02341790 -0.16340641 0.00888266
v 0.02341790 -0.16340641 0.01024504
v 0.01361125 -0.16485452 0.01995824
v -0.01531747 -0.17404498 -0.02453327
v -0.01450274 -0.17228899 -0.03119375
v -0.01503591 -0.17325820 -0.02762383
v -0.01396359 -0.16874279 -0.03539439
v -0.00392330 -0.11631386 -0.09989256
v -0.01580870 -0.06609702 -0.10549342
v -0.01438293 -0.06609702 -0.10654043
v -0.01245994 -0.06609702 -0.10733514
v -0.01187885 -0.06609702 -0.10754959
v -0.00971025 -0.06609702 -0.10821816
v -0.00582233 -0.06609702 -0.10872275
v 0.01885304 -0.06609702 -0.10023316
v 0.01553424 -0.15113725 -0.04501929
v 0.01544438 -0.16228896 -0.03680722
v 0.01512688 -0.16507118 -0.03547008
v 0.01531259 -0.16900505 -0.03174879
v 0.01552825 -0.17047599 -0.02935202
v 0.01574990 -0.17123995 -0.02675343
v 0.01893691 -0.17325820 -0.00429953
v -0.01941505 -0.17057860 -0.01002654
v -0.02761023 -0.11691820 -0.04640689
v -0.01556907 -0.17076105 -0.02966739
v -0.01576677 -0.17130837 -0.02762383
v 0.00972933 -0.16485452 0.01998347
v -0.01359816 -0.16096626 0.01887339
v -0.01748607 -0.16096626 0.01840665
v -0.00192843 -0.14682709 0.01590897
v -0.02000214 -0.16096626 0.01752364
v -0.02194909 -0.16096626 0.01564406
v -0.02357854 -0.16096626 0.01368881
v -0.02728074 -0.11526483 -0.00993824
v -0.02729273 -0.11818388 -0.00982470
v -0.03067742 -0.06609702 -0.03553315
v -0.03063549 -0.06763637 -0.03540700
v -0.03051568 -0.06609702 -0.03922921
v -0.02979081 -0.06609702 -0.04319018
v -0.01973855 -0.06609702 -0.09776070
v -0.02340481 -0.15865154 0.01333560
v 0.02296261 -0.16476330 0.00750768
v 0.01925442 -0.16958659 -0.00902999
v 0.01818809 -0.16874279 -0.01596799
v 0.01948206 -0.16699821 -0.01031667
v 0.02111750 -0.16078382 0.01545485
v 0.01989541 -0.16194687 0.01747316
v 0.02272299 -0.15707799 0.01203630
v 0.02353172 -0.16096626 0.01049733
v 0.02359762 -0.15707799 0.01009366
v 0.02347781 -0.15318972 0.00961430
v 0.02335799 -0.15117146 0.00934940
v 0.01766690 -0.16078382 0.01800299
v 0.02729383 -0.10889080 -0.01826384
v 0.02726388 -0.11267645 -0.01430287
v 0.02726388 -0.11267645 -0.01382351
v 0.01361125 -0.16096626 0.01882292
v 0.00194152 -0.14682709 0.01589635
v -0.01531747 -0.16874279 -0.03255612
v -0.01830679 -0.06609702 -0.10146938
v -0.01647965 -0.06609702 -0.10463563
v 0.02026683 -0.06609702 -0.09492243
v 0.01552226 -0.16651929 -0.03321208
v -0.00197635 -0.13367995 0.01182185
v -0.00454633 -0.13497984 0.01182185
v -0.01946897 -0.15897081 0.01711997
v 0.00200142 -0.13369135 0.01182185
v -0.02318915 -0.12811550 0.00144009
v -0.02327901 -0.14748844 0.00926110
v -0.02300943 -0.15606316 0.01280578
v -0.02718489 -0.11267645 -0.01025360
v -0.03013228 -0.07152464 -0.03152173
v -0.02982077 -0.06763637 -0.03152173
v -0.02955718 -0.06609702 -0.03152173
v -0.02737659 -0.09224308 -0.01767095
v -0.02717291 -0.10092042 -0.01412626
v -0.02737659 -0.10350879 -0.01369737
v 0.01925442 -0.16555008 -0.01291527
v 0.01952998 -0.15112585 0.01325991
v 0.01908069 -0.15935849 0.01695597
v 0.02327413 -0.13980312 0.00533798
v 0.02351375 -0.13126261 0.00174283
v 0.02328611 -0.12022494 -0.00239474
v 0.02731780 -0.11041874 -0.01368476
v 0.02729383 -0.10653047 -0.01382351
v 0.02723393 -0.10451222 -0.01401274
v 0.02726388 -0.09276759 -0.01786017
v 0.00455942 -0.13499124 0.01182185
v 0.00418201 -0.13470618 0.01182185
v 0.03010942 -0.06763637 -0.03930490
v 0.03032509 -0.06609702 -0.03930490
v 0.03008546 -0.07152464 -0.03540700
v 0.03052278 -0.06609702 -0.03694598
v 0.03043292 -0.06763637 -0.03540700
v 0.02094377 -0.06609702 -0.09180664
v -0.01360415 -0.06609702 -0.02370070
v -0.01595847 -0.06609702 -0.02372594
v -0.01749206 -0.06609702 -0.02375116
v -0.01984638 -0.06609702 -0.02401607
v -0.02137998 -0.06609702 -0.02434405
v 0.01361724 -0.06609702 -0.02370070
v -0.02306334 -0.06609702 -0.02489909
v -0.02345872 -0.11983725 -0.00223074
v -0.02394397 -0.06609702 -0.02529014
v -0.02511813 -0.06609702 -0.02603440
v 0.02139906 -0.06609702 -0.02438189
v 0.01751115 -0.06609702 -0.02375116
v -0.02692730 -0.07013353 -0.02593348
v -0.02725678 -0.08111418 -0.02174545
v -0.02349467 -0.13907335 0.00562812
v -0.02813141 -0.06763637 -0.02839332
v -0.02792773 -0.06609702 -0.02868345
v -0.02751438 -0.08318945 -0.02137963
v 0.02387319 -0.06609702 -0.02532798
v 0.02716803 -0.08145626 -0.02188422
v 0.02740166 -0.07293855 -0.02547935
v 0.02685652 -0.07035018 -0.02602178
v 0.02581415 -0.06609702 -0.02684173
v 0.03045688 -0.06609702 -0.03540700
v 0.02991174 -0.07152464 -0.03152173
v 0.02996565 -0.06609702 -0.03306070
v 0.02962418 -0.06763637 -0.03152173
v 0.02937258 -0.06609702 -0.03152173
v 0.02747954 -0.08405604 -0.02141747
v 0.03007348 -0.06609702 -0.04083126
v -0.02588493 -0.06609702 -0.02674081
v -0.02711899 -0.06609702 -0.02790135
v -0.02746645 -0.07273331 -0.02539106
v 0.02770719 -0.07541291 -0.02502523
v 0.02785096 -0.06609702 -0.02878437
v 0.02841408 -0.06609702 -0.02970523
v 0.02804266 -0.06763637 -0.02850685
f 1 2 7
f 1 7 3
f 1 3 4
f 1 4 5
f 1 5 8
f 1 8 2
f 2 6 7
f 2 8 6
f 3 7 18
f 3 18 9
f 3 9 4
f 4 10 11
f 4 11 14
f 4 14 5
f 4 9 12
f 4 12 13
f 4 13 10
f 5 14 8
f 6 15 16
f 6 16 17
f 6 17 18
f 6 18 7
f 6 8 19
f 6 19 20
f 6 20 15
f 8 14 19
f 9 18 33
f 9 33 21
f 9 21 12
f 10 22 23
f 10 23 24
f 10 24 25
f 10 25 11
f 10 13 22
f 11 25 26
f 11 26 14
f 12 21 38
f 12 38 27
f 12 27 13
f 13 27 28
f 13 28 22
f 14 26 19
f 15 20 29
f 15 29 30
f 15 30 16
f 16 30 31
f 16 31 32
f 16 32 17
f 17 32 33
f 17 33 18
f 19 26 34
f 19 34 35
f 19 35 36
f 19 36 37
f 19 37 20
f 20 37 29
f 21 33 53
f 21 53 38
f 22 39 40
f 22 40 23
f 22 28 41
f 22 41 39
f 23 40 42
f 23 42 43
f 23 43 24
f 24 43 26
f 24 26 25
f 26 42 34
f 26 43 42
f 27 38 44
f 27 44 45
f 27 45 28
f 28 45 46
f 28 46 41
f 29 47 30
f 29 37 36
f 29 36 47
f 30 47 48
f 30 48 49
f 30 49 50
f 30 50 31
f 31 50 51
f 31 51 52
f 31 52 32
f 32 53 33
f 32 52 54
f 32 54 53
f 34 42 55
f 34 55 56
f 34 56 35
f 35 56 36
f 36 56 57
f 36 57 58
f 36 58 59
f 36 59 47
f 38 53 54
f 38 54 44
f 39 60 61
f 39 61 40
f 39 41 60
f 40 61 62
f 40 62 63
f 40 63 42
f 41 46 64
f 41 64 65
f 41 65 66
f 41 66 60
f 42 63 55
f 44 54 67
f 44 67 45
f 45 67 68
f 45 68 46
f 46 68 69
f 46 69 64
f 47 59 48
f 48 59 49
f 49 70 50
f 49 59 58
f 49 58 70
f 50 71 72
f 50 72 51
f 50 70 73
f 50 73 74
f 50 74 71
f 51 72 75
f 51 75 76
f 51 76 52
f 52 76 77
f 52 77 54
f 54 77 78
f 54 78 67
f 55 63 79
f 55 79 80
f 55 80 81
f 55 81 56
f 56 81 57
f 57 81 82
f 57 82 83
f 57 83 84
f 57 84 58
f 58 85 86
f 58 86 73
f 58 73 70
f 58 84 85
f 60 66 87
f 60 87 63
f 60 63 61
f 61 63 62
f 63 87 88
f 63 88 89
f 63 89 90
f 63 90 79
f 64 91 65
f 64 69 91
f 65 91 92
f 65 92 93
f 65 93 94
f 65 94 95
f 65 95 66
f 66 95 89
f 66 89 88
f 66 88 87
f 67 78 111
f 67 111 96
f 67 96 97
f 67 97 68
f 68 97 69
f 69 97 98
f 69 98 99
f 69 99 100
f 69 100 91
f 71 101 102
f 71 102 72
f 71 74 103
f 71 103 104
f 71 104 105
f 71 105 101
f 72 102 75
f 73 86 74
f 74 86 85
f 74 85 103
f 75 106 107
f 75 107 108
f 75 108 109
f 75 109 76
f 75 102 106
f 76 109 77
f 77 109 110
f 77 110 111
f 77 111 78
f 79 112 113
f 79 113 114
f 79 114 80
f 79 90 112
f 80 114 115
f 80 115 116
f 80 116 81
f 81 116 82
f 82 116 117
f 82 117 83
f 83 118 84
f 83 117 119
f 83 119 120
f 83 120 118
f 84 118 121
f 84 121 122
f 84 122 85
f 85 104 103
f 85 122 104
f 89 95 94
f 89 94 90
f 90 94 123
f 90 123 124
f 90 124 125
f 90 125 112
f 91 126 92
f 91 100 126
f 92 126 127
f 92 127 128
f 92 128 129
f 92 129 93
f 93 129 123
f 93 123 94
f 96 111 152
f 96 152 130
f 96 130 131
f 96 131 132
f 96 132 97
f 97 132 98
f 98 132 133
f 98 133 134
f 98 134 135
f 98 135 99
f 99 135 100
f 100 135 136
f 100 136 137
f 100 137 126
f 101 138 139
f 101 139 102
f 101 105 140
f 101 140 141
f 101 141 138
f 102 139 106
f 104 122 142
f 104 142 105
f 105 142 143
f 105 143 121
f 105 121 140
f 106 144 145
f 106 145 146
f 106 146 107
f 106 139 147
f 106 147 144
f 107 146 108
f 108 146 145
f 108 145 148
f 108 148 149
f 108 149 150
f 108 150 109
f 109 150 110
f 110 150 151
f 110 151 111
f 111 151 152
f 112 125 153
f 112 153 113
f 113 153 154
f 113 154 155
f 113 155 156
f 113 156 114
f 114 156 115
f 115 156 157
f 115 157 158
f 115 158 116
f 116 158 117
f 117 158 159
f 117 159 119
f 118 120 160
f 118 160 161
f 118 161 121
f 119 162 120
f 119 159 162
f 120 162 160
f 121 143 122
f 121 161 141
f 121 141 140
f 122 143 142
f 123 129 124
f 124 129 125
f 125 129 128
f 125 128 153
f 126 137 163
f 126 163 127
f 127 163 164
f 127 164 165
f 127 165 166
f 127 166 167
f 127 167 168
f 127 168 128
f 128 168 153
f 130 152 186
f 130 186 169
f 130 169 131
f 131 169 133
f 131 133 132
f 133 169 170
f 133 170 171
f 133 171 134
f 134 172 135
f 134 171 172
f 135 172 136
f 136 172 137
f 137 173 174
f 137 174 163
f 137 172 175
f 137 175 176
f 137 176 173
f 138 177 178
f 138 178 147
f 138 147 139
f 138 141 179
f 138 179 180
f 138 180 177
f 141 161 179
f 144 147 181
f 144 181 145
f 145 181 182
f 145 182 183
f 145 183 148
f 147 178 184
f 147 184 181
f 148 183 149
f 149 183 185
f 149 185 186
f 149 186 151
f 149 151 150
f 151 186 152
f 153 168 187
f 153 187 188
f 153 188 189
f 153 189 154
f 154 189 155
f 155 189 190
f 155 190 156
f 156 190 157
f 157 190 159
f 157 159 158
f 159 190 191
f 159 191 192
f 159 192 193
f 159 193 194
f 159 194 195
f 159 195 162
f 160 162 196
f 160 196 197
f 160 197 161
f 161 197 198
f 161 198 199
f 161 199 200
f 161 200 180
f 161 180 179
f 162 195 201
f 162 201 196
f 163 174 202
f 163 202 164
f 164 202 203
f 164 203 204
f 164 204 205
f 164 205 206
f 164 206 165
f 165 206 207
f 165 207 166
f 166 207 187
f 166 187 167
f 167 187 168
f 169 186 208
f 169 208 209
f 169 209 170
f 170 209 210
f 170 210 211
f 170 211 171
f 171 211 212
f 171 212 213
f 171 213 172
f 172 213 175
f 173 214 174
f 173 176 215
f 173 215 216
f 173 216 217
f 173 217 218
f 173 218 214
f 174 214 218
f 174 218 202
f 175 213 219
f 175 219 215
f 175 215 176
f 177 220 178
f 177 180 220
f 178 221 184
f 178 220 222
f 178 222 223
f 178 223 224
f 178 224 221
f 180 200 220
f 181 225 182
f 181 184 226
f 181 226 227
f 181 227 225
f 182 228 183
f 182 225 228
f 183 229 185
f 183 228 229
f 184 221 230
f 184 230 231
f 184 231 226
f 185 232 208
f 185 208 186
f 185 229 232
f 187 207 233
f 187 233 188
f 188 234 189
f 188 233 235
f 188 235 234
f 189 234 236
f 189 236 237
f 189 237 190
f 190 237 238
f 190 238 239
f 190 239 240
f 190 240 241
f 190 241 242
f 190 242 243
f 190 243 191
f 191 243 242
f 191 242 241
f 191 241 240
f 191 240 239
f 191 239 238
f 191 238 290
f 191 290 289
f 191 289 269
f 191 269 268
f 191 268 267
f 191 267 265
f 191 265 303
f 191 303 341
f 191 341 356
f 191 356 355
f 191 355 334
f 191 334 333
f 191 333 331
f 191 331 329
f 191 329 328
f 191 328 327
f 191 327 326
f 191 326 325
f 191 325 330
f 191 330 336
f 191 336 335
f 191 335 343
f 191 343 347
f 191 347 359
f 191 359 360
f 191 360 352
f 191 352 350
f 191 350 348
f 191 348 322
f 191 322 320
f 191 320 354
f 191 354 324
f 191 324 291
f 191 291 244
f 191 244 194
f 191 194 193
f 191 193 192
f 194 244 195
f 195 244 245
f 195 245 246
f 195 246 247
f 195 247 196
f 195 196 201
f 196 248 249
f 196 249 197
f 196 247 248
f 197 249 250
f 197 250 198
f 198 250 251
f 198 251 220
f 198 220 199
f 199 220 200
f 202 252 203
f 202 218 253
f 202 253 252
f 203 252 254
f 203 254 255
f 203 255 204
f 204 255 235
f 204 235 205
f 205 235 233
f 205 233 206
f 206 233 207
f 208 256 210
f 208 210 209
f 208 232 256
f 210 257 258
f 210 258 211
f 210 256 259
f 210 259 257
f 211 258 260
f 211 260 212
f 212 260 261
f 212 261 219
f 212 219 213
f 215 262 263
f 215 263 216
f 215 219 262
f 216 263 264
f 216 264 217
f 217 264 265
f 217 265 266
f 217 266 218
f 218 266 265
f 218 265 267
f 218 267 268
f 218 268 269
f 218 269 253
f 219 261 270
f 219 270 262
f 220 251 222
f 221 271 230
f 221 224 272
f 221 272 273
f 221 273 274
f 221 274 271
f 222 251 223
f 223 251 250
f 223 250 224
f 224 250 249
f 224 249 272
f 225 275 276
f 225 276 228
f 225 227 277
f 225 277 275
f 226 231 278
f 226 278 227
f 227 278 279
f 227 279 280
f 227 280 281
f 227 281 277
f 228 276 229
f 229 276 282
f 229 282 232
f 230 271 283
f 230 283 284
f 230 284 285
f 230 285 231
f 231 285 278
f 232 282 286
f 232 286 287
f 232 287 256
f 234 288 236
f 234 235 254
f 234 254 288
f 235 255 254
f 236 288 237
f 237 288 253
f 237 253 289
f 237 289 290
f 237 290 238
f 244 291 292
f 244 292 246
f 244 246 245
f 246 292 247
f 247 292 248
f 248 292 249
f 249 292 273
f 249 273 272
f 252 253 254
f 253 269 289
f 253 288 254
f 256 287 259
f 257 259 258
f 258 259 293
f 258 293 294
f 258 294 295
f 258 295 260
f 259 287 296
f 259 296 293
f 260 295 297
f 260 297 298
f 260 298 299
f 260 299 261
f 261 299 270
f 262 270 300
f 262 300 263
f 263 300 301
f 263 301 264
f 264 301 265
f 265 301 302
f 265 302 303
f 270 299 298
f 270 298 304
f 270 304 305
f 270 305 306
f 270 306 300
f 271 274 283
f 273 292 274
f 274 292 307
f 274 307 283
f 275 277 281
f 275 281 276
f 276 308 309
f 276 309 282
f 276 281 310
f 276 310 311
f 276 311 312
f 276 312 308
f 278 285 313
f 278 313 279
f 279 313 314
f 279 314 315
f 279 315 280
f 280 315 281
f 281 315 316
f 281 316 310
f 282 309 317
f 282 317 318
f 282 318 286
f 283 307 292
f 283 292 319
f 283 319 320
f 283 320 321
f 283 321 284
f 284 321 322
f 284 322 323
f 284 323 285
f 285 323 313
f 286 318 296
f 286 296 287
f 291 324 292
f 292 324 319
f 293 325 326
f 293 326 327
f 293 327 328
f 293 328 329
f 293 329 294
f 293 296 330
f 293 330 325
f 294 329 331
f 294 331 295
f 295 332 297
f 295 331 333
f 295 333 334
f 295 334 332
f 296 318 335
f 296 335 336
f 296 336 330
f 297 332 337
f 297 337 338
f 297 338 339
f 297 339 298
f 298 339 338
f 298 338 304
f 300 306 302
f 300 302 301
f 302 306 305
f 302 305 303
f 303 305 304
f 303 304 340
f 303 340 341
f 304 338 342
f 304 342 340
f 308 317 309
f 308 312 343
f 308 343 335
f 308 335 317
f 310 316 344
f 310 344 311
f 311 344 345
f 311 345 312
f 312 345 346
f 312 346 347
f 312 347 343
f 313 323 348
f 313 348 349
f 313 349 314
f 314 349 315
f 315 349 350
f 315 350 351
f 315 351 316
f 316 351 352
f 316 352 353
f 316 353 344
f 317 335 318
f 319 324 354
f 319 354 320
f 320 322 321
f 322 348 323
f 332 334 337
f 334 355 337
f 337 355 356
f 337 356 341
f 337 341 357
f 337 357 338
f 338 357 341
f 338 341 340
f 338 340 342
f 344 353 358
f 344 358 345
f 345 358 359
f 345 359 346
f 346 359 347
f 348 350 349
f 350 352 351
f 352 360 353
f 353 360 358
f 358 360 361
f 358 361 359
f 359 361 360

