# https://github.com/mikedh/trimesh
v 0.01088476 0.00628268 -0.10022588
v 0.01056101 0.00261959 -0.10022588
v 0.01084429 0.01006354 -0.10022588
v 0.01002428 0.00628065 -0.05582801
v 0.01052055 0.00238405 -0.10018676
v 0.00938318 -0.00114909 -0.10018676
v 0.00584541 -0.00233289 -0.10018676
v 0.00194982 -0.00290956 -0.10018676
v -0.01055909 0.00261959 -0.10022588
v 0.01084003 0.01016710 -0.10022588
v 0.00986454 0.01016507 -0.05582801
v 0.00907434 0.00359628 -0.05582801
v 0.00875486 0.00270284 -0.05582801
v 0.00749396 0.00075962 -0.05582801
v 0.00555149 -0.00062317 -0.05582801
v 0.00465267 -0.00098867 -0.05582801
v 0.00194982 -0.00207298 -0.05582801
v 0.00175813 -0.00290956 -0.10018676
v -0.01056548 0.00268863 -0.10022588
v -0.00193512 -0.00290753 -0.10018676
v -0.00210551 -0.00289332 -0.10018676
v -0.00574551 -0.00235929 -0.10018676
v -0.00929606 -0.00128513 -0.10018676
v -0.00949627 -0.00108005 -0.10018676
v -0.01050158 0.00238405 -0.10018676
v -0.01053779 0.00251603 -0.10018676
v -0.01002875 0.00628065 -0.05582801
v 0.00976443 0.01409619 -0.10022588
v 0.00954718 0.01095698 -0.05582801
v 0.00973248 0.01417944 -0.10022588
v 0.00096794 -0.00207298 -0.05582801
v -0.01087432 0.00628268 -0.10022588
v -0.00193512 -0.00207095 -0.05582801
v -0.00553039 -0.00062317 -0.05582801
v -0.00698299 0.00040224 -0.05582801
v -0.00747712 0.00076165 -0.05582801
v -0.00780513 0.00125304 -0.05582801
v -0.00874654 0.00270487 -0.05582801
v -0.00990947 0.00918026 -0.05582801
v -0.01082959 0.01016710 -0.10022588
v 0.00859511 0.01330021 -0.05582801
v 0.00833101 0.01654705 -0.10022588
v -0.00986474 0.01016507 -0.05582801
v -0.00971352 0.01417538 -0.10022588
v 0.00698065 0.01524547 -0.05582801
v 0.00720429 0.01715215 -0.10022588
v 0.00503392 0.01672167 -0.05582801
v -0.00858467 0.01330021 -0.05582801
v -0.00666563 0.01715215 -0.10022588
v -0.00818212 0.01379161 -0.05582801
v -0.00696808 0.01524547 -0.05582801
v -0.00193086 0.01777958 -0.09311161
v 0.00132363 0.01777349 -0.09311161
v 0.00194769 0.01776943 -0.09311161
v 0.00194769 0.01777755 -0.08984349
v 0.00194982 0.01782425 -0.05582801
v 0.00272937 0.01754810 -0.05582801
v -0.00551548 0.01636023 -0.05582801
v -0.00502348 0.01672979 -0.05582801
v -0.00193512 0.01783237 -0.05582801
v -0.00193086 0.01778567 -0.08984349
f 1 2 9
f 1 9 19
f 1 19 32
f 1 32 40
f 1 40 44
f 1 44 49
f 1 49 46
f 1 46 42
f 1 42 30
f 1 30 28
f 1 28 10
f 1 10 3
f 1 3 4
f 1 4 2
f 2 5 6
f 2 6 7
f 2 7 8
f 2 8 18
f 2 18 9
f 2 4 5
f 3 10 11
f 3 11 4
f 4 11 29
f 4 29 41
f 4 41 45
f 4 45 47
f 4 47 57
f 4 57 56
f 4 56 60
f 4 60 59
f 4 59 58
f 4 58 51
f 4 51 50
f 4 50 48
f 4 48 43
f 4 43 39
f 4 39 27
f 4 27 38
f 4 38 37
f 4 37 36
f 4 36 35
f 4 35 34
f 4 34 33
f 4 33 31
f 4 31 17
f 4 17 16
f 4 16 15
f 4 15 14
f 4 14 13
f 4 13 12
f 4 12 6
f 4 6 5
f 6 12 13
f 6 13 14
f 6 14 15
f 6 15 16
f 6 16 17
f 6 17 7
f 7 17 8
f 8 17 31
f 8 31 18
f 9 18 20
f 9 20 21
f 9 21 22
f 9 22 23
f 9 23 24
f 9 24 25
f 9 25 26
f 9 26 27
f 9 27 19
f 10 28 11
f 11 28 30
f 11 30 29
f 18 31 20
f 19 27 32
f 20 31 33
f 20 33 21
f 21 33 22
f 22 33 23
f 23 33 34
f 23 34 35
f 23 35 36
f 23 36 24
f 24 36 37
f 24 37 38
f 24 38 27
f 24 27 25
f 25 27 26
f 27 39 40
f 27 40 32
f 29 30 41
f 30 42 41
f 39 43 40
f 40 43 44
f 41 42 45
f 42 46 47
f 42 47 45
f 43 48 44
f 44 48 50
f 44 50 51
f 44 51 49
f 46 49 52
f 46 52 53
f 46 53 54
f 46 54 55
f 46 55 56
f 46 56 57
f 46 57 47
f 49 51 58
f 49 58 59
f 49 59 60
f 49 60 61
f 49 61 52
f 52 61 53
f 53 61 55
f 53 55 54
f 55 61 56
f 56 61 60

