# https://github.com/mikedh/trimesh
v -0.03550891 -0.01849030 -0.22256792
v -0.03831146 -0.01849030 -0.22412304
v -0.03550891 -0.02096145 -0.22429732
v -0.03392968 -0.02847227 -0.23308286
v -0.03377474 -0.02877827 -0.23368167
v -0.03373181 -0.02847227 -0.23369061
v -0.03364345 -0.02847227 -0.23799846
v -0.03550891 -0.01849030 -0.23240807
v -0.03858587 -0.01849030 -0.22453863
v -0.03848568 -0.01867575 -0.22435094
v -0.03886463 -0.02287161 -0.22796168
v -0.03894489 -0.05410643 -0.25506904
v -0.03694316 -0.06068536 -0.26003826
v -0.03613737 -0.05057356 -0.25087736
v -0.03570740 -0.04648434 -0.24716384
v -0.03516481 -0.04239975 -0.24345032
v -0.03305419 -0.06331414 -0.26199111
v -0.03296210 -0.06331414 -0.26199557
v -0.03320228 -0.04040150 -0.24543443
v -0.03369323 -0.02847227 -0.23824425
v -0.03310335 -0.04428673 -0.24932671
v -0.03296210 -0.06032836 -0.26796133
v -0.03851057 -0.01929238 -0.23154114
v -0.03796736 -0.01849030 -0.23110768
v -0.03419848 -0.02944126 -0.24066183
v -0.03498001 -0.05398589 -0.26294741
v -0.03505530 -0.05398589 -0.26294741
v -0.03561905 -0.04989666 -0.25923389
v -0.03892809 -0.04227457 -0.25132869
v -0.03924294 -0.01849030 -0.22625910
v -0.03921432 -0.02027991 -0.22694281
v -0.03897663 -0.02694693 -0.23168861
v -0.03902703 -0.05816320 -0.25881830
v -0.03694316 -0.06280415 -0.26198216
v -0.03305419 -0.06526139 -0.26400203
v -0.03296210 -0.06526139 -0.26399757
v -0.03296210 -0.05999918 -0.26102586
v -0.03296210 -0.05873811 -0.26516390
v -0.03296210 -0.06373141 -0.26822052
v -0.03305419 -0.06031909 -0.26796133
v -0.03873520 -0.01849030 -0.23052674
v -0.03619275 -0.06066217 -0.26757255
v -0.03658662 -0.05594241 -0.26393947
v -0.03865680 -0.04642870 -0.25496179
v -0.03916019 -0.05723594 -0.26347472
v -0.03901396 -0.03822243 -0.24758836
v -0.03924606 -0.01849030 -0.22707241
v -0.03930890 -0.02475859 -0.23386935
v -0.03931326 -0.03642818 -0.24159579
v -0.03911787 -0.03507438 -0.23918268
v -0.03905503 -0.03101297 -0.23543788
v -0.03928028 -0.03243168 -0.23779737
v -0.03921868 -0.02843518 -0.23399001
v -0.03916703 -0.03915433 -0.24292748
v -0.03924855 -0.05961437 -0.26117332
v -0.03907681 -0.06207625 -0.26258991
v -0.03918819 -0.05562251 -0.25735256
v -0.03510321 -0.06572966 -0.26646431
v -0.03305419 -0.06585484 -0.26594594
v -0.03296210 -0.06585484 -0.26594146
v -0.03296210 -0.06585484 -0.26708100
v -0.03305419 -0.06585484 -0.26707652
v -0.03305419 -0.06373141 -0.26821158
v -0.03920623 -0.02188871 -0.23263599
v -0.03916205 -0.01849030 -0.22907441
v -0.03908739 -0.03415175 -0.24384357
v -0.03914277 -0.03008571 -0.24009877
v -0.03923361 -0.05984155 -0.26406907
v -0.03597372 -0.06373141 -0.26744742
v -0.03764691 -0.05464424 -0.26233966
v -0.03821128 -0.05055038 -0.25862614
v -0.03931886 -0.05594241 -0.26102138
v -0.03919254 -0.05314208 -0.25974780
v -0.03925041 -0.03675736 -0.24526016
v -0.03918197 -0.02600112 -0.23635844
v -0.03931761 -0.02847227 -0.23738178
v -0.03931761 -0.04042932 -0.24538976
v -0.03919690 -0.04324356 -0.24664993
v -0.03907681 -0.06207625 -0.26390819
v -0.03510321 -0.06572966 -0.26690671
v -0.03929957 -0.03276550 -0.24145727
v -0.03931761 -0.02876899 -0.23765884
f 1 2 3
f 1 3 4
f 1 4 5
f 1 5 6
f 1 6 7
f 1 7 8
f 1 8 24
f 1 24 41
f 1 41 65
f 1 65 47
f 1 47 30
f 1 30 9
f 1 9 2
f 2 9 10
f 2 10 3
f 3 10 11
f 3 11 12
f 3 12 13
f 3 13 14
f 3 14 15
f 3 15 16
f 3 16 17
f 3 17 18
f 3 18 4
f 4 18 5
f 5 18 6
f 6 18 19
f 6 19 7
f 7 20 8
f 7 19 21
f 7 21 22
f 7 22 20
f 8 23 24
f 8 20 25
f 8 25 22
f 8 22 26
f 8 26 27
f 8 27 28
f 8 28 29
f 8 29 23
f 9 30 10
f 10 31 11
f 10 30 31
f 11 32 12
f 11 31 32
f 12 33 13
f 12 32 33
f 13 33 34
f 13 34 17
f 13 17 14
f 14 17 15
f 15 17 16
f 17 34 35
f 17 35 36
f 17 36 18
f 18 36 60
f 18 60 61
f 18 61 39
f 18 39 22
f 18 22 38
f 18 38 37
f 18 37 21
f 18 21 19
f 20 22 25
f 21 37 38
f 21 38 22
f 22 39 40
f 22 40 26
f 23 41 24
f 23 29 41
f 26 40 27
f 27 29 28
f 27 40 42
f 27 42 43
f 27 43 29
f 29 43 44
f 29 44 45
f 29 45 46
f 29 46 41
f 30 47 48
f 30 48 49
f 30 49 31
f 31 50 51
f 31 51 32
f 31 49 52
f 31 52 53
f 31 53 54
f 31 54 50
f 32 51 33
f 33 55 56
f 33 56 34
f 33 51 50
f 33 50 54
f 33 54 57
f 33 57 55
f 34 58 35
f 34 56 58
f 35 58 59
f 35 59 60
f 35 60 36
f 39 61 62
f 39 62 63
f 39 63 40
f 40 63 42
f 41 64 65
f 41 46 66
f 41 66 67
f 41 67 64
f 42 68 45
f 42 45 43
f 42 63 69
f 42 69 68
f 43 45 70
f 43 70 44
f 44 70 71
f 44 71 45
f 45 68 72
f 45 72 73
f 45 73 74
f 45 74 75
f 45 75 67
f 45 67 66
f 45 66 46
f 45 71 70
f 47 65 64
f 47 64 48
f 48 64 76
f 48 76 49
f 49 76 77
f 49 77 55
f 49 55 52
f 52 55 78
f 52 78 54
f 52 54 53
f 54 78 57
f 55 68 56
f 55 57 78
f 55 77 72
f 55 72 68
f 56 68 79
f 56 79 80
f 56 80 58
f 58 80 62
f 58 62 59
f 59 62 61
f 59 61 60
f 62 80 63
f 63 80 69
f 64 75 74
f 64 74 81
f 64 81 82
f 64 82 76
f 64 67 75
f 68 69 79
f 69 80 79
f 72 77 76
f 72 76 82
f 72 82 81
f 72 81 73
f 73 81 74

