# https://github.com/mikedh/trimesh
v 0.14341690 1.49315811 4.61737621
v 0.18009768 1.29664634 4.72254665
v 0.35323100 1.24158798 4.72254665
v 0.50230170 1.41291332 4.59779338
v 0.08443419 1.33237578 4.21478575
v -0.14093257 1.34643319 4.21478575
v -0.22016308 1.34906905 4.21478575
v -0.22397787 1.48290785 4.63690932
v -0.13242264 1.33296148 4.72254665
v 0.08003249 1.31948977 4.72254665
v 0.45975203 1.19355833 4.72254665
v 0.46239302 1.20703004 4.21478575
v 0.36232782 1.25242394 4.21478575
v 0.17716322 1.31099671 4.21478575
v 0.58857493 1.11389934 4.72254665
v 0.83125505 1.24803099 4.57821055
v -0.53737853 1.29137484 4.21478575
v -0.57787413 1.38391984 4.65644221
v -0.53150958 1.27878167 4.72254665
v -0.21957619 1.33530438 4.72254665
v 0.60148655 1.12092805 4.21478575
v 0.69450908 1.03863331 4.72254665
v 0.70184523 1.04976212 4.21478575
v 1.11002903 1.00846832 4.55867744
v -0.58638406 1.27263151 4.21478575
v -0.83757411 1.14318567 4.72254665
v -0.58755784 1.25769545 4.72254665
v -0.84755126 1.15314308 4.21478575
v -0.89743719 1.20146558 4.67602504
v 0.87791297 0.84710024 4.72254665
v 0.88877052 0.85471470 4.21478575
v 0.96653381 0.70623268 4.72254665
v 1.00790971 0.63506676 4.72254665
v 1.32219069 0.70769704 4.53909461
v -0.87454833 1.12034235 4.72254665
v -0.87836315 1.13381406 4.21478575
v -1.12925976 0.93290933 4.21478575
v -1.14305173 0.92002332 4.21478575
v -1.16271264 0.94667400 4.69560787
v -1.11546780 0.92734498 4.72254665
v 0.97328300 0.72058305 4.21478575
v 1.07158756 0.46784147 4.72254665
v 1.36356658 0.60080172 4.53298116
v 1.02111481 0.63828826 4.21478575
v 1.08684673 0.41541884 4.72254665
v -1.35433304 0.64209551 4.21478575
v -1.35844129 0.63535966 4.71514098
v -1.13483523 0.90918736 4.72254665
v 1.45482847 0.36475338 4.51951178
v 1.08244510 0.47809173 4.21478575
v 1.11853902 0.22798593 4.72254665
v 1.43252651 0.35567460 4.53298116
v -1.35785443 0.63506676 4.21478575
v -1.35844129 0.63535966 4.21523307
v -1.47229851 0.28538724 4.23476617
v -1.40128450 0.50357086 4.72254665
v -1.34905107 0.62598800 4.72254665
v -1.34641002 0.63038095 4.72254665
v 1.50001913 -0.00015508 4.49992916
v 1.10063870 0.41336879 4.21478575
v 1.11941926 0.19957812 4.72254665
v -1.43767180 0.28509439 4.21478575
v -1.49782826 -0.08069266 4.25434900
v -1.45146376 0.28216574 4.72254665
v -1.44970307 0.29300170 4.72254665
v -1.43855215 0.27045120 4.21478575
v 1.44279709 -0.00015508 4.53298116
v 1.10122566 -0.13750825 4.72254665
v 1.09799776 -0.15654441 4.72254665
v 1.47243520 -0.28569739 4.48472002
v 1.12792925 -0.00015508 4.21478575
v 1.13291784 0.19225653 4.21478575
v 1.13145063 0.23325746 4.21478575
v 1.11413728 -0.00015508 4.72254665
v -1.43209634 -0.04759903 4.21478575
v -1.43004216 -0.07249247 4.21478575
v -1.42153228 -0.10705041 4.21478575
v -1.34523619 -0.38673545 4.21478575
v -1.43297669 -0.44267247 4.27393184
v -1.44383412 -0.06839237 4.72254665
v 1.07745650 -0.26343974 4.72254665
v 1.04869874 -0.35334897 4.72254665
v 1.02199516 -0.43183650 4.72254665
v 1.39085714 -0.56098947 4.46946138
v 1.07804336 -0.25846106 4.21478575
v 1.10122566 -0.13985117 4.21478575
v -1.32146703 -0.43886524 4.21478575
v -1.28214521 -0.77829451 4.29346494
v -1.35756095 -0.39142128 4.72254665
v -1.43708494 -0.09972881 4.72254665
v -1.19616552 -0.66232038 4.21478575
v 0.99851937 -0.47898758 4.72254665
v 0.91987584 -0.61985514 4.72254665
v 1.21244173 -0.88284693 4.44992827
v 1.01700656 -0.44296534 4.21478575
v 1.03901503 -0.38556400 4.21478575
v 1.07188104 -0.28628314 4.21478575
v -1.16652741 -0.70624998 4.21478575
v -1.12573838 -0.75105818 4.21478575
v -0.97138562 -0.91418336 4.21478575
v -1.05413751 -1.06676548 4.31304756
v -1.16887496 -0.72440755 4.72254665
v -1.20614271 -0.67081344 4.72254665
v -1.33760666 -0.43681518 4.72254665
v 0.91195271 -0.63156970 4.72254665
v 0.98443403 -0.50856686 4.21478575
v 0.79662834 -0.79674493 4.72254665
v 0.78577085 -0.81050955 4.72254665
v 0.64726418 -0.95401291 4.72254665
v 0.96125173 -1.15111028 4.43034565
v 0.83506982 -0.73026486 4.21478575
v 0.91459375 -0.62629814 4.21478575
v 0.93777605 -0.59232591 4.21478575
v -0.91739148 -0.95840586 4.21478575
v -0.76274529 -1.29109923 4.33258067
v -0.94849680 -0.95167001 4.72254665
v -1.00630570 -0.89602585 4.72254665
v 0.61263753 -0.98124919 4.72254665
v 0.45799134 -1.08814456 4.72254665
v 0.65166592 -1.35055065 4.41081255
v 0.62202781 -0.95782006 4.21478575
v 0.72884230 -0.85678205 4.21478575
v -0.68879682 -1.10161627 4.21478575
v -0.61015323 -1.13441701 4.21478575
v -0.45697425 -1.18566821 4.21478575
v -0.42557550 -1.43811689 4.35211378
v -0.69613297 -1.11274508 4.72254665
v -0.86926630 -1.00292111 4.72254665
v 0.39225936 -1.11743099 4.72254665
v 0.59591109 -0.97802774 4.21478575
v 0.23115734 -1.18683972 4.72254665
v 0.30334512 -1.46886768 4.39122971
v 0.36262128 -1.11948104 4.21478575
v 0.47735876 -1.06149398 4.21478575
v -0.36835346 -1.20821879 4.21478575
v -0.06258241 -1.49873982 4.37169661
v -0.42939029 -1.20763299 4.72254665
v -0.59342679 -1.15316033 4.72254665
v -0.26594071 -1.21934760 4.21478575
v 0.08502108 -1.21846895 4.72254665
v -0.02678197 -1.23809093 4.72254665
v -0.03030332 -1.22491196 4.21478575
v 0.18039112 -1.18771827 4.21478575
v 0.29953033 -1.14730302 4.21478575
v -0.16470173 -1.24072668 4.72254665
v -0.30702320 -1.22959787 4.72254665
v -0.13858501 -1.22901206 4.21478575
f 1 2 3
f 1 3 4
f 1 4 5
f 1 5 6
f 1 6 7
f 1 7 8
f 1 8 9
f 1 9 10
f 1 10 2
f 2 10 9
f 2 9 20
f 2 20 19
f 2 19 27
f 2 27 26
f 2 26 35
f 2 35 40
f 2 40 48
f 2 48 58
f 2 58 57
f 2 57 56
f 2 56 65
f 2 65 64
f 2 64 80
f 2 80 90
f 2 90 89
f 2 89 104
f 2 104 103
f 2 103 102
f 2 102 117
f 2 117 116
f 2 116 128
f 2 128 127
f 2 127 138
f 2 138 137
f 2 137 146
f 2 146 145
f 2 145 141
f 2 141 140
f 2 140 131
f 2 131 129
f 2 129 119
f 2 119 118
f 2 118 109
f 2 109 108
f 2 108 107
f 2 107 105
f 2 105 93
f 2 93 92
f 2 92 83
f 2 83 82
f 2 82 81
f 2 81 69
f 2 69 68
f 2 68 74
f 2 74 61
f 2 61 51
f 2 51 45
f 2 45 42
f 2 42 33
f 2 33 32
f 2 32 30
f 2 30 22
f 2 22 15
f 2 15 11
f 2 11 3
f 3 11 4
f 4 12 13
f 4 13 14
f 4 14 5
f 4 11 15
f 4 15 16
f 4 16 12
f 5 14 13
f 5 13 12
f 5 12 21
f 5 21 23
f 5 23 31
f 5 31 41
f 5 41 44
f 5 44 50
f 5 50 60
f 5 60 73
f 5 73 72
f 5 72 71
f 5 71 86
f 5 86 85
f 5 85 97
f 5 97 96
f 5 96 95
f 5 95 106
f 5 106 113
f 5 113 112
f 5 112 111
f 5 111 122
f 5 122 121
f 5 121 130
f 5 130 134
f 5 134 133
f 5 133 144
f 5 144 143
f 5 143 142
f 5 142 147
f 5 147 139
f 5 139 135
f 5 135 125
f 5 125 124
f 5 124 123
f 5 123 114
f 5 114 100
f 5 100 99
f 5 99 98
f 5 98 91
f 5 91 87
f 5 87 78
f 5 78 77
f 5 77 76
f 5 76 75
f 5 75 66
f 5 66 62
f 5 62 53
f 5 53 46
f 5 46 38
f 5 38 37
f 5 37 36
f 5 36 28
f 5 28 25
f 5 25 17
f 5 17 7
f 5 7 6
f 7 17 8
f 8 17 18
f 8 18 19
f 8 19 20
f 8 20 9
f 12 16 21
f 15 22 16
f 16 23 21
f 16 22 24
f 16 24 23
f 17 25 18
f 18 26 27
f 18 27 19
f 18 25 28
f 18 28 29
f 18 29 26
f 22 30 24
f 23 24 31
f 24 32 33
f 24 33 34
f 24 34 31
f 24 30 32
f 26 29 35
f 28 36 29
f 29 37 38
f 29 38 39
f 29 39 40
f 29 40 35
f 29 36 37
f 31 34 41
f 33 42 34
f 34 43 44
f 34 44 41
f 34 42 45
f 34 45 43
f 38 46 39
f 39 46 47
f 39 47 48
f 39 48 40
f 43 45 49
f 43 49 44
f 44 49 50
f 45 51 52
f 45 52 49
f 46 53 54
f 46 54 47
f 47 54 55
f 47 55 56
f 47 56 57
f 47 57 58
f 47 58 48
f 49 52 59
f 49 59 60
f 49 60 50
f 51 61 59
f 51 59 52
f 53 62 55
f 53 55 54
f 55 63 64
f 55 64 65
f 55 65 56
f 55 62 66
f 55 66 63
f 59 67 68
f 59 68 69
f 59 69 70
f 59 70 71
f 59 71 72
f 59 72 73
f 59 73 60
f 59 61 67
f 61 74 67
f 63 66 75
f 63 75 76
f 63 76 77
f 63 77 78
f 63 78 79
f 63 79 80
f 63 80 64
f 67 74 68
f 69 81 70
f 70 81 82
f 70 82 83
f 70 83 84
f 70 84 85
f 70 85 86
f 70 86 71
f 78 87 79
f 79 88 89
f 79 89 90
f 79 90 80
f 79 87 91
f 79 91 88
f 83 92 84
f 84 92 93
f 84 93 94
f 84 94 95
f 84 95 96
f 84 96 97
f 84 97 85
f 88 91 98
f 88 98 99
f 88 99 100
f 88 100 101
f 88 101 102
f 88 102 103
f 88 103 104
f 88 104 89
f 93 105 94
f 94 106 95
f 94 105 107
f 94 107 108
f 94 108 109
f 94 109 110
f 94 110 111
f 94 111 112
f 94 112 113
f 94 113 106
f 100 114 101
f 101 114 115
f 101 115 116
f 101 116 117
f 101 117 102
f 109 118 110
f 110 118 119
f 110 119 120
f 110 120 121
f 110 121 122
f 110 122 111
f 114 123 115
f 115 123 124
f 115 124 125
f 115 125 126
f 115 126 127
f 115 127 128
f 115 128 116
f 119 129 120
f 120 130 121
f 120 129 131
f 120 131 132
f 120 132 133
f 120 133 134
f 120 134 130
f 125 135 126
f 126 136 137
f 126 137 138
f 126 138 127
f 126 135 139
f 126 139 136
f 131 140 132
f 132 140 141
f 132 141 136
f 132 136 142
f 132 142 143
f 132 143 144
f 132 144 133
f 136 141 145
f 136 145 146
f 136 146 137
f 136 139 147
f 136 147 142

