# https://github.com/mikedh/trimesh
v 0.14341733 1.49317927 10.61728831
v 0.20973729 1.13910154 10.91335665
v 0.25815673 1.13295138 10.91335665
v 0.44185713 1.10073582 10.91335665
v 0.50201462 1.41322616 10.59779075
v 0.50230805 1.41322616 10.09784433
v 0.19359748 1.48175740 10.11474962
v 0.14341733 1.49288632 10.11756724
v -0.22369005 1.48322175 10.63678566
v 0.01195122 1.13441563 10.91335665
v 0.67573772 1.00965379 10.91335665
v 0.83097336 1.24834140 10.57818062
v 0.83126679 1.24834140 10.07834698
v 0.30569580 1.18713193 9.76210482
v 0.19418438 1.22256905 9.76210482
v 0.07181525 1.25097726 9.76210482
v 0.05626234 1.25449166 9.76210482
v -0.09016977 1.26386338 9.76210482
v -0.21752756 1.26737789 9.76210482
v -0.22339659 1.48292880 10.13706479
v -0.01005761 1.13177988 10.91335665
v -0.57759212 1.38364656 10.15656214
v -0.57788556 1.38393941 10.65639600
v 0.79986751 0.93057945 10.91335665
v 0.89758679 0.86087676 10.91335665
v 1.06397357 1.04772667 10.56172625
v 0.65695684 0.98095274 9.76210482
v 0.52196928 1.07701352 9.76210482
v 0.44625889 1.12387241 9.76210482
v 1.10975194 1.00818944 10.05873685
v -0.50393586 1.21612594 9.76210482
v -0.21253890 1.08931395 10.91335665
v -0.59285156 1.18215317 9.76210482
v -0.78623589 1.09370701 9.76210482
v -0.89716043 1.20148251 10.17617227
v -0.89716043 1.20177536 10.67589334
v -0.42059576 1.02693308 10.91335665
v 0.99559945 0.76774468 10.91335665
v 1.10975194 1.00789659 10.55857050
v 0.82187635 0.80845336 9.76210482
v 1.32221058 0.70770667 10.53907294
v 1.32191710 0.70799957 10.03912673
v -0.85490344 1.05094822 9.76210482
v -1.04535319 0.89836388 9.76210482
v -1.09318574 0.85355504 9.76210482
v -1.16273369 0.94639427 10.19566983
v -1.16273369 0.94697997 10.69550368
v -0.61251279 0.92530773 10.91335665
v -0.51772809 0.97568113 10.91335665
v 1.09185141 0.65440466 10.91335665
v 1.16227971 0.55482947 10.91335665
v 0.83185371 0.79263848 9.76210482
v 1.24151149 0.39404484 10.91335665
v 1.28523568 0.29593398 10.91335665
v 1.45485047 0.36446513 10.51946281
v 1.45455699 0.36446513 10.01962917
v 0.94013715 0.61926050 9.76210482
v 0.93192054 0.63331818 9.76210482
v -1.26162670 0.63214667 9.76210482
v -1.28334210 0.60344562 9.76210482
v -1.35817214 0.63507538 10.21527995
v -1.35846563 0.63566113 10.71511360
v -0.94939471 0.62218915 10.91335665
v -0.93472219 0.64122559 10.91335665
v -0.78095375 0.78824547 10.91335665
v 1.35008842 -0.00015578 10.91335665
v 1.50004198 0.00013709 10.49996546
v 1.49974850 -0.00044865 10.00001904
v 1.08862340 0.21568809 9.76210482
v 1.03638911 0.38818748 9.76210482
v 1.02553146 0.42362452 9.76210482
v -1.29860160 0.57533026 9.76210482
v -1.41979687 0.29183382 9.76210482
v -1.42683965 0.27309026 9.76210482
v -1.47203115 0.28509786 10.23489008
v -1.47232464 0.28568358 10.73461137
v -1.10551070 0.38203724 10.91335665
v -1.04036459 0.50035602 10.91335665
v 1.35272946 -0.03412849 10.91335665
v 1.47245752 -0.28540941 10.48463805
v 1.35184911 -0.25348677 10.91335665
v 1.47216404 -0.28570228 9.98480420
v 1.10945846 -0.00044865 9.76210482
v -1.43065452 0.25581103 9.76210482
v -1.48376926 -0.07688725 9.76210482
v -1.48435612 -0.08245174 9.76210482
v -1.49756143 -0.08040167 10.25438764
v -1.49785492 -0.08040167 10.75422128
v -1.20029546 0.09180484 10.91335665
v -1.17505866 0.20455910 10.91335665
v -1.12928029 0.32609941 10.91335665
v 1.39087808 -0.56099841 10.46942320
v 1.39058470 -0.56129126 9.96947678
v 1.34598006 -0.30151716 10.91335665
v 1.30548388 -0.50418195 10.91335665
v 1.29550647 -0.54254773 10.91335665
v 1.05223547 -0.44619404 9.76210482
v 1.09155793 -0.23415749 9.76210482
v 1.09243827 -0.22917873 9.76210482
v 1.10388289 -0.11408152 9.76210482
v -1.47173767 -0.22507857 9.76210482
v -1.43300218 -0.44267963 10.77371863
v -1.20645789 -0.34164012 10.91335665
v -1.22406494 -0.11378864 10.91335665
v -1.21526146 -0.00279159 10.91335665
v -1.43300218 -0.44267963 9.77393856
v 1.16404041 -0.83980894 10.91335665
v 1.21245982 -0.88256767 10.44981308
v 1.21216634 -0.88286058 9.94997922
v 0.96273291 -0.66613811 9.76210482
v 0.98474169 -0.61635052 9.76210482
v -1.42067722 -0.41280708 9.76210482
v -1.28187479 -0.77830663 10.79332897
v -1.13632307 -0.58237780 10.91335665
v -1.18709014 -0.43506507 10.91335665
v -1.41568851 -0.43096491 9.76210482
v -1.41099329 -0.44121531 9.76210482
v -1.24842138 -0.73086199 9.76210482
v -1.28187479 -0.77801372 9.79354869
v 1.15112858 -0.86148118 10.91335665
v 0.94982108 -1.11920523 10.91335665
v 0.94160447 -1.12886990 10.91335665
v 0.96097221 -1.15112784 10.43020274
v 0.96097221 -1.15112784 9.93036909
v 0.81952874 -0.87524601 9.76210482
v 0.86912199 -0.81140074 9.76210482
v -1.05415677 -1.06648893 10.81282632
v -0.96524107 -0.89545390 10.91335665
v -1.06824243 -0.73701220 10.91335665
v -1.10551070 -0.66643096 10.91335665
v -1.05386328 -1.06678178 9.81304625
v -1.23198817 -0.75458428 9.76210482
v 0.93368124 -1.13648441 10.91335665
v 0.69393168 -1.32333437 10.91335665
v 0.65196813 -1.35086392 10.91065203
v 0.65167470 -1.35057107 9.91087175
v 0.62115577 -1.05858146 9.76210482
v 0.70743043 -0.99122183 9.76210482
v -0.76275979 -1.29141176 9.83265638
v -0.76246630 -1.29141176 10.83243665
v -0.87720571 -1.00117935 10.91335665
v -0.92239722 -0.95402751 10.91335665
v -1.02715928 -0.97072099 9.76210482
v -0.99458622 -1.00205790 9.76210482
v -0.94998157 -1.03075906 9.76210482
v 0.65079435 -1.34617811 10.91335665
v 0.64874017 -1.34676381 10.91335665
v 0.31332554 -1.42788832 10.91335665
v 0.30334819 -1.46888990 10.89115426
v 0.30364165 -1.46888990 9.89126141
v 0.49908009 -1.14292752 9.76210482
v -0.74955447 -1.15815665 9.76210482
v -0.71991589 -1.17690029 9.76210482
v -0.65418286 -1.20296549 9.76210482
v -0.42822548 -1.27823268 9.76210482
v -0.42529098 -1.43813869 9.85215372
v -0.42529098 -1.43784584 10.85193400
v -0.40621664 -1.33124184 10.91335665
v -0.67061613 -1.18539346 10.91335665
v -0.71522067 -1.15083499 10.91335665
v 0.29923988 -1.43081703 10.91335665
v 0.28339353 -1.43110988 10.91335665
v -0.03265335 -1.42847402 10.91335665
v -0.06258537 -1.49876246 10.87154434
v -0.06258537 -1.49846950 9.87176406
v -0.03617476 -1.30722659 9.76210482
v 0.13197274 -1.27823268 9.76210482
v 0.13637450 -1.27735403 9.76210482
v 0.24847283 -1.25304604 9.76210482
v 0.37172231 -1.19945108 9.76210482
v -0.34283119 -1.29346181 9.76210482
v -0.13712196 -1.30927664 9.76210482
v -0.36718764 -1.34676381 10.91335665
v -0.06023776 -1.42613112 10.91335665
v -0.09046322 -1.41851650 10.91335665
f 1 2 3
f 1 3 4
f 1 4 5
f 1 5 6
f 1 6 7
f 1 7 8
f 1 8 9
f 1 9 2
f 2 9 10
f 2 10 21
f 2 21 32
f 2 32 37
f 2 37 49
f 2 49 48
f 2 48 65
f 2 65 64
f 2 64 63
f 2 63 78
f 2 78 77
f 2 77 91
f 2 91 90
f 2 90 89
f 2 89 105
f 2 105 104
f 2 104 103
f 2 103 115
f 2 115 114
f 2 114 130
f 2 130 129
f 2 129 128
f 2 128 142
f 2 142 141
f 2 141 160
f 2 160 159
f 2 159 158
f 2 158 173
f 2 173 175
f 2 175 174
f 2 174 163
f 2 163 162
f 2 162 161
f 2 161 148
f 2 148 147
f 2 147 146
f 2 146 134
f 2 134 133
f 2 133 122
f 2 122 121
f 2 121 120
f 2 120 107
f 2 107 96
f 2 96 95
f 2 95 94
f 2 94 81
f 2 81 79
f 2 79 66
f 2 66 54
f 2 54 53
f 2 53 51
f 2 51 50
f 2 50 38
f 2 38 25
f 2 25 24
f 2 24 11
f 2 11 4
f 2 4 3
f 4 11 5
f 5 11 12
f 5 12 13
f 5 13 6
f 6 13 14
f 6 14 15
f 6 15 16
f 6 16 17
f 6 17 7
f 7 17 8
f 8 17 18
f 8 18 19
f 8 19 20
f 8 20 9
f 9 21 10
f 9 20 22
f 9 22 23
f 9 23 21
f 11 24 12
f 12 24 25
f 12 25 26
f 12 26 13
f 13 27 28
f 13 28 29
f 13 29 14
f 13 26 30
f 13 30 27
f 14 29 28
f 14 28 27
f 14 27 40
f 14 40 52
f 14 52 58
f 14 58 57
f 14 57 71
f 14 71 70
f 14 70 69
f 14 69 83
f 14 83 100
f 14 100 99
f 14 99 98
f 14 98 97
f 14 97 111
f 14 111 110
f 14 110 126
f 14 126 125
f 14 125 138
f 14 138 137
f 14 137 151
f 14 151 170
f 14 170 169
f 14 169 168
f 14 168 167
f 14 167 166
f 14 166 172
f 14 172 171
f 14 171 155
f 14 155 154
f 14 154 153
f 14 153 152
f 14 152 145
f 14 145 144
f 14 144 143
f 14 143 132
f 14 132 118
f 14 118 117
f 14 117 116
f 14 116 112
f 14 112 101
f 14 101 86
f 14 86 85
f 14 85 84
f 14 84 74
f 14 74 73
f 14 73 72
f 14 72 60
f 14 60 59
f 14 59 45
f 14 45 44
f 14 44 43
f 14 43 34
f 14 34 33
f 14 33 31
f 14 31 19
f 14 19 18
f 14 18 17
f 14 17 16
f 14 16 15
f 19 31 20
f 20 31 22
f 21 23 32
f 22 33 34
f 22 34 35
f 22 35 23
f 22 31 33
f 23 35 36
f 23 36 37
f 23 37 32
f 25 38 39
f 25 39 26
f 26 39 30
f 27 30 40
f 30 39 41
f 30 41 42
f 30 42 40
f 34 43 35
f 35 43 44
f 35 44 45
f 35 45 46
f 35 46 47
f 35 47 36
f 36 48 49
f 36 49 37
f 36 47 48
f 38 50 39
f 39 50 51
f 39 51 41
f 40 42 52
f 41 53 54
f 41 54 55
f 41 55 42
f 41 51 53
f 42 55 56
f 42 56 57
f 42 57 58
f 42 58 52
f 45 59 46
f 46 59 60
f 46 60 61
f 46 61 62
f 46 62 47
f 47 62 63
f 47 63 64
f 47 64 65
f 47 65 48
f 54 66 55
f 55 67 56
f 55 66 67
f 56 67 68
f 56 68 69
f 56 69 70
f 56 70 71
f 56 71 57
f 60 72 61
f 61 72 73
f 61 73 74
f 61 74 75
f 61 75 76
f 61 76 62
f 62 76 77
f 62 77 78
f 62 78 63
f 66 79 67
f 67 80 68
f 67 79 81
f 67 81 80
f 68 80 82
f 68 82 83
f 68 83 69
f 74 84 75
f 75 85 86
f 75 86 87
f 75 87 76
f 75 84 85
f 76 87 88
f 76 88 89
f 76 89 90
f 76 90 91
f 76 91 77
f 80 92 93
f 80 93 82
f 80 81 94
f 80 94 95
f 80 95 96
f 80 96 92
f 82 93 97
f 82 97 98
f 82 98 99
f 82 99 100
f 82 100 83
f 86 101 87
f 87 101 88
f 88 102 103
f 88 103 104
f 88 104 105
f 88 105 89
f 88 101 106
f 88 106 102
f 92 96 107
f 92 107 108
f 92 108 93
f 93 108 109
f 93 109 110
f 93 110 111
f 93 111 97
f 101 112 106
f 102 106 113
f 102 113 114
f 102 114 115
f 102 115 103
f 106 112 116
f 106 116 117
f 106 117 118
f 106 118 119
f 106 119 113
f 107 120 108
f 108 120 121
f 108 121 122
f 108 122 123
f 108 123 124
f 108 124 109
f 109 124 125
f 109 125 126
f 109 126 110
f 113 127 128
f 113 128 129
f 113 129 130
f 113 130 114
f 113 119 131
f 113 131 127
f 118 132 119
f 119 132 131
f 122 133 123
f 123 133 134
f 123 134 135
f 123 135 124
f 124 135 136
f 124 136 137
f 124 137 138
f 124 138 125
f 127 131 139
f 127 139 140
f 127 140 141
f 127 141 142
f 127 142 128
f 131 132 143
f 131 143 144
f 131 144 145
f 131 145 139
f 134 146 135
f 135 146 147
f 135 147 148
f 135 148 149
f 135 149 150
f 135 150 136
f 136 150 151
f 136 151 137
f 139 152 153
f 139 153 154
f 139 154 155
f 139 155 156
f 139 156 140
f 139 145 152
f 140 156 157
f 140 157 158
f 140 158 159
f 140 159 160
f 140 160 141
f 148 161 149
f 149 161 162
f 149 162 163
f 149 163 164
f 149 164 150
f 150 164 165
f 150 165 166
f 150 166 167
f 150 167 168
f 150 168 169
f 150 169 170
f 150 170 151
f 155 171 156
f 156 171 172
f 156 172 165
f 156 165 164
f 156 164 157
f 157 164 173
f 157 173 158
f 163 174 164
f 164 174 175
f 164 175 173
f 165 172 166

