# https://github.com/mikedh/trimesh
v 0.14324683 1.49316869 7.61739902
v 0.21249444 1.12367076 7.81507198
v 0.24213007 1.11429122 7.81507198
v 0.50239544 1.41330033 7.59781460
v 0.20545231 1.16062059 7.42582236
v 0.02030297 1.15578867 7.42582236
v -0.02165638 1.15124104 7.42582236
v 0.07165184 1.49117905 7.62117110
v -0.22382420 1.48293641 7.63694530
v -0.03368669 1.17085276 7.81507198
v 0.02411746 1.16715786 7.81507198
v 0.42815967 1.03072785 7.81507198
v 0.44576497 1.12168112 7.42582236
v 0.27469993 1.15152522 7.42582236
v 0.49505992 1.37180287 7.62117110
v 0.61800372 0.92158384 7.81507198
v 0.83132160 1.24844741 7.57826832
v 0.68725137 1.02703285 7.42582236
v -0.20885967 1.45820851 7.62117110
v -0.20533860 1.45877696 7.62117110
v -0.21296758 1.10832240 7.42582236
v -0.22294393 1.45508196 7.62117110
v -0.57798464 1.38374051 7.65649163
v -0.46677767 1.13191340 7.81507198
v -0.21502153 1.17596895 7.81507198
v 0.78584115 0.78344842 7.81507198
v 0.91553377 0.87354911 7.42582236
v 0.80227279 0.95427021 7.42582236
v 1.11007262 1.00855793 7.55868390
v -0.22851894 1.10235358 7.42582236
v -0.52458181 1.34082187 7.62117110
v -0.61260843 0.92527885 7.42582236
v -0.89752130 1.20154959 7.67603791
v -0.60087155 1.08103640 7.81507198
v -0.42071042 1.02703285 7.42582236
v 0.89704817 0.64758692 7.81507198
v 1.00532093 0.78828033 7.42582236
v 1.03730385 0.43498347 7.81507198
v 1.32192334 0.70784346 7.53913760
v 1.11447393 0.65980873 7.42582236
v 0.92316267 0.61518478 7.81507198
v -0.71413248 0.84285234 7.42582236
v -0.82886052 0.95824939 7.81507198
v -0.71765355 1.02731702 7.81507198
v -0.78103273 0.78828033 7.42582236
v -1.16277485 0.94688020 7.69562232
v -0.95239123 0.85962183 7.81507198
v 1.04375913 0.42134047 7.81507198
v 1.45484349 0.36477885 7.51959129
v 1.17814649 0.56970809 7.42582236
v 1.12797135 0.23175962 7.81507198
v -0.92187532 0.62399587 7.42582236
v -0.92392929 0.62143783 7.42582236
v -1.01987824 0.49353468 7.42582236
v -1.08883246 0.36904231 7.42582236
v -1.35848732 0.63536505 7.71516866
v -1.03777708 0.77946924 7.81507198
v 1.50003055 0.00039706 7.50000687
v 1.37121823 0.00039706 7.42582236
v 1.30490484 0.30395383 7.42582236
v 1.26617306 0.39064372 7.42582236
v 1.17961359 0.00039706 7.81507198
v 1.18606887 -0.09084050 7.81507198
v -1.10467723 0.33180829 7.42582236
v -1.47233511 0.28576314 7.73471493
v -1.23055534 0.50916727 7.81507198
v -1.19769208 0.56800273 7.81507198
v -1.15250501 0.62854355 7.81507198
v -1.15309188 0.20447361 7.42582236
v 1.47215536 -0.28553748 7.48476611
v 1.37268534 -0.23863968 7.42582236
v 1.37385906 -0.03541582 7.42582236
v 1.18577549 -0.15280246 7.81507198
v 1.18284129 -0.24318734 7.81507198
v -1.49756948 -0.08060825 7.75426127
v -1.34968469 0.20191555 7.81507198
v -1.33794786 0.25165567 7.81507198
v -1.31770167 0.30509074 7.81507198
v -1.18038021 0.08595004 7.42582236
v -1.19211704 0.01261892 7.42582236
v -1.20268025 -0.10647310 7.42582236
v 1.39087745 -0.56095556 7.46948720
v 1.36623006 -0.30657046 7.42582236
v 1.37180509 -0.26933643 7.42582236
v 1.13882795 -0.47597106 7.81507198
v -1.43301657 -0.44271624 7.77384563
v -1.39105720 -0.12750607 7.81507198
v -1.39311117 -0.08970359 7.81507198
v -1.38929672 -0.04763767 7.81507198
v -1.19739859 -0.21277481 7.42582236
v -1.18800911 -0.32078191 7.42582236
v -1.16864327 -0.42196751 7.42582236
v 1.21247685 -0.88241871 7.44994092
v 1.18665573 -0.84035285 7.42582236
v 1.31458771 -0.55129179 7.42582236
v 1.32280358 -0.52315306 7.42582236
v 1.08835933 -0.60273725 7.81507198
v 1.03319602 -0.72751384 7.81507198
v -1.28190420 -0.77810667 7.79339196
v -1.25109491 -0.75593675 7.81507198
v -1.36142163 -0.43703165 7.81507198
v -1.36640981 -0.40974565 7.81507198
v -1.09352725 -0.64196089 7.42582236
v 0.96600228 -0.83182599 7.81507198
v 0.86359805 -0.96257135 7.81507198
v 0.78701488 -1.04187137 7.81507198
v 0.96101411 -1.15101537 7.43035651
v 1.17110435 -0.86991272 7.42582236
v 1.17932021 -0.85626972 7.42582236
v -1.05391523 -1.06659927 7.81293829
v -1.05215475 -1.06290427 7.81507198
v -1.24463963 -0.76844284 7.81507198
v -1.05420871 -0.72040811 7.42582236
v -0.96236759 -0.86138581 7.42582236
v -0.91600690 -0.92846390 7.42582236
v 0.63208801 -1.16266873 7.81507198
v 0.95367859 -1.14760455 7.42582236
v 0.95573255 -1.14533073 7.42582236
v 0.55345087 -1.21695646 7.81507198
v 0.88912579 -1.19762892 7.42582236
v -1.02281256 -1.09075873 7.81507198
v -1.05039416 -1.06517809 7.81507198
v -0.86671196 -0.98246745 7.42582236
v -0.71941409 -1.11889746 7.42582236
v -0.66865204 -1.16067909 7.42582236
v 0.65028017 -1.32325819 7.42582236
v 0.34365409 -1.31018365 7.81507198
v -0.75198392 -1.26300165 7.81507198
v -0.61877033 -1.19222855 7.42582236
v 0.27088542 -1.34144883 7.81507198
v 0.64147749 -1.32666892 7.42582236
v -0.41484197 -1.30336220 7.42582236
v -0.36877469 -1.32411093 7.42582236
v -0.73584572 -1.26925465 7.81507198
v 0.20486546 -1.35566028 7.81507198
v 0.31108426 -1.40739002 7.42582236
v 0.63091433 -1.32979547 7.42582236
v -0.42657886 -1.37242983 7.81507198
v -0.07095129 -1.40227393 7.42582236
v -0.04923806 -1.39971583 7.81507198
v 0.28849075 -1.41051656 7.42582236
v -0.39166163 -1.37868293 7.81507198
v -0.03486038 -1.40739002 7.42582236
v -0.10146719 -1.40085274 7.81507198
f 1 2 3
f 1 3 4
f 1 4 5
f 1 5 6
f 1 6 7
f 1 7 8
f 1 8 9
f 1 9 10
f 1 10 11
f 1 11 2
f 2 11 10
f 2 10 25
f 2 25 24
f 2 24 34
f 2 34 44
f 2 44 43
f 2 43 47
f 2 47 57
f 2 57 68
f 2 68 67
f 2 67 66
f 2 66 78
f 2 78 77
f 2 77 76
f 2 76 89
f 2 89 88
f 2 88 87
f 2 87 102
f 2 102 101
f 2 101 100
f 2 100 112
f 2 112 111
f 2 111 122
f 2 122 121
f 2 121 128
f 2 128 134
f 2 134 138
f 2 138 142
f 2 142 144
f 2 144 140
f 2 140 135
f 2 135 130
f 2 130 127
f 2 127 119
f 2 119 116
f 2 116 106
f 2 106 105
f 2 105 104
f 2 104 98
f 2 98 97
f 2 97 85
f 2 85 74
f 2 74 73
f 2 73 63
f 2 63 62
f 2 62 51
f 2 51 48
f 2 48 38
f 2 38 41
f 2 41 36
f 2 36 26
f 2 26 16
f 2 16 12
f 2 12 3
f 3 12 4
f 4 13 14
f 4 14 5
f 4 12 15
f 4 15 16
f 4 16 17
f 4 17 18
f 4 18 13
f 5 14 13
f 5 13 18
f 5 18 28
f 5 28 27
f 5 27 37
f 5 37 40
f 5 40 50
f 5 50 61
f 5 61 60
f 5 60 59
f 5 59 72
f 5 72 71
f 5 71 84
f 5 84 83
f 5 83 96
f 5 96 95
f 5 95 94
f 5 94 109
f 5 109 108
f 5 108 118
f 5 118 117
f 5 117 120
f 5 120 126
f 5 126 131
f 5 131 137
f 5 137 136
f 5 136 141
f 5 141 143
f 5 143 139
f 5 139 133
f 5 133 132
f 5 132 129
f 5 129 125
f 5 125 124
f 5 124 123
f 5 123 115
f 5 115 114
f 5 114 113
f 5 113 103
f 5 103 92
f 5 92 91
f 5 91 90
f 5 90 81
f 5 81 80
f 5 80 79
f 5 79 69
f 5 69 64
f 5 64 55
f 5 55 54
f 5 54 53
f 5 53 52
f 5 52 45
f 5 45 42
f 5 42 32
f 5 32 35
f 5 35 30
f 5 30 21
f 5 21 7
f 5 7 6
f 7 19 20
f 7 20 8
f 7 21 22
f 7 22 19
f 8 20 9
f 9 20 19
f 9 19 22
f 9 22 23
f 9 23 24
f 9 24 25
f 9 25 10
f 12 16 15
f 16 26 17
f 17 27 28
f 17 28 18
f 17 26 29
f 17 29 27
f 21 30 31
f 21 31 22
f 22 31 23
f 23 32 33
f 23 33 34
f 23 34 24
f 23 31 35
f 23 35 32
f 26 36 29
f 27 29 37
f 29 38 39
f 29 39 40
f 29 40 37
f 29 36 41
f 29 41 38
f 30 35 31
f 32 42 33
f 33 43 44
f 33 44 34
f 33 42 45
f 33 45 46
f 33 46 47
f 33 47 43
f 38 48 39
f 39 49 50
f 39 50 40
f 39 48 51
f 39 51 49
f 45 52 46
f 46 53 54
f 46 54 55
f 46 55 56
f 46 56 57
f 46 57 47
f 46 52 53
f 49 58 59
f 49 59 60
f 49 60 61
f 49 61 50
f 49 51 62
f 49 62 63
f 49 63 58
f 55 64 56
f 56 65 66
f 56 66 67
f 56 67 68
f 56 68 57
f 56 64 69
f 56 69 65
f 58 70 71
f 58 71 72
f 58 72 59
f 58 63 73
f 58 73 74
f 58 74 70
f 65 75 76
f 65 76 77
f 65 77 78
f 65 78 66
f 65 69 79
f 65 79 80
f 65 80 81
f 65 81 75
f 70 82 83
f 70 83 84
f 70 84 71
f 70 74 85
f 70 85 82
f 75 86 87
f 75 87 88
f 75 88 89
f 75 89 76
f 75 81 90
f 75 90 91
f 75 91 92
f 75 92 86
f 82 93 94
f 82 94 95
f 82 95 96
f 82 96 83
f 82 85 97
f 82 97 98
f 82 98 93
f 86 99 100
f 86 100 101
f 86 101 102
f 86 102 87
f 86 92 103
f 86 103 99
f 93 98 104
f 93 104 105
f 93 105 106
f 93 106 107
f 93 107 108
f 93 108 109
f 93 109 94
f 99 110 111
f 99 111 112
f 99 112 100
f 99 103 113
f 99 113 114
f 99 114 115
f 99 115 110
f 106 116 107
f 107 117 118
f 107 118 108
f 107 116 119
f 107 119 120
f 107 120 117
f 110 121 122
f 110 122 111
f 110 115 123
f 110 123 124
f 110 124 125
f 110 125 121
f 119 126 120
f 119 127 126
f 121 125 128
f 125 129 128
f 126 127 130
f 126 130 131
f 128 129 132
f 128 132 133
f 128 133 134
f 130 135 136
f 130 136 137
f 130 137 131
f 133 138 134
f 133 139 138
f 135 140 136
f 136 140 141
f 138 139 142
f 139 143 142
f 140 144 141
f 141 144 143
f 142 143 144

