# https://github.com/mikedh/trimesh
v 0.14312426 1.49315642 4.11729584
v 0.08443512 1.33237430 4.21473708
v 0.17716396 1.31099523 4.21473708
v 0.50230176 1.41320458 4.09775893
v 0.14312426 1.49286357 3.61726880
v 0.14283082 1.49257061 3.11748573
v -0.22368285 1.48261331 3.63692802
v -0.22338939 1.48290616 4.13683297
v -0.14034428 1.34672456 4.21473708
v 0.36203474 1.25212961 4.21473708
v 0.50200833 1.41261888 3.09794860
v 0.46239318 1.20732152 4.21473708
v 0.83096093 1.24802951 4.07809950
v 0.83096093 1.24802951 3.57831664
v 0.19183624 1.23192204 2.96729455
v 0.04628718 1.22811479 2.96729455
v -0.06111394 1.21581458 2.96729455
v -0.22368285 1.48232046 3.13714516
v -0.57816523 1.38333255 3.15655999
v -0.57787180 1.38362540 3.65634284
v -0.57757837 1.38362540 4.15637010
v -0.53678939 1.29137335 4.21473708
v -0.21986806 1.34877461 4.21473708
v 0.45887179 1.19121395 2.96729455
v 0.32916883 1.21376452 2.96729455
v 0.83066750 1.24744381 3.07841148
v 0.72590740 1.08695454 2.96729455
v 0.60148639 1.12092678 4.21473708
v 0.70184486 1.04976085 4.21473708
v 1.10973428 1.00817420 4.05856258
v 1.10944100 1.00788136 3.05875247
v -0.21487948 1.18125664 2.96729455
v -0.63861507 0.94989440 2.96729455
v -0.89743423 1.20087851 3.17621899
v -0.89714075 1.20146421 4.17590701
v -0.29117536 1.15226316 2.96729455
v -0.44582121 1.08402594 2.96729455
v -0.58638174 1.27263003 4.21473708
v 0.80983286 1.03365338 2.96729455
v 0.88847629 0.85471369 4.21473708
v 1.32218900 0.70769619 4.03902546
v 1.10973428 1.00788136 3.55865763
v 0.97328205 0.72058215 4.21473708
v 1.32160203 0.70711044 3.03933765
v 1.18984492 0.67665261 2.96729455
v 1.03754665 0.85617805 2.96729455
v 0.97562971 0.91475076 2.96729455
v -0.78357723 0.79789819 2.96729455
v -0.92912631 1.17071353 3.67820013
v -0.78973955 0.79116228 2.96729455
v -1.16300242 0.94637999 3.19575612
v -0.87836018 1.13381269 4.21473708
v -0.84725492 1.15284886 4.21473708
v -1.16270894 0.94696579 4.19556644
v 1.45453308 0.36475288 4.01948833
v 1.45423959 0.36416715 3.01967822
v 1.02111365 0.63799462 4.21473708
v 1.08215035 0.47809110 4.21473708
v 1.10093102 0.41336823 4.21473708
v 1.23034046 0.61983710 2.96729455
v -0.91973608 0.62071570 2.96729455
v -0.94086420 0.58352201 2.96729455
v -1.01099764 0.45524772 2.96729455
v -1.35843738 0.63477311 3.21529325
v -1.35403554 0.64209472 4.21473708
v -1.12896268 0.93290828 4.21473708
v -1.14275475 0.92002226 4.21473708
v 1.42665566 0.35362407 4.03633924
v 1.42694915 0.34981684 4.03633924
v 1.49972374 -0.00044805 3.99995142
v 1.49972374 -0.00015519 3.50004625
v 1.49943025 -0.00044805 3.00014109
v 1.44250170 -0.00044805 2.96729455
v 1.37060756 0.33019497 2.96729455
v 1.34918596 0.37881032 2.96729455
v 1.13144937 0.23325712 4.21473708
v -1.04415693 0.37236734 2.96729455
v -1.47229428 0.28509397 3.23483037
v -1.47229428 0.28538685 3.73461344
v -1.35843738 0.63477311 3.71507632
v -1.06235063 0.31848043 2.96729455
v -1.35785041 0.63477311 4.21473708
v 1.13291658 0.19254907 4.21473708
v 1.12763449 -0.00015519 4.21473708
v 1.10122450 -0.14014399 4.21473708
v 1.38880126 -0.25289650 4.03633924
v 1.47184633 -0.28569721 3.98468790
v 1.47184633 -0.28540436 2.98487779
v 1.44220822 -0.27896135 2.96729455
v 1.44367564 -0.01391978 2.96729455
v -1.49753054 -0.08039981 3.25436750
v -1.09140177 0.19782062 2.96729455
v -1.09492316 0.17878448 2.96729455
v -1.11927918 0.02942404 2.96729455
v -1.13160383 -0.11817922 2.96729455
v -1.43854802 0.27074366 4.21473708
v -1.43737430 0.28538685 4.21473708
v -1.49723706 -0.08039981 3.75415036
v 1.07774872 -0.25846090 4.21473708
v 1.07187988 -0.28628293 4.21473708
v 1.03872059 -0.38556371 4.21473708
v 1.01729899 -0.44296497 4.21473708
v 1.39056196 -0.56098899 3.96942460
v 1.39026847 -0.56069615 2.96961449
v 1.38674709 -0.55893894 2.96729455
v 1.44044773 -0.29067589 2.96729455
v -1.43267897 -0.44237925 3.27390463
v -1.43267897 -0.44237925 3.77368748
v -1.12045291 -0.29448311 2.96729455
v -1.09492316 -0.42363598 2.96729455
v -1.43209221 -0.04730623 4.21473708
v -1.42974455 -0.07219964 4.21473708
v 0.98443297 -0.50885929 4.21473708
v 1.21214698 -0.88255323 3.94988748
v 1.37002059 -0.59730408 2.96729455
v 0.93806859 -0.59232543 4.21473708
v 1.38645360 -0.56011039 2.96729455
v -1.34288461 -0.64269793 3.28562665
v -1.07350155 -0.48513731 2.96729455
v -1.03095183 -0.60726144 2.96729455
v -1.34523228 -0.38702801 4.21473708
v -1.42123477 -0.10705040 4.21473708
v -1.28184792 -0.77770807 3.79334670
v 1.21156001 -0.88226038 3.44986022
v 0.91488650 -0.62629762 4.21473708
v 0.83506918 -0.73026417 4.21473708
v 0.72854839 -0.85707411 4.21473708
v 0.62232108 -0.95781921 4.21473708
v 0.96066392 -1.15110922 3.93035056
v 0.96037043 -1.15081637 3.43032352
v 1.19307282 -0.85795271 2.96729455
v -1.28184792 -0.77800092 3.29356363
v -0.97813163 -0.70976370 2.96729455
v -1.32116974 -0.43886487 4.21473708
v -1.19586843 -0.66231980 4.21473708
v -1.05384064 -1.06647158 3.81276174
v -1.16623033 -0.70624935 4.21473708
v 1.18544329 -0.86703147 2.96729455
v 0.59561750 -0.97802678 4.21473708
v 0.47735887 -1.06149292 4.21473708
v 0.65166565 -1.35054927 3.91069134
v 0.65137217 -1.35025642 3.41090827
v 0.92985208 -1.09458651 2.96729455
v -0.92355074 -0.79381559 2.96729455
v -0.85928619 -0.88518904 2.96729455
v -1.05384064 -1.06647158 3.31310076
v -0.76244911 -1.29109796 3.33263789
v -0.76244911 -1.29051226 3.83242074
v -0.91709493 -0.95840491 4.21473708
v -0.97108906 -0.91447537 4.21473708
v -1.12573499 -0.75105750 4.21473708
v 0.36232820 -1.11947988 4.21473708
v 0.29982426 -1.14730196 4.21473708
v 0.18039186 -1.18742425 4.21473708
v 0.30334560 -1.46886620 3.89115422
v 0.30305216 -1.46798765 3.39137114
v 0.61909318 -1.25859018 2.96729455
v 0.65137217 -1.24365412 2.96729455
v 0.90843069 -1.10835107 2.96729455
v -0.79120682 -0.95781921 2.96729455
v -0.69260904 -1.04860691 2.96729455
v -0.61866073 -1.10835107 2.96729455
v -0.54617967 -1.15198777 2.96729455
v -0.40004371 -1.23164665 2.96729455
v -0.32726917 -1.26239733 2.96729455
v -0.42528003 -1.43782267 3.35217501
v -0.42528003 -1.43752982 3.85195787
v -0.68879428 -1.10161521 4.21473708
v -0.03000870 -1.22491079 4.21473708
v -0.06228772 -1.49873833 3.87161709
v -0.06258117 -1.49844548 3.37183402
v 0.27869617 -1.33942046 2.96729455
v 0.32740814 -1.33151321 2.96729455
v 0.58065176 -1.27030469 2.96729455
v -0.06786319 -1.33034170 2.96729455
v -0.33401844 -1.45334443 3.85696424
v -0.36835158 -1.20821763 4.21473708
v -0.45667870 -1.18537420 4.21473708
v -0.61015079 -1.13412310 4.21473708
v -0.13799671 -1.22901090 4.21473708
v -0.26593904 -1.21934644 4.21473708
v -0.00477237 -1.33824906 2.96729455
v 0.22323493 -1.34029912 2.96729455
f 1 2 3
f 1 3 4
f 1 4 5
f 1 5 6
f 1 6 7
f 1 7 8
f 1 8 9
f 1 9 2
f 2 9 23
f 2 23 22
f 2 22 38
f 2 38 53
f 2 53 52
f 2 52 66
f 2 66 67
f 2 67 65
f 2 65 82
f 2 82 97
f 2 97 96
f 2 96 111
f 2 111 112
f 2 112 122
f 2 122 121
f 2 121 134
f 2 134 135
f 2 135 137
f 2 137 151
f 2 151 150
f 2 150 149
f 2 149 168
f 2 168 179
f 2 179 178
f 2 178 177
f 2 177 181
f 2 181 180
f 2 180 169
f 2 169 154
f 2 154 153
f 2 153 152
f 2 152 140
f 2 140 139
f 2 139 128
f 2 128 127
f 2 127 126
f 2 126 125
f 2 125 116
f 2 116 113
f 2 113 102
f 2 102 101
f 2 101 100
f 2 100 99
f 2 99 85
f 2 85 84
f 2 84 83
f 2 83 76
f 2 76 59
f 2 59 58
f 2 58 57
f 2 57 43
f 2 43 40
f 2 40 29
f 2 29 28
f 2 28 12
f 2 12 10
f 2 10 3
f 3 10 4
f 4 11 5
f 4 10 12
f 4 12 13
f 4 13 14
f 4 14 11
f 5 11 6
f 6 11 15
f 6 15 16
f 6 16 17
f 6 17 18
f 6 18 7
f 7 18 19
f 7 19 20
f 7 20 8
f 8 20 21
f 8 21 22
f 8 22 23
f 8 23 9
f 11 24 25
f 11 25 15
f 11 14 26
f 11 26 27
f 11 27 24
f 12 28 13
f 13 28 29
f 13 29 30
f 13 30 14
f 14 30 31
f 14 31 26
f 15 25 24
f 15 24 27
f 15 27 39
f 15 39 47
f 15 47 46
f 15 46 45
f 15 45 60
f 15 60 75
f 15 75 74
f 15 74 73
f 15 73 90
f 15 90 89
f 15 89 106
f 15 106 105
f 15 105 117
f 15 117 115
f 15 115 131
f 15 131 138
f 15 138 143
f 15 143 159
f 15 159 158
f 15 158 157
f 15 157 174
f 15 174 173
f 15 173 172
f 15 172 183
f 15 183 182
f 15 182 175
f 15 175 165
f 15 165 164
f 15 164 163
f 15 163 162
f 15 162 161
f 15 161 160
f 15 160 145
f 15 145 144
f 15 144 133
f 15 133 120
f 15 120 119
f 15 119 110
f 15 110 109
f 15 109 95
f 15 95 94
f 15 94 93
f 15 93 92
f 15 92 81
f 15 81 77
f 15 77 63
f 15 63 62
f 15 62 61
f 15 61 50
f 15 50 48
f 15 48 33
f 15 33 37
f 15 37 36
f 15 36 32
f 15 32 17
f 15 17 16
f 17 32 18
f 18 32 19
f 19 33 34
f 19 34 35
f 19 35 20
f 19 32 36
f 19 36 37
f 19 37 33
f 20 35 21
f 21 35 38
f 21 38 22
f 26 39 27
f 26 31 39
f 29 40 30
f 30 41 42
f 30 42 31
f 30 40 43
f 30 43 41
f 31 42 41
f 31 41 44
f 31 44 45
f 31 45 46
f 31 46 47
f 31 47 39
f 33 48 34
f 34 49 35
f 34 48 50
f 34 50 51
f 34 51 49
f 35 52 53
f 35 53 38
f 35 49 54
f 35 54 52
f 41 55 56
f 41 56 44
f 41 43 57
f 41 57 58
f 41 58 59
f 41 59 55
f 44 56 60
f 44 60 45
f 49 51 54
f 50 61 51
f 51 62 63
f 51 63 64
f 51 64 65
f 51 65 54
f 51 61 62
f 52 54 66
f 54 67 66
f 54 65 67
f 55 68 69
f 55 69 70
f 55 70 71
f 55 71 56
f 55 59 68
f 56 71 72
f 56 72 73
f 56 73 74
f 56 74 75
f 56 75 60
f 59 76 68
f 63 77 64
f 64 78 79
f 64 79 80
f 64 80 65
f 64 77 81
f 64 81 78
f 65 80 82
f 68 76 69
f 69 76 83
f 69 83 70
f 70 83 84
f 70 84 85
f 70 85 86
f 70 86 87
f 70 87 88
f 70 88 71
f 71 88 72
f 72 88 89
f 72 89 90
f 72 90 73
f 78 91 79
f 78 81 92
f 78 92 93
f 78 93 94
f 78 94 95
f 78 95 91
f 79 96 97
f 79 97 82
f 79 82 80
f 79 91 98
f 79 98 96
f 85 99 86
f 86 99 87
f 87 99 100
f 87 100 101
f 87 101 102
f 87 102 103
f 87 103 88
f 88 103 104
f 88 104 105
f 88 105 106
f 88 106 89
f 91 107 108
f 91 108 98
f 91 95 109
f 91 109 110
f 91 110 107
f 96 98 111
f 98 108 112
f 98 112 111
f 102 113 103
f 103 114 115
f 103 115 104
f 103 113 116
f 103 116 114
f 104 115 117
f 104 117 105
f 107 118 108
f 107 110 119
f 107 119 120
f 107 120 118
f 108 121 122
f 108 122 112
f 108 118 123
f 108 123 121
f 114 124 115
f 114 116 125
f 114 125 126
f 114 126 127
f 114 127 128
f 114 128 129
f 114 129 130
f 114 130 124
f 115 124 131
f 118 132 123
f 118 120 132
f 120 133 132
f 121 123 134
f 123 135 134
f 123 132 136
f 123 136 137
f 123 137 135
f 124 138 131
f 124 130 138
f 128 139 129
f 129 139 140
f 129 140 141
f 129 141 130
f 130 141 142
f 130 142 143
f 130 143 138
f 132 133 144
f 132 144 145
f 132 145 146
f 132 146 136
f 136 147 148
f 136 148 149
f 136 149 150
f 136 150 151
f 136 151 137
f 136 146 147
f 140 152 141
f 141 152 153
f 141 153 154
f 141 154 155
f 141 155 142
f 142 155 156
f 142 156 157
f 142 157 158
f 142 158 159
f 142 159 143
f 145 160 146
f 146 160 161
f 146 161 162
f 146 162 147
f 147 162 163
f 147 163 164
f 147 164 165
f 147 165 166
f 147 166 167
f 147 167 148
f 148 168 149
f 148 167 168
f 154 169 155
f 155 169 170
f 155 170 171
f 155 171 156
f 156 172 173
f 156 173 174
f 156 174 157
f 156 171 172
f 165 175 166
f 166 175 171
f 166 171 176
f 166 176 167
f 167 176 177
f 167 177 178
f 167 178 179
f 167 179 168
f 169 180 170
f 170 180 181
f 170 181 177
f 170 177 176
f 170 176 171
f 171 175 182
f 171 182 183
f 171 183 172

