# https://github.com/mikedh/trimesh
v 0.14341855 1.49318456 12.11733304
v 0.14312509 1.49289171 11.61743677
v -0.22369005 1.48322704 12.13685197
v -0.16852105 1.44427541 12.15970185
v 0.03366746 1.43256069 12.15970185
v 0.15310246 1.41645280 12.15970185
v 0.29660056 1.37105816 12.15970185
v 0.50231049 1.41323124 12.09774767
v 0.50231049 1.41293839 11.59785097
v 0.18802328 1.25303186 11.47913900
v 0.05420911 1.24981030 11.47913900
v -0.22398350 1.48293409 11.63695570
v -0.57788677 1.38394438 12.15643776
v -0.55793201 1.38277288 12.15970185
v -0.25391562 1.44105385 12.15970185
v 0.43158854 1.32771357 12.15970185
v 0.55630568 1.26181798 12.15970185
v 0.67075203 1.19152944 12.15970185
v 0.83127028 1.24834595 12.07822874
v 0.46328135 1.21203028 11.47913900
v 0.34502016 1.23253112 11.47913900
v 0.83097685 1.24805310 11.57826560
v 0.73736562 1.10454731 11.47913900
v -0.07256221 1.23487402 11.47913900
v -0.21576684 1.20295131 11.47913900
v -0.30967151 1.16751419 11.47913900
v -0.57818020 1.38365153 11.65654107
v -0.63041470 1.35407172 12.15970185
v -0.59167900 1.37252251 12.15970185
v -0.57495225 1.37896562 12.15970185
v 0.79224115 1.09605414 12.15970185
v 0.86912564 1.01727232 12.15970185
v 1.11004987 1.00848620 12.05864337
v 0.81248935 1.05710251 11.47913900
v 1.10975639 1.00819335 11.55874667
v 0.99354929 0.92765434 11.47913900
v -0.45434341 1.10366865 11.47913900
v -0.89745613 1.20148696 11.67606000
v -0.87720793 1.18186477 12.15970185
v 0.97770294 0.89426727 12.15970185
v 1.06163025 0.75486163 12.15970185
v 1.32221566 0.70800258 12.03905800
v 1.32192228 0.70800258 11.53916130
v 1.04725110 0.87640228 11.47913900
v -0.65330394 0.96484877 11.47913900
v -0.79034610 0.82134292 11.47913900
v -0.80912703 0.79996347 11.47913900
v -1.16303025 0.94669083 11.69564537
v -0.88865255 1.17014994 12.15970185
v 1.11239743 0.66729380 12.15970185
v 1.45485608 0.36476005 12.01953907
v 1.17108784 0.50885162 12.15970185
v 1.19573788 0.42479820 12.15970185
v 1.26293838 0.59964101 11.47913900
v 1.24562471 0.63449243 11.47913900
v 1.21187772 0.68252298 11.47913900
v 1.45456260 0.36476005 11.51964237
v 1.37327632 0.37588907 11.47913900
v -0.92151920 0.62336341 11.47913900
v -1.01689113 0.44383469 11.47913900
v -1.35846944 0.63537103 11.71516430
v -1.14014101 0.86585901 12.15970185
v -1.03156376 1.02020103 12.15970185
v 1.50004769 -0.00015482 11.99995328
v 1.22449617 0.25346979 12.15970185
v 1.22713721 0.17703097 12.15970185
v 1.39000313 0.33840182 11.47913900
v 1.49975421 -0.00015482 11.50005700
v -1.03449829 0.39843997 11.47913900
v -1.47232877 0.28539251 11.73474967
v -1.29449684 0.52378795 12.15970185
v -1.28041107 0.56010367 12.15970185
v -1.16009572 0.83452199 12.15970185
v -1.06619110 0.30677195 11.47913900
v 1.47216975 -0.28570215 11.98469802
v 1.47216975 -0.28570215 11.48480132
v 1.22302885 -0.00015482 12.15970185
v 1.20982354 -0.07922947 12.15970185
v 1.19984613 -0.13399599 12.15970185
v 1.46336617 -0.00015482 11.47913900
v 1.46277931 -0.28218772 11.47913900
v 1.46424652 -0.03442050 11.47913900
v 1.46424652 -0.01274819 11.47913900
v -1.49785915 -0.08069381 11.75433546
v -1.34614436 0.23648338 12.15970185
v -1.30124624 0.49215809 12.15970185
v -1.08614582 0.22271853 11.47913900
v -1.09729695 0.16326612 11.47913900
v -1.10874168 0.04026111 11.47913900
v -1.10962202 0.02093175 11.47913900
v -1.11138272 -0.12726000 11.47913900
v 1.39088348 -0.56129195 11.96944276
v 1.17930456 -0.21307063 12.15970185
v 1.13293911 -0.33373268 12.15970185
v 1.11357126 -0.38264183 12.15970185
v 1.44223763 -0.38674199 11.47913900
v 1.46101851 -0.29331674 11.47913900
v 1.46248583 -0.28599503 11.47913900
v -1.43300620 -0.44267998 11.77385397
v -1.33675392 -0.05404273 12.15970185
v -1.33939497 -0.02094852 12.15970185
v -1.34819854 0.20221771 12.15970185
v -1.10081845 -0.28394495 11.47913900
v -1.09993810 -0.29390249 11.47913900
v -1.07470120 -0.41807898 11.47913900
v -1.07176667 -0.43125808 11.47913900
v 1.21217120 -0.88286216 11.94992383
v 1.37591747 -0.55338448 11.47913900
v 1.07014034 -0.46347370 12.15970185
v 1.01526480 -0.54664847 12.15970185
v 0.99266894 -0.58032844 12.15970185
v -1.28217187 -0.77801505 11.79343976
v -1.27571585 -0.30386004 12.15970185
v -1.32530930 -0.10178038 12.15970185
v -1.05680056 -0.47489557 11.47913900
v -1.01483695 -0.59087171 11.47913900
v -1.00955477 -0.60522229 11.47913900
v 1.17108784 -0.85298955 11.47913900
v 1.18311943 -0.83805322 11.47913900
v 1.37210260 -0.55953474 11.47913900
v 0.90169885 -0.68634706 12.15970185
v 0.96097613 -1.15142312 11.93033845
v -1.05415952 -1.06678400 11.81302513
v -1.12634873 -0.59321466 12.15970185
v -1.16537791 -0.53844815 12.15970185
v -1.25077243 -0.35862655 12.15970185
v -0.95233167 -0.71446247 11.47913900
v -0.90743344 -0.78299381 11.47913900
v -0.83700497 -0.88022636 11.47913900
v 1.15494800 -0.86792583 11.47913900
v 0.78461141 -0.79090127 12.15970185
v 0.78138345 -0.79353713 12.15970185
v 0.66077462 -0.89135538 12.15970185
v 0.63495085 -0.90804897 12.15970185
v 0.53517713 -0.97218725 12.15970185
v 0.65197104 -1.35086699 11.91075266
v 0.89876433 -1.09138495 11.47913900
v 0.92605530 -1.07234846 11.47913900
v -0.76276158 -1.29141451 11.83247762
v -0.77567347 -1.28145699 11.83167821
v -0.82556035 -0.90951322 12.15970185
v -0.95790724 -0.79500148 12.15970185
v -1.01248929 -0.74316362 12.15970185
v -0.77303243 -0.94670765 11.47913900
v -0.76246815 -0.95754382 11.47913900
v -0.67766049 -1.03603268 11.47913900
v -0.60576472 -1.09226360 11.47913900
v -0.59637422 -1.09929241 11.47913900
v 0.47589981 -1.00059556 12.15970185
v 0.62086514 -1.23606224 11.47913900
v 0.40693855 -1.03222543 12.15970185
v 0.21384705 -1.08904204 12.15970185
v 0.30364339 -1.46889318 11.89123373
v -0.38655597 -1.21644006 11.47913900
v -0.30615010 -1.24865562 11.47913900
v -0.42529167 -1.43814197 11.85212943
v -0.61368789 -1.03134677 12.15970185
v -0.75219731 -0.95520081 12.15970185
v 0.57567353 -1.25129148 11.47913900
v 0.03073293 -1.12096476 12.15970185
v 0.28603629 -1.31835847 11.47913900
v 0.34149872 -1.30810810 11.47913900
v -0.02208845 -1.12887223 12.15970185
v -0.16910795 -1.13326518 12.15970185
v -0.06258484 -1.49876584 11.87164836
v -0.13506751 -1.29317171 11.47913900
v -0.05730270 -1.31191535 11.47913900
v -0.39037084 -1.10573553 12.15970185
v -0.52007671 -1.06707685 12.15970185
v 0.22265060 -1.32099432 11.47913900
v -0.27240310 -1.12565067 12.15970185
v 0.01312581 -1.31923712 11.47913900
f 1 2 12
f 1 12 3
f 1 3 4
f 1 4 5
f 1 5 6
f 1 6 7
f 1 7 8
f 1 8 9
f 1 9 2
f 2 9 10
f 2 10 11
f 2 11 12
f 3 12 27
f 3 27 13
f 3 13 14
f 3 14 15
f 3 15 4
f 4 15 14
f 4 14 30
f 4 30 29
f 4 29 28
f 4 28 39
f 4 39 49
f 4 49 63
f 4 63 62
f 4 62 73
f 4 73 72
f 4 72 71
f 4 71 86
f 4 86 85
f 4 85 102
f 4 102 101
f 4 101 100
f 4 100 114
f 4 114 113
f 4 113 126
f 4 126 125
f 4 125 124
f 4 124 143
f 4 143 142
f 4 142 141
f 4 141 158
f 4 158 157
f 4 157 169
f 4 169 168
f 4 168 171
f 4 171 164
f 4 164 163
f 4 163 160
f 4 160 152
f 4 152 151
f 4 151 149
f 4 149 135
f 4 135 134
f 4 134 133
f 4 133 132
f 4 132 131
f 4 131 121
f 4 121 111
f 4 111 110
f 4 110 109
f 4 109 95
f 4 95 94
f 4 94 93
f 4 93 79
f 4 79 78
f 4 78 77
f 4 77 66
f 4 66 65
f 4 65 53
f 4 53 52
f 4 52 50
f 4 50 41
f 4 41 40
f 4 40 32
f 4 32 31
f 4 31 18
f 4 18 17
f 4 17 16
f 4 16 7
f 4 7 6
f 4 6 5
f 7 16 8
f 8 17 18
f 8 18 19
f 8 19 9
f 8 16 17
f 9 20 21
f 9 21 10
f 9 19 22
f 9 22 23
f 9 23 20
f 10 21 20
f 10 20 23
f 10 23 34
f 10 34 36
f 10 36 44
f 10 44 56
f 10 56 55
f 10 55 54
f 10 54 58
f 10 58 67
f 10 67 80
f 10 80 83
f 10 83 82
f 10 82 81
f 10 81 98
f 10 98 97
f 10 97 96
f 10 96 108
f 10 108 120
f 10 120 119
f 10 119 118
f 10 118 130
f 10 130 138
f 10 138 137
f 10 137 150
f 10 150 159
f 10 159 162
f 10 162 161
f 10 161 170
f 10 170 172
f 10 172 167
f 10 167 166
f 10 166 155
f 10 155 154
f 10 154 148
f 10 148 147
f 10 147 146
f 10 146 145
f 10 145 144
f 10 144 129
f 10 129 128
f 10 128 127
f 10 127 117
f 10 117 116
f 10 116 115
f 10 115 106
f 10 106 105
f 10 105 104
f 10 104 103
f 10 103 91
f 10 91 90
f 10 90 89
f 10 89 88
f 10 88 87
f 10 87 74
f 10 74 69
f 10 69 60
f 10 60 59
f 10 59 47
f 10 47 46
f 10 46 45
f 10 45 37
f 10 37 26
f 10 26 25
f 10 25 24
f 10 24 11
f 11 24 12
f 12 24 25
f 12 25 26
f 12 26 27
f 13 27 28
f 13 28 29
f 13 29 30
f 13 30 14
f 18 31 19
f 19 31 32
f 19 32 33
f 19 33 22
f 22 34 23
f 22 33 35
f 22 35 36
f 22 36 34
f 26 37 27
f 27 38 28
f 27 37 38
f 28 38 39
f 32 40 33
f 33 40 41
f 33 41 42
f 33 42 43
f 33 43 35
f 35 44 36
f 35 43 44
f 37 45 38
f 38 45 46
f 38 46 47
f 38 47 48
f 38 48 39
f 39 48 49
f 41 50 42
f 42 51 57
f 42 57 43
f 42 50 52
f 42 52 53
f 42 53 51
f 43 54 55
f 43 55 56
f 43 56 44
f 43 57 58
f 43 58 54
f 47 59 48
f 48 60 61
f 48 61 62
f 48 62 63
f 48 63 49
f 48 59 60
f 51 64 68
f 51 68 57
f 51 53 65
f 51 65 66
f 51 66 64
f 57 67 58
f 57 68 67
f 60 69 61
f 61 70 71
f 61 71 72
f 61 72 73
f 61 73 62
f 61 69 74
f 61 74 70
f 64 75 76
f 64 76 68
f 64 66 77
f 64 77 78
f 64 78 79
f 64 79 75
f 67 68 80
f 68 76 81
f 68 81 82
f 68 82 83
f 68 83 80
f 70 84 85
f 70 85 86
f 70 86 71
f 70 74 87
f 70 87 88
f 70 88 89
f 70 89 90
f 70 90 91
f 70 91 84
f 75 92 76
f 75 79 93
f 75 93 94
f 75 94 95
f 75 95 92
f 76 92 96
f 76 96 97
f 76 97 98
f 76 98 81
f 84 99 100
f 84 100 101
f 84 101 102
f 84 102 85
f 84 91 103
f 84 103 104
f 84 104 105
f 84 105 106
f 84 106 99
f 92 107 108
f 92 108 96
f 92 95 109
f 92 109 110
f 92 110 111
f 92 111 107
f 99 112 113
f 99 113 114
f 99 114 100
f 99 106 115
f 99 115 116
f 99 116 117
f 99 117 112
f 107 118 119
f 107 119 120
f 107 120 108
f 107 111 121
f 107 121 122
f 107 122 118
f 112 123 124
f 112 124 125
f 112 125 126
f 112 126 113
f 112 117 127
f 112 127 128
f 112 128 129
f 112 129 123
f 118 122 130
f 121 131 122
f 122 131 132
f 122 132 133
f 122 133 134
f 122 134 135
f 122 135 136
f 122 136 137
f 122 137 138
f 122 138 130
f 123 139 140
f 123 140 141
f 123 141 142
f 123 142 143
f 123 143 124
f 123 129 144
f 123 144 145
f 123 145 146
f 123 146 147
f 123 147 148
f 123 148 139
f 135 149 136
f 136 150 137
f 136 149 151
f 136 151 152
f 136 152 153
f 136 153 150
f 139 148 154
f 139 154 155
f 139 155 156
f 139 156 157
f 139 157 158
f 139 158 141
f 139 141 140
f 150 153 159
f 152 160 153
f 153 161 162
f 153 162 159
f 153 160 163
f 153 163 164
f 153 164 165
f 153 165 161
f 155 166 156
f 156 166 167
f 156 167 165
f 156 165 168
f 156 168 169
f 156 169 157
f 161 165 170
f 164 171 165
f 165 171 168
f 165 167 172
f 165 172 170

