# https://github.com/mikedh/trimesh
v 0.14283041 1.49314753 1.61706140
v 0.14312385 1.49285468 2.61725386
v 0.50229996 1.41290327 2.59779587
v 0.50200653 1.41319612 1.59731310
v 0.14283041 1.49256183 0.61773986
v 0.14224352 1.49226898 0.11793372
v -0.22309490 1.48231168 0.13739171
v -0.22338836 1.48289737 1.63651896
v -0.22368179 1.48319022 2.63671143
v 0.19183565 1.23220717 2.96720483
v 0.32946112 1.21463535 2.96720483
v 0.45916358 1.19149928 2.96720483
v 0.72619814 1.08753315 2.96720483
v 0.83125124 1.24802168 2.57804757
v 0.83095781 1.24831453 1.57785511
v 0.83007746 1.24772883 0.07872786
v 0.50171304 1.41261042 0.59828187
v 0.50141961 1.41231746 0.09847616
v 0.36379414 1.26969350 0.00060601
v 0.08707595 1.28902241 0.00060601
v -0.18289301 1.24890033 0.00060601
v -0.57728245 1.38303124 0.15684970
v -0.57698902 1.38361704 0.65694615
v -0.57728245 1.38390989 1.65597695
v -0.57757588 1.38390989 2.15607340
v -0.57786932 1.38390989 2.65646015
v -0.21517191 1.18183483 2.96720483
v -0.06082009 1.21609970 2.96720483
v 0.04658061 1.22869276 2.96720483
v 0.81041671 1.03393925 2.96720483
v 0.97621287 0.91533000 2.96720483
v 1.10973015 1.00816743 2.55859001
v 1.10973015 1.00846028 1.55810681
v 0.83066438 1.24772883 0.57853357
v 1.10884980 1.00787458 0.05897956
v 0.88084337 1.05912547 0.00060601
v 0.63258933 1.19208498 0.00060601
v -0.43760285 1.15196280 0.00060601
v -0.66238138 1.00260298 0.00060601
v -0.89655008 1.20087089 0.17630769
v -0.67793393 1.32621600 0.66275447
v -0.89743042 1.20145659 2.67591772
v -0.44581930 1.08460444 2.96720483
v -0.29146749 1.15284145 2.96720483
v 1.03783622 0.85646466 2.96720483
v 1.19013396 0.67723291 2.96720483
v 1.23062929 0.62012471 2.96720483
v 1.32218392 0.70769058 2.53913202
v 1.32159706 0.70769058 0.53961801
v 1.10943667 1.00787458 0.55907600
v 1.32130357 0.70739773 0.03981230
v 1.09857923 0.87725792 0.00060601
v -0.84637108 0.80902097 0.00060601
v -0.89713694 1.20116374 1.17620985
v -1.16211742 0.94637343 0.19605599
v -1.15888952 0.94959488 0.19605599
v -0.63831889 0.95047354 2.96720483
v -0.96961773 1.13204818 2.18104898
v -1.16270428 0.94695913 2.69537571
v 1.34947426 0.37909896 2.96720483
v 1.37118914 0.33048380 2.96720483
v 1.45452747 0.36445585 2.51938372
v 1.45423399 0.36474870 1.51919083
v 1.45394050 0.36445585 0.52016002
v 1.45364712 0.36416297 0.01977327
v 1.27758033 0.65058239 0.00060601
v -0.93997983 0.66376120 0.00060601
v -1.16241080 0.94666628 1.19537711
v -1.35784491 0.63476782 0.21580429
v -1.35843177 0.63535357 1.71493154
v -0.78357395 0.79847791 2.96720483
v -1.35813829 0.63506073 2.71512401
v -0.91943878 0.62100331 2.96720483
v -0.78973628 0.79174210 2.96720483
v 1.44308306 -0.00045070 2.96720483
v 1.49971792 -0.00045070 2.49992573
v 1.49971792 -0.00015784 1.49973326
v 1.45628806 0.34922701 1.51861021
v 1.49913095 -0.00045070 0.00060601
v 1.42078132 0.35654857 0.00060601
v -1.01040655 0.50561552 0.00060601
v -1.47140790 0.28509013 0.23497155
v -1.47228824 0.28538301 1.73438911
v -1.05530362 0.33985541 0.00060601
v -1.47228824 0.28567586 2.73458200
v -1.01128689 0.45582893 2.96720483
v -0.94056680 0.58410263 2.96720483
v 1.44396341 -0.01421524 2.96720483
v 1.47213410 -0.28540581 2.48453378
v 1.47448165 -0.26139109 1.98559900
v 1.44249620 -0.27925571 2.96720483
v 1.47154723 -0.28511296 0.48531008
v 1.47360131 -0.16679655 0.00060601
v -1.49723103 -0.07981642 0.25471985
v -1.10313500 0.11435136 0.00060601
v -1.10313500 -0.11408132 0.00060601
v -1.49752451 -0.08010928 1.75413741
v -1.49752451 -0.08040214 2.75403957
v -1.11780721 0.03820713 2.96720483
v -1.09462512 0.17936681 2.96720483
v -1.09139722 0.19811000 2.96720483
v -1.06234629 0.31906216 2.96720483
v -1.04415270 0.37265598 2.96720483
v 1.47213410 -0.28511296 1.98443733
v 1.44102899 -0.29097022 2.96720483
v 1.38703517 -0.56040361 2.96720483
v 1.39055656 -0.56098931 2.46943214
v 1.42958469 -0.33050662 0.00060601
v 1.39026308 -0.56011076 0.46991813
v -1.43208639 -0.44179434 0.27417784
v -1.43267326 -0.44238007 1.77359540
v -1.43296663 -0.44267292 2.77378787
v -1.05530362 -0.33958536 0.00060601
v -1.12044825 -0.29448454 2.96720483
v -1.13159918 -0.11818139 2.96720483
v -1.11898104 0.02912840 2.96720483
v 1.39055656 -0.56069646 1.96933569
v 1.37060227 -0.59730429 2.96720483
v 1.21243570 -0.88255223 2.44997415
v 1.32071671 -0.57738963 0.00060601
v 1.21184884 -0.88167368 0.45016983
v -1.28125587 -0.77712179 0.29392614
v -0.99397365 -0.54839625 0.00060601
v -0.89244182 -0.74285686 0.00060601
v -1.28184273 -0.77770749 1.79334370
v -1.28184273 -0.77800039 2.79324586
v -1.07349711 -0.48513795 2.96720483
v -1.09462512 -0.42363688 2.96720483
v 1.19336176 -0.85824466 2.96720483
v 1.21214221 -0.88255223 2.94978028
v 0.96095370 -1.15110710 2.93003156
v 0.96095370 -1.15110710 2.43022585
v 1.16871246 -0.79850076 0.00060601
v 0.96066032 -1.15052130 1.43032369
v 0.96007346 -1.15022845 0.43071184
v -1.05324944 -1.06559123 0.31338371
v -1.05383630 -1.06646988 1.81280169
v -0.78826907 -0.87962363 0.00060601
v -1.05383630 -1.06676273 2.81270385
v -0.97842109 -0.71005629 2.96720483
v -1.03065422 -0.60726160 2.96720483
v 1.18602571 -0.86732342 2.96720483
v 0.93043556 -1.09487745 2.96720483
v 0.90872058 -1.10864201 2.96720483
v 0.65195665 -1.35054642 2.91057399
v 0.65195665 -1.35054642 2.41076786
v 0.65136979 -1.34966776 0.41125385
v 0.97856043 -0.98593266 0.00060601
v -0.66883713 -0.99676863 0.00060601
v -0.53297235 -1.09692750 0.00060601
v -0.76185907 -1.29021666 0.33284170
v -0.76244594 -1.29080247 1.83225925
v -0.76244594 -1.29138817 2.83245215
v -0.79120349 -0.95811079 2.96720483
v -0.85898921 -0.88518803 2.96720483
v -0.92325355 -0.79410781 2.96720483
v 0.65166322 -1.24365158 2.96720483
v 0.61938433 -1.25888039 2.96720483
v 0.58094307 -1.27030205 2.96720483
v 0.32799391 -1.33209605 2.96720483
v 0.30334456 -1.46856997 2.89111600
v 0.30363800 -1.46856997 2.39101998
v 0.30305111 -1.46856997 1.89121384
v 0.51433118 -1.23310857 0.00060601
v 0.75789010 -1.13294958 0.00060601
v 0.30305111 -1.46827701 1.39111740
v 0.30305111 -1.46769131 0.39179629
v -0.38390252 -1.17746472 0.00060601
v -0.42469129 -1.43694073 0.35229969
v -0.42498474 -1.43752654 1.35220184
v -0.42498474 -1.43781939 1.85171724
v -0.76185907 -1.29050962 0.83293814
v -0.42527818 -1.43811224 2.85191014
v -0.40004196 -1.23222992 2.96720483
v -0.54617735 -1.15227850 2.96720483
v -0.61895157 -1.10864201 2.96720483
v -0.69260614 -1.04889806 2.96720483
v 0.27898867 -1.33941761 2.96720483
v 0.22352764 -1.34029616 2.96720483
v -0.00506563 -1.33853906 2.96720483
v -0.06228731 -1.49873474 2.87136770
v 0.26607711 -1.47091276 0.38976327
v -0.06228731 -1.49814904 1.37165983
v 0.25786066 -1.28377376 0.00060601
v -0.22397525 -1.23691572 0.00060601
v 0.00050982 -1.28201656 0.00060601
v -0.06199387 -1.49756334 0.37204799
v -0.06786276 -1.33092455 2.96720483
v -0.32726772 -1.26298049 2.96720483
v -0.06170042 -1.49785619 0.87185370
f 1 2 3
f 1 3 4
f 1 4 5
f 1 5 6
f 1 6 7
f 1 7 8
f 1 8 9
f 1 9 2
f 2 10 11
f 2 11 12
f 2 12 3
f 2 9 10
f 3 13 14
f 3 14 15
f 3 15 4
f 3 12 13
f 4 15 16
f 4 16 17
f 4 17 5
f 5 17 18
f 5 18 6
f 6 18 19
f 6 19 20
f 6 20 7
f 7 21 22
f 7 22 23
f 7 23 8
f 7 20 21
f 8 23 24
f 8 24 9
f 9 24 25
f 9 25 26
f 9 26 27
f 9 27 28
f 9 28 29
f 9 29 10
f 10 29 28
f 10 28 27
f 10 27 44
f 10 44 43
f 10 43 57
f 10 57 71
f 10 71 74
f 10 74 73
f 10 73 87
f 10 87 86
f 10 86 103
f 10 103 102
f 10 102 101
f 10 101 100
f 10 100 99
f 10 99 116
f 10 116 115
f 10 115 114
f 10 114 128
f 10 128 127
f 10 127 141
f 10 141 140
f 10 140 156
f 10 156 155
f 10 155 154
f 10 154 177
f 10 177 176
f 10 176 175
f 10 175 174
f 10 174 189
f 10 189 188
f 10 188 180
f 10 180 179
f 10 179 178
f 10 178 160
f 10 160 159
f 10 159 158
f 10 158 157
f 10 157 144
f 10 144 143
f 10 143 142
f 10 142 129
f 10 129 118
f 10 118 106
f 10 106 105
f 10 105 91
f 10 91 88
f 10 88 75
f 10 75 61
f 10 61 60
f 10 60 47
f 10 47 46
f 10 46 45
f 10 45 31
f 10 31 30
f 10 30 13
f 10 13 12
f 10 12 11
f 13 30 14
f 14 30 31
f 14 31 32
f 14 32 33
f 14 33 15
f 15 34 16
f 15 33 34
f 16 34 35
f 16 35 36
f 16 36 37
f 16 37 18
f 16 18 17
f 18 37 19
f 19 37 36
f 19 36 52
f 19 52 66
f 19 66 80
f 19 80 79
f 19 79 93
f 19 93 108
f 19 108 120
f 19 120 133
f 19 133 148
f 19 148 165
f 19 165 164
f 19 164 184
f 19 184 186
f 19 186 185
f 19 185 168
f 19 168 150
f 19 150 149
f 19 149 138
f 19 138 124
f 19 124 123
f 19 123 113
f 19 113 96
f 19 96 95
f 19 95 84
f 19 84 81
f 19 81 67
f 19 67 53
f 19 53 39
f 19 39 38
f 19 38 21
f 19 21 20
f 21 38 22
f 22 38 39
f 22 39 40
f 22 40 41
f 22 41 23
f 23 41 24
f 24 41 25
f 25 41 26
f 26 41 42
f 26 42 43
f 26 43 44
f 26 44 27
f 31 45 32
f 32 45 46
f 32 46 47
f 32 47 48
f 32 48 33
f 33 48 49
f 33 49 50
f 33 50 34
f 34 50 35
f 35 50 51
f 35 51 52
f 35 52 36
f 39 53 40
f 40 54 41
f 40 53 55
f 40 55 56
f 40 56 54
f 41 54 42
f 42 57 43
f 42 54 58
f 42 58 59
f 42 59 57
f 47 60 48
f 48 60 61
f 48 61 62
f 48 62 63
f 48 63 49
f 49 63 64
f 49 64 65
f 49 65 51
f 49 51 50
f 51 65 66
f 51 66 52
f 53 67 55
f 54 56 68
f 54 68 58
f 55 69 70
f 55 70 68
f 55 68 56
f 55 67 69
f 57 59 71
f 58 68 59
f 59 68 70
f 59 70 72
f 59 72 73
f 59 73 74
f 59 74 71
f 61 75 62
f 62 75 76
f 62 76 77
f 62 77 78
f 62 78 63
f 63 78 64
f 64 78 79
f 64 79 65
f 65 80 66
f 65 79 80
f 67 81 69
f 69 82 83
f 69 83 70
f 69 81 84
f 69 84 82
f 70 83 85
f 70 85 72
f 72 85 86
f 72 86 87
f 72 87 73
f 75 88 76
f 76 89 90
f 76 90 77
f 76 88 91
f 76 91 89
f 77 90 79
f 77 79 78
f 79 90 92
f 79 92 93
f 82 94 83
f 82 84 95
f 82 95 96
f 82 96 94
f 83 94 97
f 83 97 85
f 85 97 98
f 85 98 99
f 85 99 100
f 85 100 101
f 85 101 102
f 85 102 103
f 85 103 86
f 89 104 90
f 89 91 105
f 89 105 106
f 89 106 107
f 89 107 117
f 89 117 104
f 90 104 92
f 92 108 93
f 92 104 109
f 92 109 108
f 94 110 111
f 94 111 112
f 94 112 97
f 94 96 113
f 94 113 110
f 97 112 98
f 98 112 114
f 98 114 115
f 98 115 116
f 98 116 99
f 104 117 109
f 106 118 107
f 107 118 119
f 107 119 117
f 108 109 120
f 109 117 119
f 109 119 121
f 109 121 120
f 110 122 125
f 110 125 111
f 110 113 123
f 110 123 124
f 110 124 122
f 111 125 112
f 112 126 127
f 112 127 128
f 112 128 114
f 112 125 126
f 118 129 130
f 118 130 119
f 119 130 131
f 119 131 132
f 119 132 121
f 120 121 133
f 121 132 134
f 121 134 135
f 121 135 133
f 122 136 137
f 122 137 125
f 122 124 138
f 122 138 136
f 125 137 139
f 125 139 126
f 126 139 140
f 126 140 141
f 126 141 127
f 129 142 130
f 130 142 131
f 131 142 143
f 131 143 144
f 131 144 145
f 131 145 146
f 131 146 132
f 132 146 147
f 132 147 135
f 132 135 134
f 133 135 148
f 135 147 148
f 136 138 149
f 136 149 150
f 136 150 151
f 136 151 137
f 137 151 152
f 137 152 153
f 137 153 139
f 139 153 154
f 139 154 155
f 139 155 156
f 139 156 140
f 144 157 145
f 145 157 158
f 145 158 159
f 145 159 160
f 145 160 161
f 145 161 162
f 145 162 146
f 146 162 163
f 146 163 147
f 147 164 165
f 147 165 148
f 147 163 166
f 147 166 167
f 147 167 164
f 150 168 151
f 151 168 169
f 151 169 170
f 151 170 171
f 151 171 172
f 151 172 153
f 151 153 152
f 153 172 171
f 153 171 173
f 153 173 174
f 153 174 175
f 153 175 176
f 153 176 177
f 153 177 154
f 160 178 161
f 161 178 179
f 161 179 180
f 161 180 181
f 161 181 162
f 162 181 163
f 163 182 166
f 163 181 183
f 163 183 182
f 164 167 184
f 166 182 167
f 167 182 184
f 168 185 169
f 169 185 186
f 169 186 187
f 169 187 183
f 169 183 170
f 170 183 171
f 171 183 181
f 171 181 173
f 173 181 188
f 173 188 189
f 173 189 174
f 180 188 181
f 182 183 190
f 182 190 187
f 182 187 184
f 183 187 190
f 184 187 186

