# https://github.com/mikedh/trimesh
v -2.70000015 0.00000000 12.40016010
v -2.42715981 -0.59793438 12.20004484
v -2.62133768 -0.64572757 12.40016010
v -2.62823403 -0.61715559 13.99988413
v -2.70000015 0.00000000 13.99988413
v -2.62823403 0.61715559 13.99988413
v -2.62133768 0.64572757 12.40016010
v -2.42715981 0.59793438 12.20004484
v -2.49978777 0.00000000 12.20004484
v -1.33709110 -0.05402709 12.15990160
v -1.32566891 -0.10182028 12.15990160
v -1.27588523 -0.30390236 12.15990160
v -2.21358575 -1.16158240 12.20004484
v -2.39052230 -1.25457133 12.40016010
v -2.41746171 -1.20210270 13.99988413
v -2.43513383 -0.56520643 14.19999981
v -2.24397312 -1.10184088 14.19999981
v -2.49978777 0.00000000 14.19999981
v -2.43513383 0.56520643 14.19999981
v -2.24397312 1.10184088 14.19999981
v -2.41746171 1.20210270 13.99988413
v -2.39052230 1.25457133 12.40016010
v -2.21358575 1.16158240 12.20004484
v -1.29485052 0.52364713 12.15990160
v -1.30131585 0.49195818 12.15990160
v -1.34678931 0.23636851 12.15990160
v -1.34872891 0.20208209 12.15990160
v -1.33989285 -0.02077965 12.15990160
v -1.25110115 -0.35844894 12.15990160
v -1.87113418 -1.65769649 12.20004484
v -2.02091635 -1.79016679 12.40016010
v -1.16575773 -0.53819291 12.15990160
v -2.07845854 -1.72315238 13.99988413
v -1.93643498 -1.58081185 14.19999981
v -1.93643498 1.58081185 14.19999981
v -2.07845854 1.72315238 13.99988413
v -2.02091635 1.79016679 12.40016010
v -1.14054262 0.86547237 12.15990160
v -1.16036984 0.83430289 12.15990160
v -1.28062658 0.56001152 12.15990160
v -1.87113418 1.65769649 12.20004484
v -1.42027942 -2.05718526 12.20004484
v -1.53385520 -2.22186404 12.40016010
v -1.12674981 -0.59273947 12.15990160
v -1.01295851 -0.74287247 12.15990160
v -0.95800246 -0.79482157 12.15990160
v -1.62911235 -2.15277165 13.99988413
v -1.52868294 -1.97822253 14.19999981
v -1.52868294 1.97822253 14.19999981
v -1.62911235 2.15277165 13.99988413
v -1.53385520 2.22186404 12.40016010
v -1.03192369 1.02028080 12.15990160
v -1.42027942 2.05718526 12.20004484
v -0.87740033 1.18184255 12.15990160
v -0.88666741 -2.33719110 12.20004484
v -0.82589251 -0.90910960 12.15990160
v -0.75283337 -0.95534438 12.15990160
v -0.61425804 -1.03119008 12.15990160
v -1.09377609 -2.46810289 13.99988413
v -0.95757143 -2.52420791 12.40016010
v -1.04140628 -2.27277415 14.19999981
v -1.04140628 2.27277415 14.19999981
v -1.09377609 2.46810289 13.99988413
v -0.88666741 2.33719110 12.20004484
v -0.95757143 2.52420791 12.40016010
v -0.63085260 1.35379411 12.15990160
v -0.49831163 -2.43277749 12.20004484
v -0.49831163 -2.49459688 12.26015940
v -0.52050948 -1.06703495 12.15990160
v -0.49831163 -1.07378837 12.15990160
v -0.50003572 -2.44940114 14.19999981
v -0.50003572 -2.65304160 13.99988413
v -0.49831163 -2.63745689 12.40016010
v -0.50003572 -2.65304160 13.00010639
v -0.50003572 2.44940114 14.19999981
v -0.50003572 2.65304160 13.99988413
v -0.49831163 2.57459855 12.33844756
v -0.49831163 2.43277749 12.20004484
v -0.57546553 1.37872969 12.15990160
v -0.59206009 1.37249585 12.15990160
v -0.50003572 2.65304160 13.00010639
v -0.49831163 2.63745689 12.40016010
v -0.49831163 1.39431441 12.15990160
v -0.49831163 -2.65304160 13.00010639
v -0.49831163 -2.65304160 12.99431457
v -0.49831163 2.65304160 13.00010639
v -0.55843994 1.38236619 12.15990160
v -0.49831163 2.65304160 12.99431457
f 1 2 3
f 1 3 4
f 1 4 5
f 1 5 6
f 1 6 7
f 1 7 8
f 1 8 9
f 1 9 2
f 2 10 11
f 2 11 12
f 2 12 13
f 2 13 3
f 2 9 10
f 3 13 14
f 3 14 15
f 3 15 4
f 4 16 5
f 4 15 17
f 4 17 16
f 5 18 19
f 5 19 6
f 5 16 18
f 6 19 20
f 6 20 21
f 6 21 7
f 7 21 22
f 7 22 23
f 7 23 8
f 8 24 25
f 8 25 26
f 8 26 9
f 8 23 24
f 9 26 27
f 9 27 28
f 9 28 10
f 10 28 27
f 10 27 26
f 10 26 25
f 10 25 24
f 10 24 40
f 10 40 39
f 10 39 38
f 10 38 52
f 10 52 54
f 10 54 66
f 10 66 80
f 10 80 79
f 10 79 87
f 10 87 83
f 10 83 70
f 10 70 69
f 10 69 58
f 10 58 57
f 10 57 56
f 10 56 46
f 10 46 45
f 10 45 44
f 10 44 32
f 10 32 29
f 10 29 12
f 10 12 11
f 12 29 13
f 13 30 31
f 13 31 14
f 13 29 32
f 13 32 30
f 14 31 33
f 14 33 15
f 15 33 34
f 15 34 17
f 16 17 34
f 16 34 48
f 16 48 61
f 16 61 71
f 16 71 75
f 16 75 62
f 16 62 49
f 16 49 35
f 16 35 20
f 16 20 19
f 16 19 18
f 20 35 21
f 21 35 36
f 21 36 22
f 22 36 37
f 22 37 23
f 23 38 39
f 23 39 40
f 23 40 24
f 23 37 41
f 23 41 38
f 30 42 43
f 30 43 31
f 30 32 44
f 30 44 45
f 30 45 46
f 30 46 42
f 31 43 47
f 31 47 33
f 33 47 48
f 33 48 34
f 35 49 36
f 36 49 50
f 36 50 37
f 37 50 51
f 37 51 41
f 38 41 52
f 41 51 53
f 41 53 54
f 41 54 52
f 42 55 43
f 42 46 56
f 42 56 57
f 42 57 58
f 42 58 55
f 43 59 47
f 43 55 60
f 43 60 59
f 47 59 61
f 47 61 48
f 49 62 50
f 50 62 63
f 50 63 51
f 51 64 53
f 51 63 65
f 51 65 64
f 53 64 66
f 53 66 54
f 55 67 68
f 55 68 60
f 55 58 69
f 55 69 70
f 55 70 67
f 59 71 61
f 59 60 72
f 59 72 71
f 60 68 73
f 60 73 74
f 60 74 72
f 62 75 63
f 63 75 76
f 63 76 65
f 64 65 77
f 64 77 78
f 64 78 79
f 64 79 80
f 64 80 66
f 65 76 81
f 65 81 82
f 65 82 77
f 67 70 83
f 67 83 78
f 67 78 77
f 67 77 82
f 67 82 88
f 67 88 86
f 67 86 84
f 67 84 85
f 67 85 73
f 67 73 68
f 71 72 84
f 71 84 86
f 71 86 75
f 72 74 85
f 72 85 84
f 73 85 74
f 75 86 76
f 76 86 88
f 76 88 81
f 78 83 87
f 78 87 79
f 81 88 82

