# https://github.com/mikedh/trimesh
v 0.14354851 1.49288833 11.11742877
v 0.18814883 1.25305238 11.47913900
v 0.34513024 1.23284640 11.47913900
v 0.46337980 1.21205472 11.47913900
v 0.50240507 1.41294294 11.09788445
v 0.17435794 1.32626244 11.02125689
v 0.01238834 1.13415928 10.91351366
v -0.00961840 1.13181670 10.91351366
v -0.22381732 1.48293165 11.13697351
v 0.05464128 1.24953819 11.47913900
v 0.73773046 1.10458254 11.47913900
v 0.44166646 1.10077570 10.91351366
v 0.25857040 1.13269525 10.91351366
v 0.20956873 1.13913772 10.91351366
v 0.83103906 1.24807415 11.07834013
v 0.77734259 1.16549334 11.02125689
v 0.67552474 1.00940961 10.91351366
v -0.21237381 1.08906215 10.91351366
v -0.42041085 1.02668710 10.91351366
v -0.57797913 1.38365905 11.15651783
v -0.21560148 1.20268396 11.47913900
v -0.07270438 1.23489635 11.47913900
v 0.81255336 1.05714239 11.47913900
v 0.82047580 1.13825918 11.02125689
v 0.99359552 0.92741449 11.47913900
v 1.11008447 1.00823821 11.05874037
v 0.80022961 0.93034278 10.91351366
v -0.51753395 0.97544012 10.91351366
v -0.45415451 1.10341114 11.47913900
v -0.30949689 1.16725022 11.47913900
v -0.61260304 0.92507169 10.91351366
v -0.89722359 1.20121971 11.17606215
v 1.04758532 0.87646031 11.47913900
v 1.21219575 0.68230747 11.47913900
v 1.24593946 0.63457453 11.47913900
v 1.32222941 0.70749168 11.03919604
v 1.09189225 0.65419481 10.91351366
v 0.99564949 0.76752388 10.91351366
v 0.89735266 0.86064691 10.91351366
v -0.60702800 0.99711035 11.47913900
v -0.78102797 0.78802266 10.91351366
v -0.65309546 0.96460511 11.47913900
v -0.93448827 0.64101701 10.91351366
v -1.16277157 0.94674193 11.19560647
v 1.26325144 0.59972660 11.47913900
v 1.29934240 0.68582151 11.02125689
v 1.37357848 0.37570411 11.47913900
v 1.39030360 0.33851343 11.47913900
v 1.44370664 0.39327450 11.02131233
v 1.44370664 0.39327450 11.02125689
v 1.16202040 0.55433640 10.91351366
v -0.79012408 0.82169925 11.47913900
v -0.94915942 0.62198242 10.91351366
v -1.04041410 0.50016104 10.91351366
v -1.10555398 0.38185374 10.91351366
v -1.35819140 0.63516023 11.21509578
v -0.80919659 0.80002907 11.47913900
v 1.24153804 0.39386017 10.91351366
v 1.46365945 -0.00030230 11.47913900
v 1.45456334 0.36457620 11.01959629
v -1.12961472 0.32562848 10.91351366
v -1.17480189 0.20439278 10.91351366
v -1.47233300 0.28580226 11.23464010
v -1.01664674 0.44364298 11.47913900
v -0.92275133 0.62110393 11.47913900
v -0.92128422 0.62373947 11.47913900
v 1.28525811 0.29575880 10.91351366
v 1.46453969 -0.01289441 11.47913900
v 1.50004388 -0.00059514 11.00005154
v 1.35010460 -0.00059514 10.91351366
v -1.20032973 0.09164942 10.91351366
v -1.21529426 -0.00264502 10.91351366
v -1.22409699 -0.11392417 10.91351366
v -1.49756736 -0.08054043 11.25418442
v -1.09733811 0.16310235 11.47913900
v -1.08589465 0.22313453 11.47913900
v -1.06623533 0.30688674 11.47913900
v -1.03454558 0.39854561 11.47913900
v 1.46277920 -0.28582117 11.47913900
v 1.47216869 -0.28552835 10.98477047
v 1.35157181 -0.25360878 10.91351366
v 1.35274543 -0.03456456 10.91351366
v -1.20649153 -0.34146076 10.91351366
v -1.18712569 -0.43516952 10.91351366
v -1.43272087 -0.44278334 11.27378418
v -1.27485920 -0.37191611 11.37139576
v -1.09997894 -0.29402070 11.47913900
v -1.29657249 -0.10543182 11.37139576
v -1.10936853 0.02078217 11.47913900
v -1.10848818 0.04040244 11.47913900
v 1.44223953 -0.38655811 11.47913900
v 1.39089046 -0.56109067 10.96954483
v 1.34599678 -0.30163452 10.91351366
v -1.13636348 -0.58246800 10.91351366
v -1.28190134 -0.77808503 11.29338394
v -1.26136167 -0.43721939 11.37139576
v -1.10584746 -0.66651301 10.91351366
v -1.07151688 -0.43136261 11.47913900
v -1.11142250 -0.12739481 11.47913900
v 1.37592594 -0.55318399 11.47913900
v 1.39059708 -0.56109067 11.46944999
v 1.29523457 -0.54264173 10.91351366
v 1.30550430 -0.50427971 10.91351366
v 1.21248923 -0.88292167 11.44990525
v 1.21248923 -0.88233603 10.95000009
v 1.16407437 -0.83987422 10.91351366
v -1.05391153 -1.06653220 11.31292826
v -1.00256245 -0.96667389 11.37139576
v -1.14340562 -0.75143657 11.37139576
v -1.16746626 -0.70546073 11.37139576
v -1.01488626 -0.59066746 11.47913900
v -1.18741907 -0.65069966 11.37139576
v -1.06858267 -0.73738027 10.91351366
v -0.96500429 -0.89492808 10.91351366
v -0.92245795 -0.95378894 10.91351366
v -1.05655236 -0.47499576 11.47913900
v 1.37240486 -0.55962647 11.47913900
v 1.18344031 -0.83811718 11.47913900
v 1.17111651 -0.85305203 11.47913900
v 1.15527164 -0.86798688 11.47913900
v 0.92640158 -1.07238919 11.47913900
v 0.96102554 -1.15145581 11.43030549
v 1.15145719 -0.86154440 10.91351366
v 0.96102554 -1.15087011 10.93040033
v -0.76254232 -1.29084754 11.33247301
v -0.73994873 -1.22349447 11.37139576
v -0.95150687 -1.02817018 11.37139576
v -0.97762147 -1.00122908 11.37139576
v -0.87727078 -1.00064338 10.91351366
v -0.71530118 -1.15057726 10.91351366
v -0.67070082 -1.18542530 10.91351366
v -0.84587446 -0.86798688 11.47913900
v -0.90719994 -0.78277047 11.47913900
v -0.95209362 -0.71453875 11.47913900
v -1.00931122 -0.60530947 11.47913900
v 0.89881977 -1.09142377 11.47913900
v 0.65175749 -1.35058694 11.41076117
v 0.69430383 -1.32305993 10.91351366
v 0.94987546 -1.11924342 10.91351366
v 0.93344372 -1.13652112 10.91351366
v 0.94165959 -1.12890725 10.91351366
v -0.40632654 -1.33096665 10.91351366
v -0.42539905 -1.43785335 11.35201733
v -0.41953058 -1.40446956 11.37139576
v -0.71852882 -1.24047911 11.37139576
v -0.67715615 -1.03607690 11.47913900
v -0.76224889 -0.95730292 11.47913900
v -0.77281210 -0.94676076 11.47913900
v -0.83677835 -0.88028613 11.47913900
v 0.62124146 -1.23608658 11.47913900
v 0.65058376 -1.34590156 10.91351366
v 0.57576086 -1.25131433 11.47913900
v 0.30346414 -1.46860149 11.39121685
v -0.36730127 -1.34648726 10.91351366
v -0.09060320 -1.41852592 10.91351366
v -0.06008719 -1.42584673 10.91351366
v -0.06272799 -1.49876394 11.37161709
v -0.40720680 -1.40944779 11.37139576
v -0.31213769 -1.24633589 11.47913900
v -0.38637376 -1.21617344 11.47913900
v -0.59617135 -1.09933029 11.47913900
v -0.60556090 -1.09200926 11.47913900
v 0.64882322 -1.34648726 10.91351366
v 0.34160917 -1.30783239 11.47913900
v 0.29906280 -1.43053232 10.91351366
v 0.31314711 -1.42789668 10.91351366
v 0.28615219 -1.31808170 11.47913900
v 0.22277277 -1.32071734 11.47913900
v 0.01356204 -1.31925310 11.47913900
v -0.03279883 -1.42848238 10.91351366
v -0.05685953 -1.31222492 11.47913900
v -0.13491010 -1.29319033 11.47913900
v -0.30597582 -1.24867869 11.47913900
v 0.28321796 -1.43141087 10.91351366
f 1 2 3
f 1 3 4
f 1 4 5
f 1 5 6
f 1 6 7
f 1 7 8
f 1 8 9
f 1 9 2
f 2 9 10
f 2 10 22
f 2 22 21
f 2 21 30
f 2 30 29
f 2 29 40
f 2 40 42
f 2 42 52
f 2 52 57
f 2 57 66
f 2 66 65
f 2 65 64
f 2 64 78
f 2 78 77
f 2 77 76
f 2 76 75
f 2 75 90
f 2 90 89
f 2 89 99
f 2 99 87
f 2 87 98
f 2 98 116
f 2 116 111
f 2 111 135
f 2 135 134
f 2 134 133
f 2 133 132
f 2 132 149
f 2 149 148
f 2 148 147
f 2 147 146
f 2 146 162
f 2 162 161
f 2 161 160
f 2 160 159
f 2 159 173
f 2 173 172
f 2 172 171
f 2 171 169
f 2 169 168
f 2 168 167
f 2 167 164
f 2 164 152
f 2 152 150
f 2 150 136
f 2 136 121
f 2 121 120
f 2 120 119
f 2 119 118
f 2 118 117
f 2 117 100
f 2 100 91
f 2 91 79
f 2 79 68
f 2 68 59
f 2 59 48
f 2 48 47
f 2 47 45
f 2 45 35
f 2 35 34
f 2 34 33
f 2 33 25
f 2 25 23
f 2 23 11
f 2 11 4
f 2 4 3
f 4 11 5
f 5 12 13
f 5 13 14
f 5 14 6
f 5 11 15
f 5 15 16
f 5 16 17
f 5 17 12
f 6 14 7
f 7 14 13
f 7 13 12
f 7 12 17
f 7 17 27
f 7 27 39
f 7 39 38
f 7 38 37
f 7 37 51
f 7 51 58
f 7 58 67
f 7 67 70
f 7 70 82
f 7 82 81
f 7 81 93
f 7 93 103
f 7 103 102
f 7 102 106
f 7 106 123
f 7 123 139
f 7 139 141
f 7 141 140
f 7 140 138
f 7 138 151
f 7 151 163
f 7 163 166
f 7 166 165
f 7 165 174
f 7 174 170
f 7 170 156
f 7 156 155
f 7 155 154
f 7 154 142
f 7 142 131
f 7 131 130
f 7 130 129
f 7 129 115
f 7 115 114
f 7 114 113
f 7 113 97
f 7 97 94
f 7 94 84
f 7 84 83
f 7 83 73
f 7 73 72
f 7 72 71
f 7 71 62
f 7 62 61
f 7 61 55
f 7 55 54
f 7 54 53
f 7 53 43
f 7 43 41
f 7 41 31
f 7 31 28
f 7 28 19
f 7 19 18
f 7 18 8
f 8 18 9
f 9 18 19
f 9 19 20
f 9 20 21
f 9 21 22
f 9 22 10
f 11 23 15
f 15 24 16
f 15 23 25
f 15 25 26
f 15 26 24
f 16 24 17
f 17 24 27
f 19 28 20
f 20 29 30
f 20 30 21
f 20 28 31
f 20 31 32
f 20 32 29
f 24 26 27
f 25 33 26
f 26 33 34
f 26 34 35
f 26 35 36
f 26 36 37
f 26 37 38
f 26 38 39
f 26 39 27
f 29 32 40
f 31 41 32
f 32 42 40
f 32 41 43
f 32 43 44
f 32 44 42
f 35 45 36
f 36 46 37
f 36 45 47
f 36 47 48
f 36 48 49
f 36 49 50
f 36 50 46
f 37 46 51
f 42 44 52
f 43 53 44
f 44 53 54
f 44 54 55
f 44 55 56
f 44 56 57
f 44 57 52
f 46 50 58
f 46 58 51
f 48 59 60
f 48 60 49
f 49 60 50
f 50 60 58
f 55 61 56
f 56 61 62
f 56 62 63
f 56 63 64
f 56 64 65
f 56 65 66
f 56 66 57
f 58 60 67
f 59 68 69
f 59 69 60
f 60 69 70
f 60 70 67
f 62 71 63
f 63 71 72
f 63 72 73
f 63 73 74
f 63 74 75
f 63 75 76
f 63 76 77
f 63 77 78
f 63 78 64
f 68 79 69
f 69 80 81
f 69 81 82
f 69 82 70
f 69 79 80
f 73 83 74
f 74 83 84
f 74 84 85
f 74 85 86
f 74 86 87
f 74 87 88
f 74 88 89
f 74 89 90
f 74 90 75
f 79 91 80
f 80 91 92
f 80 92 93
f 80 93 81
f 84 94 85
f 85 95 96
f 85 96 86
f 85 94 97
f 85 97 95
f 86 96 87
f 87 99 88
f 87 96 98
f 88 99 89
f 91 100 101
f 91 101 92
f 92 102 103
f 92 103 93
f 92 101 104
f 92 104 105
f 92 105 106
f 92 106 102
f 95 107 108
f 95 108 109
f 95 109 110
f 95 110 111
f 95 111 112
f 95 112 96
f 95 97 113
f 95 113 114
f 95 114 115
f 95 115 107
f 96 112 116
f 96 116 98
f 100 117 101
f 101 117 104
f 104 117 118
f 104 118 119
f 104 119 120
f 104 120 121
f 104 121 122
f 104 122 124
f 104 124 105
f 105 123 106
f 105 124 123
f 107 125 126
f 107 126 127
f 107 127 128
f 107 128 108
f 107 115 129
f 107 129 130
f 107 130 131
f 107 131 125
f 108 128 132
f 108 132 133
f 108 133 134
f 108 134 109
f 109 134 135
f 109 135 110
f 110 135 111
f 111 116 112
f 121 136 122
f 122 136 137
f 122 137 138
f 122 138 124
f 123 124 139
f 124 138 140
f 124 140 141
f 124 141 139
f 125 131 142
f 125 142 143
f 125 143 144
f 125 144 145
f 125 145 126
f 126 145 146
f 126 146 127
f 127 146 147
f 127 147 148
f 127 148 128
f 128 148 149
f 128 149 132
f 136 150 137
f 137 151 138
f 137 150 152
f 137 152 153
f 137 153 151
f 142 154 143
f 143 154 155
f 143 155 156
f 143 156 157
f 143 157 158
f 143 158 144
f 144 158 159
f 144 159 160
f 144 160 145
f 145 161 162
f 145 162 146
f 145 160 161
f 151 153 163
f 152 164 153
f 153 165 166
f 153 166 163
f 153 164 167
f 153 167 168
f 153 168 169
f 153 169 157
f 153 157 165
f 156 170 157
f 157 169 171
f 157 171 172
f 157 172 173
f 157 173 158
f 157 170 174
f 157 174 165
f 158 173 159

