# https://github.com/mikedh/trimesh
v 0.14312439 1.49317229 8.61736899
v 0.16689383 1.36753233 9.04494973
v 0.43246590 1.33268122 9.04494973
v 0.48528686 1.32360236 9.04494973
v 0.50230694 1.41321960 8.59783832
v 0.19242395 1.23134925 8.46667135
v 0.04628596 1.22783484 8.46667135
v -0.06052976 1.21524157 8.46667135
v -0.22368785 1.48292192 8.63695637
v 0.09705278 1.36548227 9.04494973
v 0.76729208 1.21289867 9.04494973
v 0.45916982 1.19093369 8.46667135
v 0.32858467 1.21348437 8.46667135
v 0.79986503 1.20001255 9.04494973
v 0.83126415 1.24833558 8.57830765
v 0.72562222 1.08638016 8.46667135
v -0.21488435 1.18068332 8.46667135
v -0.57788175 1.38393296 8.65648705
v -0.21928610 1.31979510 9.04494973
v -0.13565291 1.33853853 9.04494973
v 0.82510172 1.18390487 9.04494973
v 0.81013576 1.03307848 8.46667135
v 1.09008691 0.99412716 9.04494973
v 1.11004141 1.00818478 8.55872027
v 0.97534797 0.91476017 8.46667135
v -0.29030094 1.15198237 8.46667135
v -0.89744862 1.20147691 8.67607432
v -0.50041098 1.20762706 9.04494973
v -0.40914812 1.24774978 9.04494973
v -0.44553587 1.08345156 8.46667135
v 1.09947724 0.98563399 9.04494973
v 1.03755935 0.85560113 8.46667135
v 1.25882050 0.79790633 9.04494973
v 1.32191223 0.70770339 8.53913299
v -0.73517083 1.04391454 9.04494973
v -0.63774551 0.94931854 8.46667135
v -0.78359003 0.79702773 8.46667135
v -0.78887217 0.79117042 8.46667135
v -1.16272713 0.94697553 8.69560499
v 1.18897949 0.67695233 8.46667135
v 1.31222841 0.70565328 9.04494973
v 1.32220561 0.70770339 9.03906206
v 1.23006243 0.61955044 8.46667135
v 1.45484497 0.36475629 8.51960232
v -0.82643372 0.94843988 9.04494973
v -0.91975078 0.62101479 8.46667135
v -0.94205295 0.58177063 8.46667135
v -1.01101362 0.45671647 8.46667135
v -1.35845822 0.63536527 8.71519227
v -0.91681626 0.84447216 9.04494973
v 1.31428248 0.70008882 9.04494973
v 1.45484497 0.36475629 9.01953150
v 1.34832264 0.37939964 8.46667135
v 1.50003627 -0.00044866 8.99994422
v 1.49974278 -0.00015579 8.50007164
v 1.44193314 -0.00015579 8.46667135
v 1.37003795 0.33049089 8.46667135
v -1.04417343 0.37266370 8.46667135
v -1.42565820 0.42918700 8.72674089
v -1.10139621 0.47780290 9.04494973
v -1.04446692 0.62482205 9.04494973
v -0.99516737 0.72146811 9.04494973
v -1.06530187 0.30589007 8.46667135
v -1.09259263 0.19313632 8.46667135
v 1.40877333 0.37119938 9.04494973
v 1.41258820 0.34747716 9.04494973
v 1.42315237 0.03996697 9.04494973
v 1.42197854 -0.00044866 9.04494973
v 1.47245191 -0.28570096 8.98471583
v 1.47245191 -0.28570096 8.48478676
v 1.44310697 -0.01626347 8.46667135
v -1.47231670 0.28538939 8.73477965
v -1.11929664 0.39872885 9.04494973
v -1.11782932 0.04465284 8.46667135
v 1.37062491 -0.26373595 9.04494973
v 1.39087290 -0.56128867 8.96943095
v 1.39057942 -0.56128867 8.46950188
v 1.38617768 -0.55953147 8.46667135
v 1.44134628 -0.28130795 8.46667135
v 1.44163976 -0.27164336 8.46667135
v -1.49784688 -0.08069417 8.75436693
v -1.14893506 0.23208762 9.04494973
v -1.11929664 0.03498823 8.46667135
v -1.13250185 -0.11144520 8.46667135
v 1.27231920 -0.50740118 9.04494973
v 1.22595417 -0.57593199 9.04494973
v 1.21245548 -0.88285645 8.94984367
v 1.36475586 -0.60814734 8.46667135
v 1.38529733 -0.56187442 8.46667135
v -1.43299446 -0.44267760 8.77384100
v -1.14453333 -0.00191299 9.04494973
v -1.14541368 0.03352390 9.04494973
v -1.12633942 -0.24294242 8.46667135
v -1.12252454 -0.28657956 8.46667135
v -1.09846168 -0.41485525 8.46667135
v 1.09624934 -0.76658831 9.04494973
v 1.19250088 -0.86177007 8.46667135
v 1.02406066 -0.83687638 9.04494973
v 0.96096893 -1.15112244 8.93031290
v -1.28216129 -0.77801013 8.79342827
v -1.02656649 -0.42129831 9.04494973
v -1.09728785 -0.21482718 9.04494973
v -1.09904855 -0.20838412 9.04494973
v -1.03595682 -0.59848273 8.46667135
v -0.98489658 -0.70098615 8.46667135
v 1.18457775 -0.86997033 8.46667135
v 0.87674888 -0.96808069 9.04494973
v 0.77756286 -1.03075419 9.04494973
v 0.63083795 -1.10807102 9.04494973
v 0.65196633 -1.35056483 8.91072562
v 0.92604842 -1.09928501 8.46667135
v 0.94365547 -1.08522749 8.46667135
v -1.05415074 -1.06677680 8.81295905
v -0.95613850 -0.56333872 9.04494973
v -0.98225554 -0.51208704 9.04494973
v -0.93002147 -0.78503894 8.46667135
v -0.86722323 -0.87699914 8.46667135
v 0.50641525 -1.15463685 9.04494973
v 0.61176369 -1.26270478 8.46667135
v 0.64492355 -1.24894001 8.46667135
v 0.90433312 -1.11217123 8.46667135
v 0.30364143 -1.46859017 8.89119505
v -0.76275513 -1.29140573 8.83254633
v -0.66738394 -0.89544977 9.04494973
v -0.81616298 -0.75048063 9.04494973
v -0.84198654 -0.72265828 9.04494973
v -0.91417522 -0.62454792 9.04494973
v -0.80061011 -0.95080151 8.46667135
v -0.70201102 -1.04188311 8.46667135
v -0.62952891 -1.10250656 8.46667135
v 0.37436282 -1.18655935 9.04494973
v 0.57332179 -1.27324800 8.46667135
v 0.26930781 -1.34148596 8.46667135
v 0.31831393 -1.33504285 8.46667135
v 0.22881174 -1.20940299 9.04494973
v -0.06258391 -1.49875547 8.87166427
v -0.55763371 -1.14760804 8.46667135
v -0.41120228 -1.22756072 8.46667135
v -0.33930705 -1.25977607 8.46667135
v -0.42558131 -1.43813202 8.85207700
v -0.46637082 -1.04627617 9.04494973
v -0.49600925 -1.02987565 9.04494973
v -0.01621884 -1.33914295 8.46667135
v 0.12170256 -1.20823149 9.04494973
v -0.03852103 -1.20032413 9.04494973
v -0.28325816 -1.13706492 9.04494973
v -0.07960400 -1.32947839 8.46667135
f 1 2 3
f 1 3 4
f 1 4 5
f 1 5 6
f 1 6 7
f 1 7 8
f 1 8 9
f 1 9 2
f 2 9 10
f 2 10 20
f 2 20 19
f 2 19 29
f 2 29 28
f 2 28 35
f 2 35 45
f 2 45 50
f 2 50 62
f 2 62 61
f 2 61 60
f 2 60 73
f 2 73 82
f 2 82 92
f 2 92 91
f 2 91 103
f 2 103 102
f 2 102 101
f 2 101 115
f 2 115 114
f 2 114 127
f 2 127 126
f 2 126 125
f 2 125 124
f 2 124 142
f 2 142 141
f 2 141 146
f 2 146 145
f 2 145 144
f 2 144 135
f 2 135 131
f 2 131 118
f 2 118 109
f 2 109 108
f 2 108 107
f 2 107 98
f 2 98 96
f 2 96 86
f 2 86 85
f 2 85 75
f 2 75 68
f 2 68 67
f 2 67 66
f 2 66 65
f 2 65 51
f 2 51 41
f 2 41 33
f 2 33 31
f 2 31 23
f 2 23 21
f 2 21 14
f 2 14 11
f 2 11 4
f 2 4 3
f 4 11 5
f 5 12 13
f 5 13 6
f 5 11 14
f 5 14 15
f 5 15 16
f 5 16 12
f 6 13 12
f 6 12 16
f 6 16 22
f 6 22 25
f 6 25 32
f 6 32 40
f 6 40 43
f 6 43 53
f 6 53 57
f 6 57 56
f 6 56 71
f 6 71 80
f 6 80 79
f 6 79 78
f 6 78 89
f 6 89 88
f 6 88 97
f 6 97 106
f 6 106 112
f 6 112 111
f 6 111 121
f 6 121 120
f 6 120 119
f 6 119 132
f 6 132 134
f 6 134 133
f 6 133 143
f 6 143 147
f 6 147 139
f 6 139 138
f 6 138 137
f 6 137 130
f 6 130 129
f 6 129 128
f 6 128 117
f 6 117 116
f 6 116 105
f 6 105 104
f 6 104 95
f 6 95 94
f 6 94 93
f 6 93 84
f 6 84 83
f 6 83 74
f 6 74 64
f 6 64 63
f 6 63 58
f 6 58 48
f 6 48 47
f 6 47 46
f 6 46 38
f 6 38 37
f 6 37 36
f 6 36 30
f 6 30 26
f 6 26 17
f 6 17 8
f 6 8 7
f 8 17 9
f 9 17 18
f 9 18 19
f 9 19 20
f 9 20 10
f 14 21 15
f 15 22 16
f 15 21 23
f 15 23 24
f 15 24 25
f 15 25 22
f 17 26 18
f 18 27 28
f 18 28 29
f 18 29 19
f 18 26 30
f 18 30 27
f 23 31 24
f 24 32 25
f 24 31 33
f 24 33 34
f 24 34 32
f 27 35 28
f 27 30 36
f 27 36 37
f 27 37 38
f 27 38 39
f 27 39 35
f 32 34 40
f 33 41 42
f 33 42 34
f 34 43 40
f 34 42 44
f 34 44 43
f 35 39 45
f 38 46 39
f 39 46 47
f 39 47 48
f 39 48 49
f 39 49 50
f 39 50 45
f 41 51 42
f 42 51 52
f 42 52 44
f 43 44 53
f 44 52 54
f 44 54 55
f 44 55 56
f 44 56 57
f 44 57 53
f 48 58 49
f 49 59 60
f 49 60 61
f 49 61 62
f 49 62 50
f 49 58 63
f 49 63 64
f 49 64 59
f 51 65 52
f 52 65 66
f 52 66 67
f 52 67 54
f 54 67 68
f 54 68 69
f 54 69 70
f 54 70 55
f 55 70 71
f 55 71 56
f 59 72 60
f 59 64 72
f 60 72 73
f 64 74 72
f 68 75 69
f 69 75 76
f 69 76 70
f 70 76 77
f 70 77 78
f 70 78 79
f 70 79 80
f 70 80 71
f 72 81 82
f 72 82 73
f 72 74 83
f 72 83 84
f 72 84 81
f 75 85 76
f 76 85 86
f 76 86 87
f 76 87 88
f 76 88 77
f 77 88 89
f 77 89 78
f 81 90 91
f 81 91 92
f 81 92 82
f 81 84 93
f 81 93 94
f 81 94 95
f 81 95 90
f 86 96 87
f 87 97 88
f 87 96 98
f 87 98 99
f 87 99 97
f 90 100 101
f 90 101 102
f 90 102 103
f 90 103 91
f 90 95 104
f 90 104 105
f 90 105 100
f 97 99 106
f 98 107 99
f 99 107 108
f 99 108 109
f 99 109 110
f 99 110 111
f 99 111 112
f 99 112 106
f 100 113 114
f 100 114 115
f 100 115 101
f 100 105 116
f 100 116 117
f 100 117 113
f 109 118 110
f 110 119 120
f 110 120 121
f 110 121 111
f 110 118 122
f 110 122 119
f 113 123 124
f 113 124 125
f 113 125 126
f 113 126 127
f 113 127 114
f 113 117 128
f 113 128 129
f 113 129 130
f 113 130 123
f 118 131 122
f 119 122 132
f 122 133 134
f 122 134 132
f 122 131 135
f 122 135 136
f 122 136 133
f 123 130 137
f 123 137 138
f 123 138 139
f 123 139 140
f 123 140 141
f 123 141 142
f 123 142 124
f 133 136 143
f 135 144 136
f 136 144 145
f 136 145 146
f 136 146 140
f 136 140 143
f 139 147 140
f 140 147 143
f 140 146 141

