# https://github.com/mikedh/trimesh
v 0.14312364 1.49317578 9.61729411
v 0.05596886 1.25419606 9.76209445
v 0.07152173 1.25068166 9.76209445
v 0.19359711 1.22256641 9.76209445
v 0.30540170 1.18712939 9.76209445
v 0.50201351 1.41293014 9.59778153
v 0.50201351 1.41293014 9.09789435
v 0.14312364 1.49288293 9.11740693
v -0.22368938 1.48292552 9.63687694
v -0.09016944 1.26327493 9.76209445
v 0.44567103 1.12387008 9.76209445
v 0.48293920 1.31335527 9.65428392
v 0.83097140 1.24833876 9.57819869
v 0.48469989 1.32331279 9.04504178
v 0.43246574 1.33239165 9.04504178
v 0.16689312 1.36724286 9.04504178
v 0.83097140 1.24775295 9.07831152
v 0.79957223 1.19972277 9.04504178
v 0.09675847 1.36519281 9.04504178
v -0.13536081 1.33795611 9.04504178
v -0.22339593 1.48263256 9.13698955
v -0.57788402 1.38364339 9.15657238
v -0.53944202 1.39447956 9.65435396
v -0.50393454 1.21583045 9.76209445
v -0.21752691 1.26708218 9.76209445
v 0.52167468 1.07671845 9.76209445
v 0.54104238 1.06324653 9.76209445
v 0.65666187 0.98095084 9.76209445
v 1.11004278 1.00789458 9.55861607
v 1.10974930 1.00789458 9.05872869
v 0.82480892 1.18361499 9.04504178
v 1.08979469 0.99412981 9.04504178
v -0.21870072 1.31950553 9.04504178
v -0.40915003 1.24746010 9.04504178
v -0.59637142 1.14027061 9.04504178
v -0.89715810 1.20118712 9.17608496
v -0.89745148 1.20118712 9.67604239
v -0.57788402 1.38364339 9.65645977
v -0.50011967 1.20733728 9.04504178
v -0.59314346 1.18215074 9.76209445
v 0.67221474 0.96484316 9.76209445
v 0.97446868 0.91417702 9.65435396
v 1.02611589 0.83188132 9.65435396
v 1.12471531 0.66201828 9.65435396
v 1.32191392 0.70741271 9.53910349
v 1.25852861 0.79761586 9.04504178
v 1.09947851 0.98534379 9.04504178
v -0.73458656 1.04362445 9.04504178
v -0.82643652 0.94814968 9.04504178
v -1.16273073 0.94668532 9.19566780
v -1.16302411 0.94668532 9.69555518
v -0.85490122 1.05094611 9.76209445
v -0.78623382 1.09370478 9.76209445
v 0.82187445 0.80815908 9.76209445
v 0.93191832 0.63331728 9.76209445
v 0.93984155 0.61896675 9.76209445
v 1.02552903 0.42333136 9.76209445
v 1.45426012 0.36446503 9.51959091
v 1.31223010 0.70536265 9.04504178
v 1.08803400 0.21568841 9.76209445
v -0.91652584 0.84418174 9.04504178
v -1.35816865 0.63507448 9.21518038
v -0.99487706 0.72147033 9.04504178
v -1.35816865 0.63536733 9.71513780
v -1.28333882 0.60344477 9.76209445
v -1.09318299 0.85355351 9.76209445
v -1.04564403 0.89777649 9.76209445
v 1.50003838 -0.00015483 9.50000808
v 1.41229662 0.34718585 9.04504178
v 1.40818837 0.37061524 9.04504178
v 1.31399080 0.69979814 9.04504178
v 1.10974930 -0.00015483 9.76209445
v -1.47232083 0.28539084 9.23476321
v -1.04417671 0.62453126 9.04504178
v -1.10110611 0.47721895 9.04504178
v -1.11930002 0.39843764 9.04504178
v -1.29859821 0.57532952 9.76209445
v -1.47232083 0.28539084 9.73465039
v 1.47216055 -0.28570051 9.48470690
v 1.42168706 -0.00044770 9.04504178
v 1.42286089 0.03996799 9.04504178
v 1.10446722 -0.10236554 9.76209445
v 1.09214225 -0.22917711 9.76209445
v -1.49755763 -0.08069336 9.25427579
v -1.49785111 -0.08040049 9.75423322
v -1.14864507 0.23208897 9.04504178
v -1.14453682 -0.00191204 9.04504178
v -1.41979327 0.29154105 9.76209445
v -1.43065092 0.25551836 9.76209445
v -1.42683605 0.27309042 9.76209445
v 1.39087480 -0.56099582 9.46947576
v 1.37033323 -0.26373545 9.04504178
v 1.05193955 -0.44619182 9.76209445
v -1.09905193 -0.20662632 9.04504178
v -1.09699775 -0.21482661 9.04504178
v -1.40952248 -0.42686258 9.25799587
v -1.43270510 -0.44267741 9.27385841
v -1.47173397 -0.22507695 9.76209445
v -1.48405893 -0.08215769 9.76209445
v -1.48376545 -0.07688608 9.76209445
v 1.27672263 -0.76658873 9.45698205
v 1.27672263 -0.76658873 9.45691180
v 1.27202741 -0.50740113 9.04504178
v 0.98473936 -0.61634777 9.76209445
v 0.96243720 -0.66613520 9.76209445
v -1.03596010 -0.39464718 9.04504178
v -1.41098969 -0.44150593 9.76209445
v -1.41568491 -0.43096272 9.76209445
v -1.42067362 -0.41280493 9.76209445
v -1.02656966 -0.42129810 9.04504178
v -0.98196523 -0.51237983 9.04504178
v -0.95584819 -0.56333877 9.04504178
v -1.28187161 -0.77801055 9.29344124
v 1.21216348 -0.88256418 9.44982268
v 1.22566217 -0.57593204 9.04504178
v 0.86911998 -0.81139741 9.76209445
v -1.24841821 -0.73056602 9.76209445
v -0.91388480 -0.62484093 9.04504178
v -1.05386064 -1.06677776 9.31302407
v -1.23198499 -0.75428831 9.76209445
v -0.84169596 -0.72236575 9.04504178
v -0.81587230 -0.75077385 9.04504178
v 0.81952684 -0.87524252 9.76209445
v 0.70742879 -0.99121803 9.76209445
v 0.96067651 -1.15141646 9.43031010
v 1.09625061 -0.76658873 9.04504178
v -0.76246434 -1.29111415 9.33253666
v -0.99458357 -1.00176124 9.76209445
v -1.02715663 -0.97042444 9.76209445
v -1.05591471 -0.94055188 9.76209445
v -0.67178816 -0.89105735 9.04504178
v -0.66679951 -0.89545030 9.04504178
v -0.49601136 -1.02987649 9.04504178
v 0.62086091 -1.05828459 9.76209445
v 1.02376834 -0.83658400 9.04504178
v 0.49878555 -1.14292329 9.76209445
v 0.65167322 -1.35056620 9.41072748
v 0.87674967 -0.96837428 9.04504178
v -0.46607940 -1.04627702 9.04504178
v -0.28296637 -1.13677303 9.04504178
v -0.42528981 -1.43813361 9.35211949
v -0.71991404 -1.17718880 9.76209445
v -0.94997914 -1.03075504 9.76209445
v 0.37142806 -1.19944664 9.76209445
v 0.24788544 -1.25274853 9.76209445
v 0.30334755 -1.46888461 9.39121490
v 0.63054478 -1.10807208 9.04504178
v 0.77726996 -1.03104789 9.04504178
v -0.22192869 -1.15288081 9.04504178
v -0.03822872 -1.20032529 9.04504178
v -0.06258510 -1.49875706 9.37170232
v -0.42793086 -1.27793507 9.76209445
v -0.45434140 -1.26944201 9.76209445
v -0.65447460 -1.20296104 9.76209445
v 0.13608082 -1.27705652 9.76209445
v 0.22881116 -1.20911131 9.04504178
v 0.37406910 -1.18656052 9.04504178
v 0.50612181 -1.15463801 9.04504178
v 0.13197252 -1.27793507 9.76209445
v -0.03646802 -1.30692898 9.76209445
v 0.12140831 -1.20823265 9.04504178
v -0.13741496 -1.30868618 9.76209445
v -0.15414163 -1.30751468 9.76209445
v -0.34283024 -1.29345705 9.76209445
f 1 2 3
f 1 3 4
f 1 4 5
f 1 5 6
f 1 6 7
f 1 7 8
f 1 8 9
f 1 9 2
f 2 9 10
f 2 10 25
f 2 25 24
f 2 24 40
f 2 40 53
f 2 53 52
f 2 52 67
f 2 67 66
f 2 66 65
f 2 65 77
f 2 77 88
f 2 88 90
f 2 90 89
f 2 89 100
f 2 100 99
f 2 99 98
f 2 98 109
f 2 109 108
f 2 108 107
f 2 107 117
f 2 117 120
f 2 120 130
f 2 130 129
f 2 129 128
f 2 128 143
f 2 143 142
f 2 142 154
f 2 154 153
f 2 153 152
f 2 152 164
f 2 164 163
f 2 163 162
f 2 162 160
f 2 160 159
f 2 159 155
f 2 155 145
f 2 145 144
f 2 144 136
f 2 136 134
f 2 134 124
f 2 124 123
f 2 123 116
f 2 116 105
f 2 105 104
f 2 104 93
f 2 93 83
f 2 83 82
f 2 82 72
f 2 72 60
f 2 60 57
f 2 57 56
f 2 56 55
f 2 55 54
f 2 54 41
f 2 41 28
f 2 28 27
f 2 27 26
f 2 26 11
f 2 11 5
f 2 5 4
f 2 4 3
f 5 11 6
f 6 12 13
f 6 13 7
f 6 11 12
f 7 14 15
f 7 15 16
f 7 16 8
f 7 13 17
f 7 17 18
f 7 18 14
f 8 16 19
f 8 19 20
f 8 20 21
f 8 21 9
f 9 21 22
f 9 22 23
f 9 23 24
f 9 24 25
f 9 25 10
f 11 26 13
f 11 13 12
f 13 26 27
f 13 27 28
f 13 28 29
f 13 29 30
f 13 30 17
f 14 18 31
f 14 31 32
f 14 32 47
f 14 47 46
f 14 46 59
f 14 59 71
f 14 71 70
f 14 70 69
f 14 69 81
f 14 81 80
f 14 80 92
f 14 92 103
f 14 103 115
f 14 115 126
f 14 126 135
f 14 135 138
f 14 138 148
f 14 148 147
f 14 147 158
f 14 158 157
f 14 157 156
f 14 156 161
f 14 161 150
f 14 150 149
f 14 149 140
f 14 140 139
f 14 139 133
f 14 133 132
f 14 132 131
f 14 131 122
f 14 122 121
f 14 121 118
f 14 118 112
f 14 112 111
f 14 111 110
f 14 110 106
f 14 106 95
f 14 95 94
f 14 94 87
f 14 87 86
f 14 86 76
f 14 76 75
f 14 75 74
f 14 74 63
f 14 63 61
f 14 61 49
f 14 49 48
f 14 48 35
f 14 35 39
f 14 39 34
f 14 34 33
f 14 33 20
f 14 20 19
f 14 19 16
f 14 16 15
f 17 31 18
f 17 30 32
f 17 32 31
f 20 33 21
f 21 33 34
f 21 34 22
f 22 35 36
f 22 36 37
f 22 37 38
f 22 38 23
f 22 34 39
f 22 39 35
f 23 38 24
f 24 38 40
f 28 41 29
f 29 42 43
f 29 43 44
f 29 44 45
f 29 45 46
f 29 46 30
f 29 41 42
f 30 47 32
f 30 46 47
f 35 48 36
f 36 48 49
f 36 49 50
f 36 50 51
f 36 51 37
f 37 52 53
f 37 53 38
f 37 51 52
f 38 53 40
f 41 54 42
f 42 55 43
f 42 54 55
f 43 55 44
f 44 55 56
f 44 56 57
f 44 57 45
f 45 58 59
f 45 59 46
f 45 57 60
f 45 60 58
f 49 61 50
f 50 62 51
f 50 61 63
f 50 63 62
f 51 62 64
f 51 64 65
f 51 65 66
f 51 66 67
f 51 67 52
f 58 68 69
f 58 69 70
f 58 70 71
f 58 71 59
f 58 60 72
f 58 72 68
f 62 73 64
f 62 63 74
f 62 74 75
f 62 75 76
f 62 76 73
f 64 77 65
f 64 73 78
f 64 78 77
f 68 79 80
f 68 80 81
f 68 81 69
f 68 72 82
f 68 82 83
f 68 83 79
f 73 84 85
f 73 85 78
f 73 76 86
f 73 86 87
f 73 87 84
f 77 78 88
f 78 89 90
f 78 90 88
f 78 85 89
f 79 91 92
f 79 92 80
f 79 83 93
f 79 93 91
f 84 87 94
f 84 94 95
f 84 95 96
f 84 96 97
f 84 97 85
f 85 97 98
f 85 98 99
f 85 99 100
f 85 100 89
f 91 101 102
f 91 102 103
f 91 103 92
f 91 93 104
f 91 104 105
f 91 105 101
f 95 106 96
f 96 106 97
f 97 107 108
f 97 108 109
f 97 109 98
f 97 106 110
f 97 110 111
f 97 111 112
f 97 112 113
f 97 113 107
f 101 105 114
f 101 114 102
f 102 114 103
f 103 114 115
f 105 116 114
f 107 113 117
f 112 118 113
f 113 119 120
f 113 120 117
f 113 118 121
f 113 121 122
f 113 122 119
f 114 116 123
f 114 123 124
f 114 124 125
f 114 125 126
f 114 126 115
f 119 127 128
f 119 128 129
f 119 129 130
f 119 130 120
f 119 122 131
f 119 131 132
f 119 132 133
f 119 133 127
f 124 134 125
f 125 135 126
f 125 134 136
f 125 136 137
f 125 137 138
f 125 138 135
f 127 133 139
f 127 139 140
f 127 140 141
f 127 141 142
f 127 142 143
f 127 143 128
f 136 144 137
f 137 144 145
f 137 145 146
f 137 146 147
f 137 147 148
f 137 148 138
f 140 149 141
f 141 149 150
f 141 150 151
f 141 151 152
f 141 152 153
f 141 153 154
f 141 154 142
f 145 155 146
f 146 156 157
f 146 157 158
f 146 158 147
f 146 155 159
f 146 159 160
f 146 160 151
f 146 151 156
f 150 161 151
f 151 160 162
f 151 162 163
f 151 163 164
f 151 164 152
f 151 161 156

