# https://github.com/mikedh/trimesh
v 0.14312328 1.49317060 8.11744214
v 0.19242276 1.23134809 8.46659560
v 0.32887667 1.21348321 8.46659560
v 0.45916813 1.19063967 8.46659560
v 0.50201171 1.41292517 8.09786407
v 0.02427634 1.16721034 7.81516133
v -0.03353316 1.17072474 7.81516133
v -0.21488480 1.17599635 7.81516133
v -0.22368827 1.48321308 8.13695652
v 0.04599158 1.22754083 8.46659560
v 0.72591349 1.08637921 8.46659560
v 0.24230913 1.11420150 7.81516133
v 0.21237730 1.12386606 7.81516133
v 0.83096834 1.24804146 8.07828600
v 0.82950107 1.24745566 8.07739317
v -0.46666425 1.13177353 7.81516133
v -0.57788154 1.38393137 8.15653459
v -0.21517825 1.18068215 8.46659560
v -0.06053049 1.21524041 8.46659560
v 0.80984000 1.03278467 8.46659560
v 0.42806250 1.03044177 7.81516133
v 0.83038142 1.24686996 8.07739317
v 0.97505195 0.91475954 8.46659560
v 0.84388011 1.23691255 8.07745696
v 1.10974507 1.00818394 8.05870782
v 0.61821764 0.92149550 7.81516133
v -0.60077056 1.08110760 7.81516133
v -0.71785679 1.02751307 7.81516133
v -0.89715429 1.20147574 8.17604897
v -0.44553592 1.08345061 8.46659560
v -0.29030125 1.15198131 8.46659560
v 1.03726311 0.85560055 8.46659560
v 1.18897642 0.67695212 8.46659560
v 1.23005925 0.61925743 8.46659560
v 1.32190895 0.70770307 8.03912975
v 0.78577715 0.78326259 7.81516133
v -0.82878064 0.95810381 7.81516133
v -0.63774514 0.94931780 8.46659560
v -0.60928060 0.96923273 8.46659560
v -0.95232278 0.85940780 7.81516133
v -1.03771646 0.77945533 7.81516133
v -1.16243238 0.94668194 8.19562704
v 1.34831936 0.37910706 8.46659560
v 1.36974118 0.33019838 8.46659560
v 1.45454800 0.36475661 8.01961537
v 1.04401251 0.42127980 7.81516133
v 1.03696974 0.43475164 7.81516133
v 0.92311136 0.61545017 7.81516133
v 0.89728781 0.64737263 7.81516133
v -0.78329602 0.79702731 8.46659560
v -1.15216170 0.62862914 7.81516133
v -1.19793975 0.56800585 7.81516133
v -1.35816304 0.63536511 8.21514142
v -0.91945645 0.62072178 8.46659560
v -0.78857810 0.79116995 8.46659560
v 1.44192965 -0.00044771 8.46659560
v 1.50003256 -0.00015484 8.00003730
v 1.17958608 -0.00015484 7.81516133
v 1.12793898 0.23179528 7.81516133
v -1.23051270 0.50913971 7.81516133
v -1.31766707 0.30501186 7.81516133
v -1.33791506 0.25141733 7.81516133
v -1.47202142 0.28538983 8.23471949
v -1.01071918 0.45642378 8.46659560
v -0.94175862 0.58177052 8.46659560
v 1.44339686 -0.01626249 8.46659560
v 1.44163617 -0.27134906 8.46659560
v 1.44134279 -0.28101365 8.46659560
v 1.47215494 -0.28569951 7.98473195
v 1.18574851 -0.15303106 7.81516133
v 1.18604189 -0.09094340 7.81516133
v -1.34965306 0.20163005 7.81516133
v -1.38926868 -0.04759919 7.81516133
v -1.39337704 -0.08977194 7.81516133
v -1.49784487 -0.08069308 8.25429756
v -1.11782816 0.04406797 8.46659560
v -1.09259147 0.19313693 8.46659560
v -1.06530071 0.30559759 8.46659560
v -1.04387889 0.37237112 8.46659560
v 1.38588081 -0.55952951 8.46659560
v 1.39086951 -0.56128671 7.96949039
v 1.13879663 -0.47576978 7.81516133
v 1.18281399 -0.24294104 7.81516133
v -1.39132286 -0.12725883 7.81516133
v -1.36637965 -0.40958198 7.81516133
v -1.43680743 -0.42129662 8.27266403
v -1.12222989 -0.28628523 8.46659560
v -1.12604477 -0.24294104 8.46659560
v -1.13220720 -0.11144405 8.46659560
v -1.11929537 0.03469625 8.46659560
v 1.38500046 -0.56187246 8.46659560
v 1.36445910 -0.60814533 8.46659560
v 1.21215893 -0.88256106 8.44982351
v 1.21245231 -0.88256106 7.94991226
v 1.03315486 -0.72734192 7.81516133
v 1.08832336 -0.60258088 7.81516133
v -1.36109757 -0.43711139 7.81516133
v -1.43269918 -0.44267585 8.27381194
v -1.09816704 -0.41485356 8.46659560
v 1.19220432 -0.86147473 8.46659560
v 1.18457468 -0.86996784 8.46659560
v 0.96096639 -1.15141233 8.43030923
v 0.96096639 -1.15141233 7.93039794
v 0.96566151 -0.83189524 7.81516133
v -1.25105407 -0.75574996 7.81516133
v -1.28186622 -0.77800780 8.29339002
v -1.03566239 -0.59848077 8.46659560
v 0.94365283 -1.08522463 8.46659560
v 0.92604589 -1.09928215 8.46659560
v 0.90433069 -1.11216827 8.46659560
v 0.64492149 -1.24864398 8.46659560
v 0.65137741 -1.35056144 8.41073116
v 0.65196427 -1.35056144 7.91081987
v 0.63200972 -1.16283420 7.81516133
v 0.78695092 -1.04188036 7.81516133
v 0.86383467 -0.96222074 7.81516133
v -1.24489164 -0.76863609 7.81516133
v -1.05385619 -1.06677405 8.31296809
v -0.98489563 -0.70127683 8.46659560
v -1.05062829 -1.06530970 7.81516133
v 0.61176173 -1.26270161 8.46659560
v 0.57302645 -1.27324472 8.46659560
v 0.31801904 -1.33503957 8.46659560
v 0.30334657 -1.46858658 8.39115299
v 0.30364003 -1.46858658 7.89130549
v 0.34384257 -1.31014588 7.81516133
v 0.55336533 -1.21701443 7.81516133
v -1.02275056 -1.09078909 7.81516133
v -0.76246112 -1.29110960 8.33254626
v -0.70171711 -1.04188036 8.46659560
v -0.80060948 -0.95050612 8.46659560
v -0.86722249 -0.87699660 8.46659560
v -0.93002062 -0.78503661 8.46659560
v 0.26901301 -1.34118973 8.46659560
v 0.21325765 -1.34089688 8.46659560
v -0.01651311 -1.33913967 8.46659560
v -0.06258464 -1.49845892 8.37163871
v -0.06258464 -1.49875188 7.87172741
v 0.20504108 -1.35583305 7.81516133
v 0.27077370 -1.34148258 7.81516133
v -0.75189695 -1.26299446 7.81516133
v -0.76246112 -1.29110960 7.83257117
v -0.42558137 -1.43812853 7.85214929
v -0.42528791 -1.43812853 8.35206054
v -0.55763350 -1.14760507 8.46659560
v -0.62894167 -1.10250371 8.46659560
v -0.07960469 -1.32976796 8.46659560
v -0.39154126 -1.37838373 7.81516133
v -0.10102649 -1.40034872 7.81516133
v -0.04908597 -1.39976302 7.81516133
v -0.73575722 -1.26943746 7.81516133
v -0.42646171 -1.37223358 7.81516133
v -0.33930729 -1.26006575 8.46659560
v -0.41090890 -1.22726470 8.46659560
f 1 2 3
f 1 3 4
f 1 4 5
f 1 5 6
f 1 6 7
f 1 7 8
f 1 8 9
f 1 9 2
f 2 9 10
f 2 10 19
f 2 19 18
f 2 18 31
f 2 31 30
f 2 30 39
f 2 39 38
f 2 38 50
f 2 50 55
f 2 55 54
f 2 54 65
f 2 65 64
f 2 64 79
f 2 79 78
f 2 78 77
f 2 77 76
f 2 76 90
f 2 90 89
f 2 89 88
f 2 88 87
f 2 87 99
f 2 99 107
f 2 107 119
f 2 119 133
f 2 133 132
f 2 132 131
f 2 131 130
f 2 130 146
f 2 146 145
f 2 145 154
f 2 154 153
f 2 153 147
f 2 147 136
f 2 136 135
f 2 135 134
f 2 134 123
f 2 123 122
f 2 122 121
f 2 121 111
f 2 111 110
f 2 110 109
f 2 109 108
f 2 108 101
f 2 101 100
f 2 100 92
f 2 92 91
f 2 91 80
f 2 80 68
f 2 68 67
f 2 67 66
f 2 66 56
f 2 56 44
f 2 44 43
f 2 43 34
f 2 34 33
f 2 33 32
f 2 32 23
f 2 23 20
f 2 20 11
f 2 11 4
f 2 4 3
f 4 11 5
f 5 12 13
f 5 13 6
f 5 11 14
f 5 14 15
f 5 15 12
f 6 13 12
f 6 12 21
f 6 21 26
f 6 26 36
f 6 36 49
f 6 49 48
f 6 48 47
f 6 47 46
f 6 46 59
f 6 59 58
f 6 58 71
f 6 71 70
f 6 70 83
f 6 83 82
f 6 82 96
f 6 96 95
f 6 95 104
f 6 104 116
f 6 116 115
f 6 115 114
f 6 114 127
f 6 127 126
f 6 126 140
f 6 140 139
f 6 139 150
f 6 150 149
f 6 149 148
f 6 148 152
f 6 152 151
f 6 151 141
f 6 141 128
f 6 128 120
f 6 120 117
f 6 117 105
f 6 105 97
f 6 97 85
f 6 85 84
f 6 84 74
f 6 74 73
f 6 73 72
f 6 72 62
f 6 62 61
f 6 61 60
f 6 60 52
f 6 52 51
f 6 51 41
f 6 41 40
f 6 40 37
f 6 37 28
f 6 28 27
f 6 27 16
f 6 16 8
f 6 8 7
f 8 16 9
f 9 16 17
f 9 17 18
f 9 18 19
f 9 19 10
f 11 20 14
f 12 15 21
f 14 22 15
f 14 20 23
f 14 23 24
f 14 24 25
f 14 25 22
f 15 22 26
f 15 26 21
f 16 27 17
f 17 27 28
f 17 28 29
f 17 29 30
f 17 30 31
f 17 31 18
f 22 25 26
f 23 32 25
f 23 25 24
f 25 32 33
f 25 33 34
f 25 34 35
f 25 35 36
f 25 36 26
f 28 37 29
f 29 38 39
f 29 39 30
f 29 37 40
f 29 40 41
f 29 41 42
f 29 42 38
f 34 43 35
f 35 43 44
f 35 44 45
f 35 45 46
f 35 46 47
f 35 47 48
f 35 48 49
f 35 49 36
f 38 42 50
f 41 51 42
f 42 51 52
f 42 52 53
f 42 53 54
f 42 54 55
f 42 55 50
f 44 56 45
f 45 56 57
f 45 57 58
f 45 58 59
f 45 59 46
f 52 60 53
f 53 60 61
f 53 61 62
f 53 62 63
f 53 63 64
f 53 64 65
f 53 65 54
f 56 66 57
f 57 66 67
f 57 67 68
f 57 68 69
f 57 69 70
f 57 70 71
f 57 71 58
f 62 72 63
f 63 72 73
f 63 73 74
f 63 74 75
f 63 75 76
f 63 76 77
f 63 77 78
f 63 78 79
f 63 79 64
f 68 80 69
f 69 80 81
f 69 81 82
f 69 82 83
f 69 83 70
f 74 84 75
f 75 84 85
f 75 85 86
f 75 86 87
f 75 87 88
f 75 88 89
f 75 89 90
f 75 90 76
f 80 91 81
f 81 91 92
f 81 92 93
f 81 93 94
f 81 94 95
f 81 95 96
f 81 96 82
f 85 97 86
f 86 97 98
f 86 98 87
f 87 98 99
f 92 100 93
f 93 100 101
f 93 101 102
f 93 102 94
f 94 102 103
f 94 103 104
f 94 104 95
f 97 105 98
f 98 105 106
f 98 106 107
f 98 107 99
f 101 108 102
f 102 108 109
f 102 109 110
f 102 110 111
f 102 111 112
f 102 112 113
f 102 113 103
f 103 113 114
f 103 114 115
f 103 115 116
f 103 116 104
f 105 117 106
f 106 118 119
f 106 119 107
f 106 117 120
f 106 120 118
f 111 121 112
f 112 121 122
f 112 122 123
f 112 123 124
f 112 124 113
f 113 124 125
f 113 125 126
f 113 126 127
f 113 127 114
f 118 120 128
f 118 128 129
f 118 129 130
f 118 130 131
f 118 131 132
f 118 132 133
f 118 133 119
f 123 134 124
f 124 134 135
f 124 135 136
f 124 136 137
f 124 137 138
f 124 138 125
f 125 138 139
f 125 139 140
f 125 140 126
f 128 141 142
f 128 142 129
f 129 142 143
f 129 143 144
f 129 144 145
f 129 145 146
f 129 146 130
f 136 147 137
f 137 147 144
f 137 144 138
f 138 144 143
f 138 143 148
f 138 148 149
f 138 149 150
f 138 150 139
f 141 151 142
f 142 151 143
f 143 152 148
f 143 151 152
f 144 147 153
f 144 153 154
f 144 154 145

