# https://github.com/mikedh/trimesh
v -0.49831158 -2.65312032 12.99416010
v -0.49831158 -2.65312032 12.99991807
v -0.49831158 -2.63729332 12.40004584
v -0.32536557 -2.68002608 12.40004584
v -0.16752188 -2.69479784 12.99991807
v -0.49831158 2.65312032 12.99991807
v -0.49831158 -2.43312599 12.20000633
v 0.32539860 -2.68002608 12.40004584
v -0.30129927 -2.48166199 12.20000633
v 0.16745749 -2.69479784 12.99991807
v -0.16752188 2.69479784 12.99991807
v -0.32536557 2.68002608 12.40004584
v -0.49831158 2.65312032 12.99416010
v -0.49831158 -1.07359307 12.15978437
v -0.39045172 -1.10577457 12.15978437
v 0.49707797 -2.63782083 12.40004584
v 0.49707797 -2.65364783 12.98988289
v 0.49707797 -2.65364783 12.99991807
v 0.30133231 -2.48166199 12.20000633
v -0.27275099 -1.12582196 12.15978437
v -0.16937313 -1.13320784 12.15978437
v 0.16745749 2.69479784 12.99991807
v 0.32539860 2.68002608 12.40004584
v -0.30129927 2.48166199 12.20000633
v -0.49831158 2.57451328 12.33843825
v -0.49831158 2.63729332 12.40004584
v -0.49831158 1.39382456 12.15978437
v 0.49707797 -2.43312599 12.20000633
v 0.49707797 2.65364783 12.99991807
v -0.02224723 -1.12898733 12.15978437
v 0.03056220 -1.12107384 12.15978437
v 0.21403112 -1.08889245 12.15978437
v 0.49707797 2.65364783 12.98988289
v 0.49707797 2.63782083 12.40004584
v 0.30133231 2.48166199 12.20000633
v -0.16859365 1.44394320 12.15978437
v -0.25414103 1.44077782 12.15978437
v -0.49831158 2.43312599 12.20000633
v 0.40714602 -1.03244305 12.15978437
v 0.47622699 -1.00026166 12.15978437
v 0.49707797 -0.99023791 12.15978437
v 0.49707797 2.49432350 12.25972224
v 0.49707797 2.43312599 12.20000633
v 0.15352437 1.41650982 12.15978437
v 0.03387496 1.43233671 12.15978437
v 0.49707797 1.29305978 12.15978437
v 0.43199179 1.32735142 12.15978437
f 1 2 6
f 1 6 13
f 1 13 26
f 1 26 25
f 1 25 38
f 1 38 27
f 1 27 14
f 1 14 7
f 1 7 3
f 1 3 4
f 1 4 2
f 2 4 5
f 2 5 10
f 2 10 18
f 2 18 29
f 2 29 22
f 2 22 11
f 2 11 6
f 3 7 4
f 4 8 10
f 4 10 5
f 4 7 9
f 4 9 19
f 4 19 8
f 6 11 12
f 6 12 13
f 7 14 15
f 7 15 9
f 8 16 17
f 8 17 18
f 8 18 10
f 8 19 16
f 9 15 20
f 9 20 21
f 9 21 19
f 11 22 23
f 11 23 12
f 12 23 35
f 12 35 24
f 12 24 25
f 12 25 26
f 12 26 13
f 14 27 37
f 14 37 36
f 14 36 45
f 14 45 44
f 14 44 47
f 14 47 46
f 14 46 41
f 14 41 40
f 14 40 39
f 14 39 32
f 14 32 31
f 14 31 30
f 14 30 21
f 14 21 20
f 14 20 15
f 16 19 28
f 16 28 41
f 16 41 46
f 16 46 43
f 16 43 42
f 16 42 34
f 16 34 33
f 16 33 29
f 16 29 18
f 16 18 17
f 19 21 30
f 19 30 31
f 19 31 32
f 19 32 28
f 22 29 23
f 23 29 33
f 23 33 34
f 23 34 35
f 24 35 36
f 24 36 37
f 24 37 27
f 24 27 38
f 24 38 25
f 28 32 39
f 28 39 40
f 28 40 41
f 34 42 35
f 35 42 43
f 35 43 44
f 35 44 45
f 35 45 36
f 43 46 47
f 43 47 44

