# https://github.com/mikedh/trimesh
v 0.14325028 1.49316689 7.11728967
v 0.20574894 1.16047130 7.42580321
v 0.27440943 1.15139244 7.42580321
v 0.44576725 1.12152009 7.42580321
v 0.50210407 1.41292168 7.09781666
v 0.04759507 1.23193051 6.77568470
v -0.07534830 1.23983797 6.77568470
v -0.21677717 1.24393808 6.77568470
v -0.22381928 1.48291652 7.13688995
v 0.02001350 1.15607835 7.42580321
v 0.68725264 1.02721736 7.42580321
v 0.83102891 1.24803818 7.07828001
v 0.28937391 1.16837867 6.77568470
v 0.19841342 1.19737236 6.77568470
v -0.49435335 1.19444376 6.77568470
v -0.57797834 1.38363503 7.15642660
v -0.02165227 1.15109959 7.42580321
v 0.80256706 0.95429380 7.42580321
v 0.64382637 0.96132251 6.77568470
v 0.49916986 1.06441126 6.77568470
v 0.44136594 1.09984806 6.77568470
v 0.91553409 0.87346278 7.42580321
v 1.10977882 1.00818108 7.05874336
v -0.59499673 1.15637120 6.77568470
v -0.76870194 1.07671168 6.77568470
v -0.71617957 1.30514702 7.16489036
v -0.42070470 1.02663166 7.42580321
v -0.22880743 1.10219097 7.42580321
v -0.21296271 1.10804828 7.42580321
v 0.80256706 0.79526762 6.77568470
v 1.00532093 0.78823886 7.42580321
v 1.11418013 0.65967077 7.42580321
v 1.17814585 0.56946809 7.42580321
v 1.32221555 0.70799364 7.03914308
v -0.84821900 1.02721736 6.77568470
v -0.89751369 1.20147246 7.17602688
v -0.44857968 1.01198834 7.42580321
v 0.92345647 0.61515516 6.77568470
v 1.26646559 0.39052708 7.42580321
v 1.30490368 0.30383880 7.42580321
v 1.45425493 0.36475489 7.01960643
v 1.02527353 0.42391378 6.77568470
v -1.02163079 0.88839896 6.77568470
v -0.61260198 0.92500716 7.42580321
v -1.07884785 0.83451163 6.77568470
v -1.16276617 0.94697214 7.19556353
v 1.37121686 -0.00015591 7.42580321
v 1.50002854 0.00013696 7.00000614
v 1.08835901 0.21597906 6.77568470
v 1.06136427 0.30559600 6.77568470
v -0.71412560 0.84271189 7.42580321
v -1.23348066 0.63126278 6.77568470
v -1.26106226 0.59465458 6.77568470
v -1.35818452 0.63536288 7.21516382
v -0.92392156 0.62130537 7.42580321
v -0.78102559 0.78823886 7.42580321
v 1.37385758 -0.03559267 7.42580321
v 1.37268396 -0.23884154 7.42580321
v 1.37180361 -0.26929959 7.42580321
v 1.47215356 -0.28540721 6.98473319
v 1.11887482 -0.12169522 6.77568470
v 1.11887482 -0.10998059 6.77568470
v 1.11124592 -0.00015591 6.77568470
v -1.28101486 0.55892492 6.77568470
v -1.39310165 0.29534569 6.77568470
v -1.40395824 0.26810917 6.77568470
v -1.47203190 0.28568112 7.23470046
v -1.10466887 0.33166107 7.42580321
v -1.08853072 0.36885502 7.42580321
v -1.01987020 0.49332298 7.42580321
v 1.36652206 -0.30649354 7.42580321
v 1.32280231 -0.52350711 7.42580321
v 1.31458655 -0.55162220 7.42580321
v 1.39909184 -0.53229307 6.97105118
v 1.07427483 -0.45321931 6.77568470
v 1.11564723 -0.23239848 6.77568470
v -1.40923979 0.24262986 6.77568470
v -1.45941471 -0.06897937 6.77568470
v -1.46088182 -0.08391553 6.77568470
v -1.49755942 -0.08069401 7.25430074
v -1.18037143 0.08594664 7.42580321
v -1.15308331 0.20426443 7.42580321
v 1.39058259 -0.56070106 6.96952388
v 1.17961296 -0.85649555 7.42580321
v 1.01118935 -0.61253829 6.77568470
v -1.46000158 -0.09738736 6.77568470
v -1.42948577 -0.44238327 6.77568470
v -1.43271346 -0.44267614 7.27383739
v -1.18800043 -0.32084396 7.42580321
v -1.19738992 -0.21306934 7.42580321
v -1.20267147 -0.10646619 7.42580321
v -1.19210826 0.01185159 7.42580321
v 1.21218263 -0.88226774 6.94998724
v 1.17110371 -0.86996737 7.42580321
v 0.98038016 -0.68165464 6.77568470
v -1.41862928 -0.47371994 6.77568470
v -1.28218848 -0.77800748 7.29343768
v -1.09322541 -0.64211779 7.42580321
v -1.16863459 -0.42188266 7.42580321
v 0.95573277 -1.14526122 7.42580321
v 0.96101432 -1.15082568 6.93038695
v 0.89382101 -0.81637294 6.77568470
v -1.26282275 -0.75106384 6.77568470
v -1.28189510 -0.77800748 6.79350314
v -1.05420046 -1.06677321 7.31291068
v -0.96206627 -0.86147426 7.42580321
v -1.05420046 -0.72060580 7.42580321
v 0.95338542 -1.14731127 7.42580321
v 0.88912621 -1.19768425 7.42580321
v 0.65174871 -1.35026732 6.91085030
v 0.72774475 -1.00409991 6.77568470
v 0.83073547 -0.89720391 6.77568470
v -1.25372674 -0.76453566 6.77568470
v -1.05361360 -1.06648036 6.81303979
v -0.76254010 -1.29140129 7.33251096
v -0.86670450 -0.98242778 7.42580321
v -0.91570580 -0.92854050 7.42580321
v -0.76254010 -1.29110844 6.83257644
v 0.65028160 -1.32273788 7.42580321
v 0.65174871 -1.35056017 7.41072120
v 0.30345811 -1.46858509 6.89125001
v 0.51296061 -1.16195460 6.77568470
v 0.62387372 -1.08493083 6.77568470
v -1.03395438 -0.99589970 6.77568470
v -1.01048071 -1.01903609 6.77568470
v -0.97761766 -1.04012242 6.77568470
v -0.42539945 -1.43812705 7.35204761
v -0.41512972 -1.30340875 7.42580321
v -0.61876383 -1.19182684 7.42580321
v -0.66864537 -1.16078309 7.42580321
v -0.71911378 -1.11861043 7.42580321
v -0.72791640 -1.19885565 6.77568470
v -0.67480722 -1.21964913 6.77568470
v -0.42774682 -1.30194440 6.77568470
v -0.42539945 -1.43783420 6.85217672
v 0.64147898 -1.32683798 7.42580321
v 0.63091587 -1.32976669 7.42580321
v 0.30345811 -1.46887794 7.39118455
v -0.06243778 -1.49875029 7.37158426
v -0.06243778 -1.49845744 6.87171338
v -0.03925753 -1.33064524 6.77568470
v 0.15410686 -1.29696574 6.77568470
v 0.25416338 -1.27558646 6.77568470
v 0.36448965 -1.22726364 6.77568470
v -0.07094699 -1.40239740 7.42580321
v -0.36876922 -1.32390938 7.42580321
v -0.35527185 -1.31483052 6.77568470
v 0.31108704 -1.40737616 7.42580321
v 0.28849364 -1.41001191 7.42580321
v 0.26325943 -1.41001191 7.42580321
v -0.03514963 -1.40766901 7.42580321
v -0.12787064 -1.33210959 6.77568470
f 1 2 3
f 1 3 4
f 1 4 5
f 1 5 6
f 1 6 7
f 1 7 8
f 1 8 9
f 1 9 2
f 2 9 10
f 2 10 17
f 2 17 29
f 2 29 28
f 2 28 27
f 2 27 37
f 2 37 44
f 2 44 51
f 2 51 56
f 2 56 55
f 2 55 70
f 2 70 69
f 2 69 68
f 2 68 82
f 2 82 81
f 2 81 92
f 2 92 91
f 2 91 90
f 2 90 89
f 2 89 99
f 2 99 98
f 2 98 107
f 2 107 106
f 2 106 117
f 2 117 116
f 2 116 131
f 2 131 130
f 2 130 129
f 2 129 128
f 2 128 146
f 2 146 145
f 2 145 151
f 2 151 150
f 2 150 149
f 2 149 148
f 2 148 137
f 2 137 136
f 2 136 119
f 2 119 109
f 2 109 108
f 2 108 100
f 2 100 94
f 2 94 84
f 2 84 73
f 2 73 72
f 2 72 71
f 2 71 59
f 2 59 58
f 2 58 57
f 2 57 47
f 2 47 40
f 2 40 39
f 2 39 33
f 2 33 32
f 2 32 31
f 2 31 22
f 2 22 18
f 2 18 11
f 2 11 4
f 2 4 3
f 4 11 5
f 5 11 12
f 5 12 13
f 5 13 14
f 5 14 6
f 6 14 13
f 6 13 21
f 6 21 20
f 6 20 19
f 6 19 30
f 6 30 38
f 6 38 42
f 6 42 50
f 6 50 49
f 6 49 63
f 6 63 62
f 6 62 61
f 6 61 76
f 6 76 75
f 6 75 85
f 6 85 95
f 6 95 102
f 6 102 112
f 6 112 111
f 6 111 123
f 6 123 122
f 6 122 144
f 6 144 143
f 6 143 142
f 6 142 141
f 6 141 152
f 6 152 147
f 6 147 134
f 6 134 133
f 6 133 132
f 6 132 126
f 6 126 125
f 6 125 124
f 6 124 113
f 6 113 103
f 6 103 96
f 6 96 87
f 6 87 86
f 6 86 79
f 6 79 78
f 6 78 77
f 6 77 66
f 6 66 65
f 6 65 64
f 6 64 53
f 6 53 52
f 6 52 45
f 6 45 43
f 6 43 35
f 6 35 25
f 6 25 24
f 6 24 15
f 6 15 8
f 6 8 7
f 8 15 9
f 9 15 16
f 9 16 17
f 9 17 10
f 11 18 12
f 12 19 20
f 12 20 21
f 12 21 13
f 12 18 22
f 12 22 23
f 12 23 19
f 15 24 16
f 16 24 25
f 16 25 26
f 16 26 27
f 16 27 28
f 16 28 29
f 16 29 17
f 19 23 30
f 22 31 23
f 23 31 32
f 23 32 33
f 23 33 34
f 23 34 30
f 25 35 36
f 25 36 26
f 26 36 27
f 27 36 37
f 30 34 38
f 33 39 34
f 34 39 40
f 34 40 41
f 34 41 42
f 34 42 38
f 35 43 36
f 36 44 37
f 36 43 45
f 36 45 46
f 36 46 44
f 40 47 41
f 41 47 48
f 41 48 49
f 41 49 50
f 41 50 42
f 44 46 51
f 45 52 46
f 46 52 53
f 46 53 54
f 46 54 55
f 46 55 56
f 46 56 51
f 47 57 48
f 48 57 58
f 48 58 59
f 48 59 60
f 48 60 61
f 48 61 62
f 48 62 63
f 48 63 49
f 53 64 54
f 54 64 65
f 54 65 66
f 54 66 67
f 54 67 68
f 54 68 69
f 54 69 70
f 54 70 55
f 59 71 60
f 60 71 72
f 60 72 73
f 60 73 74
f 60 74 75
f 60 75 76
f 60 76 61
f 66 77 67
f 67 77 78
f 67 78 79
f 67 79 80
f 67 80 81
f 67 81 82
f 67 82 68
f 73 83 74
f 73 84 83
f 74 83 75
f 75 83 85
f 79 86 80
f 80 86 87
f 80 87 88
f 80 88 89
f 80 89 90
f 80 90 91
f 80 91 92
f 80 92 81
f 83 84 93
f 83 93 85
f 84 94 93
f 85 93 95
f 87 96 88
f 88 97 98
f 88 98 99
f 88 99 89
f 88 96 97
f 93 94 100
f 93 100 101
f 93 101 102
f 93 102 95
f 96 103 104
f 96 104 97
f 97 105 106
f 97 106 107
f 97 107 98
f 97 104 105
f 100 108 101
f 101 108 109
f 101 109 110
f 101 110 111
f 101 111 112
f 101 112 102
f 103 113 104
f 104 113 114
f 104 114 105
f 105 115 116
f 105 116 117
f 105 117 106
f 105 114 118
f 105 118 115
f 109 119 120
f 109 120 110
f 110 120 121
f 110 121 122
f 110 122 123
f 110 123 111
f 113 124 114
f 114 124 125
f 114 125 126
f 114 126 118
f 115 118 127
f 115 127 128
f 115 128 129
f 115 129 130
f 115 130 131
f 115 131 116
f 118 132 133
f 118 133 134
f 118 134 135
f 118 135 127
f 118 126 132
f 119 136 120
f 120 136 137
f 120 137 138
f 120 138 121
f 121 138 139
f 121 139 140
f 121 140 141
f 121 141 142
f 121 142 143
f 121 143 144
f 121 144 122
f 127 135 140
f 127 140 139
f 127 139 145
f 127 145 146
f 127 146 128
f 134 147 135
f 135 147 140
f 137 148 138
f 138 148 149
f 138 149 150
f 138 150 151
f 138 151 139
f 139 151 145
f 140 147 152
f 140 152 141

