# https://github.com/mikedh/trimesh
v 0.14312302 1.49316509 6.61719169
v 0.14312302 1.49287224 5.61734671
v 0.02545035 1.48994354 6.12353851
v -0.22398049 1.48291483 6.63677436
v 0.04775240 1.23222209 6.77554388
v 0.19858469 1.19707824 6.77554388
v 0.28896669 1.16867035 6.77554388
v 0.50200997 1.41321283 6.59760896
v 0.50230340 1.41291998 5.59790491
v 0.01165829 1.13176930 5.33642656
v -0.01035031 1.13323365 5.33642656
v -0.21341635 1.13909096 5.33642656
v -0.22339357 1.48291483 5.63692944
v -0.57817227 1.38363344 6.65635708
v -0.49453955 1.19414964 6.77554388
v -0.21693772 1.24364385 6.77554388
v -0.07549577 1.23983660 6.77554388
v 0.44126622 1.09984701 6.77554388
v 0.83096522 1.24832966 6.57816716
v 0.42659380 1.02399485 5.33642656
v 0.23145088 1.08373944 5.33642656
v 0.21883261 1.08754659 5.33642656
v 0.83125865 1.24803681 6.07817424
v 0.83067178 1.24803681 5.57832218
v -0.45169613 1.09779695 5.33642656
v -0.57758535 1.38363344 5.65651216
v -0.59489881 1.15578423 6.77554388
v -0.89715027 1.20147119 5.67609478
v -0.89744375 1.20117834 6.67593976
v -0.76862006 1.07671062 6.77554388
v 0.49848858 1.06411746 6.77554388
v 1.11003432 1.00788728 6.55858443
v 1.10974084 1.00818013 5.55873956
v 0.64374539 0.96073597 6.77554388
v 0.61792194 0.92119916 5.33642656
v -0.58169366 1.04859559 5.33642656
v -0.60340880 1.04010242 5.33642656
v -0.69026942 1.00056562 5.33642656
v -0.81821277 0.92090631 5.33642656
v -0.91446373 0.84358986 5.33642656
v -1.01511637 0.74928723 5.33642656
v -1.16272079 0.94667845 5.69567751
v -1.16272079 0.94697130 6.69552248
v -0.84843790 1.02721641 6.77554388
v 1.32190377 0.70770037 6.53886084
v 1.32219725 0.70770037 6.03914971
v 1.11003432 1.00788728 6.05859151
v 0.80220730 0.79468134 6.77554388
v 0.92310787 0.61544779 6.77554388
v 0.93455238 0.63975557 5.33642656
v 0.78548075 0.78325957 5.33642656
v 1.32190377 0.70770037 5.53915673
v -1.10784599 0.62716241 5.33642656
v -1.16330765 0.55336036 5.33642656
v -1.35815712 0.63506977 5.71526024
v -1.35845060 0.63536262 6.71496429
v -1.07879464 0.83480389 6.77554388
v -1.02186566 0.88810537 6.77554388
v 1.45424880 0.36475510 6.51941903
v 1.02522782 0.42332816 6.77554388
v 1.06102847 0.30530344 6.77554388
v 1.08773226 0.21597952 6.77554388
v 1.45454228 0.36446223 6.01970790
v 1.45424880 0.36446223 5.51957411
v 0.95010515 0.62130510 5.33642656
v 1.06396299 0.46052203 5.33642656
v -1.20086899 0.48570847 5.33642656
v -1.47201497 0.28509574 5.73470204
v -1.47230845 0.28568147 6.73454701
v -1.20292317 0.48160836 5.33642656
v -1.27657863 0.30969643 5.33642656
v -1.30240198 0.24175166 5.33642656
v -1.28098026 0.55833907 6.77554388
v -1.26102587 0.59465437 6.77554388
v -1.23344173 0.63126252 6.77554388
v 1.50002675 -0.00074079 6.49983631
v 1.11091467 -0.00044793 6.77554388
v 1.11913117 -0.10968669 6.77554388
v 1.49973326 -0.00044793 5.50013220
v 1.21596904 -0.00044793 5.33642656
v 1.16168111 0.24555891 5.33642656
v 1.08626505 0.41512792 5.33642656
v -1.49754493 -0.08040015 5.75428476
v -1.31678101 0.17849276 5.33642656
v -1.35140783 -0.03676323 5.33642656
v -1.35610305 -0.09387196 5.33642656
v -1.49783841 -0.08069302 6.75412968
v -1.40980401 0.24233741 6.77554388
v -1.40393507 0.26752382 6.77554388
v -1.39337090 0.29505316 6.77554388
v 1.47214912 -0.28540586 6.48448012
v 1.47214912 -0.28540586 5.48477601
v 1.11913117 -0.12198703 6.77554388
v 1.11531640 -0.23181152 6.77554388
v 1.22183799 -0.08010729 5.33642656
v -1.35346201 -0.14483052 5.33642656
v -1.33174681 -0.39347316 5.33642656
v -1.43239945 -0.44238165 5.77386749
v -1.43269293 -0.44267453 6.77371241
v -1.42975841 -0.44121020 6.77554388
v -1.45998359 -0.09738634 6.77554388
v -1.46057045 -0.08391454 6.77554388
v -1.45939673 -0.06927127 6.77554388
v 1.39057063 -0.56099212 6.46926474
v 1.39086401 -0.56099212 5.96955361
v 1.07423368 -0.45292482 6.77554388
v 1.39027715 -0.56099212 5.46956074
v 1.17312562 -0.48719006 5.33642656
v 1.21890346 -0.24791911 5.33642656
v 1.22125113 -0.16913834 5.33642656
v -1.32353031 -0.43506002 5.33642656
v -1.33409437 -0.66173775 5.78668780
v -1.21994314 -0.73466120 5.33642656
v -1.28186061 -0.77771241 5.79359103
v -1.28156723 -0.77771241 6.29344308
v -1.41860738 -0.47371825 6.77554388
v -1.42946503 -0.44208880 6.77554388
v 1.21215417 -0.88255821 6.44968207
v 1.01084889 -0.61253638 6.77554388
v 0.98062371 -0.68135973 6.77554388
v 1.21215417 -0.88255821 5.44997802
v 1.12998871 -0.59642881 5.33642656
v -1.20732480 -0.76014049 5.33642656
v -1.03419052 -1.02459790 5.33642656
v -1.02480019 -1.03836257 5.33642656
v -1.05385154 -1.06647761 5.81317376
v -1.05355805 -1.06647761 6.31288489
v -1.25368961 -0.76482634 6.77554388
v -1.26278656 -0.75106167 6.77554388
v 0.89405652 -0.81666352 6.77554388
v 0.83067178 -0.89749432 6.77554388
v 0.72737805 -1.00380442 6.77554388
v 0.96096269 -1.15111567 6.43024021
v 0.96096269 -1.15111567 5.93052908
v 0.96066921 -1.15111567 5.43039529
v 1.00468646 -0.83950700 5.33642656
v 1.06132195 -0.75164743 5.33642656
v -1.01423602 -1.04949138 5.33642656
v -0.76275106 -1.29110526 5.83275648
v -0.76040350 -1.28407656 5.33642656
v -0.75834937 -1.28583365 5.33642656
v -0.76245763 -1.29081241 6.33246761
v -1.01042125 -1.01932629 6.77554388
v -1.03419052 -0.99560421 6.77554388
v 0.62408437 -1.08434238 6.77554388
v 0.51286756 -1.16136593 6.77554388
v 0.65166846 -1.35026404 6.41065754
v 0.65166846 -1.35026404 5.41095349
v 0.88143828 -0.99706856 5.33642656
v 0.63611569 -1.20441714 5.33642656
v 0.79927282 -1.07731357 5.33642656
v 0.81893384 -1.06179180 5.33642656
v -0.75629520 -1.28700516 5.33642656
v -0.69613837 -1.32009895 5.33642656
v -0.42499239 -1.43812366 6.35190942
v -0.72812419 -1.19855984 6.77554388
v -0.97784851 -1.04041262 6.77554388
v 0.36467628 -1.22784638 6.77554388
v 0.25375293 -1.27558339 6.77554388
v 0.30334565 -1.46799590 6.39121568
v 0.30363908 -1.46828875 5.89136374
v 0.30334565 -1.46858160 5.39137076
v 0.54426647 -1.26035437 5.33642656
v 0.57507852 -1.24658970 5.33642656
v -0.44758788 -1.40268697 5.33642656
v -0.42499239 -1.43783081 5.35220531
v -0.06199716 -1.49874680 6.37163301
v -0.42763340 -1.30223418 6.77554388
v -0.67501009 -1.21993902 6.77554388
v -0.06229061 -1.49845395 5.37178814
v 0.15398059 -1.29696257 6.77554388
v -0.03940166 -1.33034922 6.77554388
v 0.23233122 -1.38716509 5.33642656
v 0.27957635 -1.37691483 5.33642656
v 0.33210354 -1.35436415 5.33642656
v -0.42528582 -1.41000863 5.33642656
v -0.41090689 -1.41264438 5.33642656
v -0.12802298 -1.33239927 6.77554388
v -0.35515174 -1.31482734 6.77554388
v -0.08635335 -1.43724501 5.33642656
v -0.05378062 -1.43665931 5.33642656
f 1 2 3
f 1 3 4
f 1 4 5
f 1 5 6
f 1 6 7
f 1 7 8
f 1 8 9
f 1 9 2
f 2 10 11
f 2 11 12
f 2 12 13
f 2 13 3
f 2 9 10
f 3 13 4
f 4 13 26
f 4 26 14
f 4 14 15
f 4 15 16
f 4 16 17
f 4 17 5
f 5 17 16
f 5 16 15
f 5 15 27
f 5 27 30
f 5 30 44
f 5 44 58
f 5 58 57
f 5 57 75
f 5 75 74
f 5 74 73
f 5 73 90
f 5 90 89
f 5 89 88
f 5 88 103
f 5 103 102
f 5 102 101
f 5 101 100
f 5 100 117
f 5 117 116
f 5 116 129
f 5 129 128
f 5 128 144
f 5 144 143
f 5 143 157
f 5 157 156
f 5 156 169
f 5 169 168
f 5 168 179
f 5 179 178
f 5 178 172
f 5 172 171
f 5 171 159
f 5 159 158
f 5 158 146
f 5 146 145
f 5 145 132
f 5 132 131
f 5 131 130
f 5 130 120
f 5 120 119
f 5 119 106
f 5 106 94
f 5 94 93
f 5 93 78
f 5 78 77
f 5 77 62
f 5 62 61
f 5 61 60
f 5 60 49
f 5 49 48
f 5 48 34
f 5 34 31
f 5 31 18
f 5 18 7
f 5 7 6
f 7 18 8
f 8 18 19
f 8 19 9
f 9 20 21
f 9 21 22
f 9 22 10
f 9 19 23
f 9 23 24
f 9 24 20
f 10 22 21
f 10 21 20
f 10 20 35
f 10 35 51
f 10 51 50
f 10 50 65
f 10 65 66
f 10 66 82
f 10 82 81
f 10 81 80
f 10 80 95
f 10 95 110
f 10 110 109
f 10 109 108
f 10 108 122
f 10 122 137
f 10 137 136
f 10 136 149
f 10 149 152
f 10 152 151
f 10 151 150
f 10 150 164
f 10 164 163
f 10 163 175
f 10 175 174
f 10 174 173
f 10 173 181
f 10 181 180
f 10 180 177
f 10 177 176
f 10 176 165
f 10 165 154
f 10 154 153
f 10 153 141
f 10 141 140
f 10 140 138
f 10 138 125
f 10 125 124
f 10 124 123
f 10 123 113
f 10 113 111
f 10 111 97
f 10 97 96
f 10 96 86
f 10 86 85
f 10 85 84
f 10 84 72
f 10 72 71
f 10 71 70
f 10 70 67
f 10 67 54
f 10 54 53
f 10 53 41
f 10 41 40
f 10 40 39
f 10 39 38
f 10 38 37
f 10 37 36
f 10 36 25
f 10 25 12
f 10 12 11
f 12 25 13
f 13 25 26
f 14 27 15
f 14 26 28
f 14 28 29
f 14 29 30
f 14 30 27
f 18 31 19
f 19 32 33
f 19 33 23
f 19 31 34
f 19 34 32
f 20 24 35
f 23 33 24
f 24 33 35
f 25 36 26
f 26 36 37
f 26 37 38
f 26 38 39
f 26 39 28
f 28 39 40
f 28 40 41
f 28 41 42
f 28 42 43
f 28 43 29
f 29 44 30
f 29 43 44
f 32 45 46
f 32 46 47
f 32 47 33
f 32 34 48
f 32 48 49
f 32 49 45
f 33 50 51
f 33 51 35
f 33 47 46
f 33 46 52
f 33 52 50
f 41 53 42
f 42 53 54
f 42 54 55
f 42 55 56
f 42 56 43
f 43 56 57
f 43 57 58
f 43 58 44
f 45 59 46
f 45 49 60
f 45 60 61
f 45 61 62
f 45 62 59
f 46 59 63
f 46 63 64
f 46 64 52
f 50 52 65
f 52 64 66
f 52 66 65
f 54 67 55
f 55 68 69
f 55 69 56
f 55 67 70
f 55 70 71
f 55 71 72
f 55 72 68
f 56 69 73
f 56 73 74
f 56 74 75
f 56 75 57
f 59 76 63
f 59 62 77
f 59 77 78
f 59 78 76
f 63 76 79
f 63 79 64
f 64 79 80
f 64 80 81
f 64 81 82
f 64 82 66
f 68 83 69
f 68 72 84
f 68 84 85
f 68 85 86
f 68 86 83
f 69 83 87
f 69 87 88
f 69 88 89
f 69 89 90
f 69 90 73
f 76 91 92
f 76 92 79
f 76 78 93
f 76 93 94
f 76 94 91
f 79 92 95
f 79 95 80
f 83 86 96
f 83 96 97
f 83 97 98
f 83 98 99
f 83 99 87
f 87 99 100
f 87 100 101
f 87 101 102
f 87 102 103
f 87 103 88
f 91 104 105
f 91 105 92
f 91 94 106
f 91 106 104
f 92 105 107
f 92 107 108
f 92 108 109
f 92 109 110
f 92 110 95
f 97 111 98
f 98 112 99
f 98 111 113
f 98 113 112
f 99 112 114
f 99 114 115
f 99 115 116
f 99 116 117
f 99 117 100
f 104 118 105
f 104 106 119
f 104 119 120
f 104 120 118
f 105 118 121
f 105 121 107
f 107 121 122
f 107 122 108
f 112 113 114
f 113 123 114
f 114 123 124
f 114 124 125
f 114 125 126
f 114 126 115
f 115 126 127
f 115 127 128
f 115 128 129
f 115 129 116
f 118 120 130
f 118 130 131
f 118 131 132
f 118 132 133
f 118 133 134
f 118 134 121
f 121 134 135
f 121 135 136
f 121 136 137
f 121 137 122
f 125 138 126
f 126 139 127
f 126 138 140
f 126 140 141
f 126 141 139
f 127 139 142
f 127 142 143
f 127 143 144
f 127 144 128
f 132 145 133
f 133 145 146
f 133 146 147
f 133 147 148
f 133 148 134
f 134 148 135
f 135 149 136
f 135 148 150
f 135 150 151
f 135 151 152
f 135 152 149
f 139 141 153
f 139 153 154
f 139 154 155
f 139 155 142
f 142 155 156
f 142 156 157
f 142 157 143
f 146 158 147
f 147 158 159
f 147 159 160
f 147 160 161
f 147 161 162
f 147 162 148
f 148 162 163
f 148 163 164
f 148 164 150
f 154 165 166
f 154 166 155
f 155 167 168
f 155 168 169
f 155 169 156
f 155 166 170
f 155 170 167
f 159 171 160
f 160 171 172
f 160 172 167
f 160 167 161
f 161 167 162
f 162 173 174
f 162 174 175
f 162 175 163
f 162 167 170
f 162 170 173
f 165 176 166
f 166 176 177
f 166 177 170
f 167 172 178
f 167 178 179
f 167 179 168
f 170 177 180
f 170 180 181
f 170 181 173

