# https://github.com/mikedh/trimesh
v 0.14312266 1.49287309 5.11737680
v -0.01123039 1.13330380 5.33633293
v 0.01107157 1.13183976 5.33633293
v 0.21912541 1.08762562 5.33633293
v 0.23174362 1.08381900 5.33633293
v 0.42688578 1.02408615 5.33633293
v 0.50200817 1.41264332 5.09778847
v 0.08003158 1.31953008 4.72254665
v -0.13213050 1.33299946 4.72254665
v -0.21928422 1.33563468 4.72254665
v -0.22368592 1.48291748 5.13690504
v -0.19375435 1.13857424 5.33633293
v 0.61821315 0.92160299 5.33633293
v 0.83096215 1.24808473 5.07820013
v 0.45975182 1.19332949 4.72254665
v 0.35323063 1.24164310 4.72254665
v 0.18039042 1.29669099 4.72254665
v -0.53151170 1.27882970 4.72254665
v -0.57787630 1.38365524 5.15649337
v -0.45169417 1.09758102 5.33633293
v -0.21899078 1.32480073 5.22859742
v -0.21400218 1.13886709 5.33633293
v 0.78577133 0.78310442 5.33633293
v 0.69450934 1.03872652 4.72254665
v 0.58857504 1.11397848 4.72254665
v 0.93484237 0.63962809 5.33633293
v 1.10973671 1.00827440 5.05867211
v -0.58726658 1.25774750 4.72254665
v -0.58814693 1.24603521 5.22859742
v -0.58198455 1.04868192 5.33633293
v -0.83728333 1.14325920 4.72254665
v -0.89714646 1.20123537 5.17602140
v -0.82965374 1.13564617 5.22859742
v 0.87791361 0.84722953 4.72254665
v 0.95039503 0.62147390 5.33633293
v 1.06425235 0.46042909 5.33633293
v 1.30399847 0.73391252 5.04076618
v -0.60369964 1.03989770 5.33633293
v -0.69026646 1.00066137 5.33633293
v -0.87425765 1.12012726 4.72254665
v -0.81850276 0.92101729 5.33633293
v -1.11517749 0.92716629 4.72254665
v -1.13454502 0.90901216 4.72254665
v -1.16271592 0.94678446 5.19554964
v 1.32219217 0.70785251 5.03908377
v 0.96682804 0.70638847 4.72254665
v 1.08655441 0.41504370 5.33633293
v -0.91475330 0.84371581 5.33633293
v -1.34641362 0.63025817 4.72254665
v -1.35844500 0.63523593 5.21513797
v -1.12808921 0.90052079 5.22859742
v 1.16197025 0.24550739 5.33633293
v 1.45483016 0.36468057 5.01955553
v 1.00820404 0.63494313 4.72254665
v -1.00454808 0.75938689 5.33633293
v -1.34876128 0.62615886 4.72254665
v -1.40099483 0.50347194 4.72254665
v -1.47200894 0.28562219 4.73480443
v -1.47200894 0.28562219 5.23466621
v -1.20321157 0.48180409 5.33633293
v -1.16359627 0.55354228 5.33633293
v -1.10813482 0.62703730 5.33633293
v -1.01540562 0.74913858 5.33633293
v 1.21625787 0.00013359 5.33633293
v 1.50002103 -0.00015922 5.00002729
v 1.08684779 0.41533650 4.72254665
v 1.07188199 0.46804212 4.72254665
v -1.44941350 0.29264960 4.72254665
v -1.45117419 0.28210848 4.72254665
v -1.45117419 0.26951772 4.72254665
v -1.49753879 -0.08068165 4.75433267
v -1.49783228 -0.08068165 5.25425434
v -1.31706900 0.17845417 5.33633293
v -1.30239669 0.24199367 5.33633293
v -1.27627986 0.30963252 5.33633293
v 1.22242030 -0.08009603 5.33633293
v 1.22183333 -0.16910992 5.33633293
v 1.21889891 -0.24816829 5.33633293
v 1.47214351 -0.28564782 4.98476526
v 1.11971391 0.19953640 4.72254665
v 1.11883356 0.22823167 4.72254665
v -1.44383804 -0.06867649 4.72254665
v -1.43708875 -0.09971422 4.72254665
v -1.43268701 -0.44259335 4.77392100
v -1.43268701 -0.44259335 5.27384267
v -1.33174131 -0.39369428 5.33633293
v -1.35345640 -0.14480678 5.33633293
v -1.35639082 -0.09385805 5.33633293
v -1.35110884 -0.03705313 5.33633293
v 1.17370804 -0.48710030 5.33633293
v 1.39085872 -0.56118097 4.96950323
v 1.07775094 -0.26339435 4.72254665
v 1.09829220 -0.15681195 4.72254665
v 1.10122672 -0.13748656 4.72254665
v 1.11443182 -0.00015922 4.72254665
v -1.35727117 -0.39135183 4.72254665
v -1.33761026 -0.43673718 4.72254665
v -1.28185532 -0.77815227 4.79350934
v -1.28185532 -0.77815227 5.29337091
v -1.32381829 -0.43527315 5.33633293
v 1.12939762 -0.59748923 5.33633293
v 1.21244310 -0.88268506 4.94991511
v 1.02228949 -0.43205225 4.72254665
v 1.04869969 -0.35328668 4.72254665
v 1.06131793 -0.75150666 5.33633293
v -1.20614610 -0.67069146 4.72254665
v -1.16858487 -0.72456826 4.72254665
v -1.00630877 -0.89615428 4.72254665
v -1.05384709 -1.06686187 4.81303736
v -1.05414058 -1.06656902 5.31289915
v -1.20731982 -0.76029093 5.33633293
v -1.21993806 -0.73481657 5.33633293
v 1.00468265 -0.83934930 5.33633293
v 0.99617277 -0.85047605 5.33633293
v 0.88143500 -0.99688056 5.33633293
v 0.81893082 -1.06188406 5.33633293
v 0.96095909 -1.15119068 4.93038687
v 0.78606476 -0.81065407 4.72254665
v 0.79692230 -0.79659925 4.72254665
v 0.91224694 -0.63145507 4.72254665
v 0.92016996 -0.61974273 4.72254665
v 0.99881371 -0.47919447 4.72254665
v -0.94849966 -0.95178787 4.72254665
v -0.76245440 -1.29115329 4.83256560
v -0.86897562 -1.00302955 4.72254665
v -0.76216092 -1.29115329 5.33248738
v -0.76040027 -1.28412596 5.33633293
v -1.01452527 -1.04958607 5.33633293
v -1.02479585 -1.03845927 5.33633293
v -1.03447967 -1.02440461 5.33633293
v 0.63640685 -1.20448189 5.33633293
v 0.57507645 -1.24693915 5.33633293
v 0.65195956 -1.35059350 4.91079854
v 0.64755783 -0.95413045 4.72254665
v -0.69584192 -1.11283268 4.72254665
v -0.59342901 -1.15324042 4.72254665
v -0.42528394 -1.43814345 4.85215394
v -0.69613541 -1.31984853 5.33633293
v -0.75658545 -1.28705404 5.33633293
v -0.75834615 -1.28588285 5.33633293
v 0.33239589 -1.35410727 5.33633293
v 0.27986891 -1.37665351 5.33633293
v 0.30363810 -1.46859557 4.89127030
v 0.39255251 -1.11722500 4.72254665
v 0.45828461 -1.08794407 4.72254665
v 0.61293112 -0.98106880 4.72254665
v -0.42939219 -1.20770281 4.72254665
v -0.16440966 -1.24049752 4.72254665
v -0.06229015 -1.49846199 4.87168218
v -0.41090504 -1.41296177 5.33633293
v -0.42557737 -1.41003370 5.33633293
v -0.30673140 -1.22966357 4.72254665
v 0.23233051 -1.38719461 5.33633293
v 0.19095451 -1.39451479 5.33633293
v -0.05436708 -1.43667941 5.33633293
v -0.02678308 -1.23815493 4.72254665
v 0.08531363 -1.21853677 4.72254665
v 0.23115673 -1.18691346 4.72254665
v -0.08664624 -1.43726490 5.33633293
f 1 2 3
f 1 3 4
f 1 4 5
f 1 5 6
f 1 6 7
f 1 7 8
f 1 8 9
f 1 9 10
f 1 10 11
f 1 11 2
f 2 11 12
f 2 12 22
f 2 22 20
f 2 20 30
f 2 30 38
f 2 38 39
f 2 39 41
f 2 41 48
f 2 48 55
f 2 55 63
f 2 63 62
f 2 62 61
f 2 61 60
f 2 60 75
f 2 75 74
f 2 74 73
f 2 73 89
f 2 89 88
f 2 88 87
f 2 87 86
f 2 86 100
f 2 100 112
f 2 112 111
f 2 111 130
f 2 130 129
f 2 129 128
f 2 128 127
f 2 127 140
f 2 140 139
f 2 139 138
f 2 138 151
f 2 151 150
f 2 150 159
f 2 159 155
f 2 155 154
f 2 154 153
f 2 153 142
f 2 142 141
f 2 141 132
f 2 132 131
f 2 131 116
f 2 116 115
f 2 115 114
f 2 114 113
f 2 113 105
f 2 105 101
f 2 101 90
f 2 90 78
f 2 78 77
f 2 77 76
f 2 76 64
f 2 64 52
f 2 52 47
f 2 47 36
f 2 36 35
f 2 35 26
f 2 26 23
f 2 23 13
f 2 13 6
f 2 6 5
f 2 5 4
f 2 4 3
f 6 13 7
f 7 13 14
f 7 14 15
f 7 15 16
f 7 16 17
f 7 17 8
f 8 17 16
f 8 16 15
f 8 15 25
f 8 25 24
f 8 24 34
f 8 34 46
f 8 46 54
f 8 54 67
f 8 67 66
f 8 66 81
f 8 81 80
f 8 80 95
f 8 95 94
f 8 94 93
f 8 93 92
f 8 92 104
f 8 104 103
f 8 103 122
f 8 122 121
f 8 121 120
f 8 120 119
f 8 119 118
f 8 118 134
f 8 134 146
f 8 146 145
f 8 145 144
f 8 144 158
f 8 158 157
f 8 157 156
f 8 156 148
f 8 148 152
f 8 152 147
f 8 147 136
f 8 136 135
f 8 135 125
f 8 125 123
f 8 123 108
f 8 108 107
f 8 107 106
f 8 106 97
f 8 97 96
f 8 96 83
f 8 83 82
f 8 82 70
f 8 70 69
f 8 69 68
f 8 68 57
f 8 57 56
f 8 56 49
f 8 49 43
f 8 43 42
f 8 42 40
f 8 40 31
f 8 31 28
f 8 28 18
f 8 18 10
f 8 10 9
f 10 18 11
f 11 18 19
f 11 19 20
f 11 20 21
f 11 21 12
f 12 21 22
f 13 23 14
f 14 24 25
f 14 25 15
f 14 23 26
f 14 26 27
f 14 27 24
f 18 28 19
f 19 29 30
f 19 30 20
f 19 28 31
f 19 31 32
f 19 32 33
f 19 33 29
f 20 22 21
f 24 27 34
f 26 35 27
f 27 35 36
f 27 36 37
f 27 37 34
f 29 38 30
f 29 33 39
f 29 39 38
f 31 40 32
f 32 41 33
f 32 40 42
f 32 42 43
f 32 43 44
f 32 44 41
f 33 41 39
f 34 37 45
f 34 45 46
f 36 47 45
f 36 45 37
f 41 44 48
f 43 49 44
f 44 49 50
f 44 50 51
f 44 51 48
f 45 47 52
f 45 52 53
f 45 53 54
f 45 54 46
f 48 51 55
f 49 56 50
f 50 56 57
f 50 57 58
f 50 58 59
f 50 59 60
f 50 60 61
f 50 61 62
f 50 62 63
f 50 63 51
f 51 63 55
f 52 64 53
f 53 64 65
f 53 65 66
f 53 66 67
f 53 67 54
f 57 68 58
f 58 68 69
f 58 69 70
f 58 70 71
f 58 71 72
f 58 72 59
f 59 72 73
f 59 73 74
f 59 74 75
f 59 75 60
f 64 76 65
f 65 76 77
f 65 77 78
f 65 78 79
f 65 79 80
f 65 80 81
f 65 81 66
f 70 82 71
f 71 82 83
f 71 83 84
f 71 84 72
f 72 85 86
f 72 86 87
f 72 87 88
f 72 88 89
f 72 89 73
f 72 84 85
f 78 90 79
f 79 90 91
f 79 91 92
f 79 92 93
f 79 93 94
f 79 94 95
f 79 95 80
f 83 96 84
f 84 96 97
f 84 97 98
f 84 98 99
f 84 99 85
f 85 99 100
f 85 100 86
f 90 101 91
f 91 102 103
f 91 103 104
f 91 104 92
f 91 101 105
f 91 105 102
f 97 106 98
f 98 106 107
f 98 107 108
f 98 108 109
f 98 109 110
f 98 110 99
f 99 110 111
f 99 111 112
f 99 112 100
f 102 105 113
f 102 113 114
f 102 114 115
f 102 115 116
f 102 116 117
f 102 117 118
f 102 118 119
f 102 119 120
f 102 120 121
f 102 121 122
f 102 122 103
f 108 123 109
f 109 124 110
f 109 123 125
f 109 125 124
f 110 124 126
f 110 126 127
f 110 127 128
f 110 128 129
f 110 129 130
f 110 130 111
f 116 131 117
f 117 131 132
f 117 132 133
f 117 133 134
f 117 134 118
f 124 125 135
f 124 135 136
f 124 136 137
f 124 137 126
f 126 137 138
f 126 138 139
f 126 139 140
f 126 140 127
f 132 141 133
f 133 141 142
f 133 142 143
f 133 143 144
f 133 144 145
f 133 145 146
f 133 146 134
f 136 147 137
f 137 148 149
f 137 149 150
f 137 150 151
f 137 151 138
f 137 147 152
f 137 152 148
f 142 153 143
f 143 153 154
f 143 154 155
f 143 155 149
f 143 149 156
f 143 156 157
f 143 157 158
f 143 158 144
f 148 156 149
f 149 155 159
f 149 159 150

