# https://github.com/mikedh/trimesh
v 0.49729364 -2.65375193 12.99012073
v 0.49729364 -2.65323246 13.00010639
v 0.49729364 -2.63764648 12.40016010
v 0.95745770 -2.52438924 12.40016010
v 0.50009687 -2.65323246 13.00010639
v 0.50009687 -2.65323246 13.99988413
v 0.50009687 -2.44905772 14.19999981
v 0.49729364 2.65323246 13.00010639
v 0.49729364 -2.57530317 12.33884705
v 0.49729364 -2.43347195 12.20004484
v 0.88651395 -2.33735911 12.20004484
v 1.53384875 -2.22202379 12.40016010
v 1.09373864 -2.46828020 13.99988413
v 1.04133952 -2.27241803 14.19999981
v 0.50009687 2.44905772 14.19999981
v 0.50009687 2.65323246 13.99988413
v 0.49729364 2.65375193 12.99012073
v 0.49729364 -0.99022151 12.15990160
v 0.53546099 -0.97203797 12.15990160
v 1.42020938 -2.05733317 12.20004484
v 2.02096714 -1.79029544 12.40016010
v 1.62915921 -2.15292632 13.99988413
v 1.52867352 -1.97784525 14.19999981
v 1.04133952 2.27241803 14.19999981
v 1.09373864 2.46828020 13.99988413
v 0.95745770 2.52438924 12.40016010
v 0.50009687 2.65323246 13.00010639
v 0.49729364 2.63764648 12.40016010
v 0.49729364 1.29310665 12.15990160
v 0.66117586 -0.89151101 12.15990160
v 1.87110118 -1.65729615 12.20004484
v 0.78171555 -0.79332014 12.15990160
v 0.78473445 -0.79072247 12.15990160
v 2.21352862 -1.16166587 12.20004484
v 2.39056462 -1.25466147 12.40016010
v 2.07832587 -1.72327627 13.99988413
v 1.93643836 -1.58092548 14.19999981
v 1.52867352 1.97784525 14.19999981
v 1.62915921 2.15292632 13.99988413
v 1.53384875 2.22202379 12.40016010
v 0.88651395 2.33735911 12.20004484
v 0.49729364 2.43347195 12.20004484
v 1.42020938 2.05733317 12.20004484
v 0.55659313 1.26193489 12.15990160
v 0.90203963 -0.68629723 12.15990160
v 0.99303733 -0.58031341 12.15990160
v 1.01567900 -0.54654404 12.15990160
v 1.07066574 -0.46341947 12.15990160
v 1.11379270 -0.38237302 12.15990160
v 1.13341552 -0.33353735 12.15990160
v 1.17977684 -0.21300671 12.15990160
v 2.42722245 -0.59797738 12.20004484
v 2.62150907 -0.64577401 12.40016010
v 2.41751905 -1.20218914 13.99988413
v 2.24393313 -1.10192012 14.19999981
v 1.93643836 1.58092548 14.19999981
v 2.07832587 1.72327627 13.99988413
v 2.02096714 1.79029544 12.40016010
v 1.87110118 1.65729615 12.20004484
v 0.79271291 1.09568575 12.15990160
v 0.67109508 1.19127901 12.15990160
v 1.20004651 -0.13403837 12.15990160
v 1.21039697 -0.07896834 12.15990160
v 1.22355065 0.00000000 12.15990160
v 2.49989145 0.00000000 12.20004484
v 2.69978453 0.00000000 12.40016010
v 2.62840965 -0.61719997 13.99988413
v 2.43498529 -0.56524711 14.19999981
v 2.41751905 1.20218914 13.99988413
v 2.24393313 1.10192012 14.19999981
v 2.39056462 1.25466147 12.40016010
v 2.21352862 1.16166587 12.20004484
v 0.97815861 0.89410868 12.15990160
v 0.86947879 1.01723699 12.15990160
v 1.22743207 0.17663972 12.15990160
v 1.22484446 0.25352994 12.15990160
v 2.42722245 0.59797738 12.20004484
v 2.62150907 0.64577401 12.40016010
v 2.62840965 0.61719997 13.99988413
v 2.69978453 0.00000000 13.99988413
v 2.49989145 0.00000000 14.19999981
v 2.43498529 0.56524711 14.19999981
v 1.11293023 0.66707469 12.15990160
v 1.06204043 0.75487501 12.15990160
v 1.19594948 0.42497438 12.15990160
v 1.17179838 0.50861849 12.15990160
f 1 2 8
f 1 8 17
f 1 17 28
f 1 28 42
f 1 42 29
f 1 29 18
f 1 18 10
f 1 10 9
f 1 9 3
f 1 3 4
f 1 4 5
f 1 5 6
f 1 6 2
f 2 6 7
f 2 7 15
f 2 15 8
f 3 9 4
f 4 9 10
f 4 10 11
f 4 11 12
f 4 12 13
f 4 13 6
f 4 6 5
f 6 13 7
f 7 13 14
f 7 14 23
f 7 23 37
f 7 37 55
f 7 55 68
f 7 68 81
f 7 81 82
f 7 82 70
f 7 70 56
f 7 56 38
f 7 38 24
f 7 24 15
f 8 15 16
f 8 16 17
f 10 18 11
f 11 18 19
f 11 19 20
f 11 20 12
f 12 20 21
f 12 21 22
f 12 22 13
f 13 22 14
f 14 22 23
f 15 24 25
f 15 25 16
f 16 25 26
f 16 26 27
f 16 27 17
f 17 27 26
f 17 26 28
f 18 29 44
f 18 44 61
f 18 61 60
f 18 60 74
f 18 74 73
f 18 73 84
f 18 84 83
f 18 83 86
f 18 86 85
f 18 85 76
f 18 76 75
f 18 75 64
f 18 64 63
f 18 63 62
f 18 62 51
f 18 51 50
f 18 50 49
f 18 49 48
f 18 48 47
f 18 47 46
f 18 46 45
f 18 45 33
f 18 33 32
f 18 32 30
f 18 30 19
f 19 30 20
f 20 31 21
f 20 30 32
f 20 32 33
f 20 33 31
f 21 31 34
f 21 34 35
f 21 35 36
f 21 36 22
f 22 36 23
f 23 36 37
f 24 38 39
f 24 39 25
f 25 40 26
f 25 39 40
f 26 40 41
f 26 41 42
f 26 42 28
f 29 42 41
f 29 41 43
f 29 43 44
f 31 33 45
f 31 45 46
f 31 46 34
f 34 46 47
f 34 47 48
f 34 48 49
f 34 49 50
f 34 50 51
f 34 51 52
f 34 52 53
f 34 53 35
f 35 53 54
f 35 54 36
f 36 54 37
f 37 54 55
f 38 56 57
f 38 57 39
f 39 58 40
f 39 57 58
f 40 58 43
f 40 43 41
f 43 58 59
f 43 59 60
f 43 60 61
f 43 61 44
f 51 62 52
f 52 62 63
f 52 63 64
f 52 64 65
f 52 65 53
f 53 65 66
f 53 66 67
f 53 67 54
f 54 67 55
f 55 67 68
f 56 69 57
f 56 70 69
f 57 69 71
f 57 71 58
f 58 71 72
f 58 72 59
f 59 72 73
f 59 73 74
f 59 74 60
f 64 75 65
f 65 75 76
f 65 76 77
f 65 77 78
f 65 78 66
f 66 78 79
f 66 79 80
f 66 80 67
f 67 80 68
f 68 80 81
f 69 78 71
f 69 70 79
f 69 79 78
f 70 82 79
f 71 78 72
f 72 78 77
f 72 77 83
f 72 83 84
f 72 84 73
f 76 85 77
f 77 85 86
f 77 86 83
f 79 82 80
f 80 82 81

