# https://github.com/mikedh/trimesh
v 0.10722569 8.15783693 -0.00000009
v 0.20784274 7.52433886 -0.00000009
v 0.10722569 8.15783693 5.00000009
v 4.68777317 8.15783693 -0.00000009
v 0.20784274 7.52433886 5.00000009
v 0.46515822 6.56399024 -0.00000009
v 4.68777317 8.15783693 5.00000009
v 5.72363299 6.22270924 -0.00000009
v 0.46515822 6.56399024 5.00000009
v 0.82144129 5.63538866 -0.00000009
v 5.72363299 6.22270924 5.00000009
v 5.72363299 0.78746778 -0.00000009
v 0.82144129 5.63538866 5.00000009
v 1.27284318 4.74935675 -0.00000009
v 5.72363299 0.78746778 5.00000009
v 5.63566187 0.82137957 -0.00000009
v 1.27284318 4.74935675 5.00000009
v 1.81441548 3.91671798 -0.00000009
v 5.63566187 0.82137957 5.00000009
v 4.74990261 1.27305382 -0.00000009
v 1.81441548 3.91671798 5.00000009
v 2.44065997 3.14396575 -0.00000009
v 4.74990261 1.27305382 5.00000009
v 3.91582614 1.81491831 -0.00000009
v 2.44065997 3.14396575 5.00000009
v 3.14277947 2.44047990 -0.00000009
v 3.91582614 1.81491831 5.00000009
v 3.14277947 2.44047990 5.00000009
f 1 2 5
f 1 5 3
f 1 3 7
f 1 7 4
f 1 4 8
f 1 8 12
f 1 12 16
f 1 16 20
f 1 20 24
f 1 24 26
f 1 26 22
f 1 22 18
f 1 18 14
f 1 14 10
f 1 10 6
f 1 6 2
f 2 6 9
f 2 9 5
f 3 5 9
f 3 9 13
f 3 13 17
f 3 17 21
f 3 21 25
f 3 25 28
f 3 28 27
f 3 27 23
f 3 23 19
f 3 19 15
f 3 15 11
f 3 11 7
f 4 7 11
f 4 11 8
f 6 10 13
f 6 13 9
f 8 11 15
f 8 15 12
f 10 14 17
f 10 17 13
f 12 15 19
f 12 19 16
f 14 18 21
f 14 21 17
f 16 19 23
f 16 23 20
f 18 22 25
f 18 25 21
f 20 23 27
f 20 27 24
f 22 26 28
f 22 28 25
f 24 27 28
f 24 28 26

