# https://github.com/mikedh/trimesh
v 9.49847539 0.00007984 -0.00000009
v 8.50687073 0.05242062 -0.00000009
v 9.49847539 4.49996528 -0.00000009
v 9.49847539 0.00007984 5.00000009
v 7.52500957 0.20799053 -0.00000009
v 8.50687073 0.05242062 5.00000009
v 7.42473269 4.95116559 -0.00000009
v 9.49847539 4.49996528 5.00000009
v 7.42473269 0.23464590 -0.00000009
v 7.52500957 0.20799053 5.00000009
v 7.42473269 4.95116559 5.00000009
v 7.42473269 0.23464590 5.00000009
f 1 2 5
f 1 5 9
f 1 9 7
f 1 7 3
f 1 3 8
f 1 8 4
f 1 4 6
f 1 6 2
f 2 6 10
f 2 10 5
f 3 7 11
f 3 11 8
f 4 8 11
f 4 11 12
f 4 12 10
f 4 10 6
f 5 10 12
f 5 12 9
f 7 9 12
f 7 12 11

