# https://github.com/mikedh/trimesh
v 1.17361116 14.05589576 -0.00000009
v 1.17361116 14.05589576 5.00000009
v 1.27302665 14.25046262 -0.00000009
v 7.44170614 14.05589576 -0.00000009
v 1.27302665 14.25046262 5.00000009
v 7.44170614 14.05589576 5.00000009
v 1.81492567 15.08438846 -0.00000009
v 9.49847567 14.50020459 -0.00000009
v 1.81492567 15.08438846 5.00000009
v 9.49847567 14.50020459 5.00000009
v 2.44075680 15.85684681 -0.00000009
v 9.49847567 18.99992016 -0.00000009
v 2.44075680 15.85684681 5.00000009
v 9.49847567 18.99992016 5.00000009
v 3.14400256 16.55960956 -0.00000009
v 8.50676081 18.94764847 -0.00000009
v 3.14400256 16.55960956 5.00000009
v 8.50676081 18.94764847 5.00000009
v 3.91651356 17.18541747 -0.00000009
v 7.52482441 18.79228580 -0.00000009
v 3.91651356 17.18541747 5.00000009
v 7.52482441 18.79228580 5.00000009
v 4.75014099 17.72700959 -0.00000009
v 6.56407517 18.53479987 -0.00000009
v 4.75014099 17.72700959 5.00000009
v 6.56407517 18.53479987 5.00000009
v 5.63592121 18.17857796 -0.00000009
v 5.63592121 18.17857796 5.00000009
f 1 2 5
f 1 5 3
f 1 3 7
f 1 7 11
f 1 11 15
f 1 15 19
f 1 19 23
f 1 23 27
f 1 27 24
f 1 24 20
f 1 20 16
f 1 16 12
f 1 12 8
f 1 8 4
f 1 4 6
f 1 6 2
f 2 6 10
f 2 10 14
f 2 14 18
f 2 18 22
f 2 22 26
f 2 26 28
f 2 28 25
f 2 25 21
f 2 21 17
f 2 17 13
f 2 13 9
f 2 9 5
f 3 5 9
f 3 9 7
f 4 8 10
f 4 10 6
f 7 9 13
f 7 13 11
f 8 12 14
f 8 14 10
f 11 13 17
f 11 17 15
f 12 16 18
f 12 18 14
f 15 17 21
f 15 21 19
f 16 20 22
f 16 22 18
f 19 21 25
f 19 25 23
f 20 24 26
f 20 26 22
f 23 25 28
f 23 28 27
f 24 27 28
f 24 28 26

