# https://github.com/mikedh/trimesh
v 4.68745324 8.15855832 5.00000009
v 4.64064750 10.62417296 5.00000009
v 0.10737801 8.15855832 5.00000009
v 4.68745324 8.15855832 -0.00000009
v 0.07296225 10.62417296 5.00000009
v 4.64064750 10.62417296 -0.00000009
v 0.05231246 8.50706530 5.00000009
v 0.10737801 8.15855832 -0.00000009
v 0.05231246 10.49287949 5.00000009
v 0.07296225 10.62417296 -0.00000009
v 0.00000057 9.49997240 5.00000009
v 0.05231246 8.50706530 -0.00000009
v 0.05231246 10.49287949 -0.00000009
v 0.00000057 9.49997240 -0.00000009
f 1 2 5
f 1 5 9
f 1 9 11
f 1 11 7
f 1 7 3
f 1 3 8
f 1 8 4
f 1 4 6
f 1 6 2
f 2 6 10
f 2 10 5
f 3 7 12
f 3 12 8
f 4 8 12
f 4 12 14
f 4 14 13
f 4 13 10
f 4 10 6
f 5 10 13
f 5 13 9
f 7 11 14
f 7 14 12
f 9 13 14
f 9 14 11

