# https://github.com/mikedh/trimesh
v 0.07281446 10.62417296 -0.00000009
v 0.07281446 10.62417296 5.00000009
v 0.20810887 11.47529323 -0.00000009
v 4.64053991 10.62417296 -0.00000009
v 0.20810887 11.47529323 5.00000009
v 4.64053991 10.62417296 5.00000009
v 0.46533602 12.43550949 -0.00000009
v 5.76020075 12.81380898 -0.00000009
v 0.46533602 12.43550949 5.00000009
v 5.76020075 12.81380898 5.00000009
v 0.61065239 12.81380898 -0.00000009
v 0.61065239 12.81380898 5.00000009
f 1 2 5
f 1 5 3
f 1 3 7
f 1 7 11
f 1 11 8
f 1 8 4
f 1 4 6
f 1 6 2
f 2 6 10
f 2 10 12
f 2 12 9
f 2 9 5
f 3 5 9
f 3 9 7
f 4 8 10
f 4 10 6
f 7 9 12
f 7 12 11
f 8 11 12
f 8 12 10

