# https://github.com/mikedh/trimesh
v 12.14139068 0.38594067 -0.00000009
v 12.43569522 0.46526808 -0.00000009
v 12.14139068 0.38594067 5.00000009
v 12.14139068 5.25917946 -0.00000009
v 12.43569522 0.46526808 5.00000009
v 13.36433218 0.82156757 -0.00000009
v 12.14139068 5.25917946 5.00000009
v 13.95616120 7.25311330 -0.00000009
v 13.36433218 0.82156757 5.00000009
v 14.25046602 1.27332845 -0.00000009
v 13.95616120 7.25311330 5.00000009
v 18.71977371 7.25311330 -0.00000009
v 14.25046602 1.27332845 5.00000009
v 15.08443603 1.81450099 -0.00000009
v 18.71977371 7.25311330 5.00000009
v 18.53494766 6.56404290 -0.00000009
v 15.08443603 1.81450099 5.00000009
v 15.85658294 2.44037798 -0.00000009
v 18.53494766 6.56404290 5.00000009
v 18.17817593 5.63564715 -0.00000009
v 15.85658294 2.44037798 5.00000009
v 16.55982304 3.14356598 -0.00000009
v 18.17817593 5.63564715 5.00000009
v 17.72673723 4.74960363 -0.00000009
v 16.55982304 3.14356598 5.00000009
v 17.18513945 3.91599658 -0.00000009
v 17.72673723 4.74960363 5.00000009
v 17.18513945 3.91599658 5.00000009
f 1 2 5
f 1 5 3
f 1 3 7
f 1 7 4
f 1 4 8
f 1 8 12
f 1 12 16
f 1 16 20
f 1 20 24
f 1 24 26
f 1 26 22
f 1 22 18
f 1 18 14
f 1 14 10
f 1 10 6
f 1 6 2
f 2 6 9
f 2 9 5
f 3 5 9
f 3 9 13
f 3 13 17
f 3 17 21
f 3 21 25
f 3 25 28
f 3 28 27
f 3 27 23
f 3 23 19
f 3 19 15
f 3 15 11
f 3 11 7
f 4 7 11
f 4 11 8
f 6 10 13
f 6 13 9
f 8 11 15
f 8 15 12
f 10 14 17
f 10 17 13
f 12 15 19
f 12 19 16
f 14 18 21
f 14 21 17
f 16 19 23
f 16 23 20
f 18 22 25
f 18 25 21
f 20 23 27
f 20 27 24
f 22 26 28
f 22 28 25
f 24 27 28
f 24 28 26

