# https://github.com/mikedh/trimesh
v 12.14074686 5.25962764 5.00000009
v 12.14074686 5.25962764 -0.00000009
v 9.49847539 4.49972066 5.00000009
v 12.14074686 0.38613150 5.00000009
v 9.49847539 4.49972066 -0.00000009
v 12.14074686 0.38613150 -0.00000009
v 9.49847539 0.00051528 5.00000009
v 11.47500614 0.20799619 5.00000009
v 9.49847539 0.00051528 -0.00000009
v 11.47500614 0.20799619 -0.00000009
v 9.50002732 0.00000000 5.00000009
v 10.49320678 0.05251405 5.00000009
v 9.50002732 0.00000000 -0.00000009
v 10.49320678 0.05251405 -0.00000009
f 1 2 5
f 1 5 3
f 1 3 7
f 1 7 11
f 1 11 12
f 1 12 8
f 1 8 4
f 1 4 6
f 1 6 2
f 2 6 10
f 2 10 14
f 2 14 13
f 2 13 9
f 2 9 5
f 3 5 9
f 3 9 7
f 4 8 10
f 4 10 6
f 7 9 13
f 7 13 11
f 8 12 14
f 8 14 10
f 11 13 14
f 11 14 12

