# https://github.com/mikedh/trimesh
v 11.85126022 18.69162628 5.00000009
v 11.85126022 18.69162628 -0.00000009
v 11.85126022 13.89859286 5.00000009
v 12.43610461 18.53452921 5.00000009
v 11.85126022 13.89859286 -0.00000009
v 12.43610461 18.53452921 -0.00000009
v 13.63605490 12.29757723 5.00000009
v 13.36435568 18.17840016 5.00000009
v 13.63605490 12.29757723 -0.00000009
v 13.36435568 18.17840016 -0.00000009
v 18.57203552 12.29757723 5.00000009
v 14.25050339 17.72713643 5.00000009
v 18.57203552 12.29757723 -0.00000009
v 14.25050339 17.72713643 -0.00000009
v 18.53453714 12.43589793 5.00000009
v 15.08402154 17.18511906 5.00000009
v 18.53453714 12.43589793 -0.00000009
v 15.08402154 17.18511906 -0.00000009
v 18.17863062 13.36408672 5.00000009
v 15.85635814 16.55985928 5.00000009
v 18.17863062 13.36408672 -0.00000009
v 15.85635814 16.55985928 -0.00000009
v 17.72667551 14.25034088 5.00000009
v 16.55961862 15.85636380 5.00000009
v 17.72667551 14.25034088 -0.00000009
v 16.55961862 15.85636380 -0.00000009
v 17.18525043 15.08402097 5.00000009
v 17.18525043 15.08402097 -0.00000009
f 1 2 5
f 1 5 3
f 1 3 7
f 1 7 11
f 1 11 15
f 1 15 19
f 1 19 23
f 1 23 27
f 1 27 24
f 1 24 20
f 1 20 16
f 1 16 12
f 1 12 8
f 1 8 4
f 1 4 6
f 1 6 2
f 2 6 10
f 2 10 14
f 2 14 18
f 2 18 22
f 2 22 26
f 2 26 28
f 2 28 25
f 2 25 21
f 2 21 17
f 2 17 13
f 2 13 9
f 2 9 5
f 3 5 9
f 3 9 7
f 4 8 10
f 4 10 6
f 7 9 13
f 7 13 11
f 8 12 14
f 8 14 10
f 11 13 17
f 11 17 15
f 12 16 18
f 12 18 14
f 15 17 21
f 15 21 19
f 16 20 22
f 16 22 18
f 19 21 25
f 19 25 23
f 20 24 26
f 20 26 22
f 23 25 28
f 23 28 27
f 24 27 28
f 24 28 26

