# https://github.com/mikedh/trimesh
v 13.95629597 7.25400513 -0.00000009
v 13.95629597 7.25400513 5.00000009
v 14.49991977 9.50142085 -0.00000009
v 18.71954721 7.25400513 -0.00000009
v 14.49991977 9.50142085 5.00000009
v 18.71954721 7.25400513 5.00000009
v 18.99950624 9.50142085 -0.00000009
v 18.79212952 7.52486560 -0.00000009
v 18.99950624 9.50142085 5.00000009
v 18.79212952 7.52486560 5.00000009
v 19.00000000 9.49988059 -0.00000009
v 18.94766206 8.50687229 -0.00000009
v 19.00000000 9.49988059 5.00000009
v 18.94766206 8.50687229 5.00000009
f 1 2 5
f 1 5 3
f 1 3 7
f 1 7 11
f 1 11 12
f 1 12 8
f 1 8 4
f 1 4 6
f 1 6 2
f 2 6 10
f 2 10 14
f 2 14 13
f 2 13 9
f 2 9 5
f 3 5 9
f 3 9 7
f 4 8 10
f 4 10 6
f 7 9 13
f 7 13 11
f 8 12 14
f 8 14 10
f 11 13 14
f 11 14 12

