# https://github.com/mikedh/trimesh
v 13.63562059 12.29757723 -0.00000009
v 14.49991468 9.50164098 -0.00000009
v 13.63562059 12.29757723 5.00000009
v 18.57196757 12.29757723 -0.00000009
v 14.49991468 9.50164098 5.00000009
v 18.99991393 9.50164098 -0.00000009
v 18.57196757 12.29757723 5.00000009
v 18.79197890 11.47488879 -0.00000009
v 18.99991393 9.50164098 5.00000009
v 18.94793046 10.49319120 -0.00000009
v 18.79197890 11.47488879 5.00000009
v 18.94793046 10.49319120 5.00000009
f 1 2 5
f 1 5 3
f 1 3 7
f 1 7 4
f 1 4 8
f 1 8 10
f 1 10 6
f 1 6 2
f 2 6 9
f 2 9 5
f 3 5 9
f 3 9 12
f 3 12 11
f 3 11 7
f 4 7 11
f 4 11 8
f 6 10 12
f 6 12 9
f 8 11 12
f 8 12 10

