# https://github.com/mikedh/trimesh
v 0.61012012 12.81380898 -0.00000009
v 0.61012012 12.81380898 5.00000009
v 0.82145432 13.36399867 -0.00000009
v 5.76038960 12.81380898 -0.00000009
v 0.82145432 13.36399867 5.00000009
v 5.76038960 12.81380898 5.00000009
v 1.17390108 14.05529073 -0.00000009
v 7.44236964 14.05529073 -0.00000009
v 1.17390108 14.05529073 5.00000009
v 7.44236964 14.05529073 5.00000009
f 1 2 5
f 1 5 3
f 1 3 7
f 1 7 8
f 1 8 4
f 1 4 6
f 1 6 2
f 2 6 10
f 2 10 9
f 2 9 5
f 3 5 9
f 3 9 7
f 4 8 10
f 4 10 6
f 7 9 10
f 7 10 8

