# https://github.com/mikedh/trimesh
v 5.72434901 6.22276473 5.00000009
v 7.42473255 4.95076922 5.00000009
v 5.72434901 6.22276473 -0.00000009
v 5.72434901 0.78776789 5.00000009
v 7.42473255 4.95076922 -0.00000009
v 7.42473255 0.23442054 5.00000009
v 5.72434901 0.78776789 -0.00000009
v 6.56446984 0.46537283 5.00000009
v 7.42473255 0.23442054 -0.00000009
v 6.56446984 0.46537283 -0.00000009
f 1 2 5
f 1 5 3
f 1 3 7
f 1 7 4
f 1 4 8
f 1 8 6
f 1 6 2
f 2 6 9
f 2 9 5
f 3 5 9
f 3 9 10
f 3 10 7
f 4 7 10
f 4 10 8
f 6 8 10
f 6 10 9

