# https://github.com/mikedh/trimesh
v 9.50008748 19.00000000 5.00000009
v 9.50008748 19.00000000 -0.00000009
v 9.49870564 18.99950057 5.00000009
v 10.49315815 18.94756579 5.00000009
v 10.49315815 18.94756579 -0.00000009
v 9.49870564 18.99950057 -0.00000009
v 9.49870564 14.50018308 5.00000009
v 11.47494385 18.79226202 5.00000009
v 11.47494385 18.79226202 -0.00000009
v 9.49870564 14.50018308 -0.00000009
v 11.85126050 13.89894223 5.00000009
v 11.85126050 18.69138959 5.00000009
v 11.85126050 18.69138959 -0.00000009
v 11.85126050 13.89894223 -0.00000009
f 1 2 6
f 1 6 3
f 1 3 7
f 1 7 11
f 1 11 12
f 1 12 8
f 1 8 4
f 1 4 5
f 1 5 2
f 2 5 9
f 2 9 13
f 2 13 14
f 2 14 10
f 2 10 6
f 3 6 10
f 3 10 7
f 4 8 9
f 4 9 5
f 7 10 14
f 7 14 11
f 8 12 13
f 8 13 9
f 11 14 13
f 11 13 12

