# https://github.com/mikedh/trimesh
v 58.10740615 719.16081116 490.53490277
v 112.19036630 719.16081116 490.91106768
v 58.10740615 719.16081116 506.87497977
v 58.10740615 792.95128724 481.94670788
v 63.87308268 797.77628325 473.37530660
v 73.75255260 796.67836569 472.56586062
v 112.19036630 796.67836569 472.56586062
v 112.19036630 719.16081116 506.87497977
v 58.10740615 866.72732409 506.87497977
v 58.10740615 807.05064682 481.94670788
v 63.87308268 802.21122647 473.37530660
v 73.75255260 803.30911423 472.56586062
v 112.19036630 803.30911423 472.56586062
v 112.19036630 866.72732409 506.87497977
v 58.10740615 866.72732409 490.53490277
v 112.19036630 866.72732409 490.91106768
f 1 2 8
f 1 8 3
f 1 3 9
f 1 9 15
f 1 15 10
f 1 10 4
f 1 4 5
f 1 5 6
f 1 6 7
f 1 7 2
f 2 7 13
f 2 13 16
f 2 16 14
f 2 14 8
f 3 8 14
f 3 14 9
f 4 10 11
f 4 11 5
f 5 11 12
f 5 12 6
f 6 12 13
f 6 13 7
f 9 14 16
f 9 16 15
f 10 15 11
f 11 15 12
f 12 15 13
f 13 15 16

