# https://github.com/mikedh/trimesh
v 504.25333023 433.80315570 -6.87497977
v 739.62787144 433.80315570 -6.87497977
v 504.25333023 433.80315570 9.05325894
v 504.25333023 733.46543423 -6.87497977
v 998.65413186 433.85924367 -6.87497977
v 1008.34340336 433.85924367 -3.43072535
v 1011.87128309 433.85924367 6.25945511
v 739.62787144 433.80315570 9.44509988
v 563.13422588 433.80315570 27.34821929
v 504.25333023 596.64845513 27.43050350
v 504.25333023 993.69251963 -6.87104586
v 973.90926346 734.36296098 -6.87497977
v 998.65413186 734.36296098 -6.87497977
v 1008.34340336 993.69251963 -3.43072535
v 1011.87128309 433.85924367 22.39537131
v 1011.87128309 993.69251963 6.25945511
v 720.05059166 433.80315570 27.34821929
v 995.82189794 734.41904895 33.15526144
v 975.44959650 832.81058232 33.15526144
v 504.25333023 965.02775176 27.93204679
v 504.25333023 1003.34096195 -3.43072535
v 973.90926346 1003.39704992 -3.43072535
v 998.65413186 993.69251963 -6.87104586
v 1007.20054389 1002.21908332 -2.28655459
v 870.01055892 433.85924367 27.34821929
v 1011.87128309 734.41904895 33.15526144
v 1008.34340336 1003.39704992 6.25945511
v 1011.87128309 993.69251963 33.15526144
v 973.90926346 990.71949954 33.15526144
v 504.25333023 1006.81889299 27.93204679
v 504.25333023 1006.81889299 6.25945511
v 973.90926346 1006.87498096 6.25945511
v 998.65413186 1003.39704992 -3.43072535
v 998.65413186 1006.87498096 6.25945511
v 1008.34340336 1003.39704992 33.15526144
v 973.90926346 1006.87498096 33.15526144
v 998.65413186 1006.87498096 33.15526144
f 1 2 8
f 1 8 17
f 1 17 9
f 1 9 3
f 1 3 10
f 1 10 20
f 1 20 30
f 1 30 31
f 1 31 21
f 1 21 11
f 1 11 4
f 1 4 12
f 1 12 13
f 1 13 5
f 1 5 2
f 2 5 6
f 2 6 7
f 2 7 15
f 2 15 8
f 3 9 10
f 4 11 12
f 5 13 14
f 5 14 6
f 6 14 16
f 6 16 7
f 7 16 28
f 7 28 26
f 7 26 15
f 8 15 17
f 9 17 26
f 9 26 18
f 9 18 10
f 10 18 19
f 10 19 20
f 11 21 22
f 11 22 33
f 11 33 23
f 11 23 13
f 11 13 12
f 13 23 14
f 14 23 24
f 14 24 16
f 15 25 17
f 15 26 25
f 16 24 27
f 16 27 35
f 16 35 28
f 17 25 26
f 18 26 28
f 18 28 35
f 18 35 37
f 18 37 36
f 18 36 29
f 18 29 19
f 19 29 20
f 20 29 36
f 20 36 30
f 21 31 32
f 21 32 22
f 22 32 34
f 22 34 33
f 23 33 24
f 24 33 34
f 24 34 27
f 27 34 37
f 27 37 35
f 30 36 32
f 30 32 31
f 32 36 37
f 32 37 34

