# https://github.com/mikedh/trimesh
v 981.40264023 31.53642789 249.18982386
v 981.40264023 -6.87498096 249.18982386
v 981.40264023 31.55898824 242.57297065
v 973.96627531 31.55898824 249.18982386
v 871.94669660 -6.87498096 249.18982386
v 981.40264023 -6.87498096 124.44721102
v 981.40264023 31.55898824 241.92131307
v 871.94669660 27.43193282 249.18982386
v 871.94669660 31.55898824 13.48969228
v 871.94669660 -6.87498096 6.27130154
v 981.40264023 10.82587009 124.44721102
v 973.79482254 -6.87498096 6.27130154
v 973.79482254 -3.45146896 -3.37827326
v 973.79482254 6.21348384 -6.83707121
v 973.79482254 18.69249114 -6.86213497
v 973.79482254 31.55523315 -6.86213497
v 973.74123797 31.55898824 -6.86213497
v 871.94669660 31.55898824 -6.86213497
v 871.94669660 -3.43638899 -3.42840077
v 973.74123797 -3.43638899 -3.42840077
v 973.74123797 6.25109437 -6.86213497
v 871.94669660 6.25109437 -6.86213497
v 871.94669660 -2.02936173 -3.92967584
f 1 2 6
f 1 6 11
f 1 11 7
f 1 7 3
f 1 3 4
f 1 4 8
f 1 8 5
f 1 5 2
f 2 5 10
f 2 10 12
f 2 12 6
f 3 7 17
f 3 17 18
f 3 18 9
f 3 9 4
f 4 9 8
f 5 8 9
f 5 9 18
f 5 18 22
f 5 22 23
f 5 23 19
f 5 19 10
f 6 12 13
f 6 13 14
f 6 14 15
f 6 15 16
f 6 16 11
f 7 11 16
f 7 16 17
f 10 19 20
f 10 20 12
f 12 20 13
f 13 20 14
f 14 21 15
f 14 20 21
f 15 21 22
f 15 22 18
f 15 18 17
f 15 17 16
f 19 23 20
f 20 23 21
f 21 23 22

