# https://github.com/mikedh/trimesh
v 11.25416163 -6.87498096 6.26388076
v 32.32371820 -6.87498096 6.26388076
v 11.25082377 -6.87498096 57.52655772
v 1.56629084 -3.42953445 6.26388076
v 2.71451472 -2.28810550 -2.28428961
v 11.25416163 -3.42953445 -3.41877462
v 32.32371820 -6.87498096 57.52655772
v 32.32371820 -3.42953445 -3.41877462
v 11.25082377 -6.87498096 262.65639073
v -1.87164548 6.25860456 6.26388076
v 1.56629084 -3.42953445 262.65639073
v 1.21480225 -2.45017053 57.52655772
v 1.56629084 6.25860456 -3.41877462
v 11.25416163 6.25860456 -6.87497977
v 32.32371820 9.99295478 57.52655772
v 32.19315423 -6.87498096 262.65639073
v 32.32371820 6.25860456 -6.87497977
v -1.87164548 65.10615141 6.26388076
v -1.87498334 6.25860456 57.52655772
v -1.87498334 6.25860456 262.65639073
v 1.56629084 65.10615141 -3.41877462
v 11.25416163 65.10615141 -6.87497977
v 32.19315423 40.00153918 251.60180778
v 32.19315423 19.49789891 262.65639073
v 32.32371820 65.10615141 13.91503102
v 32.32371820 65.10615141 -6.87497977
v -1.87498334 65.10615141 57.52655772
v -1.87498334 65.10615141 262.65639073
v 32.13959945 65.10615141 252.89458038
v 19.00377876 65.10615141 262.65639073
v 21.09265335 65.10615141 261.33723562
f 1 2 7
f 1 7 16
f 1 16 9
f 1 9 3
f 1 3 4
f 1 4 5
f 1 5 6
f 1 6 8
f 1 8 2
f 2 8 17
f 2 17 26
f 2 26 25
f 2 25 15
f 2 15 7
f 3 9 11
f 3 11 4
f 4 10 5
f 4 11 12
f 4 12 10
f 5 13 14
f 5 14 6
f 5 10 13
f 6 14 17
f 6 17 8
f 7 15 24
f 7 24 16
f 9 16 24
f 9 24 30
f 9 30 28
f 9 28 20
f 9 20 11
f 10 18 21
f 10 21 13
f 10 12 19
f 10 19 27
f 10 27 18
f 11 20 12
f 12 20 19
f 13 21 22
f 13 22 14
f 14 22 26
f 14 26 17
f 15 23 24
f 15 25 23
f 18 27 28
f 18 28 30
f 18 30 31
f 18 31 29
f 18 29 25
f 18 25 26
f 18 26 22
f 18 22 21
f 19 20 28
f 19 28 27
f 23 29 24
f 23 25 29
f 24 29 31
f 24 31 30

