# https://github.com/mikedh/trimesh
v 1011.87497858 968.30806359 383.94504849
v 1011.87497858 968.30806359 249.20301139
v 992.36250395 968.30806359 383.94504849
v 1011.87497858 499.38529636 383.94504849
v 974.02811512 968.30806359 249.20301139
v 1011.87497858 499.29494504 249.18982386
v 974.02811512 968.30806359 253.91206147
v 977.59199606 840.09969397 383.94504849
v 995.94492193 499.38529636 383.94504849
v 1011.87497858 45.28012655 381.00354436
v 977.56976353 499.29494504 249.18982386
v 977.09188329 419.24377492 249.18982386
v 976.40279399 206.28598192 249.18982386
v 1011.87497858 45.28012655 249.18982386
v 977.56606804 621.81118189 383.94504849
v 977.56606804 628.49716903 383.94504849
v 976.40279399 206.28598192 256.27318028
v 978.13287841 206.19562128 381.00354436
v 977.59199606 409.84725164 381.00354436
v 994.49268455 45.28012655 381.00354436
v 977.56606804 68.86181030 249.18982386
v 985.74966660 45.28012655 249.18982386
v 978.18103897 198.33507990 381.00354436
v 977.56606804 68.86181030 253.34486367
v 978.38110196 58.83282213 252.22366304
v 985.74966660 45.28012655 256.58975172
v 978.38110196 58.83282213 249.18982386
f 1 2 5
f 1 5 7
f 1 7 3
f 1 3 8
f 1 8 16
f 1 16 15
f 1 15 9
f 1 9 4
f 1 4 10
f 1 10 14
f 1 14 6
f 1 6 2
f 2 6 11
f 2 11 5
f 3 7 8
f 4 9 20
f 4 20 10
f 5 11 12
f 5 12 13
f 5 13 17
f 5 17 7
f 6 14 22
f 6 22 27
f 6 27 21
f 6 21 13
f 6 13 12
f 6 12 11
f 7 15 16
f 7 16 8
f 7 17 18
f 7 18 19
f 7 19 15
f 9 15 20
f 10 20 26
f 10 26 22
f 10 22 14
f 13 21 24
f 13 24 17
f 15 19 18
f 15 18 23
f 15 23 20
f 17 24 23
f 17 23 18
f 20 25 26
f 20 23 25
f 21 27 25
f 21 25 24
f 22 26 25
f 22 25 27
f 23 24 25

