# https://github.com/mikedh/trimesh
v 970.99489434 433.68333546 14.62396867
v 970.99489434 414.70929940 27.96222164
v 970.99489434 433.68333546 -6.87497977
v 870.01520808 433.68333546 27.35245122
v 970.99489434 410.89087682 27.96222164
v 862.93292455 433.68333546 27.35245122
v 563.10086218 433.68333546 27.34880043
v 560.54209438 406.91497878 27.88188948
v 504.20364976 31.56748191 30.42685881
v 750.62154589 31.56748191 30.40860489
v 757.70381452 31.56748191 30.39765253
v 970.99489434 118.40718803 -6.87497977
v 504.20364976 433.68333546 -6.87497977
v 936.22315374 196.70462464 27.43278338
v 946.22973056 197.80686354 26.62219001
v 970.99489434 206.27039531 24.51172364
v 504.20364976 433.68333546 9.05205194
v 504.20364976 403.25401677 27.42913259
v 504.20364976 31.56748191 -6.87497977
v 970.94920738 31.56748191 12.69607133
v 869.14703662 58.96568088 26.56011177
v 869.96949131 68.76760516 27.35245122
v 970.99489434 118.40718803 12.53175622
v 970.94920738 31.56748191 -6.87497977
f 1 2 5
f 1 5 16
f 1 16 23
f 1 23 12
f 1 12 3
f 1 3 13
f 1 13 17
f 1 17 7
f 1 7 6
f 1 6 4
f 1 4 2
f 2 4 6
f 2 6 7
f 2 7 8
f 2 8 9
f 2 9 10
f 2 10 11
f 2 11 5
f 3 12 24
f 3 24 19
f 3 19 13
f 5 14 15
f 5 15 16
f 5 11 14
f 7 17 18
f 7 18 8
f 8 18 9
f 9 18 17
f 9 17 13
f 9 13 19
f 9 19 24
f 9 24 20
f 9 20 11
f 9 11 10
f 11 20 21
f 11 21 22
f 11 22 14
f 12 23 20
f 12 20 24
f 14 22 15
f 15 22 16
f 16 22 20
f 16 20 23
f 20 22 21

