# https://github.com/mikedh/trimesh
v 616.44667679 1006.87498096 249.18981641
v 504.20364230 1006.87498096 249.18981641
v 616.44667679 972.56618964 249.18981641
v 616.44667679 1006.87498096 231.23554131
v 504.20364230 972.07546459 249.18981641
v 504.20364230 1006.87498096 143.62990060
v 511.34518403 972.07546459 249.18981641
v 506.91742689 965.09921773 27.93416275
v 616.44667679 972.56618964 246.67751788
v 616.44667679 1006.03258851 218.73901024
v 611.07404074 1003.54224684 44.37239370
v 610.97515663 1003.59541418 44.37239370
v 598.13137635 1006.24525788 44.37239370
v 586.23247126 1006.86681512 44.37239370
v 585.62818446 1006.87498096 44.37239370
v 504.20364230 972.07546459 243.64543703
v 504.21463191 965.09921773 27.93416275
v 504.21463191 1006.87498096 27.93416275
v 504.20364230 972.56618964 143.62990060
v 509.98279693 968.55461821 27.93416275
v 611.07404074 994.61132524 44.37239370
v 616.44667679 993.78529426 212.58820576
v 616.44667679 1002.59351970 209.29622631
v 524.65041975 1006.87498096 27.93416275
v 524.65041975 988.29344148 27.93416275
v 616.44667679 995.88716267 209.29622631
f 1 2 5
f 1 5 7
f 1 7 3
f 1 3 9
f 1 9 22
f 1 22 26
f 1 26 23
f 1 23 10
f 1 10 4
f 1 4 15
f 1 15 24
f 1 24 18
f 1 18 6
f 1 6 2
f 2 6 19
f 2 19 16
f 2 16 5
f 3 7 8
f 3 8 9
f 4 10 11
f 4 11 12
f 4 12 13
f 4 13 14
f 4 14 15
f 5 16 17
f 5 17 8
f 5 8 7
f 6 18 17
f 6 17 19
f 8 17 18
f 8 18 24
f 8 24 25
f 8 25 20
f 8 20 21
f 8 21 9
f 9 21 22
f 10 23 11
f 11 21 25
f 11 25 24
f 11 24 12
f 11 23 26
f 11 26 21
f 12 24 13
f 13 24 14
f 14 24 15
f 16 19 17
f 20 25 21
f 21 26 22

