# https://github.com/mikedh/trimesh
v 614.56322961 1006.87498096 27.93416275
v 611.24693146 1006.87498096 31.25069931
v 648.27090809 1006.87313322 31.25069931
v 648.27090809 1006.87313322 27.93416275
v 524.63574583 1006.87498096 27.93416275
v 585.64845749 1006.87498096 44.35615143
v 648.27090809 1003.87454273 44.30952570
v 586.25362346 1006.86949733 44.35615143
v 648.27090809 989.79422684 27.93416275
v 524.63574583 988.29764361 27.93416275
v 524.63574583 1006.87498096 44.35615143
v 648.27090809 994.16944620 44.30952570
v 598.13905790 1006.24764207 44.35615143
v 610.98065516 1003.59809639 44.35615143
v 611.07748291 1003.54355814 44.35615143
v 648.27090809 990.26340480 30.97097471
v 598.74422386 990.85802074 43.74846718
v 586.25362346 990.62344666 44.35615143
v 524.67205623 989.11413784 44.35615143
v 643.19962567 989.69421024 27.93416275
v 636.24023202 989.58692188 27.93416275
v 524.63574583 989.08502097 43.74846718
v 524.63574583 990.60344930 44.35615143
v 648.27090809 994.13669345 44.24200854
v 611.07748291 994.61132524 44.35615143
v 598.75632361 991.04169245 44.35615143
v 648.27090809 990.30885334 31.25069931
f 1 2 3
f 1 3 4
f 1 4 9
f 1 9 20
f 1 20 21
f 1 21 10
f 1 10 5
f 1 5 11
f 1 11 6
f 1 6 2
f 2 6 3
f 3 7 12
f 3 12 24
f 3 24 27
f 3 27 16
f 3 16 9
f 3 9 4
f 3 6 8
f 3 8 7
f 5 10 22
f 5 22 23
f 5 23 11
f 6 11 23
f 6 23 19
f 6 19 18
f 6 18 26
f 6 26 25
f 6 25 15
f 6 15 14
f 6 14 13
f 6 13 8
f 7 8 13
f 7 13 14
f 7 14 15
f 7 15 25
f 7 25 12
f 9 16 17
f 9 17 18
f 9 18 19
f 9 19 20
f 10 21 19
f 10 19 22
f 12 25 26
f 12 26 24
f 16 27 17
f 17 26 18
f 17 27 24
f 17 24 26
f 19 23 22
f 19 21 20

