# https://github.com/mikedh/trimesh
v 32.95588507 990.14380808 51.90476681
v 32.95588507 979.63497271 239.13050810
v 32.95588507 1006.87128547 51.90476681
v 252.28673338 972.34744059 51.90476681
v 39.41357152 969.35016141 246.14030121
v 39.36743753 990.88946219 337.21176576
v 32.95588507 1006.87128547 239.13050810
v 39.41357152 969.35016141 253.84828078
v 39.36743753 1006.87498096 271.72186236
v 39.41357152 1006.87498096 239.13050810
v 504.13668394 1006.87128547 51.90476681
v 501.55361233 972.30702864 51.90476681
v 504.13668394 972.30702864 51.90476681
v 504.13668394 972.08297478 243.65475771
v 39.36743753 1006.87498096 337.21176576
v 252.37900137 972.61557208 337.21176576
v 504.13668394 972.08297478 256.33382428
v 504.18281793 972.56782876 337.21176576
v 501.59973143 972.56782876 337.21176576
v 504.13668394 1006.87498096 239.13050810
v 504.18281793 1006.87498096 271.72186236
v 504.18281793 972.56782876 271.72186236
v 504.18281793 1006.87498096 337.21176576
f 1 2 7
f 1 7 3
f 1 3 11
f 1 11 13
f 1 13 12
f 1 12 4
f 1 4 5
f 1 5 2
f 2 6 15
f 2 15 7
f 2 5 8
f 2 8 6
f 3 7 15
f 3 15 9
f 3 9 10
f 3 10 20
f 3 20 11
f 4 12 5
f 5 12 13
f 5 13 14
f 5 14 17
f 5 17 8
f 6 8 16
f 6 16 19
f 6 19 18
f 6 18 23
f 6 23 15
f 8 17 18
f 8 18 19
f 8 19 16
f 9 15 23
f 9 23 21
f 9 21 20
f 9 20 10
f 11 20 21
f 11 21 22
f 11 22 13
f 13 22 14
f 14 22 18
f 14 18 17
f 18 22 21
f 18 21 23

