# https://github.com/mikedh/trimesh
v 973.05173143 968.30806359 506.87497977
v 973.05173143 866.46843131 506.87497977
v 973.05173143 968.30806359 487.29920500
v 786.02400795 968.30806359 506.87497977
v 973.05173143 866.46843131 487.11826020
v 786.02400795 866.46843131 506.87497977
v 870.04459317 931.24100772 472.64251219
v 869.20234973 941.05112763 473.42996406
v 861.25618628 968.30806359 486.25709229
v 786.02400795 968.30806359 487.32936495
v 870.04459317 866.46843131 472.64251219
v 786.02400795 866.46843131 492.65053984
v 863.05049471 931.24100772 472.64251219
v 864.53351788 941.05112763 473.42996406
v 786.02400795 866.50830682 490.95165844
v 863.05049471 866.46843131 472.64251219
v 786.26203910 866.46843131 490.95165844
f 1 2 5
f 1 5 3
f 1 3 9
f 1 9 10
f 1 10 4
f 1 4 6
f 1 6 2
f 2 6 12
f 2 12 17
f 2 17 16
f 2 16 11
f 2 11 5
f 3 5 7
f 3 7 8
f 3 8 9
f 4 10 15
f 4 15 12
f 4 12 6
f 5 11 7
f 7 11 16
f 7 16 13
f 7 13 14
f 7 14 8
f 8 14 9
f 9 14 10
f 10 14 13
f 10 13 16
f 10 16 15
f 12 15 17
f 15 16 17

