# https://github.com/mikedh/trimesh
v 1011.87021020 89.96158643 476.53126825
v 1011.87021020 89.96158643 381.00850645
v 994.14042110 89.96158643 476.53126825
v 1011.87021020 6.25329974 476.53126825
v 995.94966050 89.96158643 381.00850645
v 1011.87021020 6.25329974 381.00850645
v 963.11086873 9.05906920 381.00850645
v 963.11086873 10.86005335 476.53126825
v 1009.73153593 0.21522999 476.53126825
v 1008.43310835 -3.43412401 381.00850645
v 963.11086873 -6.86550382 381.00850645
v 963.11086873 -6.86550382 476.53126825
v 1008.43310835 -3.43412401 476.53126825
v 1008.24690343 -3.50052358 381.00850645
v 998.74708530 -6.86550382 381.00850645
v 998.74708530 -6.86550382 476.53126825
f 1 2 5
f 1 5 3
f 1 3 8
f 1 8 12
f 1 12 16
f 1 16 13
f 1 13 9
f 1 9 4
f 1 4 6
f 1 6 2
f 2 6 10
f 2 10 14
f 2 14 15
f 2 15 11
f 2 11 7
f 2 7 5
f 3 5 7
f 3 7 8
f 4 9 6
f 6 9 10
f 7 11 12
f 7 12 8
f 9 13 10
f 10 13 14
f 11 15 16
f 11 16 12
f 13 16 14
f 14 16 15

