# https://github.com/mikedh/trimesh
v 32.95585526 961.07799035 -6.87497977
v 32.95585526 961.07799035 12.48043662
v 32.95585526 993.74914405 -6.87497977
v 504.20364976 961.07799035 -6.87497977
v 257.37054766 961.07799035 23.39519452
v 252.29641913 972.34791742 51.90473700
v 32.95585526 990.14044042 51.90473700
v 32.95585526 1003.43662740 -3.43427183
v 504.20364976 993.74914405 -6.87497977
v 504.20364976 961.07799035 23.02120518
v 504.15753066 972.30756508 51.90473700
v 501.57433985 972.30756508 51.90473700
v 32.95585526 1006.87498096 51.90473700
v 32.95585526 1006.87051061 6.25494006
v 504.20364976 1003.43662740 -3.43427183
v 504.20364976 962.01938611 25.34569693
v 504.15753066 1006.87498096 51.90473700
v 504.20364976 962.73216826 26.15696085
v 504.20364976 968.45230684 30.42045131
v 32.95585526 1006.87498096 30.42620316
v 504.20364976 1006.87051061 6.25494006
v 504.20364976 1006.87051061 30.42045131
v 504.15753066 1006.87498096 30.43195501
v 481.37009371 1006.87498096 30.42620316
f 1 2 7
f 1 7 13
f 1 13 20
f 1 20 14
f 1 14 8
f 1 8 3
f 1 3 9
f 1 9 4
f 1 4 10
f 1 10 5
f 1 5 2
f 2 5 6
f 2 6 7
f 3 8 15
f 3 15 9
f 4 9 15
f 4 15 21
f 4 21 22
f 4 22 19
f 4 19 18
f 4 18 16
f 4 16 10
f 5 10 11
f 5 11 12
f 5 12 6
f 6 12 11
f 6 11 17
f 6 17 13
f 6 13 7
f 8 14 21
f 8 21 15
f 10 16 11
f 11 16 18
f 11 18 19
f 11 19 22
f 11 22 17
f 13 17 23
f 13 23 24
f 13 24 20
f 14 20 24
f 14 24 21
f 17 22 21
f 17 21 23
f 21 24 23

