# https://github.com/mikedh/trimesh
v 504.20364230 972.56687509 378.19589736
v 504.20364230 968.31602081 469.65478465
v 504.20364230 1006.87498096 378.19589736
v 508.32937525 972.56687509 378.19589736
v 504.21592086 954.74177816 486.52564102
v 504.20364230 968.31602081 476.49432827
v 504.20364230 1006.87498096 476.49432827
v 629.64550704 1006.87498096 378.19589736
v 629.64550704 990.94823237 378.19589736
v 510.93251499 954.74177816 486.52564102
v 504.21592086 968.31089482 486.52564102
v 629.64550704 1006.87498096 476.49432827
v 629.64550704 989.15705318 476.49432827
v 520.12945585 957.19126085 486.52564102
v 531.97865067 968.31089482 486.52564102
v 531.43837926 966.08594282 486.52564102
v 531.29102913 965.49910529 486.52564102
f 1 2 6
f 1 6 7
f 1 7 3
f 1 3 8
f 1 8 9
f 1 9 4
f 1 4 10
f 1 10 5
f 1 5 2
f 2 5 6
f 3 7 12
f 3 12 8
f 4 9 10
f 5 11 7
f 5 7 6
f 5 10 14
f 5 14 17
f 5 17 16
f 5 16 15
f 5 15 11
f 7 11 15
f 7 15 12
f 8 12 13
f 8 13 9
f 9 13 14
f 9 14 10
f 12 15 13
f 13 15 16
f 13 16 17
f 13 17 14

