# https://github.com/mikedh/trimesh
v 215.46086769 494.09708378 9.04850547
v 446.89102682 494.04980239 27.34847261
v 504.10461664 494.04980239 9.05215625
v 215.46086769 494.09708378 -6.87497977
v 146.95316621 494.09708378 27.35212339
v 504.15414810 31.65685907 30.41854396
v 504.10461664 403.23528601 27.43244065
v 14.89132647 494.09708378 28.07126833
v 504.15414810 65.12731106 9.07406096
v 504.10461664 494.04980239 -6.87497977
v 11.32476333 494.09708378 -6.87497977
v 501.47921084 31.65685907 30.41854396
v 32.37742199 11.13968854 23.88049554
v 236.16671672 11.13968854 23.71257436
v 504.15414810 31.65685907 -6.87497977
v -1.85167793 494.09708378 28.07126833
v 504.15414810 65.12731106 -6.87497977
v 11.32476333 65.17457755 -6.87497977
v 11.02757457 494.09708378 -6.77642349
v 252.26578234 31.65685907 30.40759161
v -1.85167793 65.17457755 28.07126833
v 32.37742199 11.13968854 -6.87134388
v 236.16671672 11.13968854 -6.87134388
v 236.21624818 31.65685907 -6.87497977
v -1.85167793 494.09708378 6.25222805
v 1.61582230 65.17457755 -3.43254329
v 1.61582230 494.09708378 -3.43254329
v -1.85167793 65.17457755 6.25222805
f 1 2 3
f 1 3 10
f 1 10 4
f 1 4 11
f 1 11 19
f 1 19 27
f 1 27 25
f 1 25 16
f 1 16 8
f 1 8 5
f 1 5 2
f 2 6 7
f 2 7 3
f 2 5 8
f 2 8 6
f 3 6 9
f 3 9 17
f 3 17 10
f 3 7 6
f 4 10 17
f 4 17 15
f 4 15 24
f 4 24 18
f 4 18 11
f 6 8 16
f 6 16 12
f 6 12 13
f 6 13 14
f 6 14 23
f 6 23 15
f 6 15 17
f 6 17 9
f 11 18 19
f 12 20 13
f 12 16 20
f 13 20 21
f 13 21 28
f 13 28 22
f 13 22 23
f 13 23 14
f 15 23 22
f 15 22 24
f 16 25 28
f 16 28 21
f 16 21 20
f 18 22 26
f 18 26 19
f 18 24 22
f 19 26 27
f 22 28 26
f 25 27 26
f 25 26 28

