# https://github.com/mikedh/trimesh
v 648.31489631 989.78796835 27.93414785
v 663.80828933 994.05667421 194.23001978
v 661.06666937 995.11057375 194.23001978
v 648.31489631 990.25774236 30.98490730
v 648.31489631 1006.87086824 27.93414785
v 752.59244798 965.14398081 27.93414785
v 750.61592815 972.61929737 226.44765664
v 673.78655395 990.24141069 194.23001978
v 648.31489631 994.16285989 44.31500933
v 648.31489631 994.13427946 44.25671599
v 648.31489631 990.30268426 31.25695780
v 746.75852414 974.80470168 226.44765664
v 744.36757321 976.21804703 226.44765664
v 728.65102040 989.23653597 226.44765664
v 661.06666937 1003.22312357 194.23001978
v 648.31489631 1006.87086824 31.25695780
v 673.78655395 1006.87498096 193.72479591
v 686.28327873 1006.87498096 143.63005707
v 973.99497494 1006.87086824 27.93414785
v 756.54548765 965.14398081 27.93414785
v 757.88444640 972.61929737 226.44765664
v 648.31489631 1003.86852266 44.31500933
v 728.65102040 1006.57677892 226.44765664
v 728.65102040 1006.87498096 226.38935584
v 673.30836078 1006.82598594 194.23001978
v 673.78655395 1006.87498096 194.23001978
v 973.99497494 1006.87498096 143.63005707
v 973.99497494 990.06167288 27.93414785
v 973.99497494 989.66133828 226.44765664
v 736.27019277 1006.87498096 226.44765664
v 973.99497494 1006.87498096 226.44765664
f 1 2 3
f 1 3 4
f 1 4 11
f 1 11 10
f 1 10 9
f 1 9 22
f 1 22 16
f 1 16 5
f 1 5 19
f 1 19 28
f 1 28 20
f 1 20 6
f 1 6 7
f 1 7 8
f 1 8 2
f 2 8 7
f 2 7 3
f 3 9 10
f 3 10 11
f 3 11 4
f 3 7 12
f 3 12 13
f 3 13 14
f 3 14 23
f 3 23 15
f 3 15 22
f 3 22 9
f 5 16 26
f 5 26 17
f 5 17 18
f 5 18 27
f 5 27 19
f 6 20 21
f 6 21 7
f 7 21 29
f 7 29 31
f 7 31 30
f 7 30 23
f 7 23 14
f 7 14 13
f 7 13 12
f 15 16 22
f 15 23 24
f 15 24 25
f 15 25 16
f 16 25 26
f 17 26 24
f 17 24 30
f 17 30 31
f 17 31 27
f 17 27 18
f 19 27 31
f 19 31 29
f 19 29 28
f 20 28 29
f 20 29 21
f 23 30 24
f 24 26 25

