# https://github.com/mikedh/trimesh
v 504.20590286 248.00068020 506.87497977
v 963.10610036 242.98599240 506.87497977
v 504.20590286 248.00068020 490.94975110
v 46.74088975 248.00068020 506.87497977
v 963.10610036 46.11599229 506.87497977
v 963.10610036 242.98599240 488.86267955
v 446.97792666 248.00068020 472.64908360
v 46.74088975 248.00068020 488.82663364
v 46.74088975 6.27296928 506.87497977
v 963.10610036 6.27296928 506.86416152
v 504.20590286 6.27296928 506.87497977
v 963.10610036 206.81041339 479.86553719
v 946.15298958 202.14500881 473.38442611
v 869.90881379 242.98599240 472.64908360
v 449.48949877 206.96011046 472.11560713
v 140.02785151 248.00068020 472.64908360
v 860.40074041 206.96011046 472.11921321
v 46.74088975 206.78546885 479.78985419
v 63.78370551 202.19492770 473.37722885
v 46.74088975 -3.40712311 503.43257310
v 504.20590286 -3.40712311 503.43617918
v 963.10610036 -3.40712311 503.43617918
v 963.10610036 9.44146280 470.05015717
v 936.19639125 203.29266645 472.57340061
v 873.67618498 206.28648856 472.11921321
v 149.53595469 206.96011046 472.11560713
v 757.33656050 32.19464198 470.05015717
v 508.15266005 32.21958653 470.05015717
v 136.26051012 206.31146291 472.11560713
v 73.91968402 203.29266645 472.56618844
v 46.74088975 9.86557965 471.98943900
v 46.74088975 -6.87498096 493.74334630
v 963.10610036 -6.87498096 493.74334630
v 963.10610036 -6.87498096 470.05015717
v 504.29560191 32.21958653 470.05015717
v 504.20590286 32.09483400 470.05015717
v 46.74088975 -6.87498096 471.98943900
v 504.20590286 -6.87498096 470.05015717
f 1 2 6
f 1 6 3
f 1 3 7
f 1 7 16
f 1 16 8
f 1 8 4
f 1 4 9
f 1 9 11
f 1 11 5
f 1 5 2
f 2 5 10
f 2 10 22
f 2 22 33
f 2 33 34
f 2 34 23
f 2 23 12
f 2 12 6
f 3 6 7
f 4 8 18
f 4 18 31
f 4 31 37
f 4 37 32
f 4 32 20
f 4 20 9
f 5 11 10
f 6 12 13
f 6 13 14
f 6 14 7
f 7 15 26
f 7 26 16
f 7 14 17
f 7 17 15
f 8 16 19
f 8 19 18
f 9 20 21
f 9 21 22
f 9 22 11
f 10 11 22
f 12 23 13
f 13 24 14
f 13 23 24
f 14 24 25
f 14 25 17
f 15 17 27
f 15 27 28
f 15 28 35
f 15 35 26
f 16 26 29
f 16 29 30
f 16 30 19
f 17 25 27
f 18 19 31
f 19 30 31
f 20 32 21
f 21 32 33
f 21 33 22
f 23 34 38
f 23 38 36
f 23 36 35
f 23 35 28
f 23 28 27
f 23 27 25
f 23 25 24
f 26 35 29
f 29 31 30
f 29 35 36
f 29 36 31
f 31 36 38
f 31 38 37
f 32 37 38
f 32 38 34
f 32 34 33

