# https://github.com/mikedh/trimesh
v 963.11086873 -6.77007678 476.54265273
v 998.74359843 -6.77007678 476.54265273
v 963.11086873 -6.77007678 493.74641594
v 963.11086873 10.88922983 476.54265273
v 975.36871300 621.23180984 467.45453879
v 973.87946114 409.79782449 468.83994445
v 975.26371942 206.38209441 468.83994445
v 975.80308185 198.07749843 468.83994445
v 995.85098501 90.11727376 468.83994445
v 996.22807379 90.02184672 468.83994445
v 1011.87021020 90.02184672 468.83994445
v 1008.42863800 -3.33369018 476.54265273
v 998.74359843 -6.77007678 493.74641594
v 963.11086873 -3.33369018 503.43269231
v 963.11086873 409.03418468 479.35977688
v 975.44032798 840.68405791 467.45453879
v 975.36871300 629.05916633 467.45453879
v 995.87962504 499.23965148 467.45453879
v 1011.87021020 6.30736116 476.54265273
v 1009.72700598 0.29361010 476.54265273
v 1011.87497858 499.23965148 467.45453879
v 1008.42863800 -3.33369018 493.74641594
v 998.74359843 -3.33369018 503.43269231
v 1007.28303672 -2.18820811 502.28655459
v 963.11086873 6.30736116 506.87113527
v 963.11086873 499.23965148 488.85695750
v 973.05366859 968.21260676 487.29403430
v 973.05366859 830.85215249 475.60876715
v 992.34259599 968.21260676 467.45453879
v 1011.87021020 6.30736116 493.74641594
v 1011.87497858 968.21260676 467.45453879
v 1011.87497858 499.23965148 493.74641594
v 998.74359843 6.30736116 506.87113527
v 1008.42863800 6.30736116 503.43269231
v 963.11086873 499.23965148 506.87113527
v 973.05366859 968.21260676 506.87113527
v 1011.87497858 968.21260676 493.74641594
v 1008.43340637 499.23965148 503.43269231
v 998.74839661 499.23965148 506.87113527
v 998.74839661 968.21260676 506.87113527
v 1008.43340637 968.21260676 503.43269231
f 1 2 13
f 1 13 3
f 1 3 14
f 1 14 25
f 1 25 35
f 1 35 26
f 1 26 15
f 1 15 4
f 1 4 17
f 1 17 5
f 1 5 6
f 1 6 7
f 1 7 8
f 1 8 9
f 1 9 10
f 1 10 11
f 1 11 2
f 2 11 12
f 2 12 22
f 2 22 13
f 3 13 23
f 3 23 14
f 4 15 16
f 4 16 17
f 5 17 16
f 5 16 29
f 5 29 31
f 5 31 21
f 5 21 18
f 5 18 8
f 5 8 7
f 5 7 6
f 8 18 9
f 9 18 10
f 10 18 21
f 10 21 11
f 11 19 20
f 11 20 12
f 11 21 19
f 12 20 22
f 13 22 24
f 13 24 23
f 14 23 33
f 14 33 25
f 15 26 27
f 15 27 28
f 15 28 16
f 16 28 27
f 16 27 29
f 19 21 32
f 19 32 30
f 19 30 20
f 20 30 22
f 21 31 37
f 21 37 32
f 22 30 24
f 23 24 33
f 24 30 34
f 24 34 33
f 25 33 39
f 25 39 40
f 25 40 36
f 25 36 35
f 26 35 36
f 26 36 27
f 27 36 40
f 27 40 41
f 27 41 37
f 27 37 31
f 27 31 29
f 30 32 38
f 30 38 34
f 32 37 41
f 32 41 38
f 33 34 38
f 33 38 39
f 38 41 40
f 38 40 39

