# https://github.com/mikedh/trimesh
v 14.73093037 494.09707633 223.31890451
v -1.87498334 494.09707633 223.31890451
v 32.41363181 416.71951075 223.31890451
v 38.86616246 414.84132368 28.09648110
v 14.83064895 494.09707633 28.09648110
v -1.87498334 494.09707633 28.09648110
v -1.87498334 306.37577084 223.31890451
v 32.41363181 409.65673284 223.31890451
v 38.86616246 410.88929730 28.09648110
v -1.87498334 294.22622821 28.09648110
v -1.87498334 294.22622821 68.78055546
v 1.70224903 294.22622821 82.31007973
v 1.81788205 294.22622821 82.55849699
v 14.73093037 306.37577084 223.31890451
v 14.57938556 294.22622821 68.78055546
v 14.83064895 294.22622821 28.09648110
v 9.83768704 294.22622821 82.55849699
v 9.94935634 294.22622821 82.40562597
v 10.00520589 294.22622821 82.31007973
f 1 2 7
f 1 7 14
f 1 14 8
f 1 8 3
f 1 3 4
f 1 4 5
f 1 5 6
f 1 6 2
f 2 6 10
f 2 10 11
f 2 11 7
f 3 8 9
f 3 9 4
f 4 9 16
f 4 16 10
f 4 10 6
f 4 6 5
f 7 11 12
f 7 12 13
f 7 13 17
f 7 17 14
f 8 14 9
f 9 14 15
f 9 15 16
f 10 16 15
f 10 15 19
f 10 19 18
f 10 18 17
f 10 17 13
f 10 13 12
f 10 12 11
f 14 17 18
f 14 18 19
f 14 19 15

