# https://github.com/mikedh/trimesh
v 629.65902984 990.95392461 378.18628611
v 629.65902984 990.87539549 468.73068914
v 629.65902984 1006.87498096 378.18628611
v 750.65708516 972.60990964 378.18628611
v 750.65708516 968.67639050 468.73068914
v 629.65902984 1006.87498096 468.73068914
v 767.85168415 1006.87498096 378.18628611
v 757.62421252 972.60990964 378.18628611
v 757.74595500 968.67639050 468.73068914
v 767.85168415 1006.87498096 468.73068914
v 767.85168415 988.94229764 378.18628611
v 758.08418156 969.27091703 468.73068914
v 767.85168415 988.88993496 468.73068914
f 1 2 6
f 1 6 3
f 1 3 7
f 1 7 11
f 1 11 8
f 1 8 4
f 1 4 5
f 1 5 2
f 2 5 9
f 2 9 12
f 2 12 13
f 2 13 10
f 2 10 6
f 3 6 10
f 3 10 7
f 4 8 9
f 4 9 5
f 7 10 13
f 7 13 11
f 8 11 9
f 9 11 12
f 11 13 12

