# https://github.com/mikedh/trimesh
v 504.19013440 961.07796054 23.02677821
v 445.42829902 941.05667086 26.56584872
v 446.95037814 931.22884837 27.35192968
v 504.19013440 803.28449752 27.43360294
v 504.19013440 961.07796054 -6.87497977
v 257.28894890 961.07796054 23.40111028
v 440.76977878 941.05667086 26.56584872
v 449.44107744 806.98707846 27.88619591
v 439.93954568 931.22884837 27.35192968
v 504.19013440 596.71768592 27.43360294
v 504.19013440 494.09708378 -6.87497977
v 33.03462280 961.07796054 -6.87497977
v 33.03462280 961.07796054 12.47082537
v 140.82613652 941.05667086 26.55905379
v 290.77489810 941.05667086 26.56245125
v 299.40006277 806.98707846 27.88279845
v 436.15739253 806.30141643 27.88619591
v 449.44107744 593.01511988 27.88619591
v 139.94979923 931.22884837 27.34513475
v 504.19013440 494.09708378 9.05084495
v 446.95037814 494.09708378 27.35192968
v 33.03462280 494.09708378 -6.87497977
v 33.03462280 957.37537960 13.97833116
v 149.49742028 806.98707846 27.87598862
v 136.21372047 806.30141643 27.87598862
v 286.16251185 806.30141643 27.88279845
v 436.15739253 593.70078191 27.88619591
v 299.40006277 593.01511988 27.88279845
v 439.93954568 494.09708378 27.35192968
v 63.93760471 802.18744422 26.61690009
v 73.80813393 803.28449752 27.43020548
v 33.03462280 494.09708378 13.61080891
v 33.03462280 812.56377846 16.07794948
v 73.80813393 603.34574480 27.43360294
v 136.21372047 593.70078191 27.87598862
v 286.16251185 593.70078191 27.88279845
v 149.49742028 593.01511988 27.87598862
v 139.94979923 494.09708378 27.34513475
v 63.93760471 602.24868406 26.62029756
v 63.93760471 597.81473922 26.62029756
v 33.03462280 594.15788993 14.60447795
v 73.80813393 596.71768592 27.43360294
f 1 2 3
f 1 3 4
f 1 4 10
f 1 10 20
f 1 20 11
f 1 11 5
f 1 5 12
f 1 12 13
f 1 13 6
f 1 6 2
f 2 7 9
f 2 9 3
f 2 6 7
f 3 8 4
f 3 9 8
f 4 8 18
f 4 18 10
f 5 11 22
f 5 22 12
f 6 13 14
f 6 14 15
f 6 15 7
f 7 15 19
f 7 19 9
f 8 9 16
f 8 16 17
f 8 17 27
f 8 27 18
f 9 19 16
f 10 18 21
f 10 21 20
f 11 20 21
f 11 21 29
f 11 29 38
f 11 38 32
f 11 32 22
f 12 22 32
f 12 32 41
f 12 41 33
f 12 33 23
f 12 23 13
f 13 23 14
f 14 19 15
f 14 23 19
f 16 19 24
f 16 24 25
f 16 25 26
f 16 26 17
f 17 26 36
f 17 36 27
f 18 27 28
f 18 28 29
f 18 29 21
f 19 23 30
f 19 30 31
f 19 31 25
f 19 25 24
f 23 33 30
f 25 31 34
f 25 34 42
f 25 42 35
f 25 35 36
f 25 36 26
f 27 36 28
f 28 36 35
f 28 35 37
f 28 37 38
f 28 38 29
f 30 39 34
f 30 34 31
f 30 33 39
f 32 38 40
f 32 40 41
f 33 41 40
f 33 40 39
f 34 39 40
f 34 40 42
f 35 42 38
f 35 38 37
f 38 42 40

