# https://github.com/mikedh/trimesh
v 661.07037976 995.11566994 194.24469370
v 661.07037976 1003.22801115 194.24469370
v 663.79280702 994.06060812 194.24469370
v 616.45765149 995.89097736 209.31224878
v 661.16917446 1003.26431038 194.24469370
v 616.45765149 1002.59775163 209.31224878
v 673.74943516 990.24617906 194.24469370
v 616.45765149 993.78949639 212.61576173
v 673.24447950 1006.83009866 194.24469370
v 616.45765149 1006.03574756 218.74995887
v 619.90459557 989.26535482 226.44765291
v 616.45765149 989.32406540 226.44765291
v 616.45765149 989.77822299 223.37109769
v 616.45765149 990.94552036 218.74995887
v 728.58226644 989.86628885 194.24469370
v 673.74943516 1006.87498096 194.24469370
v 616.45765149 1006.34658578 226.44765291
v 728.58226644 989.23599953 226.44765291
v 728.58226644 1006.87498096 194.24469370
v 641.05832880 1006.75237420 226.44765291
v 653.56174421 1006.87498096 226.44765291
v 728.58226644 1006.58661369 226.44765291
v 728.58226644 1006.87498096 226.40667472
v 728.54931998 1006.87498096 226.44765291
f 1 2 5
f 1 5 9
f 1 9 16
f 1 16 19
f 1 19 15
f 1 15 7
f 1 7 3
f 1 3 4
f 1 4 6
f 1 6 2
f 2 6 5
f 3 7 4
f 4 8 14
f 4 14 13
f 4 13 12
f 4 12 17
f 4 17 10
f 4 10 6
f 4 7 8
f 5 6 9
f 6 10 9
f 7 11 12
f 7 12 13
f 7 13 14
f 7 14 8
f 7 15 11
f 9 10 16
f 10 17 16
f 11 15 18
f 11 18 22
f 11 22 24
f 11 24 21
f 11 21 20
f 11 20 17
f 11 17 12
f 15 19 23
f 15 23 22
f 15 22 18
f 16 17 20
f 16 20 21
f 16 21 24
f 16 24 23
f 16 23 19
f 22 23 24

