# https://github.com/mikedh/trimesh
v 460.88691273 -3.71873619 393.81489226
v 460.88691273 5.64530256 393.81489226
v 460.88691273 -6.33341315 406.23390749
v 312.04271463 -6.87498096 418.75240287
v 312.04271463 -3.99852039 405.51462844
v 312.04271463 -3.98218872 405.46107366
v 460.88691273 9.36931138 406.60119131
v 312.04271463 5.90544703 405.46107366
v 460.88691273 -6.87498096 418.75240287
v 312.04271463 -6.87498096 471.97897838
v 423.74143949 9.76526503 418.75240287
v 436.24469844 9.67693095 418.75240287
v 448.74796483 9.58201055 418.75240287
v 460.88691273 9.84054570 471.97897838
v 312.04271463 9.58692794 418.75240287
v 336.26231709 9.75873833 418.75240287
v 348.75101015 9.76526503 418.75240287
v 460.88691273 -6.87498096 471.97897838
v 312.04271463 9.84054570 471.97897838
f 1 2 7
f 1 7 14
f 1 14 18
f 1 18 9
f 1 9 3
f 1 3 4
f 1 4 5
f 1 5 6
f 1 6 8
f 1 8 2
f 2 8 7
f 3 9 4
f 4 10 19
f 4 19 15
f 4 15 8
f 4 8 6
f 4 6 5
f 4 9 18
f 4 18 10
f 7 11 12
f 7 12 13
f 7 13 14
f 7 8 15
f 7 15 16
f 7 16 17
f 7 17 11
f 10 18 14
f 10 14 19
f 11 14 12
f 11 17 19
f 11 19 14
f 12 14 13
f 15 19 16
f 16 19 17

