# https://github.com/mikedh/trimesh
v 115.17313175 951.99567295 506.87497977
v 115.17313175 866.75006326 506.87497977
v 115.17313175 951.99567295 489.73459120
v 11.25642660 951.99567295 506.87497977
v 115.17313175 866.75006326 490.78515287
v 11.25642660 866.75006326 506.87497977
v 14.23561577 866.75006326 468.40700611
v 15.19811158 951.99567295 468.40700611
v 1.56259535 951.99567295 503.43710305
v 1.56259535 866.75006326 503.43710305
v -1.87498334 866.75006326 468.40700611
v -1.87498334 951.99567295 468.40700611
v -1.87498334 951.99567295 493.74857661
v -1.87498334 866.75006326 493.74857661
f 1 2 5
f 1 5 3
f 1 3 8
f 1 8 12
f 1 12 13
f 1 13 9
f 1 9 4
f 1 4 6
f 1 6 2
f 2 6 10
f 2 10 14
f 2 14 11
f 2 11 7
f 2 7 5
f 3 5 7
f 3 7 8
f 4 9 10
f 4 10 6
f 7 11 12
f 7 12 8
f 9 13 14
f 9 14 10
f 11 14 13
f 11 13 12

