# https://github.com/mikedh/trimesh
v 223.56802329 990.95604058 388.55186171
v 223.56802329 1006.87498096 388.55186171
v 243.44065899 988.63315815 388.55186171
v 243.44065899 988.62064118 393.75776121
v 223.56802329 990.88278647 468.22722360
v 223.56802329 1006.87498096 468.40700611
v 273.76000711 1006.87498096 388.55186171
v 263.68251566 988.62064118 388.55186171
v 243.33205933 988.62064118 468.26630935
v 223.56802329 990.88278647 468.40700611
v 327.51386021 1006.87498096 468.40700611
v 286.24826804 1006.87498096 393.75776121
v 445.44655295 1006.87319282 418.75548741
v 286.24826804 1006.81603197 388.55186171
v 278.32093965 988.62064118 388.55186171
v 243.33205933 988.62064118 468.40700611
v 445.44655295 1006.87319282 468.40700611
v 327.51386021 1006.87498096 418.75548741
v 445.44655295 1004.51815369 408.89084415
v 298.15013846 1003.71587517 388.55186171
v 445.44655295 1003.67117168 406.32698014
v 278.01688146 988.62064118 468.40700611
v 286.24826804 990.30205841 388.55186171
v 445.44655295 994.47790024 406.32698014
v 445.44655295 990.39319391 418.75548741
v 445.44655295 990.88099833 468.40700611
v 298.15013846 994.44574353 388.55186171
v 294.21904821 992.54989859 388.55186171
f 1 2 7
f 1 7 14
f 1 14 20
f 1 20 27
f 1 27 28
f 1 28 23
f 1 23 15
f 1 15 8
f 1 8 3
f 1 3 4
f 1 4 5
f 1 5 10
f 1 10 6
f 1 6 2
f 2 6 11
f 2 11 18
f 2 18 12
f 2 12 7
f 3 8 4
f 4 8 15
f 4 15 22
f 4 22 16
f 4 16 9
f 4 9 5
f 5 9 16
f 5 16 10
f 6 10 16
f 6 16 22
f 6 22 26
f 6 26 17
f 6 17 11
f 7 12 13
f 7 13 14
f 11 17 13
f 11 13 18
f 12 18 13
f 13 17 26
f 13 26 25
f 13 25 24
f 13 24 21
f 13 21 19
f 13 19 14
f 14 19 21
f 14 21 20
f 15 23 24
f 15 24 25
f 15 25 22
f 20 21 24
f 20 24 27
f 22 25 26
f 23 28 24
f 24 28 27

