# https://github.com/mikedh/trimesh
v 996.06869097 499.38659928 468.83440122
v 1011.87497858 968.22208389 467.42464706
v 995.85664745 499.38659928 468.83440122
v 1011.87497858 499.30062145 468.83440122
v 1011.87497858 968.22208389 383.95693962
v 992.34867567 968.22208389 467.42464706
v 973.87141451 416.41828378 468.83440122
v 1011.87497858 90.04759593 468.83440122
v 992.35982174 968.22208389 383.95693962
v 1011.87497858 499.38659928 381.01708951
v 975.44125185 840.63142700 467.42464706
v 977.58397924 416.76218768 381.01708951
v 973.87141451 409.88399045 468.83440122
v 977.58770453 840.11554880 383.95693962
v 995.85292216 90.04759593 468.83440122
v 1011.87497858 90.04759593 381.01708951
v 995.94590540 499.38659928 381.01708951
v 977.58397924 409.79801075 381.01708951
v 978.12709676 206.28917077 381.01708951
v 975.26270614 206.28917077 468.83440122
v 995.94963069 90.04759593 381.01708951
v 975.79837308 198.03535794 468.83440122
v 978.18288671 198.29326724 381.01708951
f 1 2 6
f 1 6 3
f 1 3 7
f 1 7 13
f 1 13 20
f 1 20 22
f 1 22 15
f 1 15 8
f 1 8 4
f 1 4 2
f 2 5 9
f 2 9 6
f 2 4 8
f 2 8 16
f 2 16 10
f 2 10 5
f 3 6 7
f 5 10 17
f 5 17 9
f 6 9 11
f 6 11 7
f 7 12 18
f 7 18 13
f 7 11 14
f 7 14 12
f 8 15 21
f 8 21 16
f 9 17 12
f 9 12 14
f 9 14 11
f 10 16 21
f 10 21 23
f 10 23 19
f 10 19 18
f 10 18 12
f 10 12 17
f 13 18 19
f 13 19 20
f 15 22 21
f 19 23 20
f 20 23 22
f 21 22 23

