# https://github.com/mikedh/trimesh
v 14.73087077 306.34555128 223.31890451
v 14.58513741 306.34555128 168.75633559
v -1.87498334 306.34555128 223.31890451
v 31.95935501 206.23651007 223.31890451
v 31.87325610 206.23651007 139.97392304
v 14.54541092 306.34555128 168.60948464
v -1.87498334 306.34555128 168.75633559
v -1.87498334 65.10615141 223.31890451
v 31.82357562 198.04170584 223.31890451
v 31.82357562 198.23062276 139.97392304
v 31.32346285 208.14943174 139.97392304
v 10.06773117 306.34555128 157.40816251
v 1.55943630 306.34555128 157.40816251
v -1.78223852 256.23199227 139.97392304
v -1.87498334 252.45341541 139.97392304
v -1.87498334 65.10615141 139.97392304
v 14.61493974 65.10615141 223.31890451
v 14.04860620 65.10615141 139.97392304
v 30.04840028 212.54205567 139.97392304
v 10.66717508 268.44155678 139.97392304
v 1.21504067 268.44155678 139.97392304
v 0.28103588 265.77293761 139.97392304
f 1 2 6
f 1 6 12
f 1 12 13
f 1 13 7
f 1 7 3
f 1 3 8
f 1 8 17
f 1 17 9
f 1 9 4
f 1 4 5
f 1 5 2
f 2 5 6
f 3 7 15
f 3 15 16
f 3 16 8
f 4 9 10
f 4 10 5
f 5 10 18
f 5 18 16
f 5 16 15
f 5 15 14
f 5 14 22
f 5 22 21
f 5 21 20
f 5 20 19
f 5 19 11
f 5 11 6
f 6 11 12
f 7 13 14
f 7 14 15
f 8 16 18
f 8 18 17
f 9 17 10
f 10 17 18
f 11 19 12
f 12 20 21
f 12 21 13
f 12 19 20
f 13 21 22
f 13 22 14

