# https://github.com/mikedh/trimesh
v 976.81302296 968.31184849 249.21505153
v 1011.87152151 968.31184849 249.21505153
v 976.81302296 968.31184849 255.44529411
v 976.81302296 1006.87122587 249.21505153
v 1011.87152151 993.74631283 249.21505153
v 1011.87497858 968.31184849 383.93473689
v 976.81302296 990.19423361 383.93473689
v 981.56300653 968.31184849 506.84976700
v 998.74732372 1006.87122587 249.21505153
v 976.81302296 1006.87122587 383.93473689
v 1009.93240359 999.21596288 249.21505153
v 1011.87497858 993.74631283 383.93473689
v 1011.87497858 968.31184849 493.73343703
v 998.74732372 968.31184849 506.84976700
v 981.56300653 993.74631283 506.84976700
v 1008.43602897 1003.43239547 249.21505153
v 998.74732372 1006.87122587 493.73343703
v 981.56300653 1003.43239547 503.41934087
v 981.56300653 1006.87122587 493.73343703
v 1009.18078901 1001.33741141 383.93473689
v 1011.87497858 993.74631283 493.73343703
v 1008.43263151 968.31184849 503.41934087
v 998.74732372 993.74631283 506.84976700
v 1008.43602897 1003.43239547 383.93473689
v 998.74732372 1003.43239547 503.41934087
v 1007.28977204 1002.28488685 502.28425981
v 1008.43263151 1003.43239547 493.73343703
v 1008.43263151 993.74631283 503.41934087
f 1 2 6
f 1 6 13
f 1 13 22
f 1 22 14
f 1 14 8
f 1 8 3
f 1 3 7
f 1 7 10
f 1 10 4
f 1 4 9
f 1 9 16
f 1 16 11
f 1 11 5
f 1 5 2
f 2 5 12
f 2 12 6
f 3 8 7
f 4 10 19
f 4 19 17
f 4 17 9
f 5 11 12
f 6 12 21
f 6 21 13
f 7 8 15
f 7 15 10
f 8 14 23
f 8 23 15
f 9 17 24
f 9 24 16
f 10 15 18
f 10 18 19
f 11 16 12
f 12 20 21
f 12 16 20
f 13 21 28
f 13 28 22
f 14 22 28
f 14 28 23
f 15 23 25
f 15 25 18
f 16 24 20
f 17 19 18
f 17 18 25
f 17 25 26
f 17 26 27
f 17 27 24
f 20 24 27
f 20 27 21
f 21 27 26
f 21 26 28
f 23 28 26
f 23 26 25

