# https://github.com/mikedh/trimesh
v 767.85171396 988.94301290 383.95497267
v 767.85171396 968.31181869 482.31744877
v 767.85171396 1006.87498096 383.95497267
v 981.54038656 989.11288614 383.95497267
v 767.85171396 968.31181869 506.87497977
v 981.54038656 968.31181869 483.24391357
v 767.85171396 1006.87498096 493.74795076
v 981.54038656 1006.87498096 383.95497267
v 767.85171396 993.74878642 506.87497977
v 981.54038656 968.31181869 506.87497977
v 767.85171396 1005.25164845 498.32014858
v 981.54038656 1006.87498096 493.74795076
v 767.85171396 998.86408686 505.05814078
v 981.54038656 993.74878642 506.87497977
v 767.85171396 1003.43579294 503.43379499
v 981.54038656 1003.43579294 503.43379499
f 1 2 5
f 1 5 9
f 1 9 13
f 1 13 15
f 1 15 11
f 1 11 7
f 1 7 3
f 1 3 8
f 1 8 4
f 1 4 2
f 2 4 6
f 2 6 10
f 2 10 5
f 3 7 12
f 3 12 8
f 4 8 12
f 4 12 16
f 4 16 14
f 4 14 10
f 4 10 6
f 5 10 14
f 5 14 9
f 7 11 12
f 9 14 13
f 11 15 16
f 11 16 12
f 13 14 16
f 13 16 15

