# https://github.com/mikedh/trimesh
v 504.20364603 1006.87128547 468.40700611
v 445.44656040 1006.87128547 468.40700611
v 504.20364603 968.76520142 468.40700611
v 504.20364603 1006.87128547 337.22460312
v 445.44656040 990.87903138 468.40700611
v 445.44656040 1006.87128547 418.74647221
v 501.51195428 968.76520142 468.40700611
v 504.20364603 972.56273257 337.22460312
v 473.75532836 1006.87128547 337.22460312
v 445.44656040 990.39033289 418.74647221
v 460.81450799 1005.65886739 337.22460312
v 448.75365707 1004.08089401 337.22460312
v 445.44656040 1003.49897386 337.22460312
v 501.67874856 972.56273257 337.22460312
v 445.44656040 994.26996944 337.22460312
f 1 2 5
f 1 5 7
f 1 7 3
f 1 3 8
f 1 8 4
f 1 4 9
f 1 9 6
f 1 6 2
f 2 6 13
f 2 13 15
f 2 15 10
f 2 10 5
f 3 7 14
f 3 14 8
f 4 8 14
f 4 14 15
f 4 15 13
f 4 13 12
f 4 12 11
f 4 11 9
f 5 10 7
f 6 9 11
f 6 11 12
f 6 12 13
f 7 10 14
f 10 15 14

