# https://github.com/mikedh/trimesh
v 11.25517491 874.92412507 -6.85089949
v 32.95323266 874.92412507 -6.85089949
v 1.56587361 874.92412507 -3.40834381
v 11.25517491 993.72825262 -6.85089949
v 32.95323266 993.72825262 -6.85089949
v 39.33477418 981.44617906 239.10530093
v 39.33477418 969.33201179 246.12996260
v 32.95323266 874.92412507 13.71136195
v 1.56587361 993.72825262 -3.40834381
v -1.86693672 874.92412507 6.31452981
v 2.71147488 1002.26497890 -2.24530817
v 11.25517491 1003.40152027 -3.40834381
v 32.95323266 1003.40152027 -3.40834381
v 39.33477418 1006.84976819 239.10530093
v 39.33477418 969.33201179 253.80591677
v 32.43690742 881.25240985 253.24766712
v 22.26758011 874.92412507 239.10530093
v -1.86693672 993.72825262 6.31452981
v -1.86693672 874.92412507 239.10530093
v -1.87498334 881.23950544 281.25327095
v -1.87498334 881.25240985 239.10530093
v 1.56587361 1003.40152027 6.31452981
v 11.25517491 1006.84976819 6.31452981
v 32.95323266 1004.31847813 -0.84969521
v 32.95323266 1006.84976819 6.31452981
v 39.33477418 1006.86270240 281.11370668
v 39.33477418 990.83531137 468.40700611
v 14.12323122 881.23950544 468.40700611
v -1.87498334 993.72825262 239.10530093
v -1.87498334 881.23950544 468.40700611
v 1.56587361 1003.42732908 281.11370668
v 1.66672467 1003.46607210 281.11370668
v 11.25517491 1006.86270240 281.11370668
v 39.33477418 1006.86270240 468.40700611
v -1.87498334 993.72825262 468.40700611
v 1.46907566 1003.15612794 468.40700611
v 1.56587361 1003.42732908 468.40700611
v 11.25517491 1006.86270240 468.40700611
f 1 2 8
f 1 8 17
f 1 17 19
f 1 19 10
f 1 10 3
f 1 3 9
f 1 9 4
f 1 4 5
f 1 5 2
f 2 5 14
f 2 14 6
f 2 6 7
f 2 7 15
f 2 15 8
f 3 10 18
f 3 18 9
f 4 9 11
f 4 11 12
f 4 12 13
f 4 13 5
f 5 13 14
f 6 14 26
f 6 26 34
f 6 34 27
f 6 27 15
f 6 15 7
f 8 15 16
f 8 16 17
f 9 18 11
f 10 19 30
f 10 30 20
f 10 20 21
f 10 21 29
f 10 29 18
f 11 18 22
f 11 22 23
f 11 23 12
f 12 23 24
f 12 24 13
f 13 24 14
f 14 24 25
f 14 25 26
f 15 27 16
f 16 27 28
f 16 28 17
f 17 28 30
f 17 30 19
f 18 29 22
f 20 30 35
f 20 35 29
f 20 29 21
f 22 29 31
f 22 31 32
f 22 32 23
f 23 25 24
f 23 32 33
f 23 33 26
f 23 26 25
f 26 33 38
f 26 38 34
f 27 34 38
f 27 38 37
f 27 37 36
f 27 36 35
f 27 35 30
f 27 30 28
f 29 35 36
f 29 36 31
f 31 36 37
f 31 37 32
f 32 37 38
f 32 38 33

