# https://github.com/mikedh/trimesh
v 32.95585526 628.74171199 45.32390735
v 32.95585526 621.61016522 45.32390735
v 50.54256342 607.02066175 16.33670815
v 48.35799357 631.24822143 14.61708433
v 47.15123793 635.95947688 14.61708433
v 43.89074463 640.58452912 14.61708433
v 32.95585526 652.68598570 14.61708433
v 32.95585526 594.12474975 14.61708433
v 44.57071442 589.77069003 14.61708433
v 50.54256342 592.99159094 16.12926908
v 50.54256342 608.52950118 14.61708433
v 50.54256342 591.40269502 14.61708433
v 50.54256342 592.17250391 15.35062380
f 1 2 3
f 1 3 4
f 1 4 5
f 1 5 6
f 1 6 7
f 1 7 8
f 1 8 2
f 2 8 9
f 2 9 10
f 2 10 3
f 3 10 13
f 3 13 12
f 3 12 11
f 3 11 4
f 4 11 12
f 4 12 9
f 4 9 8
f 4 8 7
f 4 7 6
f 4 6 5
f 9 12 13
f 9 13 10

