# https://github.com/mikedh/trimesh
v 973.00583586 866.44661601 506.87497977
v 973.00583586 499.38262999 506.87497977
v 973.00583586 866.44661601 487.12082320
v 504.20367956 866.44661601 506.87497977
v 973.00583586 499.38262999 487.37605029
v 573.77822968 499.38262999 506.87497977
v 973.00583586 843.26929018 477.16379274
v 869.97491534 866.44661601 472.64807032
v 504.20367956 866.44661601 490.94915505
v 504.20367956 806.22151640 506.87497977
v 869.97491534 499.38262999 472.65146779
v 946.02045866 597.84129309 473.38309991
v 973.00583586 618.97037980 476.54104341
v 536.28322735 499.38262999 498.18383276
v 973.00583586 830.90806165 475.60863304
v 936.24514785 803.31087257 472.56639706
v 873.73817381 806.29336980 472.11380409
v 860.47494819 806.97614101 472.11380409
v 563.03914157 866.44661601 472.64807032
v 504.20367956 803.31087257 472.56639706
v 504.20367956 744.88248048 497.97965704
v 504.24956023 743.73260257 497.99326180
v 526.55381213 499.38262999 492.86161479
v 530.86780262 499.38262999 495.23006497
v 860.47494819 593.06209579 472.11720155
v 873.73817381 593.70890304 472.11720155
v 936.19925228 596.76328348 472.56979452
v 562.67200676 499.38262999 472.65146779
v 973.00583586 629.82238891 476.15650404
v 936.24514785 796.66310690 472.56639706
v 873.73817381 793.64466807 472.11380409
v 560.56089964 806.97614101 472.11380409
v 504.20367956 796.62716530 472.56639706
v 504.20367956 744.88248048 481.37664905
v 504.24956023 723.64559876 490.48975225
v 504.24956023 731.22763744 495.82558988
v 526.55381213 499.38262999 483.93565528
v 710.54087916 593.06209579 472.11720155
v 860.47494819 792.99786827 472.11380409
v 536.28322735 499.38262999 480.52589705
v 573.82412526 593.70890304 472.11720155
v 560.56089964 792.99786827 472.11380409
v 504.24956023 731.22763744 482.30564705
v 504.24956023 727.70612050 483.84718708
v 504.24956023 723.64559876 485.81068330
f 1 2 5
f 1 5 13
f 1 13 29
f 1 29 15
f 1 15 7
f 1 7 3
f 1 3 8
f 1 8 19
f 1 19 9
f 1 9 4
f 1 4 10
f 1 10 6
f 1 6 2
f 2 6 14
f 2 14 24
f 2 24 23
f 2 23 37
f 2 37 40
f 2 40 28
f 2 28 11
f 2 11 5
f 3 7 8
f 4 9 20
f 4 20 33
f 4 33 34
f 4 34 21
f 4 21 10
f 5 11 12
f 5 12 13
f 6 10 14
f 7 15 8
f 8 15 16
f 8 16 17
f 8 17 18
f 8 18 32
f 8 32 19
f 9 19 20
f 10 21 22
f 10 22 23
f 10 23 24
f 10 24 14
f 11 25 26
f 11 26 27
f 11 27 12
f 11 28 38
f 11 38 25
f 12 15 29
f 12 29 13
f 12 27 15
f 15 27 30
f 15 30 16
f 16 30 31
f 16 31 17
f 17 31 39
f 17 39 42
f 17 42 32
f 17 32 18
f 19 32 20
f 20 32 42
f 20 42 33
f 21 34 45
f 21 45 35
f 21 35 36
f 21 36 22
f 22 36 23
f 23 36 35
f 23 35 45
f 23 45 37
f 25 38 42
f 25 42 39
f 25 39 31
f 25 31 26
f 26 31 30
f 26 30 27
f 28 40 33
f 28 33 41
f 28 41 38
f 33 42 41
f 33 40 37
f 33 37 43
f 33 43 34
f 34 43 44
f 34 44 45
f 37 45 44
f 37 44 43
f 38 41 42

