# https://github.com/mikedh/trimesh
v 973.81261453 -6.87498096 6.27444568
v 973.81261453 -3.44717743 -3.36915375
v 998.74359843 -6.87498096 6.27444568
v 963.11086873 -6.87498096 249.18716028
v 973.81261453 6.21390107 -6.82416681
v 986.25663391 -3.43185903 -3.40712191
v 998.74359843 -3.43185903 -3.40712191
v 1007.28780509 -2.28417159 -2.26813675
v 1008.42863800 -3.43185903 6.27444568
v 1008.42863800 -3.43698503 249.18716028
v 998.74359843 -6.87498096 381.00850645
v 963.11086873 -6.87498096 381.00850645
v 963.11086873 28.63740696 249.18716028
v 973.81261453 18.69576940 -6.86213497
v 986.25663391 6.25470045 -6.86213497
v 998.74359843 6.25470045 -6.86213497
v 1011.87497858 6.25470045 6.27444568
v 1008.42863800 6.25470045 -3.40712191
v 1008.43340637 -3.43185903 124.46564376
v 1008.42863800 -3.43698503 381.00850645
v 963.11086873 9.07039408 381.00850645
v 963.11086873 28.63740696 253.55336072
v 978.26135623 40.98665495 249.18716028
v 973.81261453 31.55511394 -6.86213497
v 998.74359843 31.55511394 -6.86213497
v 1011.87497858 31.55511394 6.27444568
v 1011.87497858 6.25470045 249.18716028
v 1008.42863800 31.55511394 -3.40712191
v 1008.43340637 -3.43185903 249.18716028
v 1011.87021020 6.25470045 381.00850645
v 994.49059839 45.23569129 381.00850645
v 978.26135623 40.98665495 251.35127456
v 985.74588170 45.23569129 249.18716028
v 1011.87021020 45.23569129 249.18716028
v 1011.87497858 31.55511394 249.18716028
v 1011.87021020 45.23569129 381.00850645
v 985.74588170 45.23569129 256.55275586
f 1 2 3
f 1 3 11
f 1 11 12
f 1 12 4
f 1 4 2
f 2 4 5
f 2 5 6
f 2 6 7
f 2 7 3
f 3 7 8
f 3 8 9
f 3 9 10
f 3 10 20
f 3 20 11
f 4 12 21
f 4 21 22
f 4 22 13
f 4 13 24
f 4 24 14
f 4 14 5
f 5 14 15
f 5 15 6
f 6 15 16
f 6 16 7
f 7 16 8
f 8 17 9
f 8 16 18
f 8 18 17
f 9 17 19
f 9 19 10
f 10 19 29
f 10 29 20
f 11 20 30
f 11 30 36
f 11 36 31
f 11 31 21
f 11 21 12
f 13 22 32
f 13 32 23
f 13 23 24
f 14 24 25
f 14 25 16
f 14 16 15
f 16 25 28
f 16 28 18
f 17 18 28
f 17 28 26
f 17 26 35
f 17 35 27
f 17 27 29
f 17 29 19
f 20 29 27
f 20 27 30
f 21 31 22
f 22 31 32
f 23 32 37
f 23 37 33
f 23 33 24
f 24 33 34
f 24 34 25
f 25 34 28
f 26 28 34
f 26 34 36
f 26 36 35
f 27 35 36
f 27 36 30
f 31 36 34
f 31 34 33
f 31 33 37
f 31 37 32

