# https://github.com/mikedh/trimesh
v 504.20364976 972.07528578 249.18982386
v 504.20364976 972.07528578 256.33965808
v 504.20364976 1006.87122587 249.18982386
v 973.99104104 968.31184849 249.18982386
v 504.20364976 972.56601082 378.17706229
v 973.99104104 968.31184849 253.89921667
v 504.20364976 1006.87122587 378.17706229
v 976.81299315 1006.87122587 249.18982386
v 976.81299315 968.31184849 249.18982386
v 976.81299315 968.31184849 255.44263053
v 508.36721303 972.56601082 378.17706229
v 767.84897214 988.94101614 383.95497267
v 767.84897214 1006.87122587 383.95497267
v 976.81299315 1006.87122587 383.95497267
v 976.81299315 990.19423361 383.95497267
v 757.57888318 972.61131035 378.17706229
f 1 2 5
f 1 5 7
f 1 7 3
f 1 3 8
f 1 8 9
f 1 9 4
f 1 4 6
f 1 6 2
f 2 6 5
f 3 7 13
f 3 13 14
f 3 14 8
f 4 9 10
f 4 10 6
f 5 6 10
f 5 10 11
f 5 11 12
f 5 12 13
f 5 13 7
f 8 14 15
f 8 15 10
f 8 10 9
f 10 15 16
f 10 16 11
f 11 16 12
f 12 16 15
f 12 15 14
f 12 14 13

