# https://github.com/mikedh/trimesh
v 504.21026587 -6.87498096 249.19499456
v 504.21026587 27.91756166 249.19499456
v 963.10610036 -6.87498096 249.19499456
v 504.21026587 -6.87498096 301.97061623
v 460.90150097 -6.87092784 262.67240203
v 460.90150097 13.14806706 262.67240203
v 460.90150097 14.32278521 262.71601772
v 500.22840736 27.67285479 262.67240203
v 503.07961046 34.79450719 471.98662268
v 963.10610036 28.62322106 249.19499456
v 963.10610036 -6.87498096 301.97061623
v 460.90150097 -6.87092784 471.98662268
v 460.90150097 9.84829431 471.98662268
v 504.21026587 34.79450719 471.98662268
v 757.37721087 32.16773048 470.04570172
v 963.10610036 28.62322106 253.60023232
v 963.10610036 -6.87092784 470.04570172
v 504.21026587 -6.87092784 471.98662268
v 963.10610036 9.42000513 470.04570172
f 1 2 10
f 1 10 3
f 1 3 11
f 1 11 4
f 1 4 12
f 1 12 5
f 1 5 6
f 1 6 2
f 2 6 7
f 2 7 8
f 2 8 9
f 2 9 10
f 3 10 16
f 3 16 19
f 3 19 17
f 3 17 11
f 4 11 18
f 4 18 12
f 5 12 13
f 5 13 7
f 5 7 6
f 7 13 9
f 7 9 8
f 9 13 12
f 9 12 18
f 9 18 14
f 9 14 10
f 10 14 15
f 10 15 16
f 11 17 18
f 14 18 17
f 14 17 19
f 14 19 15
f 15 19 16

