# https://github.com/mikedh/trimesh
v 963.10610036 499.32268262 506.87497977
v 963.10610036 243.03018924 506.87497977
v 963.10610036 499.32268262 488.86653895
v 573.78469679 499.32268262 506.87497977
v 963.10610036 243.03018924 488.86653895
v 504.20364976 243.03018924 506.87497977
v 963.10610036 409.03326826 479.35529163
v 946.08140441 402.20950497 473.37970244
v 869.98698528 499.32268262 472.64807032
v 536.27652183 499.32268262 498.18383276
v 504.20364976 461.69164013 497.24801003
v 504.20364976 393.72997680 506.87497977
v 869.98698528 243.03018924 472.64807032
v 946.08140441 397.76904087 473.37970244
v 504.20364976 243.03018924 490.94915505
v 936.19901386 403.31334575 472.56639706
v 873.76028714 406.32383481 472.11380409
v 860.50886324 406.97610334 472.11380409
v 562.68945602 499.32268262 472.64807032
v 530.84120405 499.32268262 495.23346243
v 504.20364976 468.74118581 495.82558988
v 860.50886324 393.00244251 472.11380409
v 873.76028714 393.62962493 472.11380409
v 936.19901386 396.66520010 472.56639706
v 563.09373943 243.03018924 472.64807032
v 504.20364976 396.66520010 472.56639706
v 560.57821479 406.97610334 472.11380409
v 504.20364976 403.31334575 472.56639706
v 504.20364976 468.74118581 482.30564705
v 536.27652183 499.32268262 480.52589705
v 526.52888249 499.32268262 492.86161479
v 504.20364976 472.27850543 493.49455652
v 560.57821479 393.00244251 472.11380409
v 504.20364976 476.34265561 485.81068330
v 526.52888249 499.32268262 483.93565528
v 504.20364976 476.34265561 490.49314971
f 1 2 5
f 1 5 7
f 1 7 3
f 1 3 9
f 1 9 19
f 1 19 30
f 1 30 35
f 1 35 31
f 1 31 20
f 1 20 10
f 1 10 4
f 1 4 12
f 1 12 6
f 1 6 2
f 2 6 15
f 2 15 25
f 2 25 13
f 2 13 5
f 3 7 8
f 3 8 9
f 4 10 11
f 4 11 12
f 5 13 14
f 5 14 7
f 6 12 11
f 6 11 21
f 6 21 32
f 6 32 36
f 6 36 34
f 6 34 29
f 6 29 28
f 6 28 26
f 6 26 15
f 7 14 8
f 8 14 24
f 8 24 16
f 8 16 9
f 9 16 17
f 9 17 18
f 9 18 27
f 9 27 19
f 10 20 21
f 10 21 11
f 13 22 23
f 13 23 24
f 13 24 14
f 13 25 33
f 13 33 22
f 15 26 25
f 16 24 23
f 16 23 17
f 17 23 22
f 17 22 33
f 17 33 27
f 17 27 18
f 19 27 28
f 19 28 29
f 19 29 30
f 20 31 21
f 21 31 32
f 25 26 33
f 26 28 27
f 26 27 33
f 29 34 35
f 29 35 30
f 31 35 34
f 31 34 36
f 31 36 32

