# https://github.com/mikedh/trimesh
v 767.84372693 1006.87122587 493.74082801
v 767.84372693 1003.42160703 503.43278171
v 785.99346056 968.30719933 506.87497977
v 767.84372693 1006.87122587 468.73441443
v 629.67955619 1006.87122587 493.74829349
v 767.84372693 993.74625322 506.87125448
v 504.20364976 1003.42160703 503.43278171
v 629.67955619 993.74625322 506.87497977
v 785.99346056 968.30719933 487.33428234
v 785.99346056 866.46843131 506.87497977
v 767.84372693 988.88108367 468.73441443
v 629.67955619 1006.87122587 468.73441443
v 504.20364976 1006.87122587 493.74829349
v 504.20364976 993.74625322 506.87497977
v 785.99346056 866.53715547 490.94823118
v 785.99346056 866.46843131 492.63946828
v 660.87614313 866.46843131 506.87497977
v 758.05169703 969.26921830 468.73441443
v 629.67955619 990.86013670 468.73441443
v 563.03858278 931.24118653 472.64702724
v 504.20364976 1006.87122587 476.50738168
v 504.20364976 968.30719933 506.87497977
v 720.04206820 866.46843131 472.64702724
v 504.20364976 866.46843131 506.87125448
v 757.72071244 968.67826804 468.73441443
v 563.03858278 866.46843131 472.64702724
v 750.63181279 968.67826804 468.73441443
v 504.20364976 968.30719933 476.50738168
v 504.20364976 866.46843131 490.95197137
f 1 2 3
f 1 3 9
f 1 9 4
f 1 4 12
f 1 12 21
f 1 21 13
f 1 13 5
f 1 5 2
f 2 6 3
f 2 5 13
f 2 13 7
f 2 7 14
f 2 14 8
f 2 8 6
f 3 6 8
f 3 8 14
f 3 14 22
f 3 22 17
f 3 17 10
f 3 10 16
f 3 16 15
f 3 15 9
f 4 9 11
f 4 11 18
f 4 18 25
f 4 25 27
f 4 27 19
f 4 19 12
f 7 13 21
f 7 21 28
f 7 28 29
f 7 29 24
f 7 24 22
f 7 22 14
f 9 15 11
f 10 17 24
f 10 24 29
f 10 29 26
f 10 26 23
f 10 23 16
f 11 15 18
f 12 19 26
f 12 26 20
f 12 20 21
f 15 16 23
f 15 23 18
f 17 22 24
f 18 23 25
f 19 27 26
f 20 26 28
f 20 28 21
f 23 26 27
f 23 27 25
f 26 29 28

