# https://github.com/mikedh/trimesh
v 32.36317648 6.25392559 -6.87497977
v 32.36317648 -3.43328954 -3.41877462
v 32.19318403 -6.87498096 57.52655772
v 32.36317648 11.13652950 -6.87497977
v 504.05165791 6.25392559 -6.87497977
v 32.36317648 -6.87498096 6.26388076
v 504.05165791 -3.43328954 -3.41877462
v 504.05165791 -4.93389609 0.80254555
v 32.19318403 10.03518467 57.52655772
v 32.19318403 -6.87498096 262.65639073
v 32.19318403 40.00544329 248.35667013
v 236.30440345 31.56181947 -6.87497977
v 531.02471185 11.16406684 -6.87497977
v 611.09388164 6.25392559 -6.84860471
v 504.05165791 -6.87498096 6.26388076
v 611.09388164 -3.42869999 -3.39239957
v 611.09388164 -6.87039140 6.26388076
v 32.19318403 19.48377261 262.65639073
v 504.10831213 -6.87498096 262.65639073
v 32.19318403 40.00544329 251.62819029
v 531.02471185 31.54805079 -6.87497977
v 504.05165791 31.56181947 -6.87497977
v 611.09388164 11.16406684 -6.84860471
v 573.63760742 -6.87498096 122.71958529
v 611.09388164 -6.87039140 31.27521172
v 604.23729109 -6.87498096 224.26874923
v 250.52759168 27.63372434 262.65639073
v 604.23729109 -6.87498096 249.14816767
v 504.10831213 27.66582145 262.65639073
v 257.21418978 27.64746322 262.65639073
v 500.08502839 27.66582145 262.65639073
v 604.23729109 27.43178381 249.14816767
v 531.02471185 31.54805079 13.67756612
v 604.23729109 27.43178381 246.64175509
v 611.09388164 11.16406684 22.54235636
v 611.09388164 -3.61228229 44.20301220
v 611.09388164 -3.54802849 44.36130724
v 611.09388164 5.40497663 44.36130724
v 611.09388164 5.47382000 44.30854222
v 611.09388164 9.74151258 31.40711680
v 611.09388164 11.15947729 23.43937647
f 1 2 3
f 1 3 9
f 1 9 4
f 1 4 12
f 1 12 22
f 1 22 21
f 1 21 13
f 1 13 5
f 1 5 7
f 1 7 2
f 2 6 3
f 2 7 8
f 2 8 6
f 3 6 15
f 3 15 24
f 3 24 26
f 3 26 28
f 3 28 19
f 3 19 10
f 3 10 18
f 3 18 20
f 3 20 11
f 3 11 9
f 4 9 11
f 4 11 12
f 5 13 14
f 5 14 7
f 6 8 15
f 7 14 16
f 7 16 17
f 7 17 8
f 8 17 15
f 10 19 29
f 10 29 31
f 10 31 30
f 10 30 27
f 10 27 18
f 11 20 33
f 11 33 21
f 11 21 22
f 11 22 12
f 13 21 23
f 13 23 14
f 14 23 35
f 14 35 41
f 14 41 40
f 14 40 39
f 14 39 38
f 14 38 37
f 14 37 36
f 14 36 25
f 14 25 17
f 14 17 16
f 15 17 24
f 17 25 28
f 17 28 26
f 17 26 24
f 18 27 20
f 19 28 32
f 19 32 29
f 20 27 30
f 20 30 31
f 20 31 29
f 20 29 32
f 20 32 33
f 21 33 32
f 21 32 34
f 21 34 23
f 23 34 32
f 23 32 35
f 25 36 28
f 28 36 37
f 28 37 38
f 28 38 32
f 32 38 39
f 32 39 40
f 32 40 41
f 32 41 35

