# https://github.com/mikedh/trimesh
v 337.11417178 719.16079626 493.34143218
v 333.49703409 494.11910770 492.85480496
v 337.11417178 719.16079626 483.76891128
v 336.68694058 719.16079626 493.54219553
v 323.72790727 494.11910770 498.18042039
v 333.49703409 494.11910770 483.94587748
v 323.72790727 494.11910770 480.53610435
v 297.32564231 494.11910770 472.64807032
v 297.35413333 593.77539203 472.60722624
v 297.35413333 606.26547089 472.60722624
v 297.32564231 719.16079626 472.64807032
v 324.12664744 719.16079626 498.15319597
v 323.72790727 506.27876076 498.19064259
v 286.21789947 494.11910770 506.87497977
v 286.18942335 593.68728146 472.11380409
v 139.96592228 494.11910770 472.64807032
v 149.47870443 593.02642986 472.11380409
v 286.18942335 606.35358146 472.11380409
v 149.47870443 606.97037778 472.11380409
v 139.96592228 719.16079626 472.64807032
v 286.21789947 719.16079626 506.87497977
v 46.20516320 494.11910770 506.87497977
v 46.20516320 494.11910770 488.69639749
v 63.89209656 597.80658083 473.37970244
v 73.77514276 596.70516150 472.56639706
v 136.20638910 593.68728146 472.11380409
v 136.20638910 606.35358146 472.11380409
v 73.77514276 603.33570142 472.56639706
v 63.89209656 602.23428209 473.37970244
v 46.20516320 719.16079626 488.69639749
v 46.20516320 719.16079626 506.87497977
v 46.20516320 609.72391866 482.64934233
v 46.20516320 631.22358981 483.45244042
f 1 2 6
f 1 6 3
f 1 3 11
f 1 11 20
f 1 20 30
f 1 30 31
f 1 31 21
f 1 21 12
f 1 12 4
f 1 4 5
f 1 5 2
f 2 5 14
f 2 14 22
f 2 22 23
f 2 23 16
f 2 16 8
f 2 8 7
f 2 7 6
f 3 6 7
f 3 7 8
f 3 8 9
f 3 9 10
f 3 10 11
f 4 12 13
f 4 13 5
f 5 13 14
f 8 15 9
f 8 16 17
f 8 17 15
f 9 15 18
f 9 18 10
f 10 18 11
f 11 18 19
f 11 19 20
f 12 21 14
f 12 14 13
f 14 21 31
f 14 31 22
f 15 17 26
f 15 26 27
f 15 27 19
f 15 19 18
f 16 23 24
f 16 24 25
f 16 25 26
f 16 26 17
f 19 27 20
f 20 27 28
f 20 28 29
f 20 29 30
f 22 31 30
f 22 30 33
f 22 33 32
f 22 32 23
f 23 32 24
f 24 32 29
f 24 29 28
f 24 28 25
f 25 28 27
f 25 27 26
f 29 32 33
f 29 33 30

