# https://github.com/mikedh/trimesh
v 998.74657866 1006.86186794 249.18798357
v 998.74657866 1006.86186794 129.29626497
v 973.99873003 1006.86186794 249.18798357
v 1008.43066456 1003.41779234 249.18798357
v 973.99873003 1006.86186794 129.29626497
v 1008.43066456 1003.41779234 129.29626497
v 973.99873003 968.35908517 249.18798357
v 1009.92852929 999.19811129 249.18798357
v 1011.63030151 994.41319940 230.37568843
v 973.99873003 990.81138010 129.29626497
v 1011.33370879 995.24134634 129.29626497
v 1011.63030151 994.41319940 230.36395004
v 973.99873003 968.35908517 246.04282154
v 977.56910788 872.56878792 249.18798357
v 1011.86758760 993.72965333 249.18798357
v 995.95109101 872.56878792 129.29626497
v 977.56910788 872.56878792 246.67654930
v 1011.86758760 993.72965333 129.29626497
v 1011.86758760 872.56878792 249.18798357
v 1011.86758760 872.56878792 129.29626497
f 1 2 5
f 1 5 3
f 1 3 7
f 1 7 14
f 1 14 19
f 1 19 15
f 1 15 8
f 1 8 4
f 1 4 6
f 1 6 2
f 2 6 11
f 2 11 18
f 2 18 20
f 2 20 16
f 2 16 10
f 2 10 5
f 3 5 10
f 3 10 13
f 3 13 7
f 4 8 9
f 4 9 12
f 4 12 6
f 6 12 11
f 7 13 17
f 7 17 14
f 8 15 9
f 9 15 18
f 9 18 12
f 10 16 17
f 10 17 13
f 11 12 18
f 14 17 16
f 14 16 20
f 14 20 19
f 15 19 20
f 15 20 18

