# https://github.com/mikedh/trimesh
v 1011.87158111 872.56872832 249.18982386
v 1011.87497858 872.55680739 199.67623031
v 1011.87158111 872.56872832 199.68796497
v 977.56344544 872.56872832 249.18982386
v 1011.87497858 768.75567564 249.18982386
v 1011.87497858 872.55680739 129.29627242
v 995.94694849 872.56872832 199.68796497
v 977.56344544 872.56872832 246.67834861
v 977.08327042 843.81318256 249.18982386
v 1011.87497858 750.87577224 249.18982386
v 995.95034595 872.55680739 129.29627242
v 1011.87497858 758.52328662 129.29627242
v 977.58388983 840.20382328 129.29627242
v 977.08327042 843.81318256 243.65049598
v 977.08327042 830.69807449 249.18982386
v 977.56344544 750.87577224 249.18982386
v 1011.87497858 750.87577224 243.74438447
v 1011.12914565 750.87577224 231.23395807
v 1006.60992146 750.87577224 199.68796497
v 995.75964089 758.52328662 129.29627242
v 977.58388983 833.28294913 129.29627242
v 977.08327042 830.69807449 243.19279936
v 977.56344544 750.87577224 246.67834861
v 1002.27797507 750.87577224 199.68796497
f 1 2 6
f 1 6 3
f 1 3 7
f 1 7 8
f 1 8 4
f 1 4 9
f 1 9 15
f 1 15 16
f 1 16 10
f 1 10 5
f 1 5 2
f 2 5 10
f 2 10 17
f 2 17 12
f 2 12 6
f 3 6 11
f 3 11 7
f 4 8 14
f 4 14 9
f 6 12 20
f 6 20 21
f 6 21 13
f 6 13 11
f 7 11 8
f 8 11 13
f 8 13 14
f 9 14 22
f 9 22 15
f 10 16 23
f 10 23 24
f 10 24 19
f 10 19 18
f 10 18 17
f 12 17 18
f 12 18 19
f 12 19 24
f 12 24 20
f 13 21 22
f 13 22 14
f 15 22 23
f 15 23 16
f 20 24 23
f 20 23 21
f 21 23 22

