# https://github.com/mikedh/trimesh
v 319.86484082 -6.87498096 262.65639073
v 319.86484082 -6.87498096 318.74927911
v 319.86484082 14.35911424 262.65639073
v 460.90148607 -6.87498096 262.65639073
v 319.86484082 -5.46354296 331.24832848
v 460.90148607 -6.87498096 330.90135494
v 460.90148607 -6.85417894 331.24832848
v 319.86484082 9.51155786 322.63199275
v 460.90148607 9.73188643 331.24832848
v 451.25146423 14.35911424 262.65639073
v 460.90148607 13.14514643 262.65639073
v 319.86484082 -1.90681458 340.16205413
v 460.90148607 -3.91489508 347.05181466
v 319.86484082 8.28301672 331.24832848
v 460.90148607 5.79479101 347.05181466
v 460.90148607 14.32585485 262.68117508
v 319.86484082 3.12363864 340.16205413
v 319.86484082 6.71982530 334.73450731
f 1 2 5
f 1 5 12
f 1 12 17
f 1 17 18
f 1 18 14
f 1 14 8
f 1 8 3
f 1 3 10
f 1 10 11
f 1 11 4
f 1 4 6
f 1 6 2
f 2 6 7
f 2 7 5
f 3 8 9
f 3 9 10
f 4 11 16
f 4 16 9
f 4 9 15
f 4 15 13
f 4 13 7
f 4 7 6
f 5 7 13
f 5 13 12
f 8 14 9
f 9 16 10
f 9 14 15
f 10 16 11
f 12 13 15
f 12 15 17
f 14 18 15
f 15 18 17

