# https://github.com/mikedh/trimesh
v 1011.87497858 282.10225597 249.18981641
v 1011.87497858 282.10225597 168.75910720
v 977.56693231 282.10225597 249.18981641
v 1011.87497858 31.58351556 249.18981641
v 1009.05865910 282.10225597 155.18303170
v 1011.87497858 280.85137799 43.75862977
v 977.56693231 282.10225597 246.65562062
v 976.40181051 206.21573785 249.18981641
v 973.96767601 31.58351556 249.18981641
v 1011.87497858 31.58351556 43.75862977
v 1008.92878057 282.10225597 154.76066574
v 1011.87497858 268.71052274 43.71842644
v 996.37958880 280.85137799 43.71842644
v 995.41855331 282.10225597 168.75910720
v 995.94915386 280.85137799 43.71842644
v 977.57435309 206.21573785 43.71842644
v 976.40181051 206.21573785 243.73927709
v 973.96767601 31.58351556 246.01200966
v 994.34617634 31.58351556 43.71842644
v 1011.87497858 31.60804287 43.71842644
v 999.14026734 282.10225597 154.76066574
v 998.95102260 282.10225597 155.18303170
v 998.99927256 282.10225597 155.00201985
v 977.76732313 198.09728717 43.71842644
v 992.35362285 31.58351556 43.71842644
f 1 2 5
f 1 5 11
f 1 11 21
f 1 21 23
f 1 23 22
f 1 22 14
f 1 14 7
f 1 7 3
f 1 3 8
f 1 8 9
f 1 9 4
f 1 4 10
f 1 10 20
f 1 20 12
f 1 12 6
f 1 6 2
f 2 6 5
f 3 7 17
f 3 17 8
f 4 9 18
f 4 18 25
f 4 25 19
f 4 19 10
f 5 6 11
f 6 12 13
f 6 13 11
f 7 14 15
f 7 15 16
f 7 16 17
f 8 17 18
f 8 18 9
f 10 19 20
f 11 13 15
f 11 15 21
f 12 20 19
f 12 19 25
f 12 25 24
f 12 24 16
f 12 16 15
f 12 15 13
f 14 22 15
f 15 22 23
f 15 23 21
f 16 24 18
f 16 18 17
f 18 24 25

