# https://github.com/mikedh/trimesh
v 871.93599757 27.43527068 249.18983131
v 871.93599757 -6.87122587 249.18983131
v 871.93599757 27.43527068 246.66793643
v 757.76148201 31.42457977 30.85374728
v 761.32235292 27.90394200 249.18983131
v 727.00474010 -6.87122587 249.18983131
v 871.93599757 -6.87122587 30.85374728
v 871.93599757 9.21720032 30.85374728
v 750.66814182 31.42457977 30.85374728
v 748.14291653 27.90394200 249.18983131
v 727.00474010 27.43527068 249.18983131
v 727.00474010 -6.87122587 30.85374728
v 727.00474010 9.88459353 30.85374728
v 727.00474010 27.43527068 246.47558479
f 1 2 7
f 1 7 8
f 1 8 3
f 1 3 4
f 1 4 5
f 1 5 10
f 1 10 11
f 1 11 6
f 1 6 2
f 2 6 12
f 2 12 7
f 3 8 4
f 4 8 7
f 4 7 12
f 4 12 13
f 4 13 9
f 4 9 10
f 4 10 5
f 6 11 14
f 6 14 13
f 6 13 12
f 9 13 14
f 9 14 11
f 9 11 10

