# https://github.com/mikedh/trimesh
v 39.33477418 990.89512463 337.22460312
v 252.23910926 968.75912175 468.40700611
v 39.33477418 990.84660645 468.40700611
v 39.33477418 1006.87122587 337.22460312
v 252.35191106 972.61324750 337.22460312
v 259.34718671 968.75912175 468.40700611
v 39.33477418 1006.87122587 468.40700611
v 223.55285391 1006.87498096 337.22460312
v 259.31897881 972.61324750 337.22460312
v 327.49462281 996.70055745 337.22460312
v 259.88310697 969.14714799 468.40700611
v 223.55285391 1006.87122587 468.40700611
v 223.55285391 1006.87498096 388.56242663
v 292.77214545 1006.87498096 337.22460312
v 327.49462281 1002.09558250 337.22460312
v 327.49462281 997.63703584 338.63709909
v 277.99183260 988.61548538 468.40700611
v 272.26586767 982.35112659 468.40700611
v 298.13143751 1003.71110679 388.56242663
v 286.22818127 1006.81156162 388.56242663
v 273.76082668 1006.87498096 388.56242663
v 305.26772285 1005.93477729 337.22460312
v 327.49462281 1001.38670445 338.63709909
f 1 2 3
f 1 3 7
f 1 7 4
f 1 4 8
f 1 8 14
f 1 14 22
f 1 22 15
f 1 15 10
f 1 10 9
f 1 9 5
f 1 5 2
f 2 5 9
f 2 9 6
f 2 6 11
f 2 11 18
f 2 18 17
f 2 17 12
f 2 12 7
f 2 7 3
f 4 7 13
f 4 13 8
f 6 9 10
f 6 10 11
f 7 12 21
f 7 21 13
f 8 13 21
f 8 21 14
f 10 15 23
f 10 23 16
f 10 16 17
f 10 17 18
f 10 18 11
f 12 17 19
f 12 19 20
f 12 20 21
f 14 21 20
f 14 20 22
f 15 22 20
f 15 20 19
f 15 19 17
f 15 17 23
f 16 23 17

