# https://github.com/mikedh/trimesh
v -1.87498334 6.29403952 460.15548806
v 0.49078462 -0.37598849 460.15548806
v -1.87498334 6.29403952 493.74541757
v -1.87498334 494.06105277 460.15548806
v 1.57088040 -3.36897613 460.15548806
v 1.57088040 -3.36897613 493.74541757
v 2.71558761 -2.25728990 502.28810431
v 1.57088040 6.29403952 503.43597056
v -1.87498334 494.06105277 493.74541757
v -1.86324123 866.64185103 468.41463551
v 14.07468323 494.06105277 460.15548806
v 11.25693324 -6.78944829 460.15548806
v 11.25693324 -6.78944829 493.74541757
v 11.25693324 -3.36897613 503.43597056
v 11.25693324 6.29403952 506.87497977
v 1.57088040 494.06105277 503.43597056
v 1.57088040 866.64185103 503.42682125
v -1.86324123 866.64185103 493.74541757
v 14.23317198 866.64185103 468.41463551
v 34.67950239 840.64585133 468.41463551
v 33.93983855 416.84267630 460.15548806
v 46.73716446 -6.78944829 460.15548806
v 46.73716446 -6.78944829 493.74541757
v 46.73716446 -3.36897613 503.43597056
v 46.73716446 6.29403952 506.87497977
v 11.25693324 35.02645867 506.87497977
v 11.26867536 866.64185103 506.87497977
v 58.09623028 866.64185103 490.53047712
v 58.09623028 806.95367006 481.95578269
v 46.73716446 9.11596183 460.15548806
v 58.09623028 792.84399887 481.95578269
v 58.09623028 719.04614672 490.53047712
v 58.09623028 719.04614672 506.87497977
v 58.09623028 866.64185103 506.87497977
f 1 2 3
f 1 3 9
f 1 9 4
f 1 4 11
f 1 11 21
f 1 21 30
f 1 30 22
f 1 22 12
f 1 12 5
f 1 5 2
f 2 5 6
f 2 6 3
f 3 6 7
f 3 7 8
f 3 8 16
f 3 16 9
f 4 9 18
f 4 18 10
f 4 10 19
f 4 19 11
f 5 12 13
f 5 13 6
f 6 13 7
f 7 14 15
f 7 15 8
f 7 13 14
f 8 15 26
f 8 26 16
f 9 16 17
f 9 17 18
f 10 18 17
f 10 17 27
f 10 27 34
f 10 34 28
f 10 28 19
f 11 19 20
f 11 20 21
f 12 22 23
f 12 23 13
f 13 23 24
f 13 24 14
f 14 24 25
f 14 25 15
f 15 25 33
f 15 33 34
f 15 34 27
f 15 27 26
f 16 27 17
f 16 26 27
f 19 28 20
f 20 28 29
f 20 29 30
f 20 30 21
f 22 30 29
f 22 29 31
f 22 31 32
f 22 32 33
f 22 33 23
f 23 33 24
f 24 33 25
f 28 34 33
f 28 33 32
f 28 32 31
f 28 31 29

