# https://github.com/mikedh/trimesh
v 46.75084372 -6.87498096 262.65639073
v 11.28926876 -6.87086824 262.67687982
v 1.58929823 -3.43233587 262.67687982
v -1.87498334 6.25195864 262.67687982
v 46.75084372 15.14988906 262.65639073
v 223.71223673 -6.87498096 262.65639073
v 46.75084372 -6.87498096 471.98662268
v 11.28926876 -6.87086824 460.10217171
v 4.61268425 -4.50790169 460.10217171
v 1.58929823 -3.43233587 460.10217171
v -1.87498334 25.53492558 262.67687982
v -1.87498334 6.25195864 460.10217171
v 250.38713334 27.63718141 262.65639073
v 223.80671009 -6.87498096 262.69736892
v 286.47858039 -6.87086824 262.65639073
v 46.75084372 9.83720784 471.98662268
v 223.80671009 -6.87498096 471.98662268
v -1.87498334 25.53492558 460.10217171
v 253.44199061 34.74250214 471.98662268
v 257.06374765 27.64531745 262.65639073
v 312.01972214 -6.87086824 418.75249228
v 319.83007641 -6.86276201 262.65639073
v 312.01972214 -6.87086824 471.98662268
v 257.47315706 34.74250214 471.98662268
v 260.71697595 27.64531745 262.65639073
v 319.83007641 14.35544855 262.65639073
v 319.83007641 -6.86276201 318.75918838
v 312.01972214 9.84129076 471.98662268
v 319.83007641 -5.45716527 331.25834951
v 319.83007641 -1.89632417 340.19217683
v 319.83007641 9.51534276 322.65237008
v 319.83007641 3.13114883 340.19217683
v 319.83007641 6.72456387 334.78270512
v 319.83007641 8.28495387 331.25834951
f 1 2 3
f 1 3 4
f 1 4 11
f 1 11 5
f 1 5 13
f 1 13 20
f 1 20 25
f 1 25 26
f 1 26 22
f 1 22 15
f 1 15 6
f 1 6 14
f 1 14 17
f 1 17 7
f 1 7 8
f 1 8 2
f 2 8 9
f 2 9 3
f 3 10 12
f 3 12 4
f 3 9 10
f 4 12 18
f 4 18 11
f 5 11 13
f 6 15 14
f 7 16 18
f 7 18 12
f 7 12 10
f 7 10 9
f 7 9 8
f 7 17 23
f 7 23 28
f 7 28 24
f 7 24 19
f 7 19 16
f 11 18 19
f 11 19 13
f 13 19 20
f 14 15 21
f 14 21 23
f 14 23 17
f 15 22 21
f 16 19 18
f 19 24 25
f 19 25 20
f 21 22 27
f 21 27 23
f 22 26 31
f 22 31 34
f 22 34 33
f 22 33 32
f 22 32 30
f 22 30 29
f 22 29 27
f 23 27 29
f 23 29 30
f 23 30 32
f 23 32 28
f 24 28 26
f 24 26 25
f 26 28 31
f 28 32 33
f 28 33 34
f 28 34 31

