# https://github.com/mikedh/trimesh
v 1011.87497858 433.77383022 121.62338136
v 1011.87497858 433.77383022 43.71841153
v 991.85291403 433.77383022 121.62338136
v 1011.87497858 356.26496306 121.62338136
v 991.81199544 433.77383022 43.71841153
v 1011.87497858 281.25542298 43.71841153
v 991.81199544 433.77383022 43.75654361
v 987.55372039 429.77791246 43.75654361
v 987.61854044 429.76294424 121.62338136
v 1011.80333379 353.39149763 121.62338136
v 1011.87497858 280.88126972 69.11988470
v 987.54007093 429.76294424 43.71841153
v 1011.87497858 280.88126972 43.75654361
v 996.38414856 280.88126972 43.71841153
v 981.30619991 423.17791246 43.71841153
v 981.30619991 423.17791246 43.75654361
v 982.80752171 424.50988257 121.62338136
v 1011.39384988 343.75339672 121.62338136
v 1010.84453347 280.88126972 81.25249961
v 995.95082279 280.88126972 43.71841153
v 977.01722847 416.92212184 43.71841153
v 977.02748047 416.93709751 43.75654361
v 981.37104977 422.93845080 121.62338136
v 1010.60230019 341.50849207 121.62338136
v 1007.42906810 280.88126972 90.87623580
v 1010.75923922 280.88126972 81.67955199
v 995.47315116 280.88126972 68.38780555
v 977.01722847 409.52892558 43.71841153
v 977.58362161 416.69763585 121.62338136
v 1007.95448305 334.66903787 121.62338136
v 1001.24636768 280.88126972 90.87623580
v 995.46632643 280.88126972 68.75385258
v 977.58362161 409.78334801 121.62338136
v 1000.37628887 334.66903787 121.62338136
v 996.27498265 280.88126972 81.25249961
v 995.36052818 343.75339672 121.62338136
f 1 2 5
f 1 5 7
f 1 7 3
f 1 3 9
f 1 9 17
f 1 17 23
f 1 23 29
f 1 29 33
f 1 33 36
f 1 36 34
f 1 34 30
f 1 30 24
f 1 24 18
f 1 18 10
f 1 10 4
f 1 4 11
f 1 11 13
f 1 13 6
f 1 6 2
f 2 6 14
f 2 14 20
f 2 20 28
f 2 28 21
f 2 21 15
f 2 15 12
f 2 12 5
f 3 7 8
f 3 8 9
f 4 10 11
f 5 12 8
f 5 8 7
f 6 13 14
f 8 12 15
f 8 15 16
f 8 16 9
f 9 16 17
f 10 18 11
f 11 19 26
f 11 26 25
f 11 25 31
f 11 31 35
f 11 35 32
f 11 32 27
f 11 27 20
f 11 20 14
f 11 14 13
f 11 18 19
f 15 21 22
f 15 22 16
f 16 22 23
f 16 23 17
f 18 24 25
f 18 25 26
f 18 26 19
f 20 27 28
f 21 29 23
f 21 23 22
f 21 28 33
f 21 33 29
f 24 30 25
f 25 30 34
f 25 34 31
f 27 32 28
f 28 32 33
f 31 34 36
f 31 36 35
f 32 35 33
f 33 35 36

