# https://github.com/mikedh/trimesh
v 14.12749295 881.22731629 468.40700611
v -1.87498334 881.22731629 468.40700611
v 34.69288363 840.68980975 468.40700611
v 32.42936743 881.22731629 253.34114583
v -1.87498334 881.22731629 239.17673523
v -1.87498334 494.02704087 468.40700611
v 32.91004909 843.70500013 243.69574335
v 32.42936743 881.22731629 246.70841543
v 34.77180018 629.20793953 468.40700611
v 33.59520449 206.32791379 243.79292128
v 22.27401742 881.22731629 239.17673523
v -1.87498334 874.86192763 220.20176784
v -1.87498334 25.58421862 460.12215416
v 14.12031059 494.02704087 468.40700611
v 32.41142644 840.18728299 220.20176784
v 14.26380877 874.86192763 220.20176784
v 24.34742460 881.22731629 240.46441163
v 34.77180018 621.16743682 468.40700611
v 33.59520449 206.32791379 256.30522522
v 32.42936743 68.80187783 246.70841543
v 31.95226205 206.32791379 223.33591419
v 32.40785016 409.68555169 223.33591419
v 32.41142644 833.23559324 220.20176784
v -1.87498334 831.22548619 220.20176784
v -1.87498334 25.58421862 262.69500709
v 19.61949475 25.58421862 460.12215416
v 32.82037391 198.11990713 460.12215416
v 33.12170519 206.32791379 460.12215416
v 33.94675269 409.60179226 460.12215416
v 32.42936743 68.80187783 253.36544217
v 32.13521851 65.11667163 247.09714203
v 14.61893325 65.11667163 223.33591419
v 31.81955231 198.11990713 223.33591419
v 27.10595738 825.86515105 220.20176784
v 0.51051376 817.99215230 220.20176784
v -1.87498334 65.11667163 223.33591419
v 26.46386634 25.58421862 262.69500709
v 32.13521851 65.11667163 252.92812289
v 9.62555411 811.45924478 220.20176784
v 11.95007566 812.96685487 220.20176784
v 21.60680302 820.92359815 220.20176784
v 2.16776131 812.54807264 220.20176784
f 1 2 6
f 1 6 14
f 1 14 18
f 1 18 9
f 1 9 3
f 1 3 4
f 1 4 8
f 1 8 17
f 1 17 11
f 1 11 5
f 1 5 2
f 2 5 12
f 2 12 24
f 2 24 36
f 2 36 25
f 2 25 13
f 2 13 6
f 3 7 8
f 3 8 4
f 3 9 10
f 3 10 7
f 5 11 16
f 5 16 12
f 6 13 26
f 6 26 14
f 7 15 8
f 7 10 15
f 8 16 17
f 8 15 16
f 9 18 10
f 10 18 19
f 10 19 30
f 10 30 20
f 10 20 21
f 10 21 22
f 10 22 23
f 10 23 15
f 11 17 16
f 12 16 15
f 12 15 23
f 12 23 34
f 12 34 41
f 12 41 40
f 12 40 39
f 12 39 42
f 12 42 35
f 12 35 24
f 13 25 37
f 13 37 26
f 14 26 18
f 18 26 27
f 18 27 28
f 18 28 29
f 18 29 19
f 19 28 30
f 19 29 28
f 20 30 38
f 20 38 31
f 20 31 32
f 20 32 33
f 20 33 21
f 21 33 23
f 21 23 22
f 23 33 32
f 23 32 34
f 24 35 36
f 25 36 32
f 25 32 37
f 26 37 38
f 26 38 30
f 26 30 27
f 27 30 28
f 31 38 37
f 31 37 32
f 32 36 39
f 32 39 40
f 32 40 41
f 32 41 34
f 35 42 36
f 36 42 39

