# https://github.com/mikedh/trimesh
v 727.00474010 9.78082185 194.38593063
v 673.75879309 9.85449319 181.23850939
v 673.75879309 9.76279144 193.73800579
v 673.75879309 9.74970822 194.38593063
v 727.00474010 -6.87337163 194.38593063
v 727.00474010 9.78082185 56.48648647
v 673.11618051 9.70056419 194.38593063
v 673.75229618 9.78901749 68.75651988
v 673.75879309 -6.87337163 194.38593063
v 727.00474010 -6.87337163 56.48648647
v 673.75229618 9.67436795 56.48648647
v 661.02987841 4.87789276 194.38593063
v 660.78320458 5.84572318 56.48648647
v 661.02987841 -3.22485210 194.38593063
v 660.78320458 -3.88479473 56.48648647
v 673.75879309 -6.87337163 193.73800579
v 673.99245820 -6.87337163 56.48648647
v 660.69233730 5.80805304 56.48648647
v 660.69233730 -3.85856869 56.48648647
v 673.75229618 -6.87170270 56.48648647
f 1 2 3
f 1 3 4
f 1 4 7
f 1 7 12
f 1 12 14
f 1 14 9
f 1 9 5
f 1 5 10
f 1 10 6
f 1 6 2
f 2 7 3
f 2 6 8
f 2 8 7
f 3 7 4
f 5 9 16
f 5 16 17
f 5 17 10
f 6 10 17
f 6 17 20
f 6 20 15
f 6 15 19
f 6 19 18
f 6 18 13
f 6 13 11
f 6 11 8
f 7 8 13
f 7 13 12
f 8 11 13
f 9 14 15
f 9 15 16
f 12 13 18
f 12 18 19
f 12 19 14
f 14 19 15
f 15 20 16
f 16 20 17

