# https://github.com/mikedh/trimesh
v 998.74666807 1006.87498096 129.29625752
v 973.99503455 1006.87498096 129.29625752
v 1008.43078376 1003.40825559 129.29625752
v 998.74666807 1006.87498096 33.15918044
v 973.99503455 1006.87498096 33.15918044
v 973.99503455 990.79466100 129.29625752
v 1008.43078376 1003.40825559 33.15918044
v 1011.33382800 995.24808166 129.29625752
v 1008.95727159 1001.94156409 33.15918044
v 973.99503455 990.76801772 33.15918044
v 975.52997337 832.84488479 33.15918044
v 977.58764492 833.32491080 129.29625752
v 1011.86770681 993.72804400 129.29625752
v 1011.86770681 993.72804400 33.15918044
v 995.88442321 734.44295041 33.15918044
v 995.95118041 734.44295041 129.29625752
v 1011.87140230 943.70040509 129.29625752
v 1011.87140230 943.70040509 33.15918044
v 1011.87140230 734.44295041 33.15918044
v 1011.87140230 734.44295041 129.29625752
f 1 2 6
f 1 6 12
f 1 12 16
f 1 16 20
f 1 20 17
f 1 17 13
f 1 13 8
f 1 8 3
f 1 3 7
f 1 7 4
f 1 4 5
f 1 5 2
f 2 5 10
f 2 10 6
f 3 8 9
f 3 9 7
f 4 7 9
f 4 9 14
f 4 14 18
f 4 18 19
f 4 19 15
f 4 15 11
f 4 11 10
f 4 10 5
f 6 10 11
f 6 11 12
f 8 13 14
f 8 14 9
f 11 15 16
f 11 16 12
f 13 17 18
f 13 18 14
f 15 19 20
f 15 20 16
f 17 20 19
f 17 19 18

