# https://github.com/mikedh/trimesh
v 243.53548998 1006.87498096 493.74857661
v 243.53548998 1006.87498096 468.40700611
v 11.30205396 1006.87498096 493.74857661
v 243.53548998 1003.43698503 503.43334796
v 504.20361995 1004.93574383 499.20849621
v 504.20361995 1006.86961654 493.74857661
v 504.20361995 1006.86961654 468.40700611
v 11.30205396 1006.87498096 468.40700611
v 1.59263609 1003.43698503 493.74857661
v 2.73203849 1002.28739024 502.28488566
v 11.30205396 1003.43698503 503.43334796
v 504.20361995 993.74607441 506.87497977
v 504.20361995 1003.43162061 503.43334796
v 504.20361995 968.77211556 468.40700611
v 1.59263609 1003.43698503 468.40700611
v 1.49357317 1003.16298248 468.40700611
v -1.82545188 993.74607441 493.74857661
v 11.30205396 993.74607441 506.87497977
v 1.59263609 993.74607441 503.43334796
v 504.20361995 952.32334949 506.87497977
v 504.20361995 962.73410541 473.84056556
v 448.86985633 952.32334949 480.90081027
v 15.21557574 951.99567295 468.40700611
v -1.82545188 993.74607441 468.40700611
v -1.82545188 951.99567295 493.74857661
v 11.30205396 951.99567295 506.87497977
v 1.59263609 951.99567295 503.43334796
v 504.20361995 952.32334949 489.14717252
v 243.53548998 951.99567295 506.87497977
v 504.20361995 962.01962453 474.65391564
v 243.53548998 951.99567295 489.48983962
v 148.96774361 951.99567295 480.75018933
v -1.82545188 951.99567295 468.40700611
f 1 2 8
f 1 8 3
f 1 3 11
f 1 11 4
f 1 4 5
f 1 5 6
f 1 6 7
f 1 7 2
f 2 7 14
f 2 14 23
f 2 23 33
f 2 33 24
f 2 24 16
f 2 16 15
f 2 15 8
f 3 8 15
f 3 15 9
f 3 9 10
f 3 10 11
f 4 12 13
f 4 13 5
f 4 11 18
f 4 18 12
f 5 13 12
f 5 12 20
f 5 20 28
f 5 28 30
f 5 30 21
f 5 21 14
f 5 14 7
f 5 7 6
f 9 15 16
f 9 16 17
f 9 17 10
f 10 18 11
f 10 17 19
f 10 19 18
f 12 18 26
f 12 26 29
f 12 29 20
f 14 21 22
f 14 22 23
f 16 24 17
f 17 24 33
f 17 33 25
f 17 25 27
f 17 27 19
f 18 19 27
f 18 27 26
f 20 29 31
f 20 31 28
f 21 30 22
f 22 30 28
f 22 28 31
f 22 31 32
f 22 32 23
f 23 32 31
f 23 31 29
f 23 29 26
f 23 26 27
f 23 27 25
f 23 25 33

