# https://github.com/mikedh/trimesh
v 1011.87158111 433.75900356 249.18982386
v 1011.87158111 433.75900356 121.62338136
v 977.56344544 433.75900356 249.18982386
v 1011.87158111 282.12681309 249.18982386
v 991.85339087 433.75900356 121.62338136
v 1011.87158111 356.25810853 121.62338136
v 977.56344544 433.75900356 246.20544909
v 977.08327042 419.28602717 249.18982386
v 977.56344544 282.12681309 249.18982386
v 1011.87158111 282.12681309 168.76152864
v 990.87939136 432.83867059 121.62338136
v 1011.80345300 353.37835480 121.62338136
v 977.08327042 419.28602717 243.19609996
v 987.62020937 429.75110527 121.62338136
v 981.37093056 422.95251750 121.62338136
v 980.49909342 421.51264064 121.62338136
v 977.58388983 416.68832262 121.62338136
v 977.08327042 406.16387084 249.18982386
v 977.56344544 282.12681309 246.67995049
v 1009.06533482 282.12681309 155.18823966
v 1011.39480355 343.75940189 121.62338136
v 977.58388983 409.78582160 121.62338136
v 977.08327042 406.16387084 243.65811419
v 995.41905995 282.12681309 168.76152864
v 1008.92913820 282.12681309 154.75119605
v 1010.60468438 341.50309785 121.62338136
v 995.36118384 343.75940189 121.62338136
v 999.00517342 282.12681309 155.01342669
v 998.95409224 282.12681309 155.18823966
v 1007.95513870 334.67481952 121.62338136
v 999.14482710 282.12681309 154.75119605
v 1000.37765978 334.67481952 121.62338136
f 1 2 5
f 1 5 7
f 1 7 3
f 1 3 8
f 1 8 18
f 1 18 9
f 1 9 4
f 1 4 10
f 1 10 6
f 1 6 2
f 2 6 12
f 2 12 21
f 2 21 26
f 2 26 30
f 2 30 32
f 2 32 27
f 2 27 22
f 2 22 17
f 2 17 16
f 2 16 15
f 2 15 14
f 2 14 11
f 2 11 5
f 3 7 13
f 3 13 8
f 4 9 19
f 4 19 24
f 4 24 29
f 4 29 28
f 4 28 31
f 4 31 25
f 4 25 20
f 4 20 10
f 5 11 7
f 6 10 12
f 7 11 14
f 7 14 15
f 7 15 16
f 7 16 17
f 7 17 13
f 8 13 23
f 8 23 18
f 9 18 23
f 9 23 19
f 10 20 21
f 10 21 12
f 13 17 22
f 13 22 23
f 19 23 22
f 19 22 24
f 20 25 21
f 21 25 26
f 22 27 28
f 22 28 29
f 22 29 24
f 25 30 26
f 25 31 32
f 25 32 30
f 27 32 31
f 27 31 28

