# https://github.com/mikedh/trimesh
v 10.66529754 268.43452343 139.97390814
v 14.57965379 294.22622821 68.76225683
v 10.00410321 294.22622821 82.29926149
v 9.94741919 294.22622821 82.39783267
v 9.83405116 294.22622821 82.54021326
v 1.21569632 268.43452343 139.97390814
v 30.04813206 212.52259475 139.97390814
v 14.82900982 294.22622821 28.09648110
v 31.87307728 206.24285796 139.97390814
v 36.72444836 206.24285796 28.09648110
v 1.82020663 294.22622821 82.54021326
v 0.28246639 265.76563604 139.97390814
v 1.69932841 294.22622821 82.29926149
v -1.87498334 294.22622821 68.76225683
v -1.87498334 294.22622821 28.09648110
v 31.83907283 200.65840936 139.97390814
v 31.82017816 198.23622560 139.97390814
v 36.41083852 201.46578408 28.09648110
v -1.78050998 256.23392943 139.97390814
v -1.87498334 252.44367005 139.97390814
v -1.87498334 65.10615141 28.09648110
v 14.04690747 65.10615141 139.97390814
v 14.82900982 65.10615141 28.09648110
v -1.87498334 65.10615141 139.97390814
f 1 2 3
f 1 3 4
f 1 4 5
f 1 5 11
f 1 11 6
f 1 6 12
f 1 12 19
f 1 19 20
f 1 20 24
f 1 24 22
f 1 22 17
f 1 17 16
f 1 16 9
f 1 9 7
f 1 7 2
f 2 8 15
f 2 15 14
f 2 14 13
f 2 13 11
f 2 11 5
f 2 5 4
f 2 4 3
f 2 7 9
f 2 9 10
f 2 10 8
f 6 11 13
f 6 13 14
f 6 14 12
f 8 10 18
f 8 18 23
f 8 23 21
f 8 21 15
f 9 16 10
f 10 16 17
f 10 17 18
f 12 14 19
f 14 15 21
f 14 21 24
f 14 24 20
f 14 20 19
f 17 22 18
f 18 22 23
f 21 23 22
f 21 22 24

