# https://github.com/mikedh/trimesh
v 333.51308264 494.09708378 492.85480496
v 333.51308264 494.09708378 483.94587748
v 323.75165972 494.09708378 498.18042039
v 504.20364976 476.31917138 490.49314971
v 323.75165972 494.09708378 480.53610435
v 504.20364976 476.31917138 485.81068330
v 286.22840479 494.09708378 506.87497977
v 504.20364976 472.24807726 493.49455652
v 297.33313759 494.09708378 472.64807032
v 504.20364976 468.70695040 482.30564705
v 504.20364976 393.74102601 506.87497977
v 504.20364976 461.67287212 497.24801003
v 504.20364976 468.70695040 495.82558988
v 46.76011225 494.09708378 506.87497977
v 504.20364976 403.30447956 472.56639706
v 449.44118175 392.97016659 472.11380409
v 299.48243639 406.96605996 472.11380409
v 139.98615806 494.09708378 472.64807032
v 504.20364976 248.00071000 506.87497977
v 46.76011225 494.09708378 488.82910723
v 46.76011225 248.00071000 506.87497977
v 504.20364976 396.67992245 472.56639706
v 446.93365904 248.00071000 472.64807032
v 149.47891304 392.97016659 472.11380409
v 149.47891304 406.96605996 472.11380409
v 136.22489634 406.29155889 472.11380409
v 73.76074824 403.28039183 472.56639706
v 63.90976934 402.17228187 473.37970244
v 504.20364976 248.00071000 490.94915505
v 46.76011225 409.18227242 479.19875493
v 46.76011225 248.00071000 488.82910723
v 139.98615806 248.00071000 472.64807032
v 136.22489634 393.62057993 472.11380409
v 73.76074824 396.67992245 472.56639706
v 63.90976934 397.73984950 473.37970244
f 1 2 5
f 1 5 9
f 1 9 18
f 1 18 20
f 1 20 14
f 1 14 7
f 1 7 3
f 1 3 4
f 1 4 6
f 1 6 2
f 2 6 5
f 3 7 4
f 4 8 13
f 4 13 12
f 4 12 11
f 4 11 19
f 4 19 29
f 4 29 22
f 4 22 15
f 4 15 10
f 4 10 6
f 4 7 8
f 5 6 9
f 6 10 9
f 7 11 12
f 7 12 13
f 7 13 8
f 7 14 21
f 7 21 19
f 7 19 11
f 9 10 15
f 9 15 16
f 9 16 17
f 9 17 25
f 9 25 18
f 14 20 30
f 14 30 31
f 14 31 21
f 15 22 16
f 16 22 23
f 16 23 32
f 16 32 24
f 16 24 33
f 16 33 26
f 16 26 25
f 16 25 17
f 18 25 26
f 18 26 27
f 18 27 28
f 18 28 20
f 19 21 31
f 19 31 32
f 19 32 23
f 19 23 29
f 20 28 30
f 22 29 23
f 24 32 33
f 26 33 34
f 26 34 27
f 27 34 35
f 27 35 28
f 28 35 30
f 30 35 31
f 31 35 32
f 32 35 34
f 32 34 33

