# https://github.com/mikedh/trimesh
v 504.20364976 952.29709364 506.87497977
v 504.20364976 806.26741198 506.87497977
v 504.20364976 952.29709364 489.15411646
v 243.54794735 952.29709364 506.87497977
v 504.20364976 743.78433940 497.99412607
v 286.29347816 719.18362484 506.87497977
v 504.20364976 803.34636714 472.56974982
v 446.91540512 931.21075836 472.64801072
v 445.41892619 941.02364989 473.43401717
v 448.87234482 952.29709364 480.89936486
v 243.54794735 952.29709364 489.43993563
v 115.23455434 951.97758294 506.87497977
v 504.20364976 731.27859941 495.82326529
v 324.20423779 719.18362484 498.15064787
v 504.20364976 723.70213377 490.49134667
v 112.20324091 719.18362484 506.87497977
v 504.20364976 796.68271683 472.56974982
v 449.40954659 806.99768809 472.11720155
v 149.50007269 807.02051667 472.11720155
v 139.98401229 931.21075836 472.64801072
v 140.82819288 941.02364989 473.43401717
v 298.95597836 952.29709364 480.89936486
v 291.28173130 952.29709364 481.72620049
v 141.59560269 951.97758294 481.54245427
v 137.25966278 951.97758294 482.61088244
v 115.23455434 951.97758294 489.73597700
v 112.20324091 866.69662770 506.87497977
v 336.71325603 719.18362484 493.54009446
v 337.17371682 719.18362484 493.33934602
v 504.20364976 723.70213377 485.81275456
v 112.20324091 719.18362484 490.90987559
v 504.20364976 731.27859941 482.30804614
v 297.38275846 719.18362484 472.65140818
v 299.53155062 793.03142568 472.11720155
v 136.22361484 806.35869649 472.11720155
v 112.20324091 803.34636714 472.56974982
v 148.96285603 951.97758294 480.74965289
v 112.20324091 866.69662770 490.90987559
v 337.17371682 719.18362484 483.77117626
v 504.20364976 727.76422013 483.84603970
v 112.20324091 796.70554541 472.56974982
v 139.98401229 719.18362484 472.65140818
v 149.50007269 793.03142568 472.11720155
v 136.22361484 793.67038748 472.11720155
f 1 2 5
f 1 5 13
f 1 13 15
f 1 15 30
f 1 30 40
f 1 40 32
f 1 32 17
f 1 17 7
f 1 7 3
f 1 3 10
f 1 10 22
f 1 22 23
f 1 23 11
f 1 11 4
f 1 4 12
f 1 12 27
f 1 27 16
f 1 16 6
f 1 6 2
f 2 6 5
f 3 7 8
f 3 8 9
f 3 9 10
f 4 11 26
f 4 26 12
f 5 6 13
f 6 14 15
f 6 15 13
f 6 16 31
f 6 31 42
f 6 42 33
f 6 33 39
f 6 39 29
f 6 29 28
f 6 28 14
f 7 17 18
f 7 18 8
f 8 18 19
f 8 19 20
f 8 20 21
f 8 21 9
f 9 21 22
f 9 22 10
f 11 23 24
f 11 24 25
f 11 25 26
f 12 26 38
f 12 38 27
f 14 28 15
f 15 28 29
f 15 29 39
f 15 39 30
f 16 27 38
f 16 38 36
f 16 36 41
f 16 41 31
f 17 32 33
f 17 33 18
f 18 33 34
f 18 34 43
f 18 43 44
f 18 44 35
f 18 35 19
f 19 35 20
f 20 35 36
f 20 36 26
f 20 26 21
f 21 26 25
f 21 25 24
f 21 24 37
f 21 37 22
f 22 37 24
f 22 24 23
f 26 36 38
f 30 39 33
f 30 33 40
f 31 41 42
f 32 40 33
f 33 42 43
f 33 43 34
f 35 44 41
f 35 41 36
f 41 44 42
f 42 44 43

