# https://github.com/mikedh/trimesh
v 23.47078928 763.11847693 239.14665724
v -1.39427188 763.11847693 239.14665724
v 24.87206469 756.24549511 239.14665724
v 32.95582546 763.11847693 13.64287621
v -1.87158588 763.11847693 143.73379895
v -1.87158588 751.63713218 239.14665724
v 32.74786486 630.34577730 239.14665724
v 32.95582546 763.11847693 -6.85089949
v 32.95582546 628.73944702 45.33477030
v -1.87158588 763.11847693 6.27377513
v -1.87158588 494.09708378 239.14665724
v 32.74446739 619.81244442 239.14665724
v 32.95582546 494.09708378 13.64287621
v 32.95582546 621.62944732 45.33477030
v 11.25136021 763.11847693 -6.85089949
v 32.95582546 494.09708378 -6.85089949
v -0.32371285 763.11847693 1.89086677
v -1.87158588 494.09708378 6.27377513
v 22.27407702 494.09708378 239.14665724
v 5.92920185 763.11847693 -4.97251871
v 11.25136021 494.09708378 -6.85089949
v 10.98200682 494.09708378 -6.77865866
v 1.56509875 763.11847693 -3.43126179
v 1.46967171 494.09708378 -3.16637875
v 1.56509875 494.09708378 -3.43126179
f 1 2 6
f 1 6 11
f 1 11 19
f 1 19 12
f 1 12 7
f 1 7 3
f 1 3 4
f 1 4 8
f 1 8 15
f 1 15 20
f 1 20 23
f 1 23 17
f 1 17 10
f 1 10 5
f 1 5 2
f 2 5 6
f 3 7 4
f 4 7 9
f 4 9 14
f 4 14 13
f 4 13 16
f 4 16 8
f 5 10 18
f 5 18 11
f 5 11 6
f 7 12 13
f 7 13 14
f 7 14 9
f 8 16 21
f 8 21 15
f 10 17 18
f 11 18 24
f 11 24 25
f 11 25 22
f 11 22 21
f 11 21 16
f 11 16 13
f 11 13 19
f 12 19 13
f 15 21 22
f 15 22 20
f 17 23 24
f 17 24 18
f 20 22 23
f 22 25 23
f 23 25 24

