# https://github.com/mikedh/trimesh
v 11.25645640 763.11847693 -6.85775402
v 32.94837488 763.11847693 -6.85775402
v 1.56813858 763.11847693 -3.41275455
v 11.25645640 874.89828646 -6.85775402
v 32.94837488 874.89828646 -6.85775402
v 48.87697122 831.24113241 14.63466770
v 46.26360555 812.60752827 14.63466770
v 32.94837488 763.11847693 13.65673429
v 1.56813858 874.89828646 -3.41275455
v -1.86997655 763.11847693 6.29995647
v 32.94837488 874.89828646 13.65673429
v 46.50208374 847.46760296 14.63466770
v 47.42619415 843.73650119 14.63466770
v 48.59873673 835.88040035 14.63466770
v 32.41673125 840.24611278 220.20176039
v 32.41673125 833.27627341 220.20176039
v 14.87341528 763.11847693 156.21347681
v -1.86997655 874.89828646 6.29995647
v -1.86997655 763.11847693 143.72253367
v -1.87498334 831.24113241 169.03780362
v 14.26726584 874.89828646 220.20176039
v 27.10554014 825.94537890 220.20176039
v 10.32239201 763.11847693 167.88205465
v 12.92580370 763.11847693 162.72565681
v -1.87498334 874.89828646 169.03780362
v -1.62655118 763.11847693 156.21347681
v -1.87498334 831.24113241 220.20176039
v -1.87498334 874.89828646 220.20176039
v 21.61052831 820.97786818 220.20176039
v 1.45882366 763.11847693 167.88205465
v 11.95201281 813.03423792 220.20176039
v 9.62680580 811.50242835 220.20176039
v 0.50985811 818.03456100 220.20176039
v 2.16931103 812.57468611 220.20176039
f 1 2 8
f 1 8 17
f 1 17 24
f 1 24 23
f 1 23 30
f 1 30 26
f 1 26 19
f 1 19 10
f 1 10 3
f 1 3 9
f 1 9 4
f 1 4 5
f 1 5 2
f 2 5 6
f 2 6 7
f 2 7 8
f 3 10 18
f 3 18 9
f 4 9 18
f 4 18 25
f 4 25 28
f 4 28 21
f 4 21 11
f 4 11 5
f 5 11 12
f 5 12 13
f 5 13 14
f 5 14 6
f 6 14 15
f 6 15 16
f 6 16 7
f 7 16 8
f 8 16 17
f 10 19 27
f 10 27 20
f 10 20 25
f 10 25 18
f 11 21 15
f 11 15 12
f 12 15 13
f 13 15 14
f 15 21 28
f 15 28 27
f 15 27 33
f 15 33 34
f 15 34 32
f 15 32 31
f 15 31 29
f 15 29 22
f 15 22 16
f 16 22 23
f 16 23 24
f 16 24 17
f 19 26 27
f 20 27 28
f 20 28 25
f 22 29 23
f 23 29 31
f 23 31 32
f 23 32 30
f 26 30 33
f 26 33 27
f 30 32 34
f 30 34 33

