# https://github.com/mikedh/trimesh
v 445.44655667 1003.49962951 337.21177322
v 445.44655667 1002.36863137 340.46508415
v 445.44655667 994.27116153 337.21177322
v 327.50615631 1002.10309268 337.21177322
v 445.44655667 996.26663564 340.46508415
v 327.50615631 1001.39034033 338.61933691
v 445.44655667 994.93059752 338.52602584
v 327.50615631 996.70383571 337.21177322
v 327.50615631 997.63790010 338.61933691
v 327.50615631 996.86825512 337.45952737
f 1 2 5
f 1 5 7
f 1 7 3
f 1 3 8
f 1 8 4
f 1 4 2
f 2 4 6
f 2 6 9
f 2 9 5
f 3 7 8
f 4 8 10
f 4 10 9
f 4 9 6
f 5 9 7
f 7 9 10
f 7 10 8

