# https://github.com/mikedh/trimesh
v 531.04445589 11.16445427 -6.87497977
v 531.04445589 11.16445427 23.74517810
v 531.04445589 31.55523315 -6.87497977
v 611.12860879 6.25109437 -6.87497977
v 611.12860879 -3.43263389 -3.43278171
v 611.12860879 -6.83361534 6.13719109
v 611.12860879 -6.87122587 6.25502947
v 531.04445589 31.55523315 13.65423090
v 611.12860879 -6.87122587 31.24982014
v 611.12860879 -3.61699106 44.15035150
v 611.12860879 -3.54928018 44.31781075
v 611.12860879 5.40461900 44.31781075
v 660.71404829 5.81094387 56.48648647
v 660.78079059 5.84855440 56.48648647
v 726.98368476 31.55898824 -6.86258200
v 726.98368476 31.55523315 -6.87497977
v 726.98368476 6.25109437 -6.87497977
v 871.93599757 -2.02936173 -3.93515946
v 726.98368476 -3.43638899 -3.43278171
v 871.93599757 -3.43638899 -3.43278171
v 871.93599757 -6.87498096 6.25502947
v 726.98368476 -6.87498096 6.25502947
v 673.76108786 9.67842107 56.48648647
v 750.60850737 31.43107668 30.84047034
v 750.64187107 31.55898824 30.41252389
v 726.98368476 31.55898824 14.03257138
v 726.98368476 -6.87498096 30.84047034
v 673.76108786 -6.87122587 56.48648647
v 660.78079059 -3.88407947 56.48648647
v 660.71404829 -3.85773422 56.48648647
v 871.93599757 31.55898824 -6.86258200
v 871.93599757 6.25109437 -6.86258200
v 871.93599757 -6.87498096 30.84047034
v 726.98368476 9.78374247 56.48648647
v 757.74935247 31.43107668 30.84047034
v 757.74935247 31.55898824 30.39391234
v 726.98368476 -6.87122587 56.48648647
v 871.93599757 31.55898824 13.45576233
v 871.93599757 9.22319059 30.84047034
f 1 2 8
f 1 8 3
f 1 3 16
f 1 16 17
f 1 17 4
f 1 4 5
f 1 5 6
f 1 6 7
f 1 7 9
f 1 9 2
f 2 9 10
f 2 10 11
f 2 11 12
f 2 12 13
f 2 13 14
f 2 14 8
f 3 8 26
f 3 26 15
f 3 15 31
f 3 31 16
f 4 17 18
f 4 18 5
f 5 18 19
f 5 19 6
f 6 19 20
f 6 20 21
f 6 21 22
f 6 22 7
f 7 22 27
f 7 27 9
f 8 14 23
f 8 23 24
f 8 24 25
f 8 25 26
f 9 27 28
f 9 28 10
f 10 28 11
f 11 28 29
f 11 29 30
f 11 30 13
f 11 13 12
f 13 30 29
f 13 29 28
f 13 28 37
f 13 37 34
f 13 34 23
f 13 23 14
f 15 26 25
f 15 25 36
f 15 36 38
f 15 38 31
f 16 31 32
f 16 32 17
f 17 32 18
f 18 32 31
f 18 31 38
f 18 38 39
f 18 39 33
f 18 33 21
f 18 21 20
f 18 20 19
f 21 33 27
f 21 27 22
f 23 34 24
f 24 34 35
f 24 35 25
f 25 35 36
f 27 33 37
f 27 37 28
f 33 39 34
f 33 34 37
f 34 39 38
f 34 38 35
f 35 38 36

