# https://github.com/mikedh/trimesh
v 1011.87128309 750.87517620 249.18982386
v 1011.87128309 758.50391511 153.98322745
v 1011.79343942 758.50391511 156.24740675
v 1009.39095499 758.50391511 168.07886919
v 1008.99053099 758.50391511 169.25534567
v 977.56910788 750.87517620 249.18982386
v 1011.87128309 433.77384512 249.18982386
v 1011.87128309 758.50391511 129.29921540
v 999.10250780 758.50391511 169.25534567
v 977.56910788 750.87517620 246.65926395
v 974.00242552 632.31182161 22.41654586
v 974.00242552 630.27750018 27.14469923
v 977.07969414 631.35823670 249.18982386
v 994.96859784 758.50391511 156.24740675
v 977.56910788 433.77384512 249.18982386
v 1011.87128309 433.77384512 129.32141068
v 995.76199527 758.50391511 129.29921540
v 1011.87128309 734.40981023 22.41654586
v 995.20215864 758.50391511 143.75001886
v 992.77002090 734.40981023 22.41654586
v 974.00242552 617.94436779 22.41654586
v 974.00242552 619.88333670 26.94490446
v 977.07969414 618.64366439 249.18982386
v 977.56910788 433.77384512 246.19311092
v 974.00242552 618.00793615 22.74951230
v 1011.87128309 433.80562930 22.41654586
v 991.85795062 433.77384512 129.32141068
v 988.44331972 433.80562930 22.41654586
f 1 2 3
f 1 3 4
f 1 4 5
f 1 5 9
f 1 9 6
f 1 6 13
f 1 13 23
f 1 23 15
f 1 15 7
f 1 7 16
f 1 16 26
f 1 26 18
f 1 18 8
f 1 8 2
f 2 8 17
f 2 17 19
f 2 19 14
f 2 14 9
f 2 9 5
f 2 5 4
f 2 4 3
f 6 10 11
f 6 11 12
f 6 12 13
f 6 9 14
f 6 14 10
f 7 15 24
f 7 24 27
f 7 27 16
f 8 18 20
f 8 20 17
f 10 14 19
f 10 19 17
f 10 17 20
f 10 20 11
f 11 20 18
f 11 18 26
f 11 26 28
f 11 28 21
f 11 21 25
f 11 25 22
f 11 22 12
f 12 22 23
f 12 23 13
f 15 23 22
f 15 22 25
f 15 25 21
f 15 21 24
f 16 27 28
f 16 28 26
f 21 28 24
f 24 28 27

