# https://github.com/mikedh/trimesh
v 973.96004662 1006.87498096 249.18760173
v 973.96004662 968.38465556 249.18760173
v 973.96004662 1006.87498096 226.44988064
v 616.44669169 1006.87498096 249.18760173
v 973.96004662 968.38465556 246.05098085
v 616.44669169 972.56338822 249.18760173
v 973.96004662 989.65889449 226.44988064
v 653.58047497 1006.87498096 226.44988064
v 616.44669169 1006.87498096 231.25164947
v 616.44669169 972.56338822 246.68097588
v 750.56231377 972.60859834 226.44988064
v 757.84206749 972.60859834 226.44988064
v 641.08588105 1006.75064567 226.44988064
v 616.44669169 1006.34742025 226.44988064
v 616.44669169 989.32352895 226.44988064
f 1 2 5
f 1 5 7
f 1 7 3
f 1 3 8
f 1 8 9
f 1 9 4
f 1 4 6
f 1 6 2
f 2 6 10
f 2 10 5
f 3 7 12
f 3 12 11
f 3 11 15
f 3 15 14
f 3 14 13
f 3 13 8
f 4 9 14
f 4 14 15
f 4 15 10
f 4 10 6
f 5 10 11
f 5 11 12
f 5 12 7
f 8 13 9
f 9 13 14
f 10 15 11

