# https://github.com/mikedh/trimesh
v 661.03187516 -3.22407724 194.38593436
v 604.28464698 -3.68422510 206.24151433
v 661.03187516 4.88048556 194.38593436
v 673.74115011 -6.87498096 194.38593436
v 604.28464698 5.49512866 206.24151433
v 604.28464698 -4.39626219 208.40878020
v 673.10448309 9.70357423 194.38593436
v 727.00474010 -6.87498096 194.38593436
v 604.28464698 -6.87498096 224.28238007
v 604.28464698 -6.67011979 218.75692889
v 604.28464698 -4.99749424 210.24344097
v 604.28464698 27.43750585 246.67387082
v 673.74115011 9.75060229 194.38593436
v 727.00474010 9.78418951 194.38593436
v 727.00474010 -6.87498096 249.18982759
v 604.28464698 -6.87498096 249.18982759
v 604.28464698 27.43750585 249.18982759
v 727.00474010 27.43750585 246.49147688
v 727.00474010 27.43750585 249.18982759
f 1 2 5
f 1 5 3
f 1 3 7
f 1 7 13
f 1 13 14
f 1 14 8
f 1 8 4
f 1 4 2
f 2 4 6
f 2 6 11
f 2 11 10
f 2 10 9
f 2 9 16
f 2 16 17
f 2 17 12
f 2 12 5
f 3 5 7
f 4 8 15
f 4 15 16
f 4 16 9
f 4 9 10
f 4 10 11
f 4 11 6
f 5 12 7
f 7 12 13
f 8 14 18
f 8 18 19
f 8 19 15
f 12 17 19
f 12 19 18
f 12 18 14
f 12 14 13
f 15 19 17
f 15 17 16

