# https://github.com/mikedh/trimesh
v 1011.87497858 433.77384512 43.71839663
v 1011.87497858 433.77384512 6.26236084
v 991.80308455 433.77384512 43.71839663
v 1011.87497858 31.63775578 43.71839663
v 1008.46565248 393.61536452 -3.34924580
v 1008.43364479 433.77384512 -3.42351319
v 1011.87497858 31.55901805 6.26236084
v 970.99489434 433.77384512 14.63599391
v 987.53738872 429.71862819 43.71839663
v 994.34409017 31.55901805 43.71839663
v 1011.87497858 31.55901805 43.43119165
v 1008.43364479 31.55901805 -3.42351319
v 1006.48087741 433.77384512 -4.12669899
v 1008.41361763 181.28719774 -3.43838455
v 970.99489434 433.77384512 -6.87003258
v 970.99489434 414.75762386 27.95655920
v 977.01725827 416.88366195 43.71839663
v 981.30694497 423.14366960 43.71839663
v 992.34730476 31.55901805 43.71839663
v 1008.19755079 31.55901805 -3.51265194
v 998.74982712 433.77384512 -6.87003258
v 998.74982712 31.55901805 -6.87003258
v 970.99489434 31.55901805 -6.87003258
v 970.99489434 410.93863504 27.95655920
v 977.01725827 409.52126639 43.71839663
v 977.76955830 198.13799714 43.71839663
v 970.99489434 31.55901805 12.70970589
v 970.99489434 206.24843100 24.50509262
v 977.57748233 206.24843100 43.71839663
f 1 2 6
f 1 6 13
f 1 13 21
f 1 21 15
f 1 15 8
f 1 8 3
f 1 3 9
f 1 9 18
f 1 18 17
f 1 17 25
f 1 25 29
f 1 29 26
f 1 26 19
f 1 19 10
f 1 10 4
f 1 4 11
f 1 11 7
f 1 7 2
f 2 5 6
f 2 7 5
f 3 8 9
f 4 10 11
f 5 7 12
f 5 12 6
f 6 12 14
f 6 14 13
f 7 11 10
f 7 10 19
f 7 19 27
f 7 27 23
f 7 23 22
f 7 22 20
f 7 20 12
f 8 15 23
f 8 23 27
f 8 27 28
f 8 28 24
f 8 24 16
f 8 16 17
f 8 17 18
f 8 18 9
f 12 20 14
f 13 14 22
f 13 22 21
f 14 20 22
f 15 21 22
f 15 22 23
f 16 24 25
f 16 25 17
f 19 26 27
f 24 28 29
f 24 29 25
f 26 29 27
f 27 29 28

